0, 0, Header, 1, 1, 384
1, 0, Start_track
1, 0, Title_t, "6/29 1 ~ 3  e-Comp"
1, 0, Program_c, 0, 0
1, 786, Note_on_c, 0, 74, 92
1, 834, Note_on_c, 0, 74, 0
1, 1187, Note_on_c, 0, 81, 93
1, 1560, Note_on_c, 0, 57, 79
1, 1609, Note_on_c, 0, 57, 0
1, 1946, Note_on_c, 0, 62, 86
1, 1967, Control_c, 0, 64, 56
1, 1979, Note_on_c, 0, 62, 0
1, 1981, Control_c, 0, 64, 67
1, 1996, Control_c, 0, 64, 78
1, 1996, Note_on_c, 0, 81, 0
1, 2012, Control_c, 0, 64, 127
1, 2316, Note_on_c, 0, 78, 97
1, 2323, Note_on_c, 0, 74, 82
1, 2332, Control_c, 0, 64, 69
1, 2347, Control_c, 0, 64, 0
1, 2666, Note_on_c, 0, 74, 0
1, 2702, Note_on_c, 0, 73, 73
1, 2709, Note_on_c, 0, 76, 79
1, 2711, Note_on_c, 0, 78, 0
1, 2736, Note_on_c, 0, 73, 0
1, 2747, Note_on_c, 0, 76, 0
1, 2812, Note_on_c, 0, 71, 78
1, 2816, Note_on_c, 0, 74, 72
1, 2842, Note_on_c, 0, 71, 0
1, 2853, Note_on_c, 0, 74, 0
1, 2907, Note_on_c, 0, 73, 79
1, 2916, Note_on_c, 0, 69, 76
1, 2940, Note_on_c, 0, 69, 0
1, 2962, Note_on_c, 0, 73, 0
1, 3016, Note_on_c, 0, 71, 83
1, 3017, Note_on_c, 0, 67, 78
1, 3046, Note_on_c, 0, 67, 0
1, 3060, Note_on_c, 0, 71, 0
1, 3120, Note_on_c, 0, 69, 77
1, 3121, Note_on_c, 0, 66, 76
1, 3148, Note_on_c, 0, 66, 0
1, 3159, Note_on_c, 0, 69, 0
1, 3222, Note_on_c, 0, 64, 73
1, 3222, Note_on_c, 0, 67, 72
1, 3259, Note_on_c, 0, 64, 0
1, 3281, Note_on_c, 0, 67, 0
1, 3347, Note_on_c, 0, 62, 80
1, 3347, Note_on_c, 0, 66, 85
1, 3368, Note_on_c, 0, 62, 0
1, 3375, Note_on_c, 0, 66, 0
1, 3379, Control_c, 0, 64, 62
1, 3394, Control_c, 0, 64, 67
1, 3409, Control_c, 0, 64, 76
1, 3425, Control_c, 0, 64, 113
1, 3440, Control_c, 0, 64, 127
1, 3607, Control_c, 0, 64, 105
1, 3623, Control_c, 0, 64, 87
1, 3638, Control_c, 0, 64, 80
1, 3653, Control_c, 0, 64, 79
1, 3683, Control_c, 0, 64, 79
1, 3699, Control_c, 0, 64, 69
1, 3714, Control_c, 0, 64, 0
1, 3715, Note_on_c, 0, 81, 96
1, 3722, Note_on_c, 0, 78, 81
1, 4060, Note_on_c, 0, 78, 0
1, 4072, Note_on_c, 0, 81, 0
1, 4085, Note_on_c, 0, 79, 84
1, 4100, Note_on_c, 0, 76, 70
1, 4127, Note_on_c, 0, 76, 0
1, 4144, Note_on_c, 0, 79, 0
1, 4194, Note_on_c, 0, 78, 89
1, 4201, Note_on_c, 0, 74, 81
1, 4235, Note_on_c, 0, 74, 0
1, 4254, Note_on_c, 0, 78, 0
1, 4301, Note_on_c, 0, 76, 92
1, 4302, Note_on_c, 0, 73, 83
1, 4348, Note_on_c, 0, 76, 0
1, 4352, Note_on_c, 0, 73, 0
1, 4400, Note_on_c, 0, 74, 89
1, 4408, Note_on_c, 0, 71, 79
1, 4446, Note_on_c, 0, 71, 0
1, 4456, Note_on_c, 0, 74, 0
1, 4504, Note_on_c, 0, 73, 90
1, 4510, Note_on_c, 0, 69, 81
1, 4535, Note_on_c, 0, 69, 0
1, 4563, Note_on_c, 0, 73, 0
1, 4605, Note_on_c, 0, 67, 79
1, 4610, Note_on_c, 0, 71, 88
1, 4635, Note_on_c, 0, 67, 0
1, 4654, Note_on_c, 0, 71, 0
1, 4724, Note_on_c, 0, 66, 80
1, 4730, Note_on_c, 0, 69, 82
1, 4753, Note_on_c, 0, 66, 0
1, 4768, Control_c, 0, 64, 61
1, 4774, Note_on_c, 0, 69, 0
1, 4793, Control_c, 0, 64, 65
1, 4808, Control_c, 0, 64, 73
1, 4823, Control_c, 0, 64, 99
1, 4838, Control_c, 0, 64, 127
1, 5021, Control_c, 0, 64, 111
1, 5036, Control_c, 0, 64, 85
1, 5050, Control_c, 0, 64, 73
1, 5066, Control_c, 0, 64, 66
1, 5068, Note_on_c, 0, 86, 87
1, 5081, Control_c, 0, 64, 61
1, 5090, Note_on_c, 0, 66, 61
1, 5097, Control_c, 0, 64, 35
1, 5112, Control_c, 0, 64, 0
1, 5149, Note_on_c, 0, 66, 0
1, 5183, Note_on_c, 0, 81, 90
1, 5206, Note_on_c, 0, 86, 0
1, 5270, Note_on_c, 0, 81, 0
1, 5276, Note_on_c, 0, 74, 92
1, 5417, Note_on_c, 0, 67, 60
1, 5417, Note_on_c, 0, 74, 0
1, 5419, Note_on_c, 0, 78, 75
1, 5491, Note_on_c, 0, 78, 0
1, 5495, Note_on_c, 0, 76, 74
1, 5513, Note_on_c, 0, 67, 0
1, 5552, Note_on_c, 0, 76, 0
1, 5559, Control_c, 0, 67, 8
1, 5561, Note_on_c, 0, 78, 74
1, 5575, Control_c, 0, 67, 17
1, 5590, Control_c, 0, 67, 25
1, 5606, Control_c, 0, 67, 36
1, 5617, Note_on_c, 0, 76, 71
1, 5620, Note_on_c, 0, 78, 0
1, 5622, Control_c, 0, 67, 45
1, 5636, Control_c, 0, 67, 51
1, 5651, Control_c, 0, 67, 57
1, 5666, Note_on_c, 0, 76, 0
1, 5667, Control_c, 0, 67, 62
1, 5669, Note_on_c, 0, 78, 72
1, 5682, Control_c, 0, 67, 69
1, 5698, Control_c, 0, 67, 78
1, 5712, Control_c, 0, 67, 86
1, 5723, Note_on_c, 0, 76, 71
1, 5727, Control_c, 0, 67, 93
1, 5727, Note_on_c, 0, 78, 0
1, 5743, Control_c, 0, 67, 98
1, 5758, Control_c, 0, 67, 103
1, 5773, Note_on_c, 0, 76, 0
1, 5774, Control_c, 0, 67, 107
1, 5776, Note_on_c, 0, 78, 70
1, 5788, Control_c, 0, 67, 110
1, 5796, Note_on_c, 0, 69, 62
1, 5803, Control_c, 0, 67, 112
1, 5819, Control_c, 0, 67, 113
1, 5829, Note_on_c, 0, 69, 0
1, 5832, Note_on_c, 0, 76, 67
1, 5834, Note_on_c, 0, 78, 0
1, 5885, Note_on_c, 0, 76, 0
1, 5893, Note_on_c, 0, 78, 72
1, 5910, Control_c, 0, 67, 112
1, 5925, Control_c, 0, 67, 111
1, 5941, Control_c, 0, 67, 110
1, 5951, Note_on_c, 0, 76, 68
1, 5951, Note_on_c, 0, 78, 0
1, 5971, Control_c, 0, 67, 110
1, 5986, Control_c, 0, 67, 109
1, 6001, Control_c, 0, 67, 108
1, 6001, Note_on_c, 0, 76, 0
1, 6008, Note_on_c, 0, 74, 71
1, 6017, Control_c, 0, 67, 106
1, 6032, Control_c, 0, 67, 105
1, 6062, Control_c, 0, 67, 104
1, 6073, Note_on_c, 0, 74, 0
1, 6076, Note_on_c, 0, 76, 70
1, 6093, Control_c, 0, 67, 104
1, 6109, Control_c, 0, 67, 102
1, 6123, Control_c, 0, 67, 100
1, 6139, Control_c, 0, 67, 99
1, 6154, Control_c, 0, 67, 97
1, 6169, Control_c, 0, 67, 96
1, 6169, Note_on_c, 0, 76, 0
1, 6174, Note_on_c, 0, 62, 46
1, 6174, Note_on_c, 0, 78, 70
1, 6185, Control_c, 0, 67, 95
1, 6199, Control_c, 0, 67, 95
1, 6215, Control_c, 0, 67, 93
1, 6230, Control_c, 0, 64, 34
1, 6230, Control_c, 0, 67, 90
1, 6244, Control_c, 0, 64, 59
1, 6244, Control_c, 0, 67, 87
1, 6260, Control_c, 0, 64, 64
1, 6260, Control_c, 0, 67, 84
1, 6275, Control_c, 0, 64, 70
1, 6275, Control_c, 0, 67, 81
1, 6283, Note_on_c, 0, 78, 0
1, 6290, Control_c, 0, 64, 86
1, 6290, Control_c, 0, 67, 77
1, 6296, Note_on_c, 0, 62, 0
1, 6306, Control_c, 0, 64, 127
1, 6306, Control_c, 0, 67, 73
1, 6328, Control_c, 0, 67, 70
1, 6344, Control_c, 0, 67, 68
1, 6359, Control_c, 0, 67, 67
1, 6374, Control_c, 0, 67, 66
1, 6389, Control_c, 0, 67, 65
1, 6404, Control_c, 0, 67, 64
1, 6421, Control_c, 0, 67, 63
1, 6436, Control_c, 0, 67, 62
1, 6451, Control_c, 0, 67, 61
1, 6467, Control_c, 0, 67, 60
1, 6481, Control_c, 0, 67, 60
1, 6497, Control_c, 0, 67, 59
1, 6512, Control_c, 0, 67, 58
1, 6527, Control_c, 0, 67, 58
1, 6543, Control_c, 0, 67, 57
1, 6557, Control_c, 0, 64, 99
1, 6557, Note_on_c, 0, 62, 67
1, 6558, Note_on_c, 0, 81, 73
1, 6573, Control_c, 0, 64, 64
1, 6586, Note_on_c, 0, 62, 0
1, 6588, Control_c, 0, 64, 0
1, 6588, Control_c, 0, 67, 57
1, 6619, Control_c, 0, 67, 56
1, 6633, Control_c, 0, 67, 55
1, 6648, Control_c, 0, 67, 54
1, 6662, Note_on_c, 0, 81, 0
1, 6664, Control_c, 0, 67, 54
1, 6667, Note_on_c, 0, 74, 68
1, 6694, Control_c, 0, 67, 53
1, 6730, Note_on_c, 0, 74, 0
1, 6763, Note_on_c, 0, 69, 59
1, 6769, Control_c, 0, 67, 53
1, 6785, Control_c, 0, 67, 52
1, 6815, Control_c, 0, 67, 52
1, 6875, Note_on_c, 0, 55, 61
1, 6879, Note_on_c, 0, 71, 66
1, 6882, Note_on_c, 0, 69, 0
1, 6891, Control_c, 0, 67, 51
1, 6905, Note_on_c, 0, 55, 0
1, 6907, Control_c, 0, 67, 51
1, 6922, Control_c, 0, 67, 50
1, 6935, Note_on_c, 0, 71, 0
1, 6938, Control_c, 0, 67, 49
1, 6948, Note_on_c, 0, 73, 68
1, 6953, Control_c, 0, 67, 48
1, 6967, Control_c, 0, 67, 48
1, 6983, Control_c, 0, 67, 47
1, 7013, Control_c, 0, 67, 47
1, 7021, Note_on_c, 0, 73, 0
1, 7022, Note_on_c, 0, 71, 65
1, 7038, Note_on_c, 0, 64, 59
1, 7050, Note_on_c, 0, 71, 0
1, 7059, Control_c, 0, 67, 46
1, 7068, Note_on_c, 0, 64, 0
1, 7091, Note_on_c, 0, 69, 68
1, 7097, Control_c, 0, 67, 46
1, 7112, Control_c, 0, 67, 45
1, 7126, Control_c, 0, 67, 44
1, 7137, Note_on_c, 0, 69, 0
1, 7142, Control_c, 0, 67, 43
1, 7143, Note_on_c, 0, 71, 62
1, 7157, Control_c, 0, 67, 42
1, 7173, Control_c, 0, 67, 41
1, 7188, Control_c, 0, 67, 39
1, 7197, Note_on_c, 0, 57, 61
1, 7200, Note_on_c, 0, 73, 73
1, 7203, Control_c, 0, 67, 37
1, 7218, Control_c, 0, 67, 34
1, 7221, Note_on_c, 0, 71, 0
1, 7227, Note_on_c, 0, 57, 0
1, 7233, Control_c, 0, 67, 32
1, 7249, Control_c, 0, 67, 30
1, 7259, Note_on_c, 0, 73, 0
1, 7264, Note_on_c, 0, 74, 68
1, 7265, Control_c, 0, 67, 28
1, 7280, Control_c, 0, 67, 26
1, 7295, Control_c, 0, 67, 25
1, 7310, Control_c, 0, 67, 24
1, 7322, Note_on_c, 0, 73, 67
1, 7325, Control_c, 0, 67, 23
1, 7335, Note_on_c, 0, 74, 0
1, 7359, Note_on_c, 0, 66, 59
1, 7371, Control_c, 0, 67, 23
1, 7384, Note_on_c, 0, 73, 0
1, 7387, Control_c, 0, 67, 22
1, 7389, Note_on_c, 0, 66, 0
1, 7400, Note_on_c, 0, 71, 68
1, 7401, Control_c, 0, 67, 21
1, 7417, Control_c, 0, 67, 20
1, 7432, Control_c, 0, 67, 20
1, 7446, Control_c, 0, 67, 19
1, 7449, Note_on_c, 0, 73, 59
1, 7457, Note_on_c, 0, 71, 0
1, 7462, Control_c, 0, 67, 19
1, 7477, Control_c, 0, 67, 18
1, 7493, Control_c, 0, 67, 17
1, 7506, Note_on_c, 0, 59, 65
1, 7508, Control_c, 0, 67, 17
1, 7509, Note_on_c, 0, 74, 80
1, 7522, Control_c, 0, 67, 13
1, 7530, Note_on_c, 0, 73, 0
1, 7534, Note_on_c, 0, 59, 0
1, 7538, Control_c, 0, 67, 9
1, 7553, Control_c, 0, 67, 0
1, 7559, Note_on_c, 0, 74, 0
1, 7574, Note_on_c, 0, 76, 67
1, 7634, Note_on_c, 0, 74, 71
1, 7636, Note_on_c, 0, 76, 0
1, 7662, Note_on_c, 0, 67, 61
1, 7681, Note_on_c, 0, 74, 0
1, 7690, Note_on_c, 0, 67, 0
1, 7693, Note_on_c, 0, 73, 75
1, 7741, Note_on_c, 0, 73, 0
1, 7760, Note_on_c, 0, 74, 69
1, 7809, Note_on_c, 0, 76, 80
1, 7815, Note_on_c, 0, 61, 61
1, 7818, Note_on_c, 0, 74, 0
1, 7846, Note_on_c, 0, 61, 0
1, 7876, Note_on_c, 0, 76, 0
1, 7881, Note_on_c, 0, 78, 77
1, 7948, Note_on_c, 0, 76, 74
1, 7974, Note_on_c, 0, 78, 0
1, 7976, Note_on_c, 0, 69, 66
1, 7995, Note_on_c, 0, 76, 0
1, 8001, Note_on_c, 0, 69, 0
1, 8017, Note_on_c, 0, 74, 79
1, 8071, Note_on_c, 0, 76, 73
1, 8078, Note_on_c, 0, 74, 0
1, 8133, Note_on_c, 0, 62, 66
1, 8138, Note_on_c, 0, 78, 86
1, 8154, Note_on_c, 0, 76, 0
1, 8165, Note_on_c, 0, 62, 0
1, 8189, Note_on_c, 0, 79, 73
1, 8195, Note_on_c, 0, 78, 0
1, 8251, Note_on_c, 0, 78, 72
1, 8269, Note_on_c, 0, 79, 0
1, 8295, Note_on_c, 0, 71, 61
1, 8310, Note_on_c, 0, 78, 0
1, 8320, Note_on_c, 0, 76, 75
1, 8321, Note_on_c, 0, 71, 0
1, 8375, Note_on_c, 0, 78, 79
1, 8381, Note_on_c, 0, 76, 0
1, 8441, Note_on_c, 0, 79, 86
1, 8446, Note_on_c, 0, 64, 67
1, 8449, Note_on_c, 0, 78, 0
1, 8477, Note_on_c, 0, 64, 0
1, 8488, Note_on_c, 0, 81, 77
1, 8490, Note_on_c, 0, 79, 0
1, 8555, Note_on_c, 0, 79, 78
1, 8568, Note_on_c, 0, 81, 0
1, 8591, Note_on_c, 0, 73, 71
1, 8613, Note_on_c, 0, 79, 0
1, 8616, Note_on_c, 0, 78, 80
1, 8628, Note_on_c, 0, 73, 0
1, 8677, Note_on_c, 0, 78, 0
1, 8685, Note_on_c, 0, 79, 78
1, 8746, Note_on_c, 0, 81, 89
1, 8747, Note_on_c, 0, 66, 77
1, 8757, Note_on_c, 0, 79, 0
1, 8799, Note_on_c, 0, 66, 0
1, 8810, Note_on_c, 0, 81, 0
1, 8811, Note_on_c, 0, 83, 79
1, 8881, Note_on_c, 0, 81, 85
1, 8896, Note_on_c, 0, 83, 0
1, 8899, Note_on_c, 0, 74, 82
1, 8933, Note_on_c, 0, 81, 0
1, 8939, Note_on_c, 0, 74, 0
1, 8942, Note_on_c, 0, 79, 81
1, 8995, Note_on_c, 0, 81, 85
1, 9003, Note_on_c, 0, 79, 0
1, 9039, Note_on_c, 0, 67, 83
1, 9053, Note_on_c, 0, 83, 87
1, 9065, Note_on_c, 0, 81, 0
1, 9080, Note_on_c, 0, 83, 0
1, 9084, Note_on_c, 0, 67, 0
1, 9231, Note_on_c, 0, 69, 79
1, 9233, Note_on_c, 0, 85, 87
1, 9280, Note_on_c, 0, 69, 0
1, 9305, Note_on_c, 0, 85, 0
1, 9400, Note_on_c, 0, 86, 87
1, 9402, Note_on_c, 0, 71, 89
1, 9450, Note_on_c, 0, 71, 0
1, 9481, Note_on_c, 0, 85, 82
1, 9512, Note_on_c, 0, 86, 0
1, 9559, Note_on_c, 0, 83, 79
1, 9588, Note_on_c, 0, 85, 0
1, 9638, Note_on_c, 0, 81, 89
1, 9668, Note_on_c, 0, 83, 0
1, 9715, Note_on_c, 0, 81, 0
1, 9716, Note_on_c, 0, 67, 81
1, 9721, Note_on_c, 0, 79, 87
1, 9762, Note_on_c, 0, 67, 0
1, 9767, Note_on_c, 0, 69, 16
1, 9798, Note_on_c, 0, 78, 87
1, 9806, Note_on_c, 0, 79, 0
1, 9814, Note_on_c, 0, 69, 0
1, 9872, Note_on_c, 0, 76, 84
1, 9890, Note_on_c, 0, 78, 0
1, 9949, Note_on_c, 0, 76, 0
1, 9953, Note_on_c, 0, 74, 88
1, 10021, Note_on_c, 0, 69, 71
1, 10038, Note_on_c, 0, 76, 85
1, 10061, Note_on_c, 0, 74, 0
1, 10096, Note_on_c, 0, 69, 0
1, 10125, Note_on_c, 0, 81, 86
1, 10136, Note_on_c, 0, 76, 0
1, 10209, Note_on_c, 0, 79, 81
1, 10239, Note_on_c, 0, 81, 0
1, 10285, Note_on_c, 0, 78, 79
1, 10312, Note_on_c, 0, 79, 0
1, 10374, Note_on_c, 0, 57, 59
1, 10374, Note_on_c, 0, 76, 74
1, 10407, Note_on_c, 0, 78, 0
1, 10435, Note_on_c, 0, 76, 0
1, 10448, Note_on_c, 0, 74, 74
1, 10487, Control_c, 0, 64, 34
1, 10491, Note_on_c, 0, 57, 0
1, 10503, Control_c, 0, 64, 58
1, 10519, Control_c, 0, 64, 64
1, 10524, Note_on_c, 0, 73, 78
1, 10535, Control_c, 0, 64, 67
1, 10535, Note_on_c, 0, 74, 0
1, 10549, Control_c, 0, 64, 71
1, 10564, Control_c, 0, 64, 79
1, 10580, Control_c, 0, 64, 94
1, 10595, Control_c, 0, 64, 127
1, 10613, Note_on_c, 0, 71, 79
1, 10646, Note_on_c, 0, 73, 0
1, 10701, Control_c, 0, 64, 111
1, 10716, Control_c, 0, 64, 103
1, 10731, Control_c, 0, 64, 97
1, 10747, Control_c, 0, 64, 94
1, 10753, Note_on_c, 0, 69, 79
1, 10775, Note_on_c, 0, 71, 0
1, 10778, Control_c, 0, 64, 95
1, 10793, Control_c, 0, 64, 96
1, 10807, Control_c, 0, 64, 94
1, 10823, Control_c, 0, 64, 76
1, 10838, Control_c, 0, 64, 58
1, 10854, Control_c, 0, 64, 0
1, 10878, Note_on_c, 0, 69, 0
1, 10890, Note_on_c, 0, 71, 65
1, 10937, Control_c, 0, 64, 60
1, 10952, Control_c, 0, 64, 64
1, 10959, Note_on_c, 0, 71, 0
1, 10963, Note_on_c, 0, 69, 68
1, 10967, Control_c, 0, 64, 68
1, 10982, Control_c, 0, 64, 76
1, 10997, Control_c, 0, 64, 97
1, 11011, Note_on_c, 0, 69, 0
1, 11013, Control_c, 0, 64, 127
1, 11019, Note_on_c, 0, 71, 61
1, 11074, Note_on_c, 0, 69, 60
1, 11077, Note_on_c, 0, 71, 0
1, 11125, Note_on_c, 0, 71, 64
1, 11128, Note_on_c, 0, 54, 57
1, 11128, Note_on_c, 0, 69, 0
1, 11183, Note_on_c, 0, 69, 61
1, 11185, Note_on_c, 0, 71, 0
1, 11236, Note_on_c, 0, 69, 0
1, 11236, Note_on_c, 0, 71, 65
1, 11269, Note_on_c, 0, 62, 70
1, 11294, Note_on_c, 0, 69, 69
1, 11302, Note_on_c, 0, 71, 0
1, 11316, Note_on_c, 0, 62, 0
1, 11346, Note_on_c, 0, 54, 0
1, 11347, Note_on_c, 0, 69, 0
1, 11349, Note_on_c, 0, 67, 79
1, 11403, Note_on_c, 0, 69, 73
1, 11424, Note_on_c, 0, 67, 0
1, 11489, Note_on_c, 0, 55, 75
1, 11585, Note_on_c, 0, 71, 71
1, 11591, Control_c, 0, 64, 115
1, 11606, Control_c, 0, 64, 75
1, 11617, Note_on_c, 0, 69, 0
1, 11621, Control_c, 0, 64, 44
1, 11636, Control_c, 0, 64, 0
1, 11651, Note_on_c, 0, 71, 0
1, 11658, Note_on_c, 0, 73, 69
1, 11705, Control_c, 0, 67, 8
1, 11720, Control_c, 0, 64, 41
1, 11720, Control_c, 0, 67, 9
1, 11735, Control_c, 0, 64, 59
1, 11735, Control_c, 0, 67, 12
1, 11738, Note_on_c, 0, 71, 67
1, 11739, Note_on_c, 0, 64, 64
1, 11750, Control_c, 0, 64, 64
1, 11750, Control_c, 0, 67, 17
1, 11750, Note_on_c, 0, 73, 0
1, 11765, Control_c, 0, 64, 67
1, 11765, Control_c, 0, 67, 21
1, 11780, Note_on_c, 0, 71, 0
1, 11781, Control_c, 0, 64, 71
1, 11781, Control_c, 0, 67, 25
1, 11788, Note_on_c, 0, 64, 0
1, 11793, Note_on_c, 0, 55, 0
1, 11796, Control_c, 0, 64, 79
1, 11796, Control_c, 0, 67, 27
1, 11800, Note_on_c, 0, 69, 71
1, 11810, Control_c, 0, 64, 89
1, 11810, Control_c, 0, 67, 29
1, 11826, Control_c, 0, 64, 112
1, 11826, Control_c, 0, 67, 30
1, 11841, Control_c, 0, 64, 127
1, 11841, Control_c, 0, 67, 30
1, 11841, Note_on_c, 0, 71, 70
1, 11857, Control_c, 0, 67, 31
1, 11863, Note_on_c, 0, 69, 0
1, 11887, Control_c, 0, 67, 32
1, 11903, Control_c, 0, 67, 33
1, 11909, Note_on_c, 0, 57, 82
1, 11918, Control_c, 0, 67, 34
1, 11920, Note_on_c, 0, 73, 79
1, 11933, Control_c, 0, 67, 37
1, 11948, Control_c, 0, 67, 38
1, 11955, Note_on_c, 0, 71, 0
1, 11963, Control_c, 0, 67, 39
1, 11979, Control_c, 0, 64, 74
1, 11994, Control_c, 0, 64, 0
1, 11994, Control_c, 0, 67, 40
1, 11997, Note_on_c, 0, 73, 0
1, 12000, Note_on_c, 0, 74, 70
1, 12024, Control_c, 0, 67, 41
1, 12039, Control_c, 0, 67, 41
1, 12055, Control_c, 0, 67, 43
1, 12063, Note_on_c, 0, 73, 73
1, 12070, Control_c, 0, 64, 61
1, 12070, Control_c, 0, 67, 45
1, 12078, Note_on_c, 0, 74, 0
1, 12082, Note_on_c, 0, 66, 69
1, 12084, Control_c, 0, 64, 65
1, 12084, Control_c, 0, 67, 49
1, 12100, Control_c, 0, 64, 73
1, 12100, Control_c, 0, 67, 54
1, 12115, Control_c, 0, 64, 96
1, 12115, Control_c, 0, 67, 60
1, 12126, Note_on_c, 0, 73, 0
1, 12127, Note_on_c, 0, 57, 0
1, 12129, Control_c, 0, 64, 127
1, 12129, Control_c, 0, 67, 64
1, 12134, Note_on_c, 0, 71, 74
1, 12136, Note_on_c, 0, 66, 0
1, 12145, Control_c, 0, 67, 68
1, 12161, Control_c, 0, 67, 70
1, 12177, Control_c, 0, 67, 72
1, 12181, Note_on_c, 0, 73, 68
1, 12192, Control_c, 0, 67, 73
1, 12199, Note_on_c, 0, 71, 0
1, 12207, Control_c, 0, 67, 74
1, 12223, Control_c, 0, 67, 75
1, 12237, Control_c, 0, 67, 76
1, 12250, Note_on_c, 0, 74, 79
1, 12251, Control_c, 0, 67, 78
1, 12254, Note_on_c, 0, 59, 82
1, 12267, Control_c, 0, 67, 79
1, 12278, Note_on_c, 0, 73, 0
1, 12282, Control_c, 0, 64, 119
1, 12282, Control_c, 0, 67, 81
1, 12298, Control_c, 0, 64, 67
1, 12298, Control_c, 0, 67, 82
1, 12312, Control_c, 0, 64, 0
1, 12312, Control_c, 0, 67, 83
1, 12312, Note_on_c, 0, 74, 0
1, 12318, Note_on_c, 0, 76, 74
1, 12327, Control_c, 0, 67, 85
1, 12343, Control_c, 0, 67, 86
1, 12358, Control_c, 0, 67, 87
1, 12374, Control_c, 0, 67, 87
1, 12389, Control_c, 0, 67, 88
1, 12391, Note_on_c, 0, 74, 73
1, 12398, Note_on_c, 0, 76, 0
1, 12404, Control_c, 0, 64, 58
1, 12404, Control_c, 0, 67, 90
1, 12413, Note_on_c, 0, 59, 0
1, 12418, Note_on_c, 0, 67, 67
1, 12419, Control_c, 0, 64, 65
1, 12419, Control_c, 0, 67, 93
1, 12434, Control_c, 0, 64, 71
1, 12434, Control_c, 0, 67, 97
1, 12446, Note_on_c, 0, 73, 74
1, 12446, Note_on_c, 0, 74, 0
1, 12449, Control_c, 0, 64, 85
1, 12449, Control_c, 0, 67, 101
1, 12449, Note_on_c, 0, 67, 0
1, 12472, Control_c, 0, 64, 116
1, 12472, Control_c, 0, 67, 103
1, 12487, Control_c, 0, 64, 127
1, 12487, Control_c, 0, 67, 104
1, 12503, Control_c, 0, 67, 105
1, 12509, Note_on_c, 0, 73, 0
1, 12517, Control_c, 0, 67, 106
1, 12523, Note_on_c, 0, 74, 70
1, 12533, Control_c, 0, 67, 107
1, 12548, Control_c, 0, 67, 109
1, 12563, Control_c, 0, 67, 111
1, 12578, Control_c, 0, 67, 113
1, 12593, Control_c, 0, 67, 114
1, 12596, Note_on_c, 0, 76, 76
1, 12599, Note_on_c, 0, 61, 66
1, 12602, Note_on_c, 0, 74, 0
1, 12608, Control_c, 0, 67, 116
1, 12624, Control_c, 0, 64, 93
1, 12624, Control_c, 0, 67, 117
1, 12639, Control_c, 0, 64, 63
1, 12639, Control_c, 0, 67, 119
1, 12654, Note_on_c, 0, 76, 0
1, 12655, Control_c, 0, 64, 0
1, 12655, Control_c, 0, 67, 121
1, 12661, Note_on_c, 0, 78, 75
1, 12670, Control_c, 0, 67, 122
1, 12685, Control_c, 0, 67, 123
1, 12701, Control_c, 0, 67, 124
1, 12716, Control_c, 0, 67, 125
1, 12730, Control_c, 0, 64, 13
1, 12730, Control_c, 0, 67, 126
1, 12746, Control_c, 0, 64, 54
1, 12746, Control_c, 0, 67, 127
1, 12746, Note_on_c, 0, 78, 0
1, 12747, Note_on_c, 0, 76, 70
1, 12755, Note_on_c, 0, 69, 60
1, 12761, Control_c, 0, 64, 63
1, 12761, Control_c, 0, 67, 127
1, 12776, Control_c, 0, 64, 65
1, 12783, Note_on_c, 0, 76, 0
1, 12788, Note_on_c, 0, 61, 0
1, 12791, Control_c, 0, 64, 68
1, 12795, Note_on_c, 0, 69, 0
1, 12806, Control_c, 0, 64, 72
1, 12813, Note_on_c, 0, 74, 72
1, 12822, Control_c, 0, 64, 75
1, 12837, Control_c, 0, 64, 80
1, 12851, Control_c, 0, 64, 82
1, 12864, Note_on_c, 0, 74, 0
1, 12867, Control_c, 0, 64, 83
1, 12872, Note_on_c, 0, 76, 62
1, 12927, Control_c, 0, 64, 82
1, 12939, Note_on_c, 0, 78, 73
1, 12943, Control_c, 0, 64, 74
1, 12951, Note_on_c, 0, 62, 57
1, 12958, Control_c, 0, 64, 61
1, 12963, Note_on_c, 0, 76, 0
1, 12975, Control_c, 0, 64, 0
1, 13002, Note_on_c, 0, 78, 0
1, 13015, Note_on_c, 0, 79, 63
1, 13051, Control_c, 0, 64, 41
1, 13067, Control_c, 0, 64, 60
1, 13077, Note_on_c, 0, 78, 67
1, 13081, Control_c, 0, 64, 64
1, 13083, Note_on_c, 0, 62, 0
1, 13085, Note_on_c, 0, 79, 0
1, 13097, Control_c, 0, 64, 67
1, 13097, Note_on_c, 0, 71, 61
1, 13112, Control_c, 0, 64, 72
1, 13112, Control_c, 0, 67, 127
1, 13127, Control_c, 0, 64, 78
1, 13127, Control_c, 0, 67, 126
1, 13135, Note_on_c, 0, 71, 0
1, 13137, Note_on_c, 0, 78, 0
1, 13143, Control_c, 0, 64, 85
1, 13150, Note_on_c, 0, 76, 64
1, 13157, Control_c, 0, 64, 99
1, 13173, Control_c, 0, 64, 127
1, 13173, Control_c, 0, 67, 125
1, 13188, Control_c, 0, 67, 125
1, 13201, Note_on_c, 0, 78, 61
1, 13202, Control_c, 0, 67, 124
1, 13202, Note_on_c, 0, 76, 0
1, 13272, Control_c, 0, 64, 75
1, 13275, Note_on_c, 0, 79, 72
1, 13285, Note_on_c, 0, 78, 0
1, 13286, Control_c, 0, 64, 0
1, 13286, Control_c, 0, 67, 123
1, 13287, Note_on_c, 0, 64, 51
1, 13302, Control_c, 0, 67, 122
1, 13317, Control_c, 0, 67, 122
1, 13318, Note_on_c, 0, 79, 0
1, 13338, Note_on_c, 0, 81, 64
1, 13362, Control_c, 0, 64, 34
1, 13378, Control_c, 0, 64, 56
1, 13393, Control_c, 0, 64, 63
1, 13401, Note_on_c, 0, 81, 0
1, 13406, Note_on_c, 0, 79, 65
1, 13408, Control_c, 0, 64, 66
1, 13409, Note_on_c, 0, 64, 0
1, 13423, Control_c, 0, 64, 69
1, 13428, Note_on_c, 0, 73, 55
1, 13438, Control_c, 0, 64, 75
1, 13447, Note_on_c, 0, 79, 0
1, 13454, Control_c, 0, 64, 80
1, 13459, Note_on_c, 0, 73, 0
1, 13462, Note_on_c, 0, 78, 64
1, 13469, Control_c, 0, 64, 90
1, 13484, Control_c, 0, 64, 127
1, 13484, Control_c, 0, 67, 121
1, 13495, Note_on_c, 0, 78, 0
1, 13499, Control_c, 0, 67, 121
1, 13531, Note_on_c, 0, 79, 75
1, 13575, Control_c, 0, 64, 84
1, 13575, Control_c, 0, 67, 121
1, 13590, Control_c, 0, 64, 50
1, 13590, Note_on_c, 0, 79, 0
1, 13593, Note_on_c, 0, 81, 75
1, 13598, Note_on_c, 0, 66, 56
1, 13605, Control_c, 0, 64, 0
1, 13621, Control_c, 0, 67, 121
1, 13636, Control_c, 0, 67, 120
1, 13647, Note_on_c, 0, 81, 0
1, 13661, Note_on_c, 0, 83, 68
1, 13667, Control_c, 0, 64, 49
1, 13682, Control_c, 0, 64, 61
1, 13697, Control_c, 0, 64, 65
1, 13712, Control_c, 0, 64, 68
1, 13712, Control_c, 0, 67, 121
1, 13712, Note_on_c, 0, 66, 0
1, 13726, Note_on_c, 0, 81, 71
1, 13726, Note_on_c, 0, 83, 0
1, 13727, Control_c, 0, 64, 72
1, 13742, Control_c, 0, 64, 78
1, 13752, Note_on_c, 0, 74, 63
1, 13757, Control_c, 0, 64, 80
1, 13758, Note_on_c, 0, 81, 0
1, 13773, Control_c, 0, 64, 80
1, 13782, Note_on_c, 0, 74, 0
1, 13784, Note_on_c, 0, 79, 71
1, 13820, Control_c, 0, 67, 120
1, 13834, Note_on_c, 0, 79, 0
1, 13841, Note_on_c, 0, 81, 67
1, 13849, Control_c, 0, 64, 76
1, 13865, Control_c, 0, 64, 67
1, 13865, Control_c, 0, 67, 121
1, 13880, Control_c, 0, 64, 0
1, 13880, Control_c, 0, 67, 121
1, 13893, Note_on_c, 0, 83, 81
1, 13905, Note_on_c, 0, 81, 0
1, 13911, Note_on_c, 0, 67, 56
1, 13920, Note_on_c, 0, 83, 0
1, 13942, Note_on_c, 0, 67, 0
1, 14009, Control_c, 0, 67, 122
1, 14102, Note_on_c, 0, 85, 76
1, 14109, Note_on_c, 0, 69, 60
1, 14140, Note_on_c, 0, 69, 0
1, 14140, Note_on_c, 0, 85, 0
1, 14161, Control_c, 0, 67, 122
1, 14177, Control_c, 0, 67, 123
1, 14285, Note_on_c, 0, 86, 74
1, 14287, Note_on_c, 0, 71, 66
1, 14312, Note_on_c, 0, 71, 0
1, 14328, Control_c, 0, 67, 123
1, 14362, Note_on_c, 0, 85, 74
1, 14382, Note_on_c, 0, 86, 0
1, 14388, Control_c, 0, 67, 123
1, 14419, Control_c, 0, 67, 122
1, 14434, Control_c, 0, 67, 122
1, 14446, Note_on_c, 0, 83, 72
1, 14449, Control_c, 0, 67, 121
1, 14459, Note_on_c, 0, 85, 0
1, 14465, Control_c, 0, 67, 121
1, 14510, Control_c, 0, 67, 120
1, 14523, Note_on_c, 0, 81, 77
1, 14529, Note_on_c, 0, 83, 0
1, 14541, Control_c, 0, 67, 119
1, 14556, Control_c, 0, 67, 118
1, 14571, Control_c, 0, 67, 116
1, 14579, Note_on_c, 0, 81, 0
1, 14586, Control_c, 0, 67, 115
1, 14598, Note_on_c, 0, 67, 60
1, 14601, Control_c, 0, 67, 112
1, 14607, Note_on_c, 0, 79, 73
1, 14618, Control_c, 0, 67, 111
1, 14631, Note_on_c, 0, 67, 0
1, 14633, Control_c, 0, 67, 109
1, 14648, Control_c, 0, 67, 108
1, 14663, Control_c, 0, 67, 108
1, 14667, Note_on_c, 0, 79, 0
1, 14678, Control_c, 0, 67, 107
1, 14682, Note_on_c, 0, 78, 73
1, 14694, Control_c, 0, 67, 106
1, 14709, Control_c, 0, 67, 105
1, 14724, Control_c, 0, 67, 103
1, 14740, Control_c, 0, 67, 100
1, 14752, Note_on_c, 0, 76, 64
1, 14755, Control_c, 0, 67, 96
1, 14773, Note_on_c, 0, 78, 0
1, 14777, Control_c, 0, 67, 93
1, 14792, Control_c, 0, 67, 91
1, 14798, Note_on_c, 0, 76, 0
1, 14807, Control_c, 0, 67, 90
1, 14815, Note_on_c, 0, 74, 72
1, 14822, Control_c, 0, 67, 90
1, 14837, Control_c, 0, 67, 89
1, 14849, Note_on_c, 0, 74, 0
1, 14868, Control_c, 0, 67, 89
1, 14883, Control_c, 0, 67, 88
1, 14899, Control_c, 0, 67, 87
1, 14914, Control_c, 0, 67, 86
1, 14925, Note_on_c, 0, 69, 58
1, 14929, Control_c, 0, 67, 85
1, 14936, Note_on_c, 0, 78, 74
1, 14954, Note_on_c, 0, 69, 0
1, 14973, Note_on_c, 0, 78, 0
1, 14987, Note_on_c, 0, 76, 68
1, 15005, Control_c, 0, 67, 84
1, 15023, Note_on_c, 0, 76, 0
1, 15035, Control_c, 0, 67, 84
1, 15039, Note_on_c, 0, 78, 71
1, 15066, Control_c, 0, 67, 83
1, 15081, Control_c, 0, 67, 83
1, 15091, Note_on_c, 0, 78, 0
1, 15097, Control_c, 0, 67, 82
1, 15101, Note_on_c, 0, 76, 62
1, 15130, Note_on_c, 0, 76, 0
1, 15144, Note_on_c, 0, 78, 65
1, 15196, Note_on_c, 0, 78, 0
1, 15199, Note_on_c, 0, 76, 68
1, 15202, Control_c, 0, 67, 82
1, 15218, Control_c, 0, 67, 81
1, 15238, Note_on_c, 0, 76, 0
1, 15241, Note_on_c, 0, 57, 53
1, 15254, Note_on_c, 0, 78, 69
1, 15273, Note_on_c, 0, 57, 0
1, 15308, Note_on_c, 0, 78, 0
1, 15317, Note_on_c, 0, 76, 61
1, 15351, Note_on_c, 0, 76, 0
1, 15363, Note_on_c, 0, 78, 70
1, 15419, Note_on_c, 0, 78, 0
1, 15426, Note_on_c, 0, 76, 67
1, 15431, Control_c, 0, 67, 81
1, 15459, Note_on_c, 0, 76, 0
1, 15482, Note_on_c, 0, 74, 56
1, 15516, Note_on_c, 0, 74, 0
1, 15522, Control_c, 0, 67, 80
1, 15552, Note_on_c, 0, 76, 56
1, 15616, Note_on_c, 0, 74, 61
1, 15621, Note_on_c, 0, 76, 0
1, 15626, Note_on_c, 0, 50, 37
1, 15651, Control_c, 0, 67, 80
1, 15666, Control_c, 0, 64, 49
1, 15666, Control_c, 0, 67, 79
1, 15681, Control_c, 0, 64, 63
1, 15681, Control_c, 0, 67, 79
1, 15681, Note_on_c, 0, 74, 0
1, 15696, Note_on_c, 0, 50, 0
1, 15697, Control_c, 0, 64, 68
1, 15697, Control_c, 0, 67, 78
1, 15712, Control_c, 0, 64, 83
1, 15712, Control_c, 0, 67, 77
1, 15727, Control_c, 0, 64, 127
1, 15727, Control_c, 0, 67, 75
1, 15743, Control_c, 0, 67, 73
1, 15758, Control_c, 0, 67, 72
1, 15773, Control_c, 0, 67, 71
1, 15788, Control_c, 0, 67, 71
1, 15925, Control_c, 0, 67, 71
1, 15955, Control_c, 0, 67, 71
1, 15986, Control_c, 0, 67, 70
1, 16069, Note_on_c, 0, 82, 72
1, 16073, Note_on_c, 0, 79, 62
1, 16090, Control_c, 0, 67, 70
1, 16121, Control_c, 0, 64, 74
1, 16137, Control_c, 0, 64, 0
1, 16137, Control_c, 0, 67, 69
1, 16196, Control_c, 0, 67, 69
1, 16211, Control_c, 0, 64, 57
1, 16211, Control_c, 0, 67, 68
1, 16227, Control_c, 0, 64, 64
1, 16227, Control_c, 0, 67, 67
1, 16242, Control_c, 0, 64, 68
1, 16242, Control_c, 0, 67, 66
1, 16247, Note_on_c, 0, 82, 0
1, 16259, Control_c, 0, 64, 74
1, 16259, Control_c, 0, 67, 65
1, 16274, Control_c, 0, 64, 86
1, 16274, Control_c, 0, 67, 64
1, 16289, Control_c, 0, 64, 103
1, 16289, Control_c, 0, 67, 63
1, 16311, Control_c, 0, 64, 127
1, 16311, Control_c, 0, 67, 61
1, 16326, Control_c, 0, 67, 58
1, 16342, Control_c, 0, 67, 54
1, 16357, Control_c, 0, 67, 51
1, 16373, Control_c, 0, 67, 49
1, 16388, Control_c, 0, 67, 47
1, 16403, Control_c, 0, 67, 46
1, 16418, Control_c, 0, 67, 46
1, 16433, Control_c, 0, 67, 45
1, 16448, Control_c, 0, 67, 44
1, 16464, Control_c, 0, 67, 44
1, 16479, Control_c, 0, 67, 43
1, 16495, Control_c, 0, 64, 76
1, 16495, Control_c, 0, 67, 41
1, 16495, Note_on_c, 0, 81, 68
1, 16509, Control_c, 0, 64, 17
1, 16509, Control_c, 0, 67, 39
1, 16509, Note_on_c, 0, 77, 57
1, 16524, Control_c, 0, 64, 0
1, 16524, Control_c, 0, 67, 37
1, 16540, Control_c, 0, 67, 37
1, 16554, Note_on_c, 0, 79, 0
1, 16555, Control_c, 0, 67, 36
1, 16570, Control_c, 0, 64, 61
1, 16570, Control_c, 0, 67, 35
1, 16585, Control_c, 0, 64, 68
1, 16600, Control_c, 0, 64, 78
1, 16600, Control_c, 0, 67, 34
1, 16614, Note_on_c, 0, 77, 0
1, 16616, Control_c, 0, 64, 127
1, 16631, Control_c, 0, 67, 34
1, 16645, Control_c, 0, 67, 33
1, 16676, Control_c, 0, 67, 33
1, 16691, Control_c, 0, 67, 32
1, 16707, Control_c, 0, 67, 29
1, 16723, Control_c, 0, 67, 28
1, 16739, Control_c, 0, 67, 28
1, 16830, Control_c, 0, 64, 73
1, 16844, Note_on_c, 0, 79, 76
1, 16846, Control_c, 0, 64, 0
1, 16849, Note_on_c, 0, 70, 76
1, 16849, Note_on_c, 0, 81, 0
1, 16852, Note_on_c, 0, 73, 70
1, 16852, Note_on_c, 0, 76, 69
1, 16909, Note_on_c, 0, 70, 0
1, 16913, Note_on_c, 0, 79, 0
1, 16963, Note_on_c, 0, 69, 71
1, 17011, Note_on_c, 0, 69, 0
1, 17077, Note_on_c, 0, 67, 74
1, 17129, Note_on_c, 0, 67, 0
1, 17192, Note_on_c, 0, 65, 80
1, 17206, Note_on_c, 0, 73, 0
1, 17207, Note_on_c, 0, 81, 73
1, 17210, Note_on_c, 0, 77, 64
1, 17220, Control_c, 0, 67, 27
1, 17220, Note_on_c, 0, 74, 63
1, 17239, Note_on_c, 0, 65, 0
1, 17255, Note_on_c, 0, 77, 0
1, 17258, Note_on_c, 0, 76, 0
1, 17263, Note_on_c, 0, 81, 0
1, 17276, Note_on_c, 0, 74, 0
1, 17309, Note_on_c, 0, 64, 73
1, 17333, Note_on_c, 0, 64, 0
1, 17425, Note_on_c, 0, 62, 66
1, 17432, Control_c, 0, 67, 28
1, 17453, Note_on_c, 0, 62, 0
1, 17543, Note_on_c, 0, 64, 75
1, 17553, Note_on_c, 0, 82, 82
1, 17554, Note_on_c, 0, 79, 81
1, 17593, Note_on_c, 0, 62, 68
1, 17596, Note_on_c, 0, 64, 0
1, 17643, Note_on_c, 0, 62, 0
1, 17644, Note_on_c, 0, 64, 62
1, 17674, Note_on_c, 0, 82, 0
1, 17693, Note_on_c, 0, 62, 56
1, 17704, Note_on_c, 0, 64, 0
1, 17747, Note_on_c, 0, 62, 0
1, 17747, Note_on_c, 0, 64, 58
1, 17800, Note_on_c, 0, 62, 59
1, 17815, Note_on_c, 0, 64, 0
1, 17936, Note_on_c, 0, 81, 74
1, 17943, Note_on_c, 0, 77, 66
1, 17957, Control_c, 0, 64, 43
1, 17957, Control_c, 0, 67, 27
1, 17970, Note_on_c, 0, 62, 0
1, 17973, Control_c, 0, 64, 63
1, 17981, Note_on_c, 0, 79, 0
1, 17988, Control_c, 0, 64, 67
1, 17988, Control_c, 0, 67, 27
1, 18002, Control_c, 0, 64, 75
1, 18018, Control_c, 0, 64, 127
1, 18035, Note_on_c, 0, 77, 0
1, 18109, Control_c, 0, 67, 26
1, 18154, Control_c, 0, 67, 25
1, 18276, Control_c, 0, 67, 24
1, 18289, Note_on_c, 0, 79, 78
1, 18291, Note_on_c, 0, 70, 82
1, 18292, Control_c, 0, 64, 67
1, 18292, Control_c, 0, 67, 23
1, 18292, Note_on_c, 0, 76, 73
1, 18295, Note_on_c, 0, 73, 76
1, 18296, Note_on_c, 0, 81, 0
1, 18307, Control_c, 0, 64, 0
1, 18307, Control_c, 0, 67, 20
1, 18322, Control_c, 0, 67, 18
1, 18337, Control_c, 0, 67, 17
1, 18343, Note_on_c, 0, 79, 0
1, 18349, Note_on_c, 0, 70, 0
1, 18352, Control_c, 0, 67, 17
1, 18404, Note_on_c, 0, 69, 77
1, 18412, Control_c, 0, 67, 16
1, 18457, Note_on_c, 0, 69, 0
1, 18508, Note_on_c, 0, 67, 78
1, 18557, Note_on_c, 0, 67, 0
1, 18583, Note_on_c, 0, 76, 0
1, 18589, Note_on_c, 0, 73, 0
1, 18628, Note_on_c, 0, 65, 85
1, 18632, Note_on_c, 0, 81, 73
1, 18637, Note_on_c, 0, 77, 70
1, 18639, Note_on_c, 0, 74, 66
1, 18677, Control_c, 0, 67, 16
1, 18679, Note_on_c, 0, 65, 0
1, 18692, Note_on_c, 0, 77, 0
1, 18704, Note_on_c, 0, 74, 0
1, 18714, Note_on_c, 0, 81, 0
1, 18738, Note_on_c, 0, 64, 79
1, 18774, Note_on_c, 0, 64, 0
1, 18835, Note_on_c, 0, 62, 79
1, 18869, Note_on_c, 0, 62, 0
1, 18967, Note_on_c, 0, 64, 79
1, 18979, Note_on_c, 0, 84, 83
1, 18980, Note_on_c, 0, 81, 84
1, 19015, Note_on_c, 0, 64, 0
1, 19021, Note_on_c, 0, 62, 67
1, 19063, Note_on_c, 0, 62, 0
1, 19072, Note_on_c, 0, 64, 68
1, 19126, Note_on_c, 0, 62, 69
1, 19130, Note_on_c, 0, 64, 0
1, 19160, Note_on_c, 0, 81, 0
1, 19178, Note_on_c, 0, 64, 62
1, 19179, Note_on_c, 0, 62, 0
1, 19236, Note_on_c, 0, 62, 62
1, 19249, Note_on_c, 0, 64, 0
1, 19347, Control_c, 0, 67, 15
1, 19361, Note_on_c, 0, 82, 74
1, 19362, Control_c, 0, 64, 37
1, 19364, Note_on_c, 0, 79, 68
1, 19370, Note_on_c, 0, 62, 0
1, 19385, Control_c, 0, 64, 62
1, 19385, Control_c, 0, 67, 15
1, 19386, Note_on_c, 0, 84, 0
1, 19400, Control_c, 0, 64, 65
1, 19400, Control_c, 0, 67, 14
1, 19416, Control_c, 0, 64, 73
1, 19431, Control_c, 0, 64, 127
1, 19447, Control_c, 0, 67, 14
1, 19476, Control_c, 0, 67, 13
1, 19488, Note_on_c, 0, 79, 0
1, 19503, Note_on_c, 0, 82, 0
1, 19521, Control_c, 0, 67, 13
1, 19554, Control_c, 0, 67, 12
1, 19599, Control_c, 0, 67, 12
1, 19660, Control_c, 0, 67, 11
1, 19675, Control_c, 0, 67, 11
1, 19690, Control_c, 0, 67, 10
1, 19704, Note_on_c, 0, 72, 86
1, 19705, Control_c, 0, 67, 10
1, 19714, Note_on_c, 0, 81, 81
1, 19716, Note_on_c, 0, 75, 80
1, 19719, Note_on_c, 0, 78, 69
1, 19720, Control_c, 0, 64, 63
1, 19720, Control_c, 0, 67, 9
1, 19735, Control_c, 0, 64, 0
1, 19735, Control_c, 0, 67, 9
1, 19762, Note_on_c, 0, 72, 0
1, 19766, Control_c, 0, 67, 8
1, 19781, Control_c, 0, 67, 8
1, 19821, Note_on_c, 0, 70, 86
1, 19864, Note_on_c, 0, 81, 0
1, 19876, Note_on_c, 0, 75, 0
1, 19878, Note_on_c, 0, 78, 0
1, 19879, Note_on_c, 0, 70, 0
1, 19932, Note_on_c, 0, 69, 86
1, 19980, Note_on_c, 0, 69, 0
1, 20048, Note_on_c, 0, 70, 87
1, 20060, Note_on_c, 0, 74, 75
1, 20060, Note_on_c, 0, 82, 82
1, 20062, Note_on_c, 0, 79, 73
1, 20102, Note_on_c, 0, 70, 0
1, 20117, Note_on_c, 0, 74, 0
1, 20148, Note_on_c, 0, 79, 0
1, 20150, Note_on_c, 0, 82, 0
1, 20164, Note_on_c, 0, 69, 85
1, 20210, Note_on_c, 0, 69, 0
1, 20264, Note_on_c, 0, 67, 81
1, 20298, Note_on_c, 0, 67, 0
1, 20405, Note_on_c, 0, 69, 77
1, 20413, Note_on_c, 0, 81, 83
1, 20414, Note_on_c, 0, 84, 83
1, 20447, Note_on_c, 0, 69, 0
1, 20453, Note_on_c, 0, 67, 75
1, 20508, Note_on_c, 0, 67, 0
1, 20512, Note_on_c, 0, 69, 69
1, 20556, Note_on_c, 0, 81, 0
1, 20564, Note_on_c, 0, 67, 64
1, 20568, Note_on_c, 0, 69, 0
1, 20614, Note_on_c, 0, 69, 63
1, 20618, Note_on_c, 0, 67, 0
1, 20670, Note_on_c, 0, 67, 63
1, 20681, Note_on_c, 0, 69, 0
1, 20793, Note_on_c, 0, 79, 63
1, 20795, Note_on_c, 0, 82, 73
1, 20805, Note_on_c, 0, 84, 0
1, 20821, Control_c, 0, 64, 43
1, 20836, Control_c, 0, 64, 62
1, 20836, Note_on_c, 0, 67, 0
1, 20851, Control_c, 0, 64, 65
1, 20867, Control_c, 0, 64, 70
1, 20882, Control_c, 0, 64, 87
1, 20897, Control_c, 0, 64, 127
1, 20912, Note_on_c, 0, 79, 0
1, 20941, Note_on_c, 0, 82, 0
1, 21151, Note_on_c, 0, 72, 91
1, 21155, Note_on_c, 0, 75, 76
1, 21158, Note_on_c, 0, 81, 74
1, 21159, Note_on_c, 0, 78, 70
1, 21179, Control_c, 0, 64, 66
1, 21194, Control_c, 0, 64, 0
1, 21213, Note_on_c, 0, 72, 0
1, 21266, Note_on_c, 0, 70, 88
1, 21270, Note_on_c, 0, 81, 0
1, 21283, Note_on_c, 0, 78, 0
1, 21285, Control_c, 0, 67, 8
1, 21293, Note_on_c, 0, 75, 0
1, 21323, Note_on_c, 0, 70, 0
1, 21376, Note_on_c, 0, 69, 87
1, 21422, Note_on_c, 0, 69, 0
1, 21487, Note_on_c, 0, 70, 93
1, 21488, Note_on_c, 0, 74, 73
1, 21493, Note_on_c, 0, 79, 69
1, 21494, Note_on_c, 0, 82, 82
1, 21498, Control_c, 0, 67, 9
1, 21530, Note_on_c, 0, 74, 0
1, 21546, Note_on_c, 0, 70, 0
1, 21554, Note_on_c, 0, 79, 0
1, 21557, Note_on_c, 0, 82, 0
1, 21604, Note_on_c, 0, 69, 87
1, 21634, Control_c, 0, 67, 9
1, 21648, Note_on_c, 0, 69, 0
1, 21700, Note_on_c, 0, 67, 89
1, 21746, Note_on_c, 0, 67, 0
1, 21833, Note_on_c, 0, 69, 78
1, 21837, Note_on_c, 0, 86, 86
1, 21838, Note_on_c, 0, 83, 81
1, 21855, Control_c, 0, 67, 9
1, 21885, Note_on_c, 0, 67, 76
1, 21886, Note_on_c, 0, 69, 0
1, 21930, Note_on_c, 0, 67, 0
1, 21940, Note_on_c, 0, 69, 63
1, 21983, Note_on_c, 0, 86, 0
1, 21995, Note_on_c, 0, 67, 71
1, 21999, Note_on_c, 0, 69, 0
1, 22023, Control_c, 0, 67, 8
1, 22046, Note_on_c, 0, 69, 64
1, 22049, Note_on_c, 0, 67, 0
1, 22108, Note_on_c, 0, 67, 66
1, 22115, Note_on_c, 0, 69, 0
1, 22160, Control_c, 0, 67, 8
1, 22175, Control_c, 0, 67, 0
1, 22214, Note_on_c, 0, 84, 74
1, 22224, Note_on_c, 0, 81, 70
1, 22233, Note_on_c, 0, 83, 0
1, 22236, Control_c, 0, 64, 39
1, 22244, Note_on_c, 0, 67, 0
1, 22251, Control_c, 0, 64, 63
1, 22266, Control_c, 0, 64, 68
1, 22281, Control_c, 0, 64, 81
1, 22297, Control_c, 0, 64, 127
1, 22319, Note_on_c, 0, 81, 0
1, 22563, Note_on_c, 0, 74, 87
1, 22578, Control_c, 0, 64, 98
1, 22579, Note_on_c, 0, 80, 70
1, 22581, Note_on_c, 0, 77, 75
1, 22583, Note_on_c, 0, 83, 75
1, 22593, Control_c, 0, 64, 51
1, 22607, Control_c, 0, 64, 0
1, 22624, Note_on_c, 0, 74, 0
1, 22649, Note_on_c, 0, 84, 0
1, 22656, Note_on_c, 0, 77, 0
1, 22667, Note_on_c, 0, 83, 0
1, 22684, Note_on_c, 0, 72, 91
1, 22685, Note_on_c, 0, 80, 0
1, 22737, Note_on_c, 0, 72, 0
1, 22790, Note_on_c, 0, 71, 87
1, 22842, Note_on_c, 0, 71, 0
1, 22905, Note_on_c, 0, 84, 83
1, 22906, Note_on_c, 0, 76, 73
1, 22907, Note_on_c, 0, 81, 73
1, 22910, Note_on_c, 0, 72, 95
1, 22961, Note_on_c, 0, 76, 0
1, 22964, Note_on_c, 0, 72, 0
1, 22976, Note_on_c, 0, 84, 0
1, 22983, Note_on_c, 0, 81, 0
1, 23021, Note_on_c, 0, 71, 85
1, 23086, Note_on_c, 0, 71, 0
1, 23100, Note_on_c, 0, 69, 82
1, 23142, Note_on_c, 0, 69, 0
1, 23244, Note_on_c, 0, 71, 76
1, 23244, Note_on_c, 0, 86, 84
1, 23248, Note_on_c, 0, 83, 80
1, 23290, Note_on_c, 0, 69, 76
1, 23291, Note_on_c, 0, 71, 0
1, 23339, Note_on_c, 0, 69, 0
1, 23346, Note_on_c, 0, 71, 66
1, 23396, Note_on_c, 0, 69, 70
1, 23400, Note_on_c, 0, 86, 0
1, 23403, Note_on_c, 0, 71, 0
1, 23452, Note_on_c, 0, 69, 0
1, 23454, Note_on_c, 0, 71, 62
1, 23502, Note_on_c, 0, 69, 63
1, 23516, Note_on_c, 0, 71, 0
1, 23618, Note_on_c, 0, 83, 0
1, 23619, Note_on_c, 0, 84, 72
1, 23621, Note_on_c, 0, 81, 71
1, 23635, Note_on_c, 0, 69, 0
1, 23636, Control_c, 0, 64, 22
1, 23652, Control_c, 0, 64, 62
1, 23667, Control_c, 0, 64, 66
1, 23681, Control_c, 0, 64, 72
1, 23697, Control_c, 0, 64, 82
1, 23708, Note_on_c, 0, 81, 0
1, 23712, Control_c, 0, 64, 92
1, 23728, Control_c, 0, 64, 99
1, 23743, Control_c, 0, 64, 106
1, 23758, Control_c, 0, 64, 113
1, 23774, Control_c, 0, 64, 119
1, 23789, Control_c, 0, 64, 127
1, 23956, Control_c, 0, 64, 74
1, 23958, Note_on_c, 0, 74, 78
1, 23972, Control_c, 0, 64, 0
1, 23972, Note_on_c, 0, 80, 62
1, 23974, Note_on_c, 0, 83, 65
1, 23975, Note_on_c, 0, 77, 63
1, 23994, Control_c, 0, 67, 8
1, 24010, Control_c, 0, 67, 11
1, 24024, Control_c, 0, 67, 16
1, 24024, Note_on_c, 0, 74, 0
1, 24030, Note_on_c, 0, 84, 0
1, 24039, Control_c, 0, 67, 22
1, 24055, Control_c, 0, 67, 30
1, 24056, Note_on_c, 0, 77, 0
1, 24058, Note_on_c, 0, 83, 0
1, 24070, Control_c, 0, 67, 38
1, 24073, Note_on_c, 0, 80, 0
1, 24083, Note_on_c, 0, 72, 73
1, 24086, Control_c, 0, 67, 47
1, 24100, Control_c, 0, 67, 53
1, 24115, Control_c, 0, 67, 59
1, 24131, Control_c, 0, 67, 65
1, 24146, Control_c, 0, 67, 70
1, 24147, Note_on_c, 0, 72, 0
1, 24161, Control_c, 0, 67, 77
1, 24176, Note_on_c, 0, 71, 78
1, 24177, Control_c, 0, 67, 83
1, 24192, Control_c, 0, 67, 89
1, 24208, Control_c, 0, 67, 94
1, 24221, Note_on_c, 0, 71, 0
1, 24222, Control_c, 0, 67, 97
1, 24237, Control_c, 0, 67, 101
1, 24253, Control_c, 0, 67, 105
1, 24268, Control_c, 0, 67, 109
1, 24283, Control_c, 0, 67, 113
1, 24298, Control_c, 0, 67, 117
1, 24303, Note_on_c, 0, 84, 76
1, 24305, Note_on_c, 0, 72, 81
1, 24306, Note_on_c, 0, 76, 72
1, 24306, Note_on_c, 0, 81, 69
1, 24313, Control_c, 0, 67, 120
1, 24329, Control_c, 0, 67, 122
1, 24344, Control_c, 0, 67, 123
1, 24347, Note_on_c, 0, 76, 0
1, 24360, Note_on_c, 0, 84, 0
1, 24363, Note_on_c, 0, 72, 0
1, 24369, Note_on_c, 0, 81, 0
1, 24419, Control_c, 0, 67, 124
1, 24424, Note_on_c, 0, 71, 76
1, 24510, Note_on_c, 0, 69, 68
1, 24512, Note_on_c, 0, 71, 0
1, 24538, Note_on_c, 0, 69, 0
1, 24542, Control_c, 0, 67, 123
1, 24573, Control_c, 0, 67, 123
1, 24588, Control_c, 0, 67, 122
1, 24630, Note_on_c, 0, 71, 72
1, 24644, Note_on_c, 0, 85, 77
1, 24659, Note_on_c, 0, 71, 0
1, 24663, Control_c, 0, 64, 59
1, 24663, Control_c, 0, 67, 122
1, 24673, Note_on_c, 0, 69, 59
1, 24678, Control_c, 0, 64, 67
1, 24678, Control_c, 0, 67, 121
1, 24679, Note_on_c, 0, 85, 0
1, 24694, Control_c, 0, 64, 83
1, 24706, Note_on_c, 0, 69, 0
1, 24709, Control_c, 0, 64, 127
1, 24735, Note_on_c, 0, 71, 66
1, 24762, Control_c, 0, 67, 119
1, 24778, Control_c, 0, 67, 118
1, 24785, Note_on_c, 0, 71, 0
1, 24789, Note_on_c, 0, 69, 65
1, 24793, Control_c, 0, 67, 116
1, 24808, Control_c, 0, 67, 116
1, 24816, Note_on_c, 0, 69, 0
1, 24868, Control_c, 0, 67, 115
1, 24883, Control_c, 0, 67, 115
1, 24914, Control_c, 0, 67, 114
1, 24975, Control_c, 0, 67, 113
1, 24990, Control_c, 0, 67, 113
1, 25006, Control_c, 0, 67, 112
1, 25019, Control_c, 0, 64, 107
1, 25019, Control_c, 0, 67, 111
1, 25022, Note_on_c, 0, 38, 83
1, 25025, Note_on_c, 0, 78, 77
1, 25034, Control_c, 0, 64, 63
1, 25034, Control_c, 0, 67, 110
1, 25049, Control_c, 0, 64, 0
1, 25049, Control_c, 0, 67, 107
1, 25049, Note_on_c, 0, 38, 0
1, 25064, Control_c, 0, 67, 106
1, 25079, Control_c, 0, 67, 104
1, 25086, Note_on_c, 0, 78, 0
1, 25095, Control_c, 0, 67, 103
1, 25125, Control_c, 0, 67, 104
1, 25140, Control_c, 0, 67, 104
1, 25149, Note_on_c, 0, 74, 71
1, 25170, Control_c, 0, 67, 105
1, 25195, Note_on_c, 0, 74, 0
1, 25200, Control_c, 0, 67, 104
1, 25268, Note_on_c, 0, 73, 75
1, 25293, Control_c, 0, 67, 103
1, 25308, Control_c, 0, 67, 103
1, 25319, Note_on_c, 0, 73, 0
1, 25339, Control_c, 0, 67, 102
1, 25395, Note_on_c, 0, 71, 78
1, 25397, Note_on_c, 0, 83, 100
1, 25415, Control_c, 0, 67, 101
1, 25425, Note_on_c, 0, 83, 0
1, 25430, Control_c, 0, 67, 100
1, 25449, Note_on_c, 0, 71, 0
1, 25520, Note_on_c, 0, 73, 72
1, 25559, Control_c, 0, 67, 100
1, 25580, Note_on_c, 0, 73, 0
1, 25634, Note_on_c, 0, 74, 74
1, 25687, Note_on_c, 0, 74, 0
1, 25759, Note_on_c, 0, 37, 84
1, 25759, Note_on_c, 0, 76, 81
1, 25787, Note_on_c, 0, 37, 0
1, 25814, Note_on_c, 0, 76, 0
1, 25845, Control_c, 0, 67, 99
1, 25877, Note_on_c, 0, 73, 74
1, 25890, Control_c, 0, 67, 99
1, 25934, Note_on_c, 0, 73, 0
1, 25936, Control_c, 0, 67, 98
1, 25989, Note_on_c, 0, 71, 70
1, 25997, Control_c, 0, 67, 98
1, 26012, Control_c, 0, 67, 97
1, 26027, Control_c, 0, 67, 97
1, 26028, Note_on_c, 0, 71, 0
1, 26042, Control_c, 0, 67, 96
1, 26057, Control_c, 0, 67, 95
1, 26073, Control_c, 0, 67, 95
1, 26089, Control_c, 0, 67, 94
1, 26125, Note_on_c, 0, 81, 101
1, 26129, Note_on_c, 0, 69, 74
1, 26150, Control_c, 0, 67, 94
1, 26151, Note_on_c, 0, 81, 0
1, 26165, Control_c, 0, 67, 93
1, 26172, Note_on_c, 0, 69, 0
1, 26240, Note_on_c, 0, 71, 73
1, 26255, Control_c, 0, 67, 94
1, 26271, Control_c, 0, 67, 94
1, 26276, Note_on_c, 0, 71, 0
1, 26310, Control_c, 0, 67, 94
1, 26340, Control_c, 0, 67, 93
1, 26355, Note_on_c, 0, 73, 72
1, 26386, Control_c, 0, 67, 93
1, 26424, Note_on_c, 0, 73, 0
1, 26446, Control_c, 0, 67, 92
1, 26486, Note_on_c, 0, 71, 76
1, 26490, Note_on_c, 0, 38, 85
1, 26491, Control_c, 0, 67, 93
1, 26518, Note_on_c, 0, 38, 0
1, 26522, Control_c, 0, 67, 93
1, 26532, Note_on_c, 0, 71, 0
1, 26552, Control_c, 0, 67, 94
1, 26598, Control_c, 0, 67, 94
1, 26603, Note_on_c, 0, 74, 76
1, 26640, Note_on_c, 0, 74, 0
1, 26717, Note_on_c, 0, 73, 66
1, 26761, Note_on_c, 0, 73, 0
1, 26781, Control_c, 0, 67, 94
1, 26842, Note_on_c, 0, 71, 69
1, 26847, Note_on_c, 0, 40, 65
1, 26875, Note_on_c, 0, 40, 0
1, 26878, Note_on_c, 0, 71, 0
1, 26886, Control_c, 0, 67, 94
1, 26949, Control_c, 0, 67, 95
1, 26955, Note_on_c, 0, 69, 58
1, 27018, Note_on_c, 0, 69, 0
1, 27071, Note_on_c, 0, 68, 61
1, 27108, Note_on_c, 0, 68, 0
1, 27153, Control_c, 0, 67, 94
1, 27218, Note_on_c, 0, 69, 69
1, 27226, Note_on_c, 0, 33, 60
1, 27232, Control_c, 0, 64, 38
1, 27244, Note_on_c, 0, 69, 0
1, 27247, Control_c, 0, 64, 67
1, 27257, Note_on_c, 0, 33, 0
1, 27262, Control_c, 0, 64, 86
1, 27262, Control_c, 0, 67, 94
1, 27277, Control_c, 0, 64, 127
1, 27277, Control_c, 0, 67, 92
1, 27292, Control_c, 0, 67, 92
1, 27308, Control_c, 0, 67, 91
1, 27322, Control_c, 0, 67, 91
1, 27353, Control_c, 0, 67, 91
1, 27414, Control_c, 0, 67, 91
1, 27444, Control_c, 0, 67, 91
1, 27519, Control_c, 0, 67, 91
1, 27581, Control_c, 0, 67, 90
1, 27596, Control_c, 0, 67, 90
1, 27596, Note_on_c, 0, 81, 92
1, 27615, Note_on_c, 0, 61, 61
1, 27626, Control_c, 0, 64, 88
1, 27628, Note_on_c, 0, 81, 0
1, 27641, Control_c, 0, 64, 0
1, 27641, Control_c, 0, 67, 90
1, 27657, Control_c, 0, 67, 91
1, 27672, Control_c, 0, 67, 93
1, 27687, Control_c, 0, 67, 94
1, 27703, Control_c, 0, 67, 95
1, 27718, Control_c, 0, 67, 98
1, 27722, Note_on_c, 0, 64, 57
1, 27734, Control_c, 0, 67, 101
1, 27742, Note_on_c, 0, 61, 0
1, 27749, Control_c, 0, 67, 103
1, 27764, Control_c, 0, 67, 105
1, 27779, Control_c, 0, 67, 107
1, 27794, Control_c, 0, 67, 107
1, 27809, Control_c, 0, 67, 108
1, 27812, Note_on_c, 0, 64, 0
1, 27832, Control_c, 0, 67, 109
1, 27838, Note_on_c, 0, 69, 50
1, 27847, Control_c, 0, 67, 110
1, 27863, Control_c, 0, 67, 112
1, 27878, Control_c, 0, 67, 114
1, 27894, Control_c, 0, 67, 117
1, 27908, Control_c, 0, 67, 122
1, 27923, Control_c, 0, 67, 127
1, 27963, Note_on_c, 0, 69, 0
1, 27975, Note_on_c, 0, 62, 64
1, 27977, Note_on_c, 0, 38, 84
1, 28008, Note_on_c, 0, 38, 0
1, 28098, Note_on_c, 0, 62, 0
1, 28103, Note_on_c, 0, 66, 59
1, 28204, Note_on_c, 0, 66, 0
1, 28231, Note_on_c, 0, 71, 54
1, 28273, Control_c, 0, 67, 126
1, 28287, Control_c, 0, 67, 124
1, 28303, Control_c, 0, 67, 122
1, 28318, Control_c, 0, 67, 120
1, 28334, Control_c, 0, 67, 118
1, 28349, Control_c, 0, 67, 117
1, 28354, Note_on_c, 0, 71, 0
1, 28360, Note_on_c, 0, 83, 95
1, 28363, Control_c, 0, 67, 116
1, 28376, Note_on_c, 0, 62, 63
1, 28379, Control_c, 0, 67, 114
1, 28394, Control_c, 0, 67, 112
1, 28395, Note_on_c, 0, 83, 0
1, 28409, Control_c, 0, 67, 111
1, 28439, Control_c, 0, 67, 111
1, 28455, Control_c, 0, 67, 113
1, 28470, Control_c, 0, 67, 115
1, 28482, Note_on_c, 0, 62, 0
1, 28485, Control_c, 0, 67, 117
1, 28488, Note_on_c, 0, 66, 61
1, 28501, Control_c, 0, 67, 118
1, 28516, Control_c, 0, 67, 119
1, 28531, Control_c, 0, 67, 120
1, 28547, Control_c, 0, 67, 121
1, 28562, Control_c, 0, 67, 122
1, 28578, Control_c, 0, 67, 123
1, 28599, Note_on_c, 0, 66, 0
1, 28600, Control_c, 0, 67, 124
1, 28611, Note_on_c, 0, 71, 51
1, 28616, Control_c, 0, 67, 125
1, 28631, Control_c, 0, 67, 126
1, 28646, Control_c, 0, 67, 127
1, 28706, Note_on_c, 0, 71, 0
1, 28746, Note_on_c, 0, 37, 83
1, 28751, Note_on_c, 0, 61, 61
1, 28776, Note_on_c, 0, 37, 0
1, 28872, Note_on_c, 0, 64, 56
1, 28876, Note_on_c, 0, 61, 0
1, 28950, Control_c, 0, 67, 125
1, 28962, Note_on_c, 0, 64, 0
1, 28965, Control_c, 0, 67, 124
1, 28981, Control_c, 0, 67, 123
1, 28984, Note_on_c, 0, 69, 50
1, 29010, Control_c, 0, 67, 122
1, 29026, Control_c, 0, 67, 122
1, 29057, Control_c, 0, 67, 121
1, 29072, Control_c, 0, 67, 120
1, 29086, Control_c, 0, 67, 119
1, 29102, Control_c, 0, 67, 118
1, 29115, Note_on_c, 0, 69, 0
1, 29117, Control_c, 0, 67, 117
1, 29129, Note_on_c, 0, 81, 95
1, 29138, Note_on_c, 0, 61, 61
1, 29146, Control_c, 0, 67, 116
1, 29161, Control_c, 0, 67, 115
1, 29162, Note_on_c, 0, 81, 0
1, 29206, Control_c, 0, 67, 116
1, 29222, Control_c, 0, 67, 117
1, 29237, Control_c, 0, 67, 119
1, 29252, Control_c, 0, 67, 120
1, 29258, Note_on_c, 0, 64, 60
1, 29268, Control_c, 0, 67, 121
1, 29282, Control_c, 0, 67, 122
1, 29289, Note_on_c, 0, 61, 0
1, 29298, Control_c, 0, 67, 122
1, 29313, Control_c, 0, 67, 123
1, 29327, Control_c, 0, 67, 124
1, 29343, Control_c, 0, 67, 125
1, 29362, Note_on_c, 0, 64, 0
1, 29366, Control_c, 0, 67, 126
1, 29378, Note_on_c, 0, 69, 53
1, 29442, Control_c, 0, 67, 125
1, 29473, Control_c, 0, 67, 125
1, 29506, Note_on_c, 0, 38, 78
1, 29507, Note_on_c, 0, 62, 64
1, 29507, Note_on_c, 0, 69, 0
1, 29546, Note_on_c, 0, 38, 0
1, 29629, Note_on_c, 0, 66, 68
1, 29633, Note_on_c, 0, 62, 0
1, 29720, Note_on_c, 0, 66, 0
1, 29731, Note_on_c, 0, 69, 58
1, 29777, Control_c, 0, 67, 124
1, 29807, Control_c, 0, 67, 124
1, 29840, Control_c, 0, 67, 123
1, 29865, Note_on_c, 0, 40, 69
1, 29866, Note_on_c, 0, 69, 0
1, 29876, Note_on_c, 0, 64, 61
1, 29916, Note_on_c, 0, 40, 0
1, 29931, Control_c, 0, 67, 124
1, 29969, Note_on_c, 0, 64, 0
1, 29988, Note_on_c, 0, 68, 61
1, 30022, Control_c, 0, 67, 123
1, 30068, Control_c, 0, 67, 123
1, 30071, Note_on_c, 0, 68, 0
1, 30090, Note_on_c, 0, 71, 54
1, 30133, Note_on_c, 0, 71, 0
1, 30151, Control_c, 0, 67, 122
1, 30167, Control_c, 0, 67, 122
1, 30268, Note_on_c, 0, 33, 72
1, 30270, Note_on_c, 0, 57, 59
1, 30289, Control_c, 0, 64, 61
1, 30289, Control_c, 0, 67, 119
1, 30293, Note_on_c, 0, 33, 0
1, 30304, Control_c, 0, 64, 69
1, 30304, Control_c, 0, 67, 116
1, 30307, Note_on_c, 0, 57, 0
1, 30319, Control_c, 0, 64, 92
1, 30319, Control_c, 0, 67, 113
1, 30335, Control_c, 0, 64, 127
1, 30335, Control_c, 0, 67, 109
1, 30350, Control_c, 0, 67, 102
1, 30364, Control_c, 0, 67, 93
1, 30380, Control_c, 0, 67, 83
1, 30395, Control_c, 0, 67, 69
1, 30411, Control_c, 0, 67, 56
1, 30426, Control_c, 0, 67, 45
1, 30441, Control_c, 0, 67, 36
1, 30457, Control_c, 0, 67, 29
1, 30472, Control_c, 0, 67, 23
1, 30487, Control_c, 0, 67, 17
1, 30502, Control_c, 0, 67, 11
1, 30517, Control_c, 0, 67, 0
1, 30672, Note_on_c, 0, 72, 66
1, 30714, Note_on_c, 0, 74, 77
1, 30715, Control_c, 0, 64, 86
1, 30731, Control_c, 0, 64, 60
1, 30745, Control_c, 0, 64, 0
1, 30745, Note_on_c, 0, 72, 0
1, 30772, Note_on_c, 0, 76, 76
1, 30799, Note_on_c, 0, 74, 0
1, 30821, Control_c, 0, 64, 64
1, 30836, Control_c, 0, 64, 72
1, 30852, Control_c, 0, 64, 91
1, 30867, Control_c, 0, 64, 127
1, 30904, Note_on_c, 0, 76, 0
1, 31074, Note_on_c, 0, 76, 72
1, 31089, Control_c, 0, 64, 91
1, 31104, Control_c, 0, 64, 71
1, 31119, Control_c, 0, 64, 54
1, 31124, Note_on_c, 0, 74, 84
1, 31134, Control_c, 0, 64, 0
1, 31158, Note_on_c, 0, 76, 0
1, 31401, Note_on_c, 0, 65, 45
1, 31465, Note_on_c, 0, 69, 56
1, 31510, Note_on_c, 0, 72, 85
1, 31539, Note_on_c, 0, 74, 0
1, 31562, Note_on_c, 0, 69, 0
1, 31574, Note_on_c, 0, 72, 0
1, 31581, Note_on_c, 0, 65, 0
1, 31627, Note_on_c, 0, 71, 88
1, 31685, Note_on_c, 0, 71, 0
1, 31747, Note_on_c, 0, 69, 87
1, 31807, Note_on_c, 0, 69, 0
1, 31892, Note_on_c, 0, 71, 78
1, 31912, Note_on_c, 0, 64, 48
1, 31912, Note_on_c, 0, 68, 53
1, 32009, Control_c, 0, 64, 34
1, 32023, Control_c, 0, 64, 59
1, 32034, Note_on_c, 0, 68, 0
1, 32038, Control_c, 0, 64, 64
1, 32054, Control_c, 0, 64, 68
1, 32069, Control_c, 0, 64, 77
1, 32084, Control_c, 0, 64, 92
1, 32099, Control_c, 0, 64, 127
1, 32227, Note_on_c, 0, 65, 55
1, 32274, Note_on_c, 0, 69, 62
1, 32297, Control_c, 0, 64, 108
1, 32301, Note_on_c, 0, 64, 0
1, 32305, Note_on_c, 0, 72, 85
1, 32312, Control_c, 0, 64, 83
1, 32328, Control_c, 0, 64, 70
1, 32328, Note_on_c, 0, 71, 0
1, 32343, Control_c, 0, 64, 62
1, 32358, Control_c, 0, 64, 0
1, 32368, Note_on_c, 0, 72, 0
1, 32372, Note_on_c, 0, 69, 0
1, 32386, Note_on_c, 0, 65, 0
1, 32414, Note_on_c, 0, 74, 96
1, 32474, Note_on_c, 0, 74, 0
1, 32533, Note_on_c, 0, 76, 89
1, 32584, Note_on_c, 0, 76, 0
1, 32677, Note_on_c, 0, 71, 80
1, 32696, Note_on_c, 0, 68, 57
1, 32698, Note_on_c, 0, 64, 47
1, 32746, Control_c, 0, 64, 51
1, 32761, Control_c, 0, 64, 64
1, 32777, Control_c, 0, 64, 70
1, 32792, Control_c, 0, 64, 82
1, 32808, Control_c, 0, 64, 127
1, 32824, Note_on_c, 0, 71, 0
1, 32848, Note_on_c, 0, 68, 0
1, 32898, Control_c, 0, 67, 10
1, 32913, Control_c, 0, 67, 14
1, 32921, Note_on_c, 0, 74, 73
1, 32929, Control_c, 0, 67, 18
1, 32943, Control_c, 0, 67, 25
1, 32958, Control_c, 0, 67, 33
1, 32970, Note_on_c, 0, 74, 0
1, 32974, Control_c, 0, 67, 39
1, 32976, Note_on_c, 0, 72, 72
1, 32989, Control_c, 0, 67, 44
1, 33003, Control_c, 0, 67, 48
1, 33016, Note_on_c, 0, 72, 0
1, 33019, Control_c, 0, 67, 53
1, 33026, Note_on_c, 0, 74, 61
1, 33034, Control_c, 0, 64, 78
1, 33034, Control_c, 0, 67, 60
1, 33050, Control_c, 0, 64, 58
1, 33050, Control_c, 0, 67, 69
1, 33065, Control_c, 0, 64, 0
1, 33065, Control_c, 0, 67, 79
1, 33068, Note_on_c, 0, 72, 78
1, 33077, Note_on_c, 0, 69, 62
1, 33079, Control_c, 0, 67, 87
1, 33079, Note_on_c, 0, 64, 0
1, 33079, Note_on_c, 0, 65, 59
1, 33092, Note_on_c, 0, 74, 0
1, 33095, Control_c, 0, 67, 92
1, 33110, Control_c, 0, 67, 98
1, 33116, Note_on_c, 0, 69, 0
1, 33121, Note_on_c, 0, 65, 0
1, 33122, Note_on_c, 0, 72, 0
1, 33125, Control_c, 0, 67, 106
1, 33141, Control_c, 0, 67, 117
1, 33156, Control_c, 0, 67, 127
1, 33228, Note_on_c, 0, 71, 70
1, 33268, Note_on_c, 0, 71, 0
1, 33332, Note_on_c, 0, 69, 63
1, 33363, Note_on_c, 0, 69, 0
1, 33483, Control_c, 0, 64, 57
1, 33487, Note_on_c, 0, 71, 70
1, 33495, Note_on_c, 0, 64, 41
1, 33499, Control_c, 0, 64, 64
1, 33499, Note_on_c, 0, 68, 51
1, 33511, Note_on_c, 0, 71, 0
1, 33514, Control_c, 0, 64, 71
1, 33530, Control_c, 0, 64, 100
1, 33530, Note_on_c, 0, 68, 0
1, 33533, Note_on_c, 0, 64, 0
1, 33544, Control_c, 0, 64, 127
1, 33818, Control_c, 0, 64, 86
1, 33818, Note_on_c, 0, 64, 67
1, 33829, Note_on_c, 0, 49, 51
1, 33833, Control_c, 0, 64, 57
1, 33848, Control_c, 0, 64, 0
1, 33870, Note_on_c, 0, 64, 0
1, 33871, Note_on_c, 0, 49, 0
1, 33892, Note_on_c, 0, 66, 63
1, 33954, Note_on_c, 0, 64, 64
1, 33977, Note_on_c, 0, 66, 0
1, 33981, Note_on_c, 0, 57, 58
1, 33997, Note_on_c, 0, 64, 0
1, 34012, Note_on_c, 0, 57, 0
1, 34028, Note_on_c, 0, 62, 70
1, 34076, Note_on_c, 0, 64, 58
1, 34079, Note_on_c, 0, 62, 0
1, 34140, Note_on_c, 0, 66, 72
1, 34142, Note_on_c, 0, 50, 51
1, 34169, Note_on_c, 0, 64, 0
1, 34175, Note_on_c, 0, 50, 0
1, 34196, Note_on_c, 0, 66, 0
1, 34199, Note_on_c, 0, 68, 69
1, 34266, Note_on_c, 0, 66, 66
1, 34275, Note_on_c, 0, 68, 0
1, 34292, Note_on_c, 0, 59, 56
1, 34322, Note_on_c, 0, 59, 0
1, 34324, Note_on_c, 0, 66, 0
1, 34338, Note_on_c, 0, 64, 65
1, 34386, Note_on_c, 0, 66, 60
1, 34420, Note_on_c, 0, 64, 0
1, 34440, Note_on_c, 0, 52, 55
1, 34450, Note_on_c, 0, 68, 76
1, 34468, Note_on_c, 0, 66, 0
1, 34474, Note_on_c, 0, 52, 0
1, 34509, Note_on_c, 0, 68, 0
1, 34519, Note_on_c, 0, 69, 67
1, 34578, Note_on_c, 0, 68, 70
1, 34587, Note_on_c, 0, 69, 0
1, 34599, Note_on_c, 0, 61, 59
1, 34629, Note_on_c, 0, 61, 0
1, 34632, Note_on_c, 0, 68, 0
1, 34641, Note_on_c, 0, 66, 72
1, 34708, Note_on_c, 0, 66, 0
1, 34711, Note_on_c, 0, 68, 70
1, 34777, Note_on_c, 0, 68, 0
1, 34778, Note_on_c, 0, 54, 58
1, 34786, Note_on_c, 0, 69, 74
1, 34814, Note_on_c, 0, 54, 0
1, 34847, Note_on_c, 0, 69, 0
1, 34862, Note_on_c, 0, 71, 63
1, 34921, Note_on_c, 0, 71, 0
1, 34927, Note_on_c, 0, 69, 66
1, 34937, Note_on_c, 0, 62, 65
1, 34958, Control_c, 0, 67, 127
1, 34964, Note_on_c, 0, 62, 0
1, 34973, Control_c, 0, 67, 126
1, 34977, Note_on_c, 0, 69, 0
1, 34978, Note_on_c, 0, 68, 69
1, 35003, Control_c, 0, 67, 126
1, 35018, Control_c, 0, 67, 125
1, 35034, Note_on_c, 0, 68, 0
1, 35049, Control_c, 0, 67, 125
1, 35053, Note_on_c, 0, 69, 70
1, 35079, Control_c, 0, 67, 124
1, 35092, Note_on_c, 0, 56, 60
1, 35096, Control_c, 0, 67, 124
1, 35111, Control_c, 0, 67, 123
1, 35114, Note_on_c, 0, 69, 0
1, 35115, Note_on_c, 0, 71, 74
1, 35132, Note_on_c, 0, 56, 0
1, 35141, Control_c, 0, 67, 123
1, 35156, Control_c, 0, 67, 122
1, 35172, Control_c, 0, 67, 122
1, 35174, Note_on_c, 0, 71, 0
1, 35177, Note_on_c, 0, 73, 75
1, 35232, Control_c, 0, 67, 121
1, 35251, Note_on_c, 0, 71, 76
1, 35258, Note_on_c, 0, 64, 69
1, 35263, Control_c, 0, 67, 121
1, 35269, Note_on_c, 0, 73, 0
1, 35291, Note_on_c, 0, 64, 0
1, 35294, Control_c, 0, 67, 120
1, 35298, Note_on_c, 0, 71, 0
1, 35308, Control_c, 0, 67, 120
1, 35318, Note_on_c, 0, 69, 70
1, 35323, Control_c, 0, 67, 119
1, 35339, Control_c, 0, 67, 119
1, 35361, Note_on_c, 0, 71, 69
1, 35370, Control_c, 0, 67, 118
1, 35370, Note_on_c, 0, 69, 0
1, 35385, Control_c, 0, 67, 118
1, 35399, Control_c, 0, 67, 117
1, 35414, Note_on_c, 0, 57, 67
1, 35415, Control_c, 0, 67, 116
1, 35424, Note_on_c, 0, 73, 83
1, 35430, Control_c, 0, 67, 115
1, 35445, Control_c, 0, 67, 114
1, 35450, Note_on_c, 0, 57, 0
1, 35451, Note_on_c, 0, 71, 0
1, 35460, Control_c, 0, 67, 114
1, 35475, Control_c, 0, 67, 113
1, 35485, Note_on_c, 0, 74, 72
1, 35489, Note_on_c, 0, 73, 0
1, 35491, Control_c, 0, 67, 113
1, 35550, Note_on_c, 0, 73, 72
1, 35559, Control_c, 0, 67, 112
1, 35575, Note_on_c, 0, 74, 0
1, 35579, Note_on_c, 0, 66, 70
1, 35605, Control_c, 0, 67, 112
1, 35611, Note_on_c, 0, 66, 0
1, 35624, Note_on_c, 0, 73, 0
1, 35634, Note_on_c, 0, 71, 71
1, 35635, Control_c, 0, 67, 111
1, 35665, Control_c, 0, 67, 111
1, 35680, Control_c, 0, 67, 110
1, 35697, Note_on_c, 0, 73, 73
1, 35711, Control_c, 0, 67, 110
1, 35721, Note_on_c, 0, 71, 0
1, 35727, Control_c, 0, 67, 109
1, 35734, Note_on_c, 0, 59, 63
1, 35741, Control_c, 0, 67, 108
1, 35756, Control_c, 0, 67, 108
1, 35759, Note_on_c, 0, 74, 88
1, 35763, Note_on_c, 0, 59, 0
1, 35773, Note_on_c, 0, 73, 0
1, 35787, Control_c, 0, 67, 107
1, 35802, Control_c, 0, 67, 107
1, 35816, Note_on_c, 0, 74, 0
1, 35819, Note_on_c, 0, 76, 76
1, 35832, Control_c, 0, 67, 106
1, 35879, Note_on_c, 0, 74, 78
1, 35884, Note_on_c, 0, 68, 71
1, 35887, Note_on_c, 0, 76, 0
1, 35908, Control_c, 0, 67, 106
1, 35913, Note_on_c, 0, 68, 0
1, 35932, Note_on_c, 0, 74, 0
1, 35933, Note_on_c, 0, 73, 77
1, 35955, Control_c, 0, 67, 105
1, 35983, Note_on_c, 0, 73, 0
1, 35990, Note_on_c, 0, 74, 72
1, 36000, Control_c, 0, 67, 105
1, 36031, Control_c, 0, 67, 104
1, 36039, Note_on_c, 0, 76, 86
1, 36049, Note_on_c, 0, 74, 0
1, 36055, Note_on_c, 0, 61, 73
1, 36076, Control_c, 0, 67, 103
1, 36092, Control_c, 0, 67, 103
1, 36095, Note_on_c, 0, 61, 0
1, 36106, Control_c, 0, 67, 102
1, 36109, Note_on_c, 0, 78, 87
1, 36112, Note_on_c, 0, 76, 0
1, 36121, Control_c, 0, 67, 102
1, 36137, Control_c, 0, 67, 101
1, 36152, Control_c, 0, 67, 101
1, 36168, Control_c, 0, 67, 100
1, 36171, Note_on_c, 0, 76, 79
1, 36183, Control_c, 0, 67, 99
1, 36198, Control_c, 0, 67, 97
1, 36198, Note_on_c, 0, 78, 0
1, 36201, Note_on_c, 0, 69, 72
1, 36214, Control_c, 0, 67, 96
1, 36227, Note_on_c, 0, 76, 0
1, 36229, Control_c, 0, 67, 95
1, 36232, Note_on_c, 0, 69, 0
1, 36239, Note_on_c, 0, 74, 87
1, 36243, Control_c, 0, 67, 95
1, 36259, Control_c, 0, 67, 93
1, 36281, Control_c, 0, 67, 91
1, 36297, Control_c, 0, 67, 88
1, 36302, Note_on_c, 0, 76, 76
1, 36311, Control_c, 0, 67, 86
1, 36312, Note_on_c, 0, 74, 0
1, 36327, Control_c, 0, 67, 85
1, 36342, Control_c, 0, 67, 83
1, 36350, Note_on_c, 0, 62, 81
1, 36356, Note_on_c, 0, 78, 99
1, 36357, Control_c, 0, 67, 80
1, 36373, Control_c, 0, 67, 75
1, 36376, Note_on_c, 0, 76, 0
1, 36388, Control_c, 0, 67, 69
1, 36392, Note_on_c, 0, 62, 0
1, 36403, Control_c, 0, 67, 64
1, 36410, Note_on_c, 0, 78, 0
1, 36419, Control_c, 0, 67, 61
1, 36433, Control_c, 0, 67, 60
1, 36464, Control_c, 0, 67, 60
1, 36479, Control_c, 0, 67, 59
1, 36541, Note_on_c, 0, 64, 80
1, 36541, Note_on_c, 0, 80, 87
1, 36571, Control_c, 0, 67, 58
1, 36585, Control_c, 0, 67, 58
1, 36585, Note_on_c, 0, 64, 0
1, 36614, Note_on_c, 0, 80, 0
1, 36647, Control_c, 0, 67, 58
1, 36706, Control_c, 0, 67, 59
1, 36717, Note_on_c, 0, 81, 83
1, 36718, Note_on_c, 0, 66, 89
1, 36772, Note_on_c, 0, 66, 0
1, 36794, Note_on_c, 0, 80, 78
1, 36812, Note_on_c, 0, 81, 0
1, 36814, Control_c, 0, 67, 58
1, 36864, Note_on_c, 0, 78, 82
1, 36887, Note_on_c, 0, 80, 0
1, 36920, Control_c, 0, 67, 58
1, 36944, Note_on_c, 0, 76, 79
1, 36965, Control_c, 0, 67, 57
1, 36981, Control_c, 0, 67, 57
1, 36988, Note_on_c, 0, 78, 0
1, 37015, Note_on_c, 0, 76, 0
1, 37024, Note_on_c, 0, 62, 80
1, 37024, Note_on_c, 0, 74, 83
1, 37027, Control_c, 0, 67, 56
1, 37050, Control_c, 0, 67, 55
1, 37065, Control_c, 0, 67, 54
1, 37080, Control_c, 0, 67, 53
1, 37087, Note_on_c, 0, 62, 0
1, 37095, Control_c, 0, 67, 52
1, 37110, Control_c, 0, 67, 51
1, 37113, Note_on_c, 0, 73, 83
1, 37114, Note_on_c, 0, 74, 0
1, 37125, Control_c, 0, 67, 50
1, 37141, Control_c, 0, 67, 49
1, 37155, Control_c, 0, 67, 47
1, 37171, Control_c, 0, 67, 46
1, 37186, Control_c, 0, 67, 46
1, 37195, Note_on_c, 0, 71, 79
1, 37201, Control_c, 0, 67, 45
1, 37211, Note_on_c, 0, 73, 0
1, 37217, Control_c, 0, 67, 44
1, 37231, Control_c, 0, 67, 43
1, 37247, Control_c, 0, 67, 43
1, 37265, Note_on_c, 0, 71, 0
1, 37275, Note_on_c, 0, 69, 76
1, 37277, Control_c, 0, 67, 42
1, 37293, Control_c, 0, 67, 42
1, 37308, Control_c, 0, 67, 41
1, 37339, Control_c, 0, 67, 41
1, 37360, Note_on_c, 0, 71, 79
1, 37368, Note_on_c, 0, 64, 63
1, 37393, Note_on_c, 0, 69, 0
1, 37415, Note_on_c, 0, 64, 0
1, 37429, Control_c, 0, 67, 40
1, 37453, Note_on_c, 0, 71, 0
1, 37453, Note_on_c, 0, 76, 78
1, 37475, Control_c, 0, 67, 40
1, 37529, Note_on_c, 0, 74, 81
1, 37551, Note_on_c, 0, 76, 0
1, 37568, Control_c, 0, 67, 39
1, 37615, Note_on_c, 0, 73, 78
1, 37644, Note_on_c, 0, 74, 0
1, 37700, Note_on_c, 0, 52, 59
1, 37705, Note_on_c, 0, 71, 76
1, 37754, Note_on_c, 0, 73, 0
1, 37772, Note_on_c, 0, 71, 0
1, 37785, Note_on_c, 0, 69, 73
1, 37818, Control_c, 0, 67, 40
1, 37838, Note_on_c, 0, 52, 0
1, 37849, Control_c, 0, 64, 29
1, 37863, Control_c, 0, 64, 58
1, 37870, Note_on_c, 0, 68, 78
1, 37877, Note_on_c, 0, 69, 0
1, 37878, Control_c, 0, 64, 64
1, 37878, Control_c, 0, 67, 40
1, 37894, Control_c, 0, 64, 68
1, 37894, Control_c, 0, 67, 41
1, 37909, Control_c, 0, 64, 75
1, 37909, Control_c, 0, 67, 42
1, 37923, Control_c, 0, 64, 91
1, 37923, Control_c, 0, 67, 43
1, 37939, Control_c, 0, 64, 127
1, 37954, Control_c, 0, 67, 43
1, 37959, Note_on_c, 0, 66, 83
1, 37985, Control_c, 0, 67, 44
1, 37990, Note_on_c, 0, 68, 0
1, 38015, Control_c, 0, 67, 44
1, 38030, Control_c, 0, 67, 45
1, 38045, Control_c, 0, 67, 45
1, 38061, Control_c, 0, 67, 46
1, 38075, Control_c, 0, 67, 46
1, 38091, Control_c, 0, 67, 47
1, 38094, Note_on_c, 0, 64, 76
1, 38110, Note_on_c, 0, 66, 0
1, 38121, Control_c, 0, 67, 47
1, 38137, Control_c, 0, 67, 48
1, 38152, Control_c, 0, 64, 103
1, 38152, Control_c, 0, 67, 49
1, 38168, Control_c, 0, 64, 65
1, 38168, Control_c, 0, 67, 50
1, 38183, Control_c, 0, 64, 0
1, 38183, Control_c, 0, 67, 51
1, 38197, Control_c, 0, 67, 52
1, 38213, Control_c, 0, 67, 53
1, 38219, Note_on_c, 0, 64, 0
1, 38224, Note_on_c, 0, 66, 70
1, 38228, Control_c, 0, 67, 55
1, 38243, Control_c, 0, 67, 58
1, 38259, Control_c, 0, 67, 63
1, 38273, Control_c, 0, 64, 61
1, 38273, Control_c, 0, 67, 73
1, 38285, Note_on_c, 0, 64, 67
1, 38288, Note_on_c, 0, 66, 0
1, 38289, Control_c, 0, 64, 65
1, 38289, Control_c, 0, 67, 84
1, 38304, Control_c, 0, 64, 68
1, 38304, Control_c, 0, 67, 97
1, 38319, Control_c, 0, 64, 73
1, 38319, Control_c, 0, 67, 108
1, 38334, Control_c, 0, 64, 79
1, 38334, Control_c, 0, 67, 117
1, 38345, Note_on_c, 0, 66, 68
1, 38347, Note_on_c, 0, 64, 0
1, 38349, Control_c, 0, 64, 84
1, 38349, Control_c, 0, 67, 124
1, 38364, Control_c, 0, 64, 90
1, 38364, Control_c, 0, 67, 127
1, 38381, Control_c, 0, 64, 101
1, 38396, Control_c, 0, 64, 122
1, 38396, Note_on_c, 0, 64, 63
1, 38405, Note_on_c, 0, 66, 0
1, 38412, Control_c, 0, 64, 127
1, 38454, Note_on_c, 0, 66, 68
1, 38457, Note_on_c, 0, 64, 0
1, 38487, Note_on_c, 0, 49, 63
1, 38512, Note_on_c, 0, 64, 65
1, 38517, Note_on_c, 0, 66, 0
1, 38577, Note_on_c, 0, 64, 0
1, 38577, Note_on_c, 0, 66, 66
1, 38626, Note_on_c, 0, 57, 69
1, 38633, Note_on_c, 0, 64, 71
1, 38645, Note_on_c, 0, 66, 0
1, 38672, Note_on_c, 0, 57, 0
1, 38690, Note_on_c, 0, 64, 0
1, 38694, Note_on_c, 0, 62, 76
1, 38714, Note_on_c, 0, 49, 0
1, 38745, Note_on_c, 0, 64, 74
1, 38776, Note_on_c, 0, 62, 0
1, 38842, Note_on_c, 0, 50, 73
1, 38919, Note_on_c, 0, 66, 73
1, 38950, Control_c, 0, 64, 97
1, 38965, Control_c, 0, 64, 65
1, 38968, Note_on_c, 0, 64, 0
1, 38981, Control_c, 0, 64, 0
1, 39008, Note_on_c, 0, 68, 65
1, 39009, Note_on_c, 0, 66, 0
1, 39072, Control_c, 0, 64, 43
1, 39081, Note_on_c, 0, 66, 69
1, 39088, Control_c, 0, 64, 59
1, 39094, Note_on_c, 0, 59, 64
1, 39102, Control_c, 0, 64, 64
1, 39102, Note_on_c, 0, 68, 0
1, 39117, Control_c, 0, 64, 66
1, 39133, Control_c, 0, 64, 69
1, 39139, Note_on_c, 0, 66, 0
1, 39141, Note_on_c, 0, 59, 0
1, 39142, Note_on_c, 0, 50, 0
1, 39148, Control_c, 0, 64, 74
1, 39148, Note_on_c, 0, 64, 72
1, 39163, Control_c, 0, 64, 82
1, 39178, Control_c, 0, 64, 97
1, 39193, Note_on_c, 0, 66, 70
1, 39194, Control_c, 0, 64, 127
1, 39215, Note_on_c, 0, 64, 0
1, 39256, Note_on_c, 0, 52, 81
1, 39265, Note_on_c, 0, 68, 79
1, 39283, Note_on_c, 0, 66, 0
1, 39316, Control_c, 0, 64, 71
1, 39332, Control_c, 0, 64, 0
1, 39332, Note_on_c, 0, 68, 0
1, 39339, Note_on_c, 0, 69, 69
1, 39408, Note_on_c, 0, 68, 75
1, 39415, Control_c, 0, 64, 55
1, 39418, Note_on_c, 0, 69, 0
1, 39430, Control_c, 0, 64, 65
1, 39436, Note_on_c, 0, 61, 68
1, 39445, Control_c, 0, 64, 70
1, 39452, Note_on_c, 0, 52, 0
1, 39461, Control_c, 0, 64, 82
1, 39464, Note_on_c, 0, 68, 0
1, 39467, Note_on_c, 0, 66, 78
1, 39475, Control_c, 0, 64, 127
1, 39491, Note_on_c, 0, 61, 0
1, 39537, Note_on_c, 0, 68, 79
1, 39540, Note_on_c, 0, 66, 0
1, 39605, Note_on_c, 0, 68, 0
1, 39608, Note_on_c, 0, 54, 78
1, 39610, Note_on_c, 0, 69, 76
1, 39658, Control_c, 0, 64, 74
1, 39673, Control_c, 0, 64, 0
1, 39679, Note_on_c, 0, 69, 0
1, 39683, Note_on_c, 0, 71, 69
1, 39752, Note_on_c, 0, 71, 0
1, 39761, Note_on_c, 0, 69, 71
1, 39763, Control_c, 0, 64, 61
1, 39779, Control_c, 0, 64, 65
1, 39783, Note_on_c, 0, 62, 72
1, 39794, Control_c, 0, 64, 69
1, 39809, Control_c, 0, 64, 79
1, 39813, Note_on_c, 0, 54, 0
1, 39815, Note_on_c, 0, 62, 0
1, 39816, Note_on_c, 0, 69, 0
1, 39824, Control_c, 0, 64, 96
1, 39829, Note_on_c, 0, 68, 73
1, 39839, Control_c, 0, 64, 127
1, 39885, Note_on_c, 0, 68, 0
1, 39901, Note_on_c, 0, 69, 71
1, 39968, Note_on_c, 0, 56, 72
1, 39968, Note_on_c, 0, 71, 75
1, 39972, Note_on_c, 0, 69, 0
1, 39992, Control_c, 0, 64, 69
1, 40008, Control_c, 0, 64, 0
1, 40038, Note_on_c, 0, 71, 0
1, 40044, Note_on_c, 0, 73, 72
1, 40100, Control_c, 0, 64, 54
1, 40121, Control_c, 0, 64, 63
1, 40136, Note_on_c, 0, 71, 68
1, 40137, Control_c, 0, 64, 66
1, 40139, Note_on_c, 0, 64, 65
1, 40140, Note_on_c, 0, 73, 0
1, 40152, Control_c, 0, 64, 69
1, 40167, Control_c, 0, 64, 75
1, 40172, Note_on_c, 0, 64, 0
1, 40177, Note_on_c, 0, 71, 0
1, 40182, Control_c, 0, 64, 79
1, 40196, Note_on_c, 0, 56, 0
1, 40197, Control_c, 0, 64, 84
1, 40201, Note_on_c, 0, 69, 66
1, 40213, Control_c, 0, 64, 90
1, 40228, Control_c, 0, 64, 102
1, 40243, Control_c, 0, 64, 127
1, 40255, Note_on_c, 0, 71, 57
1, 40256, Note_on_c, 0, 69, 0
1, 40319, Control_c, 0, 64, 81
1, 40319, Note_on_c, 0, 73, 73
1, 40324, Note_on_c, 0, 57, 59
1, 40335, Control_c, 0, 64, 63
1, 40350, Control_c, 0, 64, 0
1, 40350, Note_on_c, 0, 71, 0
1, 40392, Note_on_c, 0, 73, 0
1, 40395, Note_on_c, 0, 74, 67
1, 40426, Control_c, 0, 64, 46
1, 40441, Control_c, 0, 64, 62
1, 40456, Control_c, 0, 64, 64
1, 40460, Note_on_c, 0, 73, 62
1, 40471, Control_c, 0, 64, 67
1, 40471, Note_on_c, 0, 74, 0
1, 40480, Note_on_c, 0, 66, 58
1, 40483, Note_on_c, 0, 57, 0
1, 40487, Control_c, 0, 64, 71
1, 40502, Control_c, 0, 64, 74
1, 40517, Control_c, 0, 64, 76
1, 40517, Note_on_c, 0, 66, 0
1, 40522, Note_on_c, 0, 73, 0
1, 40532, Control_c, 0, 64, 78
1, 40534, Note_on_c, 0, 71, 68
1, 40547, Control_c, 0, 64, 81
1, 40562, Control_c, 0, 64, 85
1, 40577, Control_c, 0, 64, 91
1, 40591, Note_on_c, 0, 73, 59
1, 40592, Control_c, 0, 64, 94
1, 40597, Note_on_c, 0, 71, 0
1, 40623, Control_c, 0, 64, 91
1, 40638, Control_c, 0, 64, 74
1, 40653, Control_c, 0, 64, 47
1, 40653, Note_on_c, 0, 59, 55
1, 40664, Note_on_c, 0, 74, 70
1, 40669, Control_c, 0, 64, 0
1, 40677, Note_on_c, 0, 73, 0
1, 40713, Note_on_c, 0, 74, 0
1, 40733, Note_on_c, 0, 76, 58
1, 40745, Control_c, 0, 64, 39
1, 40760, Control_c, 0, 64, 57
1, 40762, Note_on_c, 0, 59, 0
1, 40775, Control_c, 0, 64, 62
1, 40790, Control_c, 0, 64, 64
1, 40790, Note_on_c, 0, 74, 59
1, 40791, Note_on_c, 0, 76, 0
1, 40805, Control_c, 0, 64, 65
1, 40807, Note_on_c, 0, 68, 54
1, 40821, Control_c, 0, 64, 65
1, 40837, Control_c, 0, 64, 66
1, 40837, Note_on_c, 0, 74, 0
1, 40844, Note_on_c, 0, 68, 0
1, 40851, Note_on_c, 0, 73, 60
1, 40853, Control_c, 0, 64, 67
1, 40868, Control_c, 0, 64, 69
1, 40891, Control_c, 0, 64, 72
1, 40894, Note_on_c, 0, 73, 0
1, 40906, Control_c, 0, 64, 77
1, 40921, Control_c, 0, 64, 84
1, 40921, Note_on_c, 0, 74, 65
1, 40937, Control_c, 0, 64, 90
1, 40952, Control_c, 0, 64, 93
1, 40967, Control_c, 0, 64, 89
1, 40982, Control_c, 0, 64, 70
1, 40983, Note_on_c, 0, 61, 56
1, 40985, Note_on_c, 0, 76, 67
1, 40987, Note_on_c, 0, 74, 0
1, 40997, Control_c, 0, 64, 0
1, 41030, Note_on_c, 0, 76, 0
1, 41042, Note_on_c, 0, 78, 64
1, 41089, Control_c, 0, 64, 59
1, 41103, Control_c, 0, 64, 64
1, 41112, Note_on_c, 0, 76, 61
1, 41116, Note_on_c, 0, 61, 0
1, 41118, Control_c, 0, 64, 66
1, 41119, Note_on_c, 0, 78, 0
1, 41134, Control_c, 0, 64, 69
1, 41143, Note_on_c, 0, 69, 52
1, 41149, Control_c, 0, 64, 71
1, 41151, Note_on_c, 0, 76, 0
1, 41163, Control_c, 0, 64, 72
1, 41179, Note_on_c, 0, 69, 0
1, 41182, Note_on_c, 0, 74, 64
1, 41194, Control_c, 0, 64, 73
1, 41228, Note_on_c, 0, 74, 0
1, 41239, Control_c, 0, 64, 73
1, 41241, Note_on_c, 0, 76, 59
1, 41270, Control_c, 0, 64, 73
1, 41285, Control_c, 0, 64, 70
1, 41301, Control_c, 0, 64, 63
1, 41305, Note_on_c, 0, 78, 78
1, 41316, Control_c, 0, 64, 0
1, 41321, Note_on_c, 0, 62, 58
1, 41322, Note_on_c, 0, 76, 0
1, 41359, Note_on_c, 0, 62, 0
1, 41367, Note_on_c, 0, 78, 0
1, 41520, Note_on_c, 0, 80, 68
1, 41533, Note_on_c, 0, 64, 53
1, 41565, Note_on_c, 0, 80, 0
1, 41570, Note_on_c, 0, 64, 0
1, 41732, Note_on_c, 0, 66, 57
1, 41735, Note_on_c, 0, 81, 67
1, 41769, Note_on_c, 0, 66, 0
1, 41811, Note_on_c, 0, 81, 0
1, 41812, Note_on_c, 0, 80, 66
1, 41900, Note_on_c, 0, 78, 69
1, 41906, Note_on_c, 0, 80, 0
1, 41979, Note_on_c, 0, 76, 65
1, 42015, Note_on_c, 0, 78, 0
1, 42042, Note_on_c, 0, 76, 0
1, 42053, Note_on_c, 0, 62, 62
1, 42060, Note_on_c, 0, 74, 72
1, 42092, Note_on_c, 0, 62, 0
1, 42118, Note_on_c, 0, 74, 0
1, 42139, Note_on_c, 0, 73, 74
1, 42214, Note_on_c, 0, 71, 63
1, 42224, Note_on_c, 0, 73, 0
1, 42263, Note_on_c, 0, 69, 66
1, 42264, Note_on_c, 0, 71, 0
1, 42302, Note_on_c, 0, 69, 0
1, 42385, Note_on_c, 0, 64, 58
1, 42394, Note_on_c, 0, 69, 66
1, 42423, Note_on_c, 0, 64, 0
1, 42431, Note_on_c, 0, 69, 0
1, 42452, Note_on_c, 0, 71, 61
1, 42483, Note_on_c, 0, 71, 0
1, 42496, Note_on_c, 0, 73, 69
1, 42552, Note_on_c, 0, 73, 0
1, 42555, Note_on_c, 0, 71, 69
1, 42584, Note_on_c, 0, 71, 0
1, 42612, Note_on_c, 0, 73, 58
1, 42656, Note_on_c, 0, 73, 0
1, 42665, Note_on_c, 0, 71, 66
1, 42699, Note_on_c, 0, 71, 0
1, 42713, Note_on_c, 0, 73, 66
1, 42718, Note_on_c, 0, 52, 49
1, 42752, Note_on_c, 0, 52, 0
1, 42768, Note_on_c, 0, 73, 0
1, 42771, Note_on_c, 0, 71, 66
1, 42814, Note_on_c, 0, 71, 0
1, 42827, Note_on_c, 0, 73, 58
1, 42884, Note_on_c, 0, 71, 58
1, 42885, Note_on_c, 0, 73, 0
1, 42917, Note_on_c, 0, 71, 0
1, 42928, Note_on_c, 0, 69, 59
1, 42972, Note_on_c, 0, 69, 0
1, 43004, Note_on_c, 0, 71, 59
1, 43050, Control_c, 0, 67, 127
1, 43061, Note_on_c, 0, 71, 0
1, 43065, Control_c, 0, 67, 126
1, 43073, Note_on_c, 0, 69, 59
1, 43081, Control_c, 0, 67, 125
1, 43083, Note_on_c, 0, 45, 46
1, 43096, Control_c, 0, 67, 125
1, 43110, Control_c, 0, 64, 38
1, 43110, Control_c, 0, 67, 124
1, 43126, Control_c, 0, 64, 64
1, 43126, Control_c, 0, 67, 123
1, 43126, Note_on_c, 0, 69, 0
1, 43141, Control_c, 0, 64, 68
1, 43141, Control_c, 0, 67, 122
1, 43142, Note_on_c, 0, 45, 0
1, 43156, Control_c, 0, 64, 78
1, 43156, Control_c, 0, 67, 120
1, 43172, Control_c, 0, 64, 127
1, 43172, Control_c, 0, 67, 118
1, 43194, Control_c, 0, 67, 115
1, 43210, Control_c, 0, 67, 113
1, 43225, Control_c, 0, 67, 112
1, 43240, Control_c, 0, 67, 110
1, 43255, Control_c, 0, 67, 109
1, 43270, Control_c, 0, 67, 109
1, 43286, Control_c, 0, 67, 109
1, 43499, Control_c, 0, 67, 110
1, 43503, Note_on_c, 0, 73, 64
1, 43503, Note_on_c, 0, 81, 86
1, 43523, Note_on_c, 0, 81, 0
1, 43530, Control_c, 0, 67, 109
1, 43560, Control_c, 0, 67, 109
1, 43616, Note_on_c, 0, 73, 0
1, 43621, Control_c, 0, 67, 109
1, 43630, Note_on_c, 0, 69, 58
1, 43743, Control_c, 0, 67, 110
1, 43758, Note_on_c, 0, 64, 55
1, 43797, Note_on_c, 0, 69, 0
1, 43864, Control_c, 0, 64, 75
1, 43874, Note_on_c, 0, 38, 76
1, 43878, Control_c, 0, 64, 36
1, 43880, Note_on_c, 0, 74, 68
1, 43885, Note_on_c, 0, 64, 0
1, 43894, Control_c, 0, 64, 0
1, 43894, Control_c, 0, 67, 110
1, 43906, Note_on_c, 0, 38, 0
1, 43963, Control_c, 0, 67, 111
1, 43978, Control_c, 0, 67, 111
1, 43992, Note_on_c, 0, 74, 0
1, 44000, Note_on_c, 0, 69, 59
1, 44009, Control_c, 0, 67, 112
1, 44023, Control_c, 0, 67, 112
1, 44069, Control_c, 0, 67, 113
1, 44107, Note_on_c, 0, 69, 0
1, 44135, Note_on_c, 0, 64, 55
1, 44177, Control_c, 0, 67, 112
1, 44222, Control_c, 0, 67, 112
1, 44237, Control_c, 0, 67, 111
1, 44267, Control_c, 0, 67, 111
1, 44270, Note_on_c, 0, 40, 71
1, 44275, Note_on_c, 0, 71, 61
1, 44297, Note_on_c, 0, 40, 0
1, 44302, Note_on_c, 0, 64, 0
1, 44312, Control_c, 0, 67, 110
1, 44393, Note_on_c, 0, 71, 0
1, 44401, Note_on_c, 0, 68, 60
1, 44480, Control_c, 0, 67, 110
1, 44491, Note_on_c, 0, 68, 0
1, 44520, Note_on_c, 0, 64, 52
1, 44587, Control_c, 0, 67, 109
1, 44617, Control_c, 0, 67, 109
1, 44631, Note_on_c, 0, 64, 0
1, 44632, Control_c, 0, 67, 108
1, 44644, Note_on_c, 0, 33, 63
1, 44647, Control_c, 0, 67, 108
1, 44648, Note_on_c, 0, 73, 67
1, 44662, Control_c, 0, 64, 64
1, 44662, Control_c, 0, 67, 107
1, 44677, Control_c, 0, 64, 72
1, 44677, Control_c, 0, 67, 105
1, 44677, Note_on_c, 0, 33, 0
1, 44693, Control_c, 0, 64, 127
1, 44693, Control_c, 0, 67, 102
1, 44708, Control_c, 0, 67, 97
1, 44731, Control_c, 0, 67, 94
1, 44746, Control_c, 0, 67, 93
1, 44761, Control_c, 0, 67, 92
1, 44764, Note_on_c, 0, 73, 0
1, 44776, Control_c, 0, 67, 92
1, 44779, Note_on_c, 0, 69, 60
1, 44791, Control_c, 0, 67, 91
1, 44807, Control_c, 0, 67, 91
1, 44822, Control_c, 0, 67, 90
1, 44837, Control_c, 0, 67, 90
1, 44862, Note_on_c, 0, 69, 0
1, 44888, Note_on_c, 0, 64, 48
1, 44913, Control_c, 0, 67, 89
1, 44913, Note_on_c, 0, 64, 0
1, 44929, Control_c, 0, 67, 89
1, 44960, Control_c, 0, 67, 88
1, 45036, Note_on_c, 0, 81, 96
1, 45051, Control_c, 0, 67, 88
1, 45051, Note_on_c, 0, 61, 59
1, 45065, Note_on_c, 0, 81, 0
1, 45066, Control_c, 0, 67, 87
1, 45081, Control_c, 0, 67, 87
1, 45142, Control_c, 0, 67, 87
1, 45156, Control_c, 0, 67, 88
1, 45172, Control_c, 0, 67, 89
1, 45175, Note_on_c, 0, 64, 60
1, 45187, Control_c, 0, 67, 90
1, 45203, Control_c, 0, 67, 92
1, 45208, Note_on_c, 0, 61, 0
1, 45218, Control_c, 0, 67, 93
1, 45232, Control_c, 0, 67, 94
1, 45248, Control_c, 0, 67, 95
1, 45263, Control_c, 0, 67, 96
1, 45277, Note_on_c, 0, 64, 0
1, 45277, Note_on_c, 0, 69, 60
1, 45278, Control_c, 0, 67, 96
1, 45293, Control_c, 0, 67, 97
1, 45400, Control_c, 0, 67, 97
1, 45403, Note_on_c, 0, 69, 0
1, 45413, Note_on_c, 0, 62, 67
1, 45415, Control_c, 0, 64, 115
1, 45415, Control_c, 0, 67, 98
1, 45421, Note_on_c, 0, 38, 86
1, 45430, Control_c, 0, 64, 56
1, 45430, Control_c, 0, 67, 98
1, 45446, Control_c, 0, 64, 0
1, 45446, Control_c, 0, 67, 99
1, 45455, Note_on_c, 0, 38, 0
1, 45461, Control_c, 0, 67, 100
1, 45476, Control_c, 0, 67, 101
1, 45498, Control_c, 0, 67, 102
1, 45513, Control_c, 0, 67, 103
1, 45529, Control_c, 0, 67, 103
1, 45544, Note_on_c, 0, 66, 70
1, 45547, Note_on_c, 0, 62, 0
1, 45560, Control_c, 0, 67, 104
1, 45620, Control_c, 0, 67, 103
1, 45635, Control_c, 0, 67, 103
1, 45651, Control_c, 0, 67, 102
1, 45652, Note_on_c, 0, 66, 0
1, 45666, Note_on_c, 0, 69, 57
1, 45696, Control_c, 0, 67, 102
1, 45742, Control_c, 0, 67, 101
1, 45793, Note_on_c, 0, 69, 0
1, 45796, Note_on_c, 0, 40, 74
1, 45806, Note_on_c, 0, 64, 64
1, 45819, Control_c, 0, 67, 102
1, 45847, Note_on_c, 0, 40, 0
1, 45895, Control_c, 0, 67, 102
1, 45918, Note_on_c, 0, 64, 0
1, 45920, Note_on_c, 0, 68, 66
1, 46009, Note_on_c, 0, 68, 0
1, 46031, Note_on_c, 0, 71, 54
1, 46065, Note_on_c, 0, 71, 0
1, 46168, Control_c, 0, 67, 103
1, 46183, Control_c, 0, 67, 104
1, 46195, Note_on_c, 0, 57, 62
1, 46198, Control_c, 0, 67, 104
1, 46201, Note_on_c, 0, 33, 66
1, 46213, Control_c, 0, 67, 105
1, 46228, Control_c, 0, 64, 59
1, 46228, Control_c, 0, 67, 105
1, 46234, Note_on_c, 0, 33, 0
1, 46244, Control_c, 0, 64, 66
1, 46267, Control_c, 0, 64, 71
1, 46269, Note_on_c, 0, 57, 0
1, 46283, Control_c, 0, 64, 87
1, 46283, Control_c, 0, 67, 105
1, 46297, Control_c, 0, 64, 127
1, 46297, Control_c, 0, 67, 104
1, 46312, Control_c, 0, 67, 102
1, 46328, Control_c, 0, 67, 101
1, 46342, Control_c, 0, 67, 99
1, 46357, Control_c, 0, 67, 97
1, 46373, Control_c, 0, 67, 95
1, 46388, Control_c, 0, 67, 95
1, 46404, Control_c, 0, 67, 94
1, 46602, Control_c, 0, 67, 94
1, 46609, Note_on_c, 0, 73, 71
1, 46613, Note_on_c, 0, 81, 98
1, 46617, Control_c, 0, 67, 93
1, 46632, Control_c, 0, 67, 91
1, 46642, Note_on_c, 0, 81, 0
1, 46648, Control_c, 0, 67, 90
1, 46663, Control_c, 0, 67, 88
1, 46677, Control_c, 0, 67, 87
1, 46693, Control_c, 0, 67, 87
1, 46731, Note_on_c, 0, 73, 0
1, 46732, Note_on_c, 0, 69, 66
1, 46846, Note_on_c, 0, 64, 64
1, 46888, Note_on_c, 0, 69, 0
1, 46981, Control_c, 0, 64, 81
1, 46983, Note_on_c, 0, 38, 80
1, 46983, Note_on_c, 0, 74, 77
1, 46996, Control_c, 0, 64, 64
1, 47008, Note_on_c, 0, 64, 0
1, 47012, Control_c, 0, 64, 0
1, 47046, Note_on_c, 0, 38, 0
1, 47051, Control_c, 0, 67, 87
1, 47065, Control_c, 0, 67, 88
1, 47081, Control_c, 0, 67, 88
1, 47096, Control_c, 0, 67, 89
1, 47109, Note_on_c, 0, 69, 61
1, 47124, Note_on_c, 0, 74, 0
1, 47126, Control_c, 0, 67, 89
1, 47186, Control_c, 0, 67, 90
1, 47216, Note_on_c, 0, 69, 0
1, 47228, Note_on_c, 0, 64, 59
1, 47248, Control_c, 0, 67, 89
1, 47338, Control_c, 0, 67, 89
1, 47354, Note_on_c, 0, 40, 68
1, 47360, Note_on_c, 0, 71, 65
1, 47369, Note_on_c, 0, 64, 0
1, 47398, Note_on_c, 0, 40, 0
1, 47472, Note_on_c, 0, 71, 0
1, 47474, Control_c, 0, 67, 88
1, 47477, Note_on_c, 0, 68, 65
1, 47559, Note_on_c, 0, 68, 0
1, 47597, Note_on_c, 0, 64, 63
1, 47657, Control_c, 0, 67, 88
1, 47683, Note_on_c, 0, 64, 0
1, 47703, Control_c, 0, 67, 87
1, 47719, Note_on_c, 0, 73, 68
1, 47731, Note_on_c, 0, 33, 58
1, 47748, Control_c, 0, 67, 87
1, 47780, Note_on_c, 0, 33, 0
1, 47831, Control_c, 0, 67, 86
1, 47841, Note_on_c, 0, 73, 0
1, 47856, Note_on_c, 0, 74, 72
1, 47975, Note_on_c, 0, 76, 70
1, 47979, Note_on_c, 0, 74, 0
1, 48060, Control_c, 0, 67, 86
1, 48108, Note_on_c, 0, 62, 72
1, 48108, Note_on_c, 0, 78, 77
1, 48129, Note_on_c, 0, 76, 0
1, 48186, Note_on_c, 0, 62, 0
1, 48231, Note_on_c, 0, 76, 76
1, 48240, Note_on_c, 0, 78, 0
1, 48330, Note_on_c, 0, 76, 0
1, 48342, Note_on_c, 0, 74, 77
1, 48363, Control_c, 0, 67, 85
1, 48455, Control_c, 0, 67, 85
1, 48469, Note_on_c, 0, 64, 74
1, 48473, Note_on_c, 0, 73, 77
1, 48498, Note_on_c, 0, 74, 0
1, 48573, Note_on_c, 0, 64, 0
1, 48601, Note_on_c, 0, 74, 85
1, 48610, Note_on_c, 0, 73, 0
1, 48713, Note_on_c, 0, 71, 77
1, 48721, Control_c, 0, 67, 84
1, 48728, Note_on_c, 0, 74, 0
1, 48767, Control_c, 0, 67, 84
1, 48837, Note_on_c, 0, 71, 0
1, 48843, Note_on_c, 0, 69, 76
1, 48844, Note_on_c, 0, 52, 77
1, 48929, Note_on_c, 0, 52, 0
1, 48933, Control_c, 0, 67, 83
1, 48956, Note_on_c, 0, 71, 73
1, 48974, Note_on_c, 0, 69, 0
1, 49077, Note_on_c, 0, 68, 75
1, 49083, Note_on_c, 0, 71, 0
1, 49087, Control_c, 0, 67, 84
1, 49201, Note_on_c, 0, 69, 70
1, 49205, Note_on_c, 0, 57, 68
1, 49221, Note_on_c, 0, 68, 0
1, 49265, Note_on_c, 0, 57, 0
1, 49314, Control_c, 0, 67, 84
1, 49339, Note_on_c, 0, 68, 70
1, 49357, Note_on_c, 0, 69, 0
1, 49367, Control_c, 0, 67, 85
1, 49452, Note_on_c, 0, 66, 75
1, 49464, Note_on_c, 0, 68, 0
1, 49564, Note_on_c, 0, 66, 0
1, 49574, Note_on_c, 0, 64, 69
1, 49581, Note_on_c, 0, 50, 61
1, 49660, Note_on_c, 0, 50, 0
1, 49694, Note_on_c, 0, 66, 68
1, 49695, Note_on_c, 0, 64, 0
1, 49732, Control_c, 0, 67, 85
1, 49805, Note_on_c, 0, 66, 0
1, 49809, Note_on_c, 0, 62, 67
1, 49942, Note_on_c, 0, 61, 64
1, 49946, Note_on_c, 0, 52, 62
1, 49951, Note_on_c, 0, 62, 0
1, 49990, Control_c, 0, 67, 85
1, 50007, Note_on_c, 0, 52, 0
1, 50054, Note_on_c, 0, 61, 0
1, 50059, Note_on_c, 0, 62, 68
1, 50136, Control_c, 0, 67, 84
1, 50169, Note_on_c, 0, 62, 0
1, 50188, Note_on_c, 0, 59, 63
1, 50196, Control_c, 0, 67, 84
1, 50277, Note_on_c, 0, 59, 0
1, 50317, Note_on_c, 0, 57, 62
1, 50320, Note_on_c, 0, 40, 51
1, 50348, Control_c, 0, 67, 83
1, 50407, Note_on_c, 0, 40, 0
1, 50409, Control_c, 0, 67, 83
1, 50429, Note_on_c, 0, 57, 0
1, 50438, Note_on_c, 0, 59, 63
1, 50455, Control_c, 0, 67, 82
1, 50515, Control_c, 0, 67, 82
1, 50546, Control_c, 0, 67, 81
1, 50552, Note_on_c, 0, 56, 63
1, 50560, Control_c, 0, 67, 81
1, 50568, Note_on_c, 0, 59, 0
1, 50591, Control_c, 0, 67, 80
1, 50600, Note_on_c, 0, 56, 0
1, 50636, Control_c, 0, 67, 79
1, 50652, Control_c, 0, 67, 78
1, 50668, Control_c, 0, 67, 76
1, 50683, Control_c, 0, 67, 74
1, 50699, Control_c, 0, 67, 72
1, 50713, Control_c, 0, 67, 71
1, 50729, Control_c, 0, 67, 69
1, 50744, Control_c, 0, 67, 67
1, 50755, Note_on_c, 0, 57, 60
1, 50759, Control_c, 0, 67, 65
1, 50770, Note_on_c, 0, 33, 41
1, 50775, Control_c, 0, 67, 64
1, 50789, Control_c, 0, 64, 51
1, 50789, Control_c, 0, 67, 62
1, 50804, Control_c, 0, 64, 63
1, 50804, Control_c, 0, 67, 59
1, 50820, Control_c, 0, 64, 68
1, 50820, Control_c, 0, 67, 53
1, 50834, Control_c, 0, 64, 85
1, 50834, Control_c, 0, 67, 46
1, 50850, Control_c, 0, 64, 127
1, 50850, Control_c, 0, 67, 39
1, 50855, Note_on_c, 0, 33, 0
1, 50855, Note_on_c, 0, 57, 0
1, 50865, Control_c, 0, 67, 32
1, 50889, Control_c, 0, 67, 24
1, 50904, Control_c, 0, 67, 14
1, 50918, Control_c, 0, 67, 0
1, 51257, Note_on_c, 0, 77, 70
1, 51304, Note_on_c, 0, 79, 81
1, 51335, Note_on_c, 0, 77, 0
1, 51350, Note_on_c, 0, 81, 91
1, 51359, Control_c, 0, 64, 74
1, 51374, Control_c, 0, 64, 0
1, 51386, Note_on_c, 0, 79, 0
1, 51829, Note_on_c, 0, 79, 78
1, 51889, Note_on_c, 0, 81, 0
1, 51977, Note_on_c, 0, 77, 81
1, 52063, Note_on_c, 0, 79, 0
1, 52099, Note_on_c, 0, 76, 83
1, 52133, Note_on_c, 0, 77, 0
1, 52211, Note_on_c, 0, 74, 86
1, 52217, Note_on_c, 0, 76, 0
1, 52320, Note_on_c, 0, 73, 83
1, 52334, Note_on_c, 0, 74, 0
1, 52341, Control_c, 0, 64, 47
1, 52356, Control_c, 0, 64, 63
1, 52372, Control_c, 0, 64, 70
1, 52387, Control_c, 0, 64, 89
1, 52410, Control_c, 0, 64, 127
1, 52421, Note_on_c, 0, 74, 81
1, 52433, Note_on_c, 0, 73, 0
1, 52466, Note_on_c, 0, 74, 0
1, 52561, Note_on_c, 0, 74, 83
1, 52604, Note_on_c, 0, 74, 0
1, 52610, Note_on_c, 0, 73, 70
1, 52622, Control_c, 0, 64, 109
1, 52637, Control_c, 0, 64, 78
1, 52648, Note_on_c, 0, 74, 67
1, 52653, Control_c, 0, 64, 66
1, 52653, Note_on_c, 0, 73, 0
1, 52668, Control_c, 0, 64, 51
1, 52683, Control_c, 0, 64, 0
1, 52697, Note_on_c, 0, 73, 80
1, 52726, Note_on_c, 0, 74, 0
1, 52972, Note_on_c, 0, 70, 65
1, 53139, Control_c, 0, 64, 52
1, 53154, Control_c, 0, 64, 62
1, 53177, Control_c, 0, 64, 65
1, 53192, Control_c, 0, 64, 69
1, 53208, Control_c, 0, 64, 78
1, 53223, Control_c, 0, 64, 101
1, 53238, Control_c, 0, 64, 127
1, 53308, Note_on_c, 0, 73, 0
1, 53310, Note_on_c, 0, 69, 61
1, 53313, Note_on_c, 0, 70, 0
1, 53454, Note_on_c, 0, 67, 68
1, 53459, Note_on_c, 0, 69, 0
1, 53555, Note_on_c, 0, 65, 68
1, 53562, Note_on_c, 0, 67, 0
1, 53591, Note_on_c, 0, 65, 0
1, 53669, Note_on_c, 0, 73, 85
1, 53696, Note_on_c, 0, 67, 70
1, 53708, Control_c, 0, 64, 106
1, 53722, Control_c, 0, 64, 66
1, 53738, Control_c, 0, 64, 0
1, 53784, Control_c, 0, 64, 39
1, 53799, Control_c, 0, 64, 63
1, 53815, Control_c, 0, 64, 67
1, 53815, Note_on_c, 0, 65, 65
1, 53817, Note_on_c, 0, 67, 0
1, 53821, Note_on_c, 0, 73, 0
1, 53829, Control_c, 0, 64, 76
1, 53844, Control_c, 0, 64, 112
1, 53860, Control_c, 0, 64, 127
1, 53909, Note_on_c, 0, 64, 69
1, 53920, Note_on_c, 0, 65, 0
1, 53961, Note_on_c, 0, 64, 0
1, 54045, Note_on_c, 0, 74, 90
1, 54062, Note_on_c, 0, 65, 59
1, 54111, Control_c, 0, 64, 87
1, 54126, Control_c, 0, 64, 56
1, 54142, Control_c, 0, 64, 0
1, 54166, Note_on_c, 0, 65, 0
1, 54173, Note_on_c, 0, 64, 60
1, 54202, Control_c, 0, 64, 59
1, 54218, Control_c, 0, 64, 65
1, 54226, Note_on_c, 0, 74, 0
1, 54233, Control_c, 0, 64, 71
1, 54238, Note_on_c, 0, 62, 57
1, 54249, Control_c, 0, 64, 86
1, 54258, Note_on_c, 0, 64, 0
1, 54264, Control_c, 0, 64, 127
1, 54273, Note_on_c, 0, 62, 0
1, 54347, Note_on_c, 0, 74, 69
1, 54397, Note_on_c, 0, 76, 74
1, 54448, Note_on_c, 0, 77, 84
1, 54454, Note_on_c, 0, 69, 50
1, 54457, Note_on_c, 0, 65, 48
1, 54458, Note_on_c, 0, 74, 0
1, 54460, Note_on_c, 0, 62, 53
1, 54478, Note_on_c, 0, 76, 0
1, 54522, Control_c, 0, 64, 74
1, 54538, Control_c, 0, 64, 0
1, 54598, Control_c, 0, 64, 37
1, 54611, Note_on_c, 0, 65, 0
1, 54614, Control_c, 0, 64, 63
1, 54628, Control_c, 0, 64, 66
1, 54630, Note_on_c, 0, 62, 0
1, 54631, Note_on_c, 0, 69, 0
1, 54643, Control_c, 0, 64, 73
1, 54659, Control_c, 0, 64, 88
1, 54674, Control_c, 0, 64, 127
1, 54827, Note_on_c, 0, 76, 73
1, 54856, Note_on_c, 0, 64, 50
1, 54859, Note_on_c, 0, 69, 53
1, 54870, Note_on_c, 0, 60, 44
1, 54881, Note_on_c, 0, 77, 0
1, 54896, Control_c, 0, 64, 90
1, 54910, Control_c, 0, 64, 57
1, 54925, Control_c, 0, 64, 0
1, 54954, Note_on_c, 0, 60, 0
1, 54972, Control_c, 0, 64, 63
1, 54975, Note_on_c, 0, 76, 0
1, 54986, Control_c, 0, 64, 68
1, 54987, Note_on_c, 0, 69, 0
1, 55001, Control_c, 0, 64, 76
1, 55010, Note_on_c, 0, 64, 0
1, 55017, Control_c, 0, 64, 101
1, 55032, Control_c, 0, 64, 127
1, 55149, Note_on_c, 0, 58, 55
1, 55187, Note_on_c, 0, 62, 46
1, 55212, Note_on_c, 0, 76, 67
1, 55213, Note_on_c, 0, 64, 42
1, 55248, Note_on_c, 0, 67, 58
1, 55272, Note_on_c, 0, 74, 79
1, 55290, Control_c, 0, 64, 71
1, 55305, Control_c, 0, 64, 0
1, 55319, Note_on_c, 0, 76, 0
1, 55350, Control_c, 0, 64, 51
1, 55359, Note_on_c, 0, 62, 0
1, 55365, Control_c, 0, 64, 65
1, 55374, Note_on_c, 0, 58, 0
1, 55381, Control_c, 0, 64, 70
1, 55388, Note_on_c, 0, 64, 0
1, 55391, Note_on_c, 0, 73, 73
1, 55395, Control_c, 0, 64, 81
1, 55398, Note_on_c, 0, 67, 0
1, 55411, Control_c, 0, 64, 108
1, 55414, Note_on_c, 0, 74, 0
1, 55426, Control_c, 0, 64, 127
1, 55523, Note_on_c, 0, 74, 77
1, 55530, Note_on_c, 0, 73, 0
1, 55576, Note_on_c, 0, 57, 49
1, 55625, Note_on_c, 0, 61, 45
1, 55644, Note_on_c, 0, 64, 45
1, 55669, Note_on_c, 0, 76, 71
1, 55670, Note_on_c, 0, 74, 0
1, 55678, Control_c, 0, 64, 90
1, 55685, Note_on_c, 0, 67, 46
1, 55694, Control_c, 0, 64, 64
1, 55708, Control_c, 0, 64, 0
1, 55753, Control_c, 0, 64, 22
1, 55769, Control_c, 0, 64, 60
1, 55784, Control_c, 0, 64, 65
1, 55799, Control_c, 0, 64, 70
1, 55809, Note_on_c, 0, 61, 0
1, 55809, Note_on_c, 0, 64, 0
1, 55813, Note_on_c, 0, 76, 0
1, 55815, Control_c, 0, 64, 82
1, 55817, Note_on_c, 0, 57, 0
1, 55818, Note_on_c, 0, 67, 0
1, 55829, Control_c, 0, 64, 103
1, 55844, Control_c, 0, 64, 127
1, 55971, Note_on_c, 0, 62, 59
1, 56003, Note_on_c, 0, 65, 66
1, 56028, Note_on_c, 0, 69, 68
1, 56046, Note_on_c, 0, 77, 82
1, 56056, Control_c, 0, 64, 66
1, 56071, Control_c, 0, 64, 0
1, 56127, Note_on_c, 0, 69, 0
1, 56131, Control_c, 0, 64, 62
1, 56133, Note_on_c, 0, 62, 0
1, 56139, Note_on_c, 0, 65, 0
1, 56147, Control_c, 0, 64, 67
1, 56156, Note_on_c, 0, 76, 86
1, 56161, Control_c, 0, 64, 82
1, 56177, Control_c, 0, 64, 127
1, 56182, Note_on_c, 0, 77, 0
1, 56273, Note_on_c, 0, 77, 88
1, 56300, Note_on_c, 0, 76, 0
1, 56315, Note_on_c, 0, 58, 61
1, 56338, Note_on_c, 0, 62, 62
1, 56356, Note_on_c, 0, 64, 61
1, 56382, Control_c, 0, 64, 70
1, 56391, Note_on_c, 0, 79, 86
1, 56392, Note_on_c, 0, 67, 63
1, 56398, Control_c, 0, 64, 0
1, 56407, Note_on_c, 0, 77, 0
1, 56474, Control_c, 0, 64, 62
1, 56481, Note_on_c, 0, 62, 0
1, 56486, Note_on_c, 0, 58, 0
1, 56489, Control_c, 0, 64, 66
1, 56501, Note_on_c, 0, 67, 0
1, 56505, Control_c, 0, 64, 71
1, 56506, Note_on_c, 0, 64, 0
1, 56507, Note_on_c, 0, 77, 82
1, 56520, Control_c, 0, 64, 82
1, 56535, Note_on_c, 0, 79, 0
1, 56536, Control_c, 0, 64, 99
1, 56550, Control_c, 0, 64, 127
1, 56631, Note_on_c, 0, 76, 78
1, 56664, Note_on_c, 0, 77, 0
1, 56692, Note_on_c, 0, 57, 53
1, 56715, Note_on_c, 0, 64, 49
1, 56718, Note_on_c, 0, 61, 53
1, 56739, Note_on_c, 0, 76, 0
1, 56748, Control_c, 0, 64, 69
1, 56748, Note_on_c, 0, 67, 67
1, 56751, Note_on_c, 0, 74, 85
1, 56762, Control_c, 0, 64, 0
1, 56794, Note_on_c, 0, 67, 0
1, 56807, Note_on_c, 0, 57, 0
1, 56808, Control_c, 0, 64, 37
1, 56824, Control_c, 0, 64, 65
1, 56832, Note_on_c, 0, 64, 0
1, 56839, Control_c, 0, 64, 71
1, 56840, Note_on_c, 0, 61, 0
1, 56855, Control_c, 0, 64, 87
1, 56863, Note_on_c, 0, 73, 81
1, 56865, Note_on_c, 0, 74, 0
1, 56870, Control_c, 0, 64, 127
1, 56983, Note_on_c, 0, 74, 83
1, 56993, Note_on_c, 0, 73, 0
1, 57071, Note_on_c, 0, 57, 60
1, 57096, Note_on_c, 0, 61, 62
1, 57105, Control_c, 0, 64, 86
1, 57108, Note_on_c, 0, 64, 62
1, 57120, Control_c, 0, 64, 35
1, 57123, Note_on_c, 0, 67, 72
1, 57133, Note_on_c, 0, 76, 88
1, 57135, Control_c, 0, 64, 0
1, 57158, Note_on_c, 0, 74, 0
1, 57196, Control_c, 0, 64, 59
1, 57200, Note_on_c, 0, 57, 0
1, 57212, Control_c, 0, 64, 67
1, 57221, Note_on_c, 0, 64, 0
1, 57222, Note_on_c, 0, 61, 0
1, 57224, Note_on_c, 0, 67, 0
1, 57228, Control_c, 0, 64, 76
1, 57242, Control_c, 0, 64, 103
1, 57255, Note_on_c, 0, 77, 82
1, 57258, Control_c, 0, 64, 127
1, 57304, Note_on_c, 0, 76, 0
1, 57355, Note_on_c, 0, 79, 88
1, 57382, Note_on_c, 0, 77, 0
1, 57447, Note_on_c, 0, 62, 64
1, 57469, Note_on_c, 0, 65, 67
1, 57484, Note_on_c, 0, 77, 89
1, 57485, Control_c, 0, 64, 65
1, 57485, Note_on_c, 0, 69, 80
1, 57496, Note_on_c, 0, 79, 0
1, 57501, Control_c, 0, 64, 0
1, 57561, Control_c, 0, 64, 62
1, 57566, Note_on_c, 0, 69, 0
1, 57576, Control_c, 0, 64, 67
1, 57584, Note_on_c, 0, 62, 0
1, 57584, Note_on_c, 0, 65, 0
1, 57590, Note_on_c, 0, 77, 0
1, 57591, Control_c, 0, 64, 75
1, 57594, Note_on_c, 0, 79, 89
1, 57606, Control_c, 0, 64, 93
1, 57622, Control_c, 0, 64, 127
1, 57702, Note_on_c, 0, 81, 92
1, 57728, Note_on_c, 0, 79, 0
1, 57785, Note_on_c, 0, 58, 65
1, 57805, Note_on_c, 0, 62, 67
1, 57825, Note_on_c, 0, 64, 73
1, 57825, Note_on_c, 0, 79, 93
1, 57827, Control_c, 0, 64, 68
1, 57836, Note_on_c, 0, 67, 81
1, 57836, Note_on_c, 0, 81, 0
1, 57842, Control_c, 0, 64, 0
1, 57903, Control_c, 0, 64, 51
1, 57918, Control_c, 0, 64, 65
1, 57921, Note_on_c, 0, 58, 0
1, 57928, Note_on_c, 0, 62, 0
1, 57930, Note_on_c, 0, 67, 0
1, 57933, Control_c, 0, 64, 73
1, 57935, Note_on_c, 0, 64, 0
1, 57949, Control_c, 0, 64, 97
1, 57949, Note_on_c, 0, 77, 80
1, 57964, Control_c, 0, 64, 127
1, 57971, Note_on_c, 0, 79, 0
1, 58059, Note_on_c, 0, 76, 79
1, 58080, Note_on_c, 0, 77, 0
1, 58112, Note_on_c, 0, 76, 0
1, 58117, Note_on_c, 0, 58, 56
1, 58154, Note_on_c, 0, 61, 59
1, 58162, Control_c, 0, 64, 76
1, 58178, Control_c, 0, 64, 0
1, 58183, Note_on_c, 0, 64, 64
1, 58195, Note_on_c, 0, 74, 84
1, 58196, Note_on_c, 0, 67, 80
1, 58238, Control_c, 0, 64, 61
1, 58251, Note_on_c, 0, 58, 0
1, 58253, Control_c, 0, 64, 69
1, 58269, Control_c, 0, 64, 91
1, 58271, Note_on_c, 0, 67, 0
1, 58272, Note_on_c, 0, 64, 0
1, 58275, Note_on_c, 0, 61, 0
1, 58284, Control_c, 0, 64, 127
1, 58310, Note_on_c, 0, 73, 76
1, 58326, Note_on_c, 0, 74, 0
1, 58421, Note_on_c, 0, 73, 0
1, 58426, Note_on_c, 0, 74, 77
1, 58512, Control_c, 0, 64, 91
1, 58527, Control_c, 0, 64, 62
1, 58529, Note_on_c, 0, 57, 80
1, 58538, Note_on_c, 0, 73, 67
1, 58550, Control_c, 0, 64, 0
1, 58564, Note_on_c, 0, 74, 0
1, 58570, Note_on_c, 0, 57, 0
1, 58649, Note_on_c, 0, 73, 0
1, 58662, Note_on_c, 0, 69, 58
1, 58793, Note_on_c, 0, 76, 62
1, 58804, Note_on_c, 0, 69, 0
1, 58919, Note_on_c, 0, 81, 95
1, 58933, Note_on_c, 0, 73, 76
1, 58943, Note_on_c, 0, 76, 0
1, 58951, Note_on_c, 0, 81, 0
1, 59030, Note_on_c, 0, 73, 0
1, 59047, Note_on_c, 0, 69, 66
1, 59156, Note_on_c, 0, 69, 0
1, 59162, Note_on_c, 0, 76, 59
1, 59279, Note_on_c, 0, 70, 63
1, 59281, Note_on_c, 0, 55, 85
1, 59296, Note_on_c, 0, 76, 0
1, 59327, Note_on_c, 0, 55, 0
1, 59398, Note_on_c, 0, 70, 0
1, 59410, Note_on_c, 0, 67, 69
1, 59528, Note_on_c, 0, 76, 60
1, 59567, Note_on_c, 0, 67, 0
1, 59663, Note_on_c, 0, 82, 99
1, 59669, Note_on_c, 0, 73, 79
1, 59676, Note_on_c, 0, 76, 0
1, 59703, Note_on_c, 0, 82, 0
1, 59790, Note_on_c, 0, 67, 65
1, 59796, Note_on_c, 0, 73, 0
1, 59901, Note_on_c, 0, 76, 68
1, 59912, Note_on_c, 0, 67, 0
1, 60019, Note_on_c, 0, 76, 0
1, 60024, Note_on_c, 0, 53, 84
1, 60031, Note_on_c, 0, 74, 74
1, 60062, Note_on_c, 0, 53, 0
1, 60165, Note_on_c, 0, 69, 66
1, 60165, Note_on_c, 0, 74, 0
1, 60273, Note_on_c, 0, 77, 67
1, 60290, Note_on_c, 0, 69, 0
1, 60410, Note_on_c, 0, 81, 103
1, 60415, Note_on_c, 0, 74, 79
1, 60420, Note_on_c, 0, 77, 0
1, 60441, Note_on_c, 0, 81, 0
1, 60532, Note_on_c, 0, 69, 68
1, 60543, Note_on_c, 0, 74, 0
1, 60645, Note_on_c, 0, 77, 70
1, 60696, Note_on_c, 0, 69, 0
1, 60761, Note_on_c, 0, 77, 0
1, 60764, Note_on_c, 0, 76, 72
1, 60771, Note_on_c, 0, 52, 86
1, 60805, Note_on_c, 0, 52, 0
1, 60899, Note_on_c, 0, 69, 70
1, 60913, Note_on_c, 0, 76, 0
1, 60998, Note_on_c, 0, 79, 78
1, 61047, Note_on_c, 0, 69, 0
1, 61141, Note_on_c, 0, 76, 78
1, 61142, Note_on_c, 0, 85, 104
1, 61156, Note_on_c, 0, 79, 0
1, 61171, Note_on_c, 0, 85, 0
1, 61261, Note_on_c, 0, 69, 71
1, 61275, Note_on_c, 0, 76, 0
1, 61361, Note_on_c, 0, 79, 88
1, 61368, Note_on_c, 0, 69, 0
1, 61499, Note_on_c, 0, 50, 77
1, 61500, Note_on_c, 0, 77, 87
1, 61520, Note_on_c, 0, 79, 0
1, 61523, Note_on_c, 0, 50, 0
1, 61621, Note_on_c, 0, 76, 86
1, 61632, Note_on_c, 0, 77, 0
1, 61730, Note_on_c, 0, 74, 86
1, 61748, Note_on_c, 0, 76, 0
1, 61860, Note_on_c, 0, 81, 100
1, 61875, Note_on_c, 0, 62, 66
1, 61900, Note_on_c, 0, 74, 0
1, 61911, Note_on_c, 0, 81, 0
1, 61978, Note_on_c, 0, 65, 72
1, 62036, Note_on_c, 0, 62, 0
1, 62096, Note_on_c, 0, 65, 0
1, 62098, Note_on_c, 0, 69, 68
1, 62243, Note_on_c, 0, 46, 92
1, 62250, Note_on_c, 0, 58, 64
1, 62262, Note_on_c, 0, 69, 0
1, 62293, Note_on_c, 0, 46, 0
1, 62388, Note_on_c, 0, 62, 63
1, 62395, Note_on_c, 0, 58, 0
1, 62504, Note_on_c, 0, 69, 64
1, 62506, Note_on_c, 0, 62, 0
1, 62611, Note_on_c, 0, 69, 0
1, 62628, Note_on_c, 0, 79, 95
1, 62634, Note_on_c, 0, 58, 61
1, 62683, Note_on_c, 0, 79, 0
1, 62741, Note_on_c, 0, 58, 0
1, 62748, Note_on_c, 0, 62, 65
1, 62860, Note_on_c, 0, 62, 0
1, 62868, Note_on_c, 0, 67, 61
1, 63011, Note_on_c, 0, 45, 88
1, 63012, Note_on_c, 0, 57, 53
1, 63017, Note_on_c, 0, 67, 0
1, 63052, Note_on_c, 0, 45, 0
1, 63123, Note_on_c, 0, 57, 0
1, 63145, Note_on_c, 0, 62, 57
1, 63243, Note_on_c, 0, 62, 0
1, 63263, Note_on_c, 0, 65, 59
1, 63394, Note_on_c, 0, 57, 53
1, 63397, Note_on_c, 0, 77, 88
1, 63421, Note_on_c, 0, 65, 0
1, 63450, Note_on_c, 0, 77, 0
1, 63464, Control_c, 0, 67, 12
1, 63479, Control_c, 0, 67, 20
1, 63484, Note_on_c, 0, 57, 0
1, 63495, Control_c, 0, 67, 29
1, 63501, Note_on_c, 0, 62, 61
1, 63510, Control_c, 0, 67, 36
1, 63525, Control_c, 0, 67, 44
1, 63540, Control_c, 0, 67, 52
1, 63555, Control_c, 0, 67, 59
1, 63571, Control_c, 0, 67, 67
1, 63580, Note_on_c, 0, 62, 0
1, 63586, Control_c, 0, 67, 74
1, 63601, Control_c, 0, 67, 80
1, 63617, Control_c, 0, 67, 86
1, 63621, Note_on_c, 0, 65, 60
1, 63632, Control_c, 0, 67, 93
1, 63646, Control_c, 0, 67, 97
1, 63662, Control_c, 0, 67, 102
1, 63677, Control_c, 0, 67, 104
1, 63693, Control_c, 0, 67, 106
1, 63707, Control_c, 0, 67, 107
1, 63722, Control_c, 0, 67, 108
1, 63737, Control_c, 0, 67, 108
1, 63752, Control_c, 0, 67, 109
1, 63760, Note_on_c, 0, 65, 0
1, 63765, Note_on_c, 0, 55, 52
1, 63766, Note_on_c, 0, 43, 81
1, 63769, Control_c, 0, 67, 110
1, 63784, Control_c, 0, 67, 112
1, 63799, Control_c, 0, 67, 114
1, 63805, Note_on_c, 0, 43, 0
1, 63815, Control_c, 0, 67, 118
1, 63830, Control_c, 0, 67, 120
1, 63844, Control_c, 0, 67, 121
1, 63891, Control_c, 0, 67, 120
1, 63896, Note_on_c, 0, 55, 0
1, 63906, Control_c, 0, 67, 120
1, 63908, Note_on_c, 0, 61, 54
1, 63929, Control_c, 0, 67, 119
1, 63944, Control_c, 0, 67, 119
1, 63974, Control_c, 0, 67, 118
1, 63995, Note_on_c, 0, 61, 0
1, 64004, Control_c, 0, 67, 118
1, 64029, Note_on_c, 0, 64, 59
1, 64035, Control_c, 0, 67, 117
1, 64096, Control_c, 0, 67, 117
1, 64141, Control_c, 0, 67, 116
1, 64155, Note_on_c, 0, 76, 77
1, 64166, Note_on_c, 0, 55, 53
1, 64181, Note_on_c, 0, 64, 0
1, 64186, Control_c, 0, 67, 117
1, 64211, Note_on_c, 0, 76, 0
1, 64268, Note_on_c, 0, 55, 0
1, 64277, Control_c, 0, 67, 117
1, 64289, Note_on_c, 0, 61, 55
1, 64293, Control_c, 0, 67, 118
1, 64307, Control_c, 0, 67, 119
1, 64338, Control_c, 0, 67, 119
1, 64360, Note_on_c, 0, 61, 0
1, 64369, Control_c, 0, 67, 120
1, 64384, Control_c, 0, 67, 120
1, 64390, Note_on_c, 0, 64, 58
1, 64399, Control_c, 0, 67, 121
1, 64520, Control_c, 0, 67, 120
1, 64528, Note_on_c, 0, 41, 69
1, 64539, Note_on_c, 0, 53, 56
1, 64546, Note_on_c, 0, 64, 0
1, 64562, Note_on_c, 0, 41, 0
1, 64613, Control_c, 0, 67, 119
1, 64628, Control_c, 0, 67, 118
1, 64643, Control_c, 0, 67, 117
1, 64659, Control_c, 0, 67, 116
1, 64659, Note_on_c, 0, 53, 0
1, 64660, Note_on_c, 0, 57, 52
1, 64696, Control_c, 0, 67, 116
1, 64726, Control_c, 0, 67, 115
1, 64742, Control_c, 0, 67, 115
1, 64764, Note_on_c, 0, 57, 0
1, 64772, Control_c, 0, 67, 114
1, 64792, Note_on_c, 0, 64, 49
1, 64833, Control_c, 0, 67, 114
1, 64864, Control_c, 0, 67, 113
1, 64930, Note_on_c, 0, 74, 75
1, 64934, Note_on_c, 0, 64, 0
1, 64936, Note_on_c, 0, 53, 49
1, 64983, Note_on_c, 0, 74, 0
1, 65016, Control_c, 0, 67, 114
1, 65029, Note_on_c, 0, 53, 0
1, 65030, Control_c, 0, 67, 114
1, 65045, Control_c, 0, 67, 115
1, 65048, Note_on_c, 0, 57, 53
1, 65061, Control_c, 0, 67, 115
1, 65076, Control_c, 0, 67, 116
1, 65092, Control_c, 0, 67, 117
1, 65106, Control_c, 0, 67, 117
1, 65121, Control_c, 0, 67, 118
1, 65126, Note_on_c, 0, 57, 0
1, 65137, Control_c, 0, 67, 118
1, 65151, Control_c, 0, 67, 119
1, 65166, Control_c, 0, 67, 119
1, 65168, Note_on_c, 0, 62, 55
1, 65313, Note_on_c, 0, 40, 63
1, 65314, Note_on_c, 0, 52, 48
1, 65315, Note_on_c, 0, 62, 0
1, 65335, Control_c, 0, 67, 119
1, 65348, Note_on_c, 0, 40, 0
1, 65381, Control_c, 0, 67, 118
1, 65396, Control_c, 0, 67, 118
1, 65412, Control_c, 0, 67, 117
1, 65427, Control_c, 0, 67, 116
1, 65427, Note_on_c, 0, 52, 0
1, 65442, Control_c, 0, 67, 115
1, 65442, Note_on_c, 0, 55, 52
1, 65465, Control_c, 0, 67, 115
1, 65480, Control_c, 0, 67, 114
1, 65541, Control_c, 0, 67, 114
1, 65553, Note_on_c, 0, 55, 0
1, 65556, Control_c, 0, 67, 113
1, 65572, Control_c, 0, 67, 113
1, 65573, Note_on_c, 0, 62, 54
1, 65723, Note_on_c, 0, 62, 0
1, 65729, Note_on_c, 0, 52, 48
1, 65730, Note_on_c, 0, 73, 72
1, 65793, Note_on_c, 0, 73, 0
1, 65809, Note_on_c, 0, 52, 0
1, 65830, Control_c, 0, 67, 113
1, 65842, Note_on_c, 0, 55, 48
1, 65861, Control_c, 0, 67, 114
1, 65875, Control_c, 0, 67, 114
1, 65891, Control_c, 0, 67, 115
1, 65921, Control_c, 0, 67, 115
1, 65937, Control_c, 0, 67, 116
1, 65946, Note_on_c, 0, 55, 0
1, 65966, Control_c, 0, 67, 116
1, 65968, Note_on_c, 0, 61, 58
1, 66006, Note_on_c, 0, 61, 0
1, 66102, Control_c, 0, 67, 116
1, 66132, Control_c, 0, 67, 115
1, 66229, Note_on_c, 0, 50, 45
1, 66231, Control_c, 0, 67, 115
1, 66246, Note_on_c, 0, 38, 56
1, 66262, Control_c, 0, 64, 40
1, 66262, Control_c, 0, 67, 114
1, 66277, Control_c, 0, 64, 63
1, 66277, Control_c, 0, 67, 114
1, 66288, Note_on_c, 0, 38, 0
1, 66293, Control_c, 0, 64, 67
1, 66293, Control_c, 0, 67, 113
1, 66300, Note_on_c, 0, 50, 0
1, 66307, Control_c, 0, 64, 78
1, 66307, Control_c, 0, 67, 112
1, 66322, Control_c, 0, 64, 127
1, 66322, Control_c, 0, 67, 110
1, 66338, Control_c, 0, 67, 107
1, 66353, Control_c, 0, 67, 104
1, 66368, Control_c, 0, 67, 98
1, 66383, Control_c, 0, 67, 91
1, 66398, Control_c, 0, 67, 82
1, 66414, Control_c, 0, 67, 69
1, 66429, Control_c, 0, 67, 56
1, 66444, Control_c, 0, 67, 43
1, 66460, Control_c, 0, 67, 33
1, 66475, Control_c, 0, 67, 27
1, 66491, Control_c, 0, 67, 24
1, 66505, Control_c, 0, 67, 20
1, 66520, Control_c, 0, 67, 11
1, 66536, Control_c, 0, 67, 0
1, 66799, Note_on_c, 0, 77, 75
1, 66857, Note_on_c, 0, 79, 82
1, 66875, Note_on_c, 0, 77, 0
1, 66884, Control_c, 0, 64, 74
1, 66884, Note_on_c, 0, 81, 86
1, 66900, Control_c, 0, 64, 0
1, 66926, Note_on_c, 0, 79, 0
1, 67328, Note_on_c, 0, 79, 81
1, 67379, Note_on_c, 0, 81, 0
1, 67474, Note_on_c, 0, 77, 88
1, 67543, Note_on_c, 0, 79, 0
1, 67592, Note_on_c, 0, 76, 89
1, 67625, Note_on_c, 0, 58, 52
1, 67630, Note_on_c, 0, 77, 0
1, 67670, Note_on_c, 0, 62, 55
1, 67696, Note_on_c, 0, 64, 58
1, 67730, Note_on_c, 0, 74, 88
1, 67738, Note_on_c, 0, 67, 75
1, 67745, Note_on_c, 0, 76, 0
1, 67858, Control_c, 0, 64, 31
1, 67867, Note_on_c, 0, 73, 87
1, 67874, Control_c, 0, 64, 60
1, 67890, Control_c, 0, 64, 66
1, 67897, Note_on_c, 0, 74, 0
1, 67905, Control_c, 0, 64, 76
1, 67919, Control_c, 0, 64, 127
1, 67937, Note_on_c, 0, 58, 0
1, 67952, Note_on_c, 0, 67, 0
1, 67968, Note_on_c, 0, 62, 0
1, 67970, Note_on_c, 0, 64, 0
1, 67985, Note_on_c, 0, 74, 92
1, 68004, Note_on_c, 0, 73, 0
1, 68034, Note_on_c, 0, 74, 0
1, 68175, Note_on_c, 0, 57, 50
1, 68209, Note_on_c, 0, 61, 50
1, 68223, Note_on_c, 0, 64, 50
1, 68229, Note_on_c, 0, 74, 76
1, 68241, Note_on_c, 0, 67, 57
1, 68269, Control_c, 0, 64, 90
1, 68281, Note_on_c, 0, 73, 75
1, 68282, Note_on_c, 0, 74, 0
1, 68284, Control_c, 0, 64, 81
1, 68300, Control_c, 0, 64, 78
1, 68315, Control_c, 0, 64, 75
1, 68331, Control_c, 0, 64, 68
1, 68333, Note_on_c, 0, 74, 71
1, 68335, Note_on_c, 0, 73, 0
1, 68346, Control_c, 0, 64, 58
1, 68361, Control_c, 0, 64, 0
1, 68389, Note_on_c, 0, 73, 73
1, 68417, Note_on_c, 0, 74, 0
1, 68498, Control_c, 0, 67, 14
1, 68513, Control_c, 0, 67, 24
1, 68533, Control_c, 0, 67, 32
1, 68549, Control_c, 0, 64, 62
1, 68549, Control_c, 0, 67, 41
1, 68564, Control_c, 0, 64, 66
1, 68564, Control_c, 0, 67, 48
1, 68579, Control_c, 0, 64, 76
1, 68579, Control_c, 0, 67, 58
1, 68583, Note_on_c, 0, 73, 0
1, 68594, Control_c, 0, 64, 102
1, 68594, Control_c, 0, 67, 68
1, 68609, Control_c, 0, 64, 127
1, 68609, Control_c, 0, 67, 78
1, 68625, Control_c, 0, 67, 88
1, 68640, Control_c, 0, 67, 98
1, 68656, Control_c, 0, 67, 111
1, 68670, Control_c, 0, 67, 123
1, 68686, Control_c, 0, 67, 127
1, 68915, Note_on_c, 0, 78, 58
1, 68952, Note_on_c, 0, 79, 73
1, 68958, Note_on_c, 0, 57, 0
1, 68975, Control_c, 0, 64, 102
1, 68980, Note_on_c, 0, 78, 0
1, 68983, Note_on_c, 0, 67, 0
1, 68990, Control_c, 0, 64, 71
1, 68990, Note_on_c, 0, 64, 0
1, 69005, Control_c, 0, 64, 35
1, 69009, Note_on_c, 0, 81, 69
1, 69020, Control_c, 0, 64, 0
1, 69023, Note_on_c, 0, 61, 0
1, 69032, Note_on_c, 0, 79, 0
1, 69450, Note_on_c, 0, 78, 56
1, 69549, Note_on_c, 0, 81, 0
1, 69595, Note_on_c, 0, 76, 60
1, 69625, Note_on_c, 0, 78, 0
1, 69699, Note_on_c, 0, 76, 0
1, 69726, Note_on_c, 0, 74, 61
1, 69757, Note_on_c, 0, 50, 28
1, 69769, Note_on_c, 0, 54, 36
1, 69795, Note_on_c, 0, 57, 35
1, 69840, Note_on_c, 0, 62, 50
1, 69843, Note_on_c, 0, 60, 42
1, 69868, Note_on_c, 0, 72, 59
1, 69885, Note_on_c, 0, 74, 0
1, 69955, Control_c, 0, 64, 35
1, 69958, Note_on_c, 0, 50, 0
1, 69970, Control_c, 0, 64, 60
1, 69977, Note_on_c, 0, 54, 0
1, 69986, Control_c, 0, 64, 65
1, 69987, Note_on_c, 0, 57, 0
1, 70001, Control_c, 0, 64, 70
1, 70006, Note_on_c, 0, 70, 61
1, 70016, Control_c, 0, 64, 81
1, 70020, Note_on_c, 0, 72, 0
1, 70031, Control_c, 0, 64, 119
1, 70046, Control_c, 0, 64, 127
1, 70055, Note_on_c, 0, 60, 0
1, 70056, Note_on_c, 0, 62, 0
1, 70122, Note_on_c, 0, 69, 59
1, 70126, Note_on_c, 0, 70, 0
1, 70159, Note_on_c, 0, 69, 0
1, 70272, Note_on_c, 0, 55, 44
1, 70307, Note_on_c, 0, 72, 66
1, 70313, Note_on_c, 0, 58, 46
1, 70328, Control_c, 0, 64, 122
1, 70344, Control_c, 0, 64, 92
1, 70351, Note_on_c, 0, 72, 0
1, 70359, Control_c, 0, 64, 81
1, 70359, Note_on_c, 0, 62, 48
1, 70367, Note_on_c, 0, 70, 65
1, 70373, Control_c, 0, 64, 73
1, 70389, Control_c, 0, 64, 70
1, 70404, Control_c, 0, 64, 67
1, 70404, Note_on_c, 0, 70, 0
1, 70420, Control_c, 0, 64, 63
1, 70424, Note_on_c, 0, 72, 59
1, 70435, Control_c, 0, 64, 0
1, 70472, Note_on_c, 0, 70, 66
1, 70481, Note_on_c, 0, 72, 0
1, 70556, Control_c, 0, 64, 46
1, 70571, Control_c, 0, 64, 64
1, 70586, Control_c, 0, 64, 68
1, 70595, Note_on_c, 0, 70, 0
1, 70601, Control_c, 0, 64, 76
1, 70617, Control_c, 0, 64, 87
1, 70631, Control_c, 0, 64, 107
1, 70646, Control_c, 0, 64, 127
1, 70759, Note_on_c, 0, 58, 0
1, 70773, Note_on_c, 0, 62, 0
1, 70796, Note_on_c, 0, 55, 0
1, 70882, Note_on_c, 0, 76, 72
1, 70910, Note_on_c, 0, 77, 83
1, 70927, Control_c, 0, 64, 73
1, 70940, Note_on_c, 0, 76, 0
1, 70943, Control_c, 0, 64, 0
1, 70952, Note_on_c, 0, 79, 89
1, 70988, Note_on_c, 0, 77, 0
1, 71049, Control_c, 0, 67, 126
1, 71065, Control_c, 0, 67, 126
1, 71080, Control_c, 0, 67, 125
1, 71142, Control_c, 0, 67, 123
1, 71157, Control_c, 0, 67, 120
1, 71171, Control_c, 0, 67, 116
1, 71187, Control_c, 0, 67, 113
1, 71202, Control_c, 0, 67, 112
1, 71218, Control_c, 0, 67, 110
1, 71233, Control_c, 0, 67, 106
1, 71248, Control_c, 0, 67, 100
1, 71264, Control_c, 0, 67, 92
1, 71279, Control_c, 0, 67, 85
1, 71293, Control_c, 0, 67, 78
1, 71309, Control_c, 0, 67, 75
1, 71324, Control_c, 0, 67, 74
1, 71346, Note_on_c, 0, 76, 67
1, 71369, Control_c, 0, 64, 42
1, 71385, Control_c, 0, 64, 65
1, 71385, Control_c, 0, 67, 74
1, 71395, Note_on_c, 0, 79, 0
1, 71400, Control_c, 0, 64, 75
1, 71415, Control_c, 0, 64, 127
1, 71445, Control_c, 0, 67, 75
1, 71482, Note_on_c, 0, 76, 0
1, 71483, Note_on_c, 0, 74, 77
1, 71490, Control_c, 0, 67, 74
1, 71547, Note_on_c, 0, 74, 0
1, 71566, Control_c, 0, 67, 75
1, 71600, Note_on_c, 0, 72, 69
1, 71632, Note_on_c, 0, 72, 0
1, 71650, Control_c, 0, 67, 74
1, 71718, Note_on_c, 0, 72, 69
1, 71726, Control_c, 0, 64, 74
1, 71737, Note_on_c, 0, 62, 64
1, 71741, Note_on_c, 0, 67, 55
1, 71741, Note_on_c, 0, 70, 78
1, 71742, Control_c, 0, 64, 0
1, 71745, Note_on_c, 0, 72, 0
1, 71771, Control_c, 0, 67, 75
1, 71787, Control_c, 0, 67, 74
1, 71792, Note_on_c, 0, 70, 0
1, 71820, Note_on_c, 0, 67, 0
1, 71832, Control_c, 0, 67, 75
1, 71878, Control_c, 0, 67, 75
1, 71884, Note_on_c, 0, 69, 64
1, 71930, Note_on_c, 0, 69, 0
1, 71955, Control_c, 0, 67, 75
1, 71995, Note_on_c, 0, 70, 65
1, 72030, Note_on_c, 0, 70, 0
1, 72114, Note_on_c, 0, 62, 0
1, 72120, Note_on_c, 0, 61, 60
1, 72122, Control_c, 0, 67, 74
1, 72123, Note_on_c, 0, 67, 56
1, 72126, Note_on_c, 0, 69, 64
1, 72169, Note_on_c, 0, 69, 0
1, 72204, Note_on_c, 0, 67, 0
1, 72253, Note_on_c, 0, 70, 68
1, 72285, Note_on_c, 0, 70, 0
1, 72306, Control_c, 0, 67, 75
1, 72356, Note_on_c, 0, 69, 69
1, 72417, Note_on_c, 0, 69, 0
1, 72449, Control_c, 0, 67, 74
1, 72472, Note_on_c, 0, 72, 84
1, 72489, Note_on_c, 0, 61, 0
1, 72490, Note_on_c, 0, 62, 76
1, 72495, Note_on_c, 0, 67, 71
1, 72502, Note_on_c, 0, 70, 82
1, 72529, Note_on_c, 0, 72, 0
1, 72557, Note_on_c, 0, 70, 0
1, 72572, Note_on_c, 0, 67, 0
1, 72642, Note_on_c, 0, 69, 69
1, 72647, Control_c, 0, 67, 75
1, 72701, Note_on_c, 0, 69, 0
1, 72750, Note_on_c, 0, 70, 75
1, 72806, Note_on_c, 0, 70, 0
1, 72883, Note_on_c, 0, 69, 72
1, 72887, Note_on_c, 0, 67, 59
1, 72890, Note_on_c, 0, 61, 56
1, 72906, Note_on_c, 0, 62, 0
1, 72939, Note_on_c, 0, 69, 0
1, 72978, Note_on_c, 0, 67, 0
1, 72994, Note_on_c, 0, 70, 72
1, 73029, Note_on_c, 0, 70, 0
1, 73096, Note_on_c, 0, 69, 62
1, 73125, Note_on_c, 0, 69, 0
1, 73198, Note_on_c, 0, 72, 75
1, 73212, Note_on_c, 0, 61, 0
1, 73224, Note_on_c, 0, 62, 62
1, 73231, Note_on_c, 0, 67, 56
1, 73240, Note_on_c, 0, 72, 0
1, 73241, Note_on_c, 0, 70, 73
1, 73278, Control_c, 0, 67, 75
1, 73285, Note_on_c, 0, 70, 0
1, 73305, Note_on_c, 0, 72, 57
1, 73306, Note_on_c, 0, 67, 0
1, 73353, Note_on_c, 0, 70, 73
1, 73360, Note_on_c, 0, 72, 0
1, 73411, Note_on_c, 0, 70, 0
1, 73426, Note_on_c, 0, 69, 65
1, 73486, Note_on_c, 0, 70, 65
1, 73492, Note_on_c, 0, 69, 0
1, 73506, Control_c, 0, 67, 75
1, 73551, Note_on_c, 0, 70, 0
1, 73594, Note_on_c, 0, 69, 74
1, 73599, Note_on_c, 0, 67, 60
1, 73601, Note_on_c, 0, 61, 58
1, 73625, Note_on_c, 0, 62, 0
1, 73648, Note_on_c, 0, 69, 0
1, 73705, Note_on_c, 0, 61, 0
1, 73709, Note_on_c, 0, 67, 0
1, 73716, Note_on_c, 0, 71, 79
1, 73753, Note_on_c, 0, 71, 0
1, 73820, Note_on_c, 0, 73, 84
1, 73826, Control_c, 0, 67, 75
1, 73875, Note_on_c, 0, 73, 0
1, 73891, Note_on_c, 0, 58, 50
1, 73921, Note_on_c, 0, 62, 54
1, 73946, Note_on_c, 0, 76, 84
1, 73947, Note_on_c, 0, 64, 66
1, 73953, Note_on_c, 0, 67, 75
1, 73955, Control_c, 0, 67, 75
1, 73962, Note_on_c, 0, 74, 90
1, 73997, Note_on_c, 0, 76, 0
1, 74016, Control_c, 0, 67, 75
1, 74019, Note_on_c, 0, 74, 0
1, 74046, Control_c, 0, 67, 76
1, 74062, Control_c, 0, 67, 76
1, 74077, Control_c, 0, 67, 77
1, 74085, Note_on_c, 0, 73, 87
1, 74091, Control_c, 0, 67, 77
1, 74122, Control_c, 0, 67, 78
1, 74124, Note_on_c, 0, 62, 0
1, 74131, Note_on_c, 0, 58, 0
1, 74142, Note_on_c, 0, 73, 0
1, 74153, Note_on_c, 0, 67, 0
1, 74155, Note_on_c, 0, 64, 0
1, 74197, Note_on_c, 0, 74, 85
1, 74213, Control_c, 0, 67, 78
1, 74244, Control_c, 0, 67, 79
1, 74250, Note_on_c, 0, 74, 0
1, 74289, Control_c, 0, 67, 79
1, 74305, Control_c, 0, 67, 80
1, 74319, Note_on_c, 0, 73, 79
1, 74320, Control_c, 0, 67, 81
1, 74328, Note_on_c, 0, 57, 52
1, 74328, Note_on_c, 0, 67, 56
1, 74330, Note_on_c, 0, 61, 51
1, 74336, Control_c, 0, 67, 82
1, 74337, Note_on_c, 0, 64, 45
1, 74350, Control_c, 0, 67, 82
1, 74365, Control_c, 0, 67, 83
1, 74376, Note_on_c, 0, 73, 0
1, 74381, Control_c, 0, 67, 84
1, 74396, Control_c, 0, 67, 85
1, 74411, Control_c, 0, 67, 86
1, 74428, Control_c, 0, 67, 87
1, 74442, Control_c, 0, 67, 91
1, 74443, Note_on_c, 0, 74, 78
1, 74452, Note_on_c, 0, 57, 0
1, 74457, Control_c, 0, 67, 94
1, 74472, Control_c, 0, 67, 98
1, 74481, Note_on_c, 0, 67, 0
1, 74484, Note_on_c, 0, 64, 0
1, 74486, Note_on_c, 0, 61, 0
1, 74486, Note_on_c, 0, 74, 0
1, 74487, Control_c, 0, 67, 104
1, 74503, Control_c, 0, 67, 109
1, 74517, Control_c, 0, 67, 116
1, 74532, Control_c, 0, 67, 124
1, 74548, Control_c, 0, 67, 127
1, 74550, Note_on_c, 0, 73, 74
1, 74585, Note_on_c, 0, 73, 0
1, 74641, Note_on_c, 0, 76, 73
1, 74646, Note_on_c, 0, 58, 47
1, 74656, Note_on_c, 0, 62, 47
1, 74675, Note_on_c, 0, 67, 54
1, 74679, Note_on_c, 0, 64, 42
1, 74685, Note_on_c, 0, 76, 0
1, 74689, Note_on_c, 0, 74, 71
1, 74749, Note_on_c, 0, 74, 0
1, 74752, Note_on_c, 0, 76, 68
1, 74802, Note_on_c, 0, 62, 0
1, 74803, Note_on_c, 0, 76, 0
1, 74806, Note_on_c, 0, 74, 66
1, 74833, Note_on_c, 0, 58, 0
1, 74835, Note_on_c, 0, 64, 0
1, 74835, Note_on_c, 0, 67, 0
1, 74856, Note_on_c, 0, 74, 0
1, 74861, Note_on_c, 0, 73, 70
1, 74915, Note_on_c, 0, 73, 0
1, 74917, Note_on_c, 0, 74, 69
1, 75002, Note_on_c, 0, 73, 66
1, 75002, Note_on_c, 0, 74, 0
1, 75031, Note_on_c, 0, 61, 50
1, 75036, Note_on_c, 0, 67, 54
1, 75039, Note_on_c, 0, 57, 41
1, 75039, Note_on_c, 0, 64, 46
1, 75076, Note_on_c, 0, 73, 0
1, 75139, Note_on_c, 0, 74, 72
1, 75159, Note_on_c, 0, 64, 0
1, 75159, Note_on_c, 0, 67, 0
1, 75162, Note_on_c, 0, 61, 0
1, 75167, Note_on_c, 0, 57, 0
1, 75195, Note_on_c, 0, 74, 0
1, 75243, Note_on_c, 0, 76, 78
1, 75290, Note_on_c, 0, 76, 0
1, 75351, Note_on_c, 0, 79, 78
1, 75372, Note_on_c, 0, 62, 53
1, 75376, Note_on_c, 0, 65, 50
1, 75378, Note_on_c, 0, 77, 72
1, 75380, Note_on_c, 0, 69, 44
1, 75406, Note_on_c, 0, 79, 0
1, 75444, Note_on_c, 0, 77, 0
1, 75473, Note_on_c, 0, 65, 0
1, 75474, Note_on_c, 0, 62, 0
1, 75495, Note_on_c, 0, 76, 87
1, 75501, Note_on_c, 0, 69, 0
1, 75550, Note_on_c, 0, 76, 0
1, 75608, Note_on_c, 0, 77, 90
1, 75660, Note_on_c, 0, 77, 0
1, 75725, Note_on_c, 0, 76, 87
1, 75727, Note_on_c, 0, 67, 53
1, 75729, Note_on_c, 0, 69, 55
1, 75739, Note_on_c, 0, 64, 55
1, 75749, Note_on_c, 0, 61, 51
1, 75780, Note_on_c, 0, 76, 0
1, 75809, Note_on_c, 0, 67, 0
1, 75818, Note_on_c, 0, 69, 0
1, 75843, Note_on_c, 0, 77, 84
1, 75889, Note_on_c, 0, 77, 0
1, 75942, Note_on_c, 0, 76, 83
1, 75984, Note_on_c, 0, 76, 0
1, 76017, Note_on_c, 0, 64, 0
1, 76042, Note_on_c, 0, 79, 83
1, 76053, Note_on_c, 0, 61, 0
1, 76057, Note_on_c, 0, 65, 53
1, 76065, Note_on_c, 0, 69, 53
1, 76073, Note_on_c, 0, 62, 57
1, 76095, Note_on_c, 0, 79, 0
1, 76098, Note_on_c, 0, 65, 0
1, 76099, Note_on_c, 0, 77, 75
1, 76119, Note_on_c, 0, 69, 0
1, 76154, Note_on_c, 0, 79, 71
1, 76155, Note_on_c, 0, 77, 0
1, 76212, Note_on_c, 0, 77, 73
1, 76224, Note_on_c, 0, 79, 0
1, 76278, Note_on_c, 0, 77, 0
1, 76281, Note_on_c, 0, 76, 74
1, 76330, Note_on_c, 0, 76, 0
1, 76349, Note_on_c, 0, 77, 74
1, 76362, Note_on_c, 0, 62, 0
1, 76406, Note_on_c, 0, 77, 0
1, 76409, Note_on_c, 0, 64, 54
1, 76409, Note_on_c, 0, 69, 53
1, 76409, Note_on_c, 0, 76, 80
1, 76416, Note_on_c, 0, 67, 42
1, 76419, Note_on_c, 0, 61, 49
1, 76462, Note_on_c, 0, 76, 0
1, 76467, Note_on_c, 0, 67, 0
1, 76485, Note_on_c, 0, 69, 0
1, 76549, Note_on_c, 0, 74, 76
1, 76599, Note_on_c, 0, 74, 0
1, 76640, Note_on_c, 0, 64, 0
1, 76651, Note_on_c, 0, 76, 75
1, 76706, Note_on_c, 0, 76, 0
1, 76776, Note_on_c, 0, 69, 55
1, 76776, Note_on_c, 0, 77, 76
1, 76780, Note_on_c, 0, 62, 52
1, 76790, Note_on_c, 0, 65, 49
1, 76834, Note_on_c, 0, 61, 0
1, 76835, Note_on_c, 0, 77, 0
1, 76849, Note_on_c, 0, 69, 0
1, 76861, Note_on_c, 0, 62, 0
1, 76865, Note_on_c, 0, 65, 0
1, 76896, Note_on_c, 0, 76, 73
1, 76939, Note_on_c, 0, 76, 0
1, 77011, Note_on_c, 0, 77, 74
1, 77050, Note_on_c, 0, 77, 0
1, 77130, Note_on_c, 0, 79, 76
1, 77148, Note_on_c, 0, 58, 53
1, 77149, Note_on_c, 0, 62, 49
1, 77152, Note_on_c, 0, 67, 50
1, 77180, Note_on_c, 0, 79, 0
1, 77195, Note_on_c, 0, 62, 0
1, 77204, Note_on_c, 0, 67, 0
1, 77222, Note_on_c, 0, 58, 0
1, 77262, Note_on_c, 0, 77, 72
1, 77303, Note_on_c, 0, 77, 0
1, 77376, Note_on_c, 0, 76, 69
1, 77405, Note_on_c, 0, 76, 0
1, 77510, Note_on_c, 0, 67, 53
1, 77510, Note_on_c, 0, 74, 71
1, 77515, Note_on_c, 0, 62, 50
1, 77524, Note_on_c, 0, 58, 45
1, 77525, Note_on_c, 0, 55, 38
1, 77548, Note_on_c, 0, 74, 0
1, 77557, Note_on_c, 0, 62, 0
1, 77560, Note_on_c, 0, 67, 0
1, 77562, Note_on_c, 0, 55, 0
1, 77565, Note_on_c, 0, 58, 0
1, 77617, Note_on_c, 0, 73, 62
1, 77657, Note_on_c, 0, 73, 0
1, 77732, Note_on_c, 0, 74, 67
1, 77775, Note_on_c, 0, 74, 0
1, 77871, Note_on_c, 0, 57, 61
1, 77871, Note_on_c, 0, 73, 65
1, 77902, Control_c, 0, 64, 60
1, 77905, Note_on_c, 0, 57, 0
1, 77917, Control_c, 0, 64, 65
1, 77932, Control_c, 0, 64, 70
1, 77947, Control_c, 0, 64, 96
1, 77953, Note_on_c, 0, 73, 0
1, 77962, Control_c, 0, 64, 127
1, 77992, Note_on_c, 0, 69, 59
1, 78105, Note_on_c, 0, 76, 65
1, 78141, Note_on_c, 0, 69, 0
1, 78236, Control_c, 0, 64, 113
1, 78250, Note_on_c, 0, 73, 70
1, 78250, Note_on_c, 0, 81, 91
1, 78251, Control_c, 0, 64, 80
1, 78267, Control_c, 0, 64, 59
1, 78270, Note_on_c, 0, 76, 0
1, 78281, Control_c, 0, 64, 0
1, 78298, Note_on_c, 0, 81, 0
1, 78336, Note_on_c, 0, 73, 0
1, 78378, Note_on_c, 0, 69, 55
1, 78480, Note_on_c, 0, 76, 61
1, 78520, Note_on_c, 0, 76, 0
1, 78522, Note_on_c, 0, 69, 0
1, 78638, Control_c, 0, 64, 42
1, 78641, Note_on_c, 0, 78, 76
1, 78641, Note_on_c, 0, 86, 91
1, 78653, Control_c, 0, 64, 64
1, 78669, Control_c, 0, 64, 69
1, 78669, Note_on_c, 0, 86, 0
1, 78684, Control_c, 0, 64, 87
1, 78700, Control_c, 0, 64, 127
1, 78763, Note_on_c, 0, 74, 68
1, 78764, Note_on_c, 0, 78, 0
1, 78872, Note_on_c, 0, 69, 62
1, 78898, Note_on_c, 0, 74, 0
1, 79010, Note_on_c, 0, 79, 81
1, 79019, Control_c, 0, 64, 87
1, 79023, Note_on_c, 0, 45, 83
1, 79027, Note_on_c, 0, 69, 0
1, 79034, Control_c, 0, 64, 63
1, 79048, Control_c, 0, 64, 0
1, 79053, Note_on_c, 0, 45, 0
1, 79141, Note_on_c, 0, 76, 63
1, 79152, Note_on_c, 0, 79, 0
1, 79252, Note_on_c, 0, 69, 59
1, 79252, Note_on_c, 0, 76, 0
1, 79403, Note_on_c, 0, 78, 61
1, 79416, Note_on_c, 0, 69, 0
1, 79428, Note_on_c, 0, 38, 75
1, 79452, Control_c, 0, 64, 56
1, 79459, Note_on_c, 0, 38, 0
1, 79468, Control_c, 0, 64, 65
1, 79482, Control_c, 0, 64, 74
1, 79498, Control_c, 0, 64, 111
1, 79513, Control_c, 0, 64, 127
1, 79516, Note_on_c, 0, 74, 68
1, 79518, Note_on_c, 0, 78, 0
1, 79613, Note_on_c, 0, 74, 0
1, 79634, Note_on_c, 0, 69, 62
1, 79787, Control_c, 0, 64, 69
1, 79788, Note_on_c, 0, 81, 104
1, 79792, Note_on_c, 0, 76, 70
1, 79802, Control_c, 0, 64, 0
1, 79809, Note_on_c, 0, 69, 0
1, 79824, Note_on_c, 0, 81, 0
1, 79832, Control_c, 0, 67, 125
1, 79847, Control_c, 0, 67, 122
1, 79863, Control_c, 0, 67, 122
1, 79900, Note_on_c, 0, 73, 73
1, 79901, Note_on_c, 0, 76, 0
1, 79954, Control_c, 0, 67, 122
1, 79999, Note_on_c, 0, 73, 0
1, 80012, Note_on_c, 0, 69, 64
1, 80052, Control_c, 0, 67, 122
1, 80128, Control_c, 0, 67, 122
1, 80160, Control_c, 0, 67, 122
1, 80163, Note_on_c, 0, 78, 79
1, 80171, Note_on_c, 0, 86, 96
1, 80176, Control_c, 0, 64, 58
1, 80191, Control_c, 0, 64, 68
1, 80191, Control_c, 0, 67, 121
1, 80192, Note_on_c, 0, 69, 0
1, 80194, Note_on_c, 0, 86, 0
1, 80205, Control_c, 0, 64, 84
1, 80205, Control_c, 0, 67, 121
1, 80221, Control_c, 0, 64, 127
1, 80221, Control_c, 0, 67, 120
1, 80251, Control_c, 0, 67, 119
1, 80281, Control_c, 0, 67, 119
1, 80289, Note_on_c, 0, 74, 74
1, 80297, Control_c, 0, 67, 118
1, 80312, Control_c, 0, 67, 118
1, 80322, Note_on_c, 0, 78, 0
1, 80327, Control_c, 0, 67, 117
1, 80342, Control_c, 0, 67, 116
1, 80357, Control_c, 0, 67, 116
1, 80421, Note_on_c, 0, 69, 62
1, 80426, Note_on_c, 0, 74, 0
1, 80448, Control_c, 0, 67, 115
1, 80478, Control_c, 0, 67, 115
1, 80493, Control_c, 0, 67, 114
1, 80524, Control_c, 0, 64, 98
1, 80540, Control_c, 0, 64, 65
1, 80545, Note_on_c, 0, 79, 82
1, 80548, Note_on_c, 0, 45, 81
1, 80555, Control_c, 0, 64, 0
1, 80568, Note_on_c, 0, 69, 0
1, 80574, Note_on_c, 0, 45, 0
1, 80659, Note_on_c, 0, 76, 65
1, 80690, Control_c, 0, 67, 115
1, 80699, Note_on_c, 0, 79, 0
1, 80706, Control_c, 0, 67, 115
1, 80760, Note_on_c, 0, 76, 0
1, 80780, Note_on_c, 0, 69, 56
1, 80880, Control_c, 0, 67, 115
1, 80911, Control_c, 0, 67, 114
1, 80922, Note_on_c, 0, 69, 0
1, 80926, Control_c, 0, 67, 114
1, 80928, Note_on_c, 0, 78, 78
1, 80930, Note_on_c, 0, 38, 67
1, 80942, Control_c, 0, 67, 113
1, 80956, Control_c, 0, 64, 65
1, 80956, Control_c, 0, 67, 112
1, 80964, Note_on_c, 0, 38, 0
1, 80972, Control_c, 0, 64, 78
1, 80972, Control_c, 0, 67, 111
1, 80988, Control_c, 0, 64, 127
1, 80988, Control_c, 0, 67, 110
1, 81003, Control_c, 0, 67, 110
1, 81034, Control_c, 0, 67, 109
1, 81039, Note_on_c, 0, 78, 0
1, 81044, Note_on_c, 0, 74, 69
1, 81129, Note_on_c, 0, 74, 0
1, 81159, Note_on_c, 0, 69, 54
1, 81187, Note_on_c, 0, 69, 0
1, 81231, Control_c, 0, 67, 109
1, 81261, Control_c, 0, 67, 108
1, 81291, Control_c, 0, 67, 109
1, 81304, Note_on_c, 0, 81, 94
1, 81307, Control_c, 0, 64, 72
1, 81307, Control_c, 0, 67, 109
1, 81311, Note_on_c, 0, 61, 55
1, 81322, Control_c, 0, 64, 0
1, 81322, Control_c, 0, 67, 110
1, 81343, Note_on_c, 0, 81, 0
1, 81398, Control_c, 0, 67, 110
1, 81413, Control_c, 0, 67, 111
1, 81429, Control_c, 0, 67, 111
1, 81429, Note_on_c, 0, 64, 61
1, 81444, Control_c, 0, 67, 112
1, 81445, Note_on_c, 0, 61, 0
1, 81459, Control_c, 0, 67, 112
1, 81474, Control_c, 0, 67, 113
1, 81515, Note_on_c, 0, 64, 0
1, 81526, Note_on_c, 0, 69, 57
1, 81680, Note_on_c, 0, 69, 0
1, 81685, Note_on_c, 0, 86, 92
1, 81696, Note_on_c, 0, 62, 57
1, 81716, Note_on_c, 0, 86, 0
1, 81770, Control_c, 0, 67, 114
1, 81787, Control_c, 0, 67, 115
1, 81802, Control_c, 0, 67, 116
1, 81817, Control_c, 0, 67, 117
1, 81824, Note_on_c, 0, 66, 60
1, 81832, Control_c, 0, 67, 118
1, 81833, Note_on_c, 0, 62, 0
1, 81847, Control_c, 0, 67, 118
1, 81863, Control_c, 0, 67, 119
1, 81878, Control_c, 0, 67, 119
1, 81892, Control_c, 0, 67, 120
1, 81908, Control_c, 0, 67, 121
1, 81923, Control_c, 0, 67, 121
1, 81924, Note_on_c, 0, 66, 0
1, 81941, Note_on_c, 0, 69, 44
1, 81953, Control_c, 0, 67, 122
1, 82056, Note_on_c, 0, 57, 49
1, 82059, Note_on_c, 0, 45, 82
1, 82060, Control_c, 0, 67, 122
1, 82072, Note_on_c, 0, 69, 0
1, 82075, Control_c, 0, 67, 123
1, 82090, Control_c, 0, 67, 124
1, 82105, Control_c, 0, 67, 126
1, 82107, Note_on_c, 0, 45, 0
1, 82120, Control_c, 0, 67, 127
1, 82155, Note_on_c, 0, 57, 0
1, 82193, Note_on_c, 0, 64, 54
1, 82289, Note_on_c, 0, 64, 0
1, 82307, Note_on_c, 0, 69, 45
1, 82438, Note_on_c, 0, 38, 81
1, 82450, Note_on_c, 0, 69, 0
1, 82462, Note_on_c, 0, 62, 58
1, 82470, Note_on_c, 0, 38, 0
1, 82561, Note_on_c, 0, 62, 0
1, 82591, Note_on_c, 0, 66, 53
1, 82675, Note_on_c, 0, 66, 0
1, 82710, Note_on_c, 0, 69, 48
1, 82722, Control_c, 0, 67, 127
1, 82753, Control_c, 0, 67, 126
1, 82820, Note_on_c, 0, 81, 84
1, 82833, Note_on_c, 0, 69, 0
1, 82843, Note_on_c, 0, 61, 54
1, 82844, Control_c, 0, 67, 127
1, 82867, Note_on_c, 0, 81, 0
1, 82966, Note_on_c, 0, 64, 55
1, 83001, Note_on_c, 0, 61, 0
1, 83049, Note_on_c, 0, 64, 0
1, 83066, Note_on_c, 0, 69, 51
1, 83213, Note_on_c, 0, 86, 84
1, 83232, Note_on_c, 0, 69, 0
1, 83236, Note_on_c, 0, 62, 53
1, 83245, Note_on_c, 0, 86, 0
1, 83264, Control_c, 0, 67, 127
1, 83345, Note_on_c, 0, 62, 0
1, 83351, Note_on_c, 0, 66, 52
1, 83459, Note_on_c, 0, 69, 48
1, 83468, Note_on_c, 0, 66, 0
1, 83585, Note_on_c, 0, 45, 71
1, 83587, Note_on_c, 0, 57, 52
1, 83593, Note_on_c, 0, 69, 0
1, 83642, Note_on_c, 0, 45, 0
1, 83696, Note_on_c, 0, 57, 0
1, 83720, Note_on_c, 0, 64, 54
1, 83824, Note_on_c, 0, 64, 0
1, 83829, Note_on_c, 0, 69, 49
1, 83869, Note_on_c, 0, 69, 0
1, 84043, Note_on_c, 0, 38, 56
1, 84054, Note_on_c, 0, 62, 53
1, 84062, Control_c, 0, 64, 56
1, 84076, Note_on_c, 0, 38, 0
1, 84077, Control_c, 0, 64, 64
1, 84092, Note_on_c, 0, 62, 0
1, 84093, Control_c, 0, 64, 69
1, 84108, Control_c, 0, 64, 82
1, 84122, Control_c, 0, 64, 127
1, 84419, Note_on_c, 0, 50, 49
1, 84420, Note_on_c, 0, 66, 71
1, 84428, Control_c, 0, 64, 83
1, 84443, Control_c, 0, 64, 56
1, 84458, Control_c, 0, 64, 0
1, 84461, Note_on_c, 0, 50, 0
1, 84480, Note_on_c, 0, 66, 0
1, 84495, Note_on_c, 0, 67, 60
1, 84542, Note_on_c, 0, 66, 64
1, 84562, Note_on_c, 0, 59, 54
1, 84562, Note_on_c, 0, 67, 0
1, 84593, Note_on_c, 0, 59, 0
1, 84599, Note_on_c, 0, 66, 0
1, 84605, Note_on_c, 0, 64, 65
1, 84673, Note_on_c, 0, 66, 55
1, 84674, Note_on_c, 0, 64, 0
1, 84721, Note_on_c, 0, 52, 52
1, 84735, Note_on_c, 0, 67, 73
1, 84755, Note_on_c, 0, 52, 0
1, 84755, Note_on_c, 0, 66, 0
1, 84790, Note_on_c, 0, 67, 0
1, 84810, Note_on_c, 0, 69, 61
1, 84864, Note_on_c, 0, 67, 63
1, 84881, Note_on_c, 0, 69, 0
1, 84896, Note_on_c, 0, 61, 53
1, 84927, Note_on_c, 0, 67, 0
1, 84929, Note_on_c, 0, 61, 0
1, 84933, Note_on_c, 0, 66, 73
1, 84985, Note_on_c, 0, 66, 0
1, 84999, Note_on_c, 0, 67, 59
1, 85046, Note_on_c, 0, 54, 53
1, 85052, Note_on_c, 0, 69, 72
1, 85059, Note_on_c, 0, 67, 0
1, 85084, Note_on_c, 0, 54, 0
1, 85106, Note_on_c, 0, 69, 0
1, 85115, Note_on_c, 0, 71, 65
1, 85180, Note_on_c, 0, 69, 67
1, 85189, Note_on_c, 0, 71, 0
1, 85214, Note_on_c, 0, 62, 63
1, 85225, Note_on_c, 0, 69, 0
1, 85241, Control_c, 0, 67, 127
1, 85244, Note_on_c, 0, 62, 0
1, 85247, Note_on_c, 0, 67, 71
1, 85256, Control_c, 0, 67, 126
1, 85271, Control_c, 0, 67, 126
1, 85286, Control_c, 0, 67, 125
1, 85302, Control_c, 0, 67, 125
1, 85311, Note_on_c, 0, 69, 62
1, 85312, Note_on_c, 0, 67, 0
1, 85317, Control_c, 0, 67, 124
1, 85332, Control_c, 0, 67, 123
1, 85347, Control_c, 0, 67, 122
1, 85362, Control_c, 0, 67, 122
1, 85364, Note_on_c, 0, 55, 54
1, 85367, Note_on_c, 0, 71, 71
1, 85377, Control_c, 0, 67, 121
1, 85392, Control_c, 0, 67, 120
1, 85397, Note_on_c, 0, 55, 0
1, 85397, Note_on_c, 0, 69, 0
1, 85407, Control_c, 0, 67, 119
1, 85430, Control_c, 0, 67, 117
1, 85434, Note_on_c, 0, 71, 0
1, 85434, Note_on_c, 0, 73, 69
1, 85445, Control_c, 0, 67, 116
1, 85461, Control_c, 0, 67, 115
1, 85476, Control_c, 0, 67, 114
1, 85507, Control_c, 0, 67, 113
1, 85508, Note_on_c, 0, 71, 70
1, 85522, Control_c, 0, 67, 113
1, 85527, Note_on_c, 0, 73, 0
1, 85539, Note_on_c, 0, 64, 58
1, 85562, Note_on_c, 0, 71, 0
1, 85570, Note_on_c, 0, 64, 0
1, 85580, Note_on_c, 0, 69, 68
1, 85582, Control_c, 0, 67, 112
1, 85597, Control_c, 0, 67, 112
1, 85613, Control_c, 0, 67, 111
1, 85628, Control_c, 0, 67, 111
1, 85629, Note_on_c, 0, 71, 56
1, 85641, Note_on_c, 0, 69, 0
1, 85690, Note_on_c, 0, 73, 75
1, 85699, Note_on_c, 0, 57, 58
1, 85704, Control_c, 0, 67, 110
1, 85727, Note_on_c, 0, 71, 0
1, 85734, Note_on_c, 0, 57, 0
1, 85735, Control_c, 0, 67, 110
1, 85757, Note_on_c, 0, 74, 70
1, 85761, Note_on_c, 0, 73, 0
1, 85780, Control_c, 0, 67, 109
1, 85814, Note_on_c, 0, 73, 65
1, 85830, Note_on_c, 0, 74, 0
1, 85849, Note_on_c, 0, 66, 68
1, 85879, Note_on_c, 0, 66, 0
1, 85883, Note_on_c, 0, 73, 0
1, 85890, Note_on_c, 0, 71, 66
1, 85917, Control_c, 0, 67, 109
1, 85938, Note_on_c, 0, 73, 65
1, 85955, Note_on_c, 0, 71, 0
1, 85994, Control_c, 0, 67, 108
1, 86004, Note_on_c, 0, 74, 80
1, 86009, Note_on_c, 0, 59, 57
1, 86022, Note_on_c, 0, 73, 0
1, 86024, Control_c, 0, 67, 108
1, 86042, Note_on_c, 0, 59, 0
1, 86055, Control_c, 0, 67, 107
1, 86055, Note_on_c, 0, 74, 0
1, 86063, Note_on_c, 0, 76, 66
1, 86070, Control_c, 0, 67, 107
1, 86085, Control_c, 0, 67, 106
1, 86115, Control_c, 0, 67, 106
1, 86117, Note_on_c, 0, 74, 74
1, 86131, Note_on_c, 0, 76, 0
1, 86146, Control_c, 0, 67, 105
1, 86161, Control_c, 0, 67, 104
1, 86171, Note_on_c, 0, 67, 58
1, 86177, Note_on_c, 0, 74, 0
1, 86183, Note_on_c, 0, 73, 74
1, 86199, Control_c, 0, 67, 103
1, 86207, Note_on_c, 0, 67, 0
1, 86215, Control_c, 0, 67, 102
1, 86229, Control_c, 0, 67, 101
1, 86244, Control_c, 0, 67, 99
1, 86245, Note_on_c, 0, 73, 0
1, 86259, Note_on_c, 0, 74, 76
1, 86260, Control_c, 0, 67, 98
1, 86275, Control_c, 0, 67, 96
1, 86291, Control_c, 0, 67, 95
1, 86305, Control_c, 0, 67, 94
1, 86320, Control_c, 0, 67, 92
1, 86325, Note_on_c, 0, 76, 80
1, 86327, Note_on_c, 0, 61, 67
1, 86333, Note_on_c, 0, 74, 0
1, 86336, Control_c, 0, 67, 90
1, 86351, Control_c, 0, 67, 86
1, 86366, Control_c, 0, 67, 82
1, 86378, Note_on_c, 0, 61, 0
1, 86381, Control_c, 0, 67, 78
1, 86383, Note_on_c, 0, 76, 0
1, 86387, Note_on_c, 0, 78, 80
1, 86396, Control_c, 0, 67, 75
1, 86412, Control_c, 0, 67, 74
1, 86427, Control_c, 0, 67, 73
1, 86442, Control_c, 0, 67, 71
1, 86451, Note_on_c, 0, 76, 80
1, 86458, Control_c, 0, 67, 69
1, 86473, Control_c, 0, 67, 67
1, 86474, Note_on_c, 0, 78, 0
1, 86485, Note_on_c, 0, 69, 68
1, 86489, Control_c, 0, 67, 66
1, 86503, Control_c, 0, 67, 64
1, 86508, Note_on_c, 0, 76, 0
1, 86514, Note_on_c, 0, 69, 0
1, 86518, Control_c, 0, 67, 61
1, 86522, Note_on_c, 0, 74, 81
1, 86534, Control_c, 0, 67, 58
1, 86548, Control_c, 0, 67, 56
1, 86563, Control_c, 0, 67, 53
1, 86573, Note_on_c, 0, 76, 74
1, 86579, Control_c, 0, 67, 52
1, 86583, Note_on_c, 0, 74, 0
1, 86594, Control_c, 0, 67, 51
1, 86610, Control_c, 0, 67, 47
1, 86624, Control_c, 0, 67, 44
1, 86632, Note_on_c, 0, 62, 66
1, 86638, Note_on_c, 0, 78, 85
1, 86639, Control_c, 0, 67, 41
1, 86655, Control_c, 0, 67, 39
1, 86670, Control_c, 0, 67, 38
1, 86672, Note_on_c, 0, 62, 0
1, 86672, Note_on_c, 0, 76, 0
1, 86685, Control_c, 0, 67, 36
1, 86697, Note_on_c, 0, 79, 77
1, 86701, Control_c, 0, 67, 34
1, 86701, Note_on_c, 0, 78, 0
1, 86717, Control_c, 0, 67, 31
1, 86732, Control_c, 0, 67, 29
1, 86747, Control_c, 0, 67, 28
1, 86759, Note_on_c, 0, 78, 78
1, 86762, Control_c, 0, 67, 26
1, 86778, Control_c, 0, 67, 23
1, 86782, Note_on_c, 0, 79, 0
1, 86789, Note_on_c, 0, 71, 76
1, 86793, Control_c, 0, 67, 19
1, 86807, Control_c, 0, 67, 15
1, 86822, Note_on_c, 0, 76, 82
1, 86822, Note_on_c, 0, 78, 0
1, 86823, Control_c, 0, 67, 10
1, 86825, Note_on_c, 0, 71, 0
1, 86838, Control_c, 0, 67, 0
1, 86883, Note_on_c, 0, 78, 80
1, 86899, Note_on_c, 0, 76, 0
1, 86941, Note_on_c, 0, 64, 73
1, 86942, Note_on_c, 0, 79, 88
1, 86974, Note_on_c, 0, 78, 0
1, 86986, Note_on_c, 0, 64, 0
1, 87004, Note_on_c, 0, 79, 0
1, 87005, Note_on_c, 0, 81, 77
1, 87062, Note_on_c, 0, 79, 82
1, 87082, Note_on_c, 0, 81, 0
1, 87093, Note_on_c, 0, 73, 80
1, 87121, Note_on_c, 0, 78, 83
1, 87122, Note_on_c, 0, 79, 0
1, 87139, Note_on_c, 0, 73, 0
1, 87176, Note_on_c, 0, 78, 0
1, 87179, Note_on_c, 0, 79, 83
1, 87239, Note_on_c, 0, 81, 91
1, 87243, Note_on_c, 0, 66, 82
1, 87246, Note_on_c, 0, 79, 0
1, 87299, Note_on_c, 0, 66, 0
1, 87302, Note_on_c, 0, 81, 0
1, 87303, Note_on_c, 0, 83, 84
1, 87360, Note_on_c, 0, 81, 86
1, 87382, Note_on_c, 0, 83, 0
1, 87391, Note_on_c, 0, 74, 90
1, 87415, Note_on_c, 0, 81, 0
1, 87420, Note_on_c, 0, 79, 86
1, 87440, Note_on_c, 0, 74, 0
1, 87476, Note_on_c, 0, 81, 77
1, 87484, Note_on_c, 0, 79, 0
1, 87534, Note_on_c, 0, 67, 91
1, 87534, Note_on_c, 0, 83, 96
1, 87558, Note_on_c, 0, 81, 0
1, 87578, Note_on_c, 0, 67, 0
1, 87578, Note_on_c, 0, 83, 0
1, 87736, Note_on_c, 0, 69, 83
1, 87736, Note_on_c, 0, 85, 91
1, 87784, Note_on_c, 0, 69, 0
1, 87816, Note_on_c, 0, 85, 0
1, 87915, Note_on_c, 0, 86, 85
1, 87919, Note_on_c, 0, 71, 80
1, 87963, Note_on_c, 0, 71, 0
1, 87992, Note_on_c, 0, 85, 84
1, 88026, Note_on_c, 0, 86, 0
1, 88071, Note_on_c, 0, 83, 86
1, 88105, Note_on_c, 0, 85, 0
1, 88151, Note_on_c, 0, 81, 86
1, 88185, Note_on_c, 0, 83, 0
1, 88210, Note_on_c, 0, 67, 82
1, 88223, Note_on_c, 0, 79, 86
1, 88226, Note_on_c, 0, 81, 0
1, 88255, Note_on_c, 0, 67, 0
1, 88301, Note_on_c, 0, 78, 90
1, 88308, Note_on_c, 0, 79, 0
1, 88375, Note_on_c, 0, 76, 86
1, 88393, Note_on_c, 0, 78, 0
1, 88443, Note_on_c, 0, 76, 0
1, 88454, Note_on_c, 0, 74, 86
1, 88541, Note_on_c, 0, 76, 87
1, 88557, Note_on_c, 0, 69, 73
1, 88571, Note_on_c, 0, 74, 0
1, 88626, Note_on_c, 0, 69, 0
1, 88633, Note_on_c, 0, 81, 81
1, 88643, Note_on_c, 0, 76, 0
1, 88671, Note_on_c, 0, 79, 26
1, 88672, Note_on_c, 0, 79, 0
1, 88702, Note_on_c, 0, 79, 45
1, 88720, Note_on_c, 0, 81, 0
1, 88790, Note_on_c, 0, 78, 83
1, 88824, Note_on_c, 0, 79, 0
1, 88873, Note_on_c, 0, 76, 84
1, 88879, Note_on_c, 0, 57, 63
1, 88915, Note_on_c, 0, 78, 0
1, 88948, Note_on_c, 0, 76, 0
1, 88954, Note_on_c, 0, 74, 82
1, 88958, Control_c, 0, 64, 29
1, 88974, Control_c, 0, 64, 54
1, 88989, Control_c, 0, 64, 62
1, 88995, Note_on_c, 0, 57, 0
1, 89004, Control_c, 0, 64, 65
1, 89020, Control_c, 0, 64, 67
1, 89030, Note_on_c, 0, 73, 80
1, 89035, Control_c, 0, 64, 71
1, 89044, Note_on_c, 0, 74, 0
1, 89051, Control_c, 0, 64, 82
1, 89066, Control_c, 0, 64, 127
1, 89124, Note_on_c, 0, 71, 82
1, 89161, Note_on_c, 0, 73, 0
1, 89292, Note_on_c, 0, 69, 75
1, 89314, Note_on_c, 0, 71, 0
1, 89393, Control_c, 0, 64, 88
1, 89409, Control_c, 0, 64, 61
1, 89423, Control_c, 0, 64, 0
1, 89426, Note_on_c, 0, 71, 70
1, 89429, Note_on_c, 0, 69, 0
1, 89484, Control_c, 0, 64, 53
1, 89493, Note_on_c, 0, 71, 0
1, 89496, Note_on_c, 0, 69, 69
1, 89500, Control_c, 0, 64, 63
1, 89515, Control_c, 0, 64, 65
1, 89530, Control_c, 0, 64, 70
1, 89540, Note_on_c, 0, 71, 63
1, 89545, Control_c, 0, 64, 76
1, 89546, Note_on_c, 0, 69, 0
1, 89560, Control_c, 0, 64, 83
1, 89576, Control_c, 0, 64, 86
1, 89591, Control_c, 0, 64, 88
1, 89598, Note_on_c, 0, 69, 64
1, 89603, Note_on_c, 0, 71, 0
1, 89605, Control_c, 0, 64, 90
1, 89621, Control_c, 0, 64, 91
1, 89621, Control_c, 0, 67, 13
1, 89636, Control_c, 0, 64, 93
1, 89636, Control_c, 0, 67, 20
1, 89651, Control_c, 0, 64, 97
1, 89651, Control_c, 0, 67, 26
1, 89651, Note_on_c, 0, 71, 67
1, 89658, Note_on_c, 0, 69, 0
1, 89665, Note_on_c, 0, 54, 65
1, 89666, Control_c, 0, 64, 101
1, 89666, Control_c, 0, 67, 34
1, 89681, Control_c, 0, 64, 108
1, 89681, Control_c, 0, 67, 42
1, 89697, Control_c, 0, 64, 127
1, 89697, Control_c, 0, 67, 53
1, 89709, Note_on_c, 0, 69, 63
1, 89712, Control_c, 0, 67, 65
1, 89716, Note_on_c, 0, 71, 0
1, 89726, Control_c, 0, 67, 75
1, 89742, Control_c, 0, 67, 84
1, 89757, Control_c, 0, 67, 92
1, 89759, Note_on_c, 0, 71, 65
1, 89765, Note_on_c, 0, 69, 0
1, 89773, Control_c, 0, 67, 101
1, 89788, Control_c, 0, 67, 111
1, 89802, Control_c, 0, 67, 120
1, 89812, Note_on_c, 0, 62, 71
1, 89816, Note_on_c, 0, 69, 70
1, 89818, Control_c, 0, 67, 127
1, 89832, Note_on_c, 0, 71, 0
1, 89862, Note_on_c, 0, 62, 0
1, 89870, Note_on_c, 0, 69, 0
1, 89875, Note_on_c, 0, 54, 0
1, 89879, Note_on_c, 0, 67, 76
1, 89934, Note_on_c, 0, 69, 79
1, 89961, Note_on_c, 0, 67, 0
1, 90037, Note_on_c, 0, 55, 80
1, 90153, Note_on_c, 0, 71, 68
1, 90161, Control_c, 0, 64, 85
1, 90176, Control_c, 0, 64, 61
1, 90188, Note_on_c, 0, 69, 0
1, 90191, Control_c, 0, 64, 0
1, 90213, Note_on_c, 0, 71, 0
1, 90220, Note_on_c, 0, 73, 71
1, 90267, Control_c, 0, 64, 53
1, 90280, Note_on_c, 0, 64, 61
1, 90282, Control_c, 0, 64, 63
1, 90293, Note_on_c, 0, 71, 70
1, 90298, Control_c, 0, 64, 66
1, 90305, Note_on_c, 0, 73, 0
1, 90313, Control_c, 0, 64, 70
1, 90329, Control_c, 0, 64, 77
1, 90334, Note_on_c, 0, 55, 0
1, 90337, Note_on_c, 0, 64, 0
1, 90343, Note_on_c, 0, 71, 0
1, 90344, Control_c, 0, 64, 85
1, 90358, Note_on_c, 0, 69, 75
1, 90359, Control_c, 0, 64, 91
1, 90374, Control_c, 0, 64, 99
1, 90389, Control_c, 0, 64, 111
1, 90393, Note_on_c, 0, 71, 67
1, 90404, Control_c, 0, 64, 127
1, 90423, Note_on_c, 0, 69, 0
1, 90455, Note_on_c, 0, 57, 89
1, 90472, Note_on_c, 0, 73, 80
1, 90510, Note_on_c, 0, 71, 0
1, 90540, Note_on_c, 0, 74, 75
1, 90541, Control_c, 0, 64, 67
1, 90548, Note_on_c, 0, 73, 0
1, 90556, Control_c, 0, 64, 0
1, 90603, Note_on_c, 0, 73, 71
1, 90632, Control_c, 0, 64, 60
1, 90633, Note_on_c, 0, 74, 0
1, 90635, Note_on_c, 0, 66, 71
1, 90646, Control_c, 0, 64, 65
1, 90662, Control_c, 0, 64, 72
1, 90675, Note_on_c, 0, 73, 0
1, 90677, Control_c, 0, 64, 90
1, 90677, Note_on_c, 0, 71, 76
1, 90690, Note_on_c, 0, 57, 0
1, 90693, Control_c, 0, 64, 127
1, 90696, Note_on_c, 0, 66, 0
1, 90723, Note_on_c, 0, 73, 73
1, 90754, Note_on_c, 0, 71, 0
1, 90804, Note_on_c, 0, 74, 81
1, 90809, Note_on_c, 0, 59, 87
1, 90832, Note_on_c, 0, 73, 0
1, 90869, Control_c, 0, 64, 80
1, 90872, Note_on_c, 0, 74, 0
1, 90872, Note_on_c, 0, 76, 77
1, 90883, Control_c, 0, 64, 31
1, 90899, Control_c, 0, 64, 0
1, 90941, Note_on_c, 0, 74, 72
1, 90958, Note_on_c, 0, 76, 0
1, 90971, Note_on_c, 0, 67, 72
1, 90975, Control_c, 0, 64, 54
1, 90990, Control_c, 0, 64, 63
1, 90994, Note_on_c, 0, 59, 0
1, 91003, Note_on_c, 0, 73, 75
1, 91004, Control_c, 0, 64, 67
1, 91004, Note_on_c, 0, 74, 0
1, 91020, Control_c, 0, 64, 71
1, 91025, Note_on_c, 0, 67, 0
1, 91035, Control_c, 0, 64, 79
1, 91051, Control_c, 0, 64, 86
1, 91066, Control_c, 0, 64, 90
1, 91068, Note_on_c, 0, 73, 0
1, 91074, Note_on_c, 0, 74, 73
1, 91081, Control_c, 0, 64, 93
1, 91096, Control_c, 0, 64, 94
1, 91111, Control_c, 0, 64, 94
1, 91151, Note_on_c, 0, 61, 73
1, 91154, Note_on_c, 0, 76, 76
1, 91161, Note_on_c, 0, 74, 0
1, 91187, Control_c, 0, 64, 92
1, 91202, Control_c, 0, 64, 82
1, 91217, Note_on_c, 0, 76, 0
1, 91218, Control_c, 0, 64, 64
1, 91227, Note_on_c, 0, 78, 75
1, 91233, Control_c, 0, 64, 0
1, 91309, Control_c, 0, 64, 26
1, 91309, Note_on_c, 0, 76, 71
1, 91310, Note_on_c, 0, 78, 0
1, 91319, Note_on_c, 0, 69, 60
1, 91324, Control_c, 0, 64, 56
1, 91339, Control_c, 0, 64, 63
1, 91345, Note_on_c, 0, 76, 0
1, 91347, Note_on_c, 0, 61, 0
1, 91352, Control_c, 0, 64, 65
1, 91352, Note_on_c, 0, 69, 0
1, 91367, Control_c, 0, 64, 67
1, 91367, Note_on_c, 0, 74, 70
1, 91383, Control_c, 0, 64, 70
1, 91398, Control_c, 0, 64, 74
1, 91414, Control_c, 0, 64, 80
1, 91417, Note_on_c, 0, 74, 0
1, 91418, Note_on_c, 0, 76, 63
1, 91429, Control_c, 0, 64, 87
1, 91444, Control_c, 0, 64, 95
1, 91460, Control_c, 0, 64, 103
1, 91475, Control_c, 0, 64, 105
1, 91491, Note_on_c, 0, 78, 74
1, 91509, Note_on_c, 0, 62, 62
1, 91520, Control_c, 0, 64, 97
1, 91526, Note_on_c, 0, 76, 0
1, 91536, Control_c, 0, 64, 79
1, 91550, Control_c, 0, 64, 63
1, 91570, Note_on_c, 0, 78, 0
1, 91570, Note_on_c, 0, 79, 66
1, 91573, Control_c, 0, 64, 0
1, 91637, Note_on_c, 0, 78, 64
1, 91649, Note_on_c, 0, 79, 0
1, 91650, Control_c, 0, 64, 22
1, 91665, Control_c, 0, 64, 56
1, 91680, Control_c, 0, 64, 63
1, 91687, Note_on_c, 0, 71, 58
1, 91696, Control_c, 0, 64, 65
1, 91698, Note_on_c, 0, 62, 0
1, 91702, Note_on_c, 0, 78, 0
1, 91711, Control_c, 0, 64, 67
1, 91720, Note_on_c, 0, 71, 0
1, 91721, Note_on_c, 0, 76, 64
1, 91725, Control_c, 0, 64, 70
1, 91741, Control_c, 0, 64, 74
1, 91756, Control_c, 0, 64, 78
1, 91766, Note_on_c, 0, 78, 61
1, 91769, Note_on_c, 0, 76, 0
1, 91772, Control_c, 0, 64, 81
1, 91787, Control_c, 0, 64, 86
1, 91802, Control_c, 0, 64, 91
1, 91818, Control_c, 0, 64, 93
1, 91832, Control_c, 0, 64, 93
1, 91837, Note_on_c, 0, 79, 73
1, 91847, Control_c, 0, 64, 81
1, 91852, Note_on_c, 0, 78, 0
1, 91863, Control_c, 0, 64, 65
1, 91869, Note_on_c, 0, 64, 54
1, 91878, Control_c, 0, 64, 0
1, 91890, Note_on_c, 0, 79, 0
1, 91903, Note_on_c, 0, 81, 63
1, 91954, Control_c, 0, 64, 44
1, 91970, Control_c, 0, 64, 59
1, 91970, Note_on_c, 0, 81, 0
1, 91974, Note_on_c, 0, 79, 63
1, 91984, Control_c, 0, 64, 63
1, 91988, Note_on_c, 0, 64, 0
1, 91999, Control_c, 0, 64, 65
1, 92011, Note_on_c, 0, 73, 62
1, 92015, Control_c, 0, 64, 67
1, 92018, Note_on_c, 0, 79, 0
1, 92028, Note_on_c, 0, 78, 64
1, 92030, Control_c, 0, 64, 70
1, 92044, Note_on_c, 0, 73, 0
1, 92045, Control_c, 0, 64, 73
1, 92060, Control_c, 0, 64, 76
1, 92070, Note_on_c, 0, 78, 0
1, 92075, Control_c, 0, 64, 78
1, 92091, Control_c, 0, 64, 81
1, 92092, Note_on_c, 0, 79, 62
1, 92105, Control_c, 0, 64, 87
1, 92121, Control_c, 0, 64, 97
1, 92137, Control_c, 0, 64, 107
1, 92152, Control_c, 0, 64, 101
1, 92163, Note_on_c, 0, 79, 0
1, 92166, Note_on_c, 0, 81, 74
1, 92167, Control_c, 0, 64, 74
1, 92180, Note_on_c, 0, 66, 62
1, 92182, Control_c, 0, 64, 20
1, 92197, Control_c, 0, 64, 0
1, 92218, Note_on_c, 0, 81, 0
1, 92233, Note_on_c, 0, 83, 61
1, 92258, Control_c, 0, 64, 40
1, 92273, Control_c, 0, 64, 57
1, 92289, Control_c, 0, 64, 62
1, 92298, Note_on_c, 0, 81, 68
1, 92298, Note_on_c, 0, 83, 0
1, 92303, Control_c, 0, 64, 64
1, 92318, Control_c, 0, 64, 65
1, 92324, Note_on_c, 0, 66, 0
1, 92333, Note_on_c, 0, 81, 0
1, 92342, Control_c, 0, 64, 66
1, 92348, Note_on_c, 0, 74, 61
1, 92372, Note_on_c, 0, 79, 65
1, 92381, Note_on_c, 0, 74, 0
1, 92409, Note_on_c, 0, 79, 0
1, 92418, Control_c, 0, 64, 66
1, 92432, Note_on_c, 0, 81, 61
1, 92450, Control_c, 0, 64, 65
1, 92465, Control_c, 0, 64, 65
1, 92480, Control_c, 0, 64, 57
1, 92495, Control_c, 0, 64, 0
1, 92498, Note_on_c, 0, 83, 71
1, 92508, Note_on_c, 0, 81, 0
1, 92518, Note_on_c, 0, 67, 51
1, 92539, Note_on_c, 0, 83, 0
1, 92552, Note_on_c, 0, 67, 0
1, 92698, Note_on_c, 0, 85, 74
1, 92711, Note_on_c, 0, 69, 52
1, 92744, Note_on_c, 0, 69, 0
1, 92747, Note_on_c, 0, 85, 0
1, 92898, Note_on_c, 0, 71, 58
1, 92903, Note_on_c, 0, 86, 69
1, 92930, Note_on_c, 0, 71, 0
1, 92980, Note_on_c, 0, 85, 69
1, 92993, Note_on_c, 0, 86, 0
1, 93062, Note_on_c, 0, 83, 68
1, 93067, Note_on_c, 0, 85, 0
1, 93151, Note_on_c, 0, 81, 69
1, 93165, Note_on_c, 0, 83, 0
1, 93218, Note_on_c, 0, 81, 0
1, 93232, Note_on_c, 0, 79, 75
1, 93235, Note_on_c, 0, 67, 61
1, 93272, Note_on_c, 0, 67, 0
1, 93289, Note_on_c, 0, 79, 0
1, 93310, Note_on_c, 0, 78, 74
1, 93378, Note_on_c, 0, 76, 64
1, 93397, Note_on_c, 0, 78, 0
1, 93438, Note_on_c, 0, 76, 0
1, 93439, Note_on_c, 0, 74, 69
1, 93471, Note_on_c, 0, 74, 0
1, 93554, Note_on_c, 0, 69, 53
1, 93571, Note_on_c, 0, 74, 65
1, 93586, Note_on_c, 0, 69, 0
1, 93598, Note_on_c, 0, 74, 0
1, 93614, Note_on_c, 0, 76, 64
1, 93646, Note_on_c, 0, 76, 0
1, 93662, Note_on_c, 0, 78, 70
1, 93719, Note_on_c, 0, 78, 0
1, 93722, Note_on_c, 0, 76, 65
1, 93756, Note_on_c, 0, 76, 0
1, 93773, Note_on_c, 0, 78, 56
1, 93826, Note_on_c, 0, 78, 0
1, 93830, Note_on_c, 0, 76, 61
1, 93863, Note_on_c, 0, 76, 0
1, 93884, Note_on_c, 0, 78, 62
1, 93901, Note_on_c, 0, 57, 49
1, 93936, Note_on_c, 0, 57, 0
1, 93938, Note_on_c, 0, 78, 0
1, 93949, Note_on_c, 0, 76, 60
1, 93984, Note_on_c, 0, 76, 0
1, 93995, Note_on_c, 0, 78, 62
1, 94052, Note_on_c, 0, 78, 0
1, 94055, Note_on_c, 0, 76, 62
1, 94101, Note_on_c, 0, 76, 0
1, 94110, Note_on_c, 0, 74, 64
1, 94163, Note_on_c, 0, 74, 0
1, 94190, Note_on_c, 0, 76, 57
1, 94266, Note_on_c, 0, 50, 44
1, 94266, Note_on_c, 0, 76, 0
1, 94269, Note_on_c, 0, 74, 66
1, 94304, Control_c, 0, 64, 57
1, 94319, Control_c, 0, 64, 64
1, 94325, Note_on_c, 0, 74, 0
1, 94335, Control_c, 0, 64, 67
1, 94335, Note_on_c, 0, 50, 0
1, 94350, Control_c, 0, 64, 74
1, 94365, Control_c, 0, 64, 99
1, 94381, Control_c, 0, 64, 127
1, 94683, Note_on_c, 0, 86, 84
1, 94690, Note_on_c, 0, 78, 65
1, 94714, Note_on_c, 0, 86, 0
1, 94812, Note_on_c, 0, 78, 0
1, 94820, Note_on_c, 0, 74, 66
1, 94938, Note_on_c, 0, 69, 52
1, 94944, Note_on_c, 0, 74, 0
1, 95058, Control_c, 0, 64, 97
1, 95070, Note_on_c, 0, 43, 77
1, 95070, Note_on_c, 0, 79, 69
1, 95073, Control_c, 0, 64, 70
1, 95083, Note_on_c, 0, 69, 0
1, 95087, Control_c, 0, 64, 0
1, 95103, Note_on_c, 0, 43, 0
1, 95183, Note_on_c, 0, 79, 0
1, 95194, Note_on_c, 0, 76, 61
1, 95307, Note_on_c, 0, 76, 0
1, 95327, Note_on_c, 0, 69, 53
1, 95454, Note_on_c, 0, 45, 71
1, 95456, Note_on_c, 0, 69, 0
1, 95462, Note_on_c, 0, 76, 63
1, 95484, Note_on_c, 0, 45, 0
1, 95572, Note_on_c, 0, 76, 0
1, 95585, Note_on_c, 0, 73, 57
1, 95672, Note_on_c, 0, 73, 0
1, 95697, Note_on_c, 0, 69, 50
1, 95807, Note_on_c, 0, 69, 0
1, 95823, Note_on_c, 0, 38, 58
1, 95824, Note_on_c, 0, 78, 66
1, 95840, Control_c, 0, 64, 64
1, 95853, Note_on_c, 0, 38, 0
1, 95856, Control_c, 0, 64, 71
1, 95871, Control_c, 0, 64, 91
1, 95886, Control_c, 0, 64, 127
1, 95933, Note_on_c, 0, 78, 0
1, 95947, Note_on_c, 0, 74, 65
1, 96046, Note_on_c, 0, 74, 0
1, 96060, Note_on_c, 0, 69, 55
1, 96086, Note_on_c, 0, 69, 0
1, 96209, Note_on_c, 0, 86, 90
1, 96219, Note_on_c, 0, 54, 54
1, 96245, Note_on_c, 0, 86, 0
1, 96338, Note_on_c, 0, 57, 57
1, 96393, Note_on_c, 0, 54, 0
1, 96416, Note_on_c, 0, 57, 0
1, 96445, Note_on_c, 0, 62, 62
1, 96584, Note_on_c, 0, 43, 82
1, 96585, Note_on_c, 0, 62, 0
1, 96587, Note_on_c, 0, 55, 65
1, 96593, Control_c, 0, 64, 75
1, 96609, Control_c, 0, 64, 0
1, 96625, Note_on_c, 0, 43, 0
1, 96706, Note_on_c, 0, 59, 67
1, 96734, Note_on_c, 0, 55, 0
1, 96803, Note_on_c, 0, 59, 0
1, 96839, Note_on_c, 0, 62, 54
1, 96961, Note_on_c, 0, 62, 0
1, 96975, Note_on_c, 0, 45, 73
1, 96982, Note_on_c, 0, 57, 65
1, 97018, Note_on_c, 0, 45, 0
1, 97089, Note_on_c, 0, 57, 0
1, 97101, Note_on_c, 0, 61, 58
1, 97188, Note_on_c, 0, 61, 0
1, 97217, Note_on_c, 0, 64, 55
1, 97250, Note_on_c, 0, 64, 0
1, 97383, Note_on_c, 0, 38, 64
1, 97392, Control_c, 0, 64, 26
1, 97392, Note_on_c, 0, 50, 61
1, 97406, Control_c, 0, 64, 63
1, 97415, Note_on_c, 0, 38, 0
1, 97422, Control_c, 0, 64, 70
1, 97437, Control_c, 0, 64, 90
1, 97453, Control_c, 0, 64, 127
1, 97454, Note_on_c, 0, 50, 0
1, 97805, Note_on_c, 0, 86, 87
1, 97816, Note_on_c, 0, 78, 73
1, 97824, Note_on_c, 0, 86, 0
1, 97920, Note_on_c, 0, 78, 0
1, 97927, Note_on_c, 0, 74, 66
1, 98044, Note_on_c, 0, 69, 63
1, 98067, Control_c, 0, 67, 127
1, 98082, Control_c, 0, 67, 126
1, 98097, Note_on_c, 0, 74, 0
1, 98098, Control_c, 0, 67, 125
1, 98113, Control_c, 0, 67, 124
1, 98129, Control_c, 0, 67, 122
1, 98144, Control_c, 0, 67, 118
1, 98158, Control_c, 0, 67, 114
1, 98164, Note_on_c, 0, 43, 83
1, 98167, Note_on_c, 0, 79, 82
1, 98175, Control_c, 0, 64, 104
1, 98175, Control_c, 0, 67, 111
1, 98178, Note_on_c, 0, 69, 0
1, 98190, Control_c, 0, 64, 71
1, 98190, Control_c, 0, 67, 108
1, 98205, Control_c, 0, 64, 45
1, 98205, Control_c, 0, 67, 105
1, 98212, Note_on_c, 0, 43, 0
1, 98221, Control_c, 0, 64, 0
1, 98221, Control_c, 0, 67, 103
1, 98236, Control_c, 0, 67, 99
1, 98251, Control_c, 0, 67, 95
1, 98266, Control_c, 0, 67, 92
1, 98281, Control_c, 0, 67, 90
1, 98287, Note_on_c, 0, 76, 71
1, 98297, Control_c, 0, 67, 89
1, 98311, Control_c, 0, 67, 88
1, 98326, Control_c, 0, 67, 87
1, 98342, Control_c, 0, 67, 87
1, 98357, Control_c, 0, 67, 86
1, 98363, Note_on_c, 0, 79, 0
1, 98373, Control_c, 0, 67, 85
1, 98387, Control_c, 0, 67, 84
1, 98394, Note_on_c, 0, 69, 72
1, 98399, Note_on_c, 0, 76, 0
1, 98402, Control_c, 0, 67, 83
1, 98418, Control_c, 0, 67, 82
1, 98433, Control_c, 0, 67, 81
1, 98449, Control_c, 0, 67, 79
1, 98464, Control_c, 0, 67, 77
1, 98486, Control_c, 0, 67, 76
1, 98502, Control_c, 0, 67, 75
1, 98516, Control_c, 0, 67, 74
1, 98531, Note_on_c, 0, 45, 70
1, 98532, Control_c, 0, 67, 74
1, 98538, Note_on_c, 0, 76, 73
1, 98547, Control_c, 0, 67, 73
1, 98562, Control_c, 0, 67, 71
1, 98563, Note_on_c, 0, 69, 0
1, 98578, Control_c, 0, 67, 70
1, 98583, Note_on_c, 0, 45, 0
1, 98592, Control_c, 0, 67, 69
1, 98607, Control_c, 0, 67, 68
1, 98638, Control_c, 0, 67, 68
1, 98644, Note_on_c, 0, 76, 0
1, 98652, Note_on_c, 0, 73, 76
1, 98654, Control_c, 0, 67, 67
1, 98669, Control_c, 0, 67, 67
1, 98684, Control_c, 0, 67, 66
1, 98714, Control_c, 0, 67, 66
1, 98730, Control_c, 0, 67, 65
1, 98745, Control_c, 0, 67, 64
1, 98748, Note_on_c, 0, 73, 0
1, 98760, Control_c, 0, 67, 62
1, 98767, Note_on_c, 0, 69, 77
1, 98776, Control_c, 0, 67, 60
1, 98790, Control_c, 0, 67, 59
1, 98805, Control_c, 0, 67, 58
1, 98821, Control_c, 0, 67, 57
1, 98836, Control_c, 0, 67, 56
1, 98851, Control_c, 0, 67, 55
1, 98865, Note_on_c, 0, 69, 0
1, 98866, Control_c, 0, 67, 54
1, 98881, Control_c, 0, 67, 52
1, 98897, Control_c, 0, 67, 49
1, 98899, Note_on_c, 0, 78, 73
1, 98909, Note_on_c, 0, 38, 63
1, 98912, Control_c, 0, 67, 46
1, 98926, Control_c, 0, 67, 42
1, 98942, Control_c, 0, 67, 39
1, 98950, Note_on_c, 0, 38, 0
1, 98957, Control_c, 0, 67, 36
1, 98973, Control_c, 0, 67, 33
1, 98989, Control_c, 0, 67, 28
1, 99004, Control_c, 0, 67, 22
1, 99011, Note_on_c, 0, 78, 0
1, 99019, Control_c, 0, 67, 17
1, 99022, Note_on_c, 0, 79, 78
1, 99034, Control_c, 0, 67, 13
1, 99050, Control_c, 0, 67, 11
1, 99065, Control_c, 0, 67, 10
1, 99080, Control_c, 0, 67, 0
1, 99135, Note_on_c, 0, 81, 88
1, 99152, Note_on_c, 0, 79, 0
1, 99270, Note_on_c, 0, 67, 80
1, 99277, Note_on_c, 0, 83, 82
1, 99300, Note_on_c, 0, 81, 0
1, 99341, Note_on_c, 0, 67, 0
1, 99393, Note_on_c, 0, 81, 89
1, 99401, Note_on_c, 0, 83, 0
1, 99482, Note_on_c, 0, 81, 0
1, 99504, Note_on_c, 0, 79, 86
1, 99621, Note_on_c, 0, 69, 70
1, 99625, Note_on_c, 0, 78, 84
1, 99643, Note_on_c, 0, 79, 0
1, 99686, Note_on_c, 0, 69, 0
1, 99738, Note_on_c, 0, 79, 89
1, 99750, Note_on_c, 0, 78, 0
1, 99845, Note_on_c, 0, 76, 81
1, 99861, Note_on_c, 0, 79, 0
1, 99970, Note_on_c, 0, 76, 0
1, 99977, Note_on_c, 0, 74, 80
1, 99989, Note_on_c, 0, 57, 78
1, 100075, Note_on_c, 0, 57, 0
1, 100103, Note_on_c, 0, 76, 76
1, 100125, Note_on_c, 0, 74, 0
1, 100211, Note_on_c, 0, 73, 77
1, 100222, Note_on_c, 0, 76, 0
1, 100341, Note_on_c, 0, 74, 81
1, 100348, Note_on_c, 0, 62, 68
1, 100372, Note_on_c, 0, 73, 0
1, 100404, Note_on_c, 0, 62, 0
1, 100469, Note_on_c, 0, 73, 78
1, 100500, Note_on_c, 0, 74, 0
1, 100579, Note_on_c, 0, 71, 76
1, 100604, Note_on_c, 0, 73, 0
1, 100710, Note_on_c, 0, 69, 73
1, 100714, Note_on_c, 0, 71, 0
1, 100717, Note_on_c, 0, 55, 65
1, 100790, Note_on_c, 0, 55, 0
1, 100833, Note_on_c, 0, 69, 0
1, 100835, Note_on_c, 0, 71, 74
1, 100955, Note_on_c, 0, 67, 76
1, 100958, Note_on_c, 0, 71, 0
1, 101085, Note_on_c, 0, 66, 73
1, 101087, Note_on_c, 0, 57, 57
1, 101101, Note_on_c, 0, 67, 0
1, 101186, Note_on_c, 0, 57, 0
1, 101209, Note_on_c, 0, 67, 76
1, 101214, Note_on_c, 0, 66, 0
1, 101323, Note_on_c, 0, 64, 74
1, 101338, Note_on_c, 0, 67, 0
1, 101496, Note_on_c, 0, 62, 70
1, 101503, Note_on_c, 0, 45, 50
1, 101510, Note_on_c, 0, 64, 0
1, 101537, Control_c, 0, 67, 14
1, 101558, Control_c, 0, 67, 21
1, 101574, Control_c, 0, 67, 28
1, 101589, Control_c, 0, 67, 33
1, 101604, Control_c, 0, 67, 39
1, 101619, Control_c, 0, 67, 45
1, 101629, Note_on_c, 0, 45, 0
1, 101634, Control_c, 0, 67, 52
1, 101650, Control_c, 0, 67, 60
1, 101659, Note_on_c, 0, 64, 65
1, 101665, Control_c, 0, 67, 68
1, 101668, Note_on_c, 0, 62, 0
1, 101680, Control_c, 0, 67, 76
1, 101696, Control_c, 0, 67, 80
1, 101711, Control_c, 0, 67, 85
1, 101726, Control_c, 0, 67, 89
1, 101741, Control_c, 0, 67, 93
1, 101756, Control_c, 0, 67, 96
1, 101772, Control_c, 0, 67, 99
1, 101787, Control_c, 0, 67, 101
1, 101802, Control_c, 0, 67, 101
1, 101832, Control_c, 0, 67, 102
1, 101844, Note_on_c, 0, 61, 72
1, 101847, Control_c, 0, 67, 102
1, 101861, Note_on_c, 0, 64, 0
1, 101878, Control_c, 0, 67, 103
1, 101923, Control_c, 0, 64, 56
1, 101938, Control_c, 0, 64, 64
1, 101953, Control_c, 0, 64, 69
1, 101969, Control_c, 0, 64, 85
1, 101984, Control_c, 0, 64, 127
1, 101984, Control_c, 0, 67, 103
1, 101999, Control_c, 0, 67, 104
1, 102013, Note_on_c, 0, 61, 0
1, 102029, Control_c, 0, 67, 106
1, 102044, Control_c, 0, 67, 107
1, 102060, Control_c, 0, 67, 109
1, 102075, Control_c, 0, 67, 111
1, 102090, Control_c, 0, 67, 116
1, 102105, Control_c, 0, 67, 122
1, 102120, Control_c, 0, 67, 126
1, 102136, Control_c, 0, 67, 127
1, 102160, Note_on_c, 0, 38, 48
1, 102231, Note_on_c, 0, 61, 54
1, 102326, Control_c, 0, 64, 93
1, 102342, Control_c, 0, 64, 80
1, 102357, Control_c, 0, 64, 74
1, 102370, Note_on_c, 0, 61, 0
1, 102373, Control_c, 0, 64, 71
1, 102389, Note_on_c, 0, 62, 64
1, 102402, Control_c, 0, 64, 71
1, 102418, Control_c, 0, 64, 70
1, 102432, Note_on_c, 0, 62, 0
1, 102433, Control_c, 0, 64, 70
1, 102448, Control_c, 0, 64, 68
1, 102454, Note_on_c, 0, 64, 61
1, 102463, Control_c, 0, 64, 66
1, 102478, Control_c, 0, 64, 65
1, 102494, Control_c, 0, 64, 64
1, 102501, Note_on_c, 0, 64, 0
1, 102509, Control_c, 0, 64, 64
1, 102517, Note_on_c, 0, 62, 63
1, 102524, Control_c, 0, 64, 63
1, 102540, Control_c, 0, 64, 62
1, 102549, Note_on_c, 0, 62, 0
1, 102554, Control_c, 0, 64, 60
1, 102560, Note_on_c, 0, 64, 53
1, 102570, Control_c, 0, 64, 56
1, 102585, Control_c, 0, 64, 46
1, 102600, Control_c, 0, 64, 0
1, 102600, Note_on_c, 0, 64, 0
1, 102613, Note_on_c, 0, 62, 62
1, 102655, Note_on_c, 0, 62, 0
1, 102666, Note_on_c, 0, 64, 61
1, 102708, Note_on_c, 0, 64, 0
1, 102713, Note_on_c, 0, 62, 57
1, 102754, Note_on_c, 0, 62, 0
1, 102770, Note_on_c, 0, 64, 61
1, 102817, Note_on_c, 0, 64, 0
1, 102825, Note_on_c, 0, 62, 54
1, 102865, Note_on_c, 0, 62, 0
1, 102875, Note_on_c, 0, 64, 59
1, 102918, Note_on_c, 0, 64, 0
1, 102934, Note_on_c, 0, 62, 59
1, 102976, Note_on_c, 0, 62, 0
1, 102992, Note_on_c, 0, 64, 49
1, 103039, Note_on_c, 0, 62, 51
1, 103122, Note_on_c, 0, 64, 0
1, 103350, Control_c, 0, 67, 126
1, 103365, Control_c, 0, 67, 123
1, 103379, Control_c, 0, 67, 118
1, 103395, Control_c, 0, 67, 113
1, 103410, Control_c, 0, 67, 108
1, 103425, Control_c, 0, 67, 101
1, 103440, Control_c, 0, 67, 92
1, 103455, Control_c, 0, 67, 85
1, 103471, Control_c, 0, 67, 78
1, 103486, Control_c, 0, 67, 72
1, 103501, Control_c, 0, 67, 67
1, 103516, Control_c, 0, 67, 60
1, 103531, Control_c, 0, 67, 54
1, 103547, Control_c, 0, 67, 50
1, 103562, Control_c, 0, 67, 46
1, 103577, Control_c, 0, 67, 44
1, 103593, Control_c, 0, 67, 40
1, 103608, Control_c, 0, 67, 35
1, 103623, Control_c, 0, 67, 30
1, 103636, Control_c, 0, 67, 25
1, 103651, Control_c, 0, 67, 22
1, 103667, Control_c, 0, 67, 19
1, 103682, Control_c, 0, 67, 18
1, 103692, Control_c, 0, 67, 16
1, 103705, Control_c, 0, 67, 13
1, 103720, Control_c, 0, 67, 10
1, 103736, Control_c, 0, 67, 8
1, 103751, Control_c, 0, 67, 0
1, 104953, Note_on_c, 0, 62, 0
1, 104974, Note_on_c, 0, 38, 0
1, 104975, End_track
0, 0, End_of_file