0, 0, Header, 1, 2, 960
1, 0, Start_track
1, 0, Tempo, 500000
1, 0, End_track
2, 0, Start_track
2, 0, Title_t, "Sample Track"
2, 320, Note_on_c, 0, 60, 100
2, 1152, Note_on_c, 0, 62, 100
2, 1376, Note_off_c, 0, 60, 100
2, 1947, Note_on_c, 0, 63, 100
2, 2689, Note_on_c, 0, 64, 100
2, 2696, Note_off_c, 0, 62, 100
2, 3372, Note_on_c, 0, 65, 100
2, 3624, Note_off_c, 0, 63, 100
2, 3996, Note_off_c, 0, 65, 100
2, 3996, Note_on_c, 0, 65, 100
2, 4045, Note_off_c, 0, 64, 100
2, 4491, Note_off_c, 0, 65, 100
2, 4568, Note_on_c, 0, 64, 100
2, 5105, Note_on_c, 0, 63, 100
2, 5893, Note_on_c, 0, 61, 100
2, 5936, Note_off_c, 0, 64, 100
2, 6803, Note_on_c, 0, 58, 100
2, 7018, Note_off_c, 0, 63, 100
2, 7682, Note_on_c, 0, 56, 100
2, 7860, Note_off_c, 0, 61, 100
2, 8324, Note_off_c, 0, 58, 100
2, 8405, Note_off_c, 0, 56, 100
2, 8511, Note_on_c, 0, 52, 100
2, 8876, Note_off_c, 0, 52, 100
2, 9276, Note_on_c, 0, 50, 100
2, 9973, Note_on_c, 0, 47, 100
2, 10369, Note_off_c, 0, 50, 100
2, 10605, Note_on_c, 0, 45, 100
2, 11185, Note_on_c, 0, 42, 100
2, 11431, Note_off_c, 0, 47, 100
2, 11729, Note_on_c, 0, 40, 100
2, 12009, Note_off_c, 0, 45, 100
2, 12202, Note_off_c, 0, 42, 100
2, 12214, Note_off_c, 0, 40, 100
2, 12260, Note_on_c, 0, 39, 100
2, 12434, Note_off_c, 0, 39, 100
2, 13118, Note_on_c, 0, 39, 100
2, 13542, Note_off_c, 0, 39, 100
2, 13987, Note_on_c, 0, 39, 100
2, 14406, Note_off_c, 0, 39, 100
2, 14810, Note_on_c, 0, 40, 100
2, 15045, Note_off_c, 0, 40, 100
2, 15579, Note_on_c, 0, 41, 100
2, 15740, Note_off_c, 0, 41, 100
2, 16293, Note_on_c, 0, 43, 100
2, 16523, Note_off_c, 0, 43, 100
2, 16958, Note_on_c, 0, 46, 100
2, 17076, Note_off_c, 0, 46, 100
2, 17587, Note_on_c, 0, 49, 100
2, 18064, Note_off_c, 0, 49, 100
2, 18197, Note_on_c, 0, 51, 100
2, 18806, Note_on_c, 0, 53, 100
2, 19098, Note_off_c, 0, 51, 100
2, 19449, Note_on_c, 0, 56, 100
2, 20004, Note_off_c, 0, 53, 100
2, 20238, Note_on_c, 0, 59, 100
2, 20644, Note_off_c, 0, 56, 100
2, 20993, Note_on_c, 0, 61, 100
2, 21052, Note_off_c, 0, 59, 100
2, 21107, Note_off_c, 0, 61, 100
2, 21715, Note_on_c, 0, 62, 100
2, 22409, Note_on_c, 0, 63, 100
2, 22621, Note_off_c, 0, 62, 100
2, 23086, Note_off_c, 0, 63, 100
2, 23086, Note_on_c, 0, 63, 100
2, 23760, Note_off_c, 0, 63, 100
2, 23760, Note_on_c, 0, 63, 100
2, 24513, Note_on_c, 0, 62, 100
2, 25245, Note_on_c, 0, 61, 100
2, 25472, Note_off_c, 0, 61, 100
2, 25542, Note_off_c, 0, 63, 100
2, 25664, Note_off_c, 0, 62, 100
2, 25948, Note_on_c, 0, 60, 100
2, 26659, Note_on_c, 0, 58, 100
2, 26857, Note_off_c, 0, 60, 100
2, 27452, Note_on_c, 0, 56, 100
2, 28258, Note_off_c, 0, 58, 100
2, 28260, Note_on_c, 0, 55, 100
2, 29068, Note_on_c, 0, 53, 100
2, 29299, Note_off_c, 0, 56, 100
2, 29859, Note_on_c, 0, 52, 100
2, 29874, Note_off_c, 0, 55, 100
2, 30083, Note_off_c, 0, 53, 100
2, 30129, Note_off_c, 0, 52, 100
2, 30618, Note_on_c, 0, 51, 100
2, 31184, Note_off_c, 0, 51, 100
2, 31333, Note_on_c, 0, 50, 100
2, 31998, Note_off_c, 0, 50, 100
2, 31998, Note_on_c, 0, 50, 100
2, 32615, Note_off_c, 0, 50, 100
2, 32615, Note_on_c, 0, 50, 100
2, 33191, Note_off_c, 0, 50, 100
2, 33191, Note_on_c, 0, 50, 100
2, 33587, Note_off_c, 0, 50, 100
2, 33936, Note_on_c, 0, 51, 100
2, 34077, Note_off_c, 0, 51, 100
2, 34830, Note_on_c, 0, 51, 100
2, 34937, Note_off_c, 0, 51, 100
2, 35706, Note_on_c, 0, 52, 100
2, 35939, Note_off_c, 0, 52, 100
2, 36545, Note_on_c, 0, 53, 100
2, 37032, Note_off_c, 0, 53, 100
2, 37330, Note_on_c, 0, 53, 100
2, 38009, Note_off_c, 0, 53, 100
2, 38050, Note_on_c, 0, 54, 100
2, 38703, Note_off_c, 0, 54, 100
2, 38703, Note_on_c, 0, 54, 100
2, 39037, Note_off_c, 0, 54, 100
2, 39296, Note_on_c, 0, 53, 100
2, 39715, Note_off_c, 0, 53, 100
2, 39843, Note_on_c, 0, 52, 100
2, 40363, Note_off_c, 0, 52, 100
2, 40363, Note_on_c, 0, 52, 100
2, 41198, Note_on_c, 0, 50, 100
2, 41904, Note_off_c, 0, 52, 100
2, 42099, Note_off_c, 0, 50, 100
2, 42099, Note_on_c, 0, 50, 100
2, 42959, Note_on_c, 0, 49, 100
2, 43447, Note_off_c, 0, 50, 100
2, 43582, Note_off_c, 0, 49, 100
2, 43763, Note_on_c, 0, 47, 100
2, 44266, Note_off_c, 0, 47, 100
2, 44502, Note_on_c, 0, 46, 100
2, 45179, Note_on_c, 0, 45, 100
2, 45802, Note_off_c, 0, 45, 100
2, 45802, Note_on_c, 0, 45, 100
2, 45875, Note_off_c, 0, 46, 100
2, 46386, Note_off_c, 0, 45, 100
2, 46386, Note_on_c, 0, 45, 100
2, 46951, Note_off_c, 0, 45, 100
2, 46951, Note_on_c, 0, 45, 100
2, 47521, Note_on_c, 0, 46, 100
2, 47894, Note_off_c, 0, 46, 100
2, 47903, Note_off_c, 0, 45, 100
2, 48374, Note_on_c, 0, 48, 100
2, 49191, Note_on_c, 0, 49, 100
2, 49475, Note_off_c, 0, 48, 100
2, 49966, Note_on_c, 0, 51, 100
2, 50657, Note_off_c, 0, 49, 100
2, 50696, Note_on_c, 0, 53, 100
2, 51376, Note_off_c, 0, 51, 100
2, 51387, Note_on_c, 0, 56, 100
2, 51716, Note_off_c, 0, 53, 100
2, 51871, Note_off_c, 0, 56, 100
2, 52051, Note_on_c, 0, 59, 100
2, 52229, Note_off_c, 0, 59, 100
2, 52701, Note_on_c, 0, 61, 100
2, 53132, Note_off_c, 0, 61, 100
2, 53354, Note_on_c, 0, 64, 100
2, 53781, Note_off_c, 0, 64, 100
2, 54022, Note_on_c, 0, 65, 100
2, 54266, Note_off_c, 0, 65, 100
2, 54723, Note_on_c, 0, 66, 100
2, 54877, Note_off_c, 0, 66, 100
2, 55440, Note_on_c, 0, 67, 100
2, 55665, Note_off_c, 0, 67, 100
2, 56188, Note_on_c, 0, 67, 100
2, 56308, Note_off_c, 0, 67, 100
2, 56956, Note_on_c, 0, 66, 100
2, 57431, Note_off_c, 0, 66, 100
2, 57730, Note_on_c, 0, 64, 100
2, 58496, Note_on_c, 0, 62, 100
2, 58626, Note_off_c, 0, 64, 100
2, 59240, Note_on_c, 0, 60, 100
2, 59687, Note_off_c, 0, 62, 100
2, 59952, Note_on_c, 0, 57, 100
2, 60427, Note_off_c, 0, 60, 100
2, 60624, Note_on_c, 0, 54, 100
2, 60731, Note_off_c, 0, 54, 100
2, 60757, Note_off_c, 0, 57, 100
2, 61259, Note_on_c, 0, 50, 100
2, 61975, Note_on_c, 0, 48, 100
2, 62169, Note_off_c, 0, 50, 100
2, 62828, Note_on_c, 0, 46, 100
2, 63583, Note_off_c, 0, 48, 100
2, 63679, Note_on_c, 0, 43, 100
2, 64511, Note_on_c, 0, 41, 100
2, 64768, Note_off_c, 0, 46, 100
2, 65305, Note_on_c, 0, 40, 100
2, 65456, Note_off_c, 0, 43, 100
2, 65523, Note_off_c, 0, 40, 100
2, 65655, Note_off_c, 0, 41, 100
2, 66047, Note_on_c, 0, 40, 100
2, 66730, Note_off_c, 0, 40, 100
2, 66730, Note_on_c, 0, 40, 100
2, 67353, Note_on_c, 0, 41, 100
2, 67926, Note_on_c, 0, 42, 100
2, 68336, Note_off_c, 0, 40, 100
2, 68462, Note_on_c, 0, 44, 100
2, 69204, Note_off_c, 0, 41, 100
2, 69255, Note_on_c, 0, 46, 100
2, 69474, Note_off_c, 0, 44, 100
2, 69520, Note_off_c, 0, 46, 100
2, 69541, Note_off_c, 0, 42, 100
2, 70165, Note_on_c, 0, 49, 100
2, 70739, Note_off_c, 0, 49, 100
2, 71044, Note_on_c, 0, 50, 100
2, 71872, Note_on_c, 0, 53, 100
2, 71985, Note_off_c, 0, 50, 100
2, 72637, Note_on_c, 0, 55, 100
2, 72843, Note_off_c, 0, 53, 100
2, 73333, Note_on_c, 0, 57, 100
2, 73373, Note_off_c, 0, 55, 100
2, 73732, Note_off_c, 0, 57, 100
2, 73964, Note_on_c, 0, 58, 100
2, 74106, Note_off_c, 0, 58, 100
2, 74543, Note_on_c, 0, 59, 100
2, 74653, Note_off_c, 0, 59, 100
2, 75087, Note_on_c, 0, 59, 100
2, 75315, Note_off_c, 0, 59, 100
2, 75617, Note_on_c, 0, 59, 100
2, 76096, Note_off_c, 0, 59, 100
2, 76481, Note_on_c, 0, 59, 100
2, 77152, Note_off_c, 0, 59, 100
2, 77350, Note_on_c, 0, 58, 100
2, 77995, Note_off_c, 0, 58, 100
2, 78173, Note_on_c, 0, 57, 100
2, 78501, Note_off_c, 0, 57, 100
2, 78941, Note_on_c, 0, 56, 100
2, 79363, Note_off_c, 0, 56, 100
2, 79655, Note_on_c, 0, 55, 100
2, 80319, Note_on_c, 0, 54, 100
2, 80710, Note_off_c, 0, 55, 100
2, 80948, Note_on_c, 0, 53, 100
2, 81557, Note_off_c, 0, 53, 100
2, 81557, Note_on_c, 0, 53, 100
2, 81856, Note_off_c, 0, 54, 100
2, 82165, Note_on_c, 0, 52, 100
2, 82780, Note_off_c, 0, 52, 100
2, 82811, Note_on_c, 0, 52, 100
2, 82897, Note_off_c, 0, 53, 100
2, 83321, Note_off_c, 0, 52, 100
2, 83600, Note_on_c, 0, 53, 100
2, 84356, Note_off_c, 0, 53, 100
2, 84356, Note_on_c, 0, 53, 100
2, 85078, Note_on_c, 0, 54, 100
2, 85772, Note_on_c, 0, 55, 100
2, 86275, Note_off_c, 0, 53, 100
2, 86449, Note_on_c, 0, 56, 100
2, 87044, Note_off_c, 0, 54, 100
2, 87123, Note_off_c, 0, 56, 100
2, 87123, Note_on_c, 0, 56, 100
2, 87285, Note_off_c, 0, 55, 100
2, 87504, Note_off_c, 0, 56, 100
2, 87871, Note_on_c, 0, 57, 100
2, 88604, Note_off_c, 0, 57, 100
2, 88604, Note_on_c, 0, 57, 100
2, 89307, Note_off_c, 0, 57, 100
2, 89307, Note_on_c, 0, 57, 100
2, 90019, Note_off_c, 0, 57, 100
2, 90019, Note_on_c, 0, 57, 100
2, 90812, Note_on_c, 0, 56, 100
2, 91041, Note_off_c, 0, 57, 100
2, 91295, Note_off_c, 0, 56, 100
2, 91619, Note_on_c, 0, 55, 100
2, 91801, Note_off_c, 0, 55, 100
2, 92426, Note_on_c, 0, 53, 100
2, 92864, Note_off_c, 0, 53, 100
2, 93217, Note_on_c, 0, 51, 100
2, 93652, Note_off_c, 0, 51, 100
2, 93975, Note_on_c, 0, 50, 100
2, 94227, Note_off_c, 0, 50, 100
2, 94690, Note_on_c, 0, 48, 100
2, 94837, Note_off_c, 0, 48, 100
2, 95355, Note_on_c, 0, 46, 100
2, 95575, Note_off_c, 0, 46, 100
2, 95972, Note_on_c, 0, 44, 100
2, 96094, Note_off_c, 0, 44, 100
2, 96549, Note_on_c, 0, 43, 100
2, 97022, Note_off_c, 0, 43, 100
2, 97298, Note_on_c, 0, 42, 100
2, 98190, Note_off_c, 0, 42, 100
2, 98191, Note_on_c, 0, 41, 100
2, 99067, Note_off_c, 0, 41, 100
2, 99067, Note_on_c, 0, 41, 100
2, 99905, Note_on_c, 0, 42, 100
2, 100245, Note_off_c, 0, 41, 100
2, 100689, Note_on_c, 0, 43, 100
2, 100702, Note_off_c, 0, 42, 100
2, 100789, Note_off_c, 0, 43, 100
2, 101409, Note_on_c, 0, 45, 100
2, 102061, Note_on_c, 0, 48, 100
2, 102324, Note_off_c, 0, 45, 100
2, 102654, Note_on_c, 0, 50, 100
2, 103200, Note_on_c, 0, 53, 100
2, 103670, Note_off_c, 0, 48, 100
2, 103720, Note_on_c, 0, 56, 100
2, 104561, Note_on_c, 0, 59, 100
2, 104592, Note_off_c, 0, 50, 100
2, 104771, Note_off_c, 0, 59, 100
2, 104856, Note_off_c, 0, 56, 100
2, 104972, Note_off_c, 0, 53, 100
2, 105462, Note_on_c, 0, 61, 100
2, 106322, Note_on_c, 0, 64, 100
2, 106388, Note_off_c, 0, 61, 100
2, 107124, Note_on_c, 0, 66, 100
2, 107863, Note_on_c, 0, 67, 100
2, 107935, Note_off_c, 0, 64, 100
2, 108539, Note_off_c, 0, 67, 100
2, 108539, Note_on_c, 0, 67, 100
2, 108979, Note_off_c, 0, 66, 100
2, 109162, Note_off_c, 0, 67, 100
2, 109162, Note_on_c, 0, 67, 100
2, 109549, Note_off_c, 0, 67, 100
2, 109745, Note_on_c, 0, 66, 100
2, 110310, Note_on_c, 0, 65, 100
2, 110326, Note_off_c, 0, 66, 100
2, 110883, Note_on_c, 0, 63, 100
2, 111260, Note_off_c, 0, 65, 100
2, 111736, Note_on_c, 0, 60, 100
2, 111862, Note_off_c, 0, 63, 100
2, 112478, Note_off_c, 0, 60, 100
2, 112554, Note_on_c, 0, 57, 100
2, 112957, Note_off_c, 0, 57, 100
2, 113329, Note_on_c, 0, 54, 100
2, 113471, Note_off_c, 0, 54, 100
2, 114059, Note_on_c, 0, 51, 100
2, 114172, Note_off_c, 0, 51, 100
2, 114750, Note_on_c, 0, 50, 100
2, 114972, Note_off_c, 0, 50, 100
2, 115413, Note_on_c, 0, 47, 100
2, 115885, Note_off_c, 0, 47, 100
2, 116063, Note_on_c, 0, 45, 100
2, 116715, Note_on_c, 0, 44, 100
2, 116725, Note_off_c, 0, 45, 100
2, 117352, Note_off_c, 0, 44, 100
2, 117383, Note_on_c, 0, 43, 100
2, 117705, Note_off_c, 0, 43, 100
2, 118084, Note_on_c, 0, 43, 100
2, 118509, Note_off_c, 0, 43, 100
2, 118802, Note_on_c, 0, 43, 100
2, 119546, Note_on_c, 0, 44, 100
2, 119857, Note_off_c, 0, 43, 100
2, 120314, Note_on_c, 0, 45, 100
2, 121080, Note_off_c, 0, 44, 100
2, 121087, Note_on_c, 0, 46, 100
2, 121853, Note_on_c, 0, 48, 100
2, 121973, Note_off_c, 0, 45, 100
2, 122419, Note_off_c, 0, 46, 100
2, 122459, Note_off_c, 0, 48, 100
2, 122597, Note_on_c, 0, 50, 100
2, 123115, Note_off_c, 0, 50, 100
2, 123309, Note_on_c, 0, 50, 100
2, 123982, Note_on_c, 0, 52, 100
2, 124617, Note_on_c, 0, 53, 100
2, 124694, Note_off_c, 0, 50, 100
2, 125337, Note_on_c, 0, 54, 100
2, 125903, Note_off_c, 0, 52, 100
2, 126188, Note_on_c, 0, 55, 100
2, 126582, Note_off_c, 0, 53, 100
2, 126846, Note_off_c, 0, 54, 100
2, 126891, Note_off_c, 0, 55, 100
2, 127039, Note_on_c, 0, 55, 100
2, 127428, Note_off_c, 0, 55, 100
2, 127871, Note_on_c, 0, 55, 100
2, 128664, Note_off_c, 0, 55, 100
2, 128664, Note_on_c, 0, 55, 100
2, 129405, Note_on_c, 0, 54, 100
2, 130088, Note_off_c, 0, 54, 100
2, 130088, Note_on_c, 0, 54, 100
2, 130145, Note_off_c, 0, 55, 100
2, 130711, Note_on_c, 0, 53, 100
2, 131112, Note_off_c, 0, 54, 100
2, 131192, Note_off_c, 0, 53, 100
2, 131283, Note_on_c, 0, 52, 100
2, 131470, Note_off_c, 0, 52, 100
2, 131819, Note_on_c, 0, 52, 100
2, 132264, Note_off_c, 0, 52, 100
2, 132618, Note_on_c, 0, 51, 100
2, 133061, Note_off_c, 0, 51, 100
2, 133527, Note_on_c, 0, 52, 100
2, 133787, Note_off_c, 0, 52, 100
2, 134405, Note_on_c, 0, 52, 100
2, 134545, Note_off_c, 0, 52, 100
2, 135233, Note_on_c, 0, 53, 100
2, 135448, Note_off_c, 0, 53, 100
2, 135997, Note_on_c, 0, 53, 100
2, 136121, Note_off_c, 0, 53, 100
2, 136693, Note_on_c, 0, 55, 100
2, 137165, Note_off_c, 0, 55, 100
2, 137323, Note_on_c, 0, 56, 100
2, 137901, Note_on_c, 0, 57, 100
2, 138210, Note_off_c, 0, 56, 100
2, 138444, Note_on_c, 0, 59, 100
2, 138975, Note_on_c, 0, 60, 100
2, 139078, Note_off_c, 0, 57, 100
2, 139614, Note_off_c, 0, 59, 100
2, 139764, Note_off_c, 0, 60, 100
2, 139844, Note_on_c, 0, 61, 100
2, 139942, Note_off_c, 0, 61, 100
2, 140713, Note_on_c, 0, 61, 100
2, 141536, Note_off_c, 0, 61, 100
2, 141536, Note_on_c, 0, 61, 100
2, 142304, Note_off_c, 0, 61, 100
2, 142304, Note_on_c, 0, 61, 100
2, 143017, Note_on_c, 0, 60, 100
2, 143680, Note_on_c, 0, 58, 100
2, 144240, Note_off_c, 0, 61, 100
2, 144308, Note_on_c, 0, 56, 100
2, 144509, Note_off_c, 0, 56, 100
2, 144784, Note_off_c, 0, 60, 100
2, 144809, Note_off_c, 0, 58, 100
2, 144917, Note_on_c, 0, 54, 100
2, 145524, Note_on_c, 0, 52, 100
2, 145851, Note_off_c, 0, 54, 100
2, 146172, Note_on_c, 0, 50, 100
2, 146962, Note_on_c, 0, 47, 100
2, 147143, Note_off_c, 0, 52, 100
2, 147718, Note_on_c, 0, 45, 100
2, 148031, Note_off_c, 0, 50, 100
2, 148440, Note_on_c, 0, 42, 100
2, 148579, Note_off_c, 0, 47, 100
2, 148694, Note_off_c, 0, 42, 100
2, 148725, Note_off_c, 0, 45, 100
2, 149134, Note_on_c, 0, 41, 100
2, 149723, Note_off_c, 0, 41, 100
2, 149812, Note_on_c, 0, 40, 100
2, 150486, Note_on_c, 0, 39, 100
2, 150770, Note_off_c, 0, 40, 100
2, 151229, Note_off_c, 0, 39, 100
2, 151229, Note_on_c, 0, 39, 100
2, 151962, Note_on_c, 0, 40, 100
2, 151977, Note_off_c, 0, 39, 100
2, 152369, Note_off_c, 0, 40, 100
2, 152666, Note_on_c, 0, 42, 100
2, 152808, Note_off_c, 0, 42, 100
2, 153380, Note_on_c, 0, 44, 100
2, 153496, Note_off_c, 0, 44, 100
2, 154172, Note_on_c, 0, 46, 100
2, 154388, Note_off_c, 0, 46, 100
2, 154978, Note_on_c, 0, 49, 100
2, 155442, Note_off_c, 0, 49, 100
2, 155785, Note_on_c, 0, 52, 100
2, 156439, Note_off_c, 0, 52, 100
2, 156575, Note_on_c, 0, 55, 100
2, 157204, Note_off_c, 0, 55, 100
2, 157333, Note_on_c, 0, 58, 100
2, 157649, Note_off_c, 0, 58, 100
2, 158047, Note_on_c, 0, 61, 100
2, 158475, Note_off_c, 0, 61, 100
2, 158712, Note_on_c, 0, 63, 100
2, 159329, Note_on_c, 0, 65, 100
2, 159767, Note_off_c, 0, 63, 100
2, 159906, Note_on_c, 0, 66, 100
2, 160660, Note_off_c, 0, 66, 100
2, 160660, Note_on_c, 0, 66, 100
2, 160859, Note_off_c, 0, 65, 100
2, 161553, Note_off_c, 0, 66, 100
2, 161553, Note_on_c, 0, 66, 100
2, 162151, Note_off_c, 0, 66, 100
2, 162428, Note_on_c, 0, 65, 100
2, 162954, Note_off_c, 0, 65, 100
2, 163265, Note_on_c, 0, 64, 100
2, 164049, Note_on_c, 0, 62, 100
2, 164655, Note_off_c, 0, 64, 100
2, 164767, Note_on_c, 0, 60, 100
2, 165420, Note_on_c, 0, 57, 100
2, 165973, Note_off_c, 0, 62, 100
2, 166012, Note_on_c, 0, 55, 100
2, 166558, Note_on_c, 0, 52, 100
2, 166709, Note_off_c, 0, 55, 100
2, 166731, Note_off_c, 0, 60, 100
2, 166925, Note_off_c, 0, 57, 100
2, 166955, Note_off_c, 0, 52, 100
2, 167078, Note_on_c, 0, 50, 100
2, 167924, Note_on_c, 0, 49, 100
2, 168204, Note_off_c, 0, 50, 100
2, 168825, Note_on_c, 0, 48, 100
2, 169412, Note_off_c, 0, 49, 100
2, 169684, Note_on_c, 0, 47, 100
2, 170250, Note_off_c, 0, 48, 100
2, 170486, Note_off_c, 0, 47, 100
2, 170486, Note_on_c, 0, 47, 100
2, 170966, Note_off_c, 0, 47, 100
2, 171225, Note_on_c, 0, 46, 100
2, 171416, Note_off_c, 0, 46, 100
2, 171900, Note_on_c, 0, 47, 100
2, 172352, Note_off_c, 0, 47, 100
2, 172521, Note_on_c, 0, 48, 100
2, 172973, Note_off_c, 0, 48, 100
2, 173104, Note_on_c, 0, 48, 100
2, 173373, Note_off_c, 0, 48, 100
2, 173668, Note_on_c, 0, 50, 100
2, 173801, Note_off_c, 0, 50, 100
2, 174245, Note_on_c, 0, 50, 100
2, 174455, Note_off_c, 0, 50, 100
2, 175099, Note_on_c, 0, 51, 100
2, 175224, Note_off_c, 0, 51, 100
2, 175917, Note_on_c, 0, 52, 100
2, 176387, Note_off_c, 0, 52, 100
2, 176692, Note_on_c, 0, 52, 100
2, 177422, Note_on_c, 0, 53, 100
2, 177574, Note_off_c, 0, 52, 100
2, 178112, Note_off_c, 0, 53, 100
2, 178112, Note_on_c, 0, 53, 100
2, 178775, Note_on_c, 0, 52, 100
2, 179274, Note_off_c, 0, 53, 100
2, 179424, Note_off_c, 0, 52, 100
2, 179424, Note_on_c, 0, 52, 100
2, 179555, Note_off_c, 0, 52, 100
2, 180076, Note_on_c, 0, 51, 100
2, 180743, Note_on_c, 0, 50, 100
2, 180999, Note_off_c, 0, 51, 100
2, 181444, Note_off_c, 0, 50, 100
2, 181444, Note_on_c, 0, 50, 100
2, 182163, Note_off_c, 0, 50, 100
2, 182163, Note_on_c, 0, 50, 100
2, 182904, Note_on_c, 0, 49, 100
2, 183671, Note_off_c, 0, 49, 100
2, 183671, Note_on_c, 0, 49, 100
2, 183925, Note_off_c, 0, 50, 100
2, 184026, Note_off_c, 0, 49, 100
2, 184445, Note_on_c, 0, 49, 100
2, 185211, Note_off_c, 0, 49, 100
2, 185211, Note_on_c, 0, 49, 100
2, 185955, Note_on_c, 0, 50, 100
2, 186666, Note_off_c, 0, 50, 100
2, 186666, Note_on_c, 0, 50, 100
2, 186837, Note_off_c, 0, 49, 100
2, 187340, Note_on_c, 0, 52, 100
2, 187975, Note_on_c, 0, 54, 100
2, 188223, Note_off_c, 0, 54, 100
2, 188283, Note_off_c, 0, 50, 100
2, 188344, Note_off_c, 0, 52, 100
2, 188698, Note_on_c, 0, 56, 100
2, 189295, Note_off_c, 0, 56, 100
2, 189549, Note_on_c, 0, 58, 100
2, 190399, Note_on_c, 0, 60, 100
2, 190516, Note_off_c, 0, 58, 100
2, 191230, Note_on_c, 0, 62, 100
2, 191394, Note_off_c, 0, 60, 100
2, 191985, Note_off_c, 0, 62, 100
2, 192022, Note_on_c, 0, 63, 100
2, 192432, Note_off_c, 0, 63, 100
2, 192763, Note_on_c, 0, 64, 100
2, 192905, Note_off_c, 0, 64, 100
2, 193445, Note_on_c, 0, 65, 100
2, 193564, Note_off_c, 0, 65, 100
2, 194068, Note_on_c, 0, 65, 100
2, 194278, Note_off_c, 0, 65, 100
2, 194640, Note_on_c, 0, 64, 100
2, 195096, Note_off_c, 0, 64, 100
2, 195177, Note_on_c, 0, 63, 100
2, 195822, Note_off_c, 0, 63, 100
2, 195980, Note_on_c, 0, 61, 100
2, 196601, Note_off_c, 0, 61, 100
2, 196890, Note_on_c, 0, 58, 100
2, 197200, Note_off_c, 0, 58, 100
2, 197767, Note_on_c, 0, 55, 100
2, 198198, Note_off_c, 0, 55, 100
2, 198594, Note_on_c, 0, 52, 100
2, 199357, Note_on_c, 0, 50, 100
2, 199649, Note_off_c, 0, 52, 100
2, 200052, Note_on_c, 0, 47, 100
2, 200682, Note_on_c, 0, 44, 100
2, 200884, Note_off_c, 0, 50, 100
2, 201260, Note_on_c, 0, 42, 100
2, 201698, Note_off_c, 0, 47, 100
2, 201802, Note_on_c, 0, 40, 100
2, 201849, Note_off_c, 0, 42, 100
2, 201998, Note_off_c, 0, 44, 100
2, 202332, Note_on_c, 0, 39, 100
2, 202335, Note_off_c, 0, 40, 100
2, 203207, Note_off_c, 0, 39, 100
2, 203207, Note_on_c, 0, 39, 100
2, 204076, Note_off_c, 0, 39, 100
2, 204076, Note_on_c, 0, 39, 100
2, 204898, Note_on_c, 0, 40, 100
2, 205666, Note_on_c, 0, 41, 100
2, 206039, Note_off_c, 0, 39, 100
2, 206356, Note_off_c, 0, 41, 100
2, 206378, Note_on_c, 0, 43, 100
2, 206399, Note_off_c, 0, 40, 100
2, 206783, Note_off_c, 0, 43, 100
2, 207042, Note_on_c, 0, 46, 100
2, 207669, Note_on_c, 0, 49, 100
2, 208177, Note_off_c, 0, 46, 100
2, 208277, Note_on_c, 0, 51, 100
2, 208884, Note_on_c, 0, 54, 100
2, 209164, Note_off_c, 0, 49, 100
2, 209533, Note_on_c, 0, 56, 100
2, 209707, Note_off_c, 0, 51, 100
2, 209912, Note_off_c, 0, 54, 100
2, 210012, Note_off_c, 0, 56, 100
2, 210324, Note_on_c, 0, 59, 100
2, 210520, Note_off_c, 0, 59, 100
2, 211080, Note_on_c, 0, 61, 100
2, 211539, Note_off_c, 0, 61, 100
2, 211803, Note_on_c, 0, 62, 100
2, 212263, Note_off_c, 0, 62, 100
2, 212497, Note_on_c, 0, 63, 100
2, 212774, Note_off_c, 0, 63, 100
2, 213174, Note_on_c, 0, 63, 100
2, 213299, Note_off_c, 0, 63, 100
2, 213848, Note_on_c, 0, 63, 100
2, 214054, Note_off_c, 0, 63, 100
2, 214586, Note_on_c, 0, 62, 100
2, 214713, Note_off_c, 0, 62, 100
2, 215320, Note_on_c, 0, 61, 100
2, 215788, Note_off_c, 0, 61, 100
2, 216025, Note_on_c, 0, 60, 100
2, 216740, Note_on_c, 0, 58, 100
2, 216902, Note_off_c, 0, 60, 100
2, 217532, Note_on_c, 0, 56, 100
2, 217903, Note_off_c, 0, 58, 100
2, 218337, Note_on_c, 0, 54, 100
2, 218685, Note_off_c, 0, 56, 100
2, 219109, Note_off_c, 0, 54, 100
2, 219143, Note_on_c, 0, 53, 100
2, 219254, Note_off_c, 0, 53, 100
2, 219933, Note_on_c, 0, 52, 100
2, 220690, Note_on_c, 0, 51, 100
2, 220861, Note_off_c, 0, 52, 100
2, 221405, Note_on_c, 0, 50, 100
2, 222070, Note_off_c, 0, 50, 100
2, 222070, Note_on_c, 0, 50, 100
2, 222303, Note_off_c, 0, 51, 100
2, 222686, Note_off_c, 0, 50, 100
2, 222686, Note_on_c, 0, 50, 100
2, 223264, Note_off_c, 0, 50, 100
2, 223264, Note_on_c, 0, 50, 100
2, 223826, Note_off_c, 0, 50, 100
2, 224022, Note_on_c, 0, 51, 100
2, 224914, Note_off_c, 0, 51, 100
2, 224914, Note_on_c, 0, 51, 100
2, 225789, Note_on_c, 0, 52, 100
2, 226546, Note_off_c, 0, 51, 100
2, 226626, Note_on_c, 0, 53, 100
2, 227408, Note_off_c, 0, 53, 100
2, 227408, Note_on_c, 0, 53, 100
2, 227656, Note_off_c, 0, 52, 100
2, 228126, Note_off_c, 0, 53, 100
2, 228126, Note_on_c, 0, 53, 100
2, 228410, Note_off_c, 0, 53, 100
2, 228778, Note_on_c, 0, 53, 100
2, 229369, Note_off_c, 0, 53, 100
2, 229369, Note_on_c, 0, 53, 100
2, 229915, Note_on_c, 0, 52, 100
2, 230344, Note_off_c, 0, 53, 100
2, 230435, Note_off_c, 0, 52, 100
2, 230435, Note_on_c, 0, 52, 100
2, 231196, Note_off_c, 0, 52, 100
2, 231286, Note_on_c, 0, 50, 100
2, 231699, Note_off_c, 0, 50, 100
2, 232187, Note_on_c, 0, 50, 100
2, 232329, Note_off_c, 0, 50, 100
2, 233046, Note_on_c, 0, 49, 100
2, 233168, Note_off_c, 0, 49, 100
2, 233848, Note_on_c, 0, 47, 100
2, 234052, Note_off_c, 0, 47, 100
2, 234586, Note_on_c, 0, 46, 100
2, 235034, Note_off_c, 0, 46, 100
2, 235261, Note_on_c, 0, 45, 100
2, 235881, Note_off_c, 0, 45, 100
2, 235881, Note_on_c, 0, 45, 100
2, 236463, Note_off_c, 0, 45, 100
2, 236463, Note_on_c, 0, 45, 100
2, 236767, Note_off_c, 0, 45, 100
2, 237027, Note_on_c, 0, 45, 100
2, 237461, Note_off_c, 0, 45, 100
2, 237607, Note_on_c, 0, 46, 100
2, 238461, Note_on_c, 0, 48, 100
2, 238661, Note_off_c, 0, 46, 100
2, 239280, Note_on_c, 0, 50, 100
2, 239984, Note_off_c, 0, 48, 100
2, 240054, Note_on_c, 0, 51, 100
2, 240784, Note_on_c, 0, 54, 100
2, 240920, Note_off_c, 0, 50, 100
2, 241362, Note_off_c, 0, 51, 100
2, 241365, Note_off_c, 0, 54, 100
2, 241475, Note_on_c, 0, 56, 100
2, 242016, Note_off_c, 0, 56, 100
2, 242137, Note_on_c, 0, 59, 100
2, 242786, Note_on_c, 0, 61, 100
2, 243437, Note_on_c, 0, 64, 100
2, 243538, Note_off_c, 0, 59, 100
2, 244103, Note_on_c, 0, 65, 100
2, 244715, Note_off_c, 0, 61, 100
2, 244804, Note_on_c, 0, 66, 100
2, 245400, Note_off_c, 0, 64, 100
2, 245488, Note_off_c, 0, 66, 100
2, 245524, Note_on_c, 0, 67, 100
2, 245600, Note_off_c, 0, 65, 100
2, 245938, Note_off_c, 0, 67, 100
2, 246263, Note_on_c, 0, 67, 100
2, 247029, Note_on_c, 0, 66, 100
2, 247406, Note_off_c, 0, 67, 100
2, 247802, Note_on_c, 0, 64, 100
2, 248532, Note_off_c, 0, 66, 100
2, 248568, Note_on_c, 0, 62, 100
2, 249237, Note_off_c, 0, 64, 100
2, 249312, Note_on_c, 0, 60, 100
2, 249598, Note_off_c, 0, 62, 100
2, 249789, Note_off_c, 0, 60, 100
2, 250024, Note_on_c, 0, 57, 100
2, 250224, Note_off_c, 0, 57, 100
2, 250697, Note_on_c, 0, 53, 100
2, 251163, Note_off_c, 0, 53, 100
2, 251333, Note_on_c, 0, 50, 100
2, 251801, Note_off_c, 0, 50, 100
2, 252059, Note_on_c, 0, 48, 100
2, 252344, Note_off_c, 0, 48, 100
2, 252910, Note_on_c, 0, 45, 100
2, 253028, Note_off_c, 0, 45, 100
2, 253759, Note_on_c, 0, 43, 100
2, 253960, Note_off_c, 0, 43, 100
2, 254589, Note_on_c, 0, 41, 100
2, 254717, Note_off_c, 0, 41, 100
2, 255381, Note_on_c, 0, 40, 100
2, 255847, Note_off_c, 0, 40, 100
2, 256121, Note_on_c, 0, 40, 100
2, 256803, Note_off_c, 0, 40, 100
2, 256803, Note_on_c, 0, 40, 100
2, 257425, Note_on_c, 0, 41, 100
2, 257958, Note_off_c, 0, 40, 100
2, 257997, Note_on_c, 0, 42, 100
2, 258534, Note_on_c, 0, 44, 100
2, 258570, Note_off_c, 0, 41, 100
2, 258652, Note_off_c, 0, 44, 100
2, 258761, Note_off_c, 0, 42, 100
2, 259343, Note_on_c, 0, 46, 100
2, 260252, Note_on_c, 0, 49, 100
2, 260275, Note_off_c, 0, 46, 100
2, 261129, Note_on_c, 0, 50, 100
2, 261866, Note_off_c, 0, 49, 100
2, 261955, Note_on_c, 0, 53, 100
2, 262718, Note_on_c, 0, 55, 100
2, 263058, Note_off_c, 0, 50, 100
2, 263412, Note_on_c, 0, 57, 100
2, 263588, Note_off_c, 0, 57, 100
2, 263706, Note_off_c, 0, 53, 100
2, 263825, Note_off_c, 0, 55, 100
2, 264041, Note_on_c, 0, 58, 100
2, 264618, Note_on_c, 0, 59, 100
2, 264999, Note_off_c, 0, 58, 100
2, 265160, Note_on_c, 0, 60, 100
2, 265690, Note_off_c, 0, 60, 100
2, 265690, Note_on_c, 0, 60, 100
2, 266257, Note_off_c, 0, 59, 100
2, 266569, Note_on_c, 0, 59, 100
2, 267308, Note_off_c, 0, 60, 100
2, 267438, Note_off_c, 0, 59, 100
2, 267438, Note_on_c, 0, 59, 100
2, 267675, Note_off_c, 0, 59, 100
2, 268261, Note_on_c, 0, 58, 100
2, 268873, Note_off_c, 0, 58, 100
2, 269029, Note_on_c, 0, 56, 100
2, 269740, Note_on_c, 0, 55, 100
2, 270013, Note_off_c, 0, 56, 100
2, 270403, Note_on_c, 0, 54, 100
2, 270751, Note_off_c, 0, 55, 100
2, 271030, Note_on_c, 0, 53, 100
2, 271170, Note_off_c, 0, 54, 100
2, 271447, Note_off_c, 0, 53, 100
2, 271637, Note_on_c, 0, 53, 100
2, 271779, Note_off_c, 0, 53, 100
2, 272243, Note_on_c, 0, 52, 100
2, 272369, Note_off_c, 0, 52, 100
2, 272895, Note_on_c, 0, 52, 100
2, 273093, Note_off_c, 0, 52, 100
2, 273686, Note_on_c, 0, 53, 100
2, 274126, Note_off_c, 0, 53, 100
2, 274443, Note_on_c, 0, 53, 100
2, 275071, Note_off_c, 0, 53, 100
2, 275166, Note_on_c, 0, 54, 100
2, 275772, Note_off_c, 0, 54, 100
2, 275860, Note_on_c, 0, 55, 100
2, 276158, Note_off_c, 0, 55, 100
2, 276537, Note_on_c, 0, 55, 100
2, 276974, Note_off_c, 0, 55, 100
2, 277211, Note_on_c, 0, 56, 100
2, 277944, Note_on_c, 0, 57, 100
2, 278265, Note_off_c, 0, 56, 100
2, 278678, Note_off_c, 0, 57, 100
2, 278678, Note_on_c, 0, 57, 100
2, 279383, Note_off_c, 0, 57, 100
2, 279383, Note_on_c, 0, 57, 100
2, 280101, Note_off_c, 0, 57, 100
2, 280101, Note_on_c, 0, 57, 100
2, 280683, Note_off_c, 0, 57, 100
2, 280891, Note_on_c, 0, 56, 100
2, 281439, Note_off_c, 0, 56, 100
2, 281696, Note_on_c, 0, 55, 100
2, 282502, Note_on_c, 0, 53, 100
2, 283102, Note_off_c, 0, 55, 100
2, 283291, Note_on_c, 0, 51, 100
2, 284048, Note_on_c, 0, 50, 100
2, 284433, Note_off_c, 0, 53, 100
2, 284762, Note_on_c, 0, 48, 100
2, 285253, Note_off_c, 0, 51, 100
2, 285427, Note_on_c, 0, 46, 100
2, 285439, Note_off_c, 0, 48, 100
2, 285541, Note_off_c, 0, 50, 100
2, 285849, Note_off_c, 0, 46, 100
2, 286044, Note_on_c, 0, 44, 100
2, 286621, Note_on_c, 0, 43, 100
2, 287196, Note_off_c, 0, 44, 100
2, 287384, Note_on_c, 0, 42, 100
2, 288131, Note_off_c, 0, 43, 100
2, 288275, Note_on_c, 0, 41, 100
2, 288824, Note_off_c, 0, 42, 100
2, 289149, Note_off_c, 0, 41, 100
2, 289149, Note_on_c, 0, 41, 100
2, 289625, Note_off_c, 0, 41, 100
2, 289986, Note_on_c, 0, 42, 100
2, 290191, Note_off_c, 0, 42, 100
2, 290767, Note_on_c, 0, 43, 100
2, 291240, Note_off_c, 0, 43, 100
2, 291485, Note_on_c, 0, 45, 100
2, 291962, Note_off_c, 0, 45, 100
2, 292136, Note_on_c, 0, 48, 100
2, 292430, Note_off_c, 0, 48, 100
2, 292727, Note_on_c, 0, 50, 100
2, 292838, Note_off_c, 0, 50, 100
2, 293272, Note_on_c, 0, 53, 100
2, 293469, Note_off_c, 0, 53, 100
2, 293792, Note_on_c, 0, 56, 100
2, 293922, Note_off_c, 0, 56, 100
2, 294649, Note_on_c, 0, 59, 100
2, 295113, Note_off_c, 0, 59, 100
2, 295550, Note_on_c, 0, 62, 100
2, 296408, Note_on_c, 0, 64, 100
2, 296417, Note_off_c, 0, 62, 100
2, 297210, Note_on_c, 0, 66, 100
2, 297556, Note_off_c, 0, 64, 100
2, 297947, Note_on_c, 0, 67, 100
2, 298346, Note_off_c, 0, 66, 100
2, 298621, Note_off_c, 0, 67, 100
2, 298621, Note_on_c, 0, 67, 100
2, 298746, Note_off_c, 0, 67, 100
2, 299241, Note_on_c, 0, 67, 100
2, 299822, Note_on_c, 0, 66, 100
2, 300177, Note_off_c, 0, 67, 100
2, 300385, Note_on_c, 0, 65, 100
2, 300969, Note_on_c, 0, 63, 100
2, 301437, Note_off_c, 0, 66, 100
2, 301824, Note_on_c, 0, 60, 100
2, 302312, Note_off_c, 0, 65, 100
2, 302642, Note_on_c, 0, 57, 100
2, 302714, Note_off_c, 0, 63, 100
2, 302810, Note_off_c, 0, 57, 100
2, 302923, Note_off_c, 0, 60, 100
2, 303417, Note_on_c, 0, 54, 100
2, 304147, Note_on_c, 0, 51, 100
2, 304383, Note_off_c, 0, 54, 100
2, 304837, Note_on_c, 0, 50, 100
2, 305499, Note_on_c, 0, 47, 100
2, 305792, Note_off_c, 0, 51, 100
2, 306147, Note_on_c, 0, 45, 100
2, 306712, Note_off_c, 0, 50, 100
2, 306798, Note_on_c, 0, 44, 100
2, 307029, Note_off_c, 0, 44, 100
2, 307118, Note_off_c, 0, 47, 100
2, 307143, Note_off_c, 0, 45, 100
2, 307463, Note_on_c, 0, 43, 100
2, 308083, Note_off_c, 0, 43, 100
2, 308165, Note_on_c, 0, 42, 100
2, 308885, Note_on_c, 0, 43, 100
2, 309157, Note_off_c, 0, 42, 100
2, 309621, Note_on_c, 0, 44, 100
2, 309904, Note_off_c, 0, 43, 100
2, 310387, Note_on_c, 0, 45, 100
2, 310394, Note_off_c, 0, 44, 100
2, 310807, Note_off_c, 0, 45, 100
2, 311160, Note_on_c, 0, 46, 100
2, 311302, Note_off_c, 0, 46, 100
2, 311925, Note_on_c, 0, 48, 100
2, 312054, Note_off_c, 0, 48, 100
2, 312669, Note_on_c, 0, 50, 100
2, 312860, Note_off_c, 0, 50, 100
2, 313381, Note_on_c, 0, 51, 100
2, 313813, Note_off_c, 0, 51, 100
2, 314055, Note_on_c, 0, 52, 100
2, 314675, Note_off_c, 0, 52, 100
2, 314692, Note_on_c, 0, 53, 100
2, 315290, Note_off_c, 0, 53, 100
2, 315421, Note_on_c, 0, 54, 100
2, 315714, Note_off_c, 0, 54, 100
2, 316270, Note_on_c, 0, 55, 100
2, 316710, Note_off_c, 0, 55, 100
2, 317119, Note_on_c, 0, 55, 100
2, 317948, Note_off_c, 0, 55, 100
2, 317948, Note_on_c, 0, 55, 100
2, 318740, Note_off_c, 0, 55, 100
2, 318740, Note_on_c, 0, 55, 100
2, 319479, Note_on_c, 0, 54, 100
2, 320160, Note_off_c, 0, 54, 100
2, 320160, Note_on_c, 0, 54, 100
2, 320367, Note_off_c, 0, 55, 100
2, 320771, Note_off_c, 0, 54, 100
2, 320783, Note_on_c, 0, 53, 100
2, 321339, Note_off_c, 0, 53, 100
2, 321354, Note_on_c, 0, 52, 100
2, 321891, Note_off_c, 0, 52, 100
2, 321891, Note_on_c, 0, 52, 100
2, 322705, Note_off_c, 0, 52, 100
2, 322705, Note_on_c, 0, 52, 100
2, 323614, Note_off_c, 0, 52, 100
2, 323614, Note_on_c, 0, 52, 100
2, 324490, Note_off_c, 0, 52, 100
2, 324490, Note_on_c, 0, 52, 100
2, 325160, Note_off_c, 0, 52, 100
2, 325316, Note_on_c, 0, 53, 100
2, 325746, Note_off_c, 0, 53, 100
2, 326078, Note_on_c, 0, 53, 100
2, 326771, Note_on_c, 0, 55, 100
2, 327238, Note_off_c, 0, 53, 100
2, 327400, Note_on_c, 0, 56, 100
2, 327976, Note_on_c, 0, 57, 100
2, 328288, Note_off_c, 0, 55, 100
2, 328518, Note_on_c, 0, 59, 100
2, 328845, Note_off_c, 0, 56, 100
2, 328992, Note_off_c, 0, 59, 100
2, 329010, Note_off_c, 0, 57, 100
2, 329047, Note_on_c, 0, 60, 100
2, 329257, Note_off_c, 0, 60, 100
2, 329932, Note_on_c, 0, 61, 100
2, 330412, Note_off_c, 0, 61, 100
2, 330801, Note_on_c, 0, 61, 100
2, 331286, Note_off_c, 0, 61, 100
2, 331624, Note_on_c, 0, 61, 100
2, 331926, Note_off_c, 0, 61, 100
2, 332391, Note_on_c, 0, 61, 100
2, 332495, Note_off_c, 0, 61, 100
2, 333102, Note_on_c, 0, 60, 100
2, 333294, Note_off_c, 0, 60, 100
2, 333764, Note_on_c, 0, 58, 100
2, 333895, Note_off_c, 0, 58, 100
2, 334390, Note_on_c, 0, 56, 100
2, 334852, Note_off_c, 0, 56, 100
2, 334997, Note_on_c, 0, 54, 100
2, 335602, Note_on_c, 0, 51, 100
2, 335859, Note_off_c, 0, 54, 100
2, 336256, Note_on_c, 0, 50, 100
2, 336743, Note_off_c, 0, 51, 100
2, 337048, Note_on_c, 0, 47, 100
2, 337384, Note_off_c, 0, 50, 100
2, 337796, Note_off_c, 0, 47, 100
2, 337805, Note_on_c, 0, 45, 100
2, 337936, Note_off_c, 0, 45, 100
2, 338528, Note_on_c, 0, 42, 100
2, 339223, Note_on_c, 0, 41, 100
2, 339468, Note_off_c, 0, 42, 100
2, 339900, Note_on_c, 0, 40, 100
2, 340573, Note_on_c, 0, 39, 100
2, 340838, Note_off_c, 0, 41, 100
2, 341302, Note_off_c, 0, 39, 100
2, 341302, Note_on_c, 0, 39, 100
2, 341824, Note_off_c, 0, 40, 100
2, 342037, Note_on_c, 0, 40, 100
2, 342196, Note_off_c, 0, 40, 100
2, 342393, Note_off_c, 0, 39, 100
2, 342742, Note_on_c, 0, 42, 100
2, 343461, Note_on_c, 0, 44, 100
2, 343716, Note_off_c, 0, 42, 100
2, 344251, Note_on_c, 0, 47, 100
2, 345055, Note_on_c, 0, 50, 100
2, 345112, Note_off_c, 0, 44, 100
2, 345860, Note_on_c, 0, 52, 100
2, 346129, Note_off_c, 0, 47, 100
2, 346648, Note_on_c, 0, 55, 100
2, 346674, Note_off_c, 0, 50, 100
2, 346853, Note_off_c, 0, 52, 100
2, 346873, Note_off_c, 0, 55, 100
2, 347405, Note_on_c, 0, 58, 100
2, 348033, Note_off_c, 0, 58, 100
2, 348119, Note_on_c, 0, 61, 100
2, 348784, Note_on_c, 0, 63, 100
2, 349120, Note_off_c, 0, 61, 100
2, 349401, Note_on_c, 0, 65, 100
2, 349811, Note_off_c, 0, 63, 100
2, 349979, Note_on_c, 0, 66, 100
2, 350180, Note_off_c, 0, 65, 100
2, 350402, Note_off_c, 0, 66, 100
2, 350746, Note_on_c, 0, 66, 100
2, 350888, Note_off_c, 0, 66, 100
2, 351637, Note_on_c, 0, 66, 100
2, 351769, Note_off_c, 0, 66, 100
2, 352510, Note_on_c, 0, 65, 100
2, 352695, Note_off_c, 0, 65, 100
2, 353346, Note_on_c, 0, 64, 100
2, 353770, Note_off_c, 0, 64, 100
2, 354127, Note_on_c, 0, 62, 100
2, 354738, Note_off_c, 0, 62, 100
2, 354844, Note_on_c, 0, 60, 100
2, 355435, Note_off_c, 0, 60, 100
2, 355494, Note_on_c, 0, 57, 100
2, 355781, Note_off_c, 0, 57, 100
2, 356085, Note_on_c, 0, 55, 100
2, 356527, Note_off_c, 0, 55, 100
2, 356630, Note_on_c, 0, 52, 100
2, 357149, Note_on_c, 0, 50, 100
2, 357682, Note_off_c, 0, 52, 100
2, 358012, Note_on_c, 0, 49, 100
2, 358660, Note_off_c, 0, 50, 100
2, 358912, Note_on_c, 0, 48, 100
2, 359632, Note_off_c, 0, 49, 100
2, 359771, Note_on_c, 0, 47, 100
2, 360196, Note_off_c, 0, 48, 100
2, 360326, Note_off_c, 0, 47, 100
2, 360572, Note_on_c, 0, 46, 100
2, 361135, Note_off_c, 0, 46, 100
2, 361308, Note_on_c, 0, 46, 100
2, 361981, Note_on_c, 0, 47, 100
2, 362601, Note_off_c, 0, 47, 100
2, 362601, Note_on_c, 0, 47, 100
2, 362725, Note_off_c, 0, 46, 100
2, 363182, Note_on_c, 0, 48, 100
2, 363744, Note_on_c, 0, 49, 100
2, 364331, Note_on_c, 0, 50, 100
2, 364407, Note_off_c, 0, 49, 100
2, 364560, Note_off_c, 0, 47, 100
2, 364666, Note_off_c, 0, 48, 100
2, 364769, Note_off_c, 0, 50, 100
2, 365186, Note_on_c, 0, 51, 100
2, 366005, Note_on_c, 0, 52, 100
2, 366354, Note_off_c, 0, 51, 100
2, 366780, Note_off_c, 0, 52, 100
2, 366780, Note_on_c, 0, 52, 100
2, 367510, Note_on_c, 0, 53, 100
2, 368200, Note_off_c, 0, 53, 100
2, 368200, Note_on_c, 0, 53, 100
2, 368230, Note_off_c, 0, 52, 100
2, 368673, Note_off_c, 0, 53, 100
2, 368861, Note_on_c, 0, 52, 100
2, 369075, Note_off_c, 0, 52, 100
2, 369509, Note_on_c, 0, 52, 100
2, 369996, Note_off_c, 0, 52, 100
2, 370158, Note_on_c, 0, 51, 100
2, 370651, Note_off_c, 0, 51, 100
2, 370823, Note_on_c, 0, 50, 100
2, 371133, Note_off_c, 0, 50, 100
2, 371526, Note_on_c, 0, 50, 100
2, 371624, Note_off_c, 0, 50, 100
2, 372246, Note_on_c, 0, 50, 100
2, 372434, Note_off_c, 0, 50, 100
2, 372979, Note_on_c, 0, 49, 100
2, 373111, Note_off_c, 0, 49, 100
2, 373745, Note_on_c, 0, 49, 100
2, 374205, Note_off_c, 0, 49, 100
2, 374517, Note_on_c, 0, 49, 100
2, 375282, Note_off_c, 0, 49, 100
2, 375282, Note_on_c, 0, 49, 100
2, 376026, Note_on_c, 0, 50, 100
2, 376415, Note_off_c, 0, 49, 100
2, 376738, Note_off_c, 0, 50, 100
2, 376738, Note_on_c, 0, 50, 100
2, 377413, Note_on_c, 0, 52, 100
2, 377477, Note_off_c, 0, 50, 100
2, 377551, Note_off_c, 0, 52, 100
2, 378050, Note_on_c, 0, 54, 100
2, 378782, Note_on_c, 0, 56, 100
2, 378994, Note_off_c, 0, 54, 100
2, 379631, Note_on_c, 0, 58, 100
2, 380398, Note_off_c, 0, 56, 100
2, 380479, Note_on_c, 0, 60, 100
2, 381307, Note_on_c, 0, 62, 100
2, 381553, Note_off_c, 0, 58, 100
2, 382098, Note_on_c, 0, 63, 100
2, 382213, Note_off_c, 0, 60, 100
2, 382249, Note_off_c, 0, 63, 100
2, 382391, Note_off_c, 0, 62, 100
2, 382837, Note_on_c, 0, 64, 100
2, 383518, Note_on_c, 0, 65, 100
2, 383819, Note_off_c, 0, 64, 100
2, 384140, Note_off_c, 0, 65, 100
2, 384140, Note_on_c, 0, 65, 100
2, 384711, Note_on_c, 0, 64, 100
2, 385248, Note_on_c, 0, 62, 100
2, 386022, Note_off_c, 0, 65, 100
2, 386068, Note_on_c, 0, 61, 100
2, 386238, Note_off_c, 0, 62, 100
2, 386287, Note_off_c, 0, 61, 100
2, 386330, Note_off_c, 0, 64, 100
2, 386976, Note_on_c, 0, 58, 100
2, 387611, Note_off_c, 0, 58, 100
2, 387852, Note_on_c, 0, 55, 100
2, 388677, Note_on_c, 0, 52, 100
2, 388861, Note_off_c, 0, 55, 100
2, 389438, Note_on_c, 0, 50, 100
2, 389711, Note_off_c, 0, 52, 100
2, 390131, Note_on_c, 0, 47, 100
2, 390223, Note_off_c, 0, 50, 100
2, 390557, Note_off_c, 0, 47, 100
2, 390759, Note_on_c, 0, 44, 100
2, 390901, Note_off_c, 0, 44, 100
2, 391334, Note_on_c, 0, 42, 100
2, 391470, Note_off_c, 0, 42, 100
2, 391876, Note_on_c, 0, 40, 100
2, 392055, Note_off_c, 0, 40, 100
2, 392404, Note_on_c, 0, 39, 100
2, 392820, Note_off_c, 0, 39, 100
2, 393295, Note_on_c, 0, 39, 100
2, 393898, Note_off_c, 0, 39, 100
2, 394164, Note_on_c, 0, 39, 100
2, 394747, Note_off_c, 0, 39, 100
2, 394986, Note_on_c, 0, 40, 100
2, 395267, Note_off_c, 0, 40, 100
2, 395753, Note_on_c, 0, 41, 100
2, 396198, Note_off_c, 0, 41, 100
2, 396464, Note_on_c, 0, 43, 100
2, 397126, Note_on_c, 0, 46, 100
2, 397516, Note_off_c, 0, 43, 100
2, 397751, Note_on_c, 0, 49, 100
2, 398357, Note_on_c, 0, 51, 100
2, 398633, Note_off_c, 0, 46, 100
2, 398962, Note_on_c, 0, 54, 100
2, 399365, Note_off_c, 0, 49, 100
2, 399509, Note_off_c, 0, 54, 100
2, 399617, Note_on_c, 0, 56, 100
2, 399633, Note_off_c, 0, 51, 100
2, 400188, Note_off_c, 0, 56, 100
2, 400410, Note_on_c, 0, 59, 100
2, 401168, Note_on_c, 0, 61, 100
2, 401832, Note_off_c, 0, 59, 100
2, 401891, Note_on_c, 0, 62, 100
2, 402586, Note_on_c, 0, 63, 100
2, 403106, Note_off_c, 0, 61, 100
2, 403263, Note_on_c, 0, 64, 100
2, 403849, Note_off_c, 0, 62, 100
2, 403919, Note_off_c, 0, 64, 100
2, 403936, Note_off_c, 0, 63, 100
2, 403936, Note_on_c, 0, 63, 100
2, 404383, Note_off_c, 0, 63, 100
2, 404660, Note_on_c, 0, 63, 100
2, 405395, Note_on_c, 0, 61, 100
2, 405837, Note_off_c, 0, 63, 100
2, 406101, Note_on_c, 0, 60, 100
2, 406821, Note_on_c, 0, 58, 100
2, 406927, Note_off_c, 0, 61, 100
2, 407556, Note_off_c, 0, 60, 100
2, 407611, Note_on_c, 0, 56, 100
2, 407858, Note_off_c, 0, 58, 100
2, 408082, Note_off_c, 0, 56, 100
2, 408414, Note_on_c, 0, 54, 100
2, 408633, Note_off_c, 0, 54, 100
2, 409218, Note_on_c, 0, 53, 100
2, 409712, Note_off_c, 0, 53, 100
2, 410006, Note_on_c, 0, 52, 100
2, 410508, Note_off_c, 0, 52, 100
2, 410763, Note_on_c, 0, 50, 100
2, 411082, Note_off_c, 0, 50, 100
2, 411476, Note_on_c, 0, 50, 100
2, 411576, Note_off_c, 0, 50, 100
2, 412141, Note_on_c, 0, 50, 100
2, 412324, Note_off_c, 0, 50, 100
2, 412758, Note_on_c, 0, 50, 100
2, 412892, Note_off_c, 0, 50, 100
2, 413336, Note_on_c, 0, 50, 100
2, 413794, Note_off_c, 0, 50, 100
2, 414108, Note_on_c, 0, 50, 100
2, 414960, Note_off_c, 0, 50, 100
2, 414998, Note_on_c, 0, 51, 100
2, 415871, Note_on_c, 0, 52, 100
2, 416124, Note_off_c, 0, 51, 100
2, 416706, Note_on_c, 0, 53, 100
2, 416982, Note_off_c, 0, 52, 100
2, 417437, Note_off_c, 0, 53, 100
2, 417486, Note_on_c, 0, 53, 100
2, 417630, Note_off_c, 0, 53, 100
2, 418202, Note_on_c, 0, 53, 100
2, 418852, Note_off_c, 0, 53, 100
2, 418852, Note_on_c, 0, 53, 100
2, 419442, Note_off_c, 0, 53, 100
2, 419442, Note_on_c, 0, 53, 100
2, 419987, Note_on_c, 0, 52, 100
2, 420506, Note_off_c, 0, 52, 100
2, 420506, Note_on_c, 0, 52, 100
2, 421361, Note_off_c, 0, 53, 100
2, 421375, Note_on_c, 0, 50, 100
2, 421517, Note_off_c, 0, 50, 100
2, 421716, Note_off_c, 0, 52, 100
2, 422275, Note_on_c, 0, 50, 100
2, 423133, Note_on_c, 0, 49, 100
2, 423265, Note_off_c, 0, 50, 100
2, 423933, Note_on_c, 0, 47, 100
2, 424669, Note_on_c, 0, 46, 100
2, 424797, Note_off_c, 0, 49, 100
2, 425342, Note_on_c, 0, 45, 100
2, 425818, Note_off_c, 0, 47, 100
2, 425961, Note_off_c, 0, 45, 100
2, 425961, Note_on_c, 0, 45, 100
2, 426289, Note_off_c, 0, 46, 100
2, 426329, Note_off_c, 0, 45, 100
2, 426541, Note_on_c, 0, 45, 100
2, 427102, Note_off_c, 0, 45, 100
2, 427102, Note_on_c, 0, 45, 100
2, 427693, Note_on_c, 0, 46, 100
2, 428120, Note_off_c, 0, 45, 100
2, 428549, Note_on_c, 0, 48, 100
2, 428735, Note_off_c, 0, 46, 100
2, 429340, Note_off_c, 0, 48, 100
2, 429368, Note_on_c, 0, 50, 100
2, 429797, Note_off_c, 0, 50, 100
2, 430143, Note_on_c, 0, 51, 100
2, 430285, Note_off_c, 0, 51, 100
2, 430872, Note_on_c, 0, 54, 100
2, 431012, Note_off_c, 0, 54, 100
2, 431562, Note_on_c, 0, 56, 100
2, 431735, Note_off_c, 0, 56, 100
2, 432223, Note_on_c, 0, 59, 100
2, 432631, Note_off_c, 0, 59, 100
2, 432870, Note_on_c, 0, 61, 100
2, 433464, Note_off_c, 0, 61, 100
2, 433519, Note_on_c, 0, 64, 100
2, 434094, Note_off_c, 0, 64, 100
2, 434184, Note_on_c, 0, 65, 100
2, 434460, Note_off_c, 0, 65, 100
2, 434886, Note_on_c, 0, 66, 100
2, 435334, Note_off_c, 0, 66, 100
2, 435607, Note_on_c, 0, 67, 100
2, 436337, Note_off_c, 0, 67, 100
2, 436337, Note_on_c, 0, 67, 100
2, 437102, Note_on_c, 0, 66, 100
2, 437840, Note_off_c, 0, 67, 100
2, 437874, Note_on_c, 0, 64, 100
2, 438639, Note_on_c, 0, 62, 100
2, 438709, Note_off_c, 0, 66, 100
2, 439142, Note_off_c, 0, 64, 100
2, 439178, Note_off_c, 0, 62, 100
2, 439383, Note_on_c, 0, 59, 100
2, 439961, Note_off_c, 0, 59, 100
2, 440096, Note_on_c, 0, 56, 100
2, 440770, Note_on_c, 0, 53, 100
2, 441408, Note_on_c, 0, 50, 100
2, 441523, Note_off_c, 0, 56, 100
2, 442143, Note_on_c, 0, 48, 100
2, 442710, Note_off_c, 0, 53, 100
2, 442991, Note_on_c, 0, 45, 100
2, 443365, Note_off_c, 0, 50, 100
2, 443618, Note_off_c, 0, 48, 100
2, 443640, Note_off_c, 0, 45, 100
2, 443839, Note_on_c, 0, 43, 100
2, 444294, Note_off_c, 0, 43, 100
2, 444667, Note_on_c, 0, 41, 100
2, 445457, Note_on_c, 0, 40, 100
2, 445852, Note_off_c, 0, 41, 100
2, 446195, Note_off_c, 0, 40, 100
2, 446195, Note_on_c, 0, 40, 100
2, 446875, Note_off_c, 0, 40, 100
2, 446875, Note_on_c, 0, 40, 100
2, 447497, Note_on_c, 0, 41, 100
2, 447914, Note_off_c, 0, 40, 100
2, 447966, Note_off_c, 0, 41, 100
2, 448069, Note_on_c, 0, 42, 100
2, 448293, Note_off_c, 0, 42, 100
2, 448606, Note_on_c, 0, 44, 100
2, 449107, Note_off_c, 0, 44, 100
2, 449430, Note_on_c, 0, 46, 100
2, 449940, Note_off_c, 0, 46, 100
2, 450338, Note_on_c, 0, 49, 100
2, 450665, Note_off_c, 0, 49, 100
2, 451214, Note_on_c, 0, 50, 100
2, 451321, Note_off_c, 0, 50, 100
2, 452038, Note_on_c, 0, 53, 100
2, 452217, Note_off_c, 0, 53, 100
2, 452798, Note_on_c, 0, 55, 100
2, 452933, Note_off_c, 0, 55, 100
2, 453491, Note_on_c, 0, 57, 100
2, 453947, Note_off_c, 0, 57, 100
2, 454118, Note_on_c, 0, 58, 100
2, 454693, Note_on_c, 0, 59, 100
2, 454964, Note_off_c, 0, 58, 100
2, 455233, Note_on_c, 0, 60, 100
2, 455762, Note_off_c, 0, 60, 100
2, 455762, Note_on_c, 0, 60, 100
2, 455812, Note_off_c, 0, 59, 100
2, 456485, Note_off_c, 0, 60, 100
2, 456658, Note_on_c, 0, 59, 100
2, 456809, Note_off_c, 0, 59, 100
2, 457527, Note_on_c, 0, 59, 100
2, 458349, Note_on_c, 0, 58, 100
2, 458479, Note_off_c, 0, 59, 100
2, 459116, Note_on_c, 0, 57, 100
2, 459826, Note_on_c, 0, 55, 100
2, 459966, Note_off_c, 0, 58, 100
2, 460487, Note_on_c, 0, 54, 100
2, 461032, Note_off_c, 0, 57, 100
2, 461112, Note_on_c, 0, 53, 100
2, 461246, Note_off_c, 0, 53, 100
2, 461549, Note_off_c, 0, 55, 100
2, 461556, Note_off_c, 0, 54, 100
2, 461717, Note_on_c, 0, 53, 100
2, 462321, Note_on_c, 0, 52, 100
2, 462715, Note_off_c, 0, 53, 100
2, 462979, Note_off_c, 0, 52, 100
2, 462979, Note_on_c, 0, 52, 100
2, 463772, Note_on_c, 0, 53, 100
2, 464530, Note_off_c, 0, 53, 100
2, 464530, Note_on_c, 0, 53, 100
2, 464868, Note_off_c, 0, 52, 100
2, 465254, Note_on_c, 0, 54, 100
2, 465461, Note_off_c, 0, 54, 100
2, 465514, Note_off_c, 0, 53, 100
2, 465949, Note_on_c, 0, 54, 100
2, 466600, Note_off_c, 0, 54, 100
2, 466626, Note_on_c, 0, 55, 100
2, 467299, Note_on_c, 0, 56, 100
2, 467652, Note_off_c, 0, 55, 100
2, 468018, Note_on_c, 0, 57, 100
2, 468349, Note_off_c, 0, 56, 100
2, 468753, Note_off_c, 0, 57, 100
2, 468753, Note_on_c, 0, 57, 100
2, 469185, Note_off_c, 0, 57, 100
2, 469460, Note_on_c, 0, 57, 100
2, 469601, Note_off_c, 0, 57, 100
2, 470182, Note_on_c, 0, 56, 100
2, 470325, Note_off_c, 0, 56, 100
2, 470970, Note_on_c, 0, 56, 100
2, 471136, Note_off_c, 0, 56, 100
2, 471773, Note_on_c, 0, 54, 100
2, 472173, Note_off_c, 0, 54, 100
2, 472577, Note_on_c, 0, 53, 100
2, 473163, Note_off_c, 0, 53, 100
2, 473364, Note_on_c, 0, 51, 100
2, 473932, Note_off_c, 0, 51, 100
2, 474120, Note_on_c, 0, 50, 100
2, 474390, Note_off_c, 0, 50, 100
2, 474834, Note_on_c, 0, 48, 100
2, 475284, Note_off_c, 0, 48, 100
2, 475498, Note_on_c, 0, 46, 100
2, 476116, Note_on_c, 0, 44, 100
2, 476548, Note_off_c, 0, 46, 100
2, 476694, Note_on_c, 0, 43, 100
2, 477470, Note_on_c, 0, 42, 100
2, 477615, Note_off_c, 0, 44, 100
2, 478295, Note_off_c, 0, 43, 100
2, 478360, Note_on_c, 0, 41, 100
2, 478730, Note_off_c, 0, 42, 100
2, 478890, Note_off_c, 0, 41, 100
2, 479232, Note_on_c, 0, 41, 100
2, 479817, Note_off_c, 0, 41, 100
2, 480066, Note_on_c, 0, 42, 100
2, 480846, Note_on_c, 0, 44, 100
2, 481498, Note_off_c, 0, 42, 100
2, 481561, Note_on_c, 0, 46, 100
2, 482210, Note_on_c, 0, 48, 100
2, 482788, Note_off_c, 0, 44, 100
2, 482800, Note_on_c, 0, 50, 100
2, 483344, Note_on_c, 0, 53, 100
2, 483442, Note_off_c, 0, 50, 100
2, 483517, Note_off_c, 0, 46, 100
2, 483681, Note_off_c, 0, 48, 100
2, 483807, Note_off_c, 0, 53, 100
2, 483864, Note_on_c, 0, 56, 100
2, 484738, Note_on_c, 0, 59, 100
2, 485057, Note_off_c, 0, 56, 100
2, 485638, Note_on_c, 0, 62, 100
2, 486284, Note_off_c, 0, 59, 100
2, 486495, Note_on_c, 0, 64, 100
2, 487102, Note_off_c, 0, 62, 100
2, 487295, Note_on_c, 0, 66, 100
2, 487536, Note_off_c, 0, 64, 100
2, 487762, Note_off_c, 0, 66, 100
2, 488030, Note_on_c, 0, 67, 100
2, 488259, Note_off_c, 0, 67, 100
2, 488702, Note_on_c, 0, 67, 100
2, 489211, Note_off_c, 0, 67, 100
2, 489320, Note_on_c, 0, 67, 100
2, 489838, Note_off_c, 0, 67, 100
2, 489900, Note_on_c, 0, 66, 100
2, 490235, Note_off_c, 0, 66, 100
2, 490460, Note_on_c, 0, 65, 100
2, 490574, Note_off_c, 0, 65, 100
2, 491056, Note_on_c, 0, 63, 100
2, 491231, Note_off_c, 0, 63, 100
2, 491911, Note_on_c, 0, 60, 100
2, 492047, Note_off_c, 0, 60, 100
2, 492731, Note_on_c, 0, 57, 100
2, 493184, Note_off_c, 0, 57, 100
2, 493506, Note_on_c, 0, 54, 100
2, 494235, Note_on_c, 0, 51, 100
2, 494347, Note_off_c, 0, 54, 100
2, 494925, Note_on_c, 0, 49, 100
2, 495346, Note_off_c, 0, 51, 100
2, 495585, Note_on_c, 0, 47, 100
2, 496019, Note_off_c, 0, 49, 100
2, 496232, Note_on_c, 0, 45, 100
2, 496300, Note_off_c, 0, 47, 100
2, 496389, Note_off_c, 0, 45, 100
2, 496880, Note_on_c, 0, 44, 100
2, 497544, Note_on_c, 0, 43, 100
2, 497836, Note_off_c, 0, 44, 100
2, 498247, Note_on_c, 0, 42, 100
2, 498969, Note_off_c, 0, 43, 100
2, 498969, Note_on_c, 0, 43, 100
2, 499695, Note_off_c, 0, 43, 100
2, 499695, Note_on_c, 0, 43, 100
2, 500161, Note_off_c, 0, 42, 100
2, 500460, Note_on_c, 0, 45, 100
2, 500585, Note_off_c, 0, 45, 100
2, 500756, Note_off_c, 0, 43, 100
2, 501232, Note_on_c, 0, 46, 100
2, 501997, Note_on_c, 0, 48, 100
2, 502238, Note_off_c, 0, 46, 100
2, 502741, Note_on_c, 0, 50, 100
2, 503453, Note_on_c, 0, 51, 100
2, 503673, Note_off_c, 0, 48, 100
2, 504128, Note_on_c, 0, 52, 100
2, 504633, Note_off_c, 0, 50, 100
2, 504766, Note_on_c, 0, 54, 100
2, 504967, Note_off_c, 0, 54, 100
2, 505073, Note_off_c, 0, 51, 100
2, 505108, Note_off_c, 0, 52, 100
2, 505504, Note_on_c, 0, 55, 100
2, 506163, Note_off_c, 0, 55, 100
2, 506352, Note_on_c, 0, 55, 100
2, 507199, Note_on_c, 0, 56, 100
2, 507387, Note_off_c, 0, 55, 100
2, 508026, Note_off_c, 0, 56, 100
2, 508026, Note_on_c, 0, 56, 100
2, 508815, Note_on_c, 0, 55, 100
2, 508828, Note_off_c, 0, 56, 100
2, 509250, Note_off_c, 0, 55, 100
2, 509553, Note_on_c, 0, 55, 100
2, 509694, Note_off_c, 0, 55, 100
2, 510233, Note_on_c, 0, 54, 100
2, 510380, Note_off_c, 0, 54, 100
2, 510854, Note_on_c, 0, 53, 100
2, 511014, Note_off_c, 0, 53, 100
2, 511426, Note_on_c, 0, 53, 100
2, 511818, Note_off_c, 0, 53, 100
2, 511963, Note_on_c, 0, 52, 100
2, 512540, Note_off_c, 0, 52, 100
2, 512793, Note_on_c, 0, 52, 100
2, 513353, Note_off_c, 0, 52, 100
2, 513700, Note_on_c, 0, 52, 100
2, 513965, Note_off_c, 0, 52, 100
2, 514575, Note_on_c, 0, 52, 100
2, 515028, Note_off_c, 0, 52, 100
2, 515399, Note_on_c, 0, 53, 100
2, 516159, Note_off_c, 0, 53, 100
2, 516159, Note_on_c, 0, 53, 100
2, 516850, Note_on_c, 0, 55, 100
2, 517477, Note_on_c, 0, 56, 100
2, 517654, Note_off_c, 0, 53, 100
2, 518051, Note_on_c, 0, 57, 100
2, 518444, Note_off_c, 0, 55, 100
2, 518573, Note_off_c, 0, 57, 100
2, 518591, Note_on_c, 0, 59, 100
2, 518728, Note_off_c, 0, 56, 100
2, 519120, Note_on_c, 0, 60, 100
2, 519184, Note_off_c, 0, 59, 100
2, 520021, Note_on_c, 0, 61, 100
2, 520557, Note_off_c, 0, 60, 100
2, 520890, Note_off_c, 0, 61, 100
2, 520890, Note_on_c, 0, 61, 100
2, 521712, Note_off_c, 0, 61, 100
2, 521712, Note_on_c, 0, 61, 100
2, 522478, Note_off_c, 0, 61, 100
2, 522478, Note_on_c, 0, 61, 100
2, 523178, Note_off_c, 0, 61, 100
2, 523188, Note_on_c, 0, 60, 100
2, 523660, Note_off_c, 0, 60, 100
2, 523848, Note_on_c, 0, 58, 100
2, 524472, Note_on_c, 0, 56, 100
2, 525050, Note_off_c, 0, 58, 100
2, 525077, Note_on_c, 0, 54, 100
2, 525680, Note_on_c, 0, 51, 100
2, 526025, Note_off_c, 0, 56, 100
2, 526340, Note_on_c, 0, 50, 100
2, 526546, Note_off_c, 0, 54, 100
2, 526722, Note_off_c, 0, 51, 100
2, 526806, Note_off_c, 0, 50, 100
2, 527134, Note_on_c, 0, 47, 100
2, 527368, Note_off_c, 0, 47, 100
2, 527892, Note_on_c, 0, 45, 100
2, 528408, Note_off_c, 0, 45, 100
2, 528616, Note_on_c, 0, 42, 100
2, 529143, Note_off_c, 0, 42, 100
2, 529311, Note_on_c, 0, 41, 100
2, 529654, Note_off_c, 0, 41, 100
2, 529988, Note_on_c, 0, 40, 100
2, 530109, Note_off_c, 0, 40, 100
2, 530661, Note_on_c, 0, 39, 100
2, 530832, Note_off_c, 0, 39, 100
2, 531376, Note_on_c, 0, 39, 100
2, 531513, Note_off_c, 0, 39, 100
2, 532112, Note_on_c, 0, 40, 100
2, 532563, Note_off_c, 0, 40, 100
2, 532819, Note_on_c, 0, 42, 100
2, 533542, Note_on_c, 0, 44, 100
2, 533655, Note_off_c, 0, 42, 100
2, 534330, Note_on_c, 0, 47, 100
2, 534646, Note_off_c, 0, 44, 100
2, 535132, Note_on_c, 0, 50, 100
2, 535416, Note_off_c, 0, 47, 100
2, 535839, Note_off_c, 0, 50, 100
2, 535935, Note_on_c, 0, 52, 100
2, 536099, Note_off_c, 0, 52, 100
2, 536722, Note_on_c, 0, 55, 100
2, 537478, Note_on_c, 0, 58, 100
2, 537681, Note_off_c, 0, 55, 100
2, 538191, Note_on_c, 0, 61, 100
2, 538855, Note_on_c, 0, 63, 100
2, 539097, Note_off_c, 0, 58, 100
2, 539473, Note_on_c, 0, 65, 100
2, 540052, Note_on_c, 0, 66, 100
2, 540102, Note_off_c, 0, 61, 100
2, 540169, Note_off_c, 0, 66, 100
2, 540526, Note_off_c, 0, 65, 100
2, 540567, Note_off_c, 0, 63, 100
2, 540832, Note_on_c, 0, 66, 100
2, 541721, Note_off_c, 0, 66, 100
2, 541721, Note_on_c, 0, 66, 100
2, 542592, Note_on_c, 0, 65, 100
2, 543403, Note_off_c, 0, 66, 100
2, 543426, Note_on_c, 0, 64, 100
2, 544205, Note_on_c, 0, 62, 100
2, 544487, Note_off_c, 0, 65, 100
2, 544920, Note_on_c, 0, 60, 100
2, 545046, Note_off_c, 0, 64, 100
2, 545115, Note_off_c, 0, 60, 100
2, 545182, Note_off_c, 0, 62, 100
2, 545568, Note_on_c, 0, 57, 100
2, 546157, Note_on_c, 0, 55, 100
2, 546235, Note_off_c, 0, 57, 100
2, 546702, Note_on_c, 0, 52, 100
2, 547200, Note_off_c, 0, 55, 100
2, 547221, Note_on_c, 0, 50, 100
2, 547767, Note_off_c, 0, 52, 100
2, 548029, Note_off_c, 0, 50, 100
2, 548100, Note_on_c, 0, 49, 100
2, 548538, Note_off_c, 0, 49, 100
2, 549000, Note_on_c, 0, 48, 100
2, 549140, Note_off_c, 0, 48, 100
2, 549857, Note_on_c, 0, 47, 100
2, 550008, Note_off_c, 0, 47, 100
2, 550657, Note_on_c, 0, 46, 100
2, 550811, Note_off_c, 0, 46, 100
2, 551391, Note_on_c, 0, 46, 100
2, 551775, Note_off_c, 0, 46, 100
2, 552063, Note_on_c, 0, 47, 100
2, 552632, Note_off_c, 0, 47, 100
2, 552680, Note_on_c, 0, 47, 100
2, 553233, Note_off_c, 0, 47, 100
2, 553259, Note_on_c, 0, 48, 100
2, 553519, Note_off_c, 0, 48, 100
2, 553819, Note_on_c, 0, 49, 100
2, 554274, Note_off_c, 0, 49, 100
2, 554418, Note_on_c, 0, 50, 100
2, 555274, Note_on_c, 0, 51, 100
2, 555466, Note_off_c, 0, 50, 100
2, 556093, Note_on_c, 0, 52, 100
2, 556765, Note_off_c, 0, 51, 100
2, 556869, Note_off_c, 0, 52, 100
2, 556869, Note_on_c, 0, 52, 100
2, 557598, Note_on_c, 0, 53, 100
2, 558111, Note_off_c, 0, 53, 100
2, 558112, Note_off_c, 0, 52, 100
2, 558287, Note_on_c, 0, 53, 100
2, 558887, Note_off_c, 0, 53, 100
2, 558947, Note_on_c, 0, 53, 100
2, 559593, Note_on_c, 0, 52, 100
2, 560241, Note_on_c, 0, 51, 100
2, 560389, Note_off_c, 0, 53, 100
2, 560904, Note_off_c, 0, 51, 100
2, 560904, Note_on_c, 0, 51, 100
2, 561539, Note_off_c, 0, 52, 100
2, 561607, Note_on_c, 0, 50, 100
2, 562235, Note_off_c, 0, 50, 100
2, 562330, Note_on_c, 0, 50, 100
2, 562366, Note_off_c, 0, 51, 100
2, 562810, Note_off_c, 0, 50, 100
2, 563054, Note_on_c, 0, 49, 100
2, 563818, Note_off_c, 0, 49, 100
2, 563818, Note_on_c, 0, 49, 100
2, 564589, Note_off_c, 0, 49, 100
2, 564589, Note_on_c, 0, 49, 100
2, 565354, Note_on_c, 0, 50, 100
2, 566063, Note_off_c, 0, 49, 100
2, 566098, Note_off_c, 0, 50, 100
2, 566098, Note_on_c, 0, 50, 100
2, 566562, Note_off_c, 0, 50, 100
2, 566810, Note_on_c, 0, 51, 100
2, 567049, Note_off_c, 0, 51, 100
2, 567486, Note_on_c, 0, 52, 100
2, 568009, Note_off_c, 0, 52, 100
2, 568124, Note_on_c, 0, 54, 100
2, 568659, Note_off_c, 0, 54, 100
2, 568865, Note_on_c, 0, 56, 100
2, 569217, Note_off_c, 0, 56, 100
2, 569712, Note_on_c, 0, 58, 100
2, 569839, Note_off_c, 0, 58, 100
2, 570558, Note_on_c, 0, 60, 100
2, 570724, Note_off_c, 0, 60, 100
2, 571385, Note_on_c, 0, 62, 100
2, 571523, Note_off_c, 0, 62, 100
2, 572174, Note_on_c, 0, 63, 100
2, 572623, Note_off_c, 0, 63, 100
2, 572911, Note_on_c, 0, 64, 100
2, 573590, Note_on_c, 0, 65, 100
2, 573741, Note_off_c, 0, 64, 100
2, 574212, Note_on_c, 0, 64, 100
2, 574686, Note_off_c, 0, 65, 100
2, 574783, Note_off_c, 0, 64, 100
2, 574783, Note_on_c, 0, 64, 100
2, 575320, Note_on_c, 0, 62, 100
2, 575482, Note_off_c, 0, 64, 100
2, 575490, Note_off_c, 0, 62, 100
2, 576155, Note_on_c, 0, 60, 100
2, 577062, Note_on_c, 0, 58, 100
2, 577118, Note_off_c, 0, 60, 100
2, 577937, Note_on_c, 0, 55, 100
2, 578681, Note_off_c, 0, 58, 100
2, 578760, Note_on_c, 0, 52, 100
2, 579519, Note_on_c, 0, 50, 100
2, 579845, Note_off_c, 0, 55, 100
2, 580209, Note_on_c, 0, 47, 100
2, 580317, Note_off_c, 0, 47, 100
2, 580466, Note_off_c, 0, 52, 100
2, 580564, Note_off_c, 0, 50, 100
2, 580836, Note_on_c, 0, 44, 100
2, 581409, Note_on_c, 0, 42, 100
2, 581858, Note_off_c, 0, 44, 100
2, 581949, Note_on_c, 0, 40, 100
2, 582482, Note_on_c, 0, 39, 100
2, 583097, Note_off_c, 0, 42, 100
2, 583383, Note_off_c, 0, 39, 100
2, 583383, Note_on_c, 0, 39, 100
2, 583848, Note_off_c, 0, 40, 100
2, 584253, Note_off_c, 0, 39, 100
2, 584253, Note_on_c, 0, 39, 100
2, 584442, Note_off_c, 0, 39, 100
2, 585074, Note_on_c, 0, 40, 100
2, 585749, Note_off_c, 0, 40, 100
2, 585840, Note_on_c, 0, 41, 100
2, 586550, Note_on_c, 0, 43, 100
2, 586892, Note_off_c, 0, 41, 100
2, 587210, Note_on_c, 0, 46, 100
2, 587623, Note_off_c, 0, 43, 100
2, 587833, Note_on_c, 0, 49, 100
2, 588024, Note_off_c, 0, 46, 100
2, 588274, Note_off_c, 0, 49, 100
2, 588437, Note_on_c, 0, 51, 100
2, 588577, Note_off_c, 0, 51, 100
2, 589039, Note_on_c, 0, 54, 100
2, 589194, Note_off_c, 0, 54, 100
2, 589702, Note_on_c, 0, 57, 100
2, 589849, Note_off_c, 0, 57, 100
2, 590496, Note_on_c, 0, 59, 100
2, 590872, Note_off_c, 0, 59, 100
2, 591255, Note_on_c, 0, 61, 100
2, 591816, Note_off_c, 0, 61, 100
2, 591979, Note_on_c, 0, 63, 100
2, 592524, Note_off_c, 0, 63, 100
2, 592674, Note_on_c, 0, 63, 100
2, 592928, Note_off_c, 0, 63, 100
2, 593351, Note_on_c, 0, 64, 100
2, 593808, Note_off_c, 0, 64, 100
2, 594024, Note_on_c, 0, 63, 100
2, 594733, Note_off_c, 0, 63, 100
2, 594733, Note_on_c, 0, 63, 100
2, 595470, Note_on_c, 0, 61, 100
2, 596178, Note_on_c, 0, 60, 100
2, 596220, Note_off_c, 0, 63, 100
2, 596902, Note_on_c, 0, 58, 100
2, 597050, Note_off_c, 0, 61, 100
2, 597407, Note_off_c, 0, 58, 100
2, 597413, Note_off_c, 0, 60, 100
2, 597689, Note_on_c, 0, 56, 100
2, 598296, Note_off_c, 0, 56, 100
2, 598491, Note_on_c, 0, 54, 100
2, 599293, Note_on_c, 0, 53, 100
2, 599938, Note_off_c, 0, 54, 100
2, 600080, Note_on_c, 0, 51, 100
2, 600835, Note_on_c, 0, 50, 100
2, 601241, Note_off_c, 0, 53, 100
2, 601548, Note_off_c, 0, 50, 100
2, 601548, Note_on_c, 0, 50, 100
2, 602031, Note_off_c, 0, 51, 100
2, 602213, Note_off_c, 0, 50, 100
2, 602213, Note_on_c, 0, 50, 100
2, 602701, Note_off_c, 0, 50, 100
2, 602830, Note_on_c, 0, 50, 100
2, 603409, Note_off_c, 0, 50, 100
2, 603409, Note_on_c, 0, 50, 100
2, 604194, Note_off_c, 0, 50, 100
2, 604194, Note_on_c, 0, 50, 100
2, 605082, Note_on_c, 0, 51, 100
2, 605672, Note_off_c, 0, 50, 100
2, 605953, Note_on_c, 0, 52, 100
2, 606127, Note_off_c, 0, 51, 100
2, 606414, Note_off_c, 0, 52, 100
2, 606786, Note_on_c, 0, 52, 100
2, 607030, Note_off_c, 0, 52, 100
2, 607564, Note_on_c, 0, 53, 100
2, 608095, Note_off_c, 0, 53, 100
2, 608278, Note_on_c, 0, 53, 100
2, 608822, Note_off_c, 0, 53, 100
2, 608926, Note_on_c, 0, 53, 100
2, 609286, Note_off_c, 0, 53, 100
2, 609515, Note_on_c, 0, 53, 100
2, 609649, Note_off_c, 0, 53, 100
2, 610059, Note_on_c, 0, 52, 100
2, 610221, Note_off_c, 0, 52, 100
2, 610578, Note_on_c, 0, 52, 100
2, 610716, Note_off_c, 0, 52, 100
2, 611463, Note_on_c, 0, 50, 100
2, 611909, Note_off_c, 0, 50, 100
2, 612363, Note_on_c, 0, 50, 100
2, 613188, Note_off_c, 0, 50, 100
2, 613219, Note_on_c, 0, 49, 100
2, 614018, Note_on_c, 0, 47, 100
2, 614307, Note_off_c, 0, 49, 100
2, 614753, Note_on_c, 0, 46, 100
2, 615087, Note_off_c, 0, 47, 100
2, 615423, Note_on_c, 0, 45, 100
2, 615444, Note_off_c, 0, 46, 100
2, 615600, Note_off_c, 0, 45, 100
2, 616040, Note_on_c, 0, 45, 100
2, 616618, Note_off_c, 0, 45, 100
2, 616618, Note_on_c, 0, 45, 100
2, 617177, Note_off_c, 0, 45, 100
2, 617177, Note_on_c, 0, 45, 100
2, 617780, Note_on_c, 0, 46, 100
2, 618636, Note_on_c, 0, 48, 100
2, 619082, Note_off_c, 0, 45, 100
2, 619456, Note_on_c, 0, 50, 100
2, 619480, Note_off_c, 0, 46, 100
2, 619556, Note_off_c, 0, 50, 100
2, 619673, Note_off_c, 0, 48, 100
2, 620231, Note_on_c, 0, 51, 100
2, 620961, Note_on_c, 0, 54, 100
2, 621261, Note_off_c, 0, 51, 100
2, 621649, Note_on_c, 0, 56, 100
2, 622309, Note_on_c, 0, 59, 100
2, 622655, Note_off_c, 0, 54, 100
2, 622955, Note_on_c, 0, 61, 100
2, 623551, Note_off_c, 0, 56, 100
2, 623602, Note_on_c, 0, 64, 100
2, 623785, Note_off_c, 0, 64, 100
2, 623925, Note_off_c, 0, 61, 100
2, 623928, Note_off_c, 0, 59, 100
2, 624264, Note_on_c, 0, 65, 100
2, 624947, Note_off_c, 0, 65, 100
2, 624968, Note_on_c, 0, 66, 100
2, 625691, Note_on_c, 0, 67, 100
2, 626028, Note_off_c, 0, 66, 100
2, 626412, Note_off_c, 0, 67, 100
2, 626412, Note_on_c, 0, 67, 100
2, 627175, Note_on_c, 0, 66, 100
2, 627231, Note_off_c, 0, 67, 100
2, 627618, Note_off_c, 0, 66, 100
2, 627946, Note_on_c, 0, 64, 100
2, 628085, Note_off_c, 0, 64, 100
2, 628711, Note_on_c, 0, 62, 100
2, 628869, Note_off_c, 0, 62, 100
2, 629455, Note_on_c, 0, 59, 100
2, 629596, Note_off_c, 0, 59, 100
2, 630168, Note_on_c, 0, 56, 100
2, 630536, Note_off_c, 0, 56, 100
2, 630843, Note_on_c, 0, 53, 100
2, 631395, Note_off_c, 0, 53, 100
2, 631483, Note_on_c, 0, 50, 100
2, 632021, Note_off_c, 0, 50, 100
2, 632227, Note_on_c, 0, 48, 100
2, 632476, Note_off_c, 0, 48, 100
2, 633073, Note_on_c, 0, 45, 100
2, 633532, Note_off_c, 0, 45, 100
2, 633918, Note_on_c, 0, 43, 100
2, 634744, Note_on_c, 0, 41, 100
2, 634964, Note_off_c, 0, 43, 100
2, 635532, Note_on_c, 0, 40, 100
2, 636226, Note_off_c, 0, 41, 100
2, 636269, Note_off_c, 0, 40, 100
2, 636269, Note_on_c, 0, 40, 100
2, 636948, Note_off_c, 0, 40, 100
2, 636948, Note_on_c, 0, 40, 100
2, 637496, Note_off_c, 0, 40, 100
2, 637569, Note_on_c, 0, 41, 100
2, 638140, Note_on_c, 0, 42, 100
2, 638183, Note_off_c, 0, 41, 100
2, 638677, Note_on_c, 0, 44, 100
2, 639518, Note_on_c, 0, 46, 100
2, 639592, Note_off_c, 0, 42, 100
2, 640424, Note_on_c, 0, 49, 100
2, 640626, Note_off_c, 0, 44, 100
2, 641298, Note_on_c, 0, 50, 100
2, 641467, Note_off_c, 0, 46, 100
2, 641876, Note_off_c, 0, 49, 100
2, 641912, Note_off_c, 0, 50, 100
2, 642121, Note_on_c, 0, 53, 100
2, 642618, Note_off_c, 0, 53, 100
2, 642879, Note_on_c, 0, 55, 100
2, 643569, Note_on_c, 0, 57, 100
2, 644106, Note_off_c, 0, 55, 100
2, 644194, Note_on_c, 0, 58, 100
2, 644767, Note_on_c, 0, 59, 100
2, 645142, Note_off_c, 0, 57, 100
2, 645306, Note_on_c, 0, 60, 100
2, 645676, Note_off_c, 0, 58, 100
2, 645765, Note_off_c, 0, 60, 100
2, 645813, Note_off_c, 0, 59, 100
2, 645845, Note_on_c, 0, 60, 100
2, 646094, Note_off_c, 0, 60, 100
2, 646746, Note_on_c, 0, 59, 100
2, 647284, Note_off_c, 0, 59, 100
2, 647615, Note_on_c, 0, 59, 100
2, 648167, Note_off_c, 0, 59, 100
2, 648437, Note_on_c, 0, 58, 100
2, 648805, Note_off_c, 0, 58, 100
2, 649203, Note_on_c, 0, 57, 100
2, 649344, Note_off_c, 0, 57, 100
2, 649912, Note_on_c, 0, 55, 100
2, 650070, Note_off_c, 0, 55, 100
2, 650571, Note_on_c, 0, 54, 100
2, 650710, Note_off_c, 0, 54, 100
2, 651193, Note_on_c, 0, 53, 100
2, 651636, Note_off_c, 0, 53, 100
2, 651797, Note_on_c, 0, 53, 100
2, 652398, Note_on_c, 0, 52, 100
2, 652616, Note_off_c, 0, 53, 100
2, 653063, Note_off_c, 0, 52, 100
2, 653063, Note_on_c, 0, 52, 100
2, 653858, Note_off_c, 0, 52, 100
2, 653858, Note_on_c, 0, 52, 100
2, 654541, Note_off_c, 0, 52, 100
2, 654617, Note_on_c, 0, 53, 100
2, 654800, Note_off_c, 0, 53, 100
2, 655342, Note_on_c, 0, 54, 100
2, 656037, Note_off_c, 0, 54, 100
2, 656037, Note_on_c, 0, 54, 100
2, 656714, Note_on_c, 0, 55, 100
2, 657386, Note_on_c, 0, 56, 100
2, 657656, Note_off_c, 0, 54, 100
2, 658091, Note_on_c, 0, 57, 100
2, 658616, Note_off_c, 0, 55, 100
2, 658829, Note_off_c, 0, 57, 100
2, 658829, Note_on_c, 0, 57, 100
2, 659080, Note_off_c, 0, 56, 100
2, 659121, Note_off_c, 0, 57, 100
2, 659537, Note_on_c, 0, 57, 100
2, 660263, Note_on_c, 0, 56, 100
2, 660575, Note_off_c, 0, 57, 100
2, 661049, Note_off_c, 0, 56, 100
2, 661049, Note_on_c, 0, 56, 100
2, 661850, Note_on_c, 0, 54, 100
2, 662652, Note_on_c, 0, 53, 100
2, 662954, Note_off_c, 0, 56, 100
2, 663437, Note_on_c, 0, 51, 100
2, 663469, Note_off_c, 0, 54, 100
2, 663614, Note_off_c, 0, 51, 100
2, 663619, Note_off_c, 0, 53, 100
2, 664192, Note_on_c, 0, 50, 100
2, 664883, Note_off_c, 0, 50, 100
2, 664905, Note_on_c, 0, 48, 100
2, 665570, Note_on_c, 0, 46, 100
2, 665974, Note_off_c, 0, 48, 100
2, 666188, Note_on_c, 0, 44, 100
2, 666658, Note_off_c, 0, 46, 100
2, 666767, Note_on_c, 0, 43, 100
2, 667013, Note_off_c, 0, 44, 100
2, 667213, Note_off_c, 0, 43, 100
2, 667556, Note_on_c, 0, 42, 100
2, 667694, Note_off_c, 0, 42, 100
2, 668444, Note_on_c, 0, 41, 100
2, 668606, Note_off_c, 0, 41, 100
2, 669314, Note_on_c, 0, 42, 100
2, 669448, Note_off_c, 0, 42, 100
2, 670146, Note_on_c, 0, 42, 100
2, 670506, Note_off_c, 0, 42, 100
2, 670923, Note_on_c, 0, 44, 100
2, 671467, Note_off_c, 0, 44, 100
2, 671637, Note_on_c, 0, 46, 100
2, 672167, Note_off_c, 0, 46, 100
2, 672284, Note_on_c, 0, 48, 100
2, 672528, Note_off_c, 0, 48, 100
2, 672873, Note_on_c, 0, 50, 100
2, 673334, Note_off_c, 0, 50, 100
2, 673416, Note_on_c, 0, 53, 100
2, 673935, Note_on_c, 0, 56, 100
2, 674461, Note_off_c, 0, 53, 100
2, 674826, Note_on_c, 0, 59, 100
2, 675413, Note_off_c, 0, 56, 100
2, 675725, Note_on_c, 0, 62, 100
2, 676393, Note_off_c, 0, 59, 100
2, 676582, Note_on_c, 0, 64, 100
2, 676943, Note_off_c, 0, 62, 100
2, 677070, Note_off_c, 0, 64, 100
2, 677380, Note_on_c, 0, 66, 100
2, 678001, Note_off_c, 0, 66, 100
2, 678114, Note_on_c, 0, 67, 100
2, 678783, Note_off_c, 0, 67, 100
2, 678783, Note_on_c, 0, 67, 100
2, 679399, Note_off_c, 0, 67, 100
2, 679399, Note_on_c, 0, 67, 100
2, 679977, Note_on_c, 0, 66, 100
2, 680536, Note_on_c, 0, 65, 100
2, 681142, Note_on_c, 0, 62, 100
2, 681143, Note_off_c, 0, 65, 100
2, 681347, Note_off_c, 0, 67, 100
2, 681424, Note_off_c, 0, 66, 100
2, 681647, Note_off_c, 0, 62, 100
2, 681999, Note_on_c, 0, 60, 100
2, 682819, Note_on_c, 0, 57, 100
2, 683234, Note_off_c, 0, 60, 100
2, 683594, Note_on_c, 0, 54, 100
2, 684323, Note_on_c, 0, 51, 100
2, 684399, Note_off_c, 0, 57, 100
2, 685012, Note_on_c, 0, 49, 100
2, 685081, Note_off_c, 0, 54, 100
2, 685370, Note_off_c, 0, 51, 100
2, 685469, Note_off_c, 0, 49, 100
2, 685671, Note_on_c, 0, 47, 100
2, 685925, Note_off_c, 0, 47, 100
2, 686316, Note_on_c, 0, 45, 100
2, 686861, Note_off_c, 0, 45, 100
2, 686962, Note_on_c, 0, 43, 100
2, 687523, Note_off_c, 0, 43, 100
2, 687624, Note_on_c, 0, 43, 100
2, 688000, Note_off_c, 0, 43, 100
2, 688329, Note_on_c, 0, 42, 100
2, 688476, Note_off_c, 0, 42, 100
2, 689053, Note_on_c, 0, 43, 100
2, 689207, Note_off_c, 0, 43, 100
2, 689770, Note_on_c, 0, 43, 100
2, 689910, Note_off_c, 0, 43, 100
2, 690533, Note_on_c, 0, 45, 100
2, 690974, Note_off_c, 0, 45, 100
2, 691304, Note_on_c, 0, 46, 100
2, 692068, Note_on_c, 0, 48, 100
2, 692118, Note_off_c, 0, 46, 100
2, 692812, Note_on_c, 0, 50, 100
2, 693141, Note_off_c, 0, 48, 100
2, 693525, Note_on_c, 0, 51, 100
2, 693864, Note_off_c, 0, 50, 100
2, 694200, Note_off_c, 0, 51, 100
2, 694201, Note_on_c, 0, 52, 100
2, 694390, Note_off_c, 0, 52, 100
2, 694841, Note_on_c, 0, 54, 100
2, 695588, Note_on_c, 0, 55, 100
2, 695815, Note_off_c, 0, 54, 100
2, 696433, Note_off_c, 0, 55, 100
2, 696433, Note_on_c, 0, 55, 100
2, 697278, Note_on_c, 0, 56, 100
2, 698103, Note_off_c, 0, 56, 100
2, 698103, Note_on_c, 0, 56, 100
2, 698332, Note_off_c, 0, 55, 100
2, 698890, Note_on_c, 0, 55, 100
2, 698998, Note_off_c, 0, 55, 100
2, 699125, Note_off_c, 0, 56, 100
2, 699627, Note_on_c, 0, 55, 100
2, 700305, Note_on_c, 0, 54, 100
2, 700672, Note_off_c, 0, 55, 100
2, 700926, Note_on_c, 0, 53, 100
2, 701497, Note_off_c, 0, 53, 100
2, 701497, Note_on_c, 0, 53, 100
2, 702011, Note_off_c, 0, 54, 100
2, 702035, Note_on_c, 0, 52, 100
2, 702880, Note_off_c, 0, 52, 100
2, 702880, Note_on_c, 0, 52, 100
2, 703050, Note_off_c, 0, 52, 100
2, 703116, Note_off_c, 0, 53, 100
2, 703786, Note_on_c, 0, 52, 100
2, 704485, Note_off_c, 0, 52, 100
2, 704660, Note_on_c, 0, 52, 100
2, 705481, Note_on_c, 0, 53, 100
2, 705737, Note_off_c, 0, 52, 100
2, 706239, Note_on_c, 0, 54, 100
2, 706577, Note_off_c, 0, 53, 100
2, 706928, Note_on_c, 0, 55, 100
2, 707069, Note_off_c, 0, 54, 100
2, 707377, Note_off_c, 0, 55, 100
2, 707553, Note_on_c, 0, 56, 100
2, 707691, Note_off_c, 0, 56, 100
2, 708126, Note_on_c, 0, 57, 100
2, 708292, Note_off_c, 0, 57, 100
2, 708664, Note_on_c, 0, 59, 100
2, 708791, Note_off_c, 0, 59, 100
2, 709208, Note_on_c, 0, 60, 100
2, 709559, Note_off_c, 0, 60, 100
2, 710109, Note_on_c, 0, 60, 100
2, 710644, Note_off_c, 0, 60, 100
2, 710978, Note_on_c, 0, 61, 100
2, 711501, Note_off_c, 0, 61, 100
2, 711800, Note_on_c, 0, 61, 100
2, 712039, Note_off_c, 0, 61, 100
2, 712565, Note_on_c, 0, 60, 100
2, 713029, Note_off_c, 0, 60, 100
2, 713273, Note_on_c, 0, 60, 100
2, 713932, Note_on_c, 0, 58, 100
2, 714316, Note_off_c, 0, 60, 100
2, 714554, Note_on_c, 0, 56, 100
2, 715156, Note_on_c, 0, 54, 100
2, 715405, Note_off_c, 0, 58, 100
2, 715758, Note_on_c, 0, 51, 100
2, 716114, Note_off_c, 0, 56, 100
2, 716238, Note_off_c, 0, 51, 100
2, 716366, Note_off_c, 0, 54, 100
2, 716425, Note_on_c, 0, 50, 100
2, 717053, Note_off_c, 0, 50, 100
2, 717220, Note_on_c, 0, 47, 100
2, 717980, Note_on_c, 0, 44, 100
2, 718682, Note_off_c, 0, 47, 100
2, 718705, Note_on_c, 0, 42, 100
2, 719400, Note_on_c, 0, 41, 100
2, 719933, Note_off_c, 0, 44, 100
2, 720077, Note_on_c, 0, 40, 100
2, 720651, Note_off_c, 0, 42, 100
2, 720677, Note_off_c, 0, 40, 100
2, 720749, Note_on_c, 0, 39, 100
2, 720842, Note_off_c, 0, 41, 100
2, 721262, Note_off_c, 0, 39, 100
2, 721449, Note_on_c, 0, 39, 100
2, 722187, Note_on_c, 0, 40, 100
2, 722692, Note_off_c, 0, 39, 100
2, 722896, Note_on_c, 0, 42, 100
2, 723623, Note_on_c, 0, 44, 100
2, 723774, Note_off_c, 0, 40, 100
2, 724387, Note_off_c, 0, 42, 100
2, 724408, Note_on_c, 0, 47, 100
2, 724671, Note_off_c, 0, 44, 100
2, 724863, Note_off_c, 0, 47, 100
2, 725209, Note_on_c, 0, 50, 100
2, 725469, Note_off_c, 0, 50, 100
2, 726010, Note_on_c, 0, 52, 100
2, 726563, Note_off_c, 0, 52, 100
2, 726795, Note_on_c, 0, 55, 100
2, 727364, Note_off_c, 0, 55, 100
2, 727550, Note_on_c, 0, 58, 100
2, 727934, Note_off_c, 0, 58, 100
2, 728262, Note_on_c, 0, 61, 100
2, 728416, Note_off_c, 0, 61, 100
2, 728927, Note_on_c, 0, 63, 100
2, 729078, Note_off_c, 0, 63, 100
2, 729545, Note_on_c, 0, 65, 100
2, 729685, Note_off_c, 0, 65, 100
2, 730125, Note_on_c, 0, 66, 100
2, 730563, Note_off_c, 0, 66, 100
2, 730918, Note_on_c, 0, 66, 100
2, 731726, Note_off_c, 0, 66, 100
2, 731805, Note_on_c, 0, 66, 100
2, 732674, Note_on_c, 0, 65, 100
2, 732870, Note_off_c, 0, 66, 100
2, 733506, Note_on_c, 0, 64, 100
2, 733717, Note_off_c, 0, 65, 100
2, 734173, Note_off_c, 0, 64, 100
2, 734283, Note_on_c, 0, 62, 100
2, 734478, Note_off_c, 0, 62, 100
2, 734995, Note_on_c, 0, 60, 100
2, 735642, Note_on_c, 0, 57, 100
2, 735972, Note_off_c, 0, 60, 100
2, 736230, Note_on_c, 0, 55, 100
2, 736773, Note_on_c, 0, 52, 100
2, 737262, Note_off_c, 0, 57, 100
2, 737292, Note_on_c, 0, 50, 100
2, 738125, Note_off_c, 0, 55, 100
2, 738189, Note_on_c, 0, 49, 100
2, 738306, Note_off_c, 0, 50, 100
2, 738306, Note_off_c, 0, 49, 100
2, 738455, Note_off_c, 0, 52, 100
2, 739088, Note_on_c, 0, 48, 100
2, 739944, Note_on_c, 0, 47, 100
2, 740141, Note_off_c, 0, 48, 100
2, 740742, Note_on_c, 0, 46, 100
2, 741475, Note_off_c, 0, 46, 100
2, 741475, Note_on_c, 0, 46, 100
2, 741656, Note_off_c, 0, 47, 100
2, 742144, Note_off_c, 0, 46, 100
2, 742144, Note_on_c, 0, 46, 100
2, 742759, Note_on_c, 0, 47, 100
2, 742923, Note_off_c, 0, 47, 100
2, 743103, Note_off_c, 0, 46, 100
2, 743336, Note_on_c, 0, 48, 100
2, 743894, Note_on_c, 0, 49, 100
2, 744043, Note_off_c, 0, 48, 100
2, 744504, Note_on_c, 0, 50, 100
2, 744980, Note_off_c, 0, 49, 100
2, 745361, Note_on_c, 0, 51, 100
2, 745608, Note_off_c, 0, 50, 100
2, 746182, Note_on_c, 0, 52, 100
2, 746197, Note_off_c, 0, 51, 100
2, 746633, Note_off_c, 0, 52, 100
2, 746957, Note_on_c, 0, 52, 100
2, 747094, Note_off_c, 0, 52, 100
2, 747686, Note_on_c, 0, 53, 100
2, 747857, Note_off_c, 0, 53, 100
2, 748374, Note_on_c, 0, 53, 100
2, 748495, Note_off_c, 0, 53, 100
2, 749033, Note_on_c, 0, 53, 100
2, 749376, Note_off_c, 0, 53, 100
2, 749678, Note_on_c, 0, 52, 100
2, 750205, Note_off_c, 0, 52, 100
2, 750323, Note_on_c, 0, 51, 100
2, 750839, Note_off_c, 0, 51, 100
2, 750984, Note_on_c, 0, 51, 100
2, 751218, Note_off_c, 0, 51, 100
2, 751689, Note_on_c, 0, 50, 100
2, 752155, Note_off_c, 0, 50, 100
2, 752414, Note_on_c, 0, 50, 100
2, 753128, Note_off_c, 0, 50, 100
2, 753128, Note_on_c, 0, 50, 100
2, 753891, Note_on_c, 0, 49, 100
2, 754597, Note_off_c, 0, 50, 100
2, 754661, Note_off_c, 0, 49, 100
2, 754661, Note_on_c, 0, 49, 100
2, 755425, Note_on_c, 0, 50, 100
2, 755863, Note_off_c, 0, 49, 100
2, 755897, Note_off_c, 0, 50, 100
2, 756169, Note_on_c, 0, 50, 100
2, 756804, Note_off_c, 0, 50, 100
2, 756883, Note_on_c, 0, 51, 100
2, 757559, Note_on_c, 0, 52, 100
2, 758199, Note_on_c, 0, 54, 100
2, 758349, Note_off_c, 0, 51, 100
2, 758949, Note_on_c, 0, 56, 100
2, 759513, Note_off_c, 0, 52, 100
2, 759794, Note_on_c, 0, 58, 100
2, 760143, Note_off_c, 0, 54, 100
2, 760386, Note_off_c, 0, 56, 100
2, 760387, Note_off_c, 0, 58, 100
2, 760638, Note_on_c, 0, 60, 100
2, 761160, Note_off_c, 0, 60, 100
2, 761462, Note_on_c, 0, 62, 100
2, 762249, Note_on_c, 0, 63, 100
2, 762713, Note_off_c, 0, 62, 100
2, 762985, Note_on_c, 0, 64, 100
2, 763663, Note_on_c, 0, 65, 100
2, 763843, Note_off_c, 0, 63, 100
2, 764283, Note_off_c, 0, 64, 100
2, 764283, Note_on_c, 0, 64, 100
2, 764712, Note_off_c, 0, 65, 100
2, 764736, Note_off_c, 0, 64, 100
2, 764854, Note_on_c, 0, 64, 100
2, 765119, Note_off_c, 0, 64, 100
2, 765392, Note_on_c, 0, 62, 100
2, 765952, Note_off_c, 0, 62, 100
2, 766243, Note_on_c, 0, 60, 100
2, 766821, Note_off_c, 0, 60, 100
2, 767148, Note_on_c, 0, 58, 100
2, 767540, Note_off_c, 0, 58, 100
2, 768021, Note_on_c, 0, 55, 100
2, 768181, Note_off_c, 0, 55, 100
2, 768842, Note_on_c, 0, 52, 100
2, 768989, Note_off_c, 0, 52, 100
2, 769599, Note_on_c, 0, 50, 100
2, 769740, Note_off_c, 0, 50, 100
2, 770288, Note_on_c, 0, 47, 100
2, 770723, Note_off_c, 0, 47, 100
2, 770912, Note_on_c, 0, 44, 100
2, 771484, Note_on_c, 0, 42, 100
2, 771714, Note_off_c, 0, 44, 100
2, 772022, Note_on_c, 0, 40, 100
2, 772542, Note_off_c, 0, 42, 100
2, 772570, Note_on_c, 0, 39, 100
2, 773057, Note_off_c, 0, 40, 100
2, 773229, Note_off_c, 0, 39, 100
2, 773472, Note_on_c, 0, 39, 100
2, 773673, Note_off_c, 0, 39, 100
2, 774341, Note_on_c, 0, 39, 100
2, 775162, Note_on_c, 0, 40, 100
2, 775321, Note_off_c, 0, 39, 100
2, 775927, Note_on_c, 0, 41, 100
2, 776635, Note_on_c, 0, 44, 100
2, 776782, Note_off_c, 0, 40, 100
2, 777293, Note_on_c, 0, 46, 100
2, 777819, Note_off_c, 0, 41, 100
2, 777915, Note_on_c, 0, 49, 100
2, 778040, Note_off_c, 0, 49, 100
2, 778299, Note_off_c, 0, 46, 100
2, 778311, Note_off_c, 0, 44, 100
2, 778516, Note_on_c, 0, 51, 100
2, 779117, Note_on_c, 0, 54, 100
2, 779577, Note_off_c, 0, 51, 100
2, 779786, Note_on_c, 0, 57, 100
2, 780582, Note_on_c, 0, 59, 100
2, 780835, Note_off_c, 0, 54, 100
2, 781342, Note_on_c, 0, 61, 100
2, 781700, Note_off_c, 0, 57, 100
2, 782067, Note_on_c, 0, 63, 100
2, 782200, Note_off_c, 0, 59, 100
2, 782224, Note_off_c, 0, 63, 100
2, 782298, Note_off_c, 0, 61, 100
2, 782763, Note_on_c, 0, 64, 100
2, 783439, Note_off_c, 0, 64, 100
2, 783439, Note_on_c, 0, 64, 100
2, 784111, Note_on_c, 0, 63, 100
2, 784533, Note_off_c, 0, 64, 100
2, 784807, Note_off_c, 0, 63, 100
2, 784807, Note_on_c, 0, 63, 100
2, 785545, Note_on_c, 0, 61, 100
2, 785648, Note_off_c, 0, 63, 100
2, 785998, Note_off_c, 0, 61, 100
2, 786256, Note_on_c, 0, 60, 100
2, 786392, Note_off_c, 0, 60, 100
2, 786983, Note_on_c, 0, 58, 100
2, 787158, Note_off_c, 0, 58, 100
2, 787768, Note_on_c, 0, 56, 100
2, 787882, Note_off_c, 0, 56, 100
2, 788568, Note_on_c, 0, 54, 100
2, 788903, Note_off_c, 0, 54, 100
2, 789368, Note_on_c, 0, 53, 100
2, 789886, Note_off_c, 0, 53, 100
2, 790153, Note_on_c, 0, 51, 100
2, 790662, Note_off_c, 0, 51, 100
2, 790907, Note_on_c, 0, 50, 100
2, 791136, Note_off_c, 0, 50, 100
2, 791620, Note_on_c, 0, 50, 100
2, 792087, Note_off_c, 0, 50, 100
2, 792284, Note_on_c, 0, 50, 100
2, 792902, Note_off_c, 0, 50, 100
2, 792902, Note_on_c, 0, 50, 100
2, 793482, Note_off_c, 0, 50, 100
2, 793482, Note_on_c, 0, 50, 100
2, 794280, Note_off_c, 0, 50, 100
2, 794280, Note_on_c, 0, 50, 100
2, 795166, Note_on_c, 0, 51, 100
2, 795473, Note_off_c, 0, 50, 100
2, 795629, Note_off_c, 0, 51, 100
2, 796035, Note_on_c, 0, 52, 100
2, 796677, Note_off_c, 0, 52, 100
2, 796866, Note_on_c, 0, 52, 100
2, 797642, Note_on_c, 0, 53, 100
2, 798337, Note_off_c, 0, 52, 100
2, 798354, Note_off_c, 0, 53, 100
2, 798354, Note_on_c, 0, 53, 100
2, 799000, Note_off_c, 0, 53, 100
2, 799000, Note_on_c, 0, 53, 100
2, 799588, Note_off_c, 0, 53, 100
2, 799588, Note_on_c, 0, 53, 100
2, 800131, Note_on_c, 0, 52, 100
2, 800432, Note_off_c, 0, 53, 100
2, 800649, Note_on_c, 0, 51, 100
2, 800661, Note_off_c, 0, 52, 100
2, 801551, Note_on_c, 0, 50, 100
2, 801909, Note_off_c, 0, 51, 100
2, 802450, Note_off_c, 0, 50, 100
2, 802450, Note_on_c, 0, 50, 100
2, 803306, Note_on_c, 0, 49, 100
2, 803949, Note_off_c, 0, 50, 100
2, 804103, Note_on_c, 0, 48, 100
2, 804356, Note_off_c, 0, 49, 100
2, 804553, Note_off_c, 0, 48, 100
2, 804836, Note_on_c, 0, 46, 100
2, 805106, Note_off_c, 0, 46, 100
2, 805504, Note_on_c, 0, 46, 100
2, 806072, Note_off_c, 0, 46, 100
2, 806118, Note_on_c, 0, 45, 100
2, 806694, Note_off_c, 0, 45, 100
2, 806694, Note_on_c, 0, 45, 100
2, 807094, Note_off_c, 0, 45, 100
2, 807252, Note_on_c, 0, 46, 100
2, 807418, Note_off_c, 0, 46, 100
2, 807866, Note_on_c, 0, 47, 100
2, 808009, Note_off_c, 0, 47, 100
2, 808724, Note_on_c, 0, 48, 100
2, 808865, Note_off_c, 0, 48, 100
2, 809545, Note_on_c, 0, 50, 100
2, 809977, Note_off_c, 0, 50, 100
2, 810320, Note_on_c, 0, 51, 100
2, 811049, Note_on_c, 0, 54, 100
2, 811116, Note_off_c, 0, 51, 100
2, 811737, Note_on_c, 0, 56, 100
2, 812099, Note_off_c, 0, 54, 100
2, 812395, Note_on_c, 0, 59, 100
2, 812763, Note_off_c, 0, 56, 100
2, 813039, Note_on_c, 0, 62, 100
2, 813046, Note_off_c, 0, 59, 100
2, 813246, Note_off_c, 0, 62, 100
2, 813684, Note_on_c, 0, 64, 100
2, 814344, Note_on_c, 0, 65, 100
2, 814668, Note_off_c, 0, 64, 100
2, 815050, Note_on_c, 0, 66, 100
2, 815775, Note_on_c, 0, 67, 100
2, 815964, Note_off_c, 0, 65, 100
2, 816486, Note_off_c, 0, 67, 100
2, 816486, Note_on_c, 0, 67, 100
2, 816939, Note_off_c, 0, 66, 100
2, 817248, Note_on_c, 0, 66, 100
2, 817382, Note_off_c, 0, 66, 100
2, 817484, Note_off_c, 0, 67, 100
2, 818018, Note_on_c, 0, 64, 100
2, 818782, Note_on_c, 0, 62, 100
2, 819087, Note_off_c, 0, 64, 100
2, 819527, Note_on_c, 0, 59, 100
2, 820240, Note_on_c, 0, 56, 100
2, 820505, Note_off_c, 0, 62, 100
2, 820917, Note_on_c, 0, 53, 100
2, 821443, Note_off_c, 0, 59, 100
2, 821558, Note_on_c, 0, 50, 100
2, 821709, Note_off_c, 0, 50, 100
2, 821857, Note_off_c, 0, 56, 100
2, 821869, Note_off_c, 0, 53, 100
2, 822310, Note_on_c, 0, 48, 100
2, 823033, Note_off_c, 0, 48, 100
2, 823154, Note_on_c, 0, 45, 100
2, 823997, Note_on_c, 0, 43, 100
2, 824257, Note_off_c, 0, 45, 100
2, 824821, Note_on_c, 0, 41, 100
2, 825116, Note_off_c, 0, 43, 100
2, 825607, Note_on_c, 0, 40, 100
2, 825667, Note_off_c, 0, 41, 100
2, 826063, Note_off_c, 0, 40, 100
2, 826343, Note_on_c, 0, 40, 100
2, 826478, Note_off_c, 0, 40, 100
2, 827020, Note_on_c, 0, 40, 100
2, 827199, Note_off_c, 0, 40, 100
2, 827641, Note_on_c, 0, 41, 100
2, 827748, Note_off_c, 0, 41, 100
2, 828212, Note_on_c, 0, 42, 100
2, 828539, Note_off_c, 0, 42, 100
2, 828749, Note_on_c, 0, 44, 100
2, 829259, Note_off_c, 0, 44, 100
2, 829605, Note_on_c, 0, 46, 100
2, 830106, Note_off_c, 0, 46, 100
2, 830510, Note_on_c, 0, 49, 100
2, 830734, Note_off_c, 0, 49, 100
2, 831382, Note_on_c, 0, 50, 100
2, 831851, Note_off_c, 0, 50, 100
2, 832203, Note_on_c, 0, 53, 100
2, 832959, Note_on_c, 0, 55, 100
2, 833242, Note_off_c, 0, 53, 100
2, 833647, Note_on_c, 0, 57, 100
2, 834271, Note_on_c, 0, 58, 100
2, 834419, Note_off_c, 0, 55, 100
2, 834842, Note_on_c, 0, 59, 100
2, 835186, Note_off_c, 0, 57, 100
2, 835297, Note_off_c, 0, 59, 100
2, 835379, Note_on_c, 0, 60, 100
2, 835456, Note_off_c, 0, 58, 100
2, 835933, Note_off_c, 0, 60, 100
2, 835933, Note_on_c, 0, 60, 100
2, 836835, Note_off_c, 0, 60, 100
2, 836835, Note_on_c, 0, 60, 100
2, 837704, Note_on_c, 0, 59, 100
2, 838525, Note_on_c, 0, 58, 100
2, 838792, Note_off_c, 0, 60, 100
2, 839289, Note_on_c, 0, 57, 100
2, 839644, Note_off_c, 0, 59, 100
2, 839867, Note_off_c, 0, 57, 100
2, 839952, Note_off_c, 0, 58, 100
2, 839997, Note_on_c, 0, 56, 100
2, 840536, Note_off_c, 0, 56, 100
2, 840654, Note_on_c, 0, 54, 100
2, 841275, Note_on_c, 0, 53, 100
2, 841876, Note_off_c, 0, 53, 100
2, 841876, Note_on_c, 0, 53, 100
2, 841922, Note_off_c, 0, 54, 100
2, 842476, Note_on_c, 0, 52, 100
2, 843148, Note_off_c, 0, 52, 100
2, 843148, Note_on_c, 0, 52, 100
2, 843379, Note_off_c, 0, 53, 100
2, 843596, Note_off_c, 0, 52, 100
2, 843944, Note_on_c, 0, 52, 100
2, 844220, Note_off_c, 0, 52, 100
2, 844705, Note_on_c, 0, 53, 100
2, 845280, Note_off_c, 0, 53, 100
2, 845430, Note_on_c, 0, 53, 100
2, 846024, Note_off_c, 0, 53, 100
2, 846126, Note_on_c, 0, 54, 100
2, 846534, Note_off_c, 0, 54, 100
2, 846802, Note_on_c, 0, 55, 100
2, 846975, Note_off_c, 0, 55, 100
2, 847474, Note_on_c, 0, 56, 100
2, 847614, Note_off_c, 0, 56, 100
2, 848165, Note_on_c, 0, 56, 100
2, 848307, Note_off_c, 0, 56, 100
2, 848904, Note_on_c, 0, 57, 100
2, 849333, Note_off_c, 0, 57, 100
2, 849615, Note_on_c, 0, 57, 100
2, 850343, Note_on_c, 0, 56, 100
2, 850406, Note_off_c, 0, 57, 100
2, 851127, Note_on_c, 0, 55, 100
2, 851385, Note_off_c, 0, 56, 100
2, 851927, Note_on_c, 0, 54, 100
2, 852145, Note_off_c, 0, 55, 100
2, 852570, Note_off_c, 0, 54, 100
2, 852726, Note_on_c, 0, 53, 100
2, 852939, Note_off_c, 0, 53, 100
2, 853511, Note_on_c, 0, 51, 100
2, 854265, Note_on_c, 0, 50, 100
2, 854498, Note_off_c, 0, 51, 100
2, 854977, Note_on_c, 0, 48, 100
2, 855641, Note_on_c, 0, 46, 100
2, 855885, Note_off_c, 0, 50, 100
2, 856260, Note_on_c, 0, 44, 100
2, 856840, Note_on_c, 0, 43, 100
2, 856862, Note_off_c, 0, 48, 100
2, 856982, Note_off_c, 0, 43, 100
2, 857250, Note_off_c, 0, 44, 100
2, 857305, Note_off_c, 0, 46, 100
2, 857642, Note_on_c, 0, 42, 100
2, 858527, Note_on_c, 0, 41, 100
2, 858718, Note_off_c, 0, 42, 100
2, 859395, Note_on_c, 0, 42, 100
2, 860225, Note_off_c, 0, 42, 100
2, 860225, Note_on_c, 0, 42, 100
2, 860256, Note_off_c, 0, 41, 100
2, 861001, Note_on_c, 0, 44, 100
2, 861713, Note_on_c, 0, 46, 100
2, 861842, Note_off_c, 0, 42, 100
2, 861857, Note_off_c, 0, 46, 100
2, 861949, Note_off_c, 0, 44, 100
2, 862358, Note_on_c, 0, 48, 100
2, 862945, Note_on_c, 0, 50, 100
2, 863089, Note_off_c, 0, 48, 100
2, 863488, Note_on_c, 0, 53, 100
2, 864007, Note_on_c, 0, 56, 100
2, 864056, Note_off_c, 0, 50, 100
2, 864614, Note_off_c, 0, 53, 100
2, 864859, Note_off_c, 0, 56, 100
2, 864914, Note_on_c, 0, 59, 100
2, 865372, Note_off_c, 0, 59, 100
2, 865813, Note_on_c, 0, 62, 100
2, 865947, Note_off_c, 0, 62, 100
2, 866668, Note_on_c, 0, 64, 100
2, 866851, Note_off_c, 0, 64, 100
2, 867465, Note_on_c, 0, 66, 100
2, 867565, Note_off_c, 0, 66, 100
2, 868197, Note_on_c, 0, 67, 100
2, 868516, Note_off_c, 0, 67, 100
2, 868864, Note_on_c, 0, 67, 100
2, 869366, Note_off_c, 0, 67, 100
2, 869478, Note_on_c, 0, 67, 100
2, 869972, Note_off_c, 0, 67, 100
2, 870053, Note_on_c, 0, 66, 100
2, 870272, Note_off_c, 0, 66, 100
2, 870610, Note_on_c, 0, 65, 100
2, 871081, Note_off_c, 0, 65, 100
2, 871229, Note_on_c, 0, 62, 100
2, 872087, Note_on_c, 0, 60, 100
2, 872266, Note_off_c, 0, 62, 100
2, 872907, Note_on_c, 0, 57, 100
2, 873542, Note_off_c, 0, 60, 100
2, 873683, Note_on_c, 0, 54, 100
2, 874411, Note_on_c, 0, 51, 100
2, 874438, Note_off_c, 0, 57, 100
2, 874858, Note_off_c, 0, 51, 100
2, 874860, Note_off_c, 0, 54, 100
2, 875099, Note_on_c, 0, 49, 100
2, 875755, Note_off_c, 0, 49, 100
2, 875757, Note_on_c, 0, 47, 100
2, 876400, Note_on_c, 0, 45, 100
2, 877044, Note_on_c, 0, 43, 100
2, 877237, Note_off_c, 0, 47, 100
2, 877704, Note_on_c, 0, 42, 100
2, 878358, Note_off_c, 0, 45, 100
2, 878411, Note_off_c, 0, 42, 100
2, 878411, Note_on_c, 0, 42, 100
2, 878982, Note_off_c, 0, 43, 100
2, 879126, Note_off_c, 0, 42, 100
2, 879137, Note_on_c, 0, 42, 100
2, 879684, Note_off_c, 0, 42, 100
2, 879844, Note_on_c, 0, 43, 100
2, 880606, Note_on_c, 0, 45, 100
2, 881120, Note_off_c, 0, 43, 100
2, 881376, Note_on_c, 0, 46, 100
2, 882140, Note_on_c, 0, 48, 100
2, 882220, Note_off_c, 0, 45, 100
2, 882884, Note_off_c, 0, 46, 100
2, 882884, Note_on_c, 0, 50, 100
2, 883192, Note_off_c, 0, 48, 100
2, 883329, Note_off_c, 0, 50, 100
2, 883597, Note_on_c, 0, 51, 100
2, 883878, Note_off_c, 0, 51, 100
2, 884275, Note_on_c, 0, 52, 100
2, 884858, Note_off_c, 0, 52, 100
2, 884916, Note_on_c, 0, 54, 100
2, 885519, Note_off_c, 0, 54, 100
2, 885671, Note_on_c, 0, 55, 100
2, 886087, Note_off_c, 0, 55, 100
2, 886515, Note_on_c, 0, 55, 100
2, 886694, Note_off_c, 0, 55, 100
2, 887357, Note_on_c, 0, 56, 100
2, 887493, Note_off_c, 0, 56, 100
2, 888180, Note_on_c, 0, 56, 100
2, 888322, Note_off_c, 0, 56, 100
2, 888965, Note_on_c, 0, 55, 100
2, 889391, Note_off_c, 0, 55, 100
2, 889701, Note_on_c, 0, 55, 100
2, 890378, Note_on_c, 0, 54, 100
2, 890486, Note_off_c, 0, 55, 100
2, 890998, Note_on_c, 0, 53, 100
2, 891412, Note_off_c, 0, 54, 100
2, 891569, Note_off_c, 0, 53, 100
2, 891569, Note_on_c, 0, 53, 100
2, 892106, Note_on_c, 0, 52, 100
2, 892204, Note_off_c, 0, 53, 100
2, 892325, Note_off_c, 0, 52, 100
2, 892968, Note_on_c, 0, 52, 100
2, 893872, Note_off_c, 0, 52, 100
2, 893872, Note_on_c, 0, 52, 100
2, 894744, Note_off_c, 0, 52, 100
2, 894744, Note_on_c, 0, 52, 100
2, 895564, Note_on_c, 0, 53, 100
2, 896319, Note_on_c, 0, 54, 100
2, 896626, Note_off_c, 0, 52, 100
2, 897007, Note_on_c, 0, 55, 100
2, 897158, Note_off_c, 0, 55, 100
2, 897222, Note_off_c, 0, 53, 100
2, 897301, Note_off_c, 0, 54, 100
2, 897629, Note_on_c, 0, 56, 100
2, 898200, Note_on_c, 0, 57, 100
2, 898713, Note_off_c, 0, 56, 100
2, 898737, Note_on_c, 0, 58, 100
2, 899296, Note_on_c, 0, 60, 100
2, 899935, Note_off_c, 0, 57, 100
2, 900198, Note_off_c, 0, 60, 100
2, 900198, Note_on_c, 0, 60, 100
2, 900659, Note_off_c, 0, 58, 100
2, 901067, Note_on_c, 0, 61, 100
2, 901142, Note_off_c, 0, 60, 100
2, 901205, Note_off_c, 0, 61, 100
2, 901888, Note_on_c, 0, 61, 100
2, 902627, Note_off_c, 0, 61, 100
2, 902652, Note_on_c, 0, 60, 100
2, 903359, Note_on_c, 0, 59, 100
2, 903772, Note_off_c, 0, 60, 100
2, 904016, Note_on_c, 0, 58, 100
2, 904492, Note_off_c, 0, 59, 100
2, 904635, Note_on_c, 0, 56, 100
2, 904873, Note_off_c, 0, 58, 100
2, 905095, Note_off_c, 0, 56, 100
2, 905236, Note_on_c, 0, 54, 100
2, 905368, Note_off_c, 0, 54, 100
2, 905835, Note_on_c, 0, 51, 100
2, 906023, Note_off_c, 0, 51, 100
2, 906509, Note_on_c, 0, 49, 100
2, 906607, Note_off_c, 0, 49, 100
2, 907306, Note_on_c, 0, 47, 100
2, 907616, Note_off_c, 0, 47, 100
2, 908067, Note_on_c, 0, 44, 100
2, 908560, Note_off_c, 0, 44, 100
2, 908793, Note_on_c, 0, 42, 100
2, 909280, Note_off_c, 0, 42, 100
2, 909488, Note_on_c, 0, 41, 100
2, 909702, Note_off_c, 0, 41, 100
2, 910165, Note_on_c, 0, 40, 100
2, 910638, Note_off_c, 0, 40, 100
2, 910836, Note_on_c, 0, 39, 100
2, 911523, Note_off_c, 0, 39, 100
2, 911523, Note_on_c, 0, 39, 100
2, 912262, Note_on_c, 0, 40, 100
2, 912973, Note_off_c, 0, 39, 100
2, 912974, Note_on_c, 0, 42, 100
2, 913703, Note_on_c, 0, 44, 100
2, 913786, Note_off_c, 0, 40, 100
2, 914141, Note_off_c, 0, 44, 100
2, 914142, Note_off_c, 0, 42, 100
2, 914487, Note_on_c, 0, 47, 100
2, 915150, Note_off_c, 0, 47, 100
2, 915285, Note_on_c, 0, 50, 100
2, 916084, Note_on_c, 0, 52, 100
2, 916769, Note_off_c, 0, 50, 100
2, 916868, Note_on_c, 0, 55, 100
2, 917622, Note_on_c, 0, 58, 100
2, 918043, Note_off_c, 0, 52, 100
2, 918334, Note_on_c, 0, 61, 100
2, 918804, Note_off_c, 0, 55, 100
2, 918897, Note_off_c, 0, 61, 100
2, 918999, Note_on_c, 0, 63, 100
2, 919039, Note_off_c, 0, 58, 100
2, 919555, Note_off_c, 0, 63, 100
2, 919617, Note_on_c, 0, 65, 100
2, 920198, Note_on_c, 0, 66, 100
2, 920901, Note_off_c, 0, 65, 100
2, 921003, Note_off_c, 0, 66, 100
2, 921003, Note_on_c, 0, 66, 100
2, 921889, Note_off_c, 0, 66, 100
2, 921889, Note_on_c, 0, 66, 100
2, 922756, Note_on_c, 0, 65, 100
2, 922941, Note_off_c, 0, 66, 100
2, 923198, Note_off_c, 0, 65, 100
2, 923585, Note_on_c, 0, 64, 100
2, 923872, Note_off_c, 0, 64, 100
2, 924360, Note_on_c, 0, 62, 100
2, 924951, Note_off_c, 0, 62, 100
2, 925071, Note_on_c, 0, 59, 100
2, 925682, Note_off_c, 0, 59, 100
2, 925716, Note_on_c, 0, 57, 100
2, 926140, Note_off_c, 0, 57, 100
2, 926303, Note_on_c, 0, 54, 100
2, 926488, Note_off_c, 0, 54, 100
2, 926845, Note_on_c, 0, 52, 100
2, 926977, Note_off_c, 0, 52, 100
2, 927364, Note_on_c, 0, 50, 100
2, 927506, Note_off_c, 0, 50, 100
2, 928277, Note_on_c, 0, 49, 100
2, 928700, Note_off_c, 0, 49, 100
2, 929175, Note_on_c, 0, 47, 100
2, 929954, Note_off_c, 0, 47, 100
2, 930030, Note_on_c, 0, 46, 100
2, 930826, Note_off_c, 0, 46, 100
2, 930826, Note_on_c, 0, 46, 100
2, 931557, Note_off_c, 0, 46, 100
2, 931557, Note_on_c, 0, 46, 100
2, 932185, Note_off_c, 0, 46, 100
2, 932225, Note_on_c, 0, 46, 100
2, 932450, Note_off_c, 0, 46, 100
2, 932838, Note_on_c, 0, 47, 100
2, 933412, Note_on_c, 0, 48, 100
2, 933831, Note_off_c, 0, 47, 100
2, 933969, Note_on_c, 0, 49, 100
2, 934591, Note_on_c, 0, 50, 100
2, 935031, Note_off_c, 0, 48, 100
2, 935449, Note_on_c, 0, 51, 100
2, 935847, Note_off_c, 0, 49, 100
2, 936242, Note_off_c, 0, 50, 100
2, 936270, Note_on_c, 0, 52, 100
2, 936423, Note_off_c, 0, 51, 100
2, 936429, Note_off_c, 0, 52, 100
2, 937046, Note_on_c, 0, 52, 100
2, 937774, Note_on_c, 0, 53, 100
2, 938137, Note_off_c, 0, 52, 100
2, 938461, Note_off_c, 0, 53, 100
2, 938461, Note_on_c, 0, 53, 100
2, 939119, Note_off_c, 0, 53, 100
2, 939119, Note_on_c, 0, 53, 100
2, 939762, Note_on_c, 0, 52, 100
2, 940405, Note_off_c, 0, 52, 100
2, 940405, Note_on_c, 0, 52, 100
2, 940702, Note_off_c, 0, 52, 100
2, 940734, Note_off_c, 0, 53, 100
2, 941064, Note_on_c, 0, 51, 100
2, 941771, Note_on_c, 0, 50, 100
2, 941812, Note_off_c, 0, 51, 100
2, 942498, Note_off_c, 0, 50, 100
2, 942498, Note_on_c, 0, 50, 100
2, 943202, Note_off_c, 0, 50, 100
2, 943202, Note_on_c, 0, 50, 100
2, 943963, Note_on_c, 0, 49, 100
2, 944064, Note_off_c, 0, 50, 100
2, 944425, Note_off_c, 0, 49, 100
2, 944733, Note_on_c, 0, 49, 100
2, 944864, Note_off_c, 0, 49, 100
2, 945497, Note_on_c, 0, 50, 100
2, 945689, Note_off_c, 0, 50, 100
2, 946241, Note_on_c, 0, 50, 100
2, 946346, Note_off_c, 0, 50, 100
2, 946955, Note_on_c, 0, 51, 100
2, 947257, Note_off_c, 0, 51, 100
2, 947632, Note_on_c, 0, 52, 100
2, 948117, Note_off_c, 0, 52, 100
2, 948274, Note_on_c, 0, 54, 100
2, 948754, Note_off_c, 0, 54, 100
2, 949032, Note_on_c, 0, 56, 100
2, 949242, Note_off_c, 0, 56, 100
2, 949875, Note_on_c, 0, 58, 100
2, 950349, Note_off_c, 0, 58, 100
2, 950717, Note_on_c, 0, 60, 100
2, 951539, Note_on_c, 0, 62, 100
2, 951751, Note_off_c, 0, 60, 100
2, 952324, Note_on_c, 0, 63, 100
2, 952984, Note_off_c, 0, 62, 100
2, 953058, Note_on_c, 0, 64, 100
2, 953735, Note_off_c, 0, 64, 100
2, 953735, Note_on_c, 0, 64, 100
2, 953841, Note_off_c, 0, 63, 100
2, 954218, Note_off_c, 0, 64, 100
2, 954355, Note_on_c, 0, 64, 100
2, 954926, Note_on_c, 0, 63, 100
2, 955025, Note_off_c, 0, 64, 100
2, 955464, Note_on_c, 0, 62, 100
2, 956330, Note_on_c, 0, 60, 100
2, 956414, Note_off_c, 0, 63, 100
2, 957234, Note_on_c, 0, 58, 100
2, 957425, Note_off_c, 0, 62, 100
2, 958105, Note_on_c, 0, 55, 100
2, 958264, Note_off_c, 0, 60, 100
2, 958646, Note_off_c, 0, 58, 100
2, 958661, Note_off_c, 0, 55, 100
2, 958924, Note_on_c, 0, 52, 100
2, 959488, Note_off_c, 0, 52, 100
2, 959679, Note_on_c, 0, 50, 100
2, 960366, Note_on_c, 0, 47, 100
2, 960971, Note_off_c, 0, 50, 100
2, 960988, Note_on_c, 0, 44, 100
2, 961558, Note_on_c, 0, 42, 100
2, 961993, Note_off_c, 0, 47, 100
2, 962095, Note_on_c, 0, 40, 100
2, 962503, Note_off_c, 0, 44, 100
2, 962535, Note_off_c, 0, 40, 100
2, 962611, Note_off_c, 0, 42, 100
2, 962658, Note_on_c, 0, 39, 100
2, 962951, Note_off_c, 0, 39, 100
2, 963560, Note_on_c, 0, 39, 100
2, 964158, Note_off_c, 0, 39, 100
2, 964429, Note_on_c, 0, 39, 100
2, 965049, Note_off_c, 0, 39, 100
2, 965250, Note_on_c, 0, 40, 100
2, 965682, Note_off_c, 0, 40, 100
2, 966014, Note_on_c, 0, 41, 100
2, 966206, Note_off_c, 0, 41, 100
2, 966720, Note_on_c, 0, 44, 100
2, 966849, Note_off_c, 0, 44, 100
2, 967377, Note_on_c, 0, 46, 100
2, 967519, Note_off_c, 0, 46, 100
2, 967996, Note_on_c, 0, 49, 100
2, 968416, Note_off_c, 0, 49, 100
2, 968595, Note_on_c, 0, 51, 100
2, 969194, Note_on_c, 0, 54, 100
2, 969368, Note_off_c, 0, 51, 100
2, 969871, Note_on_c, 0, 57, 100
2, 970213, Note_off_c, 0, 54, 100
2, 970668, Note_on_c, 0, 59, 100
2, 970863, Note_off_c, 0, 57, 100
2, 971288, Note_off_c, 0, 59, 100
2, 971430, Note_on_c, 0, 61, 100
2, 971661, Note_off_c, 0, 61, 100
2, 972156, Note_on_c, 0, 63, 100
2, 972851, Note_on_c, 0, 64, 100
2, 973152, Note_off_c, 0, 63, 100
2, 973528, Note_off_c, 0, 64, 100
2, 973528, Note_on_c, 0, 64, 100
2, 974198, Note_off_c, 0, 64, 100
2, 974198, Note_on_c, 0, 64, 100
2, 974881, Note_on_c, 0, 63, 100
2, 975621, Note_on_c, 0, 61, 100
2, 975789, Note_off_c, 0, 61, 100
2, 975843, Note_off_c, 0, 64, 100
2, 975847, Note_off_c, 0, 63, 100
2, 976333, Note_on_c, 0, 60, 100
2, 977064, Note_on_c, 0, 58, 100
2, 977432, Note_off_c, 0, 60, 100
2, 977846, Note_on_c, 0, 56, 100
2, 978644, Note_on_c, 0, 54, 100
2, 978810, Note_off_c, 0, 58, 100
2, 979443, Note_on_c, 0, 53, 100
2, 979773, Note_off_c, 0, 56, 100
2, 980226, Note_on_c, 0, 51, 100
2, 980259, Note_off_c, 0, 54, 100
2, 980351, Note_off_c, 0, 51, 100
2, 980379, Note_off_c, 0, 53, 100
2, 980979, Note_on_c, 0, 50, 100
2, 981691, Note_off_c, 0, 50, 100
2, 981691, Note_on_c, 0, 50, 100
2, 982356, Note_off_c, 0, 50, 100
2, 982356, Note_on_c, 0, 50, 100
2, 982974, Note_off_c, 0, 50, 100
2, 982974, Note_on_c, 0, 50, 100
2, 983555, Note_off_c, 0, 50, 100
2, 983555, Note_on_c, 0, 50, 100
2, 984019, Note_off_c, 0, 50, 100
2, 984365, Note_on_c, 0, 50, 100
2, 984495, Note_off_c, 0, 50, 100
2, 985250, Note_on_c, 0, 51, 100
2, 985447, Note_off_c, 0, 51, 100
2, 986117, Note_on_c, 0, 52, 100
2, 986228, Note_off_c, 0, 52, 100
2, 986945, Note_on_c, 0, 52, 100
2, 987239, Note_off_c, 0, 52, 100
2, 987719, Note_on_c, 0, 53, 100
2, 988196, Note_off_c, 0, 53, 100
2, 988430, Note_on_c, 0, 53, 100
2, 988903, Note_off_c, 0, 53, 100
2, 989074, Note_on_c, 0, 53, 100
2, 989279, Note_off_c, 0, 53, 100
2, 989660, Note_on_c, 0, 53, 100
2, 990136, Note_off_c, 0, 53, 100
2, 990202, Note_on_c, 0, 52, 100
2, 990721, Note_on_c, 0, 51, 100
2, 991234, Note_off_c, 0, 52, 100
2, 991640, Note_on_c, 0, 50, 100
2, 992161, Note_off_c, 0, 51, 100
2, 992538, Note_off_c, 0, 50, 100
2, 992538, Note_on_c, 0, 50, 100
2, 993392, Note_on_c, 0, 49, 100
2, 993690, Note_off_c, 0, 50, 100
2, 993814, Note_off_c, 0, 49, 100
2, 994188, Note_on_c, 0, 48, 100
2, 994865, Note_off_c, 0, 48, 100
2, 994918, Note_on_c, 0, 46, 100
2, 995585, Note_off_c, 0, 46, 100
2, 995585, Note_on_c, 0, 46, 100
2, 996197, Note_on_c, 0, 45, 100
2, 996771, Note_off_c, 0, 45, 100
2, 996771, Note_on_c, 0, 45, 100
2, 997327, Note_off_c, 0, 46, 100
2, 997327, Note_on_c, 0, 46, 100
2, 997875, Note_off_c, 0, 46, 100
2, 997953, Note_on_c, 0, 47, 100
2, 998177, Note_off_c, 0, 45, 100
2, 998525, Note_off_c, 0, 47, 100
2, 998812, Note_on_c, 0, 48, 100
2, 999633, Note_on_c, 0, 50, 100
2, 1000112, Note_off_c, 0, 48, 100
2, 1000408, Note_on_c, 0, 51, 100
2, 1001137, Note_on_c, 0, 54, 100
2, 1001266, Note_off_c, 0, 50, 100
2, 1001824, Note_on_c, 0, 57, 100
2, 1001927, Note_off_c, 0, 51, 100
2, 1002191, Note_off_c, 0, 54, 100
2, 1002261, Note_off_c, 0, 57, 100
2, 1002481, Note_on_c, 0, 59, 100
2, 1002779, Note_off_c, 0, 59, 100
2, 1003123, Note_on_c, 0, 62, 100
2, 1003729, Note_off_c, 0, 62, 100
2, 1003766, Note_on_c, 0, 64, 100
2, 1004394, Note_off_c, 0, 64, 100
2, 1004424, Note_on_c, 0, 65, 100
2, 1004864, Note_off_c, 0, 65, 100
2, 1005132, Note_on_c, 0, 66, 100
2, 1005330, Note_off_c, 0, 66, 100
2, 1005860, Note_on_c, 0, 67, 100
2, 1005986, Note_off_c, 0, 67, 100
2, 1006560, Note_on_c, 0, 67, 100
2, 1006702, Note_off_c, 0, 67, 100
2, 1007321, Note_on_c, 0, 66, 100
2, 1007738, Note_off_c, 0, 66, 100
2, 1008090, Note_on_c, 0, 64, 100
2, 1008854, Note_on_c, 0, 62, 100
2, 1008857, Note_off_c, 0, 64, 100
2, 1009598, Note_on_c, 0, 59, 100
2, 1009865, Note_off_c, 0, 62, 100
2, 1010312, Note_on_c, 0, 56, 100
2, 1010582, Note_off_c, 0, 59, 100
2, 1010924, Note_off_c, 0, 56, 100
2, 1010990, Note_on_c, 0, 53, 100
2, 1011227, Note_off_c, 0, 53, 100
2, 1011633, Note_on_c, 0, 50, 100
2, 1012393, Note_on_c, 0, 48, 100
2, 1012632, Note_off_c, 0, 50, 100
2, 1013235, Note_on_c, 0, 45, 100
2, 1014011, Note_off_c, 0, 48, 100
2, 1014076, Note_on_c, 0, 43, 100
2, 1014898, Note_on_c, 0, 41, 100
2, 1015106, Note_off_c, 0, 45, 100
2, 1015682, Note_on_c, 0, 40, 100
2, 1015715, Note_off_c, 0, 43, 100
2, 1015856, Note_off_c, 0, 41, 100
2, 1015858, Note_off_c, 0, 40, 100
2, 1016416, Note_on_c, 0, 40, 100
2, 1017093, Note_off_c, 0, 40, 100
2, 1017093, Note_on_c, 0, 40, 100
2, 1017712, Note_on_c, 0, 41, 100
2, 1018283, Note_on_c, 0, 42, 100
2, 1018821, Note_on_c, 0, 44, 100
2, 1018844, Note_off_c, 0, 40, 100
2, 1019641, Note_off_c, 0, 41, 100
2, 1019692, Note_on_c, 0, 47, 100
2, 1019753, Note_off_c, 0, 44, 100
2, 1019810, Note_off_c, 0, 47, 100
2, 1019897, Note_off_c, 0, 42, 100
2, 1020596, Note_on_c, 0, 49, 100
2, 1021360, Note_off_c, 0, 49, 100
2, 1021467, Note_on_c, 0, 51, 100
2, 1022285, Note_on_c, 0, 53, 100
2, 1022612, Note_off_c, 0, 51, 100
2, 1023039, Note_on_c, 0, 55, 100
2, 1023440, Note_off_c, 0, 53, 100
2, 1023725, Note_on_c, 0, 57, 100
2, 1023911, Note_off_c, 0, 55, 100
2, 1024191, Note_off_c, 0, 57, 100
2, 1024347, Note_on_c, 0, 59, 100
2, 1024475, Note_off_c, 0, 59, 100
2, 1024916, Note_on_c, 0, 60, 100
2, 1025117, Note_off_c, 0, 60, 100
2, 1025452, Note_on_c, 0, 60, 100
2, 1025570, Note_off_c, 0, 60, 100
2, 1026021, Note_on_c, 0, 60, 100
2, 1026306, Note_off_c, 0, 60, 100
2, 1026923, Note_on_c, 0, 60, 100
2, 1027391, Note_off_c, 0, 60, 100
2, 1027792, Note_on_c, 0, 59, 100
2, 1028258, Note_off_c, 0, 59, 100
2, 1028613, Note_on_c, 0, 58, 100
2, 1028813, Note_off_c, 0, 58, 100
2, 1029376, Note_on_c, 0, 57, 100
2, 1029853, Note_off_c, 0, 57, 100
2, 1030082, Note_on_c, 0, 56, 100
2, 1030738, Note_on_c, 0, 54, 100
2, 1031112, Note_off_c, 0, 56, 100
2, 1031356, Note_on_c, 0, 53, 100
2, 1031955, Note_off_c, 0, 53, 100
2, 1031955, Note_on_c, 0, 53, 100
2, 1032173, Note_off_c, 0, 54, 100
2, 1032553, Note_on_c, 0, 52, 100
2, 1032967, Note_off_c, 0, 52, 100
2, 1033098, Note_off_c, 0, 53, 100
2, 1033233, Note_on_c, 0, 52, 100
2, 1033917, Note_off_c, 0, 52, 100
2, 1034030, Note_on_c, 0, 52, 100
2, 1034792, Note_on_c, 0, 53, 100
2, 1035518, Note_off_c, 0, 53, 100
2, 1035518, Note_on_c, 0, 53, 100
2, 1035527, Note_off_c, 0, 52, 100
2, 1036214, Note_on_c, 0, 54, 100
2, 1036890, Note_on_c, 0, 55, 100
2, 1037431, Note_off_c, 0, 55, 100
2, 1037447, Note_off_c, 0, 53, 100
2, 1037561, Note_on_c, 0, 56, 100
2, 1037615, Note_off_c, 0, 54, 100
2, 1038142, Note_off_c, 0, 56, 100
2, 1038240, Note_on_c, 0, 56, 100
2, 1038980, Note_on_c, 0, 57, 100
2, 1039548, Note_off_c, 0, 56, 100
2, 1039692, Note_off_c, 0, 57, 100
2, 1039692, Note_on_c, 0, 57, 100
2, 1040424, Note_on_c, 0, 56, 100
2, 1041206, Note_on_c, 0, 55, 100
2, 1041215, Note_off_c, 0, 57, 100
2, 1041478, Note_off_c, 0, 56, 100
2, 1041640, Note_off_c, 0, 55, 100
2, 1042003, Note_on_c, 0, 54, 100
2, 1042307, Note_off_c, 0, 54, 100
2, 1042801, Note_on_c, 0, 53, 100
2, 1043415, Note_off_c, 0, 53, 100
2, 1043584, Note_on_c, 0, 51, 100
2, 1044221, Note_off_c, 0, 51, 100
2, 1044337, Note_on_c, 0, 50, 100
2, 1044785, Note_off_c, 0, 50, 100
2, 1045048, Note_on_c, 0, 48, 100
2, 1045252, Note_off_c, 0, 48, 100
2, 1045713, Note_on_c, 0, 46, 100
2, 1045835, Note_off_c, 0, 46, 100
2, 1046332, Note_on_c, 0, 44, 100
2, 1046474, Note_off_c, 0, 44, 100
2, 1046913, Note_on_c, 0, 43, 100
2, 1047326, Note_off_c, 0, 43, 100
2, 1047727, Note_on_c, 0, 42, 100
2, 1048488, Note_off_c, 0, 42, 100
2, 1048611, Note_on_c, 0, 42, 100
2, 1049477, Note_off_c, 0, 42, 100
2, 1049477, Note_on_c, 0, 42, 100
2, 1050305, Note_on_c, 0, 43, 100
2, 1050452, Note_off_c, 0, 42, 100
2, 1050909, Note_off_c, 0, 43, 100
2, 1051078, Note_on_c, 0, 44, 100
2, 1051321, Note_off_c, 0, 44, 100
2, 1051788, Note_on_c, 0, 46, 100
2, 1052432, Note_on_c, 0, 48, 100
2, 1052790, Note_off_c, 0, 46, 100
2, 1053018, Note_on_c, 0, 50, 100
2, 1053560, Note_on_c, 0, 53, 100
2, 1054050, Note_off_c, 0, 48, 100
2, 1054081, Note_on_c, 0, 56, 100
2, 1054885, Note_off_c, 0, 50, 100
2, 1055003, Note_on_c, 0, 59, 100
2, 1055031, Note_off_c, 0, 56, 100
2, 1055188, Note_off_c, 0, 59, 100
2, 1055192, Note_off_c, 0, 53, 100
2, 1055900, Note_on_c, 0, 62, 100
2, 1056754, Note_on_c, 0, 64, 100
2, 1057014, Note_off_c, 0, 62, 100
2, 1057550, Note_on_c, 0, 66, 100
2, 1058279, Note_on_c, 0, 67, 100
2, 1058510, Note_off_c, 0, 64, 100
2, 1058945, Note_off_c, 0, 67, 100
2, 1058945, Note_on_c, 0, 67, 100
2, 1059482, Note_off_c, 0, 66, 100
2, 1059557, Note_off_c, 0, 67, 100
2, 1059557, Note_on_c, 0, 67, 100
2, 1059892, Note_off_c, 0, 67, 100
2, 1060130, Note_on_c, 0, 66, 100
2, 1060685, Note_on_c, 0, 65, 100
2, 1060902, Note_off_c, 0, 66, 100
2, 1061315, Note_on_c, 0, 62, 100
2, 1061838, Note_off_c, 0, 65, 100
2, 1062174, Note_on_c, 0, 60, 100
2, 1062478, Note_off_c, 0, 62, 100
2, 1062996, Note_on_c, 0, 57, 100
2, 1063051, Note_off_c, 0, 60, 100
2, 1063464, Note_off_c, 0, 57, 100
2, 1063771, Note_on_c, 0, 54, 100
2, 1063898, Note_off_c, 0, 54, 100
2, 1064499, Note_on_c, 0, 51, 100
2, 1064705, Note_off_c, 0, 51, 100
2, 1065186, Note_on_c, 0, 49, 100
2, 1065311, Note_off_c, 0, 49, 100
2, 1065843, Note_on_c, 0, 47, 100
2, 1066120, Note_off_c, 0, 47, 100
2, 1066484, Note_on_c, 0, 45, 100
2, 1066944, Note_off_c, 0, 45, 100
2, 1067126, Note_on_c, 0, 43, 100
2, 1067585, Note_off_c, 0, 43, 100
2, 1067784, Note_on_c, 0, 42, 100
2, 1067980, Note_off_c, 0, 42, 100
2, 1068493, Note_on_c, 0, 42, 100
2, 1068972, Note_off_c, 0, 42, 100
2, 1069221, Note_on_c, 0, 42, 100
2, 1069921, Note_on_c, 0, 43, 100
2, 1070249, Note_off_c, 0, 42, 100
2, 1070678, Note_on_c, 0, 45, 100
2, 1071351, Note_off_c, 0, 43, 100
2, 1071448, Note_on_c, 0, 46, 100
2, 1072173, Note_off_c, 0, 45, 100
2, 1072211, Note_on_c, 0, 48, 100
2, 1072583, Note_off_c, 0, 46, 100
2, 1072616, Note_off_c, 0, 48, 100
2, 1072956, Note_on_c, 0, 50, 100
2, 1073646, Note_off_c, 0, 50, 100
2, 1073670, Note_on_c, 0, 51, 100
2, 1074348, Note_on_c, 0, 52, 100
2, 1074991, Note_on_c, 0, 54, 100
2, 1075171, Note_off_c, 0, 51, 100
2, 1075754, Note_on_c, 0, 55, 100
2, 1076311, Note_off_c, 0, 52, 100
2, 1076595, Note_on_c, 0, 56, 100
2, 1076917, Note_off_c, 0, 54, 100
2, 1077128, Note_off_c, 0, 56, 100
2, 1077150, Note_off_c, 0, 55, 100
2, 1077436, Note_on_c, 0, 56, 100
2, 1078025, Note_off_c, 0, 56, 100
2, 1078257, Note_on_c, 0, 56, 100
2, 1079040, Note_off_c, 0, 56, 100
2, 1079040, Note_on_c, 0, 56, 100
2, 1079774, Note_on_c, 0, 55, 100
2, 1080450, Note_on_c, 0, 54, 100
2, 1080686, Note_off_c, 0, 56, 100
2, 1081069, Note_off_c, 0, 54, 100
2, 1081069, Note_on_c, 0, 54, 100
2, 1081301, Note_off_c, 0, 55, 100
2, 1081505, Note_off_c, 0, 54, 100
2, 1081640, Note_on_c, 0, 53, 100
2, 1081950, Note_off_c, 0, 53, 100
2, 1082178, Note_on_c, 0, 52, 100
2, 1082799, Note_off_c, 0, 52, 100
2, 1083055, Note_on_c, 0, 52, 100
2, 1083700, Note_off_c, 0, 52, 100
2, 1083958, Note_on_c, 0, 52, 100
2, 1084414, Note_off_c, 0, 52, 100
2, 1084828, Note_on_c, 0, 52, 100
2, 1085038, Note_off_c, 0, 52, 100
2, 1085646, Note_on_c, 0, 53, 100
2, 1085765, Note_off_c, 0, 53, 100
2, 1086399, Note_on_c, 0, 54, 100
2, 1086541, Note_off_c, 0, 54, 100
2, 1087084, Note_on_c, 0, 55, 100
2, 1087494, Note_off_c, 0, 55, 100
2, 1087705, Note_on_c, 0, 56, 100
2, 1088274, Note_on_c, 0, 57, 100
2, 1088459, Note_off_c, 0, 56, 100
2, 1088810, Note_on_c, 0, 58, 100
2, 1089269, Note_off_c, 0, 57, 100
2, 1089384, Note_on_c, 0, 59, 100
2, 1089777, Note_off_c, 0, 58, 100
2, 1089981, Note_off_c, 0, 59, 100
2, 1090286, Note_on_c, 0, 60, 100
2, 1090534, Note_off_c, 0, 60, 100
2, 1091155, Note_on_c, 0, 61, 100
2, 1091975, Note_off_c, 0, 61, 100
2, 1091975, Note_on_c, 0, 61, 100
2, 1092738, Note_on_c, 0, 60, 100
2, 1093444, Note_on_c, 0, 59, 100
2, 1093592, Note_off_c, 0, 61, 100
2, 1094099, Note_on_c, 0, 58, 100
2, 1094601, Note_off_c, 0, 60, 100
2, 1094717, Note_on_c, 0, 56, 100
2, 1094910, Note_off_c, 0, 56, 100
2, 1095041, Note_off_c, 0, 58, 100
2, 1095070, Note_off_c, 0, 59, 100
2, 1095315, Note_on_c, 0, 54, 100
2, 1095912, Note_on_c, 0, 51, 100
2, 1096437, Note_off_c, 0, 54, 100
2, 1096594, Note_on_c, 0, 49, 100
2, 1097392, Note_on_c, 0, 47, 100
2, 1097674, Note_off_c, 0, 51, 100
2, 1098155, Note_on_c, 0, 44, 100
2, 1098528, Note_off_c, 0, 49, 100
2, 1098881, Note_on_c, 0, 42, 100
2, 1098985, Note_off_c, 0, 42, 100
2, 1099004, Note_off_c, 0, 47, 100
2, 1099078, Note_off_c, 0, 44, 100
2, 1099577, Note_on_c, 0, 41, 100
2, 1100253, Note_on_c, 0, 40, 100
2, 1100358, Note_off_c, 0, 41, 100
2, 1100923, Note_on_c, 0, 39, 100
2, 1101415, Note_off_c, 0, 40, 100
2, 1101602, Note_on_c, 0, 40, 100
2, 1102093, Note_off_c, 0, 39, 100
2, 1102338, Note_on_c, 0, 41, 100
2, 1102484, Note_off_c, 0, 40, 100
2, 1102808, Note_off_c, 0, 41, 100
2, 1103051, Note_on_c, 0, 42, 100
2, 1103176, Note_off_c, 0, 42, 100
2, 1103784, Note_on_c, 0, 44, 100
2, 1103995, Note_off_c, 0, 44, 100
2, 1104565, Note_on_c, 0, 47, 100
2, 1104698, Note_off_c, 0, 47, 100
2, 1105362, Note_on_c, 0, 50, 100
2, 1105631, Note_off_c, 0, 50, 100
2, 1106159, Note_on_c, 0, 52, 100
2, 1106611, Note_off_c, 0, 52, 100
2, 1106941, Note_on_c, 0, 55, 100
2, 1107393, Note_off_c, 0, 55, 100
2, 1107694, Note_on_c, 0, 58, 100
2, 1107885, Note_off_c, 0, 58, 100
2, 1108406, Note_on_c, 0, 61, 100
2, 1108886, Note_off_c, 0, 61, 100
2, 1109070, Note_on_c, 0, 63, 100
2, 1109689, Note_on_c, 0, 65, 100
2, 1110096, Note_off_c, 0, 63, 100
2, 1110271, Note_on_c, 0, 66, 100
2, 1111089, Note_on_c, 0, 67, 100
2, 1111114, Note_off_c, 0, 65, 100
2, 1111759, Note_off_c, 0, 66, 100
2, 1111972, Note_on_c, 0, 66, 100
2, 1112215, Note_off_c, 0, 67, 100
2, 1112369, Note_off_c, 0, 66, 100
2, 1112838, Note_on_c, 0, 65, 100
2, 1113535, Note_off_c, 0, 65, 100
2, 1113665, Note_on_c, 0, 64, 100
2, 1114437, Note_on_c, 0, 62, 100
2, 1115146, Note_on_c, 0, 59, 100
2, 1115170, Note_off_c, 0, 64, 100
2, 1115790, Note_on_c, 0, 57, 100
2, 1116375, Note_on_c, 0, 54, 100
2, 1116401, Note_off_c, 0, 62, 100
2, 1116901, Note_off_c, 0, 54, 100
2, 1116917, Note_on_c, 0, 52, 100
2, 1117070, Note_off_c, 0, 59, 100
2, 1117180, Note_off_c, 0, 57, 100
2, 1117444, Note_on_c, 0, 50, 100
2, 1117515, Note_off_c, 0, 52, 100
2, 1118365, Note_on_c, 0, 49, 100
2, 1118769, Note_off_c, 0, 50, 100
2, 1119263, Note_on_c, 0, 47, 100
2, 1120018, Note_off_c, 0, 49, 100
2, 1120116, Note_on_c, 0, 46, 100
2, 1120793, Note_off_c, 0, 47, 100
2, 1120911, Note_off_c, 0, 46, 100
2, 1120911, Note_on_c, 0, 46, 100
2, 1121339, Note_off_c, 0, 46, 100
2, 1121640, Note_on_c, 0, 46, 100
2, 1121956, Note_off_c, 0, 46, 100
2, 1122305, Note_on_c, 0, 46, 100
2, 1122916, Note_on_c, 0, 47, 100
2, 1122934, Note_off_c, 0, 46, 100
2, 1123489, Note_on_c, 0, 48, 100
2, 1123570, Note_off_c, 0, 47, 100
2, 1123953, Note_off_c, 0, 48, 100
2, 1124043, Note_on_c, 0, 49, 100
2, 1124259, Note_off_c, 0, 49, 100
2, 1124678, Note_on_c, 0, 50, 100
2, 1124794, Note_off_c, 0, 50, 100
2, 1125537, Note_on_c, 0, 51, 100
2, 1125679, Note_off_c, 0, 51, 100
2, 1126359, Note_on_c, 0, 52, 100
2, 1126766, Note_off_c, 0, 52, 100
2, 1127134, Note_on_c, 0, 52, 100
2, 1127862, Note_on_c, 0, 53, 100
2, 1127882, Note_off_c, 0, 52, 100
2, 1128548, Note_off_c, 0, 53, 100
2, 1128548, Note_on_c, 0, 53, 100
2, 1129204, Note_off_c, 0, 53, 100
2, 1129204, Note_on_c, 0, 53, 100
2, 1129793, Note_off_c, 0, 53, 100
2, 1129845, Note_on_c, 0, 52, 100
2, 1130099, Note_off_c, 0, 52, 100
2, 1130487, Note_on_c, 0, 52, 100
2, 1131143, Note_on_c, 0, 51, 100
2, 1131494, Note_off_c, 0, 52, 100
2, 1131854, Note_on_c, 0, 50, 100
2, 1132582, Note_off_c, 0, 50, 100
2, 1132582, Note_on_c, 0, 50, 100
2, 1132760, Note_off_c, 0, 51, 100
2, 1133283, Note_off_c, 0, 50, 100
2, 1133283, Note_on_c, 0, 50, 100
2, 1134036, Note_off_c, 0, 50, 100
2, 1134036, Note_on_c, 0, 50, 100
2, 1134238, Note_off_c, 0, 50, 100
2, 1134805, Note_on_c, 0, 50, 100
2, 1135568, Note_off_c, 0, 50, 100
2, 1135568, Note_on_c, 0, 50, 100
2, 1136313, Note_off_c, 0, 50, 100
2, 1136313, Note_on_c, 0, 50, 100
2, 1137027, Note_on_c, 0, 51, 100
2, 1137706, Note_on_c, 0, 52, 100
2, 1138249, Note_off_c, 0, 50, 100
2, 1138349, Note_on_c, 0, 54, 100
2, 1138447, Note_off_c, 0, 54, 100
2, 1138625, Note_off_c, 0, 52, 100
2, 1138637, Note_off_c, 0, 51, 100
2, 1139115, Note_on_c, 0, 56, 100
2, 1139904, Note_off_c, 0, 56, 100
2, 1139956, Note_on_c, 0, 58, 100
2, 1140795, Note_on_c, 0, 60, 100
2, 1141126, Note_off_c, 0, 58, 100
2, 1141616, Note_on_c, 0, 62, 100
2, 1141972, Note_off_c, 0, 60, 100
2, 1142399, Note_on_c, 0, 63, 100
2, 1142503, Note_off_c, 0, 62, 100
2, 1142871, Note_off_c, 0, 63, 100
2, 1143132, Note_on_c, 0, 64, 100
2, 1143256, Note_off_c, 0, 64, 100
2, 1143807, Note_on_c, 0, 64, 100
2, 1144022, Note_off_c, 0, 64, 100
2, 1144427, Note_on_c, 0, 64, 100
2, 1144567, Note_off_c, 0, 64, 100
2, 1144997, Note_on_c, 0, 63, 100
2, 1145257, Note_off_c, 0, 63, 100
2, 1145536, Note_on_c, 0, 62, 100
2, 1145979, Note_off_c, 0, 62, 100
2, 1146417, Note_on_c, 0, 60, 100
2, 1146862, Note_off_c, 0, 60, 100
2, 1147320, Note_on_c, 0, 58, 100
2, 1147507, Note_off_c, 0, 58, 100
2, 1148189, Note_on_c, 0, 55, 100
2, 1148670, Note_off_c, 0, 55, 100
2, 1149007, Note_on_c, 0, 52, 100
2, 1149759, Note_on_c, 0, 50, 100
2, 1150031, Note_off_c, 0, 52, 100
2, 1150444, Note_on_c, 0, 47, 100
2, 1151064, Note_on_c, 0, 44, 100
2, 1151179, Note_off_c, 0, 50, 100
2, 1151632, Note_on_c, 0, 42, 100
2, 1151925, Note_off_c, 0, 47, 100
2, 1152021, Note_off_c, 0, 42, 100
2, 1152168, Note_on_c, 0, 40, 100
2, 1152182, Note_off_c, 0, 44, 100
2, 1152746, Note_on_c, 0, 39, 100
2, 1152872, Note_off_c, 0, 40, 100
2, 1153649, Note_off_c, 0, 39, 100
2, 1153649, Note_on_c, 0, 39, 100
2, 1154518, Note_off_c, 0, 39, 100
2, 1154518, Note_on_c, 0, 39, 100
2, 1155338, Note_on_c, 0, 40, 100
2, 1156101, Note_on_c, 0, 41, 100
2, 1156439, Note_off_c, 0, 39, 100
2, 1156619, Note_off_c, 0, 41, 100
2, 1156723, Note_off_c, 0, 40, 100
2, 1156805, Note_on_c, 0, 44, 100
2, 1157411, Note_off_c, 0, 44, 100
2, 1157460, Note_on_c, 0, 46, 100
2, 1158077, Note_on_c, 0, 49, 100
2, 1158674, Note_on_c, 0, 51, 100
2, 1158793, Note_off_c, 0, 46, 100
2, 1159271, Note_on_c, 0, 54, 100
2, 1159736, Note_off_c, 0, 49, 100
2, 1159956, Note_on_c, 0, 57, 100
2, 1160208, Note_off_c, 0, 51, 100
2, 1160326, Note_off_c, 0, 54, 100
2, 1160381, Note_off_c, 0, 57, 100
2, 1160755, Note_on_c, 0, 59, 100
2, 1161077, Note_off_c, 0, 59, 100
2, 1161517, Note_on_c, 0, 61, 100
2, 1162154, Note_off_c, 0, 61, 100
2, 1162244, Note_on_c, 0, 63, 100
2, 1162906, Note_off_c, 0, 63, 100
2, 1162940, Note_on_c, 0, 64, 100
2, 1163412, Note_off_c, 0, 64, 100
2, 1163616, Note_on_c, 0, 64, 100
2, 1163838, Note_off_c, 0, 64, 100
2, 1164286, Note_on_c, 0, 64, 100
2, 1164399, Note_off_c, 0, 64, 100
2, 1164964, Note_on_c, 0, 63, 100
2, 1165106, Note_off_c, 0, 63, 100
2, 1165697, Note_on_c, 0, 62, 100
2, 1166100, Note_off_c, 0, 62, 100
2, 1166411, Note_on_c, 0, 60, 100
2, 1167144, Note_on_c, 0, 58, 100
2, 1167153, Note_off_c, 0, 60, 100
2, 1167924, Note_on_c, 0, 56, 100
2, 1168123, Note_off_c, 0, 58, 100
2, 1168720, Note_on_c, 0, 54, 100
2, 1168874, Note_off_c, 0, 56, 100
2, 1169301, Note_off_c, 0, 54, 100
2, 1169517, Note_on_c, 0, 53, 100
2, 1169776, Note_off_c, 0, 53, 100
2, 1170299, Note_on_c, 0, 51, 100
2, 1171051, Note_on_c, 0, 50, 100
2, 1171309, Note_off_c, 0, 51, 100
2, 1171763, Note_off_c, 0, 50, 100
2, 1171763, Note_on_c, 0, 50, 100
2, 1172427, Note_off_c, 0, 50, 100
2, 1172427, Note_on_c, 0, 50, 100
2, 1173046, Note_off_c, 0, 50, 100
2, 1173046, Note_on_c, 0, 50, 100
2, 1173629, Note_off_c, 0, 50, 100
2, 1173629, Note_on_c, 0, 50, 100
2, 1174040, Note_off_c, 0, 50, 100
2, 1174450, Note_on_c, 0, 50, 100
2, 1175333, Note_on_c, 0, 51, 100
2, 1175586, Note_off_c, 0, 50, 100
2, 1176198, Note_off_c, 0, 51, 100
2, 1176198, Note_on_c, 0, 51, 100
2, 1177024, Note_on_c, 0, 52, 100
2, 1177797, Note_on_c, 0, 53, 100
2, 1178136, Note_off_c, 0, 51, 100
2, 1178505, Note_off_c, 0, 53, 100
2, 1178505, Note_on_c, 0, 53, 100
2, 1178633, Note_off_c, 0, 52, 100
2, 1178712, Note_off_c, 0, 53, 100
2, 1179148, Note_on_c, 0, 53, 100
2, 1179733, Note_off_c, 0, 53, 100
2, 1179733, Note_on_c, 0, 53, 100
2, 1180274, Note_on_c, 0, 52, 100
2, 1180807, Note_on_c, 0, 51, 100
2, 1180911, Note_off_c, 0, 53, 100
2, 1181458, Note_off_c, 0, 52, 100
2, 1181699, Note_off_c, 0, 51, 100
2, 1181728, Note_on_c, 0, 50, 100
2, 1182201, Note_off_c, 0, 50, 100
2, 1182625, Note_on_c, 0, 50, 100
2, 1182747, Note_off_c, 0, 50, 100
2, 1183478, Note_on_c, 0, 49, 100
2, 1183698, Note_off_c, 0, 49, 100
2, 1184273, Note_on_c, 0, 48, 100
2, 1184420, Note_off_c, 0, 48, 100
2, 1185001, Note_on_c, 0, 47, 100
2, 1185253, Note_off_c, 0, 47, 100
2, 1185665, Note_on_c, 0, 46, 100
2, 1186100, Note_off_c, 0, 46, 100
2, 1186275, Note_on_c, 0, 45, 100
2, 1186713, Note_off_c, 0, 45, 100
2, 1186847, Note_on_c, 0, 45, 100
2, 1187029, Note_off_c, 0, 45, 100
2, 1187402, Note_on_c, 0, 46, 100
2, 1187885, Note_off_c, 0, 46, 100
2, 1188040, Note_on_c, 0, 47, 100
2, 1188900, Note_on_c, 0, 48, 100
2, 1189062, Note_off_c, 0, 47, 100
2, 1189721, Note_on_c, 0, 50, 100
2, 1190315, Note_off_c, 0, 48, 100
2, 1190497, Note_on_c, 0, 51, 100
2, 1191194, Note_off_c, 0, 50, 100
2, 1191225, Note_on_c, 0, 54, 100
2, 1191606, Note_off_c, 0, 51, 100
2, 1191606, Note_off_c, 0, 54, 100
2, 1191911, Note_on_c, 0, 57, 100
2, 1192566, Note_on_c, 0, 59, 100
2, 1192621, Note_off_c, 0, 57, 100
2, 1193207, Note_on_c, 0, 62, 100
2, 1193847, Note_on_c, 0, 64, 100
2, 1194079, Note_off_c, 0, 59, 100
2, 1194503, Note_on_c, 0, 65, 100
2, 1195173, Note_off_c, 0, 62, 100
2, 1195215, Note_on_c, 0, 66, 100
2, 1195725, Note_off_c, 0, 66, 100
2, 1195766, Note_off_c, 0, 64, 100
2, 1195882, Note_off_c, 0, 65, 100
2, 1195944, Note_on_c, 0, 67, 100
2, 1196559, Note_off_c, 0, 67, 100
2, 1196645, Note_on_c, 0, 66, 100
2, 1197394, Note_on_c, 0, 65, 100
2, 1197986, Note_off_c, 0, 66, 100
2, 1198162, Note_on_c, 0, 64, 100
2, 1198925, Note_on_c, 0, 62, 100
2, 1199059, Note_off_c, 0, 65, 100
2, 1199670, Note_on_c, 0, 59, 100
2, 1199699, Note_off_c, 0, 64, 100
2, 1199980, Note_off_c, 0, 62, 100
2, 1200092, Note_off_c, 0, 59, 100
2, 1200385, Note_on_c, 0, 56, 100
2, 1200713, Note_off_c, 0, 56, 100
2, 1201064, Note_on_c, 0, 53, 100
2, 1201708, Note_on_c, 0, 50, 100
2, 1201709, Note_off_c, 0, 53, 100
2, 1202379, Note_off_c, 0, 50, 100
2, 1202476, Note_on_c, 0, 48, 100
2, 1202956, Note_off_c, 0, 48, 100
2, 1203316, Note_on_c, 0, 45, 100
2, 1203544, Note_off_c, 0, 45, 100
2, 1204155, Note_on_c, 0, 43, 100
2, 1204265, Note_off_c, 0, 43, 100
2, 1204974, Note_on_c, 0, 41, 100
2, 1205116, Note_off_c, 0, 41, 100
2, 1205757, Note_on_c, 0, 40, 100
2, 1206156, Note_off_c, 0, 40, 100
2, 1206489, Note_on_c, 0, 39, 100
2, 1207165, Note_on_c, 0, 40, 100
2, 1207225, Note_off_c, 0, 39, 100
2, 1207784, Note_on_c, 0, 41, 100
2, 1208136, Note_off_c, 0, 40, 100
2, 1208355, Note_on_c, 0, 42, 100
2, 1208725, Note_off_c, 0, 41, 100
2, 1208893, Note_on_c, 0, 44, 100
2, 1208929, Note_off_c, 0, 42, 100
2, 1209158, Note_off_c, 0, 44, 100
2, 1209779, Note_on_c, 0, 47, 100
2, 1210682, Note_on_c, 0, 49, 100
2, 1210791, Note_off_c, 0, 47, 100
2, 1211551, Note_on_c, 0, 51, 100
2, 1212297, Note_off_c, 0, 49, 100
2, 1212367, Note_on_c, 0, 53, 100
2, 1213119, Note_on_c, 0, 55, 100
2, 1213402, Note_off_c, 0, 51, 100
2, 1213803, Note_on_c, 0, 57, 100
2, 1213973, Note_off_c, 0, 53, 100
2, 1214021, Note_off_c, 0, 57, 100
2, 1214036, Note_off_c, 0, 55, 100
2, 1214422, Note_on_c, 0, 59, 100
2, 1214990, Note_on_c, 0, 60, 100
2, 1215525, Note_off_c, 0, 60, 100
2, 1215525, Note_on_c, 0, 60, 100
2, 1215566, Note_off_c, 0, 59, 100
2, 1216109, Note_off_c, 0, 60, 100
2, 1216109, Note_on_c, 0, 60, 100
2, 1217012, Note_off_c, 0, 60, 100
2, 1217012, Note_on_c, 0, 60, 100
2, 1217881, Note_on_c, 0, 59, 100
2, 1217922, Note_off_c, 0, 60, 100
2, 1217988, Note_off_c, 0, 59, 100
2, 1218700, Note_on_c, 0, 58, 100
2, 1219463, Note_on_c, 0, 57, 100
2, 1219505, Note_off_c, 0, 58, 100
2, 1220167, Note_on_c, 0, 56, 100
2, 1220650, Note_off_c, 0, 57, 100
2, 1220821, Note_on_c, 0, 54, 100
2, 1221358, Note_off_c, 0, 56, 100
2, 1221437, Note_on_c, 0, 53, 100
2, 1221717, Note_off_c, 0, 54, 100
2, 1221912, Note_off_c, 0, 53, 100
2, 1222034, Note_on_c, 0, 53, 100
2, 1222154, Note_off_c, 0, 53, 100
2, 1222630, Note_on_c, 0, 52, 100
2, 1222855, Note_off_c, 0, 52, 100
2, 1223318, Note_on_c, 0, 52, 100
2, 1223472, Note_off_c, 0, 52, 100
2, 1224117, Note_on_c, 0, 52, 100
2, 1224361, Note_off_c, 0, 52, 100
2, 1224880, Note_on_c, 0, 53, 100
2, 1225307, Note_off_c, 0, 53, 100
2, 1225607, Note_on_c, 0, 53, 100
2, 1226038, Note_off_c, 0, 53, 100
2, 1226302, Note_on_c, 0, 54, 100
2, 1226480, Note_off_c, 0, 54, 100
2, 1226978, Note_on_c, 0, 55, 100
2, 1227462, Note_off_c, 0, 55, 100
2, 1227648, Note_on_c, 0, 56, 100
2, 1228326, Note_off_c, 0, 56, 100
2, 1228326, Note_on_c, 0, 56, 100
2, 1229055, Note_off_c, 0, 56, 100
2, 1229055, Note_on_c, 0, 56, 100
2, 1229770, Note_off_c, 0, 56, 100
2, 1229770, Note_on_c, 0, 56, 100
2, 1230504, Note_off_c, 0, 56, 100
2, 1230504, Note_on_c, 0, 56, 100
2, 1230877, Note_off_c, 0, 56, 100
2, 1231284, Note_on_c, 0, 55, 100
2, 1232001, Note_off_c, 0, 55, 100
2, 1232079, Note_on_c, 0, 54, 100
2, 1232875, Note_on_c, 0, 53, 100
2, 1233596, Note_off_c, 0, 54, 100
2, 1233657, Note_on_c, 0, 51, 100
2, 1234409, Note_on_c, 0, 50, 100
2, 1234841, Note_off_c, 0, 53, 100
2, 1235120, Note_on_c, 0, 48, 100
2, 1235573, Note_off_c, 0, 51, 100
2, 1235623, Note_off_c, 0, 48, 100
2, 1235782, Note_off_c, 0, 50, 100
2, 1235785, Note_on_c, 0, 46, 100
2, 1236404, Note_on_c, 0, 44, 100
2, 1236408, Note_off_c, 0, 46, 100
2, 1236986, Note_on_c, 0, 43, 100
2, 1237752, Note_off_c, 0, 44, 100
2, 1237812, Note_on_c, 0, 42, 100
2, 1238657, Note_off_c, 0, 43, 100
2, 1238694, Note_off_c, 0, 42, 100
2, 1238694, Note_on_c, 0, 42, 100
2, 1239558, Note_off_c, 0, 42, 100
2, 1239558, Note_on_c, 0, 42, 100
2, 1239977, Note_off_c, 0, 42, 100
2, 1240384, Note_on_c, 0, 43, 100
2, 1240718, Note_off_c, 0, 43, 100
2, 1241156, Note_on_c, 0, 44, 100
2, 1241809, Note_off_c, 0, 44, 100
2, 1241863, Note_on_c, 0, 46, 100
2, 1242506, Note_on_c, 0, 49, 100
2, 1242542, Note_off_c, 0, 46, 100
2, 1242993, Note_off_c, 0, 49, 100
2, 1243090, Note_on_c, 0, 50, 100
2, 1243323, Note_off_c, 0, 50, 100
2, 1243631, Note_on_c, 0, 53, 100
2, 1243738, Note_off_c, 0, 53, 100
2, 1244169, Note_on_c, 0, 56, 100
2, 1244310, Note_off_c, 0, 56, 100
2, 1245091, Note_on_c, 0, 59, 100
2, 1245487, Note_off_c, 0, 59, 100
2, 1245988, Note_on_c, 0, 62, 100
2, 1246717, Note_off_c, 0, 62, 100
2, 1246840, Note_on_c, 0, 64, 100
2, 1247634, Note_on_c, 0, 66, 100
2, 1247803, Note_off_c, 0, 64, 100
2, 1248362, Note_on_c, 0, 67, 100
2, 1248567, Note_off_c, 0, 66, 100
2, 1248928, Note_off_c, 0, 67, 100
2, 1249026, Note_on_c, 0, 67, 100
2, 1249296, Note_off_c, 0, 67, 100
2, 1249635, Note_on_c, 0, 67, 100
2, 1250206, Note_on_c, 0, 66, 100
2, 1250650, Note_off_c, 0, 67, 100
2, 1250760, Note_on_c, 0, 64, 100
2, 1251402, Note_on_c, 0, 62, 100
2, 1251820, Note_off_c, 0, 66, 100
2, 1252262, Note_on_c, 0, 60, 100
2, 1252607, Note_off_c, 0, 64, 100
2, 1253001, Note_off_c, 0, 62, 100
2, 1253084, Note_on_c, 0, 57, 100
2, 1253171, Note_off_c, 0, 60, 100
2, 1253311, Note_off_c, 0, 57, 100
2, 1253860, Note_on_c, 0, 54, 100
2, 1254587, Note_on_c, 0, 51, 100
2, 1255011, Note_off_c, 0, 54, 100
2, 1255273, Note_on_c, 0, 49, 100
2, 1255928, Note_on_c, 0, 46, 100
2, 1256369, Note_off_c, 0, 51, 100
2, 1256568, Note_on_c, 0, 45, 100
2, 1257208, Note_on_c, 0, 43, 100
2, 1257215, Note_off_c, 0, 49, 100
2, 1257322, Note_off_c, 0, 43, 100
2, 1257474, Note_off_c, 0, 45, 100
2, 1257535, Note_off_c, 0, 46, 100
2, 1257863, Note_on_c, 0, 42, 100
2, 1258576, Note_off_c, 0, 42, 100
2, 1258576, Note_on_c, 0, 42, 100
2, 1259305, Note_off_c, 0, 42, 100
2, 1259305, Note_on_c, 0, 42, 100
2, 1260007, Note_on_c, 0, 43, 100
2, 1260503, Note_off_c, 0, 42, 100
2, 1260751, Note_on_c, 0, 44, 100
2, 1260908, Note_off_c, 0, 43, 100
2, 1261228, Note_off_c, 0, 44, 100
2, 1261519, Note_on_c, 0, 46, 100
2, 1261637, Note_off_c, 0, 46, 100
2, 1262283, Note_on_c, 0, 48, 100
2, 1262513, Note_off_c, 0, 48, 100
2, 1263027, Note_on_c, 0, 50, 100
2, 1263188, Note_off_c, 0, 50, 100
2, 1263742, Note_on_c, 0, 51, 100
2, 1263977, Note_off_c, 0, 51, 100
2, 1264422, Note_on_c, 0, 52, 100
2, 1264841, Note_off_c, 0, 52, 100
2, 1265066, Note_on_c, 0, 54, 100
2, 1265490, Note_off_c, 0, 54, 100
2, 1265837, Note_on_c, 0, 55, 100
2, 1266011, Note_off_c, 0, 55, 100
2, 1266676, Note_on_c, 0, 56, 100
2, 1267161, Note_off_c, 0, 56, 100
2, 1267514, Note_on_c, 0, 56, 100
2, 1268333, Note_off_c, 0, 56, 100
2, 1268333, Note_on_c, 0, 56, 100
2, 1269115, Note_off_c, 0, 56, 100
2, 1269115, Note_on_c, 0, 56, 100
2, 1269847, Note_on_c, 0, 55, 100
2, 1270522, Note_on_c, 0, 54, 100
2, 1270573, Note_off_c, 0, 56, 100
2, 1270887, Note_off_c, 0, 54, 100
2, 1270939, Note_off_c, 0, 55, 100
2, 1271141, Note_on_c, 0, 54, 100
2, 1271712, Note_on_c, 0, 53, 100
2, 1271864, Note_off_c, 0, 54, 100
2, 1272250, Note_on_c, 0, 52, 100
2, 1273142, Note_off_c, 0, 52, 100
2, 1273142, Note_on_c, 0, 52, 100
2, 1273233, Note_off_c, 0, 53, 100
2, 1274044, Note_off_c, 0, 52, 100
2, 1274044, Note_on_c, 0, 52, 100
2, 1274912, Note_off_c, 0, 52, 100
2, 1274912, Note_on_c, 0, 52, 100
2, 1275412, Note_off_c, 0, 52, 100
2, 1275728, Note_on_c, 0, 53, 100
2, 1276360, Note_off_c, 0, 53, 100
2, 1276479, Note_on_c, 0, 54, 100
2, 1277162, Note_on_c, 0, 55, 100
2, 1277781, Note_on_c, 0, 56, 100
2, 1277835, Note_off_c, 0, 54, 100
2, 1278348, Note_on_c, 0, 57, 100
2, 1278839, Note_off_c, 0, 55, 100
2, 1278883, Note_on_c, 0, 58, 100
2, 1279298, Note_off_c, 0, 58, 100
2, 1279325, Note_off_c, 0, 56, 100
2, 1279403, Note_off_c, 0, 57, 100
2, 1279472, Note_on_c, 0, 59, 100
2, 1279812, Note_off_c, 0, 59, 100
2, 1280374, Note_on_c, 0, 60, 100
2, 1281035, Note_off_c, 0, 60, 100
2, 1281243, Note_on_c, 0, 61, 100
2, 1281931, Note_off_c, 0, 61, 100
2, 1282063, Note_on_c, 0, 61, 100
2, 1282558, Note_off_c, 0, 61, 100
2, 1282825, Note_on_c, 0, 60, 100
2, 1283064, Note_off_c, 0, 60, 100
2, 1283529, Note_on_c, 0, 59, 100
2, 1283633, Note_off_c, 0, 59, 100
2, 1284182, Note_on_c, 0, 58, 100
2, 1284323, Note_off_c, 0, 58, 100
2, 1284798, Note_on_c, 0, 56, 100
2, 1285190, Note_off_c, 0, 56, 100
2, 1285394, Note_on_c, 0, 53, 100
2, 1285989, Note_on_c, 0, 51, 100
2, 1286117, Note_off_c, 0, 53, 100
2, 1286679, Note_on_c, 0, 49, 100
2, 1286944, Note_off_c, 0, 51, 100
2, 1287479, Note_on_c, 0, 47, 100
2, 1287603, Note_off_c, 0, 49, 100
2, 1288038, Note_off_c, 0, 47, 100
2, 1288243, Note_on_c, 0, 44, 100
2, 1288519, Note_off_c, 0, 44, 100
2, 1288969, Note_on_c, 0, 42, 100
2, 1289665, Note_on_c, 0, 41, 100
2, 1289986, Note_off_c, 0, 42, 100
2, 1290341, Note_on_c, 0, 40, 100
2, 1291011, Note_on_c, 0, 39, 100
2, 1291278, Note_off_c, 0, 41, 100
2, 1291688, Note_off_c, 0, 40, 100
2, 1291688, Note_on_c, 0, 40, 100
2, 1292414, Note_on_c, 0, 41, 100
2, 1292589, Note_off_c, 0, 40, 100
2, 1292603, Note_off_c, 0, 39, 100
2, 1292649, Note_off_c, 0, 41, 100
2, 1293129, Note_on_c, 0, 42, 100
2, 1293864, Note_on_c, 0, 44, 100
2, 1294287, Note_off_c, 0, 42, 100
2, 1294643, Note_on_c, 0, 47, 100
2, 1295438, Note_on_c, 0, 50, 100
2, 1295651, Note_off_c, 0, 44, 100
2, 1296233, Note_on_c, 0, 52, 100
2, 1296587, Note_off_c, 0, 47, 100
2, 1297014, Note_on_c, 0, 56, 100
2, 1297043, Note_off_c, 0, 50, 100
2, 1297134, Note_off_c, 0, 52, 100
2, 1297135, Note_off_c, 0, 56, 100
2, 1297766, Note_on_c, 0, 59, 100
2, 1298477, Note_on_c, 0, 61, 100
2, 1298588, Note_off_c, 0, 59, 100
2, 1299142, Note_on_c, 0, 64, 100
2, 1299680, Note_off_c, 0, 61, 100
2, 1299761, Note_on_c, 0, 65, 100
2, 1300344, Note_on_c, 0, 66, 100
2, 1300347, Note_off_c, 0, 64, 100
2, 1300667, Note_off_c, 0, 65, 100
2, 1300822, Note_off_c, 0, 66, 100
2, 1301174, Note_on_c, 0, 67, 100
2, 1301290, Note_off_c, 0, 67, 100
2, 1302056, Note_on_c, 0, 66, 100
2, 1302291, Note_off_c, 0, 66, 100
2, 1302919, Note_on_c, 0, 65, 100
2, 1303088, Note_off_c, 0, 65, 100
2, 1303744, Note_on_c, 0, 64, 100
2, 1303971, Note_off_c, 0, 64, 100
2, 1304515, Note_on_c, 0, 62, 100
2, 1304925, Note_off_c, 0, 62, 100
2, 1305222, Note_on_c, 0, 59, 100
2, 1305640, Note_off_c, 0, 59, 100
2, 1305864, Note_on_c, 0, 57, 100
2, 1306034, Note_off_c, 0, 57, 100
2, 1306448, Note_on_c, 0, 54, 100
2, 1306934, Note_off_c, 0, 54, 100
2, 1306989, Note_on_c, 0, 52, 100
2, 1307532, Note_on_c, 0, 50, 100
2, 1308004, Note_off_c, 0, 52, 100
2, 1308453, Note_on_c, 0, 49, 100
2, 1308931, Note_off_c, 0, 50, 100
2, 1309350, Note_on_c, 0, 47, 100
2, 1309904, Note_off_c, 0, 49, 100
2, 1310202, Note_on_c, 0, 46, 100
2, 1310434, Note_off_c, 0, 47, 100
2, 1310559, Note_off_c, 0, 46, 100
2, 1310995, Note_on_c, 0, 46, 100
2, 1311723, Note_off_c, 0, 46, 100
2, 1311723, Note_on_c, 0, 46, 100
2, 1312386, Note_off_c, 0, 46, 100
2, 1312386, Note_on_c, 0, 46, 100
2, 1312994, Note_on_c, 0, 47, 100
2, 1313565, Note_on_c, 0, 48, 100
2, 1314118, Note_on_c, 0, 49, 100
2, 1314353, Note_off_c, 0, 46, 100
2, 1314605, Note_off_c, 0, 49, 100
2, 1314765, Note_on_c, 0, 50, 100
2, 1314904, Note_off_c, 0, 47, 100
2, 1314927, Note_off_c, 0, 48, 100
2, 1315405, Note_off_c, 0, 50, 100
2, 1315625, Note_on_c, 0, 51, 100
2, 1316447, Note_on_c, 0, 52, 100
2, 1316989, Note_off_c, 0, 51, 100
2, 1317222, Note_off_c, 0, 52, 100
2, 1317222, Note_on_c, 0, 52, 100
2, 1317950, Note_on_c, 0, 53, 100
2, 1318635, Note_off_c, 0, 53, 100
2, 1318635, Note_on_c, 0, 53, 100
2, 1318769, Note_off_c, 0, 52, 100
2, 1319047, Note_off_c, 0, 53, 100
2, 1319290, Note_on_c, 0, 53, 100
2, 1319636, Note_off_c, 0, 53, 100
2, 1319929, Note_on_c, 0, 52, 100
2, 1320568, Note_off_c, 0, 52, 100
2, 1320568, Note_on_c, 0, 52, 100
2, 1321223, Note_on_c, 0, 51, 100
2, 1321264, Note_off_c, 0, 52, 100
2, 1321726, Note_off_c, 0, 51, 100
2, 1321937, Note_on_c, 0, 50, 100
2, 1322182, Note_off_c, 0, 50, 100
2, 1322667, Note_on_c, 0, 50, 100
2, 1322768, Note_off_c, 0, 50, 100
2, 1323369, Note_on_c, 0, 50, 100
2, 1323509, Note_off_c, 0, 50, 100
2, 1324109, Note_on_c, 0, 50, 100
2, 1324497, Note_off_c, 0, 50, 100
2, 1324877, Note_on_c, 0, 50, 100
2, 1325593, Note_off_c, 0, 50, 100
2, 1325640, Note_on_c, 0, 50, 100
2, 1326385, Note_off_c, 0, 50, 100
2, 1326385, Note_on_c, 0, 50, 100
2, 1327100, Note_on_c, 0, 51, 100
2, 1327301, Note_off_c, 0, 50, 100
2, 1327651, Note_off_c, 0, 51, 100
2, 1327780, Note_on_c, 0, 52, 100
2, 1328061, Note_off_c, 0, 52, 100
2, 1328425, Note_on_c, 0, 54, 100
2, 1329198, Note_on_c, 0, 56, 100
2, 1329445, Note_off_c, 0, 54, 100
2, 1330036, Note_on_c, 0, 58, 100
2, 1330810, Note_off_c, 0, 56, 100
2, 1330874, Note_on_c, 0, 60, 100
2, 1331692, Note_on_c, 0, 62, 100
2, 1331875, Note_off_c, 0, 58, 100
2, 1332460, Note_off_c, 0, 60, 100
2, 1332473, Note_on_c, 0, 63, 100
2, 1332585, Note_off_c, 0, 62, 100
2, 1332717, Note_off_c, 0, 63, 100
2, 1333205, Note_on_c, 0, 64, 100
2, 1333880, Note_off_c, 0, 64, 100
2, 1333880, Note_on_c, 0, 64, 100
2, 1334498, Note_off_c, 0, 64, 100
2, 1334498, Note_on_c, 0, 64, 100
2, 1335069, Note_on_c, 0, 63, 100
2, 1335608, Note_on_c, 0, 62, 100
2, 1336444, Note_off_c, 0, 64, 100
2, 1336504, Note_off_c, 0, 62, 100
2, 1336504, Note_on_c, 0, 60, 100
2, 1336632, Note_off_c, 0, 60, 100
2, 1336673, Note_off_c, 0, 63, 100
2, 1337406, Note_on_c, 0, 57, 100
2, 1338236, Note_off_c, 0, 57, 100
2, 1338273, Note_on_c, 0, 55, 100
2, 1339088, Note_on_c, 0, 52, 100
2, 1339485, Note_off_c, 0, 55, 100
2, 1339839, Note_on_c, 0, 50, 100
2, 1340300, Note_off_c, 0, 52, 100
2, 1340521, Note_on_c, 0, 47, 100
2, 1340749, Note_off_c, 0, 50, 100
2, 1341000, Note_off_c, 0, 47, 100
2, 1341140, Note_on_c, 0, 44, 100
2, 1341254, Note_off_c, 0, 44, 100
2, 1341706, Note_on_c, 0, 42, 100
2, 1341946, Note_off_c, 0, 42, 100
2, 1342240, Note_on_c, 0, 40, 100
2, 1342416, Note_off_c, 0, 40, 100
2, 1342835, Note_on_c, 0, 39, 100
2, 1343053, Note_off_c, 0, 39, 100
2, 1343737, Note_on_c, 0, 39, 100
2, 1344139, Note_off_c, 0, 39, 100
2, 1344606, Note_on_c, 0, 39, 100
2, 1345017, Note_off_c, 0, 39, 100
2, 1345425, Note_on_c, 0, 40, 100
2, 1345591, Note_off_c, 0, 40, 100
2, 1346187, Note_on_c, 0, 42, 100
2, 1346674, Note_off_c, 0, 42, 100
2, 1346890, Note_on_c, 0, 44, 100
2, 1347543, Note_on_c, 0, 46, 100
2, 1347902, Note_off_c, 0, 44, 100
2, 1348158, Note_on_c, 0, 49, 100
2, 1348753, Note_on_c, 0, 51, 100
2, 1348936, Note_off_c, 0, 46, 100
2, 1349348, Note_on_c, 0, 54, 100
2, 1349601, Note_off_c, 0, 49, 100
2, 1349697, Note_off_c, 0, 54, 100
2, 1349829, Note_off_c, 0, 51, 100
2, 1350041, Note_on_c, 0, 57, 100
2, 1350777, Note_off_c, 0, 57, 100
2, 1350841, Note_on_c, 0, 60, 100
2, 1351605, Note_on_c, 0, 62, 100
2, 1352332, Note_on_c, 0, 63, 100
2, 1352369, Note_off_c, 0, 60, 100
2, 1353028, Note_on_c, 0, 64, 100
2, 1353573, Note_off_c, 0, 62, 100
2, 1353704, Note_off_c, 0, 64, 100
2, 1353704, Note_on_c, 0, 64, 100
2, 1354239, Note_off_c, 0, 63, 100
2, 1354373, Note_off_c, 0, 64, 100
2, 1354373, Note_on_c, 0, 64, 100
2, 1355022, Note_off_c, 0, 64, 100
2, 1355050, Note_on_c, 0, 63, 100
2, 1355773, Note_on_c, 0, 62, 100
2, 1356422, Note_off_c, 0, 63, 100
2, 1356489, Note_on_c, 0, 60, 100
2, 1357224, Note_on_c, 0, 58, 100
2, 1357462, Note_off_c, 0, 62, 100
2, 1358002, Note_on_c, 0, 56, 100
2, 1358039, Note_off_c, 0, 60, 100
2, 1358279, Note_off_c, 0, 58, 100
2, 1358411, Note_off_c, 0, 56, 100
2, 1358796, Note_on_c, 0, 54, 100
2, 1359148, Note_off_c, 0, 54, 100
2, 1359591, Note_on_c, 0, 53, 100
2, 1360268, Note_off_c, 0, 53, 100
2, 1360372, Note_on_c, 0, 51, 100
2, 1361077, Note_off_c, 0, 51, 100
2, 1361123, Note_on_c, 0, 50, 100
2, 1361633, Note_off_c, 0, 50, 100
2, 1361834, Note_on_c, 0, 50, 100
2, 1362085, Note_off_c, 0, 50, 100
2, 1362499, Note_on_c, 0, 50, 100
2, 1362597, Note_off_c, 0, 50, 100
2, 1363119, Note_on_c, 0, 50, 100
2, 1363259, Note_off_c, 0, 50, 100
2, 1363702, Note_on_c, 0, 50, 100
2, 1364086, Note_off_c, 0, 50, 100
2, 1364536, Note_on_c, 0, 50, 100
2, 1365246, Note_off_c, 0, 50, 100
2, 1365417, Note_on_c, 0, 50, 100
2, 1366279, Note_on_c, 0, 51, 100
2, 1366356, Note_off_c, 0, 50, 100
2, 1367103, Note_on_c, 0, 52, 100
2, 1367187, Note_off_c, 0, 51, 100
2, 1367647, Note_off_c, 0, 52, 100
2, 1367874, Note_on_c, 0, 53, 100
2, 1368160, Note_off_c, 0, 53, 100
2, 1368580, Note_on_c, 0, 53, 100
2, 1369222, Note_off_c, 0, 53, 100
2, 1369222, Note_on_c, 0, 53, 100
2, 1369805, Note_off_c, 0, 53, 100
2, 1369805, Note_on_c, 0, 53, 100
2, 1370346, Note_on_c, 0, 52, 100
2, 1370895, Note_on_c, 0, 51, 100
2, 1371640, Note_off_c, 0, 53, 100
2, 1371779, Note_off_c, 0, 51, 100
2, 1371816, Note_on_c, 0, 50, 100
2, 1371925, Note_off_c, 0, 52, 100
2, 1372068, Note_off_c, 0, 50, 100
2, 1372713, Note_on_c, 0, 50, 100
2, 1373564, Note_on_c, 0, 49, 100
2, 1373886, Note_off_c, 0, 50, 100
2, 1374357, Note_on_c, 0, 48, 100
2, 1375083, Note_on_c, 0, 47, 100
2, 1375361, Note_off_c, 0, 49, 100
2, 1375746, Note_on_c, 0, 46, 100
2, 1376305, Note_off_c, 0, 48, 100
2, 1376354, Note_on_c, 0, 45, 100
2, 1376489, Note_off_c, 0, 45, 100
2, 1376638, Note_off_c, 0, 46, 100
2, 1376685, Note_off_c, 0, 47, 100
2, 1376924, Note_on_c, 0, 45, 100
2, 1377476, Note_on_c, 0, 46, 100
2, 1377763, Note_off_c, 0, 45, 100
2, 1378127, Note_on_c, 0, 47, 100
2, 1378696, Note_off_c, 0, 46, 100
2, 1378988, Note_on_c, 0, 48, 100
2, 1379346, Note_off_c, 0, 47, 100
2, 1379810, Note_on_c, 0, 50, 100
2, 1379903, Note_off_c, 0, 48, 100
2, 1380291, Note_off_c, 0, 50, 100
2, 1380585, Note_on_c, 0, 52, 100
2, 1380697, Note_off_c, 0, 52, 100
2, 1381312, Note_on_c, 0, 54, 100
2, 1381557, Note_off_c, 0, 54, 100
2, 1381997, Note_on_c, 0, 57, 100
2, 1382180, Note_off_c, 0, 57, 100
2, 1382652, Note_on_c, 0, 59, 100
2, 1382862, Note_off_c, 0, 59, 100
2, 1383290, Note_on_c, 0, 62, 100
2, 1383684, Note_off_c, 0, 62, 100
2, 1383929, Note_on_c, 0, 64, 100
2, 1384333, Note_off_c, 0, 64, 100
2, 1384583, Note_on_c, 0, 65, 100
2, 1384745, Note_off_c, 0, 65, 100
2, 1385297, Note_on_c, 0, 66, 100
2, 1385784, Note_off_c, 0, 66, 100
2, 1386029, Note_on_c, 0, 67, 100
2, 1386731, Note_on_c, 0, 66, 100
2, 1387039, Note_off_c, 0, 67, 100
2, 1387466, Note_on_c, 0, 65, 100
2, 1388119, Note_off_c, 0, 66, 100
2, 1388234, Note_on_c, 0, 64, 100
2, 1388902, Note_off_c, 0, 65, 100
2, 1388997, Note_on_c, 0, 61, 100
2, 1389301, Note_off_c, 0, 64, 100
2, 1389338, Note_off_c, 0, 61, 100
2, 1389742, Note_on_c, 0, 59, 100
2, 1390457, Note_on_c, 0, 56, 100
2, 1390484, Note_off_c, 0, 59, 100
2, 1391138, Note_on_c, 0, 53, 100
2, 1391783, Note_on_c, 0, 50, 100
2, 1391989, Note_off_c, 0, 56, 100
2, 1392558, Note_on_c, 0, 47, 100
2, 1393106, Note_off_c, 0, 53, 100
2, 1393397, Note_on_c, 0, 45, 100
2, 1393687, Note_off_c, 0, 50, 100
2, 1393869, Note_off_c, 0, 45, 100
2, 1393908, Note_off_c, 0, 47, 100
2, 1394233, Note_on_c, 0, 42, 100
2, 1394890, Note_off_c, 0, 42, 100
2, 1395051, Note_on_c, 0, 41, 100
2, 1395832, Note_on_c, 0, 40, 100
2, 1396431, Note_off_c, 0, 41, 100
2, 1396563, Note_on_c, 0, 39, 100
2, 1397237, Note_off_c, 0, 40, 100
2, 1397237, Note_on_c, 0, 40, 100
2, 1397855, Note_on_c, 0, 41, 100
2, 1398117, Note_off_c, 0, 39, 100
2, 1398260, Note_off_c, 0, 41, 100
2, 1398292, Note_off_c, 0, 40, 100
2, 1398426, Note_on_c, 0, 42, 100
2, 1398784, Note_off_c, 0, 42, 100
2, 1398965, Note_on_c, 0, 44, 100
2, 1399650, Note_off_c, 0, 44, 100
2, 1399866, Note_on_c, 0, 47, 100
2, 1400579, Note_off_c, 0, 47, 100
2, 1400767, Note_on_c, 0, 49, 100
2, 1401285, Note_off_c, 0, 49, 100
2, 1401634, Note_on_c, 0, 51, 100
2, 1401890, Note_off_c, 0, 51, 100
2, 1402449, Note_on_c, 0, 53, 100
2, 1402545, Note_off_c, 0, 53, 100
2, 1403199, Note_on_c, 0, 55, 100
2, 1403338, Note_off_c, 0, 55, 100
2, 1403881, Note_on_c, 0, 57, 100
2, 1404262, Note_off_c, 0, 57, 100
2, 1404498, Note_on_c, 0, 59, 100
2, 1405064, Note_on_c, 0, 60, 100
2, 1405201, Note_off_c, 0, 59, 100
2, 1405598, Note_off_c, 0, 60, 100
2, 1405598, Note_on_c, 0, 60, 100
2, 1406197, Note_off_c, 0, 60, 100
2, 1406197, Note_on_c, 0, 60, 100
2, 1406733, Note_off_c, 0, 60, 100
2, 1407100, Note_on_c, 0, 60, 100
2, 1407392, Note_off_c, 0, 60, 100
2, 1407969, Note_on_c, 0, 59, 100
2, 1408788, Note_on_c, 0, 58, 100
2, 1408993, Note_off_c, 0, 59, 100
2, 1409549, Note_on_c, 0, 57, 100
2, 1410252, Note_on_c, 0, 56, 100
2, 1410398, Note_off_c, 0, 58, 100
2, 1410904, Note_on_c, 0, 55, 100
2, 1411379, Note_off_c, 0, 57, 100
2, 1411518, Note_on_c, 0, 53, 100
2, 1411778, Note_off_c, 0, 53, 100
2, 1411780, Note_off_c, 0, 55, 100
2, 1411824, Note_off_c, 0, 56, 100
2, 1412113, Note_on_c, 0, 53, 100
2, 1412707, Note_on_c, 0, 52, 100
2, 1413293, Note_off_c, 0, 53, 100
2, 1413403, Note_off_c, 0, 52, 100
2, 1413403, Note_on_c, 0, 52, 100
2, 1414203, Note_off_c, 0, 52, 100
2, 1414203, Note_on_c, 0, 52, 100
2, 1414968, Note_on_c, 0, 53, 100
2, 1415695, Note_off_c, 0, 53, 100
2, 1415695, Note_on_c, 0, 53, 100
2, 1415803, Note_off_c, 0, 52, 100
2, 1415855, Note_off_c, 0, 53, 100
2, 1416391, Note_on_c, 0, 54, 100
2, 1417066, Note_on_c, 0, 55, 100
2, 1417238, Note_off_c, 0, 54, 100
2, 1417735, Note_off_c, 0, 55, 100
2, 1417735, Note_on_c, 0, 55, 100
2, 1418412, Note_on_c, 0, 56, 100
2, 1418961, Note_off_c, 0, 55, 100
2, 1419131, Note_off_c, 0, 56, 100
2, 1419131, Note_on_c, 0, 56, 100
2, 1419613, Note_off_c, 0, 56, 100
2, 1419848, Note_on_c, 0, 56, 100
2, 1419958, Note_off_c, 0, 56, 100
2, 1420584, Note_on_c, 0, 56, 100
2, 1420834, Note_off_c, 0, 56, 100
2, 1421362, Note_on_c, 0, 55, 100
2, 1421553, Note_off_c, 0, 55, 100
2, 1422155, Note_on_c, 0, 54, 100
2, 1422356, Note_off_c, 0, 54, 100
2, 1422949, Note_on_c, 0, 53, 100
2, 1423335, Note_off_c, 0, 53, 100
2, 1423729, Note_on_c, 0, 51, 100
2, 1424127, Note_off_c, 0, 51, 100
2, 1424481, Note_on_c, 0, 50, 100
2, 1424639, Note_off_c, 0, 50, 100
2, 1425191, Note_on_c, 0, 48, 100
2, 1425679, Note_off_c, 0, 48, 100
2, 1425856, Note_on_c, 0, 46, 100
2, 1426476, Note_on_c, 0, 44, 100
2, 1426863, Note_off_c, 0, 46, 100
2, 1427060, Note_on_c, 0, 43, 100
2, 1427858, Note_off_c, 0, 44, 100
2, 1427897, Note_on_c, 0, 42, 100
2, 1428488, Note_off_c, 0, 43, 100
2, 1428778, Note_off_c, 0, 42, 100
2, 1428778, Note_on_c, 0, 42, 100
2, 1429111, Note_off_c, 0, 42, 100
2, 1429640, Note_on_c, 0, 42, 100
2, 1430388, Note_off_c, 0, 42, 100
2, 1430463, Note_on_c, 0, 43, 100
2, 1431233, Note_on_c, 0, 44, 100
2, 1431938, Note_on_c, 0, 46, 100
2, 1431998, Note_off_c, 0, 43, 100
2, 1432579, Note_on_c, 0, 49, 100
2, 1433163, Note_on_c, 0, 50, 100
2, 1433201, Note_off_c, 0, 44, 100
2, 1433627, Note_off_c, 0, 50, 100
2, 1433703, Note_on_c, 0, 53, 100
2, 1433839, Note_off_c, 0, 46, 100
2, 1433923, Note_off_c, 0, 49, 100
2, 1434258, Note_on_c, 0, 56, 100
2, 1434369, Note_off_c, 0, 53, 100
2, 1435179, Note_on_c, 0, 59, 100
2, 1435646, Note_off_c, 0, 56, 100
2, 1436075, Note_on_c, 0, 62, 100
2, 1436880, Note_off_c, 0, 59, 100
2, 1436926, Note_on_c, 0, 64, 100
2, 1437632, Note_off_c, 0, 62, 100
2, 1437718, Note_on_c, 0, 66, 100
2, 1437981, Note_off_c, 0, 64, 100
2, 1438120, Note_off_c, 0, 66, 100
2, 1438444, Note_on_c, 0, 67, 100
2, 1438809, Note_off_c, 0, 67, 100
2, 1439106, Note_on_c, 0, 67, 100
2, 1439713, Note_off_c, 0, 67, 100
2, 1439713, Note_on_c, 0, 67, 100
2, 1440282, Note_on_c, 0, 66, 100
2, 1440435, Note_off_c, 0, 67, 100
2, 1440808, Note_off_c, 0, 66, 100
2, 1440834, Note_on_c, 0, 64, 100
2, 1441096, Note_off_c, 0, 64, 100
2, 1441489, Note_on_c, 0, 62, 100
2, 1441587, Note_off_c, 0, 62, 100
2, 1442350, Note_on_c, 0, 60, 100
2, 1442488, Note_off_c, 0, 60, 100
2, 1443173, Note_on_c, 0, 57, 100
2, 1443550, Note_off_c, 0, 57, 100
2, 1443948, Note_on_c, 0, 54, 100
2, 1444645, Note_off_c, 0, 54, 100
2, 1444675, Note_on_c, 0, 51, 100
2, 1445360, Note_on_c, 0, 49, 100
2, 1445597, Note_off_c, 0, 51, 100
2, 1446013, Note_on_c, 0, 46, 100
2, 1446251, Note_off_c, 0, 49, 100
2, 1446542, Note_off_c, 0, 46, 100
2, 1446651, Note_on_c, 0, 44, 100
2, 1446948, Note_off_c, 0, 44, 100
2, 1447289, Note_on_c, 0, 43, 100
2, 1447942, Note_on_c, 0, 42, 100
2, 1448315, Note_off_c, 0, 43, 100
2, 1448658, Note_off_c, 0, 42, 100
2, 1448658, Note_on_c, 0, 42, 100
2, 1449390, Note_off_c, 0, 42, 100
2, 1449390, Note_on_c, 0, 42, 100
2, 1450093, Note_on_c, 0, 43, 100
2, 1450824, Note_on_c, 0, 44, 100
2, 1450955, Note_off_c, 0, 42, 100
2, 1450961, Note_off_c, 0, 43, 100
2, 1451093, Note_off_c, 0, 44, 100
2, 1451591, Note_on_c, 0, 46, 100
2, 1452354, Note_on_c, 0, 48, 100
2, 1452778, Note_off_c, 0, 46, 100
2, 1453099, Note_on_c, 0, 50, 100
2, 1453815, Note_on_c, 0, 51, 100
2, 1454161, Note_off_c, 0, 48, 100
2, 1454496, Note_on_c, 0, 52, 100
2, 1455050, Note_off_c, 0, 50, 100
2, 1455142, Note_on_c, 0, 54, 100
2, 1455292, Note_off_c, 0, 54, 100
2, 1455378, Note_off_c, 0, 52, 100
2, 1455414, Note_off_c, 0, 51, 100
2, 1455919, Note_on_c, 0, 55, 100
2, 1456757, Note_on_c, 0, 56, 100
2, 1456774, Note_off_c, 0, 55, 100
2, 1457593, Note_off_c, 0, 56, 100
2, 1457593, Note_on_c, 0, 56, 100
2, 1458410, Note_off_c, 0, 56, 100
2, 1458410, Note_on_c, 0, 56, 100
2, 1459190, Note_off_c, 0, 56, 100
2, 1459190, Note_on_c, 0, 56, 100
2, 1459673, Note_off_c, 0, 56, 100
2, 1459920, Note_on_c, 0, 55, 100
2, 1460028, Note_off_c, 0, 55, 100
2, 1460594, Note_on_c, 0, 55, 100
2, 1460850, Note_off_c, 0, 55, 100
2, 1461213, Note_on_c, 0, 54, 100
2, 1461411, Note_off_c, 0, 54, 100
2, 1461783, Note_on_c, 0, 53, 100
2, 1461976, Note_off_c, 0, 53, 100
2, 1462322, Note_on_c, 0, 52, 100
2, 1462700, Note_off_c, 0, 52, 100
2, 1463229, Note_on_c, 0, 52, 100
2, 1463620, Note_off_c, 0, 52, 100
2, 1464129, Note_on_c, 0, 52, 100
2, 1464283, Note_off_c, 0, 52, 100
2, 1464996, Note_on_c, 0, 52, 100
2, 1465485, Note_off_c, 0, 52, 100
2, 1465810, Note_on_c, 0, 53, 100
2, 1466559, Note_off_c, 0, 53, 100
2, 1466559, Note_on_c, 0, 53, 100
2, 1467240, Note_on_c, 0, 55, 100
2, 1467857, Note_on_c, 0, 56, 100
2, 1467936, Note_off_c, 0, 53, 100
2, 1468422, Note_on_c, 0, 57, 100
2, 1468660, Note_off_c, 0, 55, 100
2, 1468747, Note_off_c, 0, 57, 100
2, 1468907, Note_off_c, 0, 56, 100
2, 1468955, Note_on_c, 0, 58, 100
2, 1469560, Note_on_c, 0, 59, 100
2, 1469710, Note_off_c, 0, 58, 100
2, 1470463, Note_on_c, 0, 60, 100
2, 1471099, Note_off_c, 0, 59, 100
2, 1471332, Note_off_c, 0, 60, 100
2, 1471332, Note_on_c, 0, 60, 100
2, 1472150, Note_off_c, 0, 60, 100
2, 1472150, Note_on_c, 0, 60, 100
2, 1472911, Note_off_c, 0, 60, 100
2, 1472911, Note_on_c, 0, 60, 100
2, 1473488, Note_off_c, 0, 60, 100
2, 1473614, Note_on_c, 0, 59, 100
2, 1474265, Note_on_c, 0, 58, 100
2, 1474288, Note_off_c, 0, 59, 100
2, 1474878, Note_on_c, 0, 56, 100
2, 1475472, Note_on_c, 0, 53, 100
2, 1475661, Note_off_c, 0, 58, 100
2, 1476065, Note_on_c, 0, 51, 100
2, 1476585, Note_off_c, 0, 56, 100
2, 1476764, Note_on_c, 0, 49, 100
2, 1477032, Note_off_c, 0, 53, 100
2, 1477120, Note_off_c, 0, 51, 100
2, 1477162, Note_off_c, 0, 49, 100
2, 1477566, Note_on_c, 0, 47, 100
2, 1477937, Note_off_c, 0, 47, 100
2, 1478330, Note_on_c, 0, 44, 100
2, 1479031, Note_off_c, 0, 44, 100
2, 1479058, Note_on_c, 0, 42, 100
2, 1479754, Note_on_c, 0, 41, 100
2, 1479788, Note_off_c, 0, 42, 100
2, 1480287, Note_off_c, 0, 41, 100
2, 1480429, Note_on_c, 0, 40, 100
2, 1480696, Note_off_c, 0, 40, 100
2, 1481098, Note_on_c, 0, 39, 100
2, 1481198, Note_off_c, 0, 39, 100
2, 1481774, Note_on_c, 0, 40, 100
2, 1481911, Note_off_c, 0, 40, 100
2, 1482490, Note_on_c, 0, 41, 100
2, 1482862, Note_off_c, 0, 41, 100
2, 1483207, Note_on_c, 0, 42, 100
2, 1483897, Note_off_c, 0, 42, 100
2, 1483944, Note_on_c, 0, 45, 100
2, 1484721, Note_on_c, 0, 47, 100
2, 1484858, Note_off_c, 0, 45, 100
2, 1485513, Note_on_c, 0, 50, 100
2, 1485603, Note_off_c, 0, 47, 100
2, 1486035, Note_off_c, 0, 50, 100
2, 1486307, Note_on_c, 0, 52, 100
2, 1486609, Note_off_c, 0, 52, 100
2, 1487087, Note_on_c, 0, 56, 100
2, 1487838, Note_on_c, 0, 59, 100
2, 1488115, Note_off_c, 0, 56, 100
2, 1488549, Note_on_c, 0, 61, 100
2, 1489213, Note_on_c, 0, 64, 100
2, 1489445, Note_off_c, 0, 59, 100
2, 1489834, Note_on_c, 0, 65, 100
2, 1490370, Note_off_c, 0, 61, 100
2, 1490418, Note_on_c, 0, 66, 100
2, 1490694, Note_off_c, 0, 65, 100
2, 1490695, Note_off_c, 0, 66, 100
2, 1490771, Note_off_c, 0, 64, 100
2, 1491259, Note_on_c, 0, 67, 100
2, 1492139, Note_on_c, 0, 66, 100
2, 1492453, Note_off_c, 0, 67, 100
2, 1493000, Note_on_c, 0, 65, 100
2, 1493823, Note_on_c, 0, 64, 100
2, 1493950, Note_off_c, 0, 66, 100
2, 1494591, Note_on_c, 0, 62, 100
2, 1494953, Note_off_c, 0, 65, 100
2, 1495297, Note_on_c, 0, 59, 100
2, 1495420, Note_off_c, 0, 64, 100
2, 1495454, Note_off_c, 0, 59, 100
2, 1495468, Note_off_c, 0, 62, 100
2, 1495937, Note_on_c, 0, 57, 100
2, 1496520, Note_on_c, 0, 54, 100
2, 1496801, Note_off_c, 0, 57, 100
2, 1497060, Note_on_c, 0, 52, 100
2, 1497621, Note_on_c, 0, 50, 100
2, 1497765, Note_off_c, 0, 54, 100
2, 1498300, Note_off_c, 0, 52, 100
2, 1498542, Note_on_c, 0, 49, 100
2, 1498549, Note_off_c, 0, 50, 100
2, 1499026, Note_off_c, 0, 49, 100
2, 1499437, Note_on_c, 0, 47, 100
2, 1499543, Note_off_c, 0, 47, 100
2, 1500288, Note_on_c, 0, 46, 100
2, 1500549, Note_off_c, 0, 46, 100
2, 1501080, Note_on_c, 0, 46, 100
2, 1501286, Note_off_c, 0, 46, 100
2, 1501805, Note_on_c, 0, 46, 100
2, 1501990, Note_off_c, 0, 46, 100
2, 1502466, Note_on_c, 0, 46, 100
2, 1502836, Note_off_c, 0, 46, 100
2, 1503072, Note_on_c, 0, 47, 100
2, 1503457, Note_off_c, 0, 47, 100
2, 1503641, Note_on_c, 0, 48, 100
2, 1503791, Note_off_c, 0, 48, 100
2, 1504192, Note_on_c, 0, 49, 100
2, 1504681, Note_off_c, 0, 49, 100
2, 1504852, Note_on_c, 0, 50, 100
2, 1505713, Note_off_c, 0, 50, 100
2, 1505713, Note_on_c, 0, 50, 100
2, 1506535, Note_on_c, 0, 52, 100
2, 1507084, Note_off_c, 0, 50, 100
2, 1507311, Note_off_c, 0, 52, 100
2, 1507311, Note_on_c, 0, 52, 100
2, 1508038, Note_on_c, 0, 53, 100
2, 1508353, Note_off_c, 0, 52, 100
2, 1508355, Note_off_c, 0, 53, 100
2, 1508722, Note_on_c, 0, 53, 100
2, 1509375, Note_off_c, 0, 53, 100
2, 1509375, Note_on_c, 0, 53, 100
2, 1510012, Note_on_c, 0, 52, 100
2, 1510650, Note_off_c, 0, 52, 100
2, 1510650, Note_on_c, 0, 52, 100
2, 1510917, Note_off_c, 0, 53, 100
2, 1511302, Note_on_c, 0, 51, 100
2, 1512019, Note_on_c, 0, 50, 100
2, 1512467, Note_off_c, 0, 50, 100
2, 1512545, Note_off_c, 0, 52, 100
2, 1512634, Note_off_c, 0, 51, 100
2, 1512752, Note_on_c, 0, 50, 100
2, 1513435, Note_off_c, 0, 50, 100
2, 1513456, Note_on_c, 0, 50, 100
2, 1514181, Note_off_c, 0, 50, 100
2, 1514181, Note_on_c, 0, 50, 100
2, 1514948, Note_off_c, 0, 50, 100
2, 1514948, Note_on_c, 0, 50, 100
2, 1515711, Note_off_c, 0, 50, 100
2, 1515711, Note_on_c, 0, 50, 100
2, 1516456, Note_off_c, 0, 50, 100
2, 1516456, Note_on_c, 0, 50, 100
2, 1516850, Note_off_c, 0, 50, 100
2, 1517172, Note_on_c, 0, 51, 100
2, 1517549, Note_off_c, 0, 51, 100
2, 1517854, Note_on_c, 0, 52, 100
2, 1518500, Note_on_c, 0, 54, 100
2, 1518563, Note_off_c, 0, 52, 100
2, 1519239, Note_off_c, 0, 54, 100
2, 1519280, Note_on_c, 0, 56, 100
2, 1519821, Note_off_c, 0, 56, 100
2, 1520117, Note_on_c, 0, 58, 100
2, 1520390, Note_off_c, 0, 58, 100
2, 1520952, Note_on_c, 0, 60, 100
2, 1521055, Note_off_c, 0, 60, 100
2, 1521768, Note_on_c, 0, 62, 100
2, 1521905, Note_off_c, 0, 62, 100
2, 1522548, Note_on_c, 0, 63, 100
2, 1522916, Note_off_c, 0, 63, 100
2, 1523278, Note_on_c, 0, 64, 100
2, 1523952, Note_off_c, 0, 64, 100
2, 1523952, Note_on_c, 0, 64, 100
2, 1524570, Note_off_c, 0, 64, 100
2, 1524570, Note_on_c, 0, 64, 100
2, 1525141, Note_on_c, 0, 63, 100
2, 1525444, Note_off_c, 0, 64, 100
2, 1525655, Note_off_c, 0, 63, 100
2, 1525680, Note_on_c, 0, 62, 100
2, 1525987, Note_off_c, 0, 62, 100
2, 1526591, Note_on_c, 0, 60, 100
2, 1527491, Note_on_c, 0, 57, 100
2, 1527621, Note_off_c, 0, 60, 100
2, 1528357, Note_on_c, 0, 54, 100
2, 1529097, Note_off_c, 0, 57, 100
2, 1529170, Note_on_c, 0, 51, 100
2, 1529919, Note_on_c, 0, 49, 100
2, 1530174, Note_off_c, 0, 54, 100
2, 1530599, Note_on_c, 0, 47, 100
2, 1530721, Note_off_c, 0, 51, 100
2, 1530770, Note_off_c, 0, 49, 100
2, 1530884, Note_off_c, 0, 47, 100
2, 1531215, Note_on_c, 0, 44, 100
2, 1531780, Note_on_c, 0, 42, 100
2, 1532313, Note_on_c, 0, 40, 100
2, 1532416, Note_off_c, 0, 44, 100
2, 1532923, Note_on_c, 0, 39, 100
2, 1533596, Note_off_c, 0, 42, 100
2, 1533826, Note_off_c, 0, 39, 100
2, 1533826, Note_on_c, 0, 39, 100
2, 1534267, Note_off_c, 0, 40, 100
2, 1534694, Note_off_c, 0, 39, 100
2, 1534694, Note_on_c, 0, 39, 100
2, 1534858, Note_off_c, 0, 39, 100
2, 1535513, Note_on_c, 0, 40, 100
2, 1536273, Note_on_c, 0, 42, 100
2, 1536385, Note_off_c, 0, 40, 100
2, 1536975, Note_on_c, 0, 44, 100
2, 1537526, Note_off_c, 0, 42, 100
2, 1537626, Note_on_c, 0, 47, 100
2, 1538222, Note_off_c, 0, 44, 100
2, 1538239, Note_on_c, 0, 49, 100
2, 1538558, Note_off_c, 0, 47, 100
2, 1538724, Note_off_c, 0, 49, 100
2, 1538832, Note_on_c, 0, 51, 100
2, 1538935, Note_off_c, 0, 51, 100
2, 1539424, Note_on_c, 0, 54, 100
2, 1539690, Note_off_c, 0, 54, 100
2, 1540126, Note_on_c, 0, 57, 100
2, 1540339, Note_off_c, 0, 57, 100
2, 1540928, Note_on_c, 0, 60, 100
2, 1541104, Note_off_c, 0, 60, 100
2, 1541693, Note_on_c, 0, 62, 100
2, 1542054, Note_off_c, 0, 62, 100
2, 1542421, Note_on_c, 0, 63, 100
2, 1542799, Note_off_c, 0, 63, 100
2, 1543117, Note_on_c, 0, 64, 100
2, 1543263, Note_off_c, 0, 64, 100
2, 1543792, Note_on_c, 0, 64, 100
2, 1544282, Note_off_c, 0, 64, 100
2, 1544460, Note_on_c, 0, 64, 100
2, 1545135, Note_on_c, 0, 63, 100
2, 1545459, Note_off_c, 0, 64, 100
2, 1545849, Note_on_c, 0, 62, 100
2, 1546500, Note_off_c, 0, 63, 100
2, 1546567, Note_on_c, 0, 60, 100
2, 1547254, Note_off_c, 0, 62, 100
2, 1547304, Note_on_c, 0, 58, 100
2, 1547600, Note_off_c, 0, 60, 100
2, 1547613, Note_off_c, 0, 58, 100
2, 1548080, Note_on_c, 0, 56, 100
2, 1548847, Note_off_c, 0, 56, 100
2, 1548872, Note_on_c, 0, 54, 100
2, 1549665, Note_on_c, 0, 52, 100
2, 1550417, Note_off_c, 0, 54, 100
2, 1550445, Note_on_c, 0, 51, 100
2, 1551195, Note_on_c, 0, 50, 100
2, 1551634, Note_off_c, 0, 52, 100
2, 1551906, Note_off_c, 0, 50, 100
2, 1551906, Note_on_c, 0, 50, 100
2, 1552336, Note_off_c, 0, 51, 100
2, 1552521, Note_off_c, 0, 50, 100
2, 1552571, Note_on_c, 0, 50, 100
2, 1553191, Note_off_c, 0, 50, 100
2, 1553191, Note_on_c, 0, 50, 100
2, 1553776, Note_off_c, 0, 50, 100
2, 1553776, Note_on_c, 0, 50, 100
2, 1554620, Note_off_c, 0, 50, 100
2, 1554620, Note_on_c, 0, 50, 100
2, 1555500, Note_off_c, 0, 50, 100
2, 1555500, Note_on_c, 0, 50, 100
2, 1556360, Note_on_c, 0, 51, 100
2, 1556554, Note_off_c, 0, 50, 100
2, 1556751, Note_off_c, 0, 51, 100
2, 1557182, Note_on_c, 0, 52, 100
2, 1557566, Note_off_c, 0, 52, 100
2, 1557950, Note_on_c, 0, 52, 100
2, 1558655, Note_on_c, 0, 53, 100
2, 1558667, Note_off_c, 0, 52, 100
2, 1559295, Note_off_c, 0, 53, 100
2, 1559295, Note_on_c, 0, 53, 100
2, 1559843, Note_off_c, 0, 53, 100
2, 1559878, Note_on_c, 0, 53, 100
2, 1560156, Note_off_c, 0, 53, 100
2, 1560418, Note_on_c, 0, 52, 100
2, 1560523, Note_off_c, 0, 52, 100
2, 1560984, Note_on_c, 0, 52, 100
2, 1561120, Note_off_c, 0, 52, 100
2, 1561904, Note_on_c, 0, 50, 100
2, 1562268, Note_off_c, 0, 50, 100
2, 1562800, Note_on_c, 0, 50, 100
2, 1563477, Note_off_c, 0, 50, 100
2, 1563650, Note_on_c, 0, 49, 100
2, 1564441, Note_on_c, 0, 48, 100
2, 1564548, Note_off_c, 0, 49, 100
2, 1565166, Note_on_c, 0, 47, 100
2, 1565306, Note_off_c, 0, 48, 100
2, 1565673, Note_off_c, 0, 47, 100
2, 1565826, Note_on_c, 0, 46, 100
2, 1566138, Note_off_c, 0, 46, 100
2, 1566432, Note_on_c, 0, 46, 100
2, 1567000, Note_off_c, 0, 46, 100
2, 1567000, Note_on_c, 0, 46, 100
2, 1567550, Note_off_c, 0, 46, 100
2, 1567550, Note_on_c, 0, 46, 100
2, 1568214, Note_on_c, 0, 47, 100
2, 1569076, Note_on_c, 0, 49, 100
2, 1569362, Note_off_c, 0, 46, 100
2, 1569758, Note_off_c, 0, 47, 100
2, 1569898, Note_on_c, 0, 50, 100
2, 1569919, Note_off_c, 0, 49, 100
2, 1570192, Note_off_c, 0, 50, 100
2, 1570674, Note_on_c, 0, 52, 100
2, 1571400, Note_on_c, 0, 54, 100
2, 1571882, Note_off_c, 0, 52, 100
2, 1572084, Note_on_c, 0, 57, 100
2, 1572737, Note_on_c, 0, 59, 100
2, 1573220, Note_off_c, 0, 54, 100
2, 1573373, Note_on_c, 0, 62, 100
2, 1574010, Note_on_c, 0, 64, 100
2, 1574040, Note_off_c, 0, 57, 100
2, 1574182, Note_off_c, 0, 64, 100
2, 1574240, Note_off_c, 0, 62, 100
2, 1574330, Note_off_c, 0, 59, 100
2, 1574662, Note_on_c, 0, 65, 100
2, 1575380, Note_on_c, 0, 66, 100
2, 1575543, Note_off_c, 0, 65, 100
2, 1576113, Note_on_c, 0, 67, 100
2, 1576641, Note_off_c, 0, 66, 100
2, 1576818, Note_on_c, 0, 66, 100
2, 1577366, Note_off_c, 0, 67, 100
2, 1577539, Note_on_c, 0, 65, 100
2, 1577754, Note_off_c, 0, 66, 100
2, 1578025, Note_off_c, 0, 65, 100
2, 1578306, Note_on_c, 0, 64, 100
2, 1578407, Note_off_c, 0, 64, 100
2, 1579068, Note_on_c, 0, 61, 100
2, 1579340, Note_off_c, 0, 61, 100
2, 1579814, Note_on_c, 0, 59, 100
2, 1580035, Note_off_c, 0, 59, 100
2, 1580530, Note_on_c, 0, 56, 100
2, 1580698, Note_off_c, 0, 56, 100
2, 1581212, Note_on_c, 0, 52, 100
2, 1581565, Note_off_c, 0, 52, 100
2, 1581859, Note_on_c, 0, 50, 100
2, 1582231, Note_off_c, 0, 50, 100
2, 1582641, Note_on_c, 0, 47, 100
2, 1582783, Note_off_c, 0, 47, 100
2, 1583477, Note_on_c, 0, 45, 100
2, 1583967, Note_off_c, 0, 45, 100
2, 1584312, Note_on_c, 0, 42, 100
2, 1585127, Note_on_c, 0, 41, 100
2, 1585308, Note_off_c, 0, 42, 100
2, 1585906, Note_on_c, 0, 40, 100
2, 1586487, Note_off_c, 0, 41, 100
2, 1586636, Note_on_c, 0, 39, 100
2, 1587303, Note_off_c, 0, 40, 100
2, 1587309, Note_on_c, 0, 40, 100
2, 1587610, Note_off_c, 0, 40, 100
2, 1587661, Note_off_c, 0, 39, 100
2, 1587927, Note_on_c, 0, 41, 100
2, 1588498, Note_on_c, 0, 42, 100
2, 1588700, Note_off_c, 0, 41, 100
2, 1589042, Note_on_c, 0, 44, 100
2, 1589953, Note_on_c, 0, 47, 100
2, 1590047, Note_off_c, 0, 42, 100
2, 1590853, Note_on_c, 0, 49, 100
2, 1591010, Note_off_c, 0, 44, 100
2, 1591718, Note_on_c, 0, 51, 100
2, 1591841, Note_off_c, 0, 47, 100
2, 1592150, Note_off_c, 0, 51, 100
2, 1592173, Note_off_c, 0, 49, 100
2, 1592531, Note_on_c, 0, 53, 100
2, 1593231, Note_off_c, 0, 53, 100
2, 1593278, Note_on_c, 0, 56, 100
2, 1593958, Note_on_c, 0, 58, 100
2, 1594573, Note_on_c, 0, 59, 100
2, 1594697, Note_off_c, 0, 56, 100
2, 1595138, Note_on_c, 0, 60, 100
2, 1595670, Note_off_c, 0, 60, 100
2, 1595670, Note_on_c, 0, 60, 100
2, 1595682, Note_off_c, 0, 58, 100
2, 1596141, Note_off_c, 0, 59, 100
2, 1596191, Note_off_c, 0, 60, 100
2, 1596286, Note_on_c, 0, 60, 100
2, 1596676, Note_off_c, 0, 60, 100
2, 1597189, Note_on_c, 0, 60, 100
2, 1597914, Note_off_c, 0, 60, 100
2, 1598057, Note_on_c, 0, 59, 100
2, 1598813, Note_off_c, 0, 59, 100
2, 1598875, Note_on_c, 0, 58, 100
2, 1599431, Note_off_c, 0, 58, 100
2, 1599635, Note_on_c, 0, 57, 100
2, 1599918, Note_off_c, 0, 57, 100
2, 1600337, Note_on_c, 0, 56, 100
2, 1600445, Note_off_c, 0, 56, 100
2, 1600987, Note_on_c, 0, 55, 100
2, 1601121, Note_off_c, 0, 55, 100
2, 1601599, Note_on_c, 0, 53, 100
2, 1601959, Note_off_c, 0, 53, 100
2, 1602191, Note_on_c, 0, 53, 100
2, 1602783, Note_on_c, 0, 52, 100
2, 1602861, Note_off_c, 0, 53, 100
2, 1603488, Note_off_c, 0, 52, 100
2, 1603488, Note_on_c, 0, 52, 100
2, 1604290, Note_off_c, 0, 52, 100
2, 1604290, Note_on_c, 0, 52, 100
2, 1604790, Note_off_c, 0, 52, 100
2, 1605056, Note_on_c, 0, 52, 100
2, 1605373, Note_off_c, 0, 52, 100
2, 1605783, Note_on_c, 0, 53, 100
2, 1606479, Note_on_c, 0, 54, 100
2, 1606817, Note_off_c, 0, 53, 100
2, 1607154, Note_on_c, 0, 55, 100
2, 1607822, Note_off_c, 0, 55, 100
2, 1607822, Note_on_c, 0, 55, 100
2, 1608082, Note_off_c, 0, 54, 100
2, 1608497, Note_on_c, 0, 56, 100
2, 1609207, Note_off_c, 0, 56, 100
2, 1609207, Note_on_c, 0, 56, 100
2, 1609359, Note_off_c, 0, 55, 100
2, 1609509, Note_off_c, 0, 56, 100
2, 1609926, Note_on_c, 0, 56, 100
2, 1610664, Note_off_c, 0, 56, 100
2, 1610664, Note_on_c, 0, 56, 100
2, 1611439, Note_on_c, 0, 55, 100
2, 1612230, Note_on_c, 0, 54, 100
2, 1612489, Note_off_c, 0, 56, 100
2, 1613023, Note_on_c, 0, 52, 100
2, 1613396, Note_off_c, 0, 55, 100
2, 1613802, Note_on_c, 0, 51, 100
2, 1613821, Note_off_c, 0, 54, 100
2, 1613885, Note_off_c, 0, 52, 100
2, 1613981, Note_off_c, 0, 51, 100
2, 1614552, Note_on_c, 0, 50, 100
2, 1615263, Note_on_c, 0, 48, 100
2, 1615441, Note_off_c, 0, 50, 100
2, 1615928, Note_on_c, 0, 46, 100
2, 1616532, Note_off_c, 0, 48, 100
2, 1616549, Note_on_c, 0, 44, 100
2, 1617133, Note_on_c, 0, 43, 100
2, 1617188, Note_off_c, 0, 46, 100
2, 1617489, Note_off_c, 0, 44, 100
2, 1617620, Note_off_c, 0, 43, 100
2, 1617982, Note_on_c, 0, 42, 100
2, 1618080, Note_off_c, 0, 42, 100
2, 1618861, Note_on_c, 0, 42, 100
2, 1619138, Note_off_c, 0, 42, 100
2, 1619721, Note_on_c, 0, 42, 100
2, 1619949, Note_off_c, 0, 42, 100
2, 1620542, Note_on_c, 0, 43, 100
2, 1620701, Note_off_c, 0, 43, 100
2, 1621309, Note_on_c, 0, 44, 100
2, 1621654, Note_off_c, 0, 44, 100
2, 1622013, Note_on_c, 0, 46, 100
2, 1622379, Note_off_c, 0, 46, 100
2, 1622653, Note_on_c, 0, 49, 100
2, 1622792, Note_off_c, 0, 49, 100
2, 1623235, Note_on_c, 0, 51, 100
2, 1623726, Note_off_c, 0, 51, 100
2, 1623775, Note_on_c, 0, 54, 100
2, 1624346, Note_on_c, 0, 57, 100
2, 1624768, Note_off_c, 0, 54, 100
2, 1625267, Note_on_c, 0, 60, 100
2, 1625700, Note_off_c, 0, 57, 100
2, 1626162, Note_on_c, 0, 62, 100
2, 1626656, Note_off_c, 0, 60, 100
2, 1627012, Note_on_c, 0, 64, 100
2, 1627178, Note_off_c, 0, 62, 100
2, 1627305, Note_off_c, 0, 64, 100
2, 1627802, Note_on_c, 0, 66, 100
2, 1628526, Note_on_c, 0, 67, 100
2, 1628581, Note_off_c, 0, 66, 100
2, 1629186, Note_off_c, 0, 67, 100
2, 1629186, Note_on_c, 0, 67, 100
2, 1629791, Note_off_c, 0, 67, 100
2, 1629791, Note_on_c, 0, 67, 100
2, 1630358, Note_on_c, 0, 66, 100
2, 1630908, Note_on_c, 0, 64, 100
2, 1631332, Note_off_c, 0, 64, 100
2, 1631576, Note_on_c, 0, 62, 100
2, 1631672, Note_off_c, 0, 66, 100
2, 1631676, Note_off_c, 0, 67, 100
2, 1632284, Note_off_c, 0, 62, 100
2, 1632438, Note_on_c, 0, 59, 100
2, 1633261, Note_on_c, 0, 56, 100
2, 1633865, Note_off_c, 0, 59, 100
2, 1634036, Note_on_c, 0, 53, 100
2, 1634763, Note_on_c, 0, 50, 100
2, 1634991, Note_off_c, 0, 56, 100
2, 1635446, Note_on_c, 0, 49, 100
2, 1635607, Note_off_c, 0, 53, 100
2, 1635815, Note_off_c, 0, 50, 100
2, 1635829, Note_off_c, 0, 49, 100
2, 1636098, Note_on_c, 0, 46, 100
2, 1636495, Note_off_c, 0, 46, 100
2, 1636734, Note_on_c, 0, 44, 100
2, 1637371, Note_on_c, 0, 43, 100
2, 1637467, Note_off_c, 0, 44, 100
2, 1638021, Note_on_c, 0, 42, 100
2, 1638135, Note_off_c, 0, 43, 100
2, 1638584, Note_off_c, 0, 42, 100
2, 1638741, Note_on_c, 0, 42, 100
2, 1639030, Note_off_c, 0, 42, 100
2, 1639475, Note_on_c, 0, 42, 100
2, 1639585, Note_off_c, 0, 42, 100
2, 1640180, Note_on_c, 0, 43, 100
2, 1640313, Note_off_c, 0, 43, 100
2, 1640896, Note_on_c, 0, 44, 100
2, 1641252, Note_off_c, 0, 44, 100
2, 1641663, Note_on_c, 0, 46, 100
2, 1642326, Note_off_c, 0, 46, 100
2, 1642426, Note_on_c, 0, 48, 100
2, 1643171, Note_on_c, 0, 50, 100
2, 1643307, Note_off_c, 0, 48, 100
2, 1643888, Note_on_c, 0, 51, 100
2, 1644020, Note_off_c, 0, 50, 100
2, 1644381, Note_off_c, 0, 51, 100
2, 1644570, Note_on_c, 0, 53, 100
2, 1644892, Note_off_c, 0, 53, 100
2, 1645217, Note_on_c, 0, 54, 100
2, 1646002, Note_on_c, 0, 55, 100
2, 1646253, Note_off_c, 0, 54, 100
2, 1646837, Note_on_c, 0, 56, 100
2, 1647603, Note_off_c, 0, 55, 100
2, 1647671, Note_off_c, 0, 56, 100
2, 1647671, Note_on_c, 0, 56, 100
2, 1648486, Note_off_c, 0, 56, 100
2, 1648486, Note_on_c, 0, 56, 100
2, 1649264, Note_off_c, 0, 56, 100
2, 1649264, Note_on_c, 0, 56, 100
2, 1649574, Note_off_c, 0, 56, 100
2, 1649993, Note_on_c, 0, 55, 100
2, 1650666, Note_off_c, 0, 55, 100
2, 1650666, Note_on_c, 0, 55, 100
2, 1651284, Note_on_c, 0, 54, 100
2, 1651855, Note_on_c, 0, 53, 100
2, 1652404, Note_off_c, 0, 53, 100
2, 1652404, Note_on_c, 0, 53, 100
2, 1652495, Note_off_c, 0, 55, 100
2, 1653242, Note_off_c, 0, 54, 100
2, 1653316, Note_on_c, 0, 52, 100
2, 1653444, Note_off_c, 0, 53, 100
2, 1653502, Note_off_c, 0, 52, 100
2, 1654214, Note_on_c, 0, 52, 100
2, 1655079, Note_off_c, 0, 52, 100
2, 1655079, Note_on_c, 0, 52, 100
2, 1655891, Note_on_c, 0, 53, 100
2, 1656357, Note_off_c, 0, 52, 100
2, 1656638, Note_off_c, 0, 53, 100
2, 1656638, Note_on_c, 0, 53, 100
2, 1657317, Note_on_c, 0, 55, 100
2, 1657582, Note_off_c, 0, 53, 100
2, 1657805, Note_off_c, 0, 55, 100
2, 1657932, Note_on_c, 0, 56, 100
2, 1658028, Note_off_c, 0, 56, 100
2, 1658496, Note_on_c, 0, 57, 100
2, 1658779, Note_off_c, 0, 57, 100
2, 1659028, Note_on_c, 0, 58, 100
2, 1659264, Note_off_c, 0, 58, 100
2, 1659648, Note_on_c, 0, 59, 100
2, 1659799, Note_off_c, 0, 59, 100
2, 1660551, Note_on_c, 0, 60, 100
2, 1660888, Note_off_c, 0, 60, 100
2, 1661420, Note_on_c, 0, 60, 100
2, 1661779, Note_off_c, 0, 60, 100
2, 1662238, Note_on_c, 0, 60, 100
2, 1662373, Note_off_c, 0, 60, 100
2, 1662997, Note_on_c, 0, 60, 100
2, 1663488, Note_off_c, 0, 60, 100
2, 1663698, Note_on_c, 0, 59, 100
2, 1664347, Note_on_c, 0, 57, 100
2, 1664688, Note_off_c, 0, 59, 100
2, 1664959, Note_on_c, 0, 55, 100
2, 1665551, Note_on_c, 0, 53, 100
2, 1665695, Note_off_c, 0, 57, 100
2, 1666142, Note_on_c, 0, 51, 100
2, 1666341, Note_off_c, 0, 55, 100
2, 1666427, Note_off_c, 0, 51, 100
2, 1666559, Note_off_c, 0, 53, 100
2, 1666850, Note_on_c, 0, 49, 100
2, 1667635, Note_off_c, 0, 49, 100
2, 1667653, Note_on_c, 0, 47, 100
2, 1668418, Note_on_c, 0, 44, 100
2, 1669146, Note_on_c, 0, 42, 100
2, 1669208, Note_off_c, 0, 47, 100
2, 1669842, Note_on_c, 0, 41, 100
2, 1670386, Note_off_c, 0, 44, 100
2, 1670517, Note_on_c, 0, 40, 100
2, 1670933, Note_off_c, 0, 40, 100
2, 1671027, Note_off_c, 0, 42, 100
2, 1671150, Note_off_c, 0, 41, 100
2, 1671185, Note_on_c, 0, 39, 100
2, 1671859, Note_on_c, 0, 40, 100
2, 1671902, Note_off_c, 0, 39, 100
2, 1672566, Note_on_c, 0, 41, 100
2, 1673286, Note_on_c, 0, 42, 100
2, 1673293, Note_off_c, 0, 40, 100
2, 1674023, Note_on_c, 0, 45, 100
2, 1674302, Note_off_c, 0, 41, 100
2, 1674798, Note_on_c, 0, 47, 100
2, 1674860, Note_off_c, 0, 42, 100
2, 1675075, Note_off_c, 0, 45, 100
2, 1675177, Note_off_c, 0, 47, 100
2, 1675589, Note_on_c, 0, 50, 100
2, 1675992, Note_off_c, 0, 50, 100
2, 1676381, Note_on_c, 0, 53, 100
2, 1677122, Note_off_c, 0, 53, 100
2, 1677160, Note_on_c, 0, 56, 100
2, 1677910, Note_on_c, 0, 59, 100
2, 1677933, Note_off_c, 0, 56, 100
2, 1678481, Note_off_c, 0, 59, 100
2, 1678620, Note_on_c, 0, 61, 100
2, 1678914, Note_off_c, 0, 61, 100
2, 1679285, Note_on_c, 0, 64, 100
2, 1679397, Note_off_c, 0, 64, 100
2, 1679906, Note_on_c, 0, 65, 100
2, 1680038, Note_off_c, 0, 65, 100
2, 1680491, Note_on_c, 0, 66, 100
2, 1680842, Note_off_c, 0, 66, 100
2, 1681344, Note_on_c, 0, 67, 100
2, 1682000, Note_off_c, 0, 67, 100
2, 1682222, Note_on_c, 0, 66, 100
2, 1683081, Note_on_c, 0, 65, 100
2, 1683095, Note_off_c, 0, 66, 100
2, 1683901, Note_on_c, 0, 64, 100
2, 1683921, Note_off_c, 0, 65, 100
2, 1684386, Note_off_c, 0, 64, 100
2, 1684668, Note_on_c, 0, 62, 100
2, 1684994, Note_off_c, 0, 62, 100
2, 1685372, Note_on_c, 0, 59, 100
2, 1686011, Note_on_c, 0, 57, 100
2, 1686409, Note_off_c, 0, 59, 100
2, 1686592, Note_on_c, 0, 54, 100
2, 1687132, Note_on_c, 0, 52, 100
2, 1687611, Note_off_c, 0, 57, 100
2, 1687709, Note_on_c, 0, 50, 100
2, 1688390, Note_off_c, 0, 54, 100
2, 1688527, Note_off_c, 0, 50, 100
2, 1688630, Note_on_c, 0, 48, 100
2, 1688655, Note_off_c, 0, 52, 100
2, 1688949, Note_off_c, 0, 48, 100
2, 1689525, Note_on_c, 0, 47, 100
2, 1690374, Note_on_c, 0, 46, 100
2, 1690754, Note_off_c, 0, 47, 100
2, 1691164, Note_on_c, 0, 45, 100
2, 1691887, Note_off_c, 0, 45, 100
2, 1691887, Note_on_c, 0, 45, 100
2, 1692208, Note_off_c, 0, 46, 100
2, 1692546, Note_on_c, 0, 46, 100
2, 1693150, Note_on_c, 0, 47, 100
2, 1693344, Note_off_c, 0, 47, 100
2, 1693398, Note_off_c, 0, 46, 100
2, 1693474, Note_off_c, 0, 45, 100
2, 1693717, Note_on_c, 0, 48, 100
2, 1694266, Note_on_c, 0, 49, 100
2, 1694623, Note_off_c, 0, 48, 100
2, 1694939, Note_on_c, 0, 50, 100
2, 1695552, Note_off_c, 0, 49, 100
2, 1695801, Note_off_c, 0, 50, 100
2, 1695801, Note_on_c, 0, 50, 100
2, 1696624, Note_on_c, 0, 51, 100
2, 1696749, Note_off_c, 0, 50, 100
2, 1697112, Note_off_c, 0, 51, 100
2, 1697399, Note_on_c, 0, 52, 100
2, 1697497, Note_off_c, 0, 52, 100
2, 1698125, Note_on_c, 0, 53, 100
2, 1698413, Note_off_c, 0, 53, 100
2, 1698808, Note_on_c, 0, 53, 100
2, 1699051, Note_off_c, 0, 53, 100
2, 1699460, Note_on_c, 0, 53, 100
2, 1699602, Note_off_c, 0, 53, 100
2, 1700095, Note_on_c, 0, 53, 100
2, 1700424, Note_off_c, 0, 53, 100
2, 1700731, Note_on_c, 0, 52, 100
2, 1701084, Note_off_c, 0, 52, 100
2, 1701381, Note_on_c, 0, 51, 100
2, 1701513, Note_off_c, 0, 51, 100
2, 1702102, Note_on_c, 0, 51, 100
2, 1702593, Note_off_c, 0, 51, 100
2, 1702837, Note_on_c, 0, 50, 100
2, 1703542, Note_off_c, 0, 50, 100
2, 1703542, Note_on_c, 0, 50, 100
2, 1704253, Note_off_c, 0, 50, 100
2, 1704253, Note_on_c, 0, 50, 100
2, 1705020, Note_off_c, 0, 50, 100
2, 1705020, Note_on_c, 0, 50, 100
2, 1705783, Note_off_c, 0, 50, 100
2, 1705783, Note_on_c, 0, 50, 100
2, 1706060, Note_off_c, 0, 50, 100
2, 1706528, Note_on_c, 0, 50, 100
2, 1707245, Note_on_c, 0, 51, 100
2, 1707319, Note_off_c, 0, 50, 100
2, 1707928, Note_on_c, 0, 53, 100
2, 1708576, Note_on_c, 0, 54, 100
2, 1708803, Note_off_c, 0, 51, 100
2, 1709362, Note_on_c, 0, 56, 100
2, 1709896, Note_off_c, 0, 53, 100
2, 1710197, Note_on_c, 0, 58, 100
2, 1710453, Note_off_c, 0, 54, 100
2, 1710605, Note_off_c, 0, 58, 100
2, 1710663, Note_off_c, 0, 56, 100
2, 1711030, Note_on_c, 0, 60, 100
2, 1711755, Note_off_c, 0, 60, 100
2, 1711844, Note_on_c, 0, 62, 100
2, 1712622, Note_on_c, 0, 63, 100
2, 1713286, Note_off_c, 0, 62, 100
2, 1713351, Note_on_c, 0, 64, 100
2, 1714024, Note_off_c, 0, 64, 100
2, 1714024, Note_on_c, 0, 64, 100
2, 1714363, Note_off_c, 0, 63, 100
2, 1714641, Note_off_c, 0, 64, 100
2, 1714641, Note_on_c, 0, 64, 100
2, 1715075, Note_off_c, 0, 64, 100
2, 1715212, Note_on_c, 0, 63, 100
2, 1715622, Note_off_c, 0, 63, 100
2, 1715767, Note_on_c, 0, 62, 100
2, 1716516, Note_off_c, 0, 62, 100
2, 1716678, Note_on_c, 0, 60, 100
2, 1717459, Note_off_c, 0, 60, 100
2, 1717576, Note_on_c, 0, 57, 100
2, 1718154, Note_off_c, 0, 57, 100
2, 1718440, Note_on_c, 0, 54, 100
2, 1718739, Note_off_c, 0, 54, 100
2, 1719251, Note_on_c, 0, 51, 100
2, 1719365, Note_off_c, 0, 51, 100
2, 1719998, Note_on_c, 0, 49, 100
2, 1720129, Note_off_c, 0, 49, 100
2, 1720676, Note_on_c, 0, 46, 100
2, 1721023, Note_off_c, 0, 46, 100
2, 1721290, Note_on_c, 0, 44, 100
2, 1721854, Note_on_c, 0, 42, 100
2, 1721939, Note_off_c, 0, 44, 100
2, 1722385, Note_on_c, 0, 40, 100
2, 1722719, Note_off_c, 0, 42, 100
2, 1723011, Note_on_c, 0, 39, 100
2, 1723217, Note_off_c, 0, 40, 100
2, 1723489, Note_off_c, 0, 39, 100
2, 1723914, Note_on_c, 0, 39, 100
2, 1724245, Note_off_c, 0, 39, 100
2, 1724783, Note_on_c, 0, 39, 100
2, 1725600, Note_on_c, 0, 40, 100
2, 1725822, Note_off_c, 0, 39, 100
2, 1726359, Note_on_c, 0, 42, 100
2, 1727060, Note_on_c, 0, 44, 100
2, 1727198, Note_off_c, 0, 40, 100
2, 1727708, Note_on_c, 0, 47, 100
2, 1728152, Note_off_c, 0, 42, 100
2, 1728319, Note_on_c, 0, 50, 100
2, 1728517, Note_off_c, 0, 47, 100
2, 1728576, Note_off_c, 0, 44, 100
2, 1728646, Note_off_c, 0, 50, 100
2, 1728910, Note_on_c, 0, 52, 100
2, 1729501, Note_on_c, 0, 55, 100
2, 1730146, Note_off_c, 0, 52, 100
2, 1730212, Note_on_c, 0, 57, 100
2, 1731015, Note_on_c, 0, 60, 100
2, 1731339, Note_off_c, 0, 55, 100
2, 1731781, Note_on_c, 0, 62, 100
2, 1732173, Note_off_c, 0, 57, 100
2, 1732509, Note_on_c, 0, 63, 100
2, 1732599, Note_off_c, 0, 60, 100
2, 1732627, Note_off_c, 0, 62, 100
2, 1732710, Note_off_c, 0, 63, 100
2, 1733205, Note_on_c, 0, 64, 100
2, 1733880, Note_off_c, 0, 64, 100
2, 1733880, Note_on_c, 0, 64, 100
2, 1734547, Note_off_c, 0, 64, 100
2, 1734547, Note_on_c, 0, 64, 100
2, 1735221, Note_on_c, 0, 63, 100
2, 1735827, Note_off_c, 0, 64, 100
2, 1735925, Note_on_c, 0, 62, 100
2, 1736173, Note_off_c, 0, 63, 100
2, 1736414, Note_off_c, 0, 62, 100
2, 1736645, Note_on_c, 0, 60, 100
2, 1736746, Note_off_c, 0, 60, 100
2, 1737383, Note_on_c, 0, 58, 100
2, 1737677, Note_off_c, 0, 58, 100
2, 1738158, Note_on_c, 0, 56, 100
2, 1738409, Note_off_c, 0, 56, 100
2, 1738947, Note_on_c, 0, 54, 100
2, 1739081, Note_off_c, 0, 54, 100
2, 1739739, Note_on_c, 0, 52, 100
2, 1740060, Note_off_c, 0, 52, 100
2, 1740517, Note_on_c, 0, 51, 100
2, 1740864, Note_off_c, 0, 51, 100
2, 1741267, Note_on_c, 0, 50, 100
2, 1741395, Note_off_c, 0, 50, 100
2, 1741977, Note_on_c, 0, 50, 100
2, 1742468, Note_off_c, 0, 50, 100
2, 1742642, Note_on_c, 0, 50, 100
2, 1743264, Note_off_c, 0, 50, 100
2, 1743264, Note_on_c, 0, 50, 100
2, 1743849, Note_off_c, 0, 50, 100
2, 1743849, Note_on_c, 0, 50, 100
2, 1744705, Note_off_c, 0, 50, 100
2, 1744705, Note_on_c, 0, 50, 100
2, 1745583, Note_off_c, 0, 50, 100
2, 1745583, Note_on_c, 0, 50, 100
2, 1745852, Note_off_c, 0, 50, 100
2, 1746441, Note_on_c, 0, 51, 100
2, 1747238, Note_off_c, 0, 51, 100
2, 1747261, Note_on_c, 0, 52, 100
2, 1748027, Note_off_c, 0, 52, 100
2, 1748027, Note_on_c, 0, 52, 100
2, 1748730, Note_on_c, 0, 53, 100
2, 1749368, Note_off_c, 0, 53, 100
2, 1749368, Note_on_c, 0, 53, 100
2, 1749950, Note_off_c, 0, 53, 100
2, 1749950, Note_on_c, 0, 53, 100
2, 1749994, Note_off_c, 0, 52, 100
2, 1750489, Note_on_c, 0, 52, 100
2, 1750663, Note_off_c, 0, 53, 100
2, 1751072, Note_off_c, 0, 52, 100
2, 1751072, Note_on_c, 0, 52, 100
2, 1751992, Note_on_c, 0, 51, 100
2, 1752521, Note_off_c, 0, 52, 100
2, 1752887, Note_on_c, 0, 50, 100
2, 1753736, Note_on_c, 0, 49, 100
2, 1753739, Note_off_c, 0, 51, 100
2, 1754466, Note_off_c, 0, 50, 100
2, 1754525, Note_on_c, 0, 48, 100
2, 1754786, Note_off_c, 0, 49, 100
2, 1754896, Note_off_c, 0, 48, 100
2, 1755248, Note_on_c, 0, 47, 100
2, 1755665, Note_off_c, 0, 47, 100
2, 1755906, Note_on_c, 0, 46, 100
2, 1756509, Note_off_c, 0, 46, 100
2, 1756509, Note_on_c, 0, 46, 100
2, 1757075, Note_off_c, 0, 46, 100
2, 1757075, Note_on_c, 0, 46, 100
2, 1757624, Note_off_c, 0, 46, 100
2, 1757624, Note_on_c, 0, 46, 100
2, 1757928, Note_off_c, 0, 46, 100
2, 1758301, Note_on_c, 0, 47, 100
2, 1758417, Note_off_c, 0, 47, 100
2, 1759164, Note_on_c, 0, 49, 100
2, 1759293, Note_off_c, 0, 49, 100
2, 1759987, Note_on_c, 0, 50, 100
2, 1760329, Note_off_c, 0, 50, 100
2, 1760762, Note_on_c, 0, 52, 100
2, 1761404, Note_off_c, 0, 52, 100
2, 1761488, Note_on_c, 0, 54, 100
2, 1762171, Note_on_c, 0, 57, 100
2, 1762344, Note_off_c, 0, 54, 100
2, 1762822, Note_on_c, 0, 59, 100
2, 1762995, Note_off_c, 0, 57, 100
2, 1763293, Note_off_c, 0, 59, 100
2, 1763456, Note_on_c, 0, 62, 100
2, 1763792, Note_off_c, 0, 62, 100
2, 1764091, Note_on_c, 0, 64, 100
2, 1764741, Note_on_c, 0, 65, 100
2, 1765132, Note_off_c, 0, 64, 100
2, 1765463, Note_on_c, 0, 66, 100
2, 1766198, Note_on_c, 0, 67, 100
2, 1766337, Note_off_c, 0, 65, 100
2, 1766904, Note_off_c, 0, 66, 100
2, 1766904, Note_on_c, 0, 66, 100
2, 1767611, Note_on_c, 0, 65, 100
2, 1767705, Note_off_c, 0, 66, 100
2, 1767706, Note_off_c, 0, 67, 100
2, 1767946, Note_off_c, 0, 65, 100
2, 1768377, Note_on_c, 0, 64, 100
2, 1769140, Note_on_c, 0, 61, 100
2, 1769620, Note_off_c, 0, 64, 100
2, 1769886, Note_on_c, 0, 59, 100
2, 1770603, Note_on_c, 0, 56, 100
2, 1770982, Note_off_c, 0, 61, 100
2, 1771286, Note_on_c, 0, 52, 100
2, 1771848, Note_off_c, 0, 59, 100
2, 1771935, Note_on_c, 0, 50, 100
2, 1772127, Note_off_c, 0, 52, 100
2, 1772144, Note_off_c, 0, 50, 100
2, 1772185, Note_off_c, 0, 56, 100
2, 1772723, Note_on_c, 0, 47, 100
2, 1773557, Note_on_c, 0, 44, 100
2, 1773646, Note_off_c, 0, 47, 100
2, 1774390, Note_on_c, 0, 42, 100
2, 1774859, Note_off_c, 0, 44, 100
2, 1775203, Note_on_c, 0, 41, 100
2, 1775676, Note_off_c, 0, 42, 100
2, 1775980, Note_on_c, 0, 40, 100
2, 1776159, Note_off_c, 0, 41, 100
2, 1776469, Note_off_c, 0, 40, 100
2, 1776709, Note_on_c, 0, 39, 100
2, 1776812, Note_off_c, 0, 39, 100
2, 1777381, Note_on_c, 0, 40, 100
2, 1777681, Note_off_c, 0, 40, 100
2, 1777998, Note_on_c, 0, 41, 100
2, 1778257, Note_off_c, 0, 41, 100
2, 1778569, Note_on_c, 0, 42, 100
2, 1778694, Note_off_c, 0, 42, 100
2, 1779130, Note_on_c, 0, 44, 100
2, 1779443, Note_off_c, 0, 44, 100
2, 1780040, Note_on_c, 0, 47, 100
2, 1780381, Note_off_c, 0, 47, 100
2, 1780938, Note_on_c, 0, 49, 100
2, 1781063, Note_off_c, 0, 49, 100
2, 1781801, Note_on_c, 0, 51, 100
2, 1782292, Note_off_c, 0, 51, 100
2, 1782612, Note_on_c, 0, 53, 100
2, 1783358, Note_on_c, 0, 56, 100
2, 1783592, Note_off_c, 0, 53, 100
2, 1784035, Note_on_c, 0, 58, 100
2, 1784649, Note_on_c, 0, 59, 100
2, 1784688, Note_off_c, 0, 56, 100
2, 1785212, Note_on_c, 0, 60, 100
2, 1785393, Note_off_c, 0, 58, 100
2, 1785474, Note_off_c, 0, 60, 100
2, 1785631, Note_off_c, 0, 59, 100
2, 1785743, Note_on_c, 0, 61, 100
2, 1786374, Note_off_c, 0, 61, 100
2, 1786374, Note_on_c, 0, 61, 100
2, 1787277, Note_on_c, 0, 60, 100
2, 1787938, Note_off_c, 0, 61, 100
2, 1788145, Note_on_c, 0, 59, 100
2, 1788963, Note_on_c, 0, 58, 100
2, 1789244, Note_off_c, 0, 60, 100
2, 1789721, Note_on_c, 0, 57, 100
2, 1790015, Note_off_c, 0, 59, 100
2, 1790113, Note_off_c, 0, 57, 100
2, 1790251, Note_off_c, 0, 58, 100
2, 1790421, Note_on_c, 0, 56, 100
2, 1791069, Note_on_c, 0, 55, 100
2, 1791163, Note_off_c, 0, 56, 100
2, 1791679, Note_on_c, 0, 54, 100
2, 1792270, Note_on_c, 0, 53, 100
2, 1792526, Note_off_c, 0, 55, 100
2, 1792859, Note_on_c, 0, 52, 100
2, 1793431, Note_off_c, 0, 54, 100
2, 1793573, Note_off_c, 0, 52, 100
2, 1793573, Note_on_c, 0, 52, 100
2, 1793851, Note_off_c, 0, 53, 100
2, 1793940, Note_off_c, 0, 52, 100
2, 1794377, Note_on_c, 0, 52, 100
2, 1794800, Note_off_c, 0, 52, 100
2, 1795144, Note_on_c, 0, 52, 100
2, 1795872, Note_on_c, 0, 53, 100
2, 1795910, Note_off_c, 0, 52, 100
2, 1796568, Note_on_c, 0, 54, 100
2, 1796670, Note_off_c, 0, 53, 100
2, 1797161, Note_off_c, 0, 54, 100
2, 1797242, Note_on_c, 0, 54, 100
2, 1797551, Note_off_c, 0, 54, 100
2, 1797909, Note_on_c, 0, 55, 100
2, 1798027, Note_off_c, 0, 55, 100
2, 1798583, Note_on_c, 0, 56, 100
2, 1798711, Note_off_c, 0, 56, 100
2, 1799284, Note_on_c, 0, 56, 100
2, 1799622, Note_off_c, 0, 56, 100
2, 1800004, Note_on_c, 0, 56, 100
2, 1800639, Note_off_c, 0, 56, 100
2, 1800743, Note_on_c, 0, 56, 100
2, 1801517, Note_on_c, 0, 55, 100
2, 1801591, Note_off_c, 0, 56, 100
2, 1802306, Note_on_c, 0, 54, 100
2, 1802332, Note_off_c, 0, 55, 100
2, 1802770, Note_off_c, 0, 54, 100
2, 1803097, Note_on_c, 0, 52, 100
2, 1803437, Note_off_c, 0, 52, 100
2, 1803875, Note_on_c, 0, 51, 100
2, 1804624, Note_on_c, 0, 50, 100
2, 1804917, Note_off_c, 0, 51, 100
2, 1805334, Note_on_c, 0, 48, 100
2, 1806000, Note_on_c, 0, 46, 100
2, 1806218, Note_off_c, 0, 50, 100
2, 1806621, Note_on_c, 0, 44, 100
2, 1807117, Note_off_c, 0, 48, 100
2, 1807207, Note_on_c, 0, 43, 100
2, 1807414, Note_off_c, 0, 44, 100
2, 1807501, Note_off_c, 0, 46, 100
2, 1807550, Note_off_c, 0, 43, 100
2, 1808067, Note_on_c, 0, 42, 100
2, 1808943, Note_off_c, 0, 42, 100
2, 1808943, Note_on_c, 0, 42, 100
2, 1809801, Note_off_c, 0, 42, 100
2, 1809801, Note_on_c, 0, 42, 100
2, 1810621, Note_on_c, 0, 43, 100
2, 1811386, Note_on_c, 0, 45, 100
2, 1811764, Note_off_c, 0, 42, 100
2, 1812088, Note_on_c, 0, 46, 100
2, 1812201, Note_off_c, 0, 43, 100
2, 1812222, Note_off_c, 0, 45, 100
2, 1812304, Note_off_c, 0, 46, 100
2, 1812726, Note_on_c, 0, 49, 100
2, 1813307, Note_on_c, 0, 51, 100
2, 1813657, Note_off_c, 0, 49, 100
2, 1813846, Note_on_c, 0, 54, 100
2, 1814435, Note_on_c, 0, 57, 100
2, 1814617, Note_off_c, 0, 51, 100
2, 1815138, Note_off_c, 0, 54, 100
2, 1815355, Note_on_c, 0, 60, 100
2, 1815394, Note_off_c, 0, 57, 100
2, 1815845, Note_off_c, 0, 60, 100
2, 1816249, Note_on_c, 0, 62, 100
2, 1816355, Note_off_c, 0, 62, 100
2, 1817098, Note_on_c, 0, 64, 100
2, 1817403, Note_off_c, 0, 64, 100
2, 1817886, Note_on_c, 0, 66, 100
2, 1818153, Note_off_c, 0, 66, 100
2, 1818608, Note_on_c, 0, 67, 100
2, 1818725, Note_off_c, 0, 67, 100
2, 1819266, Note_on_c, 0, 67, 100
2, 1819572, Note_off_c, 0, 67, 100
2, 1819869, Note_on_c, 0, 67, 100
2, 1820204, Note_off_c, 0, 67, 100
2, 1820434, Note_on_c, 0, 66, 100
2, 1820556, Note_off_c, 0, 66, 100
2, 1820982, Note_on_c, 0, 64, 100
2, 1821473, Note_off_c, 0, 64, 100
2, 1821664, Note_on_c, 0, 62, 100
2, 1822526, Note_on_c, 0, 59, 100
2, 1822641, Note_off_c, 0, 62, 100
2, 1823350, Note_on_c, 0, 56, 100
2, 1823850, Note_off_c, 0, 59, 100
2, 1824125, Note_on_c, 0, 53, 100
2, 1824700, Note_off_c, 0, 56, 100
2, 1824850, Note_on_c, 0, 50, 100
2, 1825099, Note_off_c, 0, 53, 100
2, 1825104, Note_off_c, 0, 50, 100
2, 1825533, Note_on_c, 0, 49, 100
2, 1826183, Note_on_c, 0, 46, 100
2, 1826341, Note_off_c, 0, 49, 100
2, 1826817, Note_on_c, 0, 44, 100
2, 1827452, Note_on_c, 0, 43, 100
2, 1827750, Note_off_c, 0, 46, 100
2, 1828100, Note_on_c, 0, 42, 100
2, 1828783, Note_off_c, 0, 44, 100
2, 1828825, Note_off_c, 0, 42, 100
2, 1828825, Note_on_c, 0, 42, 100
2, 1829318, Note_off_c, 0, 43, 100
2, 1829382, Note_off_c, 0, 42, 100
2, 1829560, Note_on_c, 0, 42, 100
2, 1830266, Note_on_c, 0, 43, 100
2, 1830311, Note_off_c, 0, 42, 100
2, 1830968, Note_on_c, 0, 44, 100
2, 1831730, Note_off_c, 0, 43, 100
2, 1831734, Note_on_c, 0, 46, 100
2, 1832497, Note_on_c, 0, 48, 100
2, 1832725, Note_off_c, 0, 44, 100
2, 1833243, Note_on_c, 0, 50, 100
2, 1833317, Note_off_c, 0, 46, 100
2, 1833545, Note_off_c, 0, 48, 100
2, 1833605, Note_off_c, 0, 50, 100
2, 1833960, Note_on_c, 0, 51, 100
2, 1834390, Note_off_c, 0, 51, 100
2, 1834644, Note_on_c, 0, 53, 100
2, 1835293, Note_on_c, 0, 54, 100
2, 1835418, Note_off_c, 0, 53, 100
2, 1836084, Note_on_c, 0, 55, 100
2, 1836099, Note_off_c, 0, 54, 100
2, 1836684, Note_off_c, 0, 55, 100
2, 1836917, Note_on_c, 0, 56, 100
2, 1837231, Note_off_c, 0, 56, 100
2, 1837749, Note_on_c, 0, 56, 100
2, 1837869, Note_off_c, 0, 56, 100
2, 1838562, Note_on_c, 0, 56, 100
2, 1838689, Note_off_c, 0, 56, 100
2, 1839338, Note_on_c, 0, 56, 100
2, 1839671, Note_off_c, 0, 56, 100
2, 1840066, Note_on_c, 0, 56, 100
2, 1840694, Note_off_c, 0, 56, 100
2, 1840738, Note_on_c, 0, 55, 100
2, 1841356, Note_on_c, 0, 54, 100
2, 1841578, Note_off_c, 0, 55, 100
2, 1841927, Note_on_c, 0, 53, 100
2, 1842163, Note_off_c, 0, 54, 100
2, 1842384, Note_off_c, 0, 53, 100
2, 1842492, Note_on_c, 0, 53, 100
2, 1842837, Note_off_c, 0, 53, 100
2, 1843402, Note_on_c, 0, 52, 100
2, 1844300, Note_off_c, 0, 52, 100
2, 1844300, Note_on_c, 0, 52, 100
2, 1845162, Note_off_c, 0, 52, 100
2, 1845162, Note_on_c, 0, 52, 100
2, 1845972, Note_on_c, 0, 53, 100
2, 1846717, Note_off_c, 0, 53, 100
2, 1846717, Note_on_c, 0, 53, 100
2, 1846940, Note_off_c, 0, 52, 100
2, 1847394, Note_on_c, 0, 54, 100
2, 1847501, Note_off_c, 0, 53, 100
2, 1847746, Note_off_c, 0, 54, 100
2, 1848007, Note_on_c, 0, 56, 100
2, 1848569, Note_on_c, 0, 57, 100
2, 1849100, Note_on_c, 0, 58, 100
2, 1849263, Note_off_c, 0, 56, 100
2, 1849737, Note_on_c, 0, 59, 100
2, 1850420, Note_off_c, 0, 57, 100
2, 1850640, Note_on_c, 0, 60, 100
2, 1851064, Note_off_c, 0, 58, 100
2, 1851314, Note_off_c, 0, 59, 100
2, 1851470, Note_off_c, 0, 60, 100
2, 1851508, Note_on_c, 0, 60, 100
2, 1851732, Note_off_c, 0, 60, 100
2, 1852325, Note_on_c, 0, 60, 100
2, 1853083, Note_off_c, 0, 60, 100
2, 1853083, Note_on_c, 0, 60, 100
2, 1853782, Note_on_c, 0, 59, 100
2, 1854401, Note_off_c, 0, 60, 100
2, 1854430, Note_on_c, 0, 57, 100
2, 1855039, Note_on_c, 0, 55, 100
2, 1855081, Note_off_c, 0, 59, 100
2, 1855393, Note_off_c, 0, 57, 100
2, 1855529, Note_off_c, 0, 55, 100
2, 1855629, Note_on_c, 0, 53, 100
2, 1855738, Note_off_c, 0, 53, 100
2, 1856218, Note_on_c, 0, 51, 100
2, 1856529, Note_off_c, 0, 51, 100
2, 1856935, Note_on_c, 0, 49, 100
2, 1857209, Note_off_c, 0, 49, 100
2, 1857740, Note_on_c, 0, 47, 100
2, 1857848, Note_off_c, 0, 47, 100
2, 1858506, Note_on_c, 0, 44, 100
2, 1858804, Note_off_c, 0, 44, 100
2, 1859235, Note_on_c, 0, 42, 100
2, 1859564, Note_off_c, 0, 42, 100
2, 1859931, Note_on_c, 0, 41, 100
2, 1860049, Note_off_c, 0, 41, 100
2, 1860605, Note_on_c, 0, 40, 100
2, 1861096, Note_off_c, 0, 40, 100
2, 1861271, Note_on_c, 0, 39, 100
2, 1861944, Note_on_c, 0, 40, 100
2, 1862245, Note_off_c, 0, 39, 100
2, 1862643, Note_on_c, 0, 41, 100
2, 1863261, Note_off_c, 0, 40, 100
2, 1863364, Note_on_c, 0, 43, 100
2, 1863985, Note_off_c, 0, 41, 100
2, 1864103, Note_on_c, 0, 45, 100
2, 1864329, Note_off_c, 0, 43, 100
2, 1864349, Note_off_c, 0, 45, 100
2, 1864876, Note_on_c, 0, 48, 100
2, 1865664, Note_on_c, 0, 50, 100
2, 1865690, Note_off_c, 0, 48, 100
2, 1866455, Note_on_c, 0, 53, 100
2, 1867232, Note_on_c, 0, 56, 100
2, 1867233, Note_off_c, 0, 50, 100
2, 1867981, Note_on_c, 0, 59, 100
2, 1868421, Note_off_c, 0, 53, 100
2, 1868692, Note_on_c, 0, 62, 100
2, 1869068, Note_off_c, 0, 62, 100
2, 1869094, Note_off_c, 0, 56, 100
2, 1869257, Note_off_c, 0, 59, 100
2, 1869357, Note_on_c, 0, 64, 100
2, 1869979, Note_on_c, 0, 65, 100
2, 1870116, Note_off_c, 0, 64, 100
2, 1870565, Note_on_c, 0, 66, 100
2, 1871428, Note_on_c, 0, 67, 100
2, 1871451, Note_off_c, 0, 65, 100
2, 1872304, Note_off_c, 0, 66, 100
2, 1872304, Note_on_c, 0, 66, 100
2, 1873014, Note_off_c, 0, 67, 100
2, 1873161, Note_on_c, 0, 65, 100
2, 1873351, Note_off_c, 0, 66, 100
2, 1873519, Note_off_c, 0, 65, 100
2, 1873980, Note_on_c, 0, 64, 100
2, 1874417, Note_off_c, 0, 64, 100
2, 1874745, Note_on_c, 0, 62, 100
2, 1875446, Note_on_c, 0, 59, 100
2, 1875527, Note_off_c, 0, 62, 100
2, 1876084, Note_on_c, 0, 57, 100
2, 1876261, Note_off_c, 0, 59, 100
2, 1876665, Note_on_c, 0, 54, 100
2, 1876691, Note_off_c, 0, 57, 100
2, 1876984, Note_off_c, 0, 54, 100
2, 1877204, Note_on_c, 0, 51, 100
2, 1877326, Note_off_c, 0, 51, 100
2, 1877798, Note_on_c, 0, 50, 100
2, 1877923, Note_off_c, 0, 50, 100
2, 1878718, Note_on_c, 0, 48, 100
2, 1879046, Note_off_c, 0, 48, 100
2, 1879612, Note_on_c, 0, 47, 100
2, 1880233, Note_off_c, 0, 47, 100
2, 1880460, Note_on_c, 0, 46, 100
2, 1881247, Note_on_c, 0, 45, 100
2, 1881291, Note_off_c, 0, 46, 100
2, 1881969, Note_off_c, 0, 45, 100
2, 1881969, Note_on_c, 0, 45, 100
2, 1882419, Note_off_c, 0, 45, 100
2, 1882625, Note_on_c, 0, 46, 100
2, 1882974, Note_off_c, 0, 46, 100
2, 1883228, Note_on_c, 0, 47, 100
2, 1883793, Note_on_c, 0, 48, 100
2, 1884273, Note_off_c, 0, 47, 100
2, 1884340, Note_on_c, 0, 49, 100
2, 1885026, Note_on_c, 0, 50, 100
2, 1885383, Note_off_c, 0, 48, 100
2, 1885889, Note_off_c, 0, 50, 100
2, 1885889, Note_on_c, 0, 50, 100
2, 1886113, Note_off_c, 0, 49, 100
2, 1886665, Note_off_c, 0, 50, 100
2, 1886712, Note_on_c, 0, 51, 100
2, 1887072, Note_off_c, 0, 51, 100
2, 1887487, Note_on_c, 0, 52, 100
2, 1888213, Note_on_c, 0, 53, 100
2, 1888750, Note_off_c, 0, 52, 100
2, 1888895, Note_off_c, 0, 53, 100
2, 1888895, Note_on_c, 0, 53, 100
2, 1889545, Note_off_c, 0, 53, 100
2, 1889545, Note_on_c, 0, 53, 100
2, 1890178, Note_off_c, 0, 53, 100
2, 1890178, Note_on_c, 0, 53, 100
2, 1890812, Note_on_c, 0, 52, 100
2, 1891043, Note_off_c, 0, 52, 100
2, 1891120, Note_off_c, 0, 53, 100
2, 1891460, Note_on_c, 0, 51, 100
2, 1892186, Note_off_c, 0, 51, 100
2, 1892186, Note_on_c, 0, 51, 100
2, 1892922, Note_on_c, 0, 50, 100
2, 1893512, Note_off_c, 0, 51, 100
2, 1893629, Note_off_c, 0, 50, 100
2, 1893629, Note_on_c, 0, 50, 100
2, 1894326, Note_off_c, 0, 50, 100
2, 1894326, Note_on_c, 0, 50, 100
2, 1894817, Note_off_c, 0, 50, 100
2, 1895092, Note_on_c, 0, 50, 100
2, 1895204, Note_off_c, 0, 50, 100
2, 1895854, Note_on_c, 0, 50, 100
2, 1896171, Note_off_c, 0, 50, 100
2, 1896600, Note_on_c, 0, 50, 100
2, 1896882, Note_off_c, 0, 50, 100
2, 1897318, Note_on_c, 0, 51, 100
2, 1897418, Note_off_c, 0, 51, 100
2, 1898002, Note_on_c, 0, 53, 100
2, 1898292, Note_off_c, 0, 53, 100
2, 1898652, Note_on_c, 0, 54, 100
2, 1898975, Note_off_c, 0, 54, 100
2, 1899444, Note_on_c, 0, 56, 100
2, 1899559, Note_off_c, 0, 56, 100
2, 1900277, Note_on_c, 0, 58, 100
2, 1900768, Note_off_c, 0, 58, 100
2, 1901108, Note_on_c, 0, 60, 100
2, 1901920, Note_on_c, 0, 62, 100
2, 1902078, Note_off_c, 0, 60, 100
2, 1902696, Note_on_c, 0, 63, 100
2, 1903231, Note_off_c, 0, 62, 100
2, 1903424, Note_on_c, 0, 64, 100
2, 1904030, Note_off_c, 0, 63, 100
2, 1904096, Note_off_c, 0, 64, 100
2, 1904096, Note_on_c, 0, 64, 100
2, 1904381, Note_off_c, 0, 64, 100
2, 1904713, Note_on_c, 0, 64, 100
2, 1905284, Note_on_c, 0, 63, 100
2, 1905532, Note_off_c, 0, 64, 100
2, 1905855, Note_on_c, 0, 61, 100
2, 1906764, Note_on_c, 0, 59, 100
2, 1906856, Note_off_c, 0, 63, 100
2, 1907661, Note_on_c, 0, 57, 100
2, 1907820, Note_off_c, 0, 61, 100
2, 1908523, Note_on_c, 0, 54, 100
2, 1908623, Note_off_c, 0, 59, 100
2, 1908891, Note_off_c, 0, 54, 100
2, 1908930, Note_off_c, 0, 57, 100
2, 1909333, Note_on_c, 0, 51, 100
2, 1910077, Note_on_c, 0, 49, 100
2, 1910101, Note_off_c, 0, 51, 100
2, 1910753, Note_on_c, 0, 46, 100
2, 1911365, Note_on_c, 0, 44, 100
2, 1911556, Note_off_c, 0, 49, 100
2, 1911927, Note_on_c, 0, 41, 100
2, 1912458, Note_on_c, 0, 40, 100
2, 1912521, Note_off_c, 0, 46, 100
2, 1912812, Note_off_c, 0, 40, 100
2, 1912953, Note_off_c, 0, 44, 100
2, 1912973, Note_off_c, 0, 41, 100
2, 1913099, Note_on_c, 0, 39, 100
2, 1913543, Note_off_c, 0, 39, 100
2, 1914003, Note_on_c, 0, 39, 100
2, 1914793, Note_off_c, 0, 39, 100
2, 1914871, Note_on_c, 0, 39, 100
2, 1915688, Note_on_c, 0, 40, 100
2, 1915694, Note_off_c, 0, 39, 100
2, 1916302, Note_off_c, 0, 40, 100
2, 1916445, Note_on_c, 0, 42, 100
2, 1916769, Note_off_c, 0, 42, 100
2, 1917144, Note_on_c, 0, 44, 100
2, 1917267, Note_off_c, 0, 44, 100
2, 1917791, Note_on_c, 0, 47, 100
2, 1917914, Note_off_c, 0, 47, 100
2, 1918399, Note_on_c, 0, 50, 100
2, 1918722, Note_off_c, 0, 50, 100
2, 1918988, Note_on_c, 0, 52, 100
2, 1919577, Note_on_c, 0, 55, 100
2, 1919602, Note_off_c, 0, 52, 100
2, 1920297, Note_on_c, 0, 58, 100
2, 1920400, Note_off_c, 0, 55, 100
2, 1921087, Note_off_c, 0, 58, 100
2, 1921102, Note_on_c, 0, 60, 100
2, 1921545, Note_off_c, 0, 60, 100
2, 1921869, Note_on_c, 0, 62, 100
2, 1922223, Note_off_c, 0, 62, 100
2, 1922598, Note_on_c, 0, 63, 100
2, 1923293, Note_on_c, 0, 64, 100
2, 1923644, Note_off_c, 0, 63, 100
2, 1923968, Note_off_c, 0, 64, 100
2, 1923968, Note_on_c, 0, 64, 100
2, 1924634, Note_off_c, 0, 64, 100
2, 1924634, Note_on_c, 0, 64, 100
2, 1925306, Note_on_c, 0, 63, 100
2, 1926002, Note_on_c, 0, 62, 100
2, 1926073, Note_off_c, 0, 63, 100
2, 1926113, Note_off_c, 0, 64, 100
2, 1926370, Note_off_c, 0, 62, 100
2, 1926724, Note_on_c, 0, 60, 100
2, 1927463, Note_on_c, 0, 58, 100
2, 1927993, Note_off_c, 0, 60, 100
2, 1928235, Note_on_c, 0, 56, 100
2, 1929023, Note_on_c, 0, 54, 100
2, 1929322, Note_off_c, 0, 58, 100
2, 1929813, Note_on_c, 0, 52, 100
2, 1930200, Note_off_c, 0, 56, 100
2, 1930590, Note_on_c, 0, 51, 100
2, 1930595, Note_off_c, 0, 54, 100
2, 1930632, Note_off_c, 0, 52, 100
2, 1930829, Note_off_c, 0, 51, 100
2, 1931339, Note_on_c, 0, 50, 100
2, 1932049, Note_off_c, 0, 50, 100
2, 1932049, Note_on_c, 0, 50, 100
2, 1932714, Note_off_c, 0, 50, 100
2, 1932714, Note_on_c, 0, 50, 100
2, 1933336, Note_off_c, 0, 50, 100
2, 1933336, Note_on_c, 0, 50, 100
2, 1933923, Note_off_c, 0, 50, 100
2, 1933923, Note_on_c, 0, 50, 100
2, 1934414, Note_off_c, 0, 50, 100
2, 1934790, Note_on_c, 0, 50, 100
2, 1934905, Note_off_c, 0, 50, 100
2, 1935665, Note_on_c, 0, 50, 100
2, 1935988, Note_off_c, 0, 50, 100
2, 1936522, Note_on_c, 0, 51, 100
2, 1936812, Note_off_c, 0, 51, 100
2, 1937339, Note_on_c, 0, 52, 100
2, 1937439, Note_off_c, 0, 52, 100
2, 1938103, Note_on_c, 0, 52, 100
2, 1938385, Note_off_c, 0, 52, 100
2, 1938804, Note_on_c, 0, 53, 100
2, 1939121, Note_off_c, 0, 53, 100
2, 1939441, Note_on_c, 0, 53, 100
2, 1939553, Note_off_c, 0, 53, 100
2, 1940022, Note_on_c, 0, 53, 100
2, 1940513, Note_off_c, 0, 53, 100
2, 1940561, Note_on_c, 0, 52, 100
2, 1941160, Note_off_c, 0, 52, 100
2, 1941160, Note_on_c, 0, 52, 100
2, 1942080, Note_on_c, 0, 51, 100
2, 1942465, Note_off_c, 0, 52, 100
2, 1942974, Note_on_c, 0, 50, 100
2, 1943406, Note_off_c, 0, 51, 100
2, 1943821, Note_on_c, 0, 49, 100
2, 1943922, Note_off_c, 0, 50, 100
2, 1944052, Note_off_c, 0, 49, 100
2, 1944609, Note_on_c, 0, 48, 100
2, 1945329, Note_on_c, 0, 47, 100
2, 1945434, Note_off_c, 0, 48, 100
2, 1945985, Note_on_c, 0, 46, 100
2, 1946587, Note_off_c, 0, 46, 100
2, 1946587, Note_on_c, 0, 46, 100
2, 1946904, Note_off_c, 0, 47, 100
2, 1947151, Note_off_c, 0, 46, 100
2, 1947151, Note_on_c, 0, 46, 100
2, 1947698, Note_off_c, 0, 46, 100
2, 1947698, Note_on_c, 0, 46, 100
2, 1948389, Note_on_c, 0, 47, 100
2, 1948442, Note_off_c, 0, 46, 100
2, 1949165, Note_off_c, 0, 47, 100
2, 1949252, Note_on_c, 0, 49, 100
2, 1950075, Note_on_c, 0, 50, 100
2, 1950739, Note_off_c, 0, 49, 100
2, 1950850, Note_on_c, 0, 52, 100
2, 1951575, Note_on_c, 0, 54, 100
2, 1951848, Note_off_c, 0, 50, 100
2, 1952257, Note_on_c, 0, 57, 100
2, 1952440, Note_off_c, 0, 52, 100
2, 1952606, Note_off_c, 0, 57, 100
2, 1952620, Note_off_c, 0, 54, 100
2, 1952906, Note_on_c, 0, 59, 100
2, 1953357, Note_off_c, 0, 59, 100
2, 1953539, Note_on_c, 0, 62, 100
2, 1954172, Note_on_c, 0, 64, 100
2, 1954338, Note_off_c, 0, 62, 100
2, 1954819, Note_on_c, 0, 65, 100
2, 1955003, Note_off_c, 0, 64, 100
2, 1955440, Note_off_c, 0, 65, 100
2, 1955547, Note_on_c, 0, 66, 100
2, 1955875, Note_off_c, 0, 66, 100
2, 1956284, Note_on_c, 0, 67, 100
2, 1956409, Note_off_c, 0, 67, 100
2, 1956991, Note_on_c, 0, 66, 100
2, 1957113, Note_off_c, 0, 66, 100
2, 1957683, Note_on_c, 0, 65, 100
2, 1958002, Note_off_c, 0, 65, 100
2, 1958449, Note_on_c, 0, 63, 100
2, 1959056, Note_off_c, 0, 63, 100
2, 1959212, Note_on_c, 0, 61, 100
2, 1959957, Note_on_c, 0, 58, 100
2, 1960026, Note_off_c, 0, 61, 100
2, 1960676, Note_on_c, 0, 55, 100
2, 1960739, Note_off_c, 0, 58, 100
2, 1961113, Note_off_c, 0, 55, 100
2, 1961360, Note_on_c, 0, 52, 100
2, 1961718, Note_off_c, 0, 52, 100
2, 1962011, Note_on_c, 0, 50, 100
2, 1962805, Note_on_c, 0, 47, 100
2, 1963058, Note_off_c, 0, 50, 100
2, 1963637, Note_on_c, 0, 44, 100
2, 1964391, Note_off_c, 0, 47, 100
2, 1964468, Note_on_c, 0, 42, 100
2, 1965279, Note_on_c, 0, 41, 100
2, 1965400, Note_off_c, 0, 44, 100
2, 1965940, Note_off_c, 0, 42, 100
2, 1966038, Note_off_c, 0, 41, 100
2, 1966055, Note_on_c, 0, 40, 100
2, 1966431, Note_off_c, 0, 40, 100
2, 1966781, Note_on_c, 0, 39, 100
2, 1967453, Note_on_c, 0, 40, 100
2, 1968057, Note_off_c, 0, 39, 100
2, 1968070, Note_on_c, 0, 41, 100
2, 1968641, Note_on_c, 0, 42, 100
2, 1969217, Note_on_c, 0, 44, 100
2, 1969316, Note_off_c, 0, 40, 100
2, 1970031, Note_off_c, 0, 44, 100
2, 1970036, Note_off_c, 0, 41, 100
2, 1970127, Note_on_c, 0, 47, 100
2, 1970210, Note_off_c, 0, 42, 100
2, 1970373, Note_off_c, 0, 47, 100
2, 1971023, Note_on_c, 0, 49, 100
2, 1971884, Note_on_c, 0, 51, 100
2, 1971988, Note_off_c, 0, 49, 100
2, 1972693, Note_on_c, 0, 54, 100
2, 1973226, Note_off_c, 0, 51, 100
2, 1973437, Note_on_c, 0, 56, 100
2, 1974011, Note_off_c, 0, 54, 100
2, 1974112, Note_on_c, 0, 58, 100
2, 1974411, Note_off_c, 0, 56, 100
2, 1974603, Note_off_c, 0, 58, 100
2, 1974724, Note_on_c, 0, 59, 100
2, 1974842, Note_off_c, 0, 59, 100
2, 1975285, Note_on_c, 0, 60, 100
2, 1975614, Note_off_c, 0, 60, 100
2, 1975815, Note_on_c, 0, 61, 100
2, 1976113, Note_off_c, 0, 61, 100
2, 1976462, Note_on_c, 0, 61, 100
2, 1976570, Note_off_c, 0, 61, 100
2, 1977366, Note_on_c, 0, 60, 100
2, 1977640, Note_off_c, 0, 60, 100
2, 1978233, Note_on_c, 0, 59, 100
2, 1978544, Note_off_c, 0, 59, 100
2, 1979050, Note_on_c, 0, 58, 100
2, 1979159, Note_off_c, 0, 58, 100
2, 1979807, Note_on_c, 0, 57, 100
2, 1980297, Note_off_c, 0, 57, 100
2, 1980505, Note_on_c, 0, 56, 100
2, 1981151, Note_on_c, 0, 55, 100
2, 1981468, Note_off_c, 0, 56, 100
2, 1981759, Note_on_c, 0, 54, 100
2, 1982348, Note_on_c, 0, 53, 100
2, 1982450, Note_off_c, 0, 55, 100
2, 1982935, Note_on_c, 0, 52, 100
2, 1983077, Note_off_c, 0, 54, 100
2, 1983158, Note_off_c, 0, 52, 100
2, 1983288, Note_off_c, 0, 53, 100
2, 1983659, Note_on_c, 0, 52, 100
2, 1984464, Note_off_c, 0, 52, 100
2, 1984464, Note_on_c, 0, 52, 100
2, 1985232, Note_off_c, 0, 52, 100
2, 1985232, Note_on_c, 0, 52, 100
2, 1985960, Note_on_c, 0, 53, 100
2, 1986656, Note_on_c, 0, 54, 100
2, 1987196, Note_off_c, 0, 52, 100
2, 1987330, Note_off_c, 0, 54, 100
2, 1987330, Note_on_c, 0, 54, 100
2, 1987811, Note_off_c, 0, 53, 100
2, 1987912, Note_off_c, 0, 54, 100
2, 1987996, Note_on_c, 0, 55, 100
2, 1988668, Note_on_c, 0, 56, 100
2, 1988780, Note_off_c, 0, 55, 100
2, 1989360, Note_off_c, 0, 56, 100
2, 1989360, Note_on_c, 0, 56, 100
2, 1990083, Note_off_c, 0, 56, 100
2, 1990083, Note_on_c, 0, 56, 100
2, 1990822, Note_off_c, 0, 56, 100
2, 1990822, Note_on_c, 0, 56, 100
2, 1991594, Note_on_c, 0, 55, 100
2, 1991865, Note_off_c, 0, 56, 100
2, 1991939, Note_off_c, 0, 55, 100
2, 1992381, Note_on_c, 0, 54, 100
2, 1992838, Note_off_c, 0, 54, 100
2, 1993171, Note_on_c, 0, 52, 100
2, 1993947, Note_on_c, 0, 51, 100
2, 1993978, Note_off_c, 0, 52, 100
2, 1994696, Note_on_c, 0, 50, 100
2, 1994787, Note_off_c, 0, 51, 100
2, 1995324, Note_off_c, 0, 50, 100
2, 1995406, Note_on_c, 0, 48, 100
2, 1995739, Note_off_c, 0, 48, 100
2, 1996071, Note_on_c, 0, 46, 100
2, 1996198, Note_off_c, 0, 46, 100
2, 1996694, Note_on_c, 0, 45, 100
2, 1996814, Note_off_c, 0, 45, 100
2, 1997281, Note_on_c, 0, 43, 100
2, 1997595, Note_off_c, 0, 43, 100
2, 1998151, Note_on_c, 0, 42, 100
2, 1998751, Note_off_c, 0, 42, 100
2, 1999026, Note_on_c, 0, 42, 100
2, 1999832, Note_off_c, 0, 42, 100
2, 1999882, Note_on_c, 0, 42, 100
2, 2000656, Note_off_c, 0, 42, 100
2, 2000699, Note_on_c, 0, 43, 100
2, 2001129, Note_off_c, 0, 43, 100
2, 2001462, Note_on_c, 0, 45, 100
2, 2001825, Note_off_c, 0, 45, 100
2, 2002163, Note_on_c, 0, 47, 100
2, 2002799, Note_on_c, 0, 49, 100
2, 2003211, Note_off_c, 0, 47, 100
2, 2003379, Note_on_c, 0, 51, 100
2, 2003918, Note_on_c, 0, 54, 100
2, 2004382, Note_off_c, 0, 49, 100
2, 2004523, Note_on_c, 0, 57, 100
2, 2005136, Note_off_c, 0, 51, 100
2, 2005273, Note_off_c, 0, 57, 100
2, 2005382, Note_off_c, 0, 54, 100
2, 2005443, Note_on_c, 0, 60, 100
2, 2005827, Note_off_c, 0, 60, 100
2, 2006336, Note_on_c, 0, 62, 100
2, 2007183, Note_on_c, 0, 65, 100
2, 2007618, Note_off_c, 0, 62, 100
2, 2007970, Note_on_c, 0, 66, 100
2, 2008690, Note_on_c, 0, 67, 100
2, 2009049, Note_off_c, 0, 65, 100
2, 2009345, Note_off_c, 0, 67, 100
2, 2009345, Note_on_c, 0, 67, 100
2, 2009936, Note_off_c, 0, 66, 100
2, 2009946, Note_off_c, 0, 67, 100
2, 2009946, Note_on_c, 0, 67, 100
2, 2010257, Note_off_c, 0, 67, 100
2, 2010510, Note_on_c, 0, 66, 100
2, 2011056, Note_on_c, 0, 64, 100
2, 2011484, Note_off_c, 0, 66, 100
2, 2011751, Note_on_c, 0, 62, 100
2, 2012406, Note_off_c, 0, 64, 100
2, 2012615, Note_on_c, 0, 59, 100
2, 2013075, Note_off_c, 0, 62, 100
2, 2013438, Note_on_c, 0, 56, 100
2, 2013592, Note_off_c, 0, 59, 100
2, 2013929, Note_off_c, 0, 56, 100
2, 2014213, Note_on_c, 0, 53, 100
2, 2014335, Note_off_c, 0, 53, 100
2, 2014938, Note_on_c, 0, 50, 100
2, 2015273, Note_off_c, 0, 50, 100
2, 2015619, Note_on_c, 0, 48, 100
2, 2015925, Note_off_c, 0, 48, 100
2, 2016268, Note_on_c, 0, 46, 100
2, 2016385, Note_off_c, 0, 46, 100
2, 2016900, Note_on_c, 0, 44, 100
2, 2017166, Note_off_c, 0, 44, 100
2, 2017532, Note_on_c, 0, 43, 100
2, 2017837, Note_off_c, 0, 43, 100
2, 2018179, Note_on_c, 0, 42, 100
2, 2018285, Note_off_c, 0, 42, 100
2, 2018908, Note_on_c, 0, 42, 100
2, 2019398, Note_off_c, 0, 42, 100
2, 2019645, Note_on_c, 0, 42, 100
2, 2020353, Note_on_c, 0, 43, 100
2, 2020604, Note_off_c, 0, 42, 100
2, 2021040, Note_on_c, 0, 44, 100
2, 2021645, Note_off_c, 0, 43, 100
2, 2021806, Note_on_c, 0, 46, 100
2, 2022350, Note_off_c, 0, 44, 100
2, 2022569, Note_on_c, 0, 48, 100
2, 2022737, Note_off_c, 0, 46, 100
2, 2022785, Note_off_c, 0, 48, 100
2, 2023315, Note_on_c, 0, 50, 100
2, 2024033, Note_on_c, 0, 51, 100
2, 2024151, Note_off_c, 0, 50, 100
2, 2024718, Note_on_c, 0, 53, 100
2, 2025369, Note_on_c, 0, 54, 100
2, 2025613, Note_off_c, 0, 51, 100
2, 2026166, Note_on_c, 0, 55, 100
2, 2026681, Note_off_c, 0, 53, 100
2, 2026997, Note_on_c, 0, 56, 100
2, 2027215, Note_off_c, 0, 54, 100
2, 2027340, Note_off_c, 0, 56, 100
2, 2027415, Note_off_c, 0, 55, 100
2, 2027827, Note_on_c, 0, 57, 100
2, 2028620, Note_off_c, 0, 57, 100
2, 2028638, Note_on_c, 0, 57, 100
2, 2029413, Note_on_c, 0, 56, 100
2, 2030139, Note_off_c, 0, 57, 100
2, 2030139, Note_off_c, 0, 56, 100
2, 2030139, Note_on_c, 0, 56, 100
2, 2030810, Note_on_c, 0, 55, 100
2, 2031427, Note_on_c, 0, 54, 100
2, 2031733, Note_off_c, 0, 56, 100
2, 2031767, Note_off_c, 0, 54, 100
2, 2031852, Note_off_c, 0, 55, 100
2, 2031998, Note_on_c, 0, 53, 100
2, 2032462, Note_off_c, 0, 53, 100
2, 2032580, Note_on_c, 0, 53, 100
2, 2033395, Note_off_c, 0, 53, 100
2, 2033489, Note_on_c, 0, 52, 100
2, 2034337, Note_off_c, 0, 52, 100
2, 2034385, Note_on_c, 0, 52, 100
2, 2035021, Note_off_c, 0, 52, 100
2, 2035245, Note_on_c, 0, 52, 100
2, 2035583, Note_off_c, 0, 52, 100
2, 2036053, Note_on_c, 0, 53, 100
2, 2036181, Note_off_c, 0, 53, 100
2, 2036796, Note_on_c, 0, 53, 100
2, 2036914, Note_off_c, 0, 53, 100
2, 2037471, Note_on_c, 0, 54, 100
2, 2037780, Note_off_c, 0, 54, 100
2, 2038082, Note_on_c, 0, 56, 100
2, 2038643, Note_on_c, 0, 57, 100
2, 2038674, Note_off_c, 0, 56, 100
2, 2039173, Note_on_c, 0, 58, 100
2, 2039441, Note_off_c, 0, 57, 100
2, 2039825, Note_on_c, 0, 59, 100
2, 2039939, Note_off_c, 0, 58, 100
2, 2040248, Note_off_c, 0, 59, 100
2, 2040728, Note_on_c, 0, 60, 100
2, 2041095, Note_off_c, 0, 60, 100
2, 2041596, Note_on_c, 0, 60, 100
2, 2042412, Note_off_c, 0, 60, 100
2, 2042412, Note_on_c, 0, 60, 100
2, 2043169, Note_off_c, 0, 60, 100
2, 2043169, Note_on_c, 0, 60, 100
2, 2043867, Note_on_c, 0, 59, 100
2, 2044512, Note_on_c, 0, 57, 100
2, 2044921, Note_off_c, 0, 60, 100
2, 2045119, Note_on_c, 0, 55, 100
2, 2045254, Note_off_c, 0, 57, 100
2, 2045324, Note_off_c, 0, 59, 100
2, 2045511, Note_off_c, 0, 55, 100
2, 2045707, Note_on_c, 0, 53, 100
2, 2046294, Note_on_c, 0, 51, 100
2, 2046996, Note_off_c, 0, 53, 100
2, 2047021, Note_on_c, 0, 49, 100
2, 2047827, Note_on_c, 0, 47, 100
2, 2048164, Note_off_c, 0, 51, 100
2, 2048594, Note_on_c, 0, 44, 100
2, 2048988, Note_off_c, 0, 49, 100
2, 2049323, Note_on_c, 0, 42, 100
2, 2049391, Note_off_c, 0, 47, 100
2, 2049396, Note_off_c, 0, 44, 100
2, 2049585, Note_off_c, 0, 42, 100
2, 2050019, Note_on_c, 0, 41, 100
2, 2050693, Note_on_c, 0, 40, 100
2, 2051001, Note_off_c, 0, 41, 100
2, 2051358, Note_off_c, 0, 40, 100
2, 2051358, Note_on_c, 0, 40, 100
2, 2052030, Note_off_c, 0, 40, 100
2, 2052030, Note_on_c, 0, 40, 100
2, 2052720, Note_on_c, 0, 41, 100
2, 2053010, Note_off_c, 0, 40, 100
2, 2053211, Note_off_c, 0, 41, 100
2, 2053443, Note_on_c, 0, 43, 100
2, 2053568, Note_off_c, 0, 43, 100
2, 2054182, Note_on_c, 0, 45, 100
2, 2054523, Note_off_c, 0, 45, 100
2, 2054953, Note_on_c, 0, 48, 100
2, 2055267, Note_off_c, 0, 48, 100
2, 2055740, Note_on_c, 0, 50, 100
2, 2055865, Note_off_c, 0, 50, 100
2, 2056529, Note_on_c, 0, 53, 100
2, 2056788, Note_off_c, 0, 53, 100
2, 2057305, Note_on_c, 0, 56, 100
2, 2057604, Note_off_c, 0, 56, 100
2, 2058053, Note_on_c, 0, 59, 100
2, 2058156, Note_off_c, 0, 59, 100
2, 2058763, Note_on_c, 0, 62, 100
2, 2059252, Note_off_c, 0, 62, 100
2, 2059429, Note_on_c, 0, 64, 100
2, 2060051, Note_on_c, 0, 66, 100
2, 2060385, Note_off_c, 0, 64, 100
2, 2060640, Note_on_c, 0, 67, 100
2, 2061337, Note_off_c, 0, 66, 100
2, 2061513, Note_off_c, 0, 67, 100
2, 2061513, Note_on_c, 0, 67, 100
2, 2062387, Note_on_c, 0, 66, 100
2, 2062436, Note_off_c, 0, 67, 100
2, 2062595, Note_off_c, 0, 66, 100
2, 2063242, Note_on_c, 0, 65, 100
2, 2064058, Note_on_c, 0, 64, 100
2, 2064083, Note_off_c, 0, 65, 100
2, 2064821, Note_on_c, 0, 62, 100
2, 2065521, Note_on_c, 0, 59, 100
2, 2065640, Note_off_c, 0, 64, 100
2, 2066157, Note_on_c, 0, 57, 100
2, 2066737, Note_on_c, 0, 54, 100
2, 2066783, Note_off_c, 0, 62, 100
2, 2067072, Note_off_c, 0, 54, 100
2, 2067275, Note_on_c, 0, 51, 100
2, 2067363, Note_off_c, 0, 59, 100
2, 2067399, Note_off_c, 0, 57, 100
2, 2067886, Note_on_c, 0, 50, 100
2, 2068076, Note_off_c, 0, 51, 100
2, 2068805, Note_on_c, 0, 48, 100
2, 2069395, Note_off_c, 0, 50, 100
2, 2069698, Note_on_c, 0, 47, 100
2, 2070545, Note_on_c, 0, 46, 100
2, 2070593, Note_off_c, 0, 48, 100
2, 2071294, Note_off_c, 0, 47, 100
2, 2071331, Note_on_c, 0, 45, 100
2, 2071585, Note_off_c, 0, 46, 100
2, 2071667, Note_off_c, 0, 45, 100
2, 2072050, Note_on_c, 0, 45, 100
2, 2072521, Note_off_c, 0, 45, 100
2, 2072705, Note_on_c, 0, 46, 100
2, 2073305, Note_off_c, 0, 46, 100
2, 2073305, Note_on_c, 0, 46, 100
2, 2073868, Note_on_c, 0, 48, 100
2, 2074161, Note_off_c, 0, 46, 100
2, 2074414, Note_on_c, 0, 49, 100
2, 2074511, Note_off_c, 0, 48, 100
2, 2074756, Note_off_c, 0, 49, 100
2, 2075114, Note_on_c, 0, 50, 100
2, 2075244, Note_off_c, 0, 50, 100
2, 2075977, Note_on_c, 0, 50, 100
2, 2076093, Note_off_c, 0, 50, 100
2, 2076801, Note_on_c, 0, 51, 100
2, 2077105, Note_off_c, 0, 51, 100
2, 2077576, Note_on_c, 0, 52, 100
2, 2078161, Note_off_c, 0, 52, 100
2, 2078300, Note_on_c, 0, 53, 100
2, 2078981, Note_off_c, 0, 53, 100
2, 2078981, Note_on_c, 0, 53, 100
2, 2079630, Note_off_c, 0, 53, 100
2, 2079630, Note_on_c, 0, 53, 100
2, 2080046, Note_off_c, 0, 53, 100
2, 2080261, Note_on_c, 0, 53, 100
2, 2080632, Note_off_c, 0, 53, 100
2, 2080893, Note_on_c, 0, 52, 100
2, 2081538, Note_off_c, 0, 52, 100
2, 2081538, Note_on_c, 0, 52, 100
2, 2082269, Note_on_c, 0, 51, 100
2, 2083007, Note_on_c, 0, 50, 100
2, 2083117, Note_off_c, 0, 52, 100
2, 2083715, Note_off_c, 0, 50, 100
2, 2083715, Note_on_c, 0, 50, 100
2, 2084016, Note_off_c, 0, 51, 100
2, 2084401, Note_off_c, 0, 50, 100
2, 2084401, Note_on_c, 0, 50, 100
2, 2084801, Note_off_c, 0, 50, 100
2, 2085163, Note_on_c, 0, 50, 100
2, 2085926, Note_off_c, 0, 50, 100
2, 2085926, Note_on_c, 0, 50, 100
2, 2086672, Note_off_c, 0, 50, 100
2, 2086672, Note_on_c, 0, 50, 100
2, 2087391, Note_on_c, 0, 51, 100
2, 2088076, Note_on_c, 0, 53, 100
2, 2088639, Note_off_c, 0, 50, 100
2, 2088728, Note_on_c, 0, 54, 100
2, 2088872, Note_off_c, 0, 53, 100
2, 2088952, Note_off_c, 0, 51, 100
2, 2088998, Note_off_c, 0, 54, 100
2, 2089526, Note_on_c, 0, 56, 100
2, 2090357, Note_on_c, 0, 58, 100
2, 2090517, Note_off_c, 0, 56, 100
2, 2091186, Note_on_c, 0, 60, 100
2, 2091723, Note_off_c, 0, 58, 100
2, 2091996, Note_on_c, 0, 61, 100
2, 2092522, Note_off_c, 0, 60, 100
2, 2092771, Note_on_c, 0, 63, 100
2, 2092980, Note_off_c, 0, 61, 100
2, 2093262, Note_off_c, 0, 63, 100
2, 2093497, Note_on_c, 0, 64, 100
2, 2093625, Note_off_c, 0, 64, 100
2, 2094168, Note_on_c, 0, 64, 100
2, 2094515, Note_off_c, 0, 64, 100
2, 2094784, Note_on_c, 0, 64, 100
2, 2095106, Note_off_c, 0, 64, 100
2, 2095356, Note_on_c, 0, 63, 100
2, 2095490, Note_off_c, 0, 63, 100
2, 2095942, Note_on_c, 0, 61, 100
2, 2096193, Note_off_c, 0, 61, 100
2, 2096851, Note_on_c, 0, 59, 100
2, 2097145, Note_off_c, 0, 59, 100
2, 2097746, Note_on_c, 0, 57, 100
2, 2097847, Note_off_c, 0, 57, 100
2, 2098606, Note_on_c, 0, 54, 100
2, 2099095, Note_off_c, 0, 54, 100
2, 2099414, Note_on_c, 0, 51, 100
2, 2100156, Note_on_c, 0, 49, 100
2, 2100366, Note_off_c, 0, 51, 100
2, 2100830, Note_on_c, 0, 46, 100
2, 2101435, Note_off_c, 0, 49, 100
2, 2101440, Note_on_c, 0, 44, 100
2, 2102001, Note_on_c, 0, 41, 100
2, 2102124, Note_off_c, 0, 46, 100
2, 2102202, Note_off_c, 0, 41, 100
2, 2102354, Note_off_c, 0, 44, 100
2, 2102530, Note_on_c, 0, 40, 100
2, 2103188, Note_on_c, 0, 39, 100
2, 2103376, Note_off_c, 0, 40, 100
2, 2104091, Note_off_c, 0, 39, 100
2, 2104091, Note_on_c, 0, 39, 100
2, 2104959, Note_off_c, 0, 39, 100
2, 2104959, Note_on_c, 0, 39, 100
2, 2105775, Note_on_c, 0, 40, 100
2, 2106531, Note_on_c, 0, 42, 100
2, 2106797, Note_off_c, 0, 39, 100
2, 2106858, Note_off_c, 0, 42, 100
2, 2107011, Note_off_c, 0, 40, 100
2, 2107228, Note_on_c, 0, 44, 100
2, 2107873, Note_on_c, 0, 47, 100
2, 2108038, Note_off_c, 0, 44, 100
2, 2108479, Note_on_c, 0, 50, 100
2, 2109066, Note_on_c, 0, 52, 100
2, 2109389, Note_off_c, 0, 47, 100
2, 2109653, Note_on_c, 0, 55, 100
2, 2110272, Note_off_c, 0, 50, 100
2, 2110383, Note_on_c, 0, 58, 100
2, 2110664, Note_off_c, 0, 52, 100
2, 2110692, Note_off_c, 0, 55, 100
2, 2110714, Note_off_c, 0, 58, 100
2, 2111189, Note_on_c, 0, 60, 100
2, 2111668, Note_off_c, 0, 60, 100
2, 2111957, Note_on_c, 0, 62, 100
2, 2112686, Note_on_c, 0, 63, 100
2, 2112789, Note_off_c, 0, 62, 100
2, 2113382, Note_on_c, 0, 64, 100
2, 2113551, Note_off_c, 0, 63, 100
2, 2114031, Note_off_c, 0, 64, 100
2, 2114055, Note_on_c, 0, 64, 100
2, 2114402, Note_off_c, 0, 64, 100
2, 2114720, Note_on_c, 0, 64, 100
2, 2114851, Note_off_c, 0, 64, 100
2, 2115391, Note_on_c, 0, 63, 100
2, 2115505, Note_off_c, 0, 63, 100
2, 2116081, Note_on_c, 0, 62, 100
2, 2116380, Note_off_c, 0, 62, 100
2, 2116802, Note_on_c, 0, 60, 100
2, 2117380, Note_off_c, 0, 60, 100
2, 2117542, Note_on_c, 0, 58, 100
2, 2118312, Note_on_c, 0, 56, 100
2, 2118323, Note_off_c, 0, 58, 100
2, 2119061, Note_off_c, 0, 56, 100
2, 2119098, Note_on_c, 0, 54, 100
2, 2119508, Note_off_c, 0, 54, 100
2, 2119886, Note_on_c, 0, 52, 100
2, 2120261, Note_off_c, 0, 52, 100
2, 2120662, Note_on_c, 0, 51, 100
2, 2121410, Note_on_c, 0, 50, 100
2, 2121713, Note_off_c, 0, 51, 100
2, 2122120, Note_off_c, 0, 50, 100
2, 2122120, Note_on_c, 0, 50, 100
2, 2122786, Note_on_c, 0, 49, 100
2, 2123409, Note_off_c, 0, 49, 100
2, 2123409, Note_on_c, 0, 49, 100
2, 2123861, Note_off_c, 0, 50, 100
2, 2124002, Note_on_c, 0, 50, 100
2, 2124228, Note_off_c, 0, 49, 100
2, 2124410, Note_off_c, 0, 50, 100
2, 2124874, Note_on_c, 0, 50, 100
2, 2125748, Note_off_c, 0, 50, 100
2, 2125748, Note_on_c, 0, 50, 100
2, 2126602, Note_on_c, 0, 51, 100
2, 2127418, Note_on_c, 0, 52, 100
2, 2127626, Note_off_c, 0, 50, 100
2, 2128180, Note_off_c, 0, 52, 100
2, 2128180, Note_on_c, 0, 52, 100
2, 2128570, Note_off_c, 0, 51, 100
2, 2128879, Note_on_c, 0, 53, 100
2, 2128976, Note_off_c, 0, 52, 100
2, 2129156, Note_off_c, 0, 53, 100
2, 2129515, Note_on_c, 0, 53, 100
2, 2130094, Note_off_c, 0, 53, 100
2, 2130094, Note_on_c, 0, 53, 100
2, 2130632, Note_on_c, 0, 52, 100
2, 2131249, Note_off_c, 0, 52, 100
2, 2131249, Note_on_c, 0, 52, 100
2, 2131468, Note_off_c, 0, 53, 100
2, 2132168, Note_on_c, 0, 51, 100
2, 2132236, Note_off_c, 0, 52, 100
2, 2132659, Note_off_c, 0, 51, 100
2, 2133061, Note_on_c, 0, 50, 100
2, 2133193, Note_off_c, 0, 50, 100
2, 2133907, Note_on_c, 0, 49, 100
2, 2134260, Note_off_c, 0, 49, 100
2, 2134692, Note_on_c, 0, 48, 100
2, 2135021, Note_off_c, 0, 48, 100
2, 2135411, Note_on_c, 0, 47, 100
2, 2135553, Note_off_c, 0, 47, 100
2, 2136065, Note_on_c, 0, 46, 100
2, 2136308, Note_off_c, 0, 46, 100
2, 2136664, Note_on_c, 0, 46, 100
2, 2136952, Note_off_c, 0, 46, 100
2, 2137226, Note_on_c, 0, 46, 100
2, 2137324, Note_off_c, 0, 46, 100
2, 2137772, Note_on_c, 0, 46, 100
2, 2138260, Note_off_c, 0, 46, 100
2, 2138476, Note_on_c, 0, 47, 100
2, 2139340, Note_on_c, 0, 49, 100
2, 2139424, Note_off_c, 0, 47, 100
2, 2140164, Note_on_c, 0, 50, 100
2, 2140613, Note_off_c, 0, 49, 100
2, 2140938, Note_on_c, 0, 52, 100
2, 2141450, Note_off_c, 0, 50, 100
2, 2141663, Note_on_c, 0, 54, 100
2, 2141844, Note_off_c, 0, 52, 100
2, 2141856, Note_off_c, 0, 54, 100
2, 2142343, Note_on_c, 0, 57, 100
2, 2142991, Note_on_c, 0, 59, 100
2, 2143195, Note_off_c, 0, 57, 100
2, 2143622, Note_on_c, 0, 62, 100
2, 2144253, Note_on_c, 0, 64, 100
2, 2144578, Note_off_c, 0, 59, 100
2, 2144898, Note_on_c, 0, 65, 100
2, 2145582, Note_off_c, 0, 62, 100
2, 2145630, Note_on_c, 0, 66, 100
2, 2145948, Note_off_c, 0, 66, 100
2, 2146087, Note_off_c, 0, 64, 100
2, 2146127, Note_off_c, 0, 65, 100
2, 2146369, Note_on_c, 0, 66, 100
2, 2147078, Note_off_c, 0, 66, 100
2, 2147078, Note_on_c, 0, 66, 100
2, 2147764, Note_on_c, 0, 65, 100
2, 2148520, Note_on_c, 0, 63, 100
2, 2148601, Note_off_c, 0, 66, 100
2, 2149283, Note_on_c, 0, 61, 100
2, 2149562, Note_off_c, 0, 65, 100
2, 2150030, Note_on_c, 0, 58, 100
2, 2150120, Note_off_c, 0, 63, 100
2, 2150320, Note_off_c, 0, 61, 100
2, 2150356, Note_off_c, 0, 58, 100
2, 2150749, Note_on_c, 0, 55, 100
2, 2151235, Note_off_c, 0, 55, 100
2, 2151435, Note_on_c, 0, 52, 100
2, 2152087, Note_on_c, 0, 50, 100
2, 2152275, Note_off_c, 0, 52, 100
2, 2152887, Note_on_c, 0, 47, 100
2, 2152960, Note_off_c, 0, 50, 100
2, 2153543, Note_off_c, 0, 47, 100
2, 2153717, Note_on_c, 0, 44, 100
2, 2154068, Note_off_c, 0, 44, 100
2, 2154545, Note_on_c, 0, 42, 100
2, 2154677, Note_off_c, 0, 42, 100
2, 2155355, Note_on_c, 0, 40, 100
2, 2155467, Note_off_c, 0, 40, 100
2, 2156129, Note_on_c, 0, 39, 100
2, 2156423, Note_off_c, 0, 39, 100
2, 2156854, Note_on_c, 0, 39, 100
2, 2157425, Note_off_c, 0, 39, 100
2, 2157525, Note_on_c, 0, 40, 100
2, 2158141, Note_on_c, 0, 41, 100
2, 2158297, Note_off_c, 0, 40, 100
2, 2158713, Note_on_c, 0, 42, 100
2, 2158882, Note_off_c, 0, 41, 100
2, 2159116, Note_off_c, 0, 42, 100
2, 2159305, Note_on_c, 0, 44, 100
2, 2159684, Note_off_c, 0, 44, 100
2, 2160213, Note_on_c, 0, 47, 100
2, 2161108, Note_on_c, 0, 49, 100
2, 2161265, Note_off_c, 0, 47, 100
2, 2161967, Note_on_c, 0, 51, 100
2, 2162682, Note_off_c, 0, 49, 100
2, 2162774, Note_on_c, 0, 54, 100
2, 2163515, Note_on_c, 0, 56, 100
2, 2163703, Note_off_c, 0, 51, 100
2, 2164189, Note_on_c, 0, 58, 100
2, 2164208, Note_off_c, 0, 54, 100
2, 2164232, Note_off_c, 0, 56, 100
2, 2164605, Note_off_c, 0, 58, 100
2, 2164799, Note_on_c, 0, 59, 100
2, 2165359, Note_on_c, 0, 60, 100
2, 2165887, Note_on_c, 0, 61, 100
2, 2166107, Note_off_c, 0, 59, 100
2, 2166551, Note_off_c, 0, 61, 100
2, 2166551, Note_on_c, 0, 61, 100
2, 2167240, Note_off_c, 0, 60, 100
2, 2167454, Note_on_c, 0, 60, 100
2, 2168106, Note_off_c, 0, 61, 100
2, 2168239, Note_off_c, 0, 60, 100
2, 2168321, Note_on_c, 0, 60, 100
2, 2168606, Note_off_c, 0, 60, 100
2, 2169137, Note_on_c, 0, 58, 100
2, 2169893, Note_on_c, 0, 57, 100
2, 2170145, Note_off_c, 0, 58, 100
2, 2170589, Note_on_c, 0, 56, 100
2, 2171233, Note_on_c, 0, 55, 100
2, 2171275, Note_off_c, 0, 57, 100
2, 2171839, Note_on_c, 0, 54, 100
2, 2171937, Note_off_c, 0, 56, 100
2, 2172223, Note_off_c, 0, 55, 100
2, 2172330, Note_off_c, 0, 54, 100
2, 2172426, Note_on_c, 0, 53, 100
2, 2172561, Note_off_c, 0, 53, 100
2, 2173011, Note_on_c, 0, 52, 100
2, 2173371, Note_off_c, 0, 52, 100
2, 2173745, Note_on_c, 0, 52, 100
2, 2174082, Note_off_c, 0, 52, 100
2, 2174551, Note_on_c, 0, 52, 100
2, 2174702, Note_off_c, 0, 52, 100
2, 2175320, Note_on_c, 0, 52, 100
2, 2175556, Note_off_c, 0, 52, 100
2, 2176049, Note_on_c, 0, 53, 100
2, 2176331, Note_off_c, 0, 53, 100
2, 2176745, Note_on_c, 0, 53, 100
2, 2176841, Note_off_c, 0, 53, 100
2, 2177418, Note_on_c, 0, 54, 100
2, 2177906, Note_off_c, 0, 54, 100
2, 2178082, Note_on_c, 0, 55, 100
2, 2178753, Note_off_c, 0, 55, 100
2, 2178753, Note_on_c, 0, 55, 100
2, 2179442, Note_on_c, 0, 56, 100
2, 2180019, Note_off_c, 0, 55, 100
2, 2180162, Note_off_c, 0, 56, 100
2, 2180162, Note_on_c, 0, 56, 100
2, 2180901, Note_on_c, 0, 55, 100
2, 2181059, Note_off_c, 0, 56, 100
2, 2181087, Note_off_c, 0, 55, 100
2, 2181671, Note_on_c, 0, 55, 100
2, 2182456, Note_on_c, 0, 54, 100
2, 2182528, Note_off_c, 0, 55, 100
2, 2183244, Note_on_c, 0, 52, 100
2, 2184020, Note_on_c, 0, 51, 100
2, 2184045, Note_off_c, 0, 54, 100
2, 2184768, Note_on_c, 0, 50, 100
2, 2185202, Note_off_c, 0, 52, 100
2, 2185477, Note_on_c, 0, 48, 100
2, 2185787, Note_off_c, 0, 48, 100
2, 2185849, Note_off_c, 0, 51, 100
2, 2185990, Note_off_c, 0, 50, 100
2, 2186143, Note_on_c, 0, 46, 100
2, 2186766, Note_on_c, 0, 45, 100
2, 2186969, Note_off_c, 0, 46, 100
2, 2187364, Note_on_c, 0, 43, 100
2, 2188235, Note_on_c, 0, 42, 100
2, 2188296, Note_off_c, 0, 45, 100
2, 2189108, Note_off_c, 0, 42, 100
2, 2189108, Note_on_c, 0, 42, 100
2, 2189167, Note_off_c, 0, 43, 100
2, 2189962, Note_off_c, 0, 42, 100
2, 2189962, Note_on_c, 0, 42, 100
2, 2190284, Note_off_c, 0, 42, 100
2, 2190777, Note_on_c, 0, 43, 100
2, 2191270, Note_off_c, 0, 43, 100
2, 2191538, Note_on_c, 0, 45, 100
2, 2192237, Note_on_c, 0, 47, 100
2, 2192387, Note_off_c, 0, 45, 100
2, 2192872, Note_on_c, 0, 49, 100
2, 2193118, Note_off_c, 0, 47, 100
2, 2193451, Note_on_c, 0, 51, 100
2, 2193535, Note_off_c, 0, 49, 100
2, 2193807, Note_off_c, 0, 51, 100
2, 2193990, Note_on_c, 0, 54, 100
2, 2194123, Note_off_c, 0, 54, 100
2, 2194612, Note_on_c, 0, 57, 100
2, 2194722, Note_off_c, 0, 57, 100
2, 2195531, Note_on_c, 0, 60, 100
2, 2195819, Note_off_c, 0, 60, 100
2, 2196423, Note_on_c, 0, 62, 100
2, 2196986, Note_off_c, 0, 62, 100
2, 2197269, Note_on_c, 0, 65, 100
2, 2198033, Note_off_c, 0, 65, 100
2, 2198053, Note_on_c, 0, 66, 100
2, 2198771, Note_on_c, 0, 67, 100
2, 2198786, Note_off_c, 0, 66, 100
2, 2199168, Note_off_c, 0, 67, 100
2, 2199424, Note_on_c, 0, 67, 100
2, 2199807, Note_off_c, 0, 67, 100
2, 2200023, Note_on_c, 0, 67, 100
2, 2200585, Note_on_c, 0, 66, 100
2, 2201075, Note_off_c, 0, 67, 100
2, 2201130, Note_on_c, 0, 64, 100
2, 2201839, Note_on_c, 0, 62, 100
2, 2202156, Note_off_c, 0, 66, 100
2, 2202703, Note_on_c, 0, 59, 100
2, 2202860, Note_off_c, 0, 64, 100
2, 2203265, Note_off_c, 0, 62, 100
2, 2203411, Note_off_c, 0, 59, 100
2, 2203527, Note_on_c, 0, 56, 100
2, 2203951, Note_off_c, 0, 56, 100
2, 2204301, Note_on_c, 0, 53, 100
2, 2205025, Note_on_c, 0, 50, 100
2, 2205615, Note_off_c, 0, 53, 100
2, 2205705, Note_on_c, 0, 48, 100
2, 2206353, Note_on_c, 0, 46, 100
2, 2206910, Note_off_c, 0, 50, 100
2, 2206983, Note_on_c, 0, 44, 100
2, 2207613, Note_on_c, 0, 42, 100
2, 2207673, Note_off_c, 0, 48, 100
2, 2207762, Note_off_c, 0, 44, 100
2, 2207905, Note_off_c, 0, 46, 100
2, 2207906, Note_off_c, 0, 42, 100
2, 2208257, Note_on_c, 0, 42, 100
2, 2208992, Note_on_c, 0, 41, 100
2, 2209273, Note_off_c, 0, 42, 100
2, 2209731, Note_on_c, 0, 42, 100
2, 2210381, Note_off_c, 0, 41, 100
2, 2210440, Note_on_c, 0, 43, 100
2, 2211085, Note_off_c, 0, 42, 100
2, 2211126, Note_on_c, 0, 44, 100
2, 2211433, Note_off_c, 0, 43, 100
2, 2211617, Note_off_c, 0, 44, 100
2, 2211878, Note_on_c, 0, 46, 100
2, 2212017, Note_off_c, 0, 46, 100
2, 2212640, Note_on_c, 0, 48, 100
2, 2213006, Note_off_c, 0, 48, 100
2, 2213387, Note_on_c, 0, 50, 100
2, 2213732, Note_off_c, 0, 50, 100
2, 2214106, Note_on_c, 0, 51, 100
2, 2214265, Note_off_c, 0, 51, 100
2, 2214793, Note_on_c, 0, 53, 100
2, 2215021, Note_off_c, 0, 53, 100
2, 2215446, Note_on_c, 0, 54, 100
2, 2215723, Note_off_c, 0, 54, 100
2, 2216247, Note_on_c, 0, 55, 100
2, 2216345, Note_off_c, 0, 55, 100
2, 2217076, Note_on_c, 0, 56, 100
2, 2217563, Note_off_c, 0, 56, 100
2, 2217904, Note_on_c, 0, 57, 100
2, 2218713, Note_off_c, 0, 57, 100
2, 2218713, Note_on_c, 0, 57, 100
2, 2219486, Note_on_c, 0, 56, 100
2, 2219973, Note_off_c, 0, 57, 100
2, 2220212, Note_off_c, 0, 56, 100
2, 2220212, Note_on_c, 0, 56, 100
2, 2220882, Note_on_c, 0, 55, 100
2, 2221061, Note_off_c, 0, 55, 100
2, 2221101, Note_off_c, 0, 56, 100
2, 2221499, Note_on_c, 0, 54, 100
2, 2222070, Note_on_c, 0, 53, 100
2, 2222361, Note_off_c, 0, 54, 100
2, 2222667, Note_off_c, 0, 53, 100
2, 2222667, Note_on_c, 0, 53, 100
2, 2223575, Note_on_c, 0, 52, 100
2, 2224469, Note_off_c, 0, 52, 100
2, 2224469, Note_on_c, 0, 52, 100
2, 2224624, Note_off_c, 0, 53, 100
2, 2225328, Note_off_c, 0, 52, 100
2, 2225328, Note_on_c, 0, 52, 100
2, 2225684, Note_off_c, 0, 52, 100
2, 2226134, Note_on_c, 0, 53, 100
2, 2226875, Note_off_c, 0, 53, 100
2, 2226875, Note_on_c, 0, 53, 100
2, 2227548, Note_on_c, 0, 54, 100
2, 2228157, Note_on_c, 0, 56, 100
2, 2228412, Note_off_c, 0, 53, 100
2, 2228716, Note_on_c, 0, 57, 100
2, 2229245, Note_on_c, 0, 58, 100
2, 2229356, Note_off_c, 0, 54, 100
2, 2229562, Note_off_c, 0, 58, 100
2, 2229750, Note_off_c, 0, 57, 100
2, 2229760, Note_off_c, 0, 56, 100
2, 2229913, Note_on_c, 0, 59, 100
2, 2230413, Note_off_c, 0, 59, 100
2, 2230817, Note_on_c, 0, 60, 100
2, 2231674, Note_off_c, 0, 60, 100
2, 2231684, Note_on_c, 0, 60, 100
2, 2232500, Note_off_c, 0, 60, 100
2, 2232500, Note_on_c, 0, 60, 100
2, 2233170, Note_off_c, 0, 60, 100
2, 2233255, Note_on_c, 0, 59, 100
2, 2233615, Note_off_c, 0, 59, 100
2, 2233951, Note_on_c, 0, 58, 100
2, 2234085, Note_off_c, 0, 58, 100
2, 2234594, Note_on_c, 0, 57, 100
2, 2234701, Note_off_c, 0, 57, 100
2, 2235199, Note_on_c, 0, 55, 100
2, 2235482, Note_off_c, 0, 55, 100
2, 2235785, Note_on_c, 0, 53, 100
2, 2236341, Note_off_c, 0, 53, 100
2, 2236370, Note_on_c, 0, 50, 100
2, 2237107, Note_on_c, 0, 49, 100
2, 2237126, Note_off_c, 0, 50, 100
2, 2237832, Note_off_c, 0, 49, 100
2, 2237914, Note_on_c, 0, 46, 100
2, 2238304, Note_off_c, 0, 46, 100
2, 2238682, Note_on_c, 0, 44, 100
2, 2239069, Note_off_c, 0, 44, 100
2, 2239412, Note_on_c, 0, 42, 100
2, 2240107, Note_on_c, 0, 41, 100
2, 2240465, Note_off_c, 0, 42, 100
2, 2240780, Note_on_c, 0, 40, 100
2, 2241445, Note_off_c, 0, 40, 100
2, 2241445, Note_on_c, 0, 40, 100
2, 2241675, Note_off_c, 0, 41, 100
2, 2242115, Note_off_c, 0, 40, 100
2, 2242115, Note_on_c, 0, 40, 100
2, 2242803, Note_on_c, 0, 41, 100
2, 2242864, Note_off_c, 0, 40, 100
2, 2243235, Note_off_c, 0, 41, 100
2, 2243522, Note_on_c, 0, 43, 100
2, 2244261, Note_on_c, 0, 45, 100
2, 2244842, Note_off_c, 0, 43, 100
2, 2245030, Note_on_c, 0, 48, 100
2, 2245815, Note_on_c, 0, 50, 100
2, 2246149, Note_off_c, 0, 45, 100
2, 2246602, Note_on_c, 0, 53, 100
2, 2246998, Note_off_c, 0, 48, 100
2, 2247364, Note_off_c, 0, 50, 100
2, 2247375, Note_off_c, 0, 53, 100
2, 2247377, Note_on_c, 0, 56, 100
2, 2247678, Note_off_c, 0, 56, 100
2, 2248125, Note_on_c, 0, 59, 100
2, 2248835, Note_on_c, 0, 62, 100
2, 2249150, Note_off_c, 0, 59, 100
2, 2249501, Note_on_c, 0, 64, 100
2, 2250124, Note_on_c, 0, 66, 100
2, 2250232, Note_off_c, 0, 62, 100
2, 2250726, Note_on_c, 0, 67, 100
2, 2250861, Note_off_c, 0, 64, 100
2, 2251120, Note_off_c, 0, 66, 100
2, 2251216, Note_off_c, 0, 67, 100
2, 2251597, Note_on_c, 0, 67, 100
2, 2251739, Note_off_c, 0, 67, 100
2, 2252469, Note_on_c, 0, 66, 100
2, 2252841, Note_off_c, 0, 66, 100
2, 2253322, Note_on_c, 0, 65, 100
2, 2253676, Note_off_c, 0, 65, 100
2, 2254136, Note_on_c, 0, 64, 100
2, 2254304, Note_off_c, 0, 64, 100
2, 2254897, Note_on_c, 0, 62, 100
2, 2255117, Note_off_c, 0, 62, 100
2, 2255595, Note_on_c, 0, 59, 100
2, 2255866, Note_off_c, 0, 59, 100
2, 2256230, Note_on_c, 0, 56, 100
2, 2256331, Note_off_c, 0, 56, 100
2, 2256809, Note_on_c, 0, 54, 100
2, 2257295, Note_off_c, 0, 54, 100
2, 2257347, Note_on_c, 0, 51, 100
2, 2257974, Note_on_c, 0, 50, 100
2, 2258283, Note_off_c, 0, 51, 100
2, 2258893, Note_on_c, 0, 48, 100
2, 2259227, Note_off_c, 0, 50, 100
2, 2259785, Note_on_c, 0, 47, 100
2, 2260154, Note_off_c, 0, 48, 100
2, 2260630, Note_on_c, 0, 46, 100
2, 2260666, Note_off_c, 0, 47, 100
2, 2260801, Note_off_c, 0, 46, 100
2, 2261414, Note_on_c, 0, 45, 100
2, 2262132, Note_off_c, 0, 45, 100
2, 2262132, Note_on_c, 0, 45, 100
2, 2262784, Note_on_c, 0, 46, 100
2, 2263382, Note_off_c, 0, 46, 100
2, 2263382, Note_on_c, 0, 46, 100
2, 2263725, Note_off_c, 0, 45, 100
2, 2263943, Note_on_c, 0, 48, 100
2, 2264488, Note_on_c, 0, 49, 100
2, 2264782, Note_off_c, 0, 49, 100
2, 2265151, Note_off_c, 0, 48, 100
2, 2265201, Note_on_c, 0, 50, 100
2, 2265202, Note_off_c, 0, 46, 100
2, 2266044, Note_off_c, 0, 50, 100
2, 2266066, Note_on_c, 0, 50, 100
2, 2266889, Note_on_c, 0, 51, 100
2, 2267610, Note_off_c, 0, 50, 100
2, 2267664, Note_on_c, 0, 52, 100
2, 2268388, Note_on_c, 0, 53, 100
2, 2268701, Note_off_c, 0, 51, 100
2, 2269067, Note_off_c, 0, 53, 100
2, 2269067, Note_on_c, 0, 53, 100
2, 2269268, Note_off_c, 0, 52, 100
2, 2269420, Note_off_c, 0, 53, 100
2, 2269714, Note_on_c, 0, 53, 100
2, 2270221, Note_off_c, 0, 53, 100
2, 2270344, Note_on_c, 0, 53, 100
2, 2270973, Note_on_c, 0, 52, 100
2, 2271210, Note_off_c, 0, 53, 100
2, 2271617, Note_off_c, 0, 52, 100
2, 2271617, Note_on_c, 0, 52, 100
2, 2272294, Note_off_c, 0, 52, 100
2, 2272353, Note_on_c, 0, 51, 100
2, 2272717, Note_off_c, 0, 51, 100
2, 2273093, Note_on_c, 0, 50, 100
2, 2273229, Note_off_c, 0, 50, 100
2, 2273802, Note_on_c, 0, 50, 100
2, 2273907, Note_off_c, 0, 50, 100
2, 2274489, Note_on_c, 0, 50, 100
2, 2274767, Note_off_c, 0, 50, 100
2, 2275235, Note_on_c, 0, 50, 100
2, 2275783, Note_off_c, 0, 50, 100
2, 2275997, Note_on_c, 0, 50, 100
2, 2276744, Note_off_c, 0, 50, 100
2, 2276744, Note_on_c, 0, 50, 100
2, 2277461, Note_off_c, 0, 50, 100
2, 2277464, Note_on_c, 0, 51, 100
2, 2277848, Note_off_c, 0, 51, 100
2, 2278151, Note_on_c, 0, 53, 100
2, 2278542, Note_off_c, 0, 53, 100
2, 2278804, Note_on_c, 0, 54, 100
2, 2279608, Note_on_c, 0, 56, 100
2, 2279858, Note_off_c, 0, 54, 100
2, 2280436, Note_on_c, 0, 58, 100
2, 2281173, Note_off_c, 0, 56, 100
2, 2281263, Note_on_c, 0, 60, 100
2, 2282072, Note_on_c, 0, 61, 100
2, 2282155, Note_off_c, 0, 58, 100
2, 2282674, Note_off_c, 0, 60, 100
2, 2282763, Note_off_c, 0, 61, 100
2, 2282844, Note_on_c, 0, 63, 100
2, 2283284, Note_off_c, 0, 63, 100
2, 2283569, Note_on_c, 0, 63, 100
2, 2284239, Note_on_c, 0, 64, 100
2, 2284856, Note_off_c, 0, 64, 100
2, 2284856, Note_on_c, 0, 64, 100
2, 2284895, Note_off_c, 0, 63, 100
2, 2285427, Note_on_c, 0, 63, 100
2, 2286030, Note_on_c, 0, 61, 100
2, 2286797, Note_off_c, 0, 61, 100
2, 2286825, Note_off_c, 0, 64, 100
2, 2286937, Note_on_c, 0, 59, 100
2, 2286972, Note_off_c, 0, 63, 100
2, 2287246, Note_off_c, 0, 59, 100
2, 2287831, Note_on_c, 0, 57, 100
2, 2288689, Note_on_c, 0, 54, 100
2, 2288864, Note_off_c, 0, 57, 100
2, 2289494, Note_on_c, 0, 51, 100
2, 2290094, Note_off_c, 0, 54, 100
2, 2290234, Note_on_c, 0, 49, 100
2, 2290859, Note_off_c, 0, 51, 100
2, 2290906, Note_on_c, 0, 46, 100
2, 2291233, Note_off_c, 0, 49, 100
2, 2291396, Note_off_c, 0, 46, 100
2, 2291515, Note_on_c, 0, 44, 100
2, 2291661, Note_off_c, 0, 44, 100
2, 2292074, Note_on_c, 0, 41, 100
2, 2292453, Note_off_c, 0, 41, 100
2, 2292602, Note_on_c, 0, 40, 100
2, 2292964, Note_off_c, 0, 40, 100
2, 2293276, Note_on_c, 0, 39, 100
2, 2293452, Note_off_c, 0, 39, 100
2, 2294180, Note_on_c, 0, 39, 100
2, 2294393, Note_off_c, 0, 39, 100
2, 2295047, Note_on_c, 0, 39, 100
2, 2295313, Note_off_c, 0, 39, 100
2, 2295862, Note_on_c, 0, 40, 100
2, 2295965, Note_off_c, 0, 40, 100
2, 2296617, Note_on_c, 0, 42, 100
2, 2297102, Note_off_c, 0, 42, 100
2, 2297312, Note_on_c, 0, 44, 100
2, 2297955, Note_on_c, 0, 47, 100
2, 2298244, Note_off_c, 0, 44, 100
2, 2298559, Note_on_c, 0, 50, 100
2, 2299144, Note_on_c, 0, 52, 100
2, 2299201, Note_off_c, 0, 47, 100
2, 2299728, Note_on_c, 0, 55, 100
2, 2299812, Note_off_c, 0, 50, 100
2, 2299892, Note_off_c, 0, 55, 100
2, 2300016, Note_off_c, 0, 52, 100
2, 2300469, Note_on_c, 0, 58, 100
2, 2301276, Note_on_c, 0, 60, 100
2, 2301341, Note_off_c, 0, 58, 100
2, 2302045, Note_on_c, 0, 62, 100
2, 2302774, Note_on_c, 0, 64, 100
2, 2302871, Note_off_c, 0, 60, 100
2, 2303470, Note_off_c, 0, 64, 100
2, 2303470, Note_on_c, 0, 64, 100
2, 2303999, Note_off_c, 0, 62, 100
2, 2304143, Note_on_c, 0, 65, 100
2, 2304428, Note_off_c, 0, 65, 100
2, 2304671, Note_off_c, 0, 64, 100
2, 2304807, Note_on_c, 0, 64, 100
2, 2305476, Note_on_c, 0, 63, 100
2, 2305658, Note_off_c, 0, 64, 100
2, 2306164, Note_on_c, 0, 62, 100
2, 2306881, Note_on_c, 0, 60, 100
2, 2307027, Note_off_c, 0, 63, 100
2, 2307621, Note_on_c, 0, 58, 100
2, 2307981, Note_off_c, 0, 62, 100
2, 2308389, Note_on_c, 0, 56, 100
2, 2308487, Note_off_c, 0, 60, 100
2, 2308651, Note_off_c, 0, 58, 100
2, 2308696, Note_off_c, 0, 56, 100
2, 2309173, Note_on_c, 0, 54, 100
2, 2309687, Note_off_c, 0, 54, 100
2, 2309960, Note_on_c, 0, 52, 100
2, 2310734, Note_on_c, 0, 51, 100
2, 2310834, Note_off_c, 0, 52, 100
2, 2311482, Note_on_c, 0, 50, 100
2, 2311640, Note_off_c, 0, 51, 100
2, 2312166, Note_off_c, 0, 50, 100
2, 2312192, Note_on_c, 0, 50, 100
2, 2312560, Note_off_c, 0, 50, 100
2, 2312858, Note_on_c, 0, 49, 100
2, 2312995, Note_off_c, 0, 49, 100
2, 2313482, Note_on_c, 0, 49, 100
2, 2313585, Note_off_c, 0, 49, 100
2, 2314088, Note_on_c, 0, 50, 100
2, 2314360, Note_off_c, 0, 50, 100
2, 2314958, Note_on_c, 0, 50, 100
2, 2315499, Note_off_c, 0, 50, 100
2, 2315830, Note_on_c, 0, 50, 100
2, 2316569, Note_off_c, 0, 50, 100
2, 2316682, Note_on_c, 0, 51, 100
2, 2317391, Note_off_c, 0, 51, 100
2, 2317496, Note_on_c, 0, 51, 100
2, 2317873, Note_off_c, 0, 51, 100
2, 2318256, Note_on_c, 0, 52, 100
2, 2318650, Note_off_c, 0, 52, 100
2, 2318953, Note_on_c, 0, 53, 100
2, 2319587, Note_off_c, 0, 53, 100
2, 2319587, Note_on_c, 0, 53, 100
2, 2320166, Note_off_c, 0, 53, 100
2, 2320166, Note_on_c, 0, 53, 100
2, 2320704, Note_on_c, 0, 52, 100
2, 2321337, Note_off_c, 0, 52, 100
2, 2321337, Note_on_c, 0, 52, 100
2, 2321879, Note_off_c, 0, 53, 100
2, 2322107, Note_off_c, 0, 52, 100
2, 2322256, Note_on_c, 0, 51, 100
2, 2322704, Note_off_c, 0, 51, 100
2, 2323147, Note_on_c, 0, 50, 100
2, 2323992, Note_on_c, 0, 49, 100
2, 2324479, Note_off_c, 0, 50, 100
2, 2324776, Note_on_c, 0, 48, 100
2, 2325492, Note_on_c, 0, 47, 100
2, 2325887, Note_off_c, 0, 49, 100
2, 2326144, Note_on_c, 0, 46, 100
2, 2326741, Note_off_c, 0, 46, 100
2, 2326741, Note_on_c, 0, 46, 100
2, 2326745, Note_off_c, 0, 48, 100
2, 2327034, Note_off_c, 0, 47, 100
2, 2327058, Note_off_c, 0, 46, 100
2, 2327302, Note_on_c, 0, 46, 100
2, 2327846, Note_on_c, 0, 47, 100
2, 2328344, Note_off_c, 0, 46, 100
2, 2328564, Note_on_c, 0, 48, 100
2, 2329259, Note_off_c, 0, 47, 100
2, 2329428, Note_on_c, 0, 49, 100
2, 2329935, Note_off_c, 0, 48, 100
2, 2330252, Note_on_c, 0, 50, 100
2, 2330430, Note_off_c, 0, 49, 100
2, 2330741, Note_off_c, 0, 50, 100
2, 2331027, Note_on_c, 0, 52, 100
2, 2331177, Note_off_c, 0, 52, 100
2, 2331750, Note_on_c, 0, 55, 100
2, 2332135, Note_off_c, 0, 55, 100
2, 2332429, Note_on_c, 0, 57, 100
2, 2332799, Note_off_c, 0, 57, 100
2, 2333075, Note_on_c, 0, 60, 100
2, 2333260, Note_off_c, 0, 60, 100
2, 2333704, Note_on_c, 0, 62, 100
2, 2333909, Note_off_c, 0, 62, 100
2, 2334333, Note_on_c, 0, 64, 100
2, 2334594, Note_off_c, 0, 64, 100
2, 2334976, Note_on_c, 0, 65, 100
2, 2335082, Note_off_c, 0, 65, 100
2, 2335714, Note_on_c, 0, 66, 100
2, 2336198, Note_off_c, 0, 66, 100
2, 2336454, Note_on_c, 0, 66, 100
2, 2337165, Note_off_c, 0, 66, 100
2, 2337165, Note_on_c, 0, 66, 100
2, 2337852, Note_on_c, 0, 65, 100
2, 2338405, Note_off_c, 0, 66, 100
2, 2338592, Note_on_c, 0, 63, 100
2, 2339097, Note_off_c, 0, 65, 100
2, 2339355, Note_on_c, 0, 61, 100
2, 2339456, Note_off_c, 0, 63, 100
2, 2339512, Note_off_c, 0, 61, 100
2, 2340102, Note_on_c, 0, 58, 100
2, 2340822, Note_on_c, 0, 55, 100
2, 2340979, Note_off_c, 0, 58, 100
2, 2341509, Note_on_c, 0, 52, 100
2, 2342163, Note_on_c, 0, 50, 100
2, 2342419, Note_off_c, 0, 55, 100
2, 2342968, Note_on_c, 0, 47, 100
2, 2343462, Note_off_c, 0, 52, 100
2, 2343796, Note_on_c, 0, 44, 100
2, 2343974, Note_off_c, 0, 50, 100
2, 2344073, Note_off_c, 0, 44, 100
2, 2344162, Note_off_c, 0, 47, 100
2, 2344622, Note_on_c, 0, 42, 100
2, 2345430, Note_on_c, 0, 40, 100
2, 2345482, Note_off_c, 0, 42, 100
2, 2346202, Note_on_c, 0, 39, 100
2, 2346927, Note_off_c, 0, 39, 100
2, 2346927, Note_on_c, 0, 39, 100
2, 2346988, Note_off_c, 0, 40, 100
2, 2347597, Note_on_c, 0, 40, 100
2, 2348213, Note_on_c, 0, 41, 100
2, 2348515, Note_off_c, 0, 41, 100
2, 2348534, Note_off_c, 0, 39, 100
2, 2348625, Note_off_c, 0, 40, 100
2, 2348785, Note_on_c, 0, 42, 100
2, 2349307, Note_off_c, 0, 42, 100
2, 2349392, Note_on_c, 0, 44, 100
2, 2350274, Note_off_c, 0, 44, 100
2, 2350299, Note_on_c, 0, 47, 100
2, 2351192, Note_on_c, 0, 50, 100
2, 2351213, Note_off_c, 0, 47, 100
2, 2351882, Note_off_c, 0, 50, 100
2, 2352050, Note_on_c, 0, 51, 100
2, 2352423, Note_off_c, 0, 51, 100
2, 2352854, Note_on_c, 0, 54, 100
2, 2352991, Note_off_c, 0, 54, 100
2, 2353594, Note_on_c, 0, 56, 100
2, 2353694, Note_off_c, 0, 56, 100
2, 2354265, Note_on_c, 0, 58, 100
2, 2354532, Note_off_c, 0, 58, 100
2, 2354873, Note_on_c, 0, 60, 100
2, 2355406, Note_off_c, 0, 60, 100
2, 2355432, Note_on_c, 0, 60, 100
2, 2355960, Note_on_c, 0, 61, 100
2, 2356162, Note_off_c, 0, 60, 100
2, 2356639, Note_off_c, 0, 61, 100
2, 2356639, Note_on_c, 0, 61, 100
2, 2357010, Note_off_c, 0, 61, 100
2, 2357543, Note_on_c, 0, 60, 100
2, 2357941, Note_off_c, 0, 60, 100
2, 2358409, Note_on_c, 0, 60, 100
2, 2359224, Note_on_c, 0, 59, 100
2, 2359464, Note_off_c, 0, 60, 100
2, 2359979, Note_on_c, 0, 57, 100
2, 2360673, Note_on_c, 0, 56, 100
2, 2360784, Note_off_c, 0, 59, 100
2, 2361315, Note_on_c, 0, 55, 100
2, 2361686, Note_off_c, 0, 57, 100
2, 2361919, Note_on_c, 0, 54, 100
2, 2361989, Note_off_c, 0, 55, 100
2, 2362069, Note_off_c, 0, 56, 100
2, 2362375, Note_off_c, 0, 54, 100
2, 2362503, Note_on_c, 0, 53, 100
2, 2363087, Note_on_c, 0, 52, 100
2, 2363831, Note_off_c, 0, 52, 100
2, 2363831, Note_on_c, 0, 52, 100
2, 2363841, Note_off_c, 0, 53, 100
2, 2364639, Note_off_c, 0, 52, 100
2, 2364639, Note_on_c, 0, 52, 100
2, 2365408, Note_off_c, 0, 52, 100
2, 2365408, Note_on_c, 0, 52, 100
2, 2366137, Note_on_c, 0, 53, 100
2, 2366178, Note_off_c, 0, 52, 100
2, 2366462, Note_off_c, 0, 53, 100
2, 2366833, Note_on_c, 0, 53, 100
2, 2367505, Note_on_c, 0, 54, 100
2, 2367883, Note_off_c, 0, 53, 100
2, 2368169, Note_on_c, 0, 55, 100
2, 2368838, Note_off_c, 0, 55, 100
2, 2368838, Note_on_c, 0, 55, 100
2, 2368925, Note_off_c, 0, 54, 100
2, 2369525, Note_on_c, 0, 56, 100
2, 2369843, Note_off_c, 0, 55, 100
2, 2370014, Note_off_c, 0, 56, 100
2, 2370241, Note_on_c, 0, 56, 100
2, 2370395, Note_off_c, 0, 56, 100
2, 2370980, Note_on_c, 0, 55, 100
2, 2371371, Note_off_c, 0, 55, 100
2, 2371748, Note_on_c, 0, 55, 100
2, 2372126, Note_off_c, 0, 55, 100
2, 2372531, Note_on_c, 0, 54, 100
2, 2372724, Note_off_c, 0, 54, 100
2, 2373318, Note_on_c, 0, 52, 100
2, 2373516, Note_off_c, 0, 52, 100
2, 2374092, Note_on_c, 0, 51, 100
2, 2374347, Note_off_c, 0, 51, 100
2, 2374839, Note_on_c, 0, 50, 100
2, 2374947, Note_off_c, 0, 50, 100
2, 2375549, Note_on_c, 0, 48, 100
2, 2376032, Note_off_c, 0, 48, 100
2, 2376215, Note_on_c, 0, 46, 100
2, 2376839, Note_on_c, 0, 45, 100
2, 2377138, Note_off_c, 0, 46, 100
2, 2377450, Note_on_c, 0, 43, 100
2, 2378072, Note_off_c, 0, 45, 100
2, 2378320, Note_off_c, 0, 43, 100
2, 2378320, Note_on_c, 0, 43, 100
2, 2379175, Note_off_c, 0, 43, 100
2, 2379190, Note_on_c, 0, 42, 100
2, 2379340, Note_off_c, 0, 42, 100
2, 2380042, Note_on_c, 0, 43, 100
2, 2380855, Note_off_c, 0, 43, 100
2, 2380855, Note_on_c, 0, 43, 100
2, 2381614, Note_on_c, 0, 45, 100
2, 2382311, Note_on_c, 0, 47, 100
2, 2382454, Note_off_c, 0, 43, 100
2, 2382945, Note_on_c, 0, 49, 100
2, 2383523, Note_on_c, 0, 51, 100
2, 2383565, Note_off_c, 0, 45, 100
2, 2383792, Note_off_c, 0, 51, 100
2, 2384061, Note_on_c, 0, 54, 100
2, 2384117, Note_off_c, 0, 47, 100
2, 2384132, Note_off_c, 0, 49, 100
2, 2384700, Note_on_c, 0, 57, 100
2, 2384929, Note_off_c, 0, 54, 100
2, 2385618, Note_on_c, 0, 60, 100
2, 2386265, Note_off_c, 0, 57, 100
2, 2386510, Note_on_c, 0, 62, 100
2, 2387354, Note_on_c, 0, 65, 100
2, 2387444, Note_off_c, 0, 60, 100
2, 2388119, Note_off_c, 0, 62, 100
2, 2388137, Note_on_c, 0, 66, 100
2, 2388380, Note_off_c, 0, 65, 100
2, 2388434, Note_off_c, 0, 66, 100
2, 2388852, Note_on_c, 0, 67, 100
2, 2389381, Note_off_c, 0, 67, 100
2, 2389503, Note_on_c, 0, 67, 100
2, 2390100, Note_off_c, 0, 67, 100
2, 2390100, Note_on_c, 0, 67, 100
2, 2390660, Note_on_c, 0, 66, 100
2, 2391022, Note_off_c, 0, 67, 100
2, 2391203, Note_on_c, 0, 64, 100
2, 2391357, Note_off_c, 0, 66, 100
2, 2391580, Note_off_c, 0, 64, 100
2, 2391926, Note_on_c, 0, 62, 100
2, 2392064, Note_off_c, 0, 62, 100
2, 2392791, Note_on_c, 0, 59, 100
2, 2392889, Note_off_c, 0, 59, 100
2, 2393615, Note_on_c, 0, 56, 100
2, 2393877, Note_off_c, 0, 56, 100
2, 2394389, Note_on_c, 0, 53, 100
2, 2394915, Note_off_c, 0, 53, 100
2, 2395113, Note_on_c, 0, 50, 100
2, 2395791, Note_on_c, 0, 48, 100
2, 2395835, Note_off_c, 0, 50, 100
2, 2396437, Note_on_c, 0, 46, 100
2, 2396483, Note_off_c, 0, 48, 100
2, 2396801, Note_off_c, 0, 46, 100
2, 2397065, Note_on_c, 0, 44, 100
2, 2397467, Note_off_c, 0, 44, 100
2, 2397693, Note_on_c, 0, 42, 100
2, 2398336, Note_off_c, 0, 42, 100
2, 2398336, Note_on_c, 0, 42, 100
2, 2399075, Note_on_c, 0, 41, 100
2, 2399816, Note_off_c, 0, 42, 100
2, 2399816, Note_on_c, 0, 42, 100
2, 2400527, Note_on_c, 0, 43, 100
2, 2400776, Note_off_c, 0, 41, 100
2, 2401193, Note_off_c, 0, 43, 100
2, 2401204, Note_off_c, 0, 42, 100
2, 2401214, Note_on_c, 0, 44, 100
2, 2401678, Note_off_c, 0, 44, 100
2, 2401949, Note_on_c, 0, 46, 100
2, 2402712, Note_on_c, 0, 48, 100
2, 2403293, Note_off_c, 0, 46, 100
2, 2403459, Note_on_c, 0, 50, 100
2, 2404180, Note_on_c, 0, 51, 100
2, 2404613, Note_off_c, 0, 48, 100
2, 2404867, Note_on_c, 0, 53, 100
2, 2405427, Note_off_c, 0, 50, 100
2, 2405522, Note_on_c, 0, 54, 100
2, 2405615, Note_off_c, 0, 53, 100
2, 2405715, Note_off_c, 0, 51, 100
2, 2405855, Note_off_c, 0, 54, 100
2, 2406329, Note_on_c, 0, 56, 100
2, 2407156, Note_off_c, 0, 56, 100
2, 2407156, Note_on_c, 0, 56, 100
2, 2407982, Note_on_c, 0, 57, 100
2, 2408584, Note_off_c, 0, 56, 100
2, 2408789, Note_off_c, 0, 57, 100
2, 2408789, Note_on_c, 0, 57, 100
2, 2409560, Note_off_c, 0, 57, 100
2, 2409560, Note_on_c, 0, 57, 100
2, 2410048, Note_off_c, 0, 57, 100
2, 2410284, Note_on_c, 0, 56, 100
2, 2410442, Note_off_c, 0, 56, 100
2, 2410954, Note_on_c, 0, 55, 100
2, 2411352, Note_off_c, 0, 55, 100
2, 2411570, Note_on_c, 0, 54, 100
2, 2411956, Note_off_c, 0, 54, 100
2, 2412142, Note_on_c, 0, 54, 100
2, 2412344, Note_off_c, 0, 54, 100
2, 2412755, Note_on_c, 0, 53, 100
2, 2412946, Note_off_c, 0, 53, 100
2, 2413661, Note_on_c, 0, 52, 100
2, 2413911, Note_off_c, 0, 52, 100
2, 2414554, Note_on_c, 0, 52, 100
2, 2414664, Note_off_c, 0, 52, 100
2, 2415411, Note_on_c, 0, 52, 100
2, 2415893, Note_off_c, 0, 52, 100
2, 2416215, Note_on_c, 0, 53, 100
2, 2416953, Note_off_c, 0, 53, 100
2, 2416953, Note_on_c, 0, 53, 100
2, 2417624, Note_on_c, 0, 54, 100
2, 2418179, Note_off_c, 0, 53, 100
2, 2418232, Note_on_c, 0, 55, 100
2, 2418789, Note_on_c, 0, 57, 100
2, 2418852, Note_off_c, 0, 54, 100
2, 2418931, Note_off_c, 0, 57, 100
2, 2419079, Note_off_c, 0, 55, 100
2, 2419317, Note_on_c, 0, 58, 100
2, 2420002, Note_on_c, 0, 59, 100
2, 2420204, Note_off_c, 0, 58, 100
2, 2420905, Note_off_c, 0, 59, 100
2, 2420905, Note_on_c, 0, 59, 100
2, 2421772, Note_on_c, 0, 60, 100
2, 2422586, Note_off_c, 0, 60, 100
2, 2422586, Note_on_c, 0, 60, 100
2, 2422855, Note_off_c, 0, 59, 100
2, 2423341, Note_on_c, 0, 59, 100
2, 2423601, Note_off_c, 0, 59, 100
2, 2423766, Note_off_c, 0, 60, 100
2, 2424034, Note_on_c, 0, 58, 100
2, 2424676, Note_on_c, 0, 57, 100
2, 2424910, Note_off_c, 0, 58, 100
2, 2425279, Note_on_c, 0, 55, 100
2, 2425862, Note_on_c, 0, 53, 100
2, 2426248, Note_off_c, 0, 57, 100
2, 2426446, Note_on_c, 0, 50, 100
2, 2427109, Note_off_c, 0, 55, 100
2, 2427193, Note_on_c, 0, 49, 100
2, 2427470, Note_off_c, 0, 50, 100
2, 2427472, Note_off_c, 0, 53, 100
2, 2427485, Note_off_c, 0, 49, 100
2, 2428001, Note_on_c, 0, 46, 100
2, 2428537, Note_off_c, 0, 46, 100
2, 2428771, Note_on_c, 0, 44, 100
2, 2429500, Note_on_c, 0, 42, 100
2, 2429670, Note_off_c, 0, 44, 100
2, 2430196, Note_on_c, 0, 41, 100
2, 2430431, Note_off_c, 0, 42, 100
2, 2430868, Note_on_c, 0, 40, 100
2, 2430900, Note_off_c, 0, 41, 100
2, 2431249, Note_off_c, 0, 40, 100
2, 2431531, Note_on_c, 0, 40, 100
2, 2431670, Note_off_c, 0, 40, 100
2, 2432199, Note_on_c, 0, 40, 100
2, 2432295, Note_off_c, 0, 40, 100
2, 2432886, Note_on_c, 0, 41, 100
2, 2433142, Note_off_c, 0, 41, 100
2, 2433601, Note_on_c, 0, 43, 100
2, 2434119, Note_off_c, 0, 43, 100
2, 2434340, Note_on_c, 0, 45, 100
2, 2435053, Note_off_c, 0, 45, 100
2, 2435107, Note_on_c, 0, 48, 100
2, 2435791, Note_off_c, 0, 48, 100
2, 2435890, Note_on_c, 0, 50, 100
2, 2436248, Note_off_c, 0, 50, 100
2, 2436676, Note_on_c, 0, 53, 100
2, 2437081, Note_off_c, 0, 53, 100
2, 2437449, Note_on_c, 0, 56, 100
2, 2438197, Note_on_c, 0, 59, 100
2, 2438504, Note_off_c, 0, 56, 100
2, 2438906, Note_on_c, 0, 62, 100
2, 2439573, Note_on_c, 0, 64, 100
2, 2439751, Note_off_c, 0, 59, 100
2, 2440197, Note_on_c, 0, 66, 100
2, 2440601, Note_off_c, 0, 62, 100
2, 2440812, Note_on_c, 0, 67, 100
2, 2440854, Note_off_c, 0, 66, 100
2, 2440953, Note_off_c, 0, 64, 100
2, 2441284, Note_off_c, 0, 67, 100
2, 2441681, Note_on_c, 0, 67, 100
2, 2442551, Note_on_c, 0, 66, 100
2, 2443031, Note_off_c, 0, 67, 100
2, 2443402, Note_on_c, 0, 65, 100
2, 2444214, Note_on_c, 0, 64, 100
2, 2444455, Note_off_c, 0, 66, 100
2, 2444973, Note_on_c, 0, 61, 100
2, 2445370, Note_off_c, 0, 65, 100
2, 2445669, Note_on_c, 0, 59, 100
2, 2445715, Note_off_c, 0, 61, 100
2, 2445746, Note_off_c, 0, 64, 100
2, 2446010, Note_off_c, 0, 59, 100
2, 2446303, Note_on_c, 0, 56, 100
2, 2446881, Note_on_c, 0, 54, 100
2, 2447370, Note_off_c, 0, 56, 100
2, 2447418, Note_on_c, 0, 51, 100
2, 2448063, Note_on_c, 0, 50, 100
2, 2448317, Note_off_c, 0, 54, 100
2, 2448806, Note_off_c, 0, 51, 100
2, 2448981, Note_on_c, 0, 48, 100
2, 2449073, Note_off_c, 0, 50, 100
2, 2449468, Note_off_c, 0, 48, 100
2, 2449872, Note_on_c, 0, 46, 100
2, 2450034, Note_off_c, 0, 46, 100
2, 2450715, Note_on_c, 0, 45, 100
2, 2451120, Note_off_c, 0, 45, 100
2, 2451498, Note_on_c, 0, 45, 100
2, 2451892, Note_off_c, 0, 45, 100
2, 2452213, Note_on_c, 0, 45, 100
2, 2452423, Note_off_c, 0, 45, 100
2, 2452863, Note_on_c, 0, 45, 100
2, 2453046, Note_off_c, 0, 45, 100
2, 2453459, Note_on_c, 0, 46, 100
2, 2453704, Note_off_c, 0, 46, 100
2, 2454018, Note_on_c, 0, 47, 100
2, 2454130, Note_off_c, 0, 47, 100
2, 2454561, Note_on_c, 0, 49, 100
2, 2455042, Note_off_c, 0, 49, 100
2, 2455289, Note_on_c, 0, 50, 100
2, 2456154, Note_off_c, 0, 50, 100
2, 2456154, Note_on_c, 0, 50, 100
2, 2456978, Note_on_c, 0, 52, 100
2, 2457373, Note_off_c, 0, 50, 100
2, 2457752, Note_off_c, 0, 52, 100
2, 2457752, Note_on_c, 0, 52, 100
2, 2458475, Note_on_c, 0, 53, 100
2, 2458591, Note_off_c, 0, 52, 100
2, 2458610, Note_off_c, 0, 53, 100
2, 2459153, Note_on_c, 0, 53, 100
2, 2459798, Note_off_c, 0, 53, 100
2, 2459798, Note_on_c, 0, 53, 100
2, 2460426, Note_off_c, 0, 53, 100
2, 2460426, Note_on_c, 0, 53, 100
2, 2461053, Note_on_c, 0, 52, 100
2, 2461695, Note_off_c, 0, 52, 100
2, 2461695, Note_on_c, 0, 52, 100
2, 2462374, Note_off_c, 0, 53, 100
2, 2462437, Note_on_c, 0, 51, 100
2, 2462689, Note_off_c, 0, 51, 100
2, 2462868, Note_off_c, 0, 52, 100
2, 2463178, Note_on_c, 0, 50, 100
2, 2463889, Note_off_c, 0, 50, 100
2, 2463889, Note_on_c, 0, 50, 100
2, 2464577, Note_off_c, 0, 50, 100
2, 2464577, Note_on_c, 0, 50, 100
2, 2465306, Note_off_c, 0, 50, 100
2, 2465306, Note_on_c, 0, 50, 100
2, 2466069, Note_off_c, 0, 50, 100
2, 2466069, Note_on_c, 0, 50, 100
2, 2466816, Note_off_c, 0, 50, 100
2, 2466816, Note_on_c, 0, 50, 100
2, 2467102, Note_off_c, 0, 50, 100
2, 2467537, Note_on_c, 0, 51, 100
2, 2468081, Note_off_c, 0, 51, 100
2, 2468226, Note_on_c, 0, 53, 100
2, 2468881, Note_on_c, 0, 54, 100
2, 2469134, Note_off_c, 0, 53, 100
2, 2469689, Note_on_c, 0, 56, 100
2, 2469820, Note_off_c, 0, 54, 100
2, 2470399, Note_off_c, 0, 56, 100
2, 2470516, Note_on_c, 0, 58, 100
2, 2470901, Note_off_c, 0, 58, 100
2, 2471341, Note_on_c, 0, 60, 100
2, 2471481, Note_off_c, 0, 60, 100
2, 2472147, Note_on_c, 0, 61, 100
2, 2472245, Note_off_c, 0, 61, 100
2, 2472918, Note_on_c, 0, 63, 100
2, 2473168, Note_off_c, 0, 63, 100
2, 2473642, Note_on_c, 0, 63, 100
2, 2474152, Note_off_c, 0, 63, 100
2, 2474311, Note_on_c, 0, 64, 100
2, 2474927, Note_on_c, 0, 63, 100
2, 2475016, Note_off_c, 0, 64, 100
2, 2475499, Note_off_c, 0, 63, 100
2, 2475499, Note_on_c, 0, 63, 100
2, 2475851, Note_off_c, 0, 63, 100
2, 2476117, Note_on_c, 0, 61, 100
2, 2476526, Note_off_c, 0, 61, 100
2, 2477023, Note_on_c, 0, 59, 100
2, 2477915, Note_on_c, 0, 57, 100
2, 2478078, Note_off_c, 0, 59, 100
2, 2478772, Note_on_c, 0, 54, 100
2, 2479465, Note_off_c, 0, 57, 100
2, 2479575, Note_on_c, 0, 51, 100
2, 2480313, Note_on_c, 0, 49, 100
2, 2480461, Note_off_c, 0, 54, 100
2, 2480947, Note_off_c, 0, 51, 100
2, 2480962, Note_off_c, 0, 49, 100
2, 2480983, Note_on_c, 0, 46, 100
2, 2481463, Note_off_c, 0, 46, 100
2, 2481590, Note_on_c, 0, 43, 100
2, 2482147, Note_on_c, 0, 41, 100
2, 2482674, Note_on_c, 0, 40, 100
2, 2482946, Note_off_c, 0, 43, 100
2, 2483365, Note_on_c, 0, 39, 100
2, 2484054, Note_off_c, 0, 41, 100
2, 2484268, Note_off_c, 0, 39, 100
2, 2484268, Note_on_c, 0, 39, 100
2, 2484642, Note_off_c, 0, 40, 100
2, 2485004, Note_off_c, 0, 39, 100
2, 2485135, Note_on_c, 0, 39, 100
2, 2485484, Note_off_c, 0, 39, 100
2, 2485949, Note_on_c, 0, 40, 100
2, 2486702, Note_on_c, 0, 42, 100
2, 2487025, Note_off_c, 0, 40, 100
2, 2487396, Note_on_c, 0, 44, 100
2, 2488036, Note_on_c, 0, 47, 100
2, 2488145, Note_off_c, 0, 42, 100
2, 2488639, Note_on_c, 0, 50, 100
2, 2488790, Note_off_c, 0, 44, 100
2, 2489048, Note_off_c, 0, 47, 100
2, 2489126, Note_off_c, 0, 50, 100
2, 2489222, Note_on_c, 0, 52, 100
2, 2489388, Note_off_c, 0, 52, 100
2, 2489804, Note_on_c, 0, 55, 100
2, 2490215, Note_off_c, 0, 55, 100
2, 2490555, Note_on_c, 0, 58, 100
2, 2490957, Note_off_c, 0, 58, 100
2, 2491364, Note_on_c, 0, 60, 100
2, 2491582, Note_off_c, 0, 60, 100
2, 2492133, Note_on_c, 0, 62, 100
2, 2492309, Note_off_c, 0, 62, 100
2, 2492863, Note_on_c, 0, 64, 100
2, 2493103, Note_off_c, 0, 64, 100
2, 2493558, Note_on_c, 0, 64, 100
2, 2493672, Note_off_c, 0, 64, 100
2, 2494230, Note_on_c, 0, 65, 100
2, 2494709, Note_off_c, 0, 65, 100
2, 2494893, Note_on_c, 0, 64, 100
2, 2495561, Note_on_c, 0, 63, 100
2, 2495803, Note_off_c, 0, 64, 100
2, 2496247, Note_on_c, 0, 62, 100
2, 2496773, Note_off_c, 0, 63, 100
2, 2496961, Note_on_c, 0, 60, 100
2, 2497459, Note_off_c, 0, 62, 100
2, 2497699, Note_on_c, 0, 58, 100
2, 2497791, Note_off_c, 0, 60, 100
2, 2497827, Note_off_c, 0, 58, 100
2, 2498465, Note_on_c, 0, 56, 100
2, 2499248, Note_on_c, 0, 54, 100
2, 2499361, Note_off_c, 0, 56, 100
2, 2500033, Note_on_c, 0, 52, 100
2, 2500807, Note_on_c, 0, 51, 100
2, 2500852, Note_off_c, 0, 54, 100
2, 2501554, Note_on_c, 0, 50, 100
2, 2501979, Note_off_c, 0, 52, 100
2, 2502263, Note_off_c, 0, 50, 100
2, 2502263, Note_on_c, 0, 50, 100
2, 2502599, Note_off_c, 0, 51, 100
2, 2502719, Note_off_c, 0, 50, 100
2, 2502930, Note_on_c, 0, 49, 100
2, 2503555, Note_off_c, 0, 49, 100
2, 2503555, Note_on_c, 0, 49, 100
2, 2504174, Note_off_c, 0, 49, 100
2, 2504174, Note_on_c, 0, 49, 100
2, 2505042, Note_on_c, 0, 50, 100
2, 2505912, Note_off_c, 0, 50, 100
2, 2505912, Note_on_c, 0, 50, 100
2, 2506013, Note_off_c, 0, 49, 100
2, 2506762, Note_on_c, 0, 51, 100
2, 2506932, Note_off_c, 0, 50, 100
2, 2507043, Note_off_c, 0, 51, 100
2, 2507573, Note_on_c, 0, 51, 100
2, 2508124, Note_off_c, 0, 51, 100
2, 2508331, Note_on_c, 0, 52, 100
2, 2509027, Note_on_c, 0, 53, 100
2, 2509247, Note_off_c, 0, 52, 100
2, 2509660, Note_off_c, 0, 53, 100
2, 2509660, Note_on_c, 0, 53, 100
2, 2510238, Note_off_c, 0, 53, 100
2, 2510238, Note_on_c, 0, 53, 100
2, 2510626, Note_off_c, 0, 53, 100
2, 2510775, Note_on_c, 0, 52, 100
2, 2510915, Note_off_c, 0, 52, 100
2, 2511426, Note_on_c, 0, 52, 100
2, 2511527, Note_off_c, 0, 52, 100
2, 2512343, Note_on_c, 0, 51, 100
2, 2512588, Note_off_c, 0, 51, 100
2, 2513234, Note_on_c, 0, 50, 100
2, 2513737, Note_off_c, 0, 50, 100
2, 2514077, Note_on_c, 0, 49, 100
2, 2514773, Note_off_c, 0, 49, 100
2, 2514859, Note_on_c, 0, 48, 100
2, 2515527, Note_off_c, 0, 48, 100
2, 2515573, Note_on_c, 0, 47, 100
2, 2515919, Note_off_c, 0, 47, 100
2, 2516223, Note_on_c, 0, 47, 100
2, 2516635, Note_off_c, 0, 47, 100
2, 2516818, Note_on_c, 0, 46, 100
2, 2517377, Note_off_c, 0, 46, 100
2, 2517377, Note_on_c, 0, 46, 100
2, 2517919, Note_on_c, 0, 47, 100
2, 2518651, Note_on_c, 0, 48, 100
2, 2518924, Note_off_c, 0, 46, 100
2, 2519517, Note_on_c, 0, 49, 100
2, 2519602, Note_off_c, 0, 47, 100
2, 2520015, Note_off_c, 0, 48, 100
2, 2520157, Note_off_c, 0, 49, 100
2, 2520341, Note_on_c, 0, 50, 100
2, 2520828, Note_off_c, 0, 50, 100
2, 2521115, Note_on_c, 0, 52, 100
2, 2521837, Note_on_c, 0, 55, 100
2, 2522477, Note_off_c, 0, 52, 100
2, 2522515, Note_on_c, 0, 57, 100
2, 2523160, Note_on_c, 0, 60, 100
2, 2523747, Note_off_c, 0, 55, 100
2, 2523787, Note_on_c, 0, 62, 100
2, 2524413, Note_on_c, 0, 64, 100
2, 2524482, Note_off_c, 0, 57, 100
2, 2524516, Note_off_c, 0, 62, 100
2, 2524684, Note_off_c, 0, 60, 100
2, 2524770, Note_off_c, 0, 64, 100
2, 2525054, Note_on_c, 0, 65, 100
2, 2525798, Note_on_c, 0, 66, 100
2, 2526138, Note_off_c, 0, 65, 100
2, 2526540, Note_off_c, 0, 66, 100
2, 2526540, Note_on_c, 0, 66, 100
2, 2527252, Note_off_c, 0, 66, 100
2, 2527252, Note_on_c, 0, 66, 100
2, 2527940, Note_on_c, 0, 65, 100
2, 2528267, Note_off_c, 0, 66, 100
2, 2528426, Note_off_c, 0, 65, 100
2, 2528664, Note_on_c, 0, 63, 100
2, 2528834, Note_off_c, 0, 63, 100
2, 2529426, Note_on_c, 0, 61, 100
2, 2529844, Note_off_c, 0, 61, 100
2, 2530174, Note_on_c, 0, 58, 100
2, 2530584, Note_off_c, 0, 58, 100
2, 2530895, Note_on_c, 0, 55, 100
2, 2531122, Note_off_c, 0, 55, 100
2, 2531584, Note_on_c, 0, 52, 100
2, 2531752, Note_off_c, 0, 52, 100
2, 2532240, Note_on_c, 0, 50, 100
2, 2532475, Note_off_c, 0, 50, 100
2, 2533050, Note_on_c, 0, 47, 100
2, 2533166, Note_off_c, 0, 47, 100
2, 2533875, Note_on_c, 0, 44, 100
2, 2534353, Note_off_c, 0, 44, 100
2, 2534700, Note_on_c, 0, 42, 100
2, 2535505, Note_on_c, 0, 40, 100
2, 2535606, Note_off_c, 0, 42, 100
2, 2536276, Note_on_c, 0, 39, 100
2, 2536710, Note_off_c, 0, 40, 100
2, 2536999, Note_off_c, 0, 39, 100
2, 2536999, Note_on_c, 0, 39, 100
2, 2537668, Note_on_c, 0, 40, 100
2, 2537789, Note_off_c, 0, 40, 100
2, 2537821, Note_off_c, 0, 39, 100
2, 2538284, Note_on_c, 0, 41, 100
2, 2538856, Note_on_c, 0, 42, 100
2, 2539185, Note_off_c, 0, 41, 100
2, 2539480, Note_on_c, 0, 45, 100
2, 2540385, Note_on_c, 0, 47, 100
2, 2540461, Note_off_c, 0, 42, 100
2, 2541277, Note_on_c, 0, 50, 100
2, 2541424, Note_off_c, 0, 45, 100
2, 2542133, Note_on_c, 0, 51, 100
2, 2542172, Note_off_c, 0, 47, 100
2, 2542368, Note_off_c, 0, 51, 100
2, 2542435, Note_off_c, 0, 50, 100
2, 2542935, Note_on_c, 0, 54, 100
2, 2543672, Note_on_c, 0, 56, 100
2, 2543836, Note_off_c, 0, 54, 100
2, 2544342, Note_on_c, 0, 58, 100
2, 2544948, Note_on_c, 0, 60, 100
2, 2545265, Note_off_c, 0, 56, 100
2, 2545505, Note_on_c, 0, 61, 100
2, 2546032, Note_off_c, 0, 61, 100
2, 2546032, Note_on_c, 0, 61, 100
2, 2546185, Note_off_c, 0, 58, 100
2, 2546522, Note_off_c, 0, 61, 100
2, 2546561, Note_off_c, 0, 60, 100
2, 2546727, Note_on_c, 0, 61, 100
2, 2547286, Note_off_c, 0, 61, 100
2, 2547631, Note_on_c, 0, 61, 100
2, 2548497, Note_on_c, 0, 60, 100
2, 2548556, Note_off_c, 0, 61, 100
2, 2549311, Note_on_c, 0, 59, 100
2, 2549452, Note_off_c, 0, 60, 100
2, 2550034, Note_off_c, 0, 59, 100
2, 2550064, Note_on_c, 0, 57, 100
2, 2550456, Note_off_c, 0, 57, 100
2, 2550757, Note_on_c, 0, 56, 100
2, 2550898, Note_off_c, 0, 56, 100
2, 2551397, Note_on_c, 0, 55, 100
2, 2551501, Note_off_c, 0, 55, 100
2, 2551999, Note_on_c, 0, 53, 100
2, 2552238, Note_off_c, 0, 53, 100
2, 2552581, Note_on_c, 0, 53, 100
2, 2553076, Note_off_c, 0, 53, 100
2, 2553162, Note_on_c, 0, 52, 100
2, 2553850, Note_off_c, 0, 52, 100
2, 2553917, Note_on_c, 0, 52, 100
2, 2554578, Note_off_c, 0, 52, 100
2, 2554726, Note_on_c, 0, 52, 100
2, 2555066, Note_off_c, 0, 52, 100
2, 2555496, Note_on_c, 0, 52, 100
2, 2555911, Note_off_c, 0, 52, 100
2, 2556226, Note_on_c, 0, 52, 100
2, 2556921, Note_on_c, 0, 53, 100
2, 2557281, Note_off_c, 0, 52, 100
2, 2557593, Note_on_c, 0, 54, 100
2, 2558255, Note_on_c, 0, 55, 100
2, 2558465, Note_off_c, 0, 53, 100
2, 2558923, Note_off_c, 0, 55, 100
2, 2558923, Note_on_c, 0, 55, 100
2, 2559270, Note_off_c, 0, 54, 100
2, 2559608, Note_on_c, 0, 56, 100
2, 2559611, Note_off_c, 0, 55, 100
2, 2560103, Note_off_c, 0, 56, 100
2, 2560320, Note_on_c, 0, 56, 100
2, 2561059, Note_on_c, 0, 55, 100
2, 2561688, Note_off_c, 0, 56, 100
2, 2561824, Note_off_c, 0, 55, 100
2, 2561824, Note_on_c, 0, 55, 100
2, 2562606, Note_on_c, 0, 54, 100
2, 2563391, Note_on_c, 0, 52, 100
2, 2563791, Note_off_c, 0, 55, 100
2, 2564114, Note_off_c, 0, 52, 100
2, 2564127, Note_off_c, 0, 54, 100
2, 2564164, Note_on_c, 0, 51, 100
2, 2564529, Note_off_c, 0, 51, 100
2, 2564911, Note_on_c, 0, 50, 100
2, 2565620, Note_on_c, 0, 48, 100
2, 2566004, Note_off_c, 0, 50, 100
2, 2566287, Note_on_c, 0, 46, 100
2, 2566912, Note_on_c, 0, 45, 100
2, 2567078, Note_off_c, 0, 48, 100
2, 2567535, Note_on_c, 0, 43, 100
2, 2567691, Note_off_c, 0, 46, 100
2, 2567929, Note_off_c, 0, 45, 100
2, 2568020, Note_off_c, 0, 43, 100
2, 2568403, Note_on_c, 0, 43, 100
2, 2568577, Note_off_c, 0, 43, 100
2, 2569272, Note_on_c, 0, 42, 100
2, 2569697, Note_off_c, 0, 42, 100
2, 2570122, Note_on_c, 0, 43, 100
2, 2570541, Note_off_c, 0, 43, 100
2, 2570933, Note_on_c, 0, 44, 100
2, 2571168, Note_off_c, 0, 44, 100
2, 2571690, Note_on_c, 0, 45, 100
2, 2571851, Note_off_c, 0, 45, 100
2, 2572385, Note_on_c, 0, 47, 100
2, 2572615, Note_off_c, 0, 47, 100
2, 2573018, Note_on_c, 0, 49, 100
2, 2573136, Note_off_c, 0, 49, 100
2, 2573595, Note_on_c, 0, 51, 100
2, 2574072, Note_off_c, 0, 51, 100
2, 2574133, Note_on_c, 0, 54, 100
2, 2574788, Note_on_c, 0, 57, 100
2, 2575034, Note_off_c, 0, 54, 100
2, 2575706, Note_on_c, 0, 60, 100
2, 2575986, Note_off_c, 0, 57, 100
2, 2576596, Note_on_c, 0, 63, 100
2, 2576901, Note_off_c, 0, 60, 100
2, 2577410, Note_off_c, 0, 63, 100
2, 2577439, Note_on_c, 0, 65, 100
2, 2577553, Note_off_c, 0, 65, 100
2, 2578220, Note_on_c, 0, 66, 100
2, 2578933, Note_on_c, 0, 67, 100
2, 2579126, Note_off_c, 0, 66, 100
2, 2579582, Note_off_c, 0, 67, 100
2, 2579582, Note_on_c, 0, 67, 100
2, 2580177, Note_off_c, 0, 67, 100
2, 2580177, Note_on_c, 0, 67, 100
2, 2580735, Note_on_c, 0, 66, 100
2, 2581277, Note_on_c, 0, 64, 100
2, 2581504, Note_off_c, 0, 64, 100
2, 2581886, Note_off_c, 0, 66, 100
2, 2581959, Note_off_c, 0, 67, 100
2, 2582014, Note_on_c, 0, 62, 100
2, 2582880, Note_on_c, 0, 59, 100
2, 2582923, Note_off_c, 0, 62, 100
2, 2583704, Note_on_c, 0, 56, 100
2, 2584477, Note_on_c, 0, 53, 100
2, 2584479, Note_off_c, 0, 59, 100
2, 2585200, Note_on_c, 0, 50, 100
2, 2585551, Note_off_c, 0, 56, 100
2, 2585877, Note_on_c, 0, 48, 100
2, 2586091, Note_off_c, 0, 53, 100
2, 2586147, Note_off_c, 0, 48, 100
2, 2586215, Note_off_c, 0, 50, 100
2, 2586521, Note_on_c, 0, 46, 100
2, 2587087, Note_off_c, 0, 46, 100
2, 2587147, Note_on_c, 0, 44, 100
2, 2587773, Note_on_c, 0, 42, 100
2, 2588080, Note_off_c, 0, 44, 100
2, 2588414, Note_on_c, 0, 41, 100
2, 2588736, Note_off_c, 0, 42, 100
2, 2589143, Note_off_c, 0, 41, 100
2, 2589159, Note_on_c, 0, 41, 100
2, 2589555, Note_off_c, 0, 41, 100
2, 2589902, Note_on_c, 0, 42, 100
2, 2590043, Note_off_c, 0, 42, 100
2, 2590614, Note_on_c, 0, 43, 100
2, 2590721, Note_off_c, 0, 43, 100
2, 2591302, Note_on_c, 0, 44, 100
2, 2591535, Note_off_c, 0, 44, 100
2, 2592021, Note_on_c, 0, 46, 100
2, 2592508, Note_off_c, 0, 46, 100
2, 2592784, Note_on_c, 0, 48, 100
2, 2593463, Note_off_c, 0, 48, 100
2, 2593531, Note_on_c, 0, 50, 100
2, 2594184, Note_off_c, 0, 50, 100
2, 2594253, Note_on_c, 0, 51, 100
2, 2594587, Note_off_c, 0, 51, 100
2, 2594942, Note_on_c, 0, 53, 100
2, 2595361, Note_off_c, 0, 53, 100
2, 2595600, Note_on_c, 0, 54, 100
2, 2596410, Note_on_c, 0, 56, 100
2, 2596655, Note_off_c, 0, 54, 100
2, 2597235, Note_off_c, 0, 56, 100
2, 2597235, Note_on_c, 0, 56, 100
2, 2598059, Note_on_c, 0, 57, 100
2, 2598864, Note_off_c, 0, 57, 100
2, 2598864, Note_on_c, 0, 57, 100
2, 2598906, Note_off_c, 0, 56, 100
2, 2599487, Note_off_c, 0, 57, 100
2, 2599634, Note_on_c, 0, 57, 100
2, 2600137, Note_off_c, 0, 57, 100
2, 2600357, Note_on_c, 0, 56, 100
2, 2601026, Note_on_c, 0, 55, 100
2, 2601642, Note_on_c, 0, 54, 100
2, 2601730, Note_off_c, 0, 56, 100
2, 2602214, Note_off_c, 0, 54, 100
2, 2602214, Note_on_c, 0, 54, 100
2, 2602842, Note_on_c, 0, 53, 100
2, 2602942, Note_off_c, 0, 55, 100
2, 2603558, Note_off_c, 0, 53, 100
2, 2603731, Note_off_c, 0, 54, 100
2, 2603747, Note_on_c, 0, 53, 100
2, 2604120, Note_off_c, 0, 53, 100
2, 2604638, Note_on_c, 0, 52, 100
2, 2605493, Note_off_c, 0, 52, 100
2, 2605493, Note_on_c, 0, 52, 100
2, 2606295, Note_on_c, 0, 53, 100
2, 2606959, Note_off_c, 0, 52, 100
2, 2607032, Note_off_c, 0, 53, 100
2, 2607032, Note_on_c, 0, 53, 100
2, 2607700, Note_on_c, 0, 54, 100
2, 2608052, Note_off_c, 0, 53, 100
2, 2608184, Note_off_c, 0, 54, 100
2, 2608306, Note_on_c, 0, 55, 100
2, 2608484, Note_off_c, 0, 55, 100
2, 2608863, Note_on_c, 0, 57, 100
2, 2609294, Note_off_c, 0, 57, 100
2, 2609389, Note_on_c, 0, 58, 100
2, 2609816, Note_off_c, 0, 58, 100
2, 2610090, Note_on_c, 0, 59, 100
2, 2610334, Note_off_c, 0, 59, 100
2, 2610994, Note_on_c, 0, 59, 100
2, 2611148, Note_off_c, 0, 59, 100
2, 2611860, Note_on_c, 0, 60, 100
2, 2612085, Note_off_c, 0, 60, 100
2, 2612673, Note_on_c, 0, 60, 100
2, 2612793, Note_off_c, 0, 60, 100
2, 2613426, Note_on_c, 0, 59, 100
2, 2613901, Note_off_c, 0, 59, 100
2, 2614118, Note_on_c, 0, 58, 100
2, 2614757, Note_on_c, 0, 57, 100
2, 2615014, Note_off_c, 0, 58, 100
2, 2615358, Note_on_c, 0, 55, 100
2, 2615940, Note_on_c, 0, 53, 100
2, 2615948, Note_off_c, 0, 57, 100
2, 2616521, Note_on_c, 0, 50, 100
2, 2616545, Note_off_c, 0, 55, 100
2, 2616628, Note_off_c, 0, 50, 100
2, 2616745, Note_off_c, 0, 53, 100
2, 2617279, Note_on_c, 0, 49, 100
2, 2618089, Note_on_c, 0, 46, 100
2, 2618189, Note_off_c, 0, 49, 100
2, 2618859, Note_on_c, 0, 44, 100
2, 2619589, Note_on_c, 0, 42, 100
2, 2619697, Note_off_c, 0, 46, 100
2, 2620284, Note_on_c, 0, 41, 100
2, 2620799, Note_off_c, 0, 44, 100
2, 2620955, Note_on_c, 0, 40, 100
2, 2621173, Note_off_c, 0, 40, 100
2, 2621366, Note_off_c, 0, 42, 100
2, 2621428, Note_off_c, 0, 41, 100
2, 2621617, Note_on_c, 0, 40, 100
2, 2622284, Note_off_c, 0, 40, 100
2, 2622284, Note_on_c, 0, 40, 100
2, 2622968, Note_on_c, 0, 41, 100
2, 2623680, Note_on_c, 0, 43, 100
2, 2623890, Note_off_c, 0, 40, 100
2, 2624418, Note_on_c, 0, 45, 100
2, 2624819, Note_off_c, 0, 41, 100
2, 2625183, Note_on_c, 0, 48, 100
2, 2625295, Note_off_c, 0, 43, 100
2, 2625430, Note_off_c, 0, 45, 100
2, 2625448, Note_off_c, 0, 48, 100
2, 2625964, Note_on_c, 0, 50, 100
2, 2626538, Note_off_c, 0, 50, 100
2, 2626749, Note_on_c, 0, 53, 100
2, 2627521, Note_on_c, 0, 56, 100
2, 2627691, Note_off_c, 0, 53, 100
2, 2628268, Note_on_c, 0, 59, 100
2, 2628492, Note_off_c, 0, 56, 100
2, 2628978, Note_on_c, 0, 62, 100
2, 2629004, Note_off_c, 0, 59, 100
2, 2629378, Note_off_c, 0, 62, 100
2, 2629645, Note_on_c, 0, 64, 100
2, 2629787, Note_off_c, 0, 64, 100
2, 2630270, Note_on_c, 0, 66, 100
2, 2630380, Note_off_c, 0, 66, 100
2, 2630897, Note_on_c, 0, 67, 100
2, 2631124, Note_off_c, 0, 67, 100
2, 2631765, Note_on_c, 0, 67, 100
2, 2632244, Note_off_c, 0, 67, 100
2, 2632633, Note_on_c, 0, 66, 100
2, 2633304, Note_off_c, 0, 66, 100
2, 2633482, Note_on_c, 0, 65, 100
2, 2634127, Note_off_c, 0, 65, 100
2, 2634292, Note_on_c, 0, 64, 100
2, 2634620, Note_off_c, 0, 64, 100
2, 2635049, Note_on_c, 0, 61, 100
2, 2635471, Note_off_c, 0, 61, 100
2, 2635743, Note_on_c, 0, 59, 100
2, 2636375, Note_on_c, 0, 56, 100
2, 2636798, Note_off_c, 0, 59, 100
2, 2636952, Note_on_c, 0, 54, 100
2, 2637490, Note_on_c, 0, 51, 100
2, 2637912, Note_off_c, 0, 56, 100
2, 2638151, Note_on_c, 0, 50, 100
2, 2638617, Note_off_c, 0, 54, 100
2, 2638766, Note_off_c, 0, 50, 100
2, 2638830, Note_off_c, 0, 51, 100
2, 2639069, Note_on_c, 0, 48, 100
2, 2639579, Note_off_c, 0, 48, 100
2, 2639958, Note_on_c, 0, 46, 100
2, 2640800, Note_on_c, 0, 45, 100
2, 2641337, Note_off_c, 0, 46, 100
2, 2641581, Note_off_c, 0, 45, 100
2, 2641581, Note_on_c, 0, 45, 100
2, 2642294, Note_off_c, 0, 45, 100
2, 2642294, Note_on_c, 0, 45, 100
2, 2642942, Note_off_c, 0, 45, 100
2, 2642942, Note_on_c, 0, 45, 100
2, 2643536, Note_on_c, 0, 46, 100
2, 2643807, Note_off_c, 0, 45, 100
2, 2643917, Note_off_c, 0, 46, 100
2, 2644093, Note_on_c, 0, 47, 100
2, 2644635, Note_on_c, 0, 49, 100
2, 2645203, Note_off_c, 0, 47, 100
2, 2645377, Note_on_c, 0, 50, 100
2, 2646108, Note_off_c, 0, 49, 100
2, 2646242, Note_off_c, 0, 50, 100
2, 2646242, Note_on_c, 0, 50, 100
2, 2647066, Note_on_c, 0, 52, 100
2, 2647264, Note_off_c, 0, 50, 100
2, 2647549, Note_off_c, 0, 52, 100
2, 2647840, Note_on_c, 0, 52, 100
2, 2648022, Note_off_c, 0, 52, 100
2, 2648562, Note_on_c, 0, 53, 100
2, 2649000, Note_off_c, 0, 53, 100
2, 2649239, Note_on_c, 0, 53, 100
2, 2649674, Note_off_c, 0, 53, 100
2, 2649882, Note_on_c, 0, 53, 100
2, 2650134, Note_off_c, 0, 53, 100
2, 2650508, Note_on_c, 0, 53, 100
2, 2650655, Note_off_c, 0, 53, 100
2, 2651133, Note_on_c, 0, 53, 100
2, 2651353, Note_off_c, 0, 53, 100
2, 2651773, Note_on_c, 0, 52, 100
2, 2651895, Note_off_c, 0, 52, 100
2, 2652521, Note_on_c, 0, 51, 100
2, 2652994, Note_off_c, 0, 51, 100
2, 2653264, Note_on_c, 0, 50, 100
2, 2653976, Note_off_c, 0, 50, 100
2, 2653976, Note_on_c, 0, 50, 100
2, 2654665, Note_off_c, 0, 50, 100
2, 2654665, Note_on_c, 0, 50, 100
2, 2655378, Note_off_c, 0, 50, 100
2, 2655378, Note_on_c, 0, 50, 100
2, 2656141, Note_off_c, 0, 50, 100
2, 2656141, Note_on_c, 0, 50, 100
2, 2656241, Note_off_c, 0, 50, 100
2, 2656889, Note_on_c, 0, 50, 100
2, 2657611, Note_on_c, 0, 52, 100
2, 2657804, Note_off_c, 0, 50, 100
2, 2658301, Note_on_c, 0, 53, 100
2, 2658961, Note_on_c, 0, 54, 100
2, 2659220, Note_off_c, 0, 52, 100
2, 2659771, Note_on_c, 0, 56, 100
2, 2660239, Note_off_c, 0, 53, 100
2, 2660595, Note_on_c, 0, 58, 100
2, 2660733, Note_off_c, 0, 54, 100
2, 2660805, Note_off_c, 0, 58, 100
2, 2660907, Note_off_c, 0, 56, 100
2, 2661418, Note_on_c, 0, 60, 100
2, 2662222, Note_on_c, 0, 61, 100
2, 2662344, Note_off_c, 0, 60, 100
2, 2662992, Note_on_c, 0, 63, 100
2, 2663714, Note_off_c, 0, 63, 100
2, 2663714, Note_on_c, 0, 63, 100
2, 2663835, Note_off_c, 0, 61, 100
2, 2664383, Note_on_c, 0, 64, 100
2, 2664999, Note_off_c, 0, 63, 100
2, 2664999, Note_on_c, 0, 63, 100
2, 2665330, Note_off_c, 0, 63, 100
2, 2665393, Note_off_c, 0, 64, 100
2, 2665571, Note_on_c, 0, 62, 100
2, 2666153, Note_off_c, 0, 62, 100
2, 2666205, Note_on_c, 0, 61, 100
2, 2667109, Note_on_c, 0, 59, 100
2, 2667155, Note_off_c, 0, 61, 100
2, 2668000, Note_on_c, 0, 56, 100
2, 2668088, Note_off_c, 0, 59, 100
2, 2668742, Note_off_c, 0, 56, 100
2, 2668854, Note_on_c, 0, 54, 100
2, 2669257, Note_off_c, 0, 54, 100
2, 2669655, Note_on_c, 0, 51, 100
2, 2669797, Note_off_c, 0, 51, 100
2, 2670391, Note_on_c, 0, 49, 100
2, 2670504, Note_off_c, 0, 49, 100
2, 2671059, Note_on_c, 0, 46, 100
2, 2671281, Note_off_c, 0, 46, 100
2, 2671664, Note_on_c, 0, 43, 100
2, 2672136, Note_off_c, 0, 43, 100
2, 2672220, Note_on_c, 0, 41, 100
2, 2672746, Note_on_c, 0, 40, 100
2, 2672882, Note_off_c, 0, 41, 100
2, 2673383, Note_off_c, 0, 40, 100
2, 2673453, Note_on_c, 0, 39, 100
2, 2673775, Note_off_c, 0, 39, 100
2, 2674357, Note_on_c, 0, 39, 100
2, 2674782, Note_off_c, 0, 39, 100
2, 2675223, Note_on_c, 0, 39, 100
2, 2676036, Note_on_c, 0, 40, 100
2, 2676278, Note_off_c, 0, 39, 100
2, 2676788, Note_on_c, 0, 42, 100
2, 2677479, Note_on_c, 0, 44, 100
2, 2677570, Note_off_c, 0, 40, 100
2, 2678118, Note_on_c, 0, 47, 100
2, 2678447, Note_off_c, 0, 42, 100
2, 2678718, Note_on_c, 0, 50, 100
2, 2678724, Note_off_c, 0, 47, 100
2, 2678811, Note_off_c, 0, 44, 100
2, 2679236, Note_off_c, 0, 50, 100
2, 2679299, Note_on_c, 0, 52, 100
2, 2679879, Note_on_c, 0, 55, 100
2, 2680641, Note_on_c, 0, 58, 100
2, 2680684, Note_off_c, 0, 52, 100
2, 2681451, Note_on_c, 0, 61, 100
2, 2681800, Note_off_c, 0, 55, 100
2, 2682221, Note_on_c, 0, 62, 100
2, 2682606, Note_off_c, 0, 58, 100
2, 2682924, Note_off_c, 0, 62, 100
2, 2682951, Note_on_c, 0, 64, 100
2, 2682960, Note_off_c, 0, 61, 100
2, 2683340, Note_off_c, 0, 64, 100
2, 2683647, Note_on_c, 0, 65, 100
2, 2684318, Note_off_c, 0, 65, 100
2, 2684318, Note_on_c, 0, 65, 100
2, 2684979, Note_on_c, 0, 64, 100
2, 2685646, Note_on_c, 0, 63, 100
2, 2685799, Note_off_c, 0, 65, 100
2, 2686329, Note_on_c, 0, 62, 100
2, 2686399, Note_off_c, 0, 64, 100
2, 2686670, Note_off_c, 0, 63, 100
2, 2686810, Note_off_c, 0, 62, 100
2, 2687040, Note_on_c, 0, 60, 100
2, 2687227, Note_off_c, 0, 60, 100
2, 2687778, Note_on_c, 0, 58, 100
2, 2688223, Note_off_c, 0, 58, 100
2, 2688542, Note_on_c, 0, 56, 100
2, 2688985, Note_off_c, 0, 56, 100
2, 2689322, Note_on_c, 0, 54, 100
2, 2689582, Note_off_c, 0, 54, 100
2, 2690106, Note_on_c, 0, 52, 100
2, 2690246, Note_off_c, 0, 52, 100
2, 2690879, Note_on_c, 0, 50, 100
2, 2691094, Note_off_c, 0, 50, 100
2, 2691625, Note_on_c, 0, 50, 100
2, 2691749, Note_off_c, 0, 50, 100
2, 2692335, Note_on_c, 0, 49, 100
2, 2692807, Note_off_c, 0, 49, 100
2, 2693002, Note_on_c, 0, 49, 100
2, 2693628, Note_off_c, 0, 49, 100
2, 2693628, Note_on_c, 0, 49, 100
2, 2694259, Note_off_c, 0, 49, 100
2, 2694259, Note_on_c, 0, 49, 100
2, 2695126, Note_on_c, 0, 50, 100
2, 2695429, Note_off_c, 0, 49, 100
2, 2695915, Note_off_c, 0, 50, 100
2, 2695993, Note_on_c, 0, 50, 100
2, 2696091, Note_off_c, 0, 50, 100
2, 2696841, Note_on_c, 0, 50, 100
2, 2697651, Note_on_c, 0, 51, 100
2, 2697760, Note_off_c, 0, 50, 100
2, 2698407, Note_on_c, 0, 52, 100
2, 2699101, Note_off_c, 0, 52, 100
2, 2699101, Note_on_c, 0, 52, 100
2, 2699261, Note_off_c, 0, 51, 100
2, 2699733, Note_on_c, 0, 53, 100
2, 2700310, Note_off_c, 0, 53, 100
2, 2700310, Note_on_c, 0, 53, 100
2, 2700847, Note_off_c, 0, 52, 100
2, 2700847, Note_on_c, 0, 52, 100
2, 2700862, Note_off_c, 0, 53, 100
2, 2701514, Note_off_c, 0, 52, 100
2, 2701514, Note_on_c, 0, 52, 100
2, 2702431, Note_on_c, 0, 51, 100
2, 2703133, Note_off_c, 0, 52, 100
2, 2703320, Note_on_c, 0, 50, 100
2, 2704162, Note_on_c, 0, 49, 100
2, 2704290, Note_off_c, 0, 51, 100
2, 2704937, Note_off_c, 0, 50, 100
2, 2704942, Note_on_c, 0, 48, 100
2, 2705169, Note_off_c, 0, 49, 100
2, 2705196, Note_off_c, 0, 48, 100
2, 2705654, Note_on_c, 0, 47, 100
2, 2706243, Note_off_c, 0, 47, 100
2, 2706301, Note_on_c, 0, 47, 100
2, 2706895, Note_on_c, 0, 46, 100
2, 2707260, Note_off_c, 0, 47, 100
2, 2707452, Note_off_c, 0, 46, 100
2, 2707452, Note_on_c, 0, 46, 100
2, 2707992, Note_on_c, 0, 47, 100
2, 2708200, Note_off_c, 0, 46, 100
2, 2708399, Note_off_c, 0, 47, 100
2, 2708739, Note_on_c, 0, 48, 100
2, 2708881, Note_off_c, 0, 48, 100
2, 2709605, Note_on_c, 0, 49, 100
2, 2709721, Note_off_c, 0, 49, 100
2, 2710429, Note_on_c, 0, 50, 100
2, 2710645, Note_off_c, 0, 50, 100
2, 2711203, Note_on_c, 0, 52, 100
2, 2711667, Note_off_c, 0, 52, 100
2, 2711925, Note_on_c, 0, 55, 100
2, 2712579, Note_off_c, 0, 55, 100
2, 2712601, Note_on_c, 0, 57, 100
2, 2713230, Note_off_c, 0, 57, 100
2, 2713244, Note_on_c, 0, 60, 100
2, 2713560, Note_off_c, 0, 60, 100
2, 2713869, Note_on_c, 0, 62, 100
2, 2714297, Note_off_c, 0, 62, 100
2, 2714493, Note_on_c, 0, 64, 100
2, 2715132, Note_on_c, 0, 65, 100
2, 2715548, Note_off_c, 0, 64, 100
2, 2715882, Note_on_c, 0, 66, 100
2, 2716626, Note_off_c, 0, 66, 100
2, 2716626, Note_on_c, 0, 66, 100
2, 2716662, Note_off_c, 0, 65, 100
2, 2717339, Note_off_c, 0, 66, 100
2, 2717339, Note_on_c, 0, 66, 100
2, 2717950, Note_off_c, 0, 66, 100
2, 2718028, Note_on_c, 0, 65, 100
2, 2718554, Note_off_c, 0, 65, 100
2, 2718735, Note_on_c, 0, 63, 100
2, 2719498, Note_on_c, 0, 61, 100
2, 2720125, Note_off_c, 0, 63, 100
2, 2720246, Note_on_c, 0, 58, 100
2, 2720969, Note_on_c, 0, 55, 100
2, 2721422, Note_off_c, 0, 61, 100
2, 2721659, Note_on_c, 0, 52, 100
2, 2722210, Note_off_c, 0, 58, 100
2, 2722322, Note_on_c, 0, 50, 100
2, 2722356, Note_off_c, 0, 52, 100
2, 2722474, Note_off_c, 0, 55, 100
2, 2722719, Note_off_c, 0, 50, 100
2, 2723131, Note_on_c, 0, 47, 100
2, 2723954, Note_on_c, 0, 44, 100
2, 2724257, Note_off_c, 0, 47, 100
2, 2724777, Note_on_c, 0, 42, 100
2, 2725442, Note_off_c, 0, 44, 100
2, 2725580, Note_on_c, 0, 40, 100
2, 2726202, Note_off_c, 0, 42, 100
2, 2726350, Note_on_c, 0, 39, 100
2, 2726606, Note_off_c, 0, 40, 100
2, 2726830, Note_off_c, 0, 39, 100
2, 2727071, Note_on_c, 0, 39, 100
2, 2727262, Note_off_c, 0, 39, 100
2, 2727740, Note_on_c, 0, 40, 100
2, 2728192, Note_off_c, 0, 40, 100
2, 2728356, Note_on_c, 0, 41, 100
2, 2728808, Note_off_c, 0, 41, 100
2, 2728928, Note_on_c, 0, 42, 100
2, 2729197, Note_off_c, 0, 42, 100
2, 2729567, Note_on_c, 0, 45, 100
2, 2729699, Note_off_c, 0, 45, 100
2, 2730471, Note_on_c, 0, 47, 100
2, 2730681, Note_off_c, 0, 47, 100
2, 2731361, Note_on_c, 0, 50, 100
2, 2731486, Note_off_c, 0, 50, 100
2, 2732215, Note_on_c, 0, 51, 100
2, 2732685, Note_off_c, 0, 51, 100
2, 2733015, Note_on_c, 0, 54, 100
2, 2733750, Note_on_c, 0, 56, 100
2, 2733897, Note_off_c, 0, 54, 100
2, 2734418, Note_on_c, 0, 58, 100
2, 2734920, Note_off_c, 0, 56, 100
2, 2735022, Note_on_c, 0, 60, 100
2, 2735578, Note_on_c, 0, 61, 100
2, 2735580, Note_off_c, 0, 58, 100
2, 2735682, Note_off_c, 0, 61, 100
2, 2735802, Note_off_c, 0, 60, 100
2, 2736104, Note_on_c, 0, 61, 100
2, 2736816, Note_off_c, 0, 61, 100
2, 2736816, Note_on_c, 0, 61, 100
2, 2737719, Note_off_c, 0, 61, 100
2, 2737719, Note_on_c, 0, 61, 100
2, 2738585, Note_on_c, 0, 60, 100
2, 2739398, Note_on_c, 0, 59, 100
2, 2739653, Note_off_c, 0, 61, 100
2, 2740149, Note_on_c, 0, 57, 100
2, 2740342, Note_off_c, 0, 57, 100
2, 2740346, Note_off_c, 0, 60, 100
2, 2740519, Note_off_c, 0, 59, 100
2, 2740840, Note_on_c, 0, 56, 100
2, 2741478, Note_on_c, 0, 55, 100
2, 2741782, Note_off_c, 0, 56, 100
2, 2742078, Note_on_c, 0, 53, 100
2, 2742658, Note_off_c, 0, 53, 100
2, 2742658, Note_on_c, 0, 53, 100
2, 2743104, Note_off_c, 0, 55, 100
2, 2743238, Note_on_c, 0, 52, 100
2, 2744003, Note_off_c, 0, 52, 100
2, 2744003, Note_on_c, 0, 52, 100
2, 2744251, Note_off_c, 0, 52, 100
2, 2744275, Note_off_c, 0, 53, 100
2, 2744814, Note_on_c, 0, 52, 100
2, 2745411, Note_off_c, 0, 52, 100
2, 2745584, Note_on_c, 0, 52, 100
2, 2746314, Note_off_c, 0, 52, 100
2, 2746314, Note_on_c, 0, 52, 100
2, 2747009, Note_on_c, 0, 53, 100
2, 2747309, Note_off_c, 0, 52, 100
2, 2747680, Note_on_c, 0, 54, 100
2, 2747764, Note_off_c, 0, 53, 100
2, 2748090, Note_off_c, 0, 54, 100
2, 2748341, Note_on_c, 0, 54, 100
2, 2748483, Note_off_c, 0, 54, 100
2, 2749007, Note_on_c, 0, 55, 100
2, 2749126, Note_off_c, 0, 55, 100
2, 2749690, Note_on_c, 0, 55, 100
2, 2749900, Note_off_c, 0, 55, 100
2, 2750400, Note_on_c, 0, 55, 100
2, 2750856, Note_off_c, 0, 55, 100
2, 2751137, Note_on_c, 0, 55, 100
2, 2751782, Note_off_c, 0, 55, 100
2, 2751901, Note_on_c, 0, 54, 100
2, 2752522, Note_off_c, 0, 54, 100
2, 2752681, Note_on_c, 0, 53, 100
2, 2752991, Note_off_c, 0, 53, 100
2, 2753464, Note_on_c, 0, 52, 100
2, 2753895, Note_off_c, 0, 52, 100
2, 2754236, Note_on_c, 0, 51, 100
2, 2754982, Note_on_c, 0, 50, 100
2, 2755291, Note_off_c, 0, 51, 100
2, 2755692, Note_on_c, 0, 48, 100
2, 2756359, Note_on_c, 0, 46, 100
2, 2756509, Note_off_c, 0, 50, 100
2, 2756985, Note_on_c, 0, 45, 100
2, 2757338, Note_off_c, 0, 48, 100
2, 2757574, Note_off_c, 0, 45, 100
2, 2757621, Note_on_c, 0, 44, 100
2, 2757675, Note_off_c, 0, 46, 100
2, 2758154, Note_off_c, 0, 44, 100
2, 2758487, Note_on_c, 0, 43, 100
2, 2759354, Note_on_c, 0, 42, 100
2, 2759883, Note_off_c, 0, 43, 100
2, 2760201, Note_on_c, 0, 43, 100
2, 2761010, Note_on_c, 0, 44, 100
2, 2761280, Note_off_c, 0, 42, 100
2, 2761766, Note_on_c, 0, 45, 100
2, 2762164, Note_off_c, 0, 43, 100
2, 2762456, Note_off_c, 0, 45, 100
2, 2762459, Note_on_c, 0, 47, 100
2, 2762511, Note_off_c, 0, 44, 100
2, 2762865, Note_off_c, 0, 47, 100
2, 2763090, Note_on_c, 0, 50, 100
2, 2763667, Note_on_c, 0, 51, 100
2, 2764204, Note_on_c, 0, 54, 100
2, 2764225, Note_off_c, 0, 50, 100
2, 2764877, Note_on_c, 0, 57, 100
2, 2765162, Note_off_c, 0, 51, 100
2, 2765634, Note_off_c, 0, 54, 100
2, 2765794, Note_on_c, 0, 60, 100
2, 2765905, Note_off_c, 0, 57, 100
2, 2766273, Note_off_c, 0, 60, 100
2, 2766682, Note_on_c, 0, 63, 100
2, 2766878, Note_off_c, 0, 63, 100
2, 2767523, Note_on_c, 0, 65, 100
2, 2767982, Note_off_c, 0, 65, 100
2, 2768303, Note_on_c, 0, 66, 100
2, 2768763, Note_off_c, 0, 66, 100
2, 2769014, Note_on_c, 0, 67, 100
2, 2769291, Note_off_c, 0, 67, 100
2, 2769661, Note_on_c, 0, 67, 100
2, 2769786, Note_off_c, 0, 67, 100
2, 2770254, Note_on_c, 0, 67, 100
2, 2770460, Note_off_c, 0, 67, 100
2, 2770810, Note_on_c, 0, 66, 100
2, 2770937, Note_off_c, 0, 66, 100
2, 2771350, Note_on_c, 0, 64, 100
2, 2771818, Note_off_c, 0, 64, 100
2, 2772102, Note_on_c, 0, 62, 100
2, 2772968, Note_on_c, 0, 59, 100
2, 2772979, Note_off_c, 0, 62, 100
2, 2773792, Note_on_c, 0, 56, 100
2, 2774131, Note_off_c, 0, 59, 100
2, 2774565, Note_on_c, 0, 53, 100
2, 2774945, Note_off_c, 0, 56, 100
2, 2775287, Note_on_c, 0, 50, 100
2, 2775337, Note_off_c, 0, 53, 100
2, 2775398, Note_off_c, 0, 50, 100
2, 2775963, Note_on_c, 0, 48, 100
2, 2776605, Note_on_c, 0, 45, 100
2, 2776891, Note_off_c, 0, 48, 100
2, 2777229, Note_on_c, 0, 43, 100
2, 2777853, Note_on_c, 0, 42, 100
2, 2778218, Note_off_c, 0, 45, 100
2, 2778491, Note_on_c, 0, 41, 100
2, 2779161, Note_off_c, 0, 43, 100
2, 2779244, Note_off_c, 0, 41, 100
2, 2779244, Note_on_c, 0, 41, 100
2, 2779605, Note_off_c, 0, 41, 100
2, 2779609, Note_off_c, 0, 42, 100
2, 2779988, Note_on_c, 0, 42, 100
2, 2780701, Note_on_c, 0, 43, 100
2, 2780938, Note_off_c, 0, 42, 100
2, 2781391, Note_on_c, 0, 44, 100
2, 2782092, Note_on_c, 0, 46, 100
2, 2782333, Note_off_c, 0, 43, 100
2, 2782855, Note_on_c, 0, 48, 100
2, 2783258, Note_off_c, 0, 44, 100
2, 2783604, Note_on_c, 0, 50, 100
2, 2783710, Note_off_c, 0, 46, 100
2, 2783846, Note_off_c, 0, 50, 100
2, 2783857, Note_off_c, 0, 48, 100
2, 2784326, Note_on_c, 0, 51, 100
2, 2784930, Note_off_c, 0, 51, 100
2, 2785017, Note_on_c, 0, 53, 100
2, 2785683, Note_on_c, 0, 55, 100
2, 2785993, Note_off_c, 0, 53, 100
2, 2786491, Note_on_c, 0, 56, 100
2, 2786686, Note_off_c, 0, 55, 100
2, 2787252, Note_off_c, 0, 56, 100
2, 2787314, Note_on_c, 0, 57, 100
2, 2787727, Note_off_c, 0, 57, 100
2, 2788136, Note_on_c, 0, 57, 100
2, 2788278, Note_off_c, 0, 57, 100
2, 2788939, Note_on_c, 0, 57, 100
2, 2789061, Note_off_c, 0, 57, 100
2, 2789707, Note_on_c, 0, 57, 100
2, 2789911, Note_off_c, 0, 57, 100
2, 2790429, Note_on_c, 0, 56, 100
2, 2790877, Note_off_c, 0, 56, 100
2, 2791097, Note_on_c, 0, 55, 100
2, 2791713, Note_off_c, 0, 55, 100
2, 2791713, Note_on_c, 0, 55, 100
2, 2792286, Note_on_c, 0, 54, 100
2, 2792327, Note_off_c, 0, 55, 100
2, 2792590, Note_off_c, 0, 54, 100
2, 2792929, Note_on_c, 0, 53, 100
2, 2793363, Note_off_c, 0, 53, 100
2, 2793833, Note_on_c, 0, 53, 100
2, 2794722, Note_on_c, 0, 52, 100
2, 2794887, Note_off_c, 0, 53, 100
2, 2795576, Note_off_c, 0, 52, 100
2, 2795576, Note_on_c, 0, 52, 100
2, 2796375, Note_on_c, 0, 53, 100
2, 2797110, Note_off_c, 0, 53, 100
2, 2797110, Note_on_c, 0, 53, 100
2, 2797216, Note_off_c, 0, 52, 100
2, 2797691, Note_off_c, 0, 53, 100
2, 2797776, Note_on_c, 0, 54, 100
2, 2798317, Note_off_c, 0, 54, 100
2, 2798380, Note_on_c, 0, 55, 100
2, 2798935, Note_on_c, 0, 56, 100
2, 2799461, Note_on_c, 0, 58, 100
2, 2799781, Note_off_c, 0, 55, 100
2, 2800179, Note_on_c, 0, 59, 100
2, 2800864, Note_off_c, 0, 56, 100
2, 2801082, Note_off_c, 0, 59, 100
2, 2801082, Note_on_c, 0, 59, 100
2, 2801424, Note_off_c, 0, 58, 100
2, 2801765, Note_off_c, 0, 59, 100
2, 2801948, Note_on_c, 0, 60, 100
2, 2802362, Note_off_c, 0, 60, 100
2, 2802760, Note_on_c, 0, 60, 100
2, 2803511, Note_on_c, 0, 59, 100
2, 2803903, Note_off_c, 0, 60, 100
2, 2804201, Note_on_c, 0, 58, 100
2, 2804839, Note_on_c, 0, 57, 100
2, 2805014, Note_off_c, 0, 59, 100
2, 2805438, Note_on_c, 0, 55, 100
2, 2805637, Note_off_c, 0, 58, 100
2, 2805869, Note_off_c, 0, 57, 100
2, 2805915, Note_off_c, 0, 55, 100
2, 2806017, Note_on_c, 0, 53, 100
2, 2806217, Note_off_c, 0, 53, 100
2, 2806596, Note_on_c, 0, 50, 100
2, 2807062, Note_off_c, 0, 50, 100
2, 2807365, Note_on_c, 0, 49, 100
2, 2807833, Note_off_c, 0, 49, 100
2, 2808176, Note_on_c, 0, 46, 100
2, 2808462, Note_off_c, 0, 46, 100
2, 2808947, Note_on_c, 0, 44, 100
2, 2809065, Note_off_c, 0, 44, 100
2, 2809677, Note_on_c, 0, 42, 100
2, 2809878, Note_off_c, 0, 42, 100
2, 2810372, Note_on_c, 0, 41, 100
2, 2810500, Note_off_c, 0, 41, 100
2, 2811043, Note_on_c, 0, 40, 100
2, 2811509, Note_off_c, 0, 40, 100
2, 2811703, Note_on_c, 0, 40, 100
2, 2812368, Note_off_c, 0, 40, 100
2, 2812368, Note_on_c, 0, 40, 100
2, 2813051, Note_on_c, 0, 41, 100
2, 2813523, Note_off_c, 0, 40, 100
2, 2813760, Note_on_c, 0, 43, 100
2, 2814196, Note_off_c, 0, 41, 100
2, 2814497, Note_on_c, 0, 45, 100
2, 2814524, Note_off_c, 0, 43, 100
2, 2814615, Note_off_c, 0, 45, 100
2, 2815259, Note_on_c, 0, 48, 100
2, 2816039, Note_on_c, 0, 50, 100
2, 2816191, Note_off_c, 0, 48, 100
2, 2816822, Note_on_c, 0, 53, 100
2, 2817594, Note_on_c, 0, 57, 100
2, 2817653, Note_off_c, 0, 50, 100
2, 2818340, Note_on_c, 0, 60, 100
2, 2818751, Note_off_c, 0, 53, 100
2, 2819049, Note_on_c, 0, 62, 100
2, 2819225, Note_off_c, 0, 62, 100
2, 2819345, Note_off_c, 0, 57, 100
2, 2819446, Note_off_c, 0, 60, 100
2, 2819717, Note_on_c, 0, 64, 100
2, 2820343, Note_on_c, 0, 66, 100
2, 2820675, Note_off_c, 0, 64, 100
2, 2820983, Note_on_c, 0, 67, 100
2, 2821848, Note_off_c, 0, 67, 100
2, 2821848, Note_on_c, 0, 67, 100
2, 2821982, Note_off_c, 0, 66, 100
2, 2822715, Note_on_c, 0, 66, 100
2, 2823466, Note_off_c, 0, 67, 100
2, 2823561, Note_on_c, 0, 65, 100
2, 2823714, Note_off_c, 0, 66, 100
2, 2823798, Note_off_c, 0, 65, 100
2, 2824369, Note_on_c, 0, 64, 100
2, 2824981, Note_off_c, 0, 64, 100
2, 2825124, Note_on_c, 0, 61, 100
2, 2825817, Note_on_c, 0, 59, 100
2, 2826108, Note_off_c, 0, 61, 100
2, 2826448, Note_on_c, 0, 56, 100
2, 2826828, Note_off_c, 0, 59, 100
2, 2827024, Note_on_c, 0, 54, 100
2, 2827215, Note_off_c, 0, 56, 100
2, 2827441, Note_off_c, 0, 54, 100
2, 2827561, Note_on_c, 0, 51, 100
2, 2827703, Note_off_c, 0, 51, 100
2, 2828239, Note_on_c, 0, 50, 100
2, 2828365, Note_off_c, 0, 50, 100
2, 2829156, Note_on_c, 0, 48, 100
2, 2829354, Note_off_c, 0, 48, 100
2, 2830044, Note_on_c, 0, 46, 100
2, 2830484, Note_off_c, 0, 46, 100
2, 2830885, Note_on_c, 0, 45, 100
2, 2831513, Note_off_c, 0, 45, 100
2, 2831663, Note_on_c, 0, 45, 100
2, 2832269, Note_off_c, 0, 45, 100
2, 2832374, Note_on_c, 0, 45, 100
2, 2832672, Note_off_c, 0, 45, 100
2, 2833021, Note_on_c, 0, 45, 100
2, 2833458, Note_off_c, 0, 45, 100
2, 2833613, Note_on_c, 0, 46, 100
2, 2834168, Note_on_c, 0, 47, 100
2, 2834667, Note_off_c, 0, 46, 100
2, 2834708, Note_on_c, 0, 49, 100
2, 2835464, Note_on_c, 0, 50, 100
2, 2835687, Note_off_c, 0, 47, 100
2, 2836331, Note_off_c, 0, 50, 100
2, 2836331, Note_on_c, 0, 50, 100
2, 2836341, Note_off_c, 0, 49, 100
2, 2836903, Note_off_c, 0, 50, 100
2, 2837155, Note_on_c, 0, 52, 100
2, 2837703, Note_off_c, 0, 52, 100
2, 2837928, Note_on_c, 0, 52, 100
2, 2838649, Note_on_c, 0, 53, 100
2, 2839325, Note_off_c, 0, 53, 100
2, 2839325, Note_on_c, 0, 53, 100
2, 2839335, Note_off_c, 0, 52, 100
2, 2839966, Note_off_c, 0, 53, 100
2, 2839966, Note_on_c, 0, 53, 100
2, 2840590, Note_off_c, 0, 53, 100
2, 2840590, Note_on_c, 0, 53, 100
2, 2841213, Note_off_c, 0, 53, 100
2, 2841213, Note_on_c, 0, 53, 100
2, 2841635, Note_off_c, 0, 53, 100
2, 2841851, Note_on_c, 0, 52, 100
2, 2842605, Note_on_c, 0, 51, 100
2, 2843003, Note_off_c, 0, 52, 100
2, 2843350, Note_off_c, 0, 51, 100
2, 2843350, Note_on_c, 0, 51, 100
2, 2844064, Note_on_c, 0, 50, 100
2, 2844753, Note_off_c, 0, 50, 100
2, 2844753, Note_on_c, 0, 50, 100
2, 2844790, Note_off_c, 0, 51, 100
2, 2845229, Note_off_c, 0, 50, 100
2, 2845449, Note_on_c, 0, 50, 100
2, 2845654, Note_off_c, 0, 50, 100
2, 2846212, Note_on_c, 0, 50, 100
2, 2846685, Note_off_c, 0, 50, 100
2, 2846961, Note_on_c, 0, 51, 100
2, 2847438, Note_off_c, 0, 51, 100
2, 2847684, Note_on_c, 0, 52, 100
2, 2847978, Note_off_c, 0, 52, 100
2, 2848376, Note_on_c, 0, 53, 100
2, 2848487, Note_off_c, 0, 53, 100
2, 2849044, Note_on_c, 0, 54, 100
2, 2849241, Note_off_c, 0, 54, 100
2, 2849852, Note_on_c, 0, 56, 100
2, 2849982, Note_off_c, 0, 56, 100
2, 2850674, Note_on_c, 0, 58, 100
2, 2851138, Note_off_c, 0, 58, 100
2, 2851494, Note_on_c, 0, 60, 100
2, 2852297, Note_on_c, 0, 61, 100
2, 2852361, Note_off_c, 0, 60, 100
2, 2853065, Note_on_c, 0, 62, 100
2, 2853445, Note_off_c, 0, 61, 100
2, 2853786, Note_on_c, 0, 63, 100
2, 2854201, Note_off_c, 0, 62, 100
2, 2854454, Note_off_c, 0, 63, 100
2, 2854454, Note_on_c, 0, 63, 100
2, 2854579, Note_off_c, 0, 63, 100
2, 2855070, Note_on_c, 0, 63, 100
2, 2855643, Note_on_c, 0, 62, 100
2, 2856006, Note_off_c, 0, 63, 100
2, 2856292, Note_on_c, 0, 61, 100
2, 2857195, Note_on_c, 0, 59, 100
2, 2857258, Note_off_c, 0, 62, 100
2, 2858084, Note_on_c, 0, 56, 100
2, 2858219, Note_off_c, 0, 61, 100
2, 2858936, Note_on_c, 0, 54, 100
2, 2858940, Note_off_c, 0, 59, 100
2, 2859104, Note_off_c, 0, 54, 100
2, 2859183, Note_off_c, 0, 56, 100
2, 2859735, Note_on_c, 0, 51, 100
2, 2860469, Note_on_c, 0, 49, 100
2, 2860701, Note_off_c, 0, 51, 100
2, 2861135, Note_on_c, 0, 46, 100
2, 2861738, Note_on_c, 0, 43, 100
2, 2862114, Note_off_c, 0, 49, 100
2, 2862293, Note_on_c, 0, 41, 100
2, 2862818, Note_on_c, 0, 40, 100
2, 2863010, Note_off_c, 0, 46, 100
2, 2863049, Note_off_c, 0, 40, 100
2, 2863289, Note_off_c, 0, 41, 100
2, 2863357, Note_off_c, 0, 43, 100
2, 2863541, Note_on_c, 0, 39, 100
2, 2864161, Note_off_c, 0, 39, 100
2, 2864445, Note_on_c, 0, 39, 100
2, 2865310, Note_off_c, 0, 39, 100
2, 2865310, Note_on_c, 0, 39, 100
2, 2866122, Note_on_c, 0, 40, 100
2, 2866329, Note_off_c, 0, 39, 100
2, 2866873, Note_on_c, 0, 42, 100
2, 2866895, Note_off_c, 0, 40, 100
2, 2867293, Note_off_c, 0, 42, 100
2, 2867562, Note_on_c, 0, 44, 100
2, 2867704, Note_off_c, 0, 44, 100
2, 2868199, Note_on_c, 0, 47, 100
2, 2868328, Note_off_c, 0, 47, 100
2, 2868797, Note_on_c, 0, 50, 100
2, 2868988, Note_off_c, 0, 50, 100
2, 2869376, Note_on_c, 0, 52, 100
2, 2869808, Note_off_c, 0, 52, 100
2, 2869955, Note_on_c, 0, 55, 100
2, 2870575, Note_off_c, 0, 55, 100
2, 2870728, Note_on_c, 0, 58, 100
2, 2871326, Note_off_c, 0, 58, 100
2, 2871539, Note_on_c, 0, 61, 100
2, 2871832, Note_off_c, 0, 61, 100
2, 2872310, Note_on_c, 0, 63, 100
2, 2872750, Note_off_c, 0, 63, 100
2, 2873040, Note_on_c, 0, 64, 100
2, 2873735, Note_on_c, 0, 65, 100
2, 2874093, Note_off_c, 0, 64, 100
2, 2874405, Note_off_c, 0, 65, 100
2, 2874405, Note_on_c, 0, 65, 100
2, 2875065, Note_on_c, 0, 64, 100
2, 2875730, Note_on_c, 0, 63, 100
2, 2876032, Note_off_c, 0, 65, 100
2, 2876294, Note_off_c, 0, 63, 100
2, 2876357, Note_off_c, 0, 64, 100
2, 2876412, Note_on_c, 0, 62, 100
2, 2876968, Note_off_c, 0, 62, 100
2, 2877120, Note_on_c, 0, 60, 100
2, 2877856, Note_on_c, 0, 58, 100
2, 2878532, Note_off_c, 0, 60, 100
2, 2878618, Note_on_c, 0, 56, 100
2, 2879397, Note_on_c, 0, 54, 100
2, 2879790, Note_off_c, 0, 58, 100
2, 2880179, Note_on_c, 0, 52, 100
2, 2880578, Note_off_c, 0, 56, 100
2, 2880849, Note_off_c, 0, 52, 100
2, 2880885, Note_off_c, 0, 54, 100
2, 2880951, Note_on_c, 0, 50, 100
2, 2881381, Note_off_c, 0, 50, 100
2, 2881697, Note_on_c, 0, 50, 100
2, 2882406, Note_on_c, 0, 49, 100
2, 2882857, Note_off_c, 0, 50, 100
2, 2883074, Note_off_c, 0, 49, 100
2, 2883074, Note_on_c, 0, 49, 100
2, 2883701, Note_off_c, 0, 49, 100
2, 2883701, Note_on_c, 0, 49, 100
2, 2884344, Note_off_c, 0, 49, 100
2, 2884344, Note_on_c, 0, 49, 100
2, 2884818, Note_off_c, 0, 49, 100
2, 2885209, Note_on_c, 0, 50, 100
2, 2885419, Note_off_c, 0, 50, 100
2, 2886075, Note_on_c, 0, 50, 100
2, 2886555, Note_off_c, 0, 50, 100
2, 2886921, Note_on_c, 0, 50, 100
2, 2887406, Note_off_c, 0, 50, 100
2, 2887728, Note_on_c, 0, 51, 100
2, 2888030, Note_off_c, 0, 51, 100
2, 2888482, Note_on_c, 0, 52, 100
2, 2888586, Note_off_c, 0, 52, 100
2, 2889175, Note_on_c, 0, 52, 100
2, 2889367, Note_off_c, 0, 52, 100
2, 2889805, Note_on_c, 0, 53, 100
2, 2889936, Note_off_c, 0, 53, 100
2, 2890381, Note_on_c, 0, 53, 100
2, 2890843, Note_off_c, 0, 53, 100
2, 2890918, Note_on_c, 0, 52, 100
2, 2891602, Note_off_c, 0, 52, 100
2, 2891602, Note_on_c, 0, 52, 100
2, 2892518, Note_on_c, 0, 51, 100
2, 2892743, Note_off_c, 0, 52, 100
2, 2893406, Note_on_c, 0, 50, 100
2, 2893646, Note_off_c, 0, 51, 100
2, 2894153, Note_off_c, 0, 50, 100
2, 2894246, Note_on_c, 0, 50, 100
2, 2894377, Note_off_c, 0, 50, 100
2, 2895024, Note_on_c, 0, 48, 100
2, 2895735, Note_off_c, 0, 48, 100
2, 2895735, Note_on_c, 0, 48, 100
2, 2896380, Note_on_c, 0, 47, 100
2, 2896971, Note_on_c, 0, 46, 100
2, 2897350, Note_off_c, 0, 48, 100
2, 2897526, Note_off_c, 0, 47, 100
2, 2897526, Note_on_c, 0, 47, 100
2, 2898066, Note_off_c, 0, 47, 100
2, 2898066, Note_on_c, 0, 47, 100
2, 2898617, Note_off_c, 0, 47, 100
2, 2898711, Note_off_c, 0, 46, 100
2, 2898827, Note_on_c, 0, 48, 100
2, 2899694, Note_on_c, 0, 49, 100
2, 2899801, Note_off_c, 0, 48, 100
2, 2900518, Note_on_c, 0, 50, 100
2, 2901291, Note_on_c, 0, 52, 100
2, 2901345, Note_off_c, 0, 49, 100
2, 2902012, Note_on_c, 0, 55, 100
2, 2902396, Note_off_c, 0, 50, 100
2, 2902686, Note_on_c, 0, 57, 100
2, 2902910, Note_off_c, 0, 52, 100
2, 2902911, Note_off_c, 0, 57, 100
2, 2903005, Note_off_c, 0, 55, 100
2, 2903327, Note_on_c, 0, 60, 100
2, 2903951, Note_on_c, 0, 62, 100
2, 2903955, Note_off_c, 0, 60, 100
2, 2904573, Note_on_c, 0, 64, 100
2, 2904952, Note_off_c, 0, 62, 100
2, 2905210, Note_on_c, 0, 65, 100
2, 2905600, Note_off_c, 0, 64, 100
2, 2905966, Note_on_c, 0, 66, 100
2, 2905989, Note_off_c, 0, 65, 100
2, 2906389, Note_off_c, 0, 66, 100
2, 2906712, Note_on_c, 0, 66, 100
2, 2906854, Note_off_c, 0, 66, 100
2, 2907426, Note_on_c, 0, 66, 100
2, 2907558, Note_off_c, 0, 66, 100
2, 2908116, Note_on_c, 0, 65, 100
2, 2908301, Note_off_c, 0, 65, 100
2, 2908807, Note_on_c, 0, 63, 100
2, 2909231, Note_off_c, 0, 63, 100
2, 2909570, Note_on_c, 0, 61, 100
2, 2910181, Note_off_c, 0, 61, 100
2, 2910319, Note_on_c, 0, 58, 100
2, 2910909, Note_off_c, 0, 58, 100
2, 2911042, Note_on_c, 0, 55, 100
2, 2911329, Note_off_c, 0, 55, 100
2, 2911734, Note_on_c, 0, 52, 100
2, 2912176, Note_off_c, 0, 52, 100
2, 2912405, Note_on_c, 0, 49, 100
2, 2913212, Note_on_c, 0, 46, 100
2, 2913457, Note_off_c, 0, 49, 100
2, 2914033, Note_on_c, 0, 44, 100
2, 2914723, Note_off_c, 0, 46, 100
2, 2914853, Note_on_c, 0, 42, 100
2, 2915653, Note_off_c, 0, 44, 100
2, 2915655, Note_on_c, 0, 40, 100
2, 2916137, Note_off_c, 0, 42, 100
2, 2916210, Note_off_c, 0, 40, 100
2, 2916423, Note_on_c, 0, 39, 100
2, 2916986, Note_off_c, 0, 39, 100
2, 2917144, Note_on_c, 0, 39, 100
2, 2917812, Note_on_c, 0, 40, 100
2, 2918428, Note_on_c, 0, 41, 100
2, 2918561, Note_off_c, 0, 39, 100
2, 2919000, Note_on_c, 0, 42, 100
2, 2919654, Note_on_c, 0, 45, 100
2, 2919748, Note_off_c, 0, 40, 100
2, 2920317, Note_off_c, 0, 45, 100
2, 2920387, Note_off_c, 0, 41, 100
2, 2920484, Note_off_c, 0, 42, 100
2, 2920557, Note_on_c, 0, 47, 100
2, 2920995, Note_off_c, 0, 47, 100
2, 2921445, Note_on_c, 0, 50, 100
2, 2922297, Note_on_c, 0, 52, 100
2, 2922613, Note_off_c, 0, 50, 100
2, 2923095, Note_on_c, 0, 54, 100
2, 2923821, Note_off_c, 0, 52, 100
2, 2923828, Note_on_c, 0, 56, 100
2, 2924494, Note_on_c, 0, 58, 100
2, 2924545, Note_off_c, 0, 54, 100
2, 2924864, Note_off_c, 0, 56, 100
2, 2924967, Note_off_c, 0, 58, 100
2, 2925096, Note_on_c, 0, 60, 100
2, 2925310, Note_off_c, 0, 60, 100
2, 2925651, Note_on_c, 0, 61, 100
2, 2926138, Note_off_c, 0, 61, 100
2, 2926176, Note_on_c, 0, 61, 100
2, 2926669, Note_off_c, 0, 61, 100
2, 2926904, Note_on_c, 0, 61, 100
2, 2927214, Note_off_c, 0, 61, 100
2, 2927808, Note_on_c, 0, 61, 100
2, 2927905, Note_off_c, 0, 61, 100
2, 2928673, Note_on_c, 0, 60, 100
2, 2928861, Note_off_c, 0, 60, 100
2, 2929484, Note_on_c, 0, 59, 100
2, 2929616, Note_off_c, 0, 59, 100
2, 2930234, Note_on_c, 0, 57, 100
2, 2930694, Note_off_c, 0, 57, 100
2, 2930923, Note_on_c, 0, 56, 100
2, 2931559, Note_on_c, 0, 55, 100
2, 2931780, Note_off_c, 0, 56, 100
2, 2932157, Note_on_c, 0, 53, 100
2, 2932692, Note_off_c, 0, 55, 100
2, 2932735, Note_off_c, 0, 53, 100
2, 2932735, Note_on_c, 0, 53, 100
2, 2933313, Note_on_c, 0, 52, 100
2, 2933451, Note_off_c, 0, 52, 100
2, 2933474, Note_off_c, 0, 53, 100
2, 2934090, Note_on_c, 0, 52, 100
2, 2934901, Note_on_c, 0, 51, 100
2, 2935034, Note_off_c, 0, 52, 100
2, 2935673, Note_on_c, 0, 52, 100
2, 2936403, Note_off_c, 0, 52, 100
2, 2936403, Note_on_c, 0, 52, 100
2, 2936517, Note_off_c, 0, 51, 100
2, 2937097, Note_on_c, 0, 53, 100
2, 2937768, Note_on_c, 0, 54, 100
2, 2937919, Note_off_c, 0, 54, 100
2, 2938137, Note_off_c, 0, 52, 100
2, 2938181, Note_off_c, 0, 53, 100
2, 2938427, Note_on_c, 0, 54, 100
2, 2939091, Note_on_c, 0, 55, 100
2, 2939409, Note_off_c, 0, 54, 100
2, 2939772, Note_off_c, 0, 55, 100
2, 2939772, Note_on_c, 0, 55, 100
2, 2940480, Note_off_c, 0, 55, 100
2, 2940480, Note_on_c, 0, 55, 100
2, 2941215, Note_off_c, 0, 55, 100
2, 2941215, Note_on_c, 0, 55, 100
2, 2941977, Note_on_c, 0, 54, 100
2, 2942196, Note_off_c, 0, 54, 100
2, 2942205, Note_off_c, 0, 55, 100
2, 2942755, Note_on_c, 0, 53, 100
2, 2943391, Note_off_c, 0, 53, 100
2, 2943537, Note_on_c, 0, 52, 100
2, 2944308, Note_on_c, 0, 50, 100
2, 2944546, Note_off_c, 0, 52, 100
2, 2945054, Note_off_c, 0, 50, 100
2, 2945054, Note_on_c, 0, 50, 100
2, 2945764, Note_on_c, 0, 48, 100
2, 2945839, Note_off_c, 0, 50, 100
2, 2946190, Note_off_c, 0, 48, 100
2, 2946431, Note_on_c, 0, 46, 100
2, 2946573, Note_off_c, 0, 46, 100
2, 2947059, Note_on_c, 0, 45, 100
2, 2947195, Note_off_c, 0, 45, 100
2, 2947706, Note_on_c, 0, 44, 100
2, 2947885, Note_off_c, 0, 44, 100
2, 2948571, Note_on_c, 0, 43, 100
2, 2948987, Note_off_c, 0, 43, 100
2, 2949435, Note_on_c, 0, 43, 100
2, 2950038, Note_off_c, 0, 43, 100
2, 2950281, Note_on_c, 0, 43, 100
2, 2950864, Note_off_c, 0, 43, 100
2, 2951087, Note_on_c, 0, 44, 100
2, 2951368, Note_off_c, 0, 44, 100
2, 2951841, Note_on_c, 0, 45, 100
2, 2952286, Note_off_c, 0, 45, 100
2, 2952533, Note_on_c, 0, 47, 100
2, 2953163, Note_on_c, 0, 50, 100
2, 2953585, Note_off_c, 0, 47, 100
2, 2953739, Note_on_c, 0, 51, 100
2, 2954276, Note_on_c, 0, 54, 100
2, 2954670, Note_off_c, 0, 50, 100
2, 2954965, Note_on_c, 0, 57, 100
2, 2955353, Note_off_c, 0, 51, 100
2, 2955512, Note_off_c, 0, 57, 100
2, 2955552, Note_off_c, 0, 54, 100
2, 2955881, Note_on_c, 0, 60, 100
2, 2956452, Note_off_c, 0, 60, 100
2, 2956769, Note_on_c, 0, 63, 100
2, 2957608, Note_on_c, 0, 65, 100
2, 2958191, Note_off_c, 0, 63, 100
2, 2958385, Note_on_c, 0, 66, 100
2, 2959095, Note_on_c, 0, 67, 100
2, 2959546, Note_off_c, 0, 65, 100
2, 2959739, Note_off_c, 0, 67, 100
2, 2959739, Note_on_c, 0, 67, 100
2, 2960330, Note_off_c, 0, 67, 100
2, 2960330, Note_on_c, 0, 67, 100
2, 2960343, Note_off_c, 0, 66, 100
2, 2960777, Note_off_c, 0, 67, 100
2, 2960884, Note_on_c, 0, 66, 100
2, 2961423, Note_on_c, 0, 64, 100
2, 2962061, Note_off_c, 0, 66, 100
2, 2962190, Note_on_c, 0, 61, 100
2, 2962955, Note_off_c, 0, 64, 100
2, 2963056, Note_on_c, 0, 59, 100
2, 2963645, Note_off_c, 0, 61, 100
2, 2963880, Note_on_c, 0, 56, 100
2, 2964093, Note_off_c, 0, 59, 100
2, 2964351, Note_off_c, 0, 56, 100
2, 2964653, Note_on_c, 0, 53, 100
2, 2964872, Note_off_c, 0, 53, 100
2, 2965374, Note_on_c, 0, 50, 100
2, 2965868, Note_off_c, 0, 50, 100
2, 2966048, Note_on_c, 0, 48, 100
2, 2966550, Note_off_c, 0, 48, 100
2, 2966689, Note_on_c, 0, 45, 100
2, 2967008, Note_off_c, 0, 45, 100
2, 2967311, Note_on_c, 0, 43, 100
2, 2967411, Note_off_c, 0, 43, 100
2, 2967933, Note_on_c, 0, 42, 100
2, 2968116, Note_off_c, 0, 42, 100
2, 2968569, Note_on_c, 0, 41, 100
2, 2968703, Note_off_c, 0, 41, 100
2, 2969328, Note_on_c, 0, 41, 100
2, 2969786, Note_off_c, 0, 41, 100
2, 2970074, Note_on_c, 0, 42, 100
2, 2970789, Note_on_c, 0, 43, 100
2, 2970926, Note_off_c, 0, 42, 100
2, 2971479, Note_on_c, 0, 44, 100
2, 2971915, Note_off_c, 0, 43, 100
2, 2972164, Note_on_c, 0, 46, 100
2, 2972590, Note_off_c, 0, 44, 100
2, 2972895, Note_off_c, 0, 46, 100
2, 2972927, Note_on_c, 0, 48, 100
2, 2973072, Note_off_c, 0, 48, 100
2, 2973676, Note_on_c, 0, 50, 100
2, 2974400, Note_on_c, 0, 51, 100
2, 2974624, Note_off_c, 0, 50, 100
2, 2975093, Note_on_c, 0, 53, 100
2, 2975766, Note_on_c, 0, 55, 100
2, 2976017, Note_off_c, 0, 51, 100
2, 2976572, Note_on_c, 0, 56, 100
2, 2977012, Note_off_c, 0, 53, 100
2, 2977393, Note_on_c, 0, 57, 100
2, 2977495, Note_off_c, 0, 55, 100
2, 2977535, Note_off_c, 0, 57, 100
2, 2977648, Note_off_c, 0, 56, 100
2, 2978212, Note_on_c, 0, 57, 100
2, 2979014, Note_off_c, 0, 57, 100
2, 2979014, Note_on_c, 0, 57, 100
2, 2979781, Note_off_c, 0, 57, 100
2, 2979781, Note_on_c, 0, 57, 100
2, 2980501, Note_on_c, 0, 56, 100
2, 2981169, Note_off_c, 0, 56, 100
2, 2981169, Note_on_c, 0, 56, 100
2, 2981666, Note_off_c, 0, 57, 100
2, 2981785, Note_on_c, 0, 55, 100
2, 2981998, Note_off_c, 0, 55, 100
2, 2982156, Note_off_c, 0, 56, 100
2, 2982357, Note_on_c, 0, 54, 100
2, 2983000, Note_off_c, 0, 54, 100
2, 2983016, Note_on_c, 0, 53, 100
2, 2983919, Note_off_c, 0, 53, 100
2, 2983919, Note_on_c, 0, 53, 100
2, 2984806, Note_on_c, 0, 52, 100
2, 2984961, Note_off_c, 0, 53, 100
2, 2985597, Note_off_c, 0, 52, 100
2, 2985658, Note_on_c, 0, 52, 100
2, 2986087, Note_off_c, 0, 52, 100
2, 2986455, Note_on_c, 0, 53, 100
2, 2986597, Note_off_c, 0, 53, 100
2, 2987188, Note_on_c, 0, 53, 100
2, 2987328, Note_off_c, 0, 53, 100
2, 2987852, Note_on_c, 0, 54, 100
2, 2988025, Note_off_c, 0, 54, 100
2, 2988455, Note_on_c, 0, 55, 100
2, 2988863, Note_off_c, 0, 55, 100
2, 2989008, Note_on_c, 0, 56, 100
2, 2989533, Note_on_c, 0, 57, 100
2, 2989602, Note_off_c, 0, 56, 100
2, 2990108, Note_off_c, 0, 57, 100
2, 2990267, Note_on_c, 0, 58, 100
2, 2990543, Note_off_c, 0, 58, 100
2, 2991170, Note_on_c, 0, 59, 100
2, 2991618, Note_off_c, 0, 59, 100
2, 2992035, Note_on_c, 0, 59, 100
2, 2992847, Note_off_c, 0, 59, 100
2, 2992847, Note_on_c, 0, 59, 100
2, 2993596, Note_off_c, 0, 59, 100
2, 2993596, Note_on_c, 0, 59, 100
2, 2994284, Note_on_c, 0, 58, 100
2, 2994920, Note_on_c, 0, 57, 100
2, 2995203, Note_off_c, 0, 59, 100
2, 2995458, Note_off_c, 0, 57, 100
2, 2995517, Note_on_c, 0, 55, 100
2, 2995552, Note_off_c, 0, 58, 100
2, 2996094, Note_on_c, 0, 53, 100
2, 2996095, Note_off_c, 0, 55, 100
2, 2996671, Note_on_c, 0, 50, 100
2, 2997452, Note_on_c, 0, 49, 100
2, 2997521, Note_off_c, 0, 53, 100
2, 2998264, Note_on_c, 0, 46, 100
2, 2998611, Note_off_c, 0, 50, 100
2, 2999035, Note_on_c, 0, 44, 100
2, 2999409, Note_off_c, 0, 49, 100
2, 2999684, Note_off_c, 0, 44, 100
2, 2999739, Note_off_c, 0, 46, 100
2, 2999766, Note_on_c, 0, 42, 100
2, 3000221, Note_off_c, 0, 42, 100
2, 3000460, Note_on_c, 0, 41, 100
2, 3001130, Note_on_c, 0, 40, 100
2, 3001645, Note_off_c, 0, 41, 100
2, 3001789, Note_off_c, 0, 40, 100
2, 3001789, Note_on_c, 0, 40, 100
2, 3002453, Note_off_c, 0, 40, 100
2, 3002453, Note_on_c, 0, 40, 100
2, 3003133, Note_on_c, 0, 41, 100
2, 3003492, Note_off_c, 0, 40, 100
2, 3003602, Note_off_c, 0, 41, 100
2, 3003840, Note_on_c, 0, 43, 100
2, 3004064, Note_off_c, 0, 43, 100
2, 3004575, Note_on_c, 0, 46, 100
2, 3005076, Note_off_c, 0, 46, 100
2, 3005335, Note_on_c, 0, 48, 100
2, 3005845, Note_off_c, 0, 48, 100
2, 3006113, Note_on_c, 0, 50, 100
2, 3006440, Note_off_c, 0, 50, 100
2, 3006895, Note_on_c, 0, 54, 100
2, 3007002, Note_off_c, 0, 54, 100
2, 3007666, Note_on_c, 0, 57, 100
2, 3007845, Note_off_c, 0, 57, 100
2, 3008411, Note_on_c, 0, 60, 100
2, 3008546, Note_off_c, 0, 60, 100
2, 3009121, Note_on_c, 0, 62, 100
2, 3009577, Note_off_c, 0, 62, 100
2, 3009789, Note_on_c, 0, 64, 100
2, 3010416, Note_on_c, 0, 66, 100
2, 3010635, Note_off_c, 0, 64, 100
2, 3011068, Note_on_c, 0, 67, 100
2, 3011534, Note_off_c, 0, 66, 100
2, 3011932, Note_off_c, 0, 67, 100
2, 3011932, Note_on_c, 0, 67, 100
2, 3012655, Note_off_c, 0, 67, 100
2, 3012796, Note_on_c, 0, 66, 100
2, 3012947, Note_off_c, 0, 66, 100
2, 3013640, Note_on_c, 0, 65, 100
2, 3014446, Note_on_c, 0, 64, 100
2, 3014592, Note_off_c, 0, 65, 100
2, 3015199, Note_on_c, 0, 61, 100
2, 3015891, Note_on_c, 0, 59, 100
2, 3016063, Note_off_c, 0, 64, 100
2, 3016520, Note_on_c, 0, 56, 100
2, 3017096, Note_on_c, 0, 53, 100
2, 3017115, Note_off_c, 0, 61, 100
2, 3017230, Note_off_c, 0, 53, 100
2, 3017588, Note_off_c, 0, 56, 100
2, 3017614, Note_off_c, 0, 59, 100
2, 3017633, Note_on_c, 0, 51, 100
2, 3018328, Note_on_c, 0, 49, 100
2, 3018631, Note_off_c, 0, 51, 100
2, 3019243, Note_on_c, 0, 48, 100
2, 3019998, Note_off_c, 0, 49, 100
2, 3020131, Note_on_c, 0, 46, 100
2, 3020969, Note_on_c, 0, 45, 100
2, 3021132, Note_off_c, 0, 48, 100
2, 3021746, Note_off_c, 0, 45, 100
2, 3021746, Note_on_c, 0, 45, 100
2, 3021751, Note_off_c, 0, 46, 100
2, 3022455, Note_off_c, 0, 45, 100
2, 3022455, Note_on_c, 0, 45, 100
2, 3023099, Note_off_c, 0, 45, 100
2, 3023099, Note_on_c, 0, 45, 100
2, 3023689, Note_on_c, 0, 46, 100
2, 3024243, Note_on_c, 0, 47, 100
2, 3024739, Note_off_c, 0, 46, 100
2, 3024781, Note_on_c, 0, 49, 100
2, 3025040, Note_off_c, 0, 47, 100
2, 3025213, Note_off_c, 0, 49, 100
2, 3025552, Note_on_c, 0, 50, 100
2, 3025693, Note_off_c, 0, 50, 100
2, 3026419, Note_on_c, 0, 50, 100
2, 3026562, Note_off_c, 0, 50, 100
2, 3027243, Note_on_c, 0, 52, 100
2, 3027409, Note_off_c, 0, 52, 100
2, 3028016, Note_on_c, 0, 52, 100
2, 3028416, Note_off_c, 0, 52, 100
2, 3028736, Note_on_c, 0, 53, 100
2, 3029322, Note_off_c, 0, 53, 100
2, 3029410, Note_on_c, 0, 54, 100
2, 3029978, Note_off_c, 0, 54, 100
2, 3030050, Note_on_c, 0, 54, 100
2, 3030320, Note_off_c, 0, 54, 100
2, 3030672, Note_on_c, 0, 53, 100
2, 3031122, Note_off_c, 0, 53, 100
2, 3031293, Note_on_c, 0, 53, 100
2, 3031928, Note_on_c, 0, 52, 100
2, 3032343, Note_off_c, 0, 53, 100
2, 3032689, Note_on_c, 0, 51, 100
2, 3033427, Note_off_c, 0, 52, 100
2, 3033436, Note_off_c, 0, 51, 100
2, 3033436, Note_on_c, 0, 51, 100
2, 3034151, Note_on_c, 0, 50, 100
2, 3034681, Note_off_c, 0, 50, 100
2, 3034695, Note_off_c, 0, 51, 100
2, 3034841, Note_on_c, 0, 50, 100
2, 3035426, Note_off_c, 0, 50, 100
2, 3035521, Note_on_c, 0, 50, 100
2, 3036284, Note_off_c, 0, 50, 100
2, 3036284, Note_on_c, 0, 50, 100
2, 3037034, Note_on_c, 0, 51, 100
2, 3037758, Note_on_c, 0, 52, 100
2, 3038226, Note_off_c, 0, 50, 100
2, 3038451, Note_on_c, 0, 53, 100
2, 3038990, Note_off_c, 0, 51, 100
2, 3039093, Note_off_c, 0, 53, 100
2, 3039127, Note_on_c, 0, 55, 100
2, 3039229, Note_off_c, 0, 52, 100
2, 3039590, Note_off_c, 0, 55, 100
2, 3039932, Note_on_c, 0, 56, 100
2, 3040752, Note_on_c, 0, 58, 100
2, 3041126, Note_off_c, 0, 56, 100
2, 3041571, Note_on_c, 0, 60, 100
2, 3042298, Note_off_c, 0, 58, 100
2, 3042372, Note_on_c, 0, 61, 100
2, 3043035, Note_off_c, 0, 60, 100
2, 3043138, Note_on_c, 0, 62, 100
2, 3043413, Note_off_c, 0, 61, 100
2, 3043605, Note_off_c, 0, 62, 100
2, 3043859, Note_on_c, 0, 63, 100
2, 3044088, Note_off_c, 0, 63, 100
2, 3044526, Note_on_c, 0, 63, 100
2, 3045035, Note_off_c, 0, 63, 100
2, 3045142, Note_on_c, 0, 63, 100
2, 3045661, Note_off_c, 0, 63, 100
2, 3045715, Note_on_c, 0, 62, 100
2, 3046050, Note_off_c, 0, 62, 100
2, 3046379, Note_on_c, 0, 61, 100
2, 3046493, Note_off_c, 0, 61, 100
2, 3047281, Note_on_c, 0, 59, 100
2, 3047456, Note_off_c, 0, 59, 100
2, 3048168, Note_on_c, 0, 56, 100
2, 3048304, Note_off_c, 0, 56, 100
2, 3049018, Note_on_c, 0, 53, 100
2, 3049471, Note_off_c, 0, 53, 100
2, 3049815, Note_on_c, 0, 51, 100
2, 3050547, Note_on_c, 0, 49, 100
2, 3050656, Note_off_c, 0, 51, 100
2, 3051211, Note_on_c, 0, 46, 100
2, 3051658, Note_off_c, 0, 49, 100
2, 3051813, Note_on_c, 0, 43, 100
2, 3052305, Note_off_c, 0, 46, 100
2, 3052366, Note_on_c, 0, 41, 100
2, 3052524, Note_off_c, 0, 41, 100
2, 3052528, Note_off_c, 0, 43, 100
2, 3052890, Note_on_c, 0, 40, 100
2, 3053630, Note_on_c, 0, 39, 100
2, 3053846, Note_off_c, 0, 40, 100
2, 3054533, Note_off_c, 0, 39, 100
2, 3054533, Note_on_c, 0, 39, 100
2, 3055398, Note_off_c, 0, 39, 100
2, 3055398, Note_on_c, 0, 39, 100
2, 3056209, Note_on_c, 0, 40, 100
2, 3056958, Note_on_c, 0, 42, 100
2, 3057083, Note_off_c, 0, 42, 100
2, 3057115, Note_off_c, 0, 39, 100
2, 3057270, Note_off_c, 0, 40, 100
2, 3057645, Note_off_c, 0, 45, 100
2, 3057645, Note_on_c, 0, 45, 100
2, 3058280, Note_on_c, 0, 47, 100
2, 3058876, Note_on_c, 0, 50, 100
2, 3059453, Note_on_c, 0, 52, 100
2, 3059956, Note_off_c, 0, 47, 100
2, 3060030, Note_on_c, 0, 56, 100
2, 3060768, Note_off_c, 0, 50, 100
2, 3060814, Note_on_c, 0, 58, 100
2, 3061010, Note_off_c, 0, 56, 100
2, 3061015, Note_off_c, 0, 58, 100
2, 3061073, Note_off_c, 0, 52, 100
2, 3061626, Note_on_c, 0, 61, 100
2, 3062285, Note_off_c, 0, 61, 100
2, 3062398, Note_on_c, 0, 63, 100
2, 3063128, Note_on_c, 0, 64, 100
2, 3063433, Note_off_c, 0, 63, 100
2, 3063823, Note_on_c, 0, 65, 100
2, 3064186, Note_off_c, 0, 64, 100
2, 3064492, Note_off_c, 0, 65, 100
2, 3064492, Note_on_c, 0, 65, 100
2, 3064927, Note_off_c, 0, 65, 100
2, 3065151, Note_on_c, 0, 64, 100
2, 3065292, Note_off_c, 0, 64, 100
2, 3065814, Note_on_c, 0, 63, 100
2, 3065961, Note_off_c, 0, 63, 100
2, 3066494, Note_on_c, 0, 62, 100
2, 3066654, Note_off_c, 0, 62, 100
2, 3067200, Note_on_c, 0, 60, 100
2, 3067592, Note_off_c, 0, 60, 100
2, 3067934, Note_on_c, 0, 58, 100
2, 3068511, Note_off_c, 0, 58, 100
2, 3068694, Note_on_c, 0, 56, 100
2, 3069254, Note_off_c, 0, 56, 100
2, 3069471, Note_on_c, 0, 54, 100
2, 3069736, Note_off_c, 0, 54, 100
2, 3070252, Note_on_c, 0, 52, 100
2, 3070705, Note_off_c, 0, 52, 100
2, 3071023, Note_on_c, 0, 50, 100
2, 3071768, Note_off_c, 0, 50, 100
2, 3071768, Note_on_c, 0, 50, 100
2, 3072478, Note_on_c, 0, 49, 100
2, 3073146, Note_off_c, 0, 49, 100
2, 3073146, Note_on_c, 0, 49, 100
2, 3073263, Note_off_c, 0, 50, 100
2, 3073774, Note_off_c, 0, 49, 100
2, 3073774, Note_on_c, 0, 49, 100
2, 3074397, Note_off_c, 0, 49, 100
2, 3074430, Note_on_c, 0, 49, 100
2, 3075023, Note_off_c, 0, 49, 100
2, 3075293, Note_on_c, 0, 50, 100
2, 3076156, Note_off_c, 0, 50, 100
2, 3076156, Note_on_c, 0, 50, 100
2, 3077000, Note_off_c, 0, 50, 100
2, 3077000, Note_on_c, 0, 50, 100
2, 3077805, Note_on_c, 0, 51, 100
2, 3078558, Note_on_c, 0, 52, 100
2, 3078954, Note_off_c, 0, 50, 100
2, 3079193, Note_off_c, 0, 52, 100
2, 3079249, Note_on_c, 0, 52, 100
2, 3079271, Note_off_c, 0, 51, 100
2, 3079721, Note_off_c, 0, 52, 100
2, 3079878, Note_on_c, 0, 53, 100
2, 3080453, Note_off_c, 0, 53, 100
2, 3080453, Note_on_c, 0, 53, 100
2, 3080990, Note_on_c, 0, 52, 100
2, 3081690, Note_off_c, 0, 52, 100
2, 3081690, Note_on_c, 0, 52, 100
2, 3082006, Note_off_c, 0, 53, 100
2, 3082606, Note_on_c, 0, 51, 100
2, 3082732, Note_off_c, 0, 52, 100
2, 3083072, Note_off_c, 0, 51, 100
2, 3083493, Note_on_c, 0, 50, 100
2, 3083727, Note_off_c, 0, 50, 100
2, 3084331, Note_on_c, 0, 50, 100
2, 3084847, Note_off_c, 0, 50, 100
2, 3085107, Note_on_c, 0, 49, 100
2, 3085634, Note_off_c, 0, 49, 100
2, 3085815, Note_on_c, 0, 48, 100
2, 3086158, Note_off_c, 0, 48, 100
2, 3086458, Note_on_c, 0, 47, 100
2, 3086579, Note_off_c, 0, 47, 100
2, 3087048, Note_on_c, 0, 47, 100
2, 3087218, Note_off_c, 0, 47, 100
2, 3087601, Note_on_c, 0, 47, 100
2, 3087738, Note_off_c, 0, 47, 100
2, 3088139, Note_on_c, 0, 47, 100
2, 3088590, Note_off_c, 0, 47, 100
2, 3088915, Note_on_c, 0, 48, 100
2, 3089751, Note_off_c, 0, 48, 100
2, 3089782, Note_on_c, 0, 50, 100
2, 3090606, Note_off_c, 0, 50, 100
2, 3090606, Note_on_c, 0, 50, 100
2, 3091379, Note_on_c, 0, 53, 100
2, 3091692, Note_off_c, 0, 50, 100
2, 3092086, Note_off_c, 0, 53, 100
2, 3092098, Note_on_c, 0, 55, 100
2, 3092262, Note_off_c, 0, 55, 100
2, 3092772, Note_on_c, 0, 57, 100
2, 3093411, Note_on_c, 0, 60, 100
2, 3093731, Note_off_c, 0, 57, 100
2, 3094032, Note_on_c, 0, 62, 100
2, 3094652, Note_on_c, 0, 64, 100
2, 3095030, Note_off_c, 0, 60, 100
2, 3095287, Note_on_c, 0, 65, 100
2, 3095943, Note_off_c, 0, 62, 100
2, 3096051, Note_on_c, 0, 66, 100
2, 3096168, Note_off_c, 0, 66, 100
2, 3096340, Note_off_c, 0, 65, 100
2, 3096364, Note_off_c, 0, 64, 100
2, 3096798, Note_on_c, 0, 66, 100
2, 3097514, Note_off_c, 0, 66, 100
2, 3097514, Note_on_c, 0, 66, 100
2, 3098204, Note_on_c, 0, 65, 100
2, 3098881, Note_on_c, 0, 63, 100
2, 3099196, Note_off_c, 0, 66, 100
2, 3099641, Note_on_c, 0, 60, 100
2, 3100099, Note_off_c, 0, 65, 100
2, 3100391, Note_on_c, 0, 58, 100
2, 3100501, Note_off_c, 0, 63, 100
2, 3100586, Note_off_c, 0, 58, 100
2, 3100618, Note_off_c, 0, 60, 100
2, 3101116, Note_on_c, 0, 55, 100
2, 3101783, Note_off_c, 0, 55, 100
2, 3101809, Note_on_c, 0, 51, 100
2, 3102488, Note_on_c, 0, 49, 100
2, 3102852, Note_off_c, 0, 51, 100
2, 3103293, Note_on_c, 0, 46, 100
2, 3103554, Note_off_c, 0, 49, 100
2, 3104101, Note_off_c, 0, 46, 100
2, 3104112, Note_on_c, 0, 44, 100
2, 3104550, Note_off_c, 0, 44, 100
2, 3104930, Note_on_c, 0, 42, 100
2, 3105070, Note_off_c, 0, 42, 100
2, 3105730, Note_on_c, 0, 40, 100
2, 3105881, Note_off_c, 0, 40, 100
2, 3106496, Note_on_c, 0, 39, 100
2, 3106649, Note_off_c, 0, 39, 100
2, 3107216, Note_on_c, 0, 39, 100
2, 3107600, Note_off_c, 0, 39, 100
2, 3107883, Note_on_c, 0, 40, 100
2, 3108452, Note_off_c, 0, 40, 100
2, 3108499, Note_on_c, 0, 41, 100
2, 3109052, Note_off_c, 0, 41, 100
2, 3109072, Note_on_c, 0, 42, 100
2, 3109332, Note_off_c, 0, 42, 100
2, 3109741, Note_off_c, 0, 45, 100
2, 3109741, Note_on_c, 0, 45, 100
2, 3110643, Note_on_c, 0, 47, 100
2, 3111529, Note_on_c, 0, 50, 100
2, 3111691, Note_off_c, 0, 47, 100
2, 3112379, Note_on_c, 0, 52, 100
2, 3113020, Note_off_c, 0, 50, 100
2, 3113175, Note_on_c, 0, 54, 100
2, 3113906, Note_on_c, 0, 57, 100
2, 3113966, Note_off_c, 0, 52, 100
2, 3114418, Note_off_c, 0, 54, 100
2, 3114419, Note_off_c, 0, 57, 100
2, 3114569, Note_on_c, 0, 59, 100
2, 3115169, Note_off_c, 0, 59, 100
2, 3115171, Note_on_c, 0, 60, 100
2, 3115723, Note_on_c, 0, 61, 100
2, 3116248, Note_off_c, 0, 61, 100
2, 3116248, Note_on_c, 0, 61, 100
2, 3116613, Note_off_c, 0, 60, 100
2, 3116993, Note_off_c, 0, 61, 100
2, 3116993, Note_on_c, 0, 61, 100
2, 3117896, Note_off_c, 0, 61, 100
2, 3117896, Note_on_c, 0, 61, 100
2, 3118524, Note_off_c, 0, 61, 100
2, 3118760, Note_on_c, 0, 60, 100
2, 3119240, Note_off_c, 0, 60, 100
2, 3119571, Note_on_c, 0, 59, 100
2, 3120319, Note_on_c, 0, 57, 100
2, 3120781, Note_off_c, 0, 59, 100
2, 3121006, Note_on_c, 0, 56, 100
2, 3121640, Note_on_c, 0, 55, 100
2, 3121879, Note_off_c, 0, 57, 100
2, 3122236, Note_on_c, 0, 53, 100
2, 3122480, Note_off_c, 0, 56, 100
2, 3122683, Note_off_c, 0, 55, 100
2, 3122700, Note_off_c, 0, 53, 100
2, 3122812, Note_on_c, 0, 52, 100
2, 3123051, Note_off_c, 0, 52, 100
2, 3123388, Note_on_c, 0, 52, 100
2, 3123911, Note_off_c, 0, 52, 100
2, 3124176, Note_on_c, 0, 51, 100
2, 3124711, Note_off_c, 0, 51, 100
2, 3124989, Note_on_c, 0, 51, 100
2, 3125341, Note_off_c, 0, 51, 100
2, 3125761, Note_on_c, 0, 52, 100
2, 3125888, Note_off_c, 0, 52, 100
2, 3126491, Note_on_c, 0, 52, 100
2, 3126657, Note_off_c, 0, 52, 100
2, 3127186, Note_on_c, 0, 53, 100
2, 3127324, Note_off_c, 0, 53, 100
2, 3127855, Note_on_c, 0, 54, 100
2, 3128304, Note_off_c, 0, 54, 100
2, 3128513, Note_on_c, 0, 54, 100
2, 3129175, Note_on_c, 0, 55, 100
2, 3129343, Note_off_c, 0, 54, 100
2, 3129855, Note_off_c, 0, 55, 100
2, 3129855, Note_on_c, 0, 55, 100
2, 3130560, Note_off_c, 0, 55, 100
2, 3130560, Note_on_c, 0, 55, 100
2, 3131259, Note_off_c, 0, 55, 100
2, 3131293, Note_on_c, 0, 55, 100
2, 3131463, Note_off_c, 0, 55, 100
2, 3132053, Note_on_c, 0, 54, 100
2, 3132829, Note_on_c, 0, 53, 100
2, 3133016, Note_off_c, 0, 54, 100
2, 3133610, Note_on_c, 0, 52, 100
2, 3134380, Note_on_c, 0, 50, 100
2, 3134448, Note_off_c, 0, 53, 100
2, 3135126, Note_off_c, 0, 50, 100
2, 3135126, Note_on_c, 0, 50, 100
2, 3135518, Note_off_c, 0, 52, 100
2, 3135835, Note_on_c, 0, 48, 100
2, 3135943, Note_off_c, 0, 48, 100
2, 3136171, Note_off_c, 0, 50, 100
2, 3136504, Note_on_c, 0, 46, 100
2, 3137132, Note_off_c, 0, 45, 100
2, 3137132, Note_on_c, 0, 45, 100
2, 3137526, Note_off_c, 0, 46, 100
2, 3137791, Note_on_c, 0, 44, 100
2, 3138654, Note_on_c, 0, 43, 100
2, 3139517, Note_off_c, 0, 43, 100
2, 3139517, Note_on_c, 0, 43, 100
2, 3139690, Note_off_c, 0, 44, 100
2, 3140360, Note_off_c, 0, 43, 100
2, 3140360, Note_on_c, 0, 43, 100
2, 3140549, Note_off_c, 0, 43, 100
2, 3141164, Note_on_c, 0, 44, 100
2, 3141839, Note_off_c, 0, 44, 100
2, 3141916, Note_off_c, 0, 45, 100
2, 3141916, Note_on_c, 0, 45, 100
2, 3142606, Note_on_c, 0, 47, 100
2, 3143235, Note_on_c, 0, 50, 100
2, 3143679, Note_off_c, 0, 47, 100
2, 3143810, Note_on_c, 0, 52, 100
2, 3144049, Note_off_c, 0, 50, 100
2, 3144251, Note_off_c, 0, 52, 100
2, 3144347, Note_on_c, 0, 55, 100
2, 3144487, Note_off_c, 0, 55, 100
2, 3145053, Note_on_c, 0, 57, 100
2, 3145208, Note_off_c, 0, 57, 100
2, 3145968, Note_on_c, 0, 60, 100
2, 3146115, Note_off_c, 0, 60, 100
2, 3146855, Note_on_c, 0, 63, 100
2, 3147231, Note_off_c, 0, 63, 100
2, 3147692, Note_on_c, 0, 65, 100
2, 3148252, Note_off_c, 0, 65, 100
2, 3148468, Note_on_c, 0, 66, 100
2, 3149013, Note_off_c, 0, 66, 100
2, 3149175, Note_on_c, 0, 67, 100
2, 3149429, Note_off_c, 0, 67, 100
2, 3149818, Note_on_c, 0, 67, 100
2, 3150275, Note_off_c, 0, 67, 100
2, 3150406, Note_on_c, 0, 67, 100
2, 3150959, Note_on_c, 0, 66, 100
2, 3151453, Note_off_c, 0, 67, 100
2, 3151496, Note_on_c, 0, 64, 100
2, 3152278, Note_on_c, 0, 61, 100
2, 3152446, Note_off_c, 0, 66, 100
2, 3153076, Note_off_c, 0, 64, 100
2, 3153145, Note_on_c, 0, 59, 100
2, 3153513, Note_off_c, 0, 61, 100
2, 3153650, Note_off_c, 0, 59, 100
2, 3153969, Note_on_c, 0, 56, 100
2, 3154576, Note_off_c, 0, 56, 100
2, 3154741, Note_on_c, 0, 52, 100
2, 3155461, Note_on_c, 0, 50, 100
2, 3156134, Note_on_c, 0, 48, 100
2, 3156188, Note_off_c, 0, 52, 100
2, 3156772, Note_off_c, 0, 45, 100
2, 3156772, Note_on_c, 0, 45, 100
2, 3157393, Note_on_c, 0, 43, 100
2, 3157409, Note_off_c, 0, 50, 100
2, 3158012, Note_on_c, 0, 42, 100
2, 3158014, Note_off_c, 0, 43, 100
2, 3158085, Note_off_c, 0, 48, 100
2, 3158500, Note_off_c, 0, 42, 100
2, 3158646, Note_on_c, 0, 41, 100
2, 3159413, Note_off_c, 0, 41, 100
2, 3159413, Note_on_c, 0, 41, 100
2, 3160160, Note_on_c, 0, 42, 100
2, 3160876, Note_on_c, 0, 43, 100
2, 3160980, Note_off_c, 0, 41, 100
2, 3161567, Note_on_c, 0, 44, 100
2, 3161638, Note_off_c, 0, 42, 100
2, 3161921, Note_off_c, 0, 43, 100
2, 3162028, Note_off_c, 0, 44, 100
2, 3162244, Note_on_c, 0, 46, 100
2, 3162488, Note_off_c, 0, 46, 100
2, 3162999, Note_on_c, 0, 48, 100
2, 3163530, Note_off_c, 0, 48, 100
2, 3163749, Note_on_c, 0, 50, 100
2, 3164293, Note_off_c, 0, 50, 100
2, 3164474, Note_on_c, 0, 51, 100
2, 3164834, Note_off_c, 0, 51, 100
2, 3165168, Note_on_c, 0, 53, 100
2, 3165302, Note_off_c, 0, 53, 100
2, 3165849, Note_on_c, 0, 55, 100
2, 3166011, Note_off_c, 0, 55, 100
2, 3166653, Note_on_c, 0, 56, 100
2, 3166791, Note_off_c, 0, 56, 100
2, 3167471, Note_on_c, 0, 57, 100
2, 3167917, Note_off_c, 0, 57, 100
2, 3168289, Note_on_c, 0, 57, 100
2, 3169088, Note_off_c, 0, 57, 100
2, 3169088, Note_on_c, 0, 57, 100
2, 3169854, Note_off_c, 0, 57, 100
2, 3169854, Note_on_c, 0, 57, 100
2, 3170573, Note_on_c, 0, 56, 100
2, 3170923, Note_off_c, 0, 57, 100
2, 3171240, Note_off_c, 0, 56, 100
2, 3171240, Note_on_c, 0, 56, 100
2, 3171417, Note_off_c, 0, 56, 100
2, 3171856, Note_on_c, 0, 55, 100
2, 3172430, Note_on_c, 0, 54, 100
2, 3172823, Note_off_c, 0, 55, 100
2, 3173103, Note_on_c, 0, 53, 100
2, 3174004, Note_off_c, 0, 53, 100
2, 3174004, Note_on_c, 0, 53, 100
2, 3174049, Note_off_c, 0, 54, 100
2, 3174890, Note_on_c, 0, 52, 100
2, 3175704, Note_off_c, 0, 53, 100
2, 3175739, Note_off_c, 0, 52, 100
2, 3175739, Note_on_c, 0, 52, 100
2, 3175927, Note_off_c, 0, 52, 100
2, 3176535, Note_on_c, 0, 53, 100
2, 3177265, Note_off_c, 0, 53, 100
2, 3177265, Note_on_c, 0, 53, 100
2, 3177928, Note_on_c, 0, 54, 100
2, 3178528, Note_on_c, 0, 55, 100
2, 3178959, Note_off_c, 0, 53, 100
2, 3179081, Note_on_c, 0, 56, 100
2, 3179605, Note_on_c, 0, 57, 100
2, 3179788, Note_off_c, 0, 57, 100
2, 3179830, Note_off_c, 0, 54, 100
2, 3180051, Note_off_c, 0, 56, 100
2, 3180147, Note_off_c, 0, 55, 100
2, 3180356, Note_on_c, 0, 58, 100
2, 3181039, Note_off_c, 0, 58, 100
2, 3181259, Note_on_c, 0, 59, 100
2, 3182123, Note_off_c, 0, 59, 100
2, 3182123, Note_on_c, 0, 59, 100
2, 3182933, Note_off_c, 0, 59, 100
2, 3182933, Note_on_c, 0, 59, 100
2, 3183681, Note_off_c, 0, 59, 100
2, 3183681, Note_on_c, 0, 59, 100
2, 3184124, Note_off_c, 0, 59, 100
2, 3184367, Note_on_c, 0, 58, 100
2, 3184506, Note_off_c, 0, 58, 100
2, 3185001, Note_on_c, 0, 56, 100
2, 3185159, Note_off_c, 0, 56, 100
2, 3185595, Note_on_c, 0, 55, 100
2, 3185735, Note_off_c, 0, 55, 100
2, 3186171, Note_on_c, 0, 52, 100
2, 3186539, Note_off_c, 0, 52, 100
2, 3186746, Note_on_c, 0, 50, 100
2, 3187298, Note_off_c, 0, 50, 100
2, 3187539, Note_on_c, 0, 49, 100
2, 3188077, Note_off_c, 0, 49, 100
2, 3188352, Note_on_c, 0, 46, 100
2, 3188601, Note_off_c, 0, 46, 100
2, 3189124, Note_on_c, 0, 44, 100
2, 3189583, Note_off_c, 0, 44, 100
2, 3189854, Note_on_c, 0, 42, 100
2, 3190548, Note_on_c, 0, 41, 100
2, 3190900, Note_off_c, 0, 42, 100
2, 3191217, Note_on_c, 0, 40, 100
2, 3191875, Note_off_c, 0, 40, 100
2, 3191875, Note_on_c, 0, 40, 100
2, 3192030, Note_off_c, 0, 41, 100
2, 3192537, Note_off_c, 0, 40, 100
2, 3192537, Note_on_c, 0, 40, 100
2, 3193101, Note_off_c, 0, 40, 100
2, 3193215, Note_on_c, 0, 42, 100
2, 3193829, Note_off_c, 0, 42, 100
2, 3193920, Note_on_c, 0, 43, 100
2, 3194652, Note_on_c, 0, 46, 100
2, 3195372, Note_off_c, 0, 43, 100
2, 3195411, Note_on_c, 0, 48, 100
2, 3196187, Note_on_c, 0, 50, 100
2, 3196601, Note_off_c, 0, 46, 100
2, 3196968, Note_on_c, 0, 54, 100
2, 3197360, Note_off_c, 0, 48, 100
2, 3197582, Note_off_c, 0, 54, 100
2, 3197639, Note_off_c, 0, 50, 100
2, 3197737, Note_on_c, 0, 57, 100
2, 3198234, Note_off_c, 0, 57, 100
2, 3198483, Note_on_c, 0, 60, 100
2, 3199193, Note_on_c, 0, 62, 100
2, 3199710, Note_off_c, 0, 60, 100
2, 3199861, Note_on_c, 0, 64, 100
2, 3200490, Note_on_c, 0, 66, 100
2, 3200767, Note_off_c, 0, 62, 100
2, 3201153, Note_on_c, 0, 67, 100
2, 3201343, Note_off_c, 0, 64, 100
2, 3201536, Note_off_c, 0, 66, 100
2, 3201612, Note_off_c, 0, 67, 100
2, 3202015, Note_on_c, 0, 67, 100
2, 3202264, Note_off_c, 0, 67, 100
2, 3202877, Note_on_c, 0, 66, 100
2, 3203415, Note_off_c, 0, 66, 100
2, 3203719, Note_on_c, 0, 65, 100
2, 3204271, Note_off_c, 0, 65, 100
2, 3204523, Note_on_c, 0, 64, 100
2, 3204891, Note_off_c, 0, 64, 100
2, 3205274, Note_on_c, 0, 61, 100
2, 3205415, Note_off_c, 0, 61, 100
2, 3205964, Note_on_c, 0, 59, 100
2, 3206122, Note_off_c, 0, 59, 100
2, 3206593, Note_on_c, 0, 56, 100
2, 3206732, Note_off_c, 0, 56, 100
2, 3207168, Note_on_c, 0, 53, 100
2, 3207611, Note_off_c, 0, 53, 100
2, 3207704, Note_on_c, 0, 51, 100
2, 3208416, Note_on_c, 0, 49, 100
2, 3208523, Note_off_c, 0, 51, 100
2, 3209331, Note_on_c, 0, 47, 100
2, 3209497, Note_off_c, 0, 49, 100
2, 3210217, Note_on_c, 0, 46, 100
2, 3210391, Note_off_c, 0, 47, 100
2, 3210900, Note_off_c, 0, 46, 100
2, 3211054, Note_off_c, 0, 45, 100
2, 3211054, Note_on_c, 0, 45, 100
2, 3211828, Note_on_c, 0, 44, 100
2, 3212535, Note_off_c, 0, 45, 100
2, 3212535, Note_on_c, 0, 45, 100
2, 3212798, Note_off_c, 0, 44, 100
2, 3213177, Note_off_c, 0, 45, 100
2, 3213177, Note_on_c, 0, 45, 100
2, 3213765, Note_on_c, 0, 46, 100
2, 3214317, Note_on_c, 0, 47, 100
2, 3214854, Note_on_c, 0, 49, 100
2, 3214954, Note_off_c, 0, 49, 100
2, 3215347, Note_off_c, 0, 47, 100
2, 3215459, Note_off_c, 0, 46, 100
2, 3215640, Note_on_c, 0, 50, 100
2, 3216508, Note_off_c, 0, 50, 100
2, 3216508, Note_on_c, 0, 50, 100
2, 3217332, Note_on_c, 0, 52, 100
2, 3218104, Note_on_c, 0, 53, 100
2, 3218208, Note_off_c, 0, 50, 100
2, 3218823, Note_off_c, 0, 53, 100
2, 3218823, Note_on_c, 0, 53, 100
2, 3219237, Note_off_c, 0, 52, 100
2, 3219495, Note_on_c, 0, 54, 100
2, 3219671, Note_off_c, 0, 54, 100
2, 3219790, Note_off_c, 0, 53, 100
2, 3220133, Note_on_c, 0, 54, 100
2, 3220753, Note_on_c, 0, 53, 100
2, 3220824, Note_off_c, 0, 54, 100
2, 3221372, Note_off_c, 0, 53, 100
2, 3221372, Note_on_c, 0, 53, 100
2, 3222005, Note_on_c, 0, 52, 100
2, 3222461, Note_off_c, 0, 53, 100
2, 3222774, Note_off_c, 0, 52, 100
2, 3222774, Note_on_c, 0, 52, 100
2, 3223220, Note_off_c, 0, 52, 100
2, 3223522, Note_on_c, 0, 51, 100
2, 3223660, Note_off_c, 0, 51, 100
2, 3224239, Note_on_c, 0, 50, 100
2, 3224401, Note_off_c, 0, 50, 100
2, 3224930, Note_on_c, 0, 50, 100
2, 3225064, Note_off_c, 0, 50, 100
2, 3225607, Note_on_c, 0, 50, 100
2, 3225967, Note_off_c, 0, 50, 100
2, 3226356, Note_on_c, 0, 50, 100
2, 3226900, Note_off_c, 0, 50, 100
2, 3227106, Note_on_c, 0, 51, 100
2, 3227636, Note_off_c, 0, 51, 100
2, 3227832, Note_on_c, 0, 52, 100
2, 3228076, Note_off_c, 0, 52, 100
2, 3228526, Note_on_c, 0, 53, 100
2, 3228988, Note_off_c, 0, 53, 100
2, 3229210, Note_on_c, 0, 55, 100
2, 3230013, Note_on_c, 0, 56, 100
2, 3230255, Note_off_c, 0, 55, 100
2, 3230831, Note_on_c, 0, 58, 100
2, 3231491, Note_off_c, 0, 56, 100
2, 3231647, Note_on_c, 0, 60, 100
2, 3232397, Note_off_c, 0, 58, 100
2, 3232446, Note_on_c, 0, 61, 100
2, 3232865, Note_off_c, 0, 60, 100
2, 3232934, Note_off_c, 0, 61, 100
2, 3233212, Note_on_c, 0, 62, 100
2, 3233833, Note_off_c, 0, 62, 100
2, 3233931, Note_on_c, 0, 63, 100
2, 3234598, Note_off_c, 0, 63, 100
2, 3234598, Note_on_c, 0, 63, 100
2, 3235213, Note_off_c, 0, 63, 100
2, 3235213, Note_on_c, 0, 63, 100
2, 3235787, Note_on_c, 0, 62, 100
2, 3236466, Note_on_c, 0, 61, 100
2, 3237073, Note_off_c, 0, 61, 100
2, 3237161, Note_off_c, 0, 63, 100
2, 3237234, Note_off_c, 0, 62, 100
2, 3237366, Note_on_c, 0, 59, 100
2, 3237871, Note_off_c, 0, 59, 100
2, 3238251, Note_on_c, 0, 56, 100
2, 3239100, Note_on_c, 0, 53, 100
2, 3239486, Note_off_c, 0, 56, 100
2, 3239895, Note_on_c, 0, 50, 100
2, 3240624, Note_on_c, 0, 48, 100
2, 3240680, Note_off_c, 0, 53, 100
2, 3241286, Note_on_c, 0, 46, 100
2, 3241382, Note_off_c, 0, 50, 100
2, 3241671, Note_off_c, 0, 48, 100
2, 3241743, Note_off_c, 0, 46, 100
2, 3241886, Note_on_c, 0, 43, 100
2, 3242141, Note_off_c, 0, 43, 100
2, 3242438, Note_on_c, 0, 41, 100
2, 3242962, Note_on_c, 0, 40, 100
2, 3242983, Note_off_c, 0, 41, 100
2, 3243523, Note_off_c, 0, 40, 100
2, 3243718, Note_on_c, 0, 39, 100
2, 3244094, Note_off_c, 0, 39, 100
2, 3244622, Note_on_c, 0, 39, 100
2, 3244769, Note_off_c, 0, 39, 100
2, 3245485, Note_on_c, 0, 39, 100
2, 3245639, Note_off_c, 0, 39, 100
2, 3246295, Note_on_c, 0, 40, 100
2, 3246435, Note_off_c, 0, 40, 100
2, 3247042, Note_on_c, 0, 42, 100
2, 3247483, Note_off_c, 0, 42, 100
2, 3247728, Note_off_c, 0, 45, 100
2, 3247728, Note_on_c, 0, 45, 100
2, 3248361, Note_on_c, 0, 47, 100
2, 3248955, Note_on_c, 0, 50, 100
2, 3249434, Note_off_c, 0, 47, 100
2, 3249529, Note_on_c, 0, 53, 100
2, 3250007, Note_off_c, 0, 50, 100
2, 3250104, Note_on_c, 0, 56, 100
2, 3250204, Note_off_c, 0, 53, 100
2, 3250293, Note_off_c, 0, 56, 100
2, 3250901, Note_on_c, 0, 58, 100
2, 3251714, Note_on_c, 0, 61, 100
2, 3251875, Note_off_c, 0, 58, 100
2, 3252487, Note_on_c, 0, 63, 100
2, 3253217, Note_on_c, 0, 64, 100
2, 3253334, Note_off_c, 0, 61, 100
2, 3253911, Note_on_c, 0, 65, 100
2, 3254386, Note_off_c, 0, 63, 100
2, 3254580, Note_off_c, 0, 65, 100
2, 3254580, Note_on_c, 0, 65, 100
2, 3254905, Note_off_c, 0, 64, 100
2, 3254933, Note_off_c, 0, 65, 100
2, 3255237, Note_on_c, 0, 64, 100
2, 3255898, Note_on_c, 0, 63, 100
2, 3256282, Note_off_c, 0, 64, 100
2, 3256576, Note_on_c, 0, 62, 100
2, 3257280, Note_on_c, 0, 60, 100
2, 3257604, Note_off_c, 0, 63, 100
2, 3258012, Note_on_c, 0, 58, 100
2, 3258484, Note_off_c, 0, 62, 100
2, 3258770, Note_on_c, 0, 56, 100
2, 3258899, Note_off_c, 0, 60, 100
2, 3258940, Note_off_c, 0, 56, 100
2, 3258975, Note_off_c, 0, 58, 100
2, 3259545, Note_on_c, 0, 54, 100
2, 3260244, Note_off_c, 0, 54, 100
2, 3260325, Note_on_c, 0, 52, 100
2, 3261095, Note_on_c, 0, 50, 100
2, 3261402, Note_off_c, 0, 52, 100
2, 3261840, Note_off_c, 0, 50, 100
2, 3261840, Note_on_c, 0, 50, 100
2, 3262550, Note_on_c, 0, 49, 100
2, 3262670, Note_off_c, 0, 50, 100
2, 3262999, Note_off_c, 0, 49, 100
2, 3263219, Note_on_c, 0, 49, 100
2, 3263357, Note_off_c, 0, 49, 100
2, 3263848, Note_on_c, 0, 49, 100
2, 3264015, Note_off_c, 0, 49, 100
2, 3264515, Note_on_c, 0, 49, 100
2, 3264642, Note_off_c, 0, 49, 100
2, 3265376, Note_on_c, 0, 49, 100
2, 3265727, Note_off_c, 0, 49, 100
2, 3266237, Note_on_c, 0, 50, 100
2, 3266772, Note_off_c, 0, 50, 100
2, 3267079, Note_on_c, 0, 50, 100
2, 3267602, Note_off_c, 0, 50, 100
2, 3267882, Note_on_c, 0, 51, 100
2, 3268121, Note_off_c, 0, 51, 100
2, 3268633, Note_on_c, 0, 52, 100
2, 3269097, Note_off_c, 0, 52, 100
2, 3269322, Note_on_c, 0, 52, 100
2, 3269950, Note_on_c, 0, 53, 100
2, 3270365, Note_off_c, 0, 52, 100
2, 3270525, Note_off_c, 0, 53, 100
2, 3270525, Note_on_c, 0, 53, 100
2, 3271061, Note_on_c, 0, 52, 100
2, 3271778, Note_off_c, 0, 52, 100
2, 3271778, Note_on_c, 0, 52, 100
2, 3272085, Note_off_c, 0, 53, 100
2, 3272271, Note_off_c, 0, 52, 100
2, 3272693, Note_on_c, 0, 51, 100
2, 3273322, Note_off_c, 0, 51, 100
2, 3273578, Note_on_c, 0, 50, 100
2, 3274415, Note_off_c, 0, 50, 100
2, 3274415, Note_on_c, 0, 50, 100
2, 3275189, Note_on_c, 0, 49, 100
2, 3275895, Note_on_c, 0, 48, 100
2, 3276368, Note_off_c, 0, 50, 100
2, 3276536, Note_on_c, 0, 47, 100
2, 3277124, Note_off_c, 0, 47, 100
2, 3277124, Note_on_c, 0, 47, 100
2, 3277135, Note_off_c, 0, 49, 100
2, 3277337, Note_off_c, 0, 48, 100
2, 3277638, Note_off_c, 0, 47, 100
2, 3277675, Note_on_c, 0, 47, 100
2, 3278212, Note_off_c, 0, 47, 100
2, 3278212, Note_on_c, 0, 47, 100
2, 3279003, Note_on_c, 0, 48, 100
2, 3279799, Note_off_c, 0, 47, 100
2, 3279870, Note_on_c, 0, 50, 100
2, 3280494, Note_off_c, 0, 48, 100
2, 3280694, Note_off_c, 0, 50, 100
2, 3280694, Note_on_c, 0, 50, 100
2, 3281149, Note_off_c, 0, 50, 100
2, 3281466, Note_on_c, 0, 53, 100
2, 3281726, Note_off_c, 0, 53, 100
2, 3282185, Note_on_c, 0, 55, 100
2, 3282738, Note_off_c, 0, 55, 100
2, 3282857, Note_on_c, 0, 57, 100
2, 3283426, Note_off_c, 0, 57, 100
2, 3283494, Note_on_c, 0, 60, 100
2, 3283878, Note_off_c, 0, 60, 100
2, 3284114, Note_on_c, 0, 62, 100
2, 3284268, Note_off_c, 0, 62, 100
2, 3284732, Note_on_c, 0, 64, 100
2, 3284883, Note_off_c, 0, 64, 100
2, 3285364, Note_on_c, 0, 65, 100
2, 3285504, Note_off_c, 0, 65, 100
2, 3286136, Note_on_c, 0, 66, 100
2, 3286574, Note_off_c, 0, 66, 100
2, 3286884, Note_on_c, 0, 66, 100
2, 3287601, Note_off_c, 0, 66, 100
2, 3287601, Note_on_c, 0, 66, 100
2, 3288292, Note_on_c, 0, 64, 100
2, 3288666, Note_off_c, 0, 66, 100
2, 3288969, Note_on_c, 0, 63, 100
2, 3289335, Note_off_c, 0, 64, 100
2, 3289636, Note_off_c, 0, 63, 100
2, 3289713, Note_on_c, 0, 60, 100
2, 3289908, Note_off_c, 0, 60, 100
2, 3290464, Note_on_c, 0, 58, 100
2, 3291190, Note_on_c, 0, 54, 100
2, 3291441, Note_off_c, 0, 58, 100
2, 3291885, Note_on_c, 0, 51, 100
2, 3292571, Note_on_c, 0, 49, 100
2, 3292810, Note_off_c, 0, 54, 100
2, 3293373, Note_on_c, 0, 46, 100
2, 3293780, Note_off_c, 0, 51, 100
2, 3294190, Note_on_c, 0, 44, 100
2, 3294253, Note_off_c, 0, 49, 100
2, 3294307, Note_off_c, 0, 44, 100
2, 3294387, Note_off_c, 0, 46, 100
2, 3295006, Note_on_c, 0, 41, 100
2, 3295805, Note_on_c, 0, 40, 100
2, 3296059, Note_off_c, 0, 41, 100
2, 3296569, Note_on_c, 0, 39, 100
2, 3297288, Note_off_c, 0, 39, 100
2, 3297288, Note_on_c, 0, 39, 100
2, 3297517, Note_off_c, 0, 40, 100
2, 3297955, Note_on_c, 0, 40, 100
2, 3298571, Note_on_c, 0, 41, 100
2, 3298735, Note_off_c, 0, 41, 100
2, 3298907, Note_off_c, 0, 39, 100
2, 3298914, Note_off_c, 0, 40, 100
2, 3299144, Note_on_c, 0, 43, 100
2, 3299828, Note_off_c, 0, 45, 100
2, 3299828, Note_on_c, 0, 45, 100
2, 3299851, Note_off_c, 0, 43, 100
2, 3300728, Note_on_c, 0, 47, 100
2, 3301613, Note_on_c, 0, 50, 100
2, 3301832, Note_off_c, 0, 47, 100
2, 3302449, Note_off_c, 0, 50, 100
2, 3302461, Note_on_c, 0, 52, 100
2, 3302912, Note_off_c, 0, 52, 100
2, 3303254, Note_on_c, 0, 54, 100
2, 3303391, Note_off_c, 0, 54, 100
2, 3303983, Note_on_c, 0, 57, 100
2, 3304154, Note_off_c, 0, 57, 100
2, 3304645, Note_on_c, 0, 59, 100
2, 3304766, Note_off_c, 0, 59, 100
2, 3305244, Note_on_c, 0, 60, 100
2, 3305587, Note_off_c, 0, 60, 100
2, 3305796, Note_on_c, 0, 61, 100
2, 3306319, Note_on_c, 0, 62, 100
2, 3306323, Note_off_c, 0, 61, 100
2, 3306835, Note_off_c, 0, 62, 100
2, 3307081, Note_on_c, 0, 62, 100
2, 3307315, Note_off_c, 0, 62, 100
2, 3307984, Note_on_c, 0, 61, 100
2, 3308450, Note_off_c, 0, 61, 100
2, 3308848, Note_on_c, 0, 60, 100
2, 3309657, Note_on_c, 0, 59, 100
2, 3309890, Note_off_c, 0, 60, 100
2, 3310404, Note_on_c, 0, 58, 100
2, 3311089, Note_on_c, 0, 56, 100
2, 3311126, Note_off_c, 0, 59, 100
2, 3311721, Note_on_c, 0, 55, 100
2, 3311957, Note_off_c, 0, 58, 100
2, 3312192, Note_off_c, 0, 55, 100
2, 3312291, Note_off_c, 0, 56, 100
2, 3312314, Note_on_c, 0, 53, 100
2, 3312888, Note_on_c, 0, 52, 100
2, 3312950, Note_off_c, 0, 53, 100
2, 3313463, Note_off_c, 0, 52, 100
2, 3313463, Note_on_c, 0, 52, 100
2, 3314263, Note_on_c, 0, 51, 100
2, 3315077, Note_off_c, 0, 51, 100
2, 3315077, Note_on_c, 0, 51, 100
2, 3315417, Note_off_c, 0, 52, 100
2, 3315849, Note_on_c, 0, 52, 100
2, 3316441, Note_off_c, 0, 52, 100
2, 3316514, Note_off_c, 0, 51, 100
2, 3316580, Note_on_c, 0, 52, 100
2, 3317102, Note_off_c, 0, 52, 100
2, 3317274, Note_on_c, 0, 53, 100
2, 3317942, Note_off_c, 0, 53, 100
2, 3317942, Note_on_c, 0, 53, 100
2, 3318599, Note_on_c, 0, 54, 100
2, 3319259, Note_on_c, 0, 55, 100
2, 3319536, Note_off_c, 0, 53, 100
2, 3319937, Note_off_c, 0, 55, 100
2, 3319937, Note_on_c, 0, 55, 100
2, 3320094, Note_off_c, 0, 54, 100
2, 3320389, Note_off_c, 0, 55, 100
2, 3320640, Note_on_c, 0, 55, 100
2, 3320905, Note_off_c, 0, 55, 100
2, 3321371, Note_on_c, 0, 55, 100
2, 3321931, Note_off_c, 0, 55, 100
2, 3322128, Note_on_c, 0, 54, 100
2, 3322706, Note_off_c, 0, 54, 100
2, 3322903, Note_on_c, 0, 53, 100
2, 3323295, Note_off_c, 0, 53, 100
2, 3323683, Note_on_c, 0, 52, 100
2, 3323843, Note_off_c, 0, 52, 100
2, 3324452, Note_on_c, 0, 50, 100
2, 3324599, Note_off_c, 0, 50, 100
2, 3325197, Note_on_c, 0, 50, 100
2, 3325338, Note_off_c, 0, 50, 100
2, 3325907, Note_on_c, 0, 48, 100
2, 3326342, Note_off_c, 0, 48, 100
2, 3326576, Note_on_c, 0, 46, 100
2, 3327205, Note_off_c, 0, 45, 100
2, 3327205, Note_on_c, 0, 45, 100
2, 3327378, Note_off_c, 0, 46, 100
2, 3327876, Note_on_c, 0, 44, 100
2, 3328737, Note_on_c, 0, 43, 100
2, 3328911, Note_off_c, 0, 44, 100
2, 3329396, Note_off_c, 0, 43, 100
2, 3329598, Note_on_c, 0, 43, 100
2, 3329799, Note_off_c, 0, 43, 100
2, 3330439, Note_on_c, 0, 43, 100
2, 3331241, Note_on_c, 0, 44, 100
2, 3331419, Note_off_c, 0, 43, 100
2, 3331991, Note_on_c, 0, 46, 100
2, 3332680, Note_on_c, 0, 48, 100
2, 3332861, Note_off_c, 0, 44, 100
2, 3333308, Note_on_c, 0, 50, 100
2, 3333882, Note_on_c, 0, 52, 100
2, 3333883, Note_off_c, 0, 46, 100
2, 3334007, Note_off_c, 0, 52, 100
2, 3334314, Note_off_c, 0, 50, 100
2, 3334356, Note_off_c, 0, 48, 100
2, 3334419, Note_on_c, 0, 55, 100
2, 3335141, Note_on_c, 0, 58, 100
2, 3335480, Note_off_c, 0, 55, 100
2, 3336055, Note_on_c, 0, 60, 100
2, 3336859, Note_off_c, 0, 58, 100
2, 3336940, Note_on_c, 0, 63, 100
2, 3337776, Note_on_c, 0, 65, 100
2, 3337969, Note_off_c, 0, 60, 100
2, 3338550, Note_on_c, 0, 66, 100
2, 3338558, Note_off_c, 0, 63, 100
2, 3338707, Note_off_c, 0, 66, 100
2, 3338732, Note_off_c, 0, 65, 100
2, 3339255, Note_on_c, 0, 67, 100
2, 3339896, Note_off_c, 0, 67, 100
2, 3339896, Note_on_c, 0, 67, 100
2, 3340482, Note_off_c, 0, 67, 100
2, 3340482, Note_on_c, 0, 67, 100
2, 3341033, Note_on_c, 0, 66, 100
2, 3341569, Note_on_c, 0, 64, 100
2, 3341593, Note_off_c, 0, 67, 100
2, 3341874, Note_off_c, 0, 66, 100
2, 3342023, Note_off_c, 0, 64, 100
2, 3342366, Note_on_c, 0, 61, 100
2, 3342502, Note_off_c, 0, 61, 100
2, 3343233, Note_on_c, 0, 58, 100
2, 3343408, Note_off_c, 0, 58, 100
2, 3344057, Note_on_c, 0, 55, 100
2, 3344171, Note_off_c, 0, 55, 100
2, 3344829, Note_on_c, 0, 52, 100
2, 3345164, Note_off_c, 0, 52, 100
2, 3345547, Note_on_c, 0, 50, 100
2, 3346065, Note_off_c, 0, 50, 100
2, 3346219, Note_on_c, 0, 47, 100
2, 3346727, Note_off_c, 0, 47, 100
2, 3346856, Note_off_c, 0, 45, 100
2, 3346856, Note_on_c, 0, 45, 100
2, 3347474, Note_on_c, 0, 43, 100
2, 3347941, Note_off_c, 0, 43, 100
2, 3348091, Note_on_c, 0, 42, 100
2, 3348723, Note_on_c, 0, 41, 100
2, 3349131, Note_off_c, 0, 42, 100
2, 3349497, Note_off_c, 0, 41, 100
2, 3349497, Note_on_c, 0, 41, 100
2, 3350247, Note_on_c, 0, 42, 100
2, 3350964, Note_on_c, 0, 43, 100
2, 3351043, Note_off_c, 0, 41, 100
2, 3351427, Note_off_c, 0, 43, 100
2, 3351440, Note_off_c, 0, 42, 100
2, 3351655, Note_on_c, 0, 44, 100
2, 3352298, Note_off_c, 0, 44, 100
2, 3352332, Note_on_c, 0, 46, 100
2, 3353070, Note_on_c, 0, 48, 100
2, 3353803, Note_off_c, 0, 46, 100
2, 3353821, Note_on_c, 0, 50, 100
2, 3354548, Note_on_c, 0, 51, 100
2, 3355026, Note_off_c, 0, 48, 100
2, 3355244, Note_on_c, 0, 53, 100
2, 3355763, Note_off_c, 0, 50, 100
2, 3355829, Note_off_c, 0, 53, 100
2, 3355931, Note_on_c, 0, 55, 100
2, 3355980, Note_off_c, 0, 51, 100
2, 3356461, Note_off_c, 0, 55, 100
2, 3356733, Note_on_c, 0, 56, 100
2, 3357549, Note_on_c, 0, 57, 100
2, 3357993, Note_off_c, 0, 56, 100
2, 3358365, Note_off_c, 0, 57, 100
2, 3358365, Note_on_c, 0, 57, 100
2, 3359163, Note_off_c, 0, 57, 100
2, 3359163, Note_on_c, 0, 57, 100
2, 3359927, Note_off_c, 0, 57, 100
2, 3359927, Note_on_c, 0, 57, 100
2, 3360377, Note_off_c, 0, 57, 100
2, 3360645, Note_on_c, 0, 57, 100
2, 3360916, Note_off_c, 0, 57, 100
2, 3361312, Note_on_c, 0, 56, 100
2, 3361880, Note_off_c, 0, 56, 100
2, 3361928, Note_on_c, 0, 55, 100
2, 3362502, Note_on_c, 0, 54, 100
2, 3362514, Note_off_c, 0, 55, 100
2, 3362902, Note_off_c, 0, 54, 100
2, 3363190, Note_on_c, 0, 53, 100
2, 3363357, Note_off_c, 0, 53, 100
2, 3364090, Note_on_c, 0, 53, 100
2, 3364233, Note_off_c, 0, 53, 100
2, 3364974, Note_on_c, 0, 52, 100
2, 3365115, Note_off_c, 0, 52, 100
2, 3365821, Note_on_c, 0, 52, 100
2, 3366253, Note_off_c, 0, 52, 100
2, 3366614, Note_on_c, 0, 53, 100
2, 3367342, Note_off_c, 0, 53, 100
2, 3367342, Note_on_c, 0, 53, 100
2, 3368003, Note_on_c, 0, 54, 100
2, 3368392, Note_off_c, 0, 53, 100
2, 3368602, Note_on_c, 0, 55, 100
2, 3369029, Note_off_c, 0, 54, 100
2, 3369153, Note_on_c, 0, 56, 100
2, 3369253, Note_off_c, 0, 55, 100
2, 3369360, Note_off_c, 0, 56, 100
2, 3369677, Note_on_c, 0, 57, 100
2, 3370444, Note_on_c, 0, 58, 100
2, 3370661, Note_off_c, 0, 57, 100
2, 3371347, Note_on_c, 0, 59, 100
2, 3372064, Note_off_c, 0, 58, 100
2, 3372210, Note_off_c, 0, 59, 100
2, 3372210, Note_on_c, 0, 59, 100
2, 3373019, Note_off_c, 0, 59, 100
2, 3373019, Note_on_c, 0, 59, 100
2, 3373766, Note_off_c, 0, 59, 100
2, 3373766, Note_on_c, 0, 59, 100
2, 3374017, Note_off_c, 0, 59, 100
2, 3374450, Note_on_c, 0, 58, 100
2, 3375081, Note_on_c, 0, 56, 100
2, 3375519, Note_off_c, 0, 58, 100
2, 3375674, Note_on_c, 0, 54, 100
2, 3376247, Note_on_c, 0, 52, 100
2, 3376804, Note_off_c, 0, 56, 100
2, 3376821, Note_on_c, 0, 50, 100
2, 3377590, Note_off_c, 0, 54, 100
2, 3377625, Note_on_c, 0, 49, 100
2, 3377773, Note_off_c, 0, 50, 100
2, 3377776, Note_off_c, 0, 49, 100
2, 3377864, Note_off_c, 0, 52, 100
2, 3378439, Note_on_c, 0, 46, 100
2, 3379162, Note_off_c, 0, 46, 100
2, 3379212, Note_on_c, 0, 44, 100
2, 3379943, Note_on_c, 0, 42, 100
2, 3380315, Note_off_c, 0, 44, 100
2, 3380636, Note_on_c, 0, 41, 100
2, 3381062, Note_off_c, 0, 42, 100
2, 3381304, Note_on_c, 0, 40, 100
2, 3381483, Note_off_c, 0, 41, 100
2, 3381760, Note_off_c, 0, 40, 100
2, 3381961, Note_on_c, 0, 40, 100
2, 3382096, Note_off_c, 0, 40, 100
2, 3382621, Note_on_c, 0, 40, 100
2, 3382800, Note_off_c, 0, 40, 100
2, 3383297, Note_on_c, 0, 42, 100
2, 3383404, Note_off_c, 0, 42, 100
2, 3384000, Note_on_c, 0, 43, 100
2, 3384327, Note_off_c, 0, 43, 100
2, 3384730, Note_on_c, 0, 46, 100
2, 3385240, Note_off_c, 0, 46, 100
2, 3385487, Note_on_c, 0, 49, 100
2, 3385988, Note_off_c, 0, 49, 100
2, 3386261, Note_on_c, 0, 51, 100
2, 3386485, Note_off_c, 0, 51, 100
2, 3387040, Note_on_c, 0, 54, 100
2, 3387509, Note_off_c, 0, 54, 100
2, 3387809, Note_on_c, 0, 57, 100
2, 3388554, Note_on_c, 0, 60, 100
2, 3388848, Note_off_c, 0, 57, 100
2, 3389264, Note_on_c, 0, 62, 100
2, 3389934, Note_on_c, 0, 65, 100
2, 3390014, Note_off_c, 0, 60, 100
2, 3390563, Note_on_c, 0, 66, 100
2, 3390802, Note_off_c, 0, 62, 100
2, 3391018, Note_off_c, 0, 66, 100
2, 3391119, Note_off_c, 0, 65, 100
2, 3391238, Note_on_c, 0, 67, 100
2, 3391888, Note_off_c, 0, 67, 100
2, 3392098, Note_on_c, 0, 67, 100
2, 3392958, Note_on_c, 0, 66, 100
2, 3393573, Note_off_c, 0, 67, 100
2, 3393798, Note_on_c, 0, 65, 100
2, 3394600, Note_on_c, 0, 63, 100
2, 3394915, Note_off_c, 0, 66, 100
2, 3395349, Note_on_c, 0, 61, 100
2, 3395738, Note_off_c, 0, 65, 100
2, 3395927, Note_off_c, 0, 61, 100
2, 3396027, Note_off_c, 0, 63, 100
2, 3396038, Note_on_c, 0, 59, 100
2, 3396577, Note_off_c, 0, 59, 100
2, 3396665, Note_on_c, 0, 56, 100
2, 3397239, Note_on_c, 0, 53, 100
2, 3397776, Note_on_c, 0, 51, 100
2, 3397933, Note_off_c, 0, 56, 100
2, 3398504, Note_on_c, 0, 49, 100
2, 3398846, Note_off_c, 0, 53, 100
2, 3399280, Note_off_c, 0, 51, 100
2, 3399418, Note_on_c, 0, 47, 100
2, 3399555, Note_off_c, 0, 49, 100
2, 3399866, Note_off_c, 0, 47, 100
2, 3400302, Note_on_c, 0, 46, 100
2, 3400578, Note_off_c, 0, 46, 100
2, 3401138, Note_off_c, 0, 45, 100
2, 3401138, Note_on_c, 0, 45, 100
2, 3401910, Note_on_c, 0, 44, 100
2, 3402505, Note_off_c, 0, 44, 100
2, 3402615, Note_on_c, 0, 44, 100
2, 3403023, Note_off_c, 0, 44, 100
2, 3403255, Note_off_c, 0, 45, 100
2, 3403255, Note_on_c, 0, 45, 100
2, 3403841, Note_on_c, 0, 46, 100
2, 3403980, Note_off_c, 0, 46, 100
2, 3404391, Note_on_c, 0, 47, 100
2, 3404533, Note_off_c, 0, 47, 100
2, 3404927, Note_on_c, 0, 48, 100
2, 3405356, Note_off_c, 0, 48, 100
2, 3405728, Note_on_c, 0, 50, 100
2, 3406519, Note_off_c, 0, 50, 100
2, 3406596, Note_on_c, 0, 50, 100
2, 3407420, Note_on_c, 0, 52, 100
2, 3407638, Note_off_c, 0, 50, 100
2, 3408192, Note_on_c, 0, 53, 100
2, 3408438, Note_off_c, 0, 52, 100
2, 3408835, Note_off_c, 0, 53, 100
2, 3408910, Note_on_c, 0, 53, 100
2, 3409123, Note_off_c, 0, 53, 100
2, 3409580, Note_on_c, 0, 54, 100
2, 3410217, Note_off_c, 0, 54, 100
2, 3410217, Note_on_c, 0, 54, 100
2, 3410834, Note_off_c, 0, 54, 100
2, 3410834, Note_on_c, 0, 54, 100
2, 3411451, Note_on_c, 0, 53, 100
2, 3412082, Note_on_c, 0, 52, 100
2, 3412719, Note_off_c, 0, 54, 100
2, 3412859, Note_off_c, 0, 52, 100
2, 3412859, Note_on_c, 0, 52, 100
2, 3413072, Note_off_c, 0, 52, 100
2, 3413115, Note_off_c, 0, 53, 100
2, 3413609, Note_on_c, 0, 51, 100
2, 3414326, Note_on_c, 0, 50, 100
2, 3414685, Note_off_c, 0, 51, 100
2, 3415018, Note_off_c, 0, 50, 100
2, 3415018, Note_on_c, 0, 50, 100
2, 3415695, Note_off_c, 0, 50, 100
2, 3415695, Note_on_c, 0, 50, 100
2, 3416428, Note_off_c, 0, 50, 100
2, 3416428, Note_on_c, 0, 50, 100
2, 3417179, Note_on_c, 0, 51, 100
2, 3417323, Note_off_c, 0, 51, 100
2, 3417376, Note_off_c, 0, 50, 100
2, 3417906, Note_on_c, 0, 52, 100
2, 3418602, Note_on_c, 0, 53, 100
2, 3418637, Note_off_c, 0, 52, 100
2, 3419292, Note_on_c, 0, 55, 100
2, 3419713, Note_off_c, 0, 53, 100
2, 3420093, Note_on_c, 0, 56, 100
2, 3420418, Note_off_c, 0, 55, 100
2, 3420909, Note_on_c, 0, 58, 100
2, 3420945, Note_off_c, 0, 56, 100
2, 3421367, Note_off_c, 0, 58, 100
2, 3421724, Note_on_c, 0, 60, 100
2, 3421858, Note_off_c, 0, 60, 100
2, 3422521, Note_on_c, 0, 61, 100
2, 3422704, Note_off_c, 0, 61, 100
2, 3423285, Note_on_c, 0, 62, 100
2, 3423385, Note_off_c, 0, 62, 100
2, 3424003, Note_on_c, 0, 63, 100
2, 3424321, Note_off_c, 0, 63, 100
2, 3424669, Note_on_c, 0, 63, 100
2, 3425170, Note_off_c, 0, 63, 100
2, 3425285, Note_on_c, 0, 63, 100
2, 3425779, Note_off_c, 0, 63, 100
2, 3425859, Note_on_c, 0, 62, 100
2, 3426078, Note_off_c, 0, 62, 100
2, 3426553, Note_on_c, 0, 60, 100
2, 3427024, Note_off_c, 0, 60, 100
2, 3427452, Note_on_c, 0, 58, 100
2, 3428335, Note_on_c, 0, 56, 100
2, 3428489, Note_off_c, 0, 58, 100
2, 3429182, Note_on_c, 0, 53, 100
2, 3429790, Note_off_c, 0, 56, 100
2, 3429974, Note_on_c, 0, 50, 100
2, 3430702, Note_on_c, 0, 48, 100
2, 3430713, Note_off_c, 0, 53, 100
2, 3431148, Note_off_c, 0, 48, 100
2, 3431151, Note_off_c, 0, 50, 100
2, 3431362, Note_on_c, 0, 46, 100
2, 3431960, Note_on_c, 0, 43, 100
2, 3432018, Note_off_c, 0, 46, 100
2, 3432511, Note_on_c, 0, 41, 100
2, 3433034, Note_on_c, 0, 40, 100
2, 3433440, Note_off_c, 0, 43, 100
2, 3433807, Note_on_c, 0, 39, 100
2, 3434469, Note_off_c, 0, 41, 100
2, 3434710, Note_off_c, 0, 39, 100
2, 3434710, Note_on_c, 0, 39, 100
2, 3434972, Note_off_c, 0, 40, 100
2, 3435280, Note_off_c, 0, 39, 100
2, 3435573, Note_on_c, 0, 39, 100
2, 3436120, Note_off_c, 0, 39, 100
2, 3436381, Note_on_c, 0, 40, 100
2, 3437127, Note_on_c, 0, 42, 100
2, 3437657, Note_off_c, 0, 40, 100
2, 3437811, Note_off_c, 0, 45, 100
2, 3437811, Note_on_c, 0, 45, 100
2, 3438441, Note_on_c, 0, 48, 100
2, 3438741, Note_off_c, 0, 42, 100
2, 3439033, Note_on_c, 0, 50, 100
2, 3439478, Note_off_c, 0, 50, 100
2, 3439493, Note_off_c, 0, 48, 100
2, 3439606, Note_on_c, 0, 53, 100
2, 3439888, Note_off_c, 0, 53, 100
2, 3440179, Note_on_c, 0, 56, 100
2, 3440762, Note_off_c, 0, 56, 100
2, 3440988, Note_on_c, 0, 59, 100
2, 3441591, Note_off_c, 0, 59, 100
2, 3441802, Note_on_c, 0, 61, 100
2, 3442218, Note_off_c, 0, 61, 100
2, 3442575, Note_on_c, 0, 63, 100
2, 3442754, Note_off_c, 0, 63, 100
2, 3443305, Note_on_c, 0, 64, 100
2, 3443441, Note_off_c, 0, 64, 100
2, 3443999, Note_on_c, 0, 65, 100
2, 3444141, Note_off_c, 0, 65, 100
2, 3444666, Note_on_c, 0, 65, 100
2, 3445092, Note_off_c, 0, 65, 100
2, 3445322, Note_on_c, 0, 65, 100
2, 3445982, Note_on_c, 0, 63, 100
2, 3446107, Note_off_c, 0, 65, 100
2, 3446658, Note_on_c, 0, 62, 100
2, 3447016, Note_off_c, 0, 63, 100
2, 3447360, Note_on_c, 0, 60, 100
2, 3447667, Note_off_c, 0, 62, 100
2, 3447995, Note_off_c, 0, 60, 100
2, 3448089, Note_on_c, 0, 58, 100
2, 3448308, Note_off_c, 0, 58, 100
2, 3448845, Note_on_c, 0, 56, 100
2, 3449619, Note_on_c, 0, 54, 100
2, 3449835, Note_off_c, 0, 56, 100
2, 3450398, Note_on_c, 0, 52, 100
2, 3451167, Note_on_c, 0, 50, 100
2, 3451238, Note_off_c, 0, 54, 100
2, 3451911, Note_off_c, 0, 50, 100
2, 3451911, Note_on_c, 0, 50, 100
2, 3452280, Note_off_c, 0, 52, 100
2, 3452621, Note_on_c, 0, 49, 100
2, 3452772, Note_off_c, 0, 49, 100
2, 3452893, Note_off_c, 0, 50, 100
2, 3453291, Note_on_c, 0, 49, 100
2, 3453921, Note_on_c, 0, 48, 100
2, 3454375, Note_off_c, 0, 49, 100
2, 3454599, Note_on_c, 0, 49, 100
2, 3455459, Note_off_c, 0, 49, 100
2, 3455459, Note_on_c, 0, 49, 100
2, 3455656, Note_off_c, 0, 48, 100
2, 3456318, Note_on_c, 0, 50, 100
2, 3457075, Note_off_c, 0, 49, 100
2, 3457158, Note_off_c, 0, 50, 100
2, 3457158, Note_on_c, 0, 50, 100
2, 3457296, Note_off_c, 0, 50, 100
2, 3457959, Note_on_c, 0, 51, 100
2, 3458699, Note_off_c, 0, 51, 100
2, 3458708, Note_on_c, 0, 52, 100
2, 3459395, Note_off_c, 0, 52, 100
2, 3459395, Note_on_c, 0, 52, 100
2, 3460022, Note_on_c, 0, 53, 100
2, 3460529, Note_off_c, 0, 52, 100
2, 3460597, Note_off_c, 0, 53, 100
2, 3460597, Note_on_c, 0, 53, 100
2, 3461057, Note_off_c, 0, 53, 100
2, 3461133, Note_on_c, 0, 52, 100
2, 3461265, Note_off_c, 0, 52, 100
2, 3461866, Note_on_c, 0, 52, 100
2, 3462054, Note_off_c, 0, 52, 100
2, 3462780, Note_on_c, 0, 51, 100
2, 3462878, Note_off_c, 0, 51, 100
2, 3463664, Note_on_c, 0, 50, 100
2, 3463974, Note_off_c, 0, 50, 100
2, 3464499, Note_on_c, 0, 50, 100
2, 3464992, Note_off_c, 0, 50, 100
2, 3465271, Note_on_c, 0, 49, 100
2, 3465758, Note_off_c, 0, 49, 100
2, 3465975, Note_on_c, 0, 48, 100
2, 3466189, Note_off_c, 0, 48, 100
2, 3466614, Note_on_c, 0, 47, 100
2, 3467087, Note_off_c, 0, 47, 100
2, 3467200, Note_on_c, 0, 47, 100
2, 3467749, Note_off_c, 0, 47, 100
2, 3467749, Note_on_c, 0, 47, 100
2, 3468285, Note_off_c, 0, 47, 100
2, 3468285, Note_on_c, 0, 47, 100
2, 3469091, Note_on_c, 0, 48, 100
2, 3469809, Note_off_c, 0, 47, 100
2, 3469959, Note_on_c, 0, 50, 100
2, 3470259, Note_off_c, 0, 48, 100
2, 3470397, Note_off_c, 0, 50, 100
2, 3470783, Note_on_c, 0, 51, 100
2, 3471446, Note_off_c, 0, 51, 100
2, 3471554, Note_on_c, 0, 53, 100
2, 3472272, Note_on_c, 0, 55, 100
2, 3472942, Note_on_c, 0, 57, 100
2, 3473038, Note_off_c, 0, 53, 100
2, 3473578, Note_on_c, 0, 60, 100
2, 3474195, Note_on_c, 0, 62, 100
2, 3474231, Note_off_c, 0, 55, 100
2, 3474758, Note_off_c, 0, 62, 100
2, 3474811, Note_on_c, 0, 64, 100
2, 3474878, Note_off_c, 0, 57, 100
2, 3474995, Note_off_c, 0, 60, 100
2, 3475367, Note_off_c, 0, 64, 100
2, 3475441, Note_on_c, 0, 65, 100
2, 3476221, Note_on_c, 0, 66, 100
2, 3476725, Note_off_c, 0, 65, 100
2, 3476971, Note_off_c, 0, 66, 100
2, 3476971, Note_on_c, 0, 66, 100
2, 3477689, Note_on_c, 0, 65, 100
2, 3478381, Note_on_c, 0, 64, 100
2, 3478483, Note_off_c, 0, 66, 100
2, 3478741, Note_off_c, 0, 65, 100
2, 3478823, Note_off_c, 0, 64, 100
2, 3479058, Note_on_c, 0, 62, 100
2, 3479345, Note_off_c, 0, 62, 100
2, 3479785, Note_on_c, 0, 60, 100
2, 3480376, Note_off_c, 0, 60, 100
2, 3480536, Note_on_c, 0, 57, 100
2, 3481148, Note_off_c, 0, 57, 100
2, 3481264, Note_on_c, 0, 54, 100
2, 3481688, Note_off_c, 0, 54, 100
2, 3481961, Note_on_c, 0, 51, 100
2, 3482146, Note_off_c, 0, 51, 100
2, 3482653, Note_on_c, 0, 49, 100
2, 3482785, Note_off_c, 0, 49, 100
2, 3483453, Note_on_c, 0, 46, 100
2, 3483595, Note_off_c, 0, 46, 100
2, 3484268, Note_on_c, 0, 43, 100
2, 3484691, Note_off_c, 0, 43, 100
2, 3485082, Note_on_c, 0, 41, 100
2, 3485861, Note_off_c, 0, 41, 100
2, 3485879, Note_on_c, 0, 40, 100
2, 3486642, Note_on_c, 0, 39, 100
2, 3486905, Note_off_c, 0, 40, 100
2, 3487360, Note_off_c, 0, 39, 100
2, 3487360, Note_on_c, 0, 39, 100
2, 3487987, Note_off_c, 0, 39, 100
2, 3488026, Note_on_c, 0, 40, 100
2, 3488251, Note_off_c, 0, 40, 100
2, 3488642, Note_on_c, 0, 41, 100
2, 3489216, Note_on_c, 0, 43, 100
2, 3489635, Note_off_c, 0, 41, 100
2, 3489915, Note_off_c, 0, 45, 100
2, 3489915, Note_on_c, 0, 45, 100
2, 3490813, Note_on_c, 0, 47, 100
2, 3490835, Note_off_c, 0, 43, 100
2, 3491696, Note_on_c, 0, 50, 100
2, 3492464, Note_off_c, 0, 47, 100
2, 3492542, Note_on_c, 0, 52, 100
2, 3492670, Note_off_c, 0, 50, 100
2, 3492701, Note_off_c, 0, 52, 100
2, 3493334, Note_on_c, 0, 54, 100
2, 3494061, Note_on_c, 0, 57, 100
2, 3494426, Note_off_c, 0, 54, 100
2, 3494720, Note_on_c, 0, 59, 100
2, 3495318, Note_on_c, 0, 60, 100
2, 3495801, Note_off_c, 0, 57, 100
2, 3495868, Note_on_c, 0, 61, 100
2, 3496391, Note_on_c, 0, 62, 100
2, 3496522, Note_off_c, 0, 62, 100
2, 3496644, Note_off_c, 0, 59, 100
2, 3496808, Note_off_c, 0, 61, 100
2, 3496933, Note_off_c, 0, 60, 100
2, 3497170, Note_on_c, 0, 62, 100
2, 3497918, Note_off_c, 0, 62, 100
2, 3498072, Note_on_c, 0, 61, 100
2, 3498935, Note_on_c, 0, 60, 100
2, 3499200, Note_off_c, 0, 61, 100
2, 3499743, Note_on_c, 0, 59, 100
2, 3500076, Note_off_c, 0, 60, 100
2, 3500489, Note_on_c, 0, 58, 100
2, 3500605, Note_off_c, 0, 59, 100
2, 3500951, Note_off_c, 0, 58, 100
2, 3501172, Note_on_c, 0, 56, 100
2, 3501303, Note_off_c, 0, 56, 100
2, 3501802, Note_on_c, 0, 55, 100
2, 3501994, Note_off_c, 0, 55, 100
2, 3502393, Note_on_c, 0, 53, 100
2, 3502498, Note_off_c, 0, 53, 100
2, 3502965, Note_on_c, 0, 52, 100
2, 3503267, Note_off_c, 0, 52, 100
2, 3503537, Note_on_c, 0, 52, 100
2, 3504022, Note_off_c, 0, 52, 100
2, 3504350, Note_on_c, 0, 51, 100
2, 3504830, Note_off_c, 0, 51, 100
2, 3505165, Note_on_c, 0, 51, 100
2, 3505374, Note_off_c, 0, 51, 100
2, 3505938, Note_on_c, 0, 51, 100
2, 3506412, Note_off_c, 0, 51, 100
2, 3506668, Note_on_c, 0, 52, 100
2, 3507361, Note_on_c, 0, 53, 100
2, 3507702, Note_off_c, 0, 52, 100
2, 3508029, Note_off_c, 0, 53, 100
2, 3508029, Note_on_c, 0, 53, 100
2, 3508684, Note_on_c, 0, 54, 100
2, 3509343, Note_on_c, 0, 55, 100
2, 3509546, Note_off_c, 0, 53, 100
2, 3509773, Note_off_c, 0, 55, 100
2, 3509844, Note_off_c, 0, 54, 100
2, 3510018, Note_on_c, 0, 55, 100
2, 3510688, Note_off_c, 0, 55, 100
2, 3510720, Note_on_c, 0, 55, 100
2, 3511448, Note_off_c, 0, 55, 100
2, 3511448, Note_on_c, 0, 55, 100
2, 3512204, Note_on_c, 0, 54, 100
2, 3512977, Note_on_c, 0, 53, 100
2, 3513409, Note_off_c, 0, 55, 100
2, 3513755, Note_on_c, 0, 52, 100
2, 3514137, Note_off_c, 0, 54, 100
2, 3514311, Note_off_c, 0, 52, 100
2, 3514389, Note_off_c, 0, 53, 100
2, 3514524, Note_on_c, 0, 50, 100
2, 3515088, Note_off_c, 0, 50, 100
2, 3515269, Note_on_c, 0, 50, 100
2, 3515979, Note_on_c, 0, 48, 100
2, 3516561, Note_off_c, 0, 50, 100
2, 3516649, Note_on_c, 0, 46, 100
2, 3517279, Note_off_c, 0, 45, 100
2, 3517279, Note_on_c, 0, 45, 100
2, 3517606, Note_off_c, 0, 48, 100
2, 3517961, Note_on_c, 0, 44, 100
2, 3518164, Note_off_c, 0, 46, 100
2, 3518401, Note_off_c, 0, 44, 100
2, 3518820, Note_on_c, 0, 43, 100
2, 3519113, Note_off_c, 0, 43, 100
2, 3519678, Note_on_c, 0, 43, 100
2, 3520276, Note_off_c, 0, 43, 100
2, 3520517, Note_on_c, 0, 43, 100
2, 3521137, Note_off_c, 0, 43, 100
2, 3521318, Note_on_c, 0, 44, 100
2, 3521750, Note_off_c, 0, 44, 100
2, 3522066, Note_on_c, 0, 46, 100
2, 3522258, Note_off_c, 0, 46, 100
2, 3522753, Note_on_c, 0, 48, 100
2, 3522882, Note_off_c, 0, 48, 100
2, 3523380, Note_on_c, 0, 50, 100
2, 3523522, Note_off_c, 0, 50, 100
2, 3523954, Note_on_c, 0, 52, 100
2, 3524374, Note_off_c, 0, 52, 100
2, 3524490, Note_on_c, 0, 55, 100
2, 3525229, Note_on_c, 0, 58, 100
2, 3525263, Note_off_c, 0, 55, 100
2, 3526143, Note_on_c, 0, 60, 100
2, 3526248, Note_off_c, 0, 58, 100
2, 3527026, Note_on_c, 0, 63, 100
2, 3527135, Note_off_c, 0, 60, 100
2, 3527646, Note_off_c, 0, 63, 100
2, 3527860, Note_on_c, 0, 65, 100
2, 3528091, Note_off_c, 0, 65, 100
2, 3528632, Note_on_c, 0, 66, 100
2, 3529335, Note_on_c, 0, 67, 100
2, 3529628, Note_off_c, 0, 66, 100
2, 3529973, Note_off_c, 0, 67, 100
2, 3529973, Note_on_c, 0, 67, 100
2, 3530558, Note_off_c, 0, 67, 100
2, 3530558, Note_on_c, 0, 67, 100
2, 3531107, Note_on_c, 0, 66, 100
2, 3531642, Note_on_c, 0, 64, 100
2, 3531810, Note_off_c, 0, 64, 100
2, 3532073, Note_off_c, 0, 66, 100
2, 3532203, Note_off_c, 0, 67, 100
2, 3532454, Note_on_c, 0, 61, 100
2, 3533322, Note_on_c, 0, 58, 100
2, 3533553, Note_off_c, 0, 61, 100
2, 3534146, Note_on_c, 0, 55, 100
2, 3534917, Note_on_c, 0, 52, 100
2, 3535068, Note_off_c, 0, 58, 100
2, 3535634, Note_on_c, 0, 50, 100
2, 3536073, Note_off_c, 0, 55, 100
2, 3536304, Note_on_c, 0, 47, 100
2, 3536429, Note_off_c, 0, 47, 100
2, 3536532, Note_off_c, 0, 52, 100
2, 3536570, Note_off_c, 0, 50, 100
2, 3536939, Note_off_c, 0, 45, 100
2, 3536939, Note_on_c, 0, 45, 100
2, 3537555, Note_on_c, 0, 43, 100
2, 3538170, Note_on_c, 0, 42, 100
2, 3538692, Note_off_c, 0, 43, 100
2, 3538800, Note_on_c, 0, 41, 100
2, 3539318, Note_off_c, 0, 42, 100
2, 3539582, Note_off_c, 0, 41, 100
2, 3539582, Note_on_c, 0, 41, 100
2, 3540046, Note_off_c, 0, 41, 100
2, 3540333, Note_on_c, 0, 41, 100
2, 3540463, Note_off_c, 0, 41, 100
2, 3541051, Note_on_c, 0, 43, 100
2, 3541248, Note_off_c, 0, 43, 100
2, 3541744, Note_on_c, 0, 44, 100
2, 3541856, Note_off_c, 0, 44, 100
2, 3542421, Note_on_c, 0, 46, 100
2, 3542715, Note_off_c, 0, 46, 100
2, 3543142, Note_on_c, 0, 48, 100
2, 3543618, Note_off_c, 0, 48, 100
2, 3543894, Note_on_c, 0, 50, 100
2, 3544367, Note_off_c, 0, 50, 100
2, 3544622, Note_on_c, 0, 51, 100
2, 3544827, Note_off_c, 0, 51, 100
2, 3545319, Note_on_c, 0, 53, 100
2, 3545795, Note_off_c, 0, 53, 100
2, 3546014, Note_on_c, 0, 55, 100
2, 3546813, Note_on_c, 0, 56, 100
2, 3547046, Note_off_c, 0, 55, 100
2, 3547627, Note_on_c, 0, 57, 100
2, 3548253, Note_off_c, 0, 56, 100
2, 3548441, Note_on_c, 0, 58, 100
2, 3549137, Note_off_c, 0, 57, 100
2, 3549237, Note_off_c, 0, 58, 100
2, 3549237, Note_on_c, 0, 58, 100
2, 3549659, Note_off_c, 0, 58, 100
2, 3550000, Note_on_c, 0, 57, 100
2, 3550677, Note_off_c, 0, 57, 100
2, 3550717, Note_on_c, 0, 57, 100
2, 3551384, Note_on_c, 0, 56, 100
2, 3551999, Note_on_c, 0, 55, 100
2, 3552210, Note_off_c, 0, 57, 100
2, 3552574, Note_on_c, 0, 54, 100
2, 3553277, Note_on_c, 0, 53, 100
2, 3553346, Note_off_c, 0, 56, 100
2, 3553825, Note_off_c, 0, 53, 100
2, 3553930, Note_off_c, 0, 55, 100
2, 3553980, Note_off_c, 0, 54, 100
2, 3554175, Note_on_c, 0, 53, 100
2, 3554748, Note_off_c, 0, 53, 100
2, 3555057, Note_on_c, 0, 52, 100
2, 3555902, Note_off_c, 0, 52, 100
2, 3555902, Note_on_c, 0, 52, 100
2, 3556693, Note_on_c, 0, 53, 100
2, 3557420, Note_off_c, 0, 53, 100
2, 3557420, Note_on_c, 0, 53, 100
2, 3557536, Note_off_c, 0, 52, 100
2, 3558079, Note_on_c, 0, 54, 100
2, 3558474, Note_off_c, 0, 53, 100
2, 3558516, Note_off_c, 0, 54, 100
2, 3558676, Note_on_c, 0, 55, 100
2, 3558974, Note_off_c, 0, 55, 100
2, 3559226, Note_on_c, 0, 56, 100
2, 3559748, Note_on_c, 0, 57, 100
2, 3559832, Note_off_c, 0, 56, 100
2, 3560377, Note_off_c, 0, 57, 100
2, 3560533, Note_on_c, 0, 58, 100
2, 3560973, Note_off_c, 0, 58, 100
2, 3561435, Note_on_c, 0, 59, 100
2, 3561633, Note_off_c, 0, 59, 100
2, 3562298, Note_on_c, 0, 59, 100
2, 3562424, Note_off_c, 0, 59, 100
2, 3563105, Note_on_c, 0, 59, 100
2, 3563247, Note_off_c, 0, 59, 100
2, 3563850, Note_on_c, 0, 59, 100
2, 3564267, Note_off_c, 0, 59, 100
2, 3564533, Note_on_c, 0, 58, 100
2, 3565162, Note_on_c, 0, 56, 100
2, 3565300, Note_off_c, 0, 58, 100
2, 3565752, Note_on_c, 0, 54, 100
2, 3566173, Note_off_c, 0, 56, 100
2, 3566323, Note_on_c, 0, 52, 100
2, 3566736, Note_off_c, 0, 54, 100
2, 3566895, Note_on_c, 0, 50, 100
2, 3566935, Note_off_c, 0, 52, 100
2, 3567132, Note_off_c, 0, 50, 100
2, 3567712, Note_on_c, 0, 49, 100
2, 3568527, Note_on_c, 0, 46, 100
2, 3568711, Note_off_c, 0, 49, 100
2, 3569301, Note_on_c, 0, 44, 100
2, 3570031, Note_on_c, 0, 42, 100
2, 3570145, Note_off_c, 0, 46, 100
2, 3570724, Note_on_c, 0, 41, 100
2, 3571172, Note_off_c, 0, 44, 100
2, 3571391, Note_on_c, 0, 40, 100
2, 3571567, Note_off_c, 0, 40, 100
2, 3571669, Note_off_c, 0, 42, 100
2, 3571682, Note_off_c, 0, 41, 100
2, 3572046, Note_on_c, 0, 40, 100
2, 3572704, Note_on_c, 0, 41, 100
2, 3573153, Note_off_c, 0, 40, 100
2, 3573379, Note_on_c, 0, 42, 100
2, 3574080, Note_on_c, 0, 44, 100
2, 3574455, Note_off_c, 0, 41, 100
2, 3574808, Note_on_c, 0, 46, 100
2, 3575308, Note_off_c, 0, 42, 100
2, 3575562, Note_on_c, 0, 49, 100
2, 3575680, Note_off_c, 0, 49, 100
2, 3575694, Note_off_c, 0, 44, 100
2, 3575740, Note_off_c, 0, 46, 100
2, 3576335, Note_on_c, 0, 51, 100
2, 3577099, Note_off_c, 0, 51, 100
2, 3577113, Note_on_c, 0, 54, 100
2, 3577881, Note_on_c, 0, 57, 100
2, 3578258, Note_off_c, 0, 54, 100
2, 3578626, Note_on_c, 0, 60, 100
2, 3579037, Note_off_c, 0, 57, 100
2, 3579336, Note_on_c, 0, 63, 100
2, 3579498, Note_off_c, 0, 60, 100
2, 3579802, Note_off_c, 0, 63, 100
2, 3580006, Note_on_c, 0, 65, 100
2, 3580134, Note_off_c, 0, 65, 100
2, 3580637, Note_on_c, 0, 66, 100
2, 3580838, Note_off_c, 0, 66, 100
2, 3581323, Note_on_c, 0, 67, 100
2, 3581442, Note_off_c, 0, 67, 100
2, 3582181, Note_on_c, 0, 67, 100
2, 3582466, Note_off_c, 0, 67, 100
2, 3583039, Note_on_c, 0, 66, 100
2, 3583507, Note_off_c, 0, 66, 100
2, 3583877, Note_on_c, 0, 65, 100
2, 3584343, Note_off_c, 0, 65, 100
2, 3584677, Note_on_c, 0, 63, 100
2, 3584877, Note_off_c, 0, 63, 100
2, 3585424, Note_on_c, 0, 61, 100
2, 3585901, Note_off_c, 0, 61, 100
2, 3586111, Note_on_c, 0, 59, 100
2, 3586737, Note_on_c, 0, 56, 100
2, 3587141, Note_off_c, 0, 59, 100
2, 3587311, Note_on_c, 0, 53, 100
2, 3587847, Note_on_c, 0, 50, 100
2, 3588172, Note_off_c, 0, 56, 100
2, 3588592, Note_on_c, 0, 49, 100
2, 3588814, Note_off_c, 0, 53, 100
2, 3588990, Note_off_c, 0, 50, 100
2, 3589005, Note_off_c, 0, 49, 100
2, 3589505, Note_on_c, 0, 47, 100
2, 3590189, Note_off_c, 0, 47, 100
2, 3590388, Note_on_c, 0, 46, 100
2, 3591222, Note_off_c, 0, 45, 100
2, 3591222, Note_on_c, 0, 45, 100
2, 3591885, Note_off_c, 0, 46, 100
2, 3591992, Note_on_c, 0, 44, 100
2, 3592695, Note_off_c, 0, 44, 100
2, 3592695, Note_on_c, 0, 44, 100
2, 3593333, Note_off_c, 0, 45, 100
2, 3593333, Note_on_c, 0, 45, 100
2, 3593917, Note_on_c, 0, 46, 100
2, 3594096, Note_off_c, 0, 44, 100
2, 3594465, Note_on_c, 0, 47, 100
2, 3594498, Note_off_c, 0, 46, 100
2, 3595000, Note_on_c, 0, 48, 100
2, 3595774, Note_off_c, 0, 47, 100
2, 3595816, Note_on_c, 0, 50, 100
2, 3596640, Note_off_c, 0, 48, 100
2, 3596685, Note_off_c, 0, 50, 100
2, 3596685, Note_on_c, 0, 50, 100
2, 3597508, Note_on_c, 0, 52, 100
2, 3597739, Note_off_c, 0, 50, 100
2, 3597942, Note_off_c, 0, 52, 100
2, 3598279, Note_on_c, 0, 53, 100
2, 3598583, Note_off_c, 0, 53, 100
2, 3598996, Note_on_c, 0, 53, 100
2, 3599610, Note_off_c, 0, 53, 100
2, 3599665, Note_on_c, 0, 54, 100
2, 3600300, Note_off_c, 0, 54, 100
2, 3600300, Note_on_c, 0, 54, 100
2, 3600748, Note_off_c, 0, 54, 100
2, 3600915, Note_on_c, 0, 54, 100
2, 3601119, Note_off_c, 0, 54, 100
2, 3601530, Note_on_c, 0, 53, 100
2, 3601652, Note_off_c, 0, 53, 100
2, 3602160, Note_on_c, 0, 53, 100
2, 3602302, Note_off_c, 0, 53, 100
2, 3602944, Note_on_c, 0, 52, 100
2, 3603357, Note_off_c, 0, 52, 100
2, 3603695, Note_on_c, 0, 51, 100
2, 3604414, Note_off_c, 0, 51, 100
2, 3604414, Note_on_c, 0, 51, 100
2, 3605106, Note_on_c, 0, 50, 100
2, 3605417, Note_off_c, 0, 51, 100
2, 3605784, Note_off_c, 0, 50, 100
2, 3605784, Note_on_c, 0, 50, 100
2, 3606388, Note_off_c, 0, 50, 100
2, 3606500, Note_on_c, 0, 50, 100
2, 3606743, Note_off_c, 0, 50, 100
2, 3607252, Note_on_c, 0, 51, 100
2, 3607980, Note_on_c, 0, 52, 100
2, 3608254, Note_off_c, 0, 51, 100
2, 3608678, Note_on_c, 0, 53, 100
2, 3609374, Note_on_c, 0, 55, 100
2, 3609598, Note_off_c, 0, 52, 100
2, 3610173, Note_on_c, 0, 56, 100
2, 3610545, Note_off_c, 0, 53, 100
2, 3610987, Note_on_c, 0, 58, 100
2, 3611006, Note_off_c, 0, 55, 100
2, 3611123, Note_off_c, 0, 56, 100
2, 3611172, Note_off_c, 0, 58, 100
2, 3611800, Note_on_c, 0, 60, 100
2, 3612595, Note_on_c, 0, 61, 100
2, 3612914, Note_off_c, 0, 60, 100
2, 3613357, Note_on_c, 0, 62, 100
2, 3614075, Note_on_c, 0, 63, 100
2, 3614351, Note_off_c, 0, 61, 100
2, 3614741, Note_off_c, 0, 63, 100
2, 3614741, Note_on_c, 0, 63, 100
2, 3615289, Note_off_c, 0, 62, 100
2, 3615357, Note_off_c, 0, 63, 100
2, 3615357, Note_on_c, 0, 63, 100
2, 3615688, Note_off_c, 0, 63, 100
2, 3615931, Note_on_c, 0, 62, 100
2, 3616639, Note_on_c, 0, 60, 100
2, 3616703, Note_off_c, 0, 62, 100
2, 3617537, Note_on_c, 0, 58, 100
2, 3617792, Note_off_c, 0, 60, 100
2, 3618418, Note_on_c, 0, 56, 100
2, 3618700, Note_off_c, 0, 58, 100
2, 3619263, Note_on_c, 0, 53, 100
2, 3619295, Note_off_c, 0, 56, 100
2, 3619731, Note_off_c, 0, 53, 100
2, 3620053, Note_on_c, 0, 50, 100
2, 3620180, Note_off_c, 0, 50, 100
2, 3620779, Note_on_c, 0, 48, 100
2, 3620985, Note_off_c, 0, 48, 100
2, 3621437, Note_on_c, 0, 46, 100
2, 3621563, Note_off_c, 0, 46, 100
2, 3622034, Note_on_c, 0, 43, 100
2, 3622311, Note_off_c, 0, 43, 100
2, 3622583, Note_on_c, 0, 41, 100
2, 3623043, Note_off_c, 0, 41, 100
2, 3623106, Note_on_c, 0, 40, 100
2, 3623565, Note_off_c, 0, 40, 100
2, 3623895, Note_on_c, 0, 39, 100
2, 3624091, Note_off_c, 0, 39, 100
2, 3624798, Note_on_c, 0, 39, 100
2, 3625277, Note_off_c, 0, 39, 100
2, 3625660, Note_on_c, 0, 39, 100
2, 3626467, Note_on_c, 0, 41, 100
2, 3626688, Note_off_c, 0, 39, 100
2, 3627211, Note_on_c, 0, 42, 100
2, 3627893, Note_off_c, 0, 45, 100
2, 3627893, Note_on_c, 0, 45, 100
2, 3627897, Note_off_c, 0, 41, 100
2, 3628522, Note_on_c, 0, 48, 100
2, 3628706, Note_off_c, 0, 42, 100
2, 3628927, Note_off_c, 0, 48, 100
2, 3629112, Note_on_c, 0, 50, 100
2, 3629682, Note_on_c, 0, 53, 100
2, 3629802, Note_off_c, 0, 50, 100
2, 3630254, Note_on_c, 0, 56, 100
2, 3631075, Note_on_c, 0, 59, 100
2, 3631183, Note_off_c, 0, 53, 100
2, 3631890, Note_on_c, 0, 61, 100
2, 3632217, Note_off_c, 0, 56, 100
2, 3632663, Note_on_c, 0, 63, 100
2, 3633001, Note_off_c, 0, 59, 100
2, 3633196, Note_off_c, 0, 63, 100
2, 3633286, Note_off_c, 0, 61, 100
2, 3633394, Note_on_c, 0, 64, 100
2, 3633983, Note_off_c, 0, 64, 100
2, 3634087, Note_on_c, 0, 65, 100
2, 3634753, Note_off_c, 0, 65, 100
2, 3634753, Note_on_c, 0, 65, 100
2, 3635408, Note_off_c, 0, 65, 100
2, 3635408, Note_on_c, 0, 65, 100
2, 3636065, Note_on_c, 0, 63, 100
2, 3636739, Note_on_c, 0, 62, 100
2, 3636935, Note_off_c, 0, 65, 100
2, 3637120, Note_off_c, 0, 63, 100
2, 3637170, Note_off_c, 0, 62, 100
2, 3637441, Note_on_c, 0, 60, 100
2, 3637751, Note_off_c, 0, 60, 100
2, 3638167, Note_on_c, 0, 58, 100
2, 3638789, Note_off_c, 0, 58, 100
2, 3638921, Note_on_c, 0, 56, 100
2, 3639566, Note_off_c, 0, 56, 100
2, 3639693, Note_on_c, 0, 54, 100
2, 3640149, Note_off_c, 0, 54, 100
2, 3640470, Note_on_c, 0, 52, 100
2, 3640680, Note_off_c, 0, 52, 100
2, 3641238, Note_on_c, 0, 50, 100
2, 3641357, Note_off_c, 0, 50, 100
2, 3641983, Note_on_c, 0, 50, 100
2, 3642125, Note_off_c, 0, 50, 100
2, 3642693, Note_on_c, 0, 49, 100
2, 3643103, Note_off_c, 0, 49, 100
2, 3643364, Note_on_c, 0, 48, 100
2, 3643995, Note_off_c, 0, 48, 100
2, 3643995, Note_on_c, 0, 48, 100
2, 3644684, Note_on_c, 0, 49, 100
2, 3644990, Note_off_c, 0, 48, 100
2, 3645542, Note_off_c, 0, 49, 100
2, 3645542, Note_on_c, 0, 49, 100
2, 3646139, Note_off_c, 0, 49, 100
2, 3646399, Note_on_c, 0, 50, 100
2, 3646647, Note_off_c, 0, 50, 100
2, 3647236, Note_on_c, 0, 50, 100
2, 3648036, Note_on_c, 0, 51, 100
2, 3648241, Note_off_c, 0, 50, 100
2, 3648782, Note_on_c, 0, 52, 100
2, 3649469, Note_off_c, 0, 52, 100
2, 3649469, Note_on_c, 0, 52, 100
2, 3649653, Note_off_c, 0, 51, 100
2, 3650095, Note_off_c, 0, 52, 100
2, 3650095, Note_on_c, 0, 52, 100
2, 3650668, Note_on_c, 0, 53, 100
2, 3650861, Note_off_c, 0, 53, 100
2, 3651095, Note_off_c, 0, 52, 100
2, 3651204, Note_on_c, 0, 52, 100
2, 3651954, Note_off_c, 0, 52, 100
2, 3651954, Note_on_c, 0, 52, 100
2, 3652867, Note_on_c, 0, 51, 100
2, 3653716, Note_off_c, 0, 52, 100
2, 3653750, Note_on_c, 0, 50, 100
2, 3654583, Note_off_c, 0, 50, 100
2, 3654583, Note_on_c, 0, 50, 100
2, 3654801, Note_off_c, 0, 51, 100
2, 3655353, Note_on_c, 0, 49, 100
2, 3655457, Note_off_c, 0, 49, 100
2, 3655506, Note_off_c, 0, 50, 100
2, 3656055, Note_on_c, 0, 48, 100
2, 3656692, Note_on_c, 0, 47, 100
2, 3656836, Note_off_c, 0, 48, 100
2, 3657275, Note_off_c, 0, 47, 100
2, 3657275, Note_on_c, 0, 47, 100
2, 3657823, Note_off_c, 0, 47, 100
2, 3657823, Note_on_c, 0, 47, 100
2, 3658357, Note_on_c, 0, 48, 100
2, 3658705, Note_off_c, 0, 47, 100
2, 3658827, Note_off_c, 0, 48, 100
2, 3659179, Note_on_c, 0, 49, 100
2, 3659304, Note_off_c, 0, 49, 100
2, 3660047, Note_on_c, 0, 50, 100
2, 3660258, Note_off_c, 0, 50, 100
2, 3660871, Note_on_c, 0, 51, 100
2, 3661004, Note_off_c, 0, 51, 100
2, 3661642, Note_on_c, 0, 53, 100
2, 3661911, Note_off_c, 0, 53, 100
2, 3662358, Note_on_c, 0, 55, 100
2, 3662809, Note_off_c, 0, 55, 100
2, 3663027, Note_on_c, 0, 57, 100
2, 3663479, Note_off_c, 0, 57, 100
2, 3663661, Note_on_c, 0, 60, 100
2, 3663852, Note_off_c, 0, 60, 100
2, 3664276, Note_on_c, 0, 62, 100
2, 3664756, Note_off_c, 0, 62, 100
2, 3664889, Note_on_c, 0, 64, 100
2, 3665521, Note_on_c, 0, 65, 100
2, 3665915, Note_off_c, 0, 64, 100
2, 3666306, Note_on_c, 0, 66, 100
2, 3666946, Note_off_c, 0, 65, 100
2, 3667057, Note_off_c, 0, 66, 100
2, 3667057, Note_on_c, 0, 66, 100
2, 3667777, Note_on_c, 0, 65, 100
2, 3668174, Note_off_c, 0, 65, 100
2, 3668183, Note_off_c, 0, 66, 100
2, 3668469, Note_on_c, 0, 64, 100
2, 3669146, Note_on_c, 0, 62, 100
2, 3669166, Note_off_c, 0, 64, 100
2, 3669857, Note_on_c, 0, 60, 100
2, 3670609, Note_on_c, 0, 57, 100
2, 3670651, Note_off_c, 0, 62, 100
2, 3671338, Note_on_c, 0, 54, 100
2, 3671821, Note_off_c, 0, 60, 100
2, 3672037, Note_on_c, 0, 51, 100
2, 3672533, Note_off_c, 0, 57, 100
2, 3672562, Note_off_c, 0, 51, 100
2, 3672728, Note_off_c, 0, 54, 100
2, 3672735, Note_on_c, 0, 49, 100
2, 3673333, Note_off_c, 0, 49, 100
2, 3673533, Note_on_c, 0, 46, 100
2, 3674346, Note_on_c, 0, 43, 100
2, 3674858, Note_off_c, 0, 46, 100
2, 3675158, Note_on_c, 0, 41, 100
2, 3675953, Note_on_c, 0, 40, 100
2, 3675999, Note_off_c, 0, 43, 100
2, 3676688, Note_off_c, 0, 41, 100
2, 3676715, Note_on_c, 0, 39, 100
2, 3677008, Note_off_c, 0, 40, 100
2, 3677143, Note_off_c, 0, 39, 100
2, 3677432, Note_on_c, 0, 39, 100
2, 3677748, Note_off_c, 0, 39, 100
2, 3678098, Note_on_c, 0, 40, 100
2, 3678714, Note_on_c, 0, 41, 100
2, 3678727, Note_off_c, 0, 40, 100
2, 3679289, Note_on_c, 0, 43, 100
2, 3679368, Note_off_c, 0, 41, 100
2, 3679753, Note_off_c, 0, 43, 100
2, 3680001, Note_off_c, 0, 45, 100
2, 3680001, Note_on_c, 0, 45, 100
2, 3680898, Note_on_c, 0, 47, 100
2, 3681014, Note_off_c, 0, 47, 100
2, 3681779, Note_on_c, 0, 50, 100
2, 3681921, Note_off_c, 0, 50, 100
2, 3682623, Note_on_c, 0, 52, 100
2, 3683030, Note_off_c, 0, 52, 100
2, 3683413, Note_on_c, 0, 55, 100
2, 3684138, Note_on_c, 0, 57, 100
2, 3684161, Note_off_c, 0, 55, 100
2, 3684795, Note_on_c, 0, 59, 100
2, 3685125, Note_off_c, 0, 57, 100
2, 3685392, Note_on_c, 0, 60, 100
2, 3685753, Note_off_c, 0, 59, 100
2, 3685941, Note_on_c, 0, 61, 100
2, 3685981, Note_off_c, 0, 60, 100
2, 3686195, Note_off_c, 0, 61, 100
2, 3686463, Note_on_c, 0, 62, 100
2, 3687258, Note_off_c, 0, 62, 100
2, 3687258, Note_on_c, 0, 62, 100
2, 3688161, Note_on_c, 0, 61, 100
2, 3688875, Note_off_c, 0, 62, 100
2, 3689023, Note_on_c, 0, 60, 100
2, 3689829, Note_on_c, 0, 59, 100
2, 3690020, Note_off_c, 0, 61, 100
2, 3690573, Note_on_c, 0, 58, 100
2, 3690642, Note_off_c, 0, 60, 100
2, 3690763, Note_off_c, 0, 59, 100
2, 3690775, Note_off_c, 0, 58, 100
2, 3691254, Note_on_c, 0, 56, 100
2, 3691882, Note_on_c, 0, 55, 100
2, 3692383, Note_off_c, 0, 56, 100
2, 3692471, Note_on_c, 0, 53, 100
2, 3693041, Note_on_c, 0, 52, 100
2, 3693612, Note_off_c, 0, 52, 100
2, 3693612, Note_on_c, 0, 52, 100
2, 3693649, Note_off_c, 0, 55, 100
2, 3694407, Note_off_c, 0, 53, 100
2, 3694437, Note_on_c, 0, 51, 100
2, 3694534, Note_off_c, 0, 51, 100
2, 3694651, Note_off_c, 0, 52, 100
2, 3695253, Note_on_c, 0, 51, 100
2, 3696026, Note_off_c, 0, 51, 100
2, 3696026, Note_on_c, 0, 51, 100
2, 3696757, Note_on_c, 0, 52, 100
2, 3697196, Note_off_c, 0, 51, 100
2, 3697449, Note_off_c, 0, 52, 100
2, 3697449, Note_on_c, 0, 52, 100
2, 3698116, Note_on_c, 0, 53, 100
2, 3698336, Note_off_c, 0, 52, 100
2, 3698588, Note_off_c, 0, 53, 100
2, 3698770, Note_on_c, 0, 54, 100
2, 3698894, Note_off_c, 0, 54, 100
2, 3699427, Note_on_c, 0, 54, 100
2, 3699642, Note_off_c, 0, 54, 100
2, 3700100, Note_on_c, 0, 55, 100
2, 3700240, Note_off_c, 0, 55, 100
2, 3700801, Note_on_c, 0, 55, 100
2, 3701061, Note_off_c, 0, 55, 100
2, 3701526, Note_on_c, 0, 55, 100
2, 3701969, Note_off_c, 0, 55, 100
2, 3702279, Note_on_c, 0, 54, 100
2, 3702724, Note_off_c, 0, 54, 100
2, 3703051, Note_on_c, 0, 53, 100
2, 3703238, Note_off_c, 0, 53, 100
2, 3703828, Note_on_c, 0, 52, 100
2, 3704309, Note_off_c, 0, 52, 100
2, 3704596, Note_on_c, 0, 50, 100
2, 3705340, Note_off_c, 0, 50, 100
2, 3705340, Note_on_c, 0, 50, 100
2, 3706050, Note_on_c, 0, 48, 100
2, 3706721, Note_on_c, 0, 46, 100
2, 3706760, Note_off_c, 0, 50, 100
2, 3707353, Note_off_c, 0, 45, 100
2, 3707353, Note_on_c, 0, 45, 100
2, 3707530, Note_off_c, 0, 48, 100
2, 3707839, Note_off_c, 0, 46, 100
2, 3708046, Note_on_c, 0, 44, 100
2, 3708750, Note_off_c, 0, 44, 100
2, 3708902, Note_on_c, 0, 43, 100
2, 3709759, Note_off_c, 0, 43, 100
2, 3709759, Note_on_c, 0, 43, 100
2, 3710596, Note_off_c, 0, 43, 100
2, 3710596, Note_on_c, 0, 43, 100
2, 3711394, Note_on_c, 0, 44, 100
2, 3712141, Note_on_c, 0, 46, 100
2, 3712517, Note_off_c, 0, 43, 100
2, 3712659, Note_off_c, 0, 46, 100
2, 3712779, Note_off_c, 0, 44, 100
2, 3712826, Note_on_c, 0, 48, 100
2, 3713432, Note_off_c, 0, 48, 100
2, 3713452, Note_on_c, 0, 50, 100
2, 3714025, Note_on_c, 0, 52, 100
2, 3714562, Note_on_c, 0, 55, 100
2, 3714785, Note_off_c, 0, 50, 100
2, 3715317, Note_on_c, 0, 58, 100
2, 3715684, Note_off_c, 0, 52, 100
2, 3716096, Note_off_c, 0, 55, 100
2, 3716230, Note_on_c, 0, 61, 100
2, 3716372, Note_off_c, 0, 58, 100
2, 3716655, Note_off_c, 0, 61, 100
2, 3717112, Note_on_c, 0, 63, 100
2, 3717434, Note_off_c, 0, 63, 100
2, 3717944, Note_on_c, 0, 65, 100
2, 3718581, Note_off_c, 0, 65, 100
2, 3718713, Note_on_c, 0, 66, 100
2, 3719375, Note_off_c, 0, 66, 100
2, 3719415, Note_on_c, 0, 67, 100
2, 3719887, Note_off_c, 0, 67, 100
2, 3720051, Note_on_c, 0, 67, 100
2, 3720273, Note_off_c, 0, 67, 100
2, 3720634, Note_on_c, 0, 67, 100
2, 3720747, Note_off_c, 0, 67, 100
2, 3721181, Note_on_c, 0, 65, 100
2, 3721323, Note_off_c, 0, 65, 100
2, 3721715, Note_on_c, 0, 64, 100
2, 3722118, Note_off_c, 0, 64, 100
2, 3722542, Note_on_c, 0, 61, 100
2, 3723284, Note_off_c, 0, 61, 100
2, 3723410, Note_on_c, 0, 58, 100
2, 3724234, Note_on_c, 0, 55, 100
2, 3724389, Note_off_c, 0, 58, 100
2, 3725004, Note_on_c, 0, 52, 100
2, 3725184, Note_off_c, 0, 55, 100
2, 3725585, Note_off_c, 0, 52, 100
2, 3725720, Note_on_c, 0, 50, 100
2, 3725980, Note_off_c, 0, 50, 100
2, 3726389, Note_on_c, 0, 47, 100
2, 3727022, Note_off_c, 0, 45, 100
2, 3727022, Note_on_c, 0, 45, 100
2, 3727399, Note_off_c, 0, 47, 100
2, 3727636, Note_on_c, 0, 43, 100
2, 3728249, Note_on_c, 0, 42, 100
2, 3728882, Note_on_c, 0, 41, 100
2, 3729491, Note_off_c, 0, 43, 100
2, 3729667, Note_off_c, 0, 41, 100
2, 3729667, Note_on_c, 0, 41, 100
2, 3729861, Note_off_c, 0, 42, 100
2, 3729877, Note_off_c, 0, 41, 100
2, 3730420, Note_on_c, 0, 41, 100
2, 3731139, Note_on_c, 0, 43, 100
2, 3731556, Note_off_c, 0, 41, 100
2, 3731832, Note_on_c, 0, 44, 100
2, 3732509, Note_on_c, 0, 46, 100
2, 3732911, Note_off_c, 0, 43, 100
2, 3733214, Note_on_c, 0, 48, 100
2, 3733770, Note_off_c, 0, 44, 100
2, 3733967, Note_on_c, 0, 50, 100
2, 3734067, Note_off_c, 0, 50, 100
2, 3734118, Note_off_c, 0, 46, 100
2, 3734129, Note_off_c, 0, 48, 100
2, 3734696, Note_on_c, 0, 51, 100
2, 3735395, Note_on_c, 0, 53, 100
2, 3735493, Note_off_c, 0, 51, 100
2, 3736096, Note_on_c, 0, 55, 100
2, 3736574, Note_off_c, 0, 53, 100
2, 3736893, Note_on_c, 0, 56, 100
2, 3737280, Note_off_c, 0, 55, 100
2, 3737705, Note_on_c, 0, 57, 100
2, 3737785, Note_off_c, 0, 56, 100
2, 3738178, Note_off_c, 0, 57, 100
2, 3738517, Note_on_c, 0, 58, 100
2, 3738639, Note_off_c, 0, 58, 100
2, 3739311, Note_on_c, 0, 58, 100
2, 3739531, Note_off_c, 0, 58, 100
2, 3740073, Note_on_c, 0, 57, 100
2, 3740220, Note_off_c, 0, 57, 100
2, 3740789, Note_on_c, 0, 57, 100
2, 3741041, Note_off_c, 0, 57, 100
2, 3741455, Note_on_c, 0, 56, 100
2, 3741890, Note_off_c, 0, 56, 100
2, 3742071, Note_on_c, 0, 55, 100
2, 3742509, Note_off_c, 0, 55, 100
2, 3742646, Note_on_c, 0, 54, 100
2, 3742828, Note_off_c, 0, 54, 100
2, 3743364, Note_on_c, 0, 53, 100
2, 3743847, Note_off_c, 0, 53, 100
2, 3744260, Note_on_c, 0, 53, 100
2, 3745140, Note_off_c, 0, 53, 100
2, 3745140, Note_on_c, 0, 53, 100
2, 3745983, Note_on_c, 0, 52, 100
2, 3746555, Note_off_c, 0, 53, 100
2, 3746772, Note_on_c, 0, 53, 100
2, 3747456, Note_off_c, 0, 52, 100
2, 3747497, Note_off_c, 0, 53, 100
2, 3747497, Note_on_c, 0, 53, 100
2, 3747881, Note_off_c, 0, 53, 100
2, 3748154, Note_on_c, 0, 54, 100
2, 3748750, Note_on_c, 0, 55, 100
2, 3748864, Note_off_c, 0, 54, 100
2, 3749298, Note_on_c, 0, 56, 100
2, 3749820, Note_on_c, 0, 57, 100
2, 3750263, Note_off_c, 0, 55, 100
2, 3750621, Note_on_c, 0, 58, 100
2, 3751264, Note_off_c, 0, 56, 100
2, 3751523, Note_on_c, 0, 59, 100
2, 3751739, Note_off_c, 0, 57, 100
2, 3752000, Note_off_c, 0, 58, 100
2, 3752033, Note_off_c, 0, 59, 100
2, 3752385, Note_on_c, 0, 59, 100
2, 3753000, Note_off_c, 0, 59, 100
2, 3753191, Note_on_c, 0, 59, 100
2, 3753934, Note_on_c, 0, 58, 100
2, 3754532, Note_off_c, 0, 59, 100
2, 3754615, Note_on_c, 0, 57, 100
2, 3755242, Note_on_c, 0, 56, 100
2, 3755599, Note_off_c, 0, 58, 100
2, 3755830, Note_on_c, 0, 54, 100
2, 3756152, Note_off_c, 0, 57, 100
2, 3756252, Note_off_c, 0, 54, 100
2, 3756297, Note_off_c, 0, 56, 100
2, 3756400, Note_on_c, 0, 52, 100
2, 3756728, Note_off_c, 0, 52, 100
2, 3756970, Note_on_c, 0, 50, 100
2, 3757615, Note_off_c, 0, 50, 100
2, 3757799, Note_on_c, 0, 48, 100
2, 3758470, Note_off_c, 0, 48, 100
2, 3758615, Note_on_c, 0, 46, 100
2, 3759095, Note_off_c, 0, 46, 100
2, 3759389, Note_on_c, 0, 44, 100
2, 3759617, Note_off_c, 0, 44, 100
2, 3760119, Note_on_c, 0, 42, 100
2, 3760229, Note_off_c, 0, 42, 100
2, 3760812, Note_on_c, 0, 41, 100
2, 3760954, Note_off_c, 0, 41, 100
2, 3761478, Note_on_c, 0, 40, 100
2, 3761877, Note_off_c, 0, 40, 100
2, 3762131, Note_on_c, 0, 40, 100
2, 3762788, Note_on_c, 0, 41, 100
2, 3762867, Note_off_c, 0, 40, 100
2, 3763460, Note_on_c, 0, 42, 100
2, 3763759, Note_off_c, 0, 41, 100
2, 3764161, Note_on_c, 0, 44, 100
2, 3764401, Note_off_c, 0, 42, 100
2, 3764735, Note_off_c, 0, 44, 100
2, 3764885, Note_on_c, 0, 46, 100
2, 3765150, Note_off_c, 0, 46, 100
2, 3765638, Note_on_c, 0, 49, 100
2, 3766409, Note_on_c, 0, 51, 100
2, 3766650, Note_off_c, 0, 49, 100
2, 3767185, Note_on_c, 0, 54, 100
2, 3767953, Note_on_c, 0, 57, 100
2, 3768024, Note_off_c, 0, 51, 100
2, 3768697, Note_on_c, 0, 60, 100
2, 3769036, Note_off_c, 0, 54, 100
2, 3769408, Note_on_c, 0, 63, 100
2, 3769559, Note_off_c, 0, 57, 100
2, 3769614, Note_off_c, 0, 60, 100
2, 3769627, Note_off_c, 0, 63, 100
2, 3770079, Note_on_c, 0, 65, 100
2, 3770711, Note_on_c, 0, 66, 100
2, 3771223, Note_off_c, 0, 65, 100
2, 3771407, Note_on_c, 0, 67, 100
2, 3772263, Note_off_c, 0, 67, 100
2, 3772263, Note_on_c, 0, 67, 100
2, 3772488, Note_off_c, 0, 66, 100
2, 3773119, Note_on_c, 0, 66, 100
2, 3773871, Note_off_c, 0, 67, 100
2, 3773955, Note_on_c, 0, 65, 100
2, 3774029, Note_off_c, 0, 66, 100
2, 3774062, Note_off_c, 0, 65, 100
2, 3774753, Note_on_c, 0, 63, 100
2, 3775499, Note_on_c, 0, 61, 100
2, 3775558, Note_off_c, 0, 63, 100
2, 3776184, Note_on_c, 0, 59, 100
2, 3776686, Note_off_c, 0, 61, 100
2, 3776809, Note_on_c, 0, 56, 100
2, 3777375, Note_off_c, 0, 59, 100
2, 3777382, Note_on_c, 0, 53, 100
2, 3777705, Note_off_c, 0, 56, 100
2, 3777857, Note_off_c, 0, 53, 100
2, 3777919, Note_on_c, 0, 50, 100
2, 3778039, Note_off_c, 0, 50, 100
2, 3778680, Note_on_c, 0, 49, 100
2, 3778905, Note_off_c, 0, 49, 100
2, 3779592, Note_on_c, 0, 47, 100
2, 3779746, Note_off_c, 0, 47, 100
2, 3780473, Note_on_c, 0, 46, 100
2, 3780716, Note_off_c, 0, 46, 100
2, 3781305, Note_off_c, 0, 45, 100
2, 3781305, Note_on_c, 0, 45, 100
2, 3782074, Note_on_c, 0, 44, 100
2, 3782505, Note_off_c, 0, 44, 100
2, 3782774, Note_on_c, 0, 44, 100
2, 3782952, Note_off_c, 0, 44, 100
2, 3783410, Note_off_c, 0, 45, 100
2, 3783410, Note_on_c, 0, 45, 100
2, 3783992, Note_on_c, 0, 46, 100
2, 3784539, Note_on_c, 0, 47, 100
2, 3785012, Note_off_c, 0, 46, 100
2, 3785072, Note_on_c, 0, 48, 100
2, 3785905, Note_on_c, 0, 50, 100
2, 3785949, Note_off_c, 0, 47, 100
2, 3786538, Note_off_c, 0, 48, 100
2, 3786773, Note_off_c, 0, 50, 100
2, 3786773, Note_on_c, 0, 50, 100
2, 3787146, Note_off_c, 0, 50, 100
2, 3787597, Note_on_c, 0, 52, 100
2, 3788314, Note_off_c, 0, 52, 100
2, 3788367, Note_on_c, 0, 53, 100
2, 3789082, Note_off_c, 0, 53, 100
2, 3789082, Note_on_c, 0, 53, 100
2, 3789750, Note_on_c, 0, 54, 100
2, 3790383, Note_off_c, 0, 54, 100
2, 3790383, Note_on_c, 0, 54, 100
2, 3790996, Note_off_c, 0, 54, 100
2, 3790996, Note_on_c, 0, 54, 100
2, 3791048, Note_off_c, 0, 53, 100
2, 3791608, Note_on_c, 0, 53, 100
2, 3791756, Note_off_c, 0, 54, 100
2, 3792231, Note_off_c, 0, 53, 100
2, 3792243, Note_on_c, 0, 53, 100
2, 3793029, Note_on_c, 0, 52, 100
2, 3793592, Note_off_c, 0, 53, 100
2, 3793782, Note_on_c, 0, 51, 100
2, 3794502, Note_off_c, 0, 51, 100
2, 3794502, Note_on_c, 0, 51, 100
2, 3794700, Note_off_c, 0, 52, 100
2, 3795195, Note_on_c, 0, 50, 100
2, 3795557, Note_off_c, 0, 51, 100
2, 3795614, Note_off_c, 0, 50, 100
2, 3795872, Note_on_c, 0, 50, 100
2, 3796206, Note_off_c, 0, 50, 100
2, 3796572, Note_on_c, 0, 50, 100
2, 3797225, Note_off_c, 0, 50, 100
2, 3797325, Note_on_c, 0, 51, 100
2, 3798004, Note_off_c, 0, 51, 100
2, 3798054, Note_on_c, 0, 52, 100
2, 3798541, Note_off_c, 0, 52, 100
2, 3798754, Note_on_c, 0, 53, 100
2, 3798987, Note_off_c, 0, 53, 100
2, 3799456, Note_on_c, 0, 55, 100
2, 3799563, Note_off_c, 0, 55, 100
2, 3800253, Note_on_c, 0, 56, 100
2, 3800394, Note_off_c, 0, 56, 100
2, 3801064, Note_on_c, 0, 58, 100
2, 3801460, Note_off_c, 0, 58, 100
2, 3801875, Note_on_c, 0, 60, 100
2, 3802604, Note_off_c, 0, 60, 100
2, 3802669, Note_on_c, 0, 61, 100
2, 3803430, Note_on_c, 0, 62, 100
2, 3803632, Note_off_c, 0, 61, 100
2, 3804147, Note_on_c, 0, 63, 100
2, 3804363, Note_off_c, 0, 62, 100
2, 3804713, Note_off_c, 0, 63, 100
2, 3804812, Note_on_c, 0, 63, 100
2, 3805082, Note_off_c, 0, 63, 100
2, 3805428, Note_on_c, 0, 63, 100
2, 3806004, Note_on_c, 0, 62, 100
2, 3806443, Note_off_c, 0, 63, 100
2, 3806726, Note_on_c, 0, 60, 100
2, 3807618, Note_off_c, 0, 62, 100
2, 3807622, Note_on_c, 0, 58, 100
2, 3808501, Note_on_c, 0, 56, 100
2, 3808573, Note_off_c, 0, 60, 100
2, 3809221, Note_off_c, 0, 58, 100
2, 3809344, Note_on_c, 0, 53, 100
2, 3809410, Note_off_c, 0, 56, 100
2, 3809571, Note_off_c, 0, 53, 100
2, 3810132, Note_on_c, 0, 50, 100
2, 3810856, Note_on_c, 0, 48, 100
2, 3811283, Note_off_c, 0, 50, 100
2, 3811512, Note_off_c, 0, 45, 100
2, 3811512, Note_on_c, 0, 45, 100
2, 3812107, Note_on_c, 0, 43, 100
2, 3812638, Note_off_c, 0, 48, 100
2, 3812656, Note_on_c, 0, 41, 100
2, 3813177, Note_on_c, 0, 40, 100
2, 3813291, Note_off_c, 0, 40, 100
2, 3813562, Note_off_c, 0, 41, 100
2, 3813713, Note_off_c, 0, 43, 100
2, 3813984, Note_on_c, 0, 39, 100
2, 3814798, Note_off_c, 0, 39, 100
2, 3814886, Note_on_c, 0, 39, 100
2, 3815747, Note_off_c, 0, 39, 100
2, 3815747, Note_on_c, 0, 39, 100
2, 3816553, Note_on_c, 0, 41, 100
2, 3816945, Note_off_c, 0, 39, 100
2, 3817296, Note_on_c, 0, 43, 100
2, 3817454, Note_off_c, 0, 41, 100
2, 3817773, Note_off_c, 0, 43, 100
2, 3817976, Note_off_c, 0, 45, 100
2, 3817976, Note_on_c, 0, 45, 100
2, 3818602, Note_on_c, 0, 48, 100
2, 3818832, Note_off_c, 0, 48, 100
2, 3819190, Note_on_c, 0, 50, 100
2, 3819351, Note_off_c, 0, 50, 100
2, 3819758, Note_on_c, 0, 53, 100
2, 3819993, Note_off_c, 0, 53, 100
2, 3820328, Note_on_c, 0, 56, 100
2, 3820746, Note_off_c, 0, 56, 100
2, 3821162, Note_on_c, 0, 59, 100
2, 3821586, Note_off_c, 0, 59, 100
2, 3821978, Note_on_c, 0, 61, 100
2, 3822152, Note_off_c, 0, 61, 100
2, 3822752, Note_on_c, 0, 63, 100
2, 3823237, Note_off_c, 0, 63, 100
2, 3823482, Note_on_c, 0, 64, 100
2, 3824175, Note_on_c, 0, 65, 100
2, 3824499, Note_off_c, 0, 64, 100
2, 3824840, Note_off_c, 0, 65, 100
2, 3824840, Note_on_c, 0, 65, 100
2, 3825493, Note_off_c, 0, 65, 100
2, 3825493, Note_on_c, 0, 65, 100
2, 3826149, Note_on_c, 0, 63, 100
2, 3826514, Note_off_c, 0, 63, 100
2, 3826585, Note_off_c, 0, 65, 100
2, 3826821, Note_on_c, 0, 62, 100
2, 3827521, Note_on_c, 0, 60, 100
2, 3827544, Note_off_c, 0, 62, 100
2, 3828244, Note_on_c, 0, 58, 100
2, 3828996, Note_on_c, 0, 56, 100
2, 3829042, Note_off_c, 0, 60, 100
2, 3829767, Note_on_c, 0, 54, 100
2, 3830211, Note_off_c, 0, 58, 100
2, 3830543, Note_on_c, 0, 52, 100
2, 3830909, Note_off_c, 0, 56, 100
2, 3831038, Note_off_c, 0, 52, 100
2, 3831135, Note_off_c, 0, 54, 100
2, 3831310, Note_on_c, 0, 50, 100
2, 3831942, Note_off_c, 0, 50, 100
2, 3832054, Note_on_c, 0, 50, 100
2, 3832765, Note_on_c, 0, 49, 100
2, 3833411, Note_off_c, 0, 50, 100
2, 3833436, Note_on_c, 0, 48, 100
2, 3834069, Note_off_c, 0, 48, 100
2, 3834069, Note_on_c, 0, 48, 100
2, 3834442, Note_off_c, 0, 49, 100
2, 3834768, Note_on_c, 0, 49, 100
2, 3835124, Note_off_c, 0, 48, 100
2, 3835183, Note_off_c, 0, 49, 100
2, 3835624, Note_on_c, 0, 49, 100
2, 3835964, Note_off_c, 0, 49, 100
2, 3836479, Note_on_c, 0, 50, 100
2, 3837140, Note_off_c, 0, 50, 100
2, 3837315, Note_on_c, 0, 50, 100
2, 3838003, Note_off_c, 0, 50, 100
2, 3838112, Note_on_c, 0, 51, 100
2, 3838607, Note_off_c, 0, 51, 100
2, 3838857, Note_on_c, 0, 51, 100
2, 3839096, Note_off_c, 0, 51, 100
2, 3839542, Note_on_c, 0, 52, 100
2, 3839646, Note_off_c, 0, 52, 100
2, 3840167, Note_on_c, 0, 52, 100
2, 3840308, Note_off_c, 0, 52, 100
2, 3840740, Note_on_c, 0, 53, 100
2, 3841132, Note_off_c, 0, 53, 100
2, 3841276, Note_on_c, 0, 52, 100
2, 3841999, Note_off_c, 0, 52, 100
2, 3842042, Note_on_c, 0, 52, 100
2, 3842954, Note_on_c, 0, 51, 100
2, 3842997, Note_off_c, 0, 52, 100
2, 3843835, Note_on_c, 0, 50, 100
2, 3843878, Note_off_c, 0, 51, 100
2, 3844394, Note_off_c, 0, 50, 100
2, 3844666, Note_on_c, 0, 50, 100
2, 3844942, Note_off_c, 0, 50, 100
2, 3845435, Note_on_c, 0, 49, 100
2, 3846134, Note_on_c, 0, 48, 100
2, 3846452, Note_off_c, 0, 49, 100
2, 3846769, Note_on_c, 0, 47, 100
2, 3847351, Note_off_c, 0, 47, 100
2, 3847351, Note_on_c, 0, 47, 100
2, 3847747, Note_off_c, 0, 48, 100
2, 3847897, Note_off_c, 0, 47, 100
2, 3847897, Note_on_c, 0, 47, 100
2, 3848430, Note_on_c, 0, 48, 100
2, 3848665, Note_off_c, 0, 48, 100
2, 3848943, Note_off_c, 0, 47, 100
2, 3849267, Note_on_c, 0, 49, 100
2, 3850136, Note_on_c, 0, 50, 100
2, 3850425, Note_off_c, 0, 49, 100
2, 3850959, Note_on_c, 0, 51, 100
2, 3851729, Note_on_c, 0, 53, 100
2, 3851923, Note_off_c, 0, 50, 100
2, 3852444, Note_on_c, 0, 55, 100
2, 3852903, Note_off_c, 0, 51, 100
2, 3853112, Note_on_c, 0, 58, 100
2, 3853233, Note_off_c, 0, 58, 100
2, 3853334, Note_off_c, 0, 53, 100
2, 3853345, Note_off_c, 0, 55, 100
2, 3853743, Note_on_c, 0, 60, 100
2, 3854356, Note_on_c, 0, 62, 100
2, 3854565, Note_off_c, 0, 60, 100
2, 3854968, Note_on_c, 0, 64, 100
2, 3855560, Note_off_c, 0, 62, 100
2, 3855604, Note_on_c, 0, 65, 100
2, 3856173, Note_off_c, 0, 64, 100
2, 3856391, Note_on_c, 0, 66, 100
2, 3856510, Note_off_c, 0, 65, 100
2, 3856869, Note_off_c, 0, 66, 100
2, 3857144, Note_on_c, 0, 66, 100
2, 3857260, Note_off_c, 0, 66, 100
2, 3857864, Note_on_c, 0, 65, 100
2, 3858099, Note_off_c, 0, 65, 100
2, 3858558, Note_on_c, 0, 64, 100
2, 3858727, Note_off_c, 0, 64, 100
2, 3859235, Note_on_c, 0, 62, 100
2, 3859462, Note_off_c, 0, 62, 100
2, 3859929, Note_on_c, 0, 60, 100
2, 3860339, Note_off_c, 0, 60, 100
2, 3860682, Note_on_c, 0, 57, 100
2, 3861100, Note_off_c, 0, 57, 100
2, 3861412, Note_on_c, 0, 54, 100
2, 3861582, Note_off_c, 0, 54, 100
2, 3862113, Note_on_c, 0, 51, 100
2, 3862599, Note_off_c, 0, 51, 100
2, 3862817, Note_on_c, 0, 49, 100
2, 3863613, Note_on_c, 0, 46, 100
2, 3863832, Note_off_c, 0, 49, 100
2, 3864424, Note_on_c, 0, 43, 100
2, 3865012, Note_off_c, 0, 46, 100
2, 3865234, Note_on_c, 0, 41, 100
2, 3865875, Note_off_c, 0, 43, 100
2, 3866027, Note_on_c, 0, 40, 100
2, 3866318, Note_off_c, 0, 41, 100
2, 3866383, Note_off_c, 0, 40, 100
2, 3866788, Note_on_c, 0, 39, 100
2, 3867504, Note_off_c, 0, 39, 100
2, 3867504, Note_on_c, 0, 39, 100
2, 3868169, Note_on_c, 0, 40, 100
2, 3868786, Note_on_c, 0, 41, 100
2, 3869028, Note_off_c, 0, 39, 100
2, 3869361, Note_on_c, 0, 43, 100
2, 3870088, Note_off_c, 0, 45, 100
2, 3870088, Note_on_c, 0, 45, 100
2, 3870136, Note_off_c, 0, 40, 100
2, 3870696, Note_off_c, 0, 41, 100
2, 3870723, Note_off_c, 0, 43, 100
2, 3870983, Note_on_c, 0, 48, 100
2, 3871623, Note_off_c, 0, 48, 100
2, 3871862, Note_on_c, 0, 50, 100
2, 3872704, Note_on_c, 0, 52, 100
2, 3873226, Note_off_c, 0, 50, 100
2, 3873492, Note_on_c, 0, 55, 100
2, 3874214, Note_on_c, 0, 57, 100
2, 3874388, Note_off_c, 0, 52, 100
2, 3874870, Note_on_c, 0, 59, 100
2, 3875039, Note_off_c, 0, 55, 100
2, 3875269, Note_off_c, 0, 57, 100
2, 3875282, Note_off_c, 0, 59, 100
2, 3875465, Note_on_c, 0, 61, 100
2, 3875811, Note_off_c, 0, 61, 100
2, 3876013, Note_on_c, 0, 62, 100
2, 3876534, Note_off_c, 0, 62, 100
2, 3876534, Note_on_c, 0, 62, 100
2, 3877230, Note_off_c, 0, 62, 100
2, 3877347, Note_on_c, 0, 62, 100
2, 3877850, Note_off_c, 0, 62, 100
2, 3878249, Note_on_c, 0, 61, 100
2, 3878494, Note_off_c, 0, 61, 100
2, 3879110, Note_on_c, 0, 60, 100
2, 3879211, Note_off_c, 0, 60, 100
2, 3879915, Note_on_c, 0, 59, 100
2, 3880055, Note_off_c, 0, 59, 100
2, 3880657, Note_on_c, 0, 58, 100
2, 3881045, Note_off_c, 0, 58, 100
2, 3881336, Note_on_c, 0, 56, 100
2, 3881962, Note_on_c, 0, 55, 100
2, 3882052, Note_off_c, 0, 56, 100
2, 3882549, Note_on_c, 0, 53, 100
2, 3882909, Note_off_c, 0, 55, 100
2, 3883117, Note_on_c, 0, 52, 100
2, 3883465, Note_off_c, 0, 53, 100
2, 3883668, Note_off_c, 0, 52, 100
2, 3883686, Note_on_c, 0, 52, 100
2, 3883967, Note_off_c, 0, 52, 100
2, 3884524, Note_on_c, 0, 51, 100
2, 3885341, Note_off_c, 0, 51, 100
2, 3885341, Note_on_c, 0, 51, 100
2, 3886115, Note_off_c, 0, 51, 100
2, 3886115, Note_on_c, 0, 51, 100
2, 3886845, Note_on_c, 0, 52, 100
2, 3887537, Note_off_c, 0, 52, 100
2, 3887537, Note_on_c, 0, 52, 100
2, 3887954, Note_off_c, 0, 51, 100
2, 3888202, Note_on_c, 0, 53, 100
2, 3888431, Note_off_c, 0, 52, 100
2, 3888446, Note_off_c, 0, 53, 100
2, 3888855, Note_on_c, 0, 54, 100
2, 3889510, Note_off_c, 0, 54, 100
2, 3889510, Note_on_c, 0, 54, 100
2, 3890181, Note_on_c, 0, 55, 100
2, 3890882, Note_off_c, 0, 55, 100
2, 3890882, Note_on_c, 0, 55, 100
2, 3891302, Note_off_c, 0, 54, 100
2, 3891603, Note_off_c, 0, 55, 100
2, 3891603, Note_on_c, 0, 55, 100
2, 3892355, Note_on_c, 0, 54, 100
2, 3892483, Note_off_c, 0, 54, 100
2, 3892499, Note_off_c, 0, 55, 100
2, 3893125, Note_on_c, 0, 53, 100
2, 3893900, Note_on_c, 0, 52, 100
2, 3893955, Note_off_c, 0, 53, 100
2, 3894667, Note_on_c, 0, 50, 100
2, 3895112, Note_off_c, 0, 52, 100
2, 3895412, Note_off_c, 0, 50, 100
2, 3895412, Note_on_c, 0, 50, 100
2, 3896122, Note_on_c, 0, 48, 100
2, 3896322, Note_off_c, 0, 50, 100
2, 3896601, Note_off_c, 0, 48, 100
2, 3896794, Note_on_c, 0, 46, 100
2, 3896908, Note_off_c, 0, 46, 100
2, 3897427, Note_off_c, 0, 45, 100
2, 3897427, Note_on_c, 0, 45, 100
2, 3898130, Note_on_c, 0, 44, 100
2, 3898306, Note_off_c, 0, 44, 100
2, 3898985, Note_on_c, 0, 43, 100
2, 3899203, Note_off_c, 0, 43, 100
2, 3899839, Note_on_c, 0, 43, 100
2, 3900241, Note_off_c, 0, 43, 100
2, 3900674, Note_on_c, 0, 44, 100
2, 3901085, Note_off_c, 0, 44, 100
2, 3901471, Note_on_c, 0, 44, 100
2, 3901637, Note_off_c, 0, 44, 100
2, 3902215, Note_on_c, 0, 46, 100
2, 3902702, Note_off_c, 0, 46, 100
2, 3902899, Note_on_c, 0, 48, 100
2, 3903524, Note_on_c, 0, 50, 100
2, 3903911, Note_off_c, 0, 48, 100
2, 3904097, Note_on_c, 0, 52, 100
2, 3904633, Note_on_c, 0, 55, 100
2, 3904917, Note_off_c, 0, 50, 100
2, 3905405, Note_on_c, 0, 58, 100
2, 3905540, Note_off_c, 0, 52, 100
2, 3905708, Note_off_c, 0, 55, 100
2, 3905753, Note_off_c, 0, 58, 100
2, 3906316, Note_on_c, 0, 61, 100
2, 3907052, Note_off_c, 0, 61, 100
2, 3907197, Note_on_c, 0, 63, 100
2, 3908028, Note_on_c, 0, 65, 100
2, 3908725, Note_off_c, 0, 63, 100
2, 3908795, Note_on_c, 0, 66, 100
2, 3909494, Note_on_c, 0, 67, 100
2, 3909996, Note_off_c, 0, 65, 100
2, 3910128, Note_off_c, 0, 67, 100
2, 3910128, Note_on_c, 0, 67, 100
2, 3910702, Note_off_c, 0, 66, 100
2, 3910709, Note_off_c, 0, 67, 100
2, 3910709, Note_on_c, 0, 67, 100
2, 3911255, Note_on_c, 0, 65, 100
2, 3911358, Note_off_c, 0, 67, 100
2, 3911787, Note_on_c, 0, 63, 100
2, 3912627, Note_off_c, 0, 65, 100
2, 3912630, Note_on_c, 0, 61, 100
2, 3913477, Note_off_c, 0, 63, 100
2, 3913499, Note_on_c, 0, 58, 100
2, 3914181, Note_off_c, 0, 61, 100
2, 3914322, Note_on_c, 0, 55, 100
2, 3914554, Note_off_c, 0, 58, 100
2, 3914731, Note_off_c, 0, 55, 100
2, 3915092, Note_on_c, 0, 52, 100
2, 3915444, Note_off_c, 0, 52, 100
2, 3915807, Note_on_c, 0, 50, 100
2, 3916473, Note_on_c, 0, 47, 100
2, 3916484, Note_off_c, 0, 50, 100
2, 3917104, Note_off_c, 0, 45, 100
2, 3917104, Note_on_c, 0, 45, 100
2, 3917178, Note_off_c, 0, 47, 100
2, 3917716, Note_on_c, 0, 43, 100
2, 3917967, Note_off_c, 0, 43, 100
2, 3918327, Note_on_c, 0, 41, 100
2, 3918425, Note_off_c, 0, 41, 100
2, 3918966, Note_on_c, 0, 41, 100
2, 3919106, Note_off_c, 0, 41, 100
2, 3919753, Note_on_c, 0, 41, 100
2, 3920137, Note_off_c, 0, 41, 100
2, 3920507, Note_on_c, 0, 41, 100
2, 3921217, Note_off_c, 0, 41, 100
2, 3921227, Note_on_c, 0, 42, 100
2, 3921920, Note_on_c, 0, 44, 100
2, 3922165, Note_off_c, 0, 42, 100
2, 3922598, Note_on_c, 0, 46, 100
2, 3922827, Note_off_c, 0, 44, 100
2, 3923142, Note_off_c, 0, 46, 100
2, 3923286, Note_on_c, 0, 48, 100
2, 3923572, Note_off_c, 0, 48, 100
2, 3924040, Note_on_c, 0, 50, 100
2, 3924771, Note_on_c, 0, 52, 100
2, 3925062, Note_off_c, 0, 50, 100
2, 3925472, Note_on_c, 0, 53, 100
2, 3926177, Note_on_c, 0, 55, 100
2, 3926382, Note_off_c, 0, 52, 100
2, 3926973, Note_on_c, 0, 56, 100
2, 3927307, Note_off_c, 0, 53, 100
2, 3927756, Note_off_c, 0, 55, 100
2, 3927783, Note_on_c, 0, 57, 100
2, 3927857, Note_off_c, 0, 56, 100
2, 3928035, Note_off_c, 0, 57, 100
2, 3928593, Note_on_c, 0, 58, 100
2, 3929385, Note_off_c, 0, 58, 100
2, 3929385, Note_on_c, 0, 58, 100
2, 3930145, Note_off_c, 0, 58, 100
2, 3930145, Note_on_c, 0, 58, 100
2, 3930861, Note_on_c, 0, 57, 100
2, 3931527, Note_on_c, 0, 56, 100
2, 3932093, Note_off_c, 0, 58, 100
2, 3932143, Note_on_c, 0, 55, 100
2, 3932279, Note_off_c, 0, 55, 100
2, 3932419, Note_off_c, 0, 56, 100
2, 3932463, Note_off_c, 0, 57, 100
2, 3932719, Note_on_c, 0, 54, 100
2, 3933450, Note_off_c, 0, 54, 100
2, 3933450, Note_on_c, 0, 54, 100
2, 3934345, Note_on_c, 0, 53, 100
2, 3934670, Note_off_c, 0, 54, 100
2, 3935223, Note_off_c, 0, 53, 100
2, 3935223, Note_on_c, 0, 53, 100
2, 3936064, Note_on_c, 0, 52, 100
2, 3936138, Note_off_c, 0, 53, 100
2, 3936545, Note_off_c, 0, 52, 100
2, 3936851, Note_on_c, 0, 53, 100
2, 3936963, Note_off_c, 0, 53, 100
2, 3937573, Note_on_c, 0, 53, 100
2, 3937818, Note_off_c, 0, 53, 100
2, 3938228, Note_on_c, 0, 54, 100
2, 3938411, Note_off_c, 0, 54, 100
2, 3938823, Note_on_c, 0, 55, 100
2, 3939033, Note_off_c, 0, 55, 100
2, 3939371, Note_on_c, 0, 56, 100
2, 3939765, Note_off_c, 0, 56, 100
2, 3939892, Note_on_c, 0, 57, 100
2, 3940296, Note_off_c, 0, 57, 100
2, 3940710, Note_on_c, 0, 58, 100
2, 3940872, Note_off_c, 0, 58, 100
2, 3941611, Note_on_c, 0, 58, 100
2, 3942098, Note_off_c, 0, 58, 100
2, 3942472, Note_on_c, 0, 59, 100
2, 3943277, Note_off_c, 0, 59, 100
2, 3943277, Note_on_c, 0, 59, 100
2, 3944018, Note_on_c, 0, 58, 100
2, 3944665, Note_off_c, 0, 59, 100
2, 3944697, Note_on_c, 0, 57, 100
2, 3945322, Note_on_c, 0, 56, 100
2, 3945453, Note_off_c, 0, 58, 100
2, 3945662, Note_off_c, 0, 56, 100
2, 3945764, Note_off_c, 0, 57, 100
2, 3945908, Note_on_c, 0, 54, 100
2, 3946475, Note_on_c, 0, 52, 100
2, 3946650, Note_off_c, 0, 54, 100
2, 3947044, Note_on_c, 0, 50, 100
2, 3947886, Note_on_c, 0, 48, 100
2, 3948007, Note_off_c, 0, 52, 100
2, 3948703, Note_on_c, 0, 46, 100
2, 3949012, Note_off_c, 0, 50, 100
2, 3949477, Note_on_c, 0, 44, 100
2, 3949790, Note_off_c, 0, 48, 100
2, 3949949, Note_off_c, 0, 44, 100
2, 3950053, Note_off_c, 0, 46, 100
2, 3950208, Note_on_c, 0, 42, 100
2, 3950865, Note_off_c, 0, 42, 100
2, 3950900, Note_on_c, 0, 41, 100
2, 3951564, Note_on_c, 0, 40, 100
2, 3952216, Note_off_c, 0, 40, 100
2, 3952216, Note_on_c, 0, 40, 100
2, 3952280, Note_off_c, 0, 41, 100
2, 3952871, Note_on_c, 0, 41, 100
2, 3953541, Note_on_c, 0, 42, 100
2, 3953770, Note_off_c, 0, 40, 100
2, 3953926, Note_off_c, 0, 41, 100
2, 3953946, Note_off_c, 0, 42, 100
2, 3954242, Note_on_c, 0, 44, 100
2, 3954600, Note_off_c, 0, 44, 100
2, 3954962, Note_on_c, 0, 46, 100
2, 3955647, Note_off_c, 0, 46, 100
2, 3955713, Note_on_c, 0, 49, 100
2, 3956426, Note_off_c, 0, 49, 100
2, 3956482, Note_on_c, 0, 51, 100
2, 3957000, Note_off_c, 0, 51, 100
2, 3957258, Note_on_c, 0, 54, 100
2, 3957514, Note_off_c, 0, 54, 100
2, 3958025, Note_on_c, 0, 57, 100
2, 3958121, Note_off_c, 0, 57, 100
2, 3958769, Note_on_c, 0, 60, 100
2, 3958908, Note_off_c, 0, 60, 100
2, 3959480, Note_on_c, 0, 63, 100
2, 3959860, Note_off_c, 0, 63, 100
2, 3960151, Note_on_c, 0, 65, 100
2, 3960785, Note_on_c, 0, 66, 100
2, 3960854, Note_off_c, 0, 65, 100
2, 3961491, Note_on_c, 0, 67, 100
2, 3961715, Note_off_c, 0, 66, 100
2, 3962346, Note_off_c, 0, 67, 100
2, 3962346, Note_on_c, 0, 67, 100
2, 3962882, Note_off_c, 0, 67, 100
2, 3963199, Note_on_c, 0, 66, 100
2, 3963491, Note_off_c, 0, 66, 100
2, 3964033, Note_on_c, 0, 65, 100
2, 3964829, Note_on_c, 0, 63, 100
2, 3965057, Note_off_c, 0, 65, 100
2, 3965573, Note_on_c, 0, 61, 100
2, 3966257, Note_on_c, 0, 58, 100
2, 3966439, Note_off_c, 0, 63, 100
2, 3966881, Note_on_c, 0, 56, 100
2, 3967403, Note_off_c, 0, 61, 100
2, 3967454, Note_on_c, 0, 53, 100
2, 3967715, Note_off_c, 0, 53, 100
2, 3967757, Note_off_c, 0, 56, 100
2, 3967829, Note_off_c, 0, 58, 100
2, 3967990, Note_on_c, 0, 50, 100
2, 3968768, Note_on_c, 0, 49, 100
2, 3969170, Note_off_c, 0, 50, 100
2, 3969679, Note_on_c, 0, 47, 100
2, 3970559, Note_off_c, 0, 45, 100
2, 3970559, Note_on_c, 0, 45, 100
2, 3970570, Note_off_c, 0, 49, 100
2, 3971389, Note_on_c, 0, 44, 100
2, 3971629, Note_off_c, 0, 47, 100
2, 3972155, Note_off_c, 0, 44, 100
2, 3972155, Note_on_c, 0, 44, 100
2, 3972298, Note_off_c, 0, 44, 100
2, 3972854, Note_on_c, 0, 44, 100
2, 3973487, Note_off_c, 0, 45, 100
2, 3973487, Note_on_c, 0, 45, 100
2, 3973701, Note_off_c, 0, 44, 100
2, 3974068, Note_on_c, 0, 46, 100
2, 3974613, Note_on_c, 0, 47, 100
2, 3975145, Note_on_c, 0, 48, 100
2, 3975294, Note_off_c, 0, 46, 100
2, 3975532, Note_off_c, 0, 47, 100
2, 3975627, Note_off_c, 0, 48, 100
2, 3975993, Note_on_c, 0, 50, 100
2, 3976103, Note_off_c, 0, 50, 100
2, 3976862, Note_on_c, 0, 50, 100
2, 3977112, Note_off_c, 0, 50, 100
2, 3977685, Note_on_c, 0, 52, 100
2, 3977876, Note_off_c, 0, 52, 100
2, 3978454, Note_on_c, 0, 53, 100
2, 3978655, Note_off_c, 0, 53, 100
2, 3979169, Note_on_c, 0, 53, 100
2, 3979555, Note_off_c, 0, 53, 100
2, 3979835, Note_on_c, 0, 54, 100
2, 3980233, Note_off_c, 0, 54, 100
2, 3980465, Note_on_c, 0, 54, 100
2, 3980623, Note_off_c, 0, 54, 100
2, 3981077, Note_on_c, 0, 54, 100
2, 3981565, Note_off_c, 0, 54, 100
2, 3981687, Note_on_c, 0, 53, 100
2, 3982327, Note_off_c, 0, 53, 100
2, 3982327, Note_on_c, 0, 53, 100
2, 3983115, Note_on_c, 0, 52, 100
2, 3983709, Note_off_c, 0, 53, 100
2, 3983869, Note_on_c, 0, 51, 100
2, 3984543, Note_off_c, 0, 52, 100
2, 3984590, Note_off_c, 0, 51, 100
2, 3984590, Note_on_c, 0, 51, 100
2, 3984927, Note_off_c, 0, 51, 100
2, 3985283, Note_on_c, 0, 50, 100
2, 3985960, Note_off_c, 0, 50, 100
2, 3985960, Note_on_c, 0, 50, 100
2, 3986644, Note_on_c, 0, 51, 100
2, 3987398, Note_off_c, 0, 51, 100
2, 3987398, Note_on_c, 0, 51, 100
2, 3987495, Note_off_c, 0, 50, 100
2, 3988129, Note_on_c, 0, 52, 100
2, 3988830, Note_on_c, 0, 53, 100
2, 3989294, Note_off_c, 0, 53, 100
2, 3989299, Note_off_c, 0, 51, 100
2, 3989473, Note_off_c, 0, 52, 100
2, 3989538, Note_on_c, 0, 55, 100
2, 3990204, Note_off_c, 0, 55, 100
2, 3990333, Note_on_c, 0, 56, 100
2, 3991142, Note_on_c, 0, 58, 100
2, 3991721, Note_off_c, 0, 56, 100
2, 3991951, Note_on_c, 0, 59, 100
2, 3992743, Note_on_c, 0, 61, 100
2, 3992843, Note_off_c, 0, 58, 100
2, 3993503, Note_on_c, 0, 62, 100
2, 3993508, Note_off_c, 0, 59, 100
2, 3993798, Note_off_c, 0, 61, 100
2, 3993905, Note_off_c, 0, 62, 100
2, 3994218, Note_on_c, 0, 63, 100
2, 3994583, Note_off_c, 0, 63, 100
2, 3994884, Note_on_c, 0, 63, 100
2, 3995500, Note_on_c, 0, 62, 100
2, 3995577, Note_off_c, 0, 63, 100
2, 3996076, Note_on_c, 0, 61, 100
2, 3996222, Note_off_c, 0, 62, 100
2, 3996602, Note_off_c, 0, 61, 100
2, 3996812, Note_on_c, 0, 60, 100
2, 3997074, Note_off_c, 0, 60, 100
2, 3997706, Note_on_c, 0, 58, 100
2, 3997804, Note_off_c, 0, 58, 100
2, 3998584, Note_on_c, 0, 56, 100
2, 3998722, Note_off_c, 0, 56, 100
2, 3999425, Note_on_c, 0, 53, 100
2, 3999801, Note_off_c, 0, 53, 100
2, 4000211, Note_on_c, 0, 50, 100
2, 4000908, Note_off_c, 0, 50, 100
2, 4000932, Note_on_c, 0, 48, 100
2, 4001587, Note_off_c, 0, 45, 100
2, 4001587, Note_on_c, 0, 45, 100
2, 4001854, Note_off_c, 0, 48, 100
2, 4002181, Note_on_c, 0, 43, 100
2, 4002710, Note_off_c, 0, 43, 100
2, 4002728, Note_on_c, 0, 41, 100
2, 4003025, Note_off_c, 0, 41, 100
2, 4003249, Note_on_c, 0, 40, 100
2, 4004072, Note_on_c, 0, 39, 100
2, 4004275, Note_off_c, 0, 40, 100
2, 4004974, Note_off_c, 0, 39, 100
2, 4004974, Note_on_c, 0, 39, 100
2, 4005835, Note_off_c, 0, 39, 100
2, 4005835, Note_on_c, 0, 39, 100
2, 4006639, Note_on_c, 0, 41, 100
2, 4007380, Note_on_c, 0, 43, 100
2, 4007400, Note_off_c, 0, 39, 100
2, 4007507, Note_off_c, 0, 41, 100
2, 4007649, Note_off_c, 0, 43, 100
2, 4008058, Note_off_c, 0, 45, 100
2, 4008058, Note_on_c, 0, 45, 100
2, 4008682, Note_on_c, 0, 48, 100
2, 4009268, Note_on_c, 0, 50, 100
2, 4009834, Note_on_c, 0, 53, 100
2, 4010402, Note_on_c, 0, 56, 100
2, 4010489, Note_off_c, 0, 48, 100
2, 4011219, Note_off_c, 0, 50, 100
2, 4011249, Note_on_c, 0, 59, 100
2, 4011284, Note_off_c, 0, 56, 100
2, 4011399, Note_off_c, 0, 59, 100
2, 4011433, Note_off_c, 0, 53, 100
2, 4012066, Note_on_c, 0, 61, 100
2, 4012840, Note_on_c, 0, 63, 100
2, 4012922, Note_off_c, 0, 61, 100
2, 4013570, Note_on_c, 0, 65, 100
2, 4014077, Note_off_c, 0, 63, 100
2, 4014262, Note_off_c, 0, 65, 100
2, 4014262, Note_on_c, 0, 65, 100
2, 4014927, Note_off_c, 0, 65, 100
2, 4014927, Note_on_c, 0, 65, 100
2, 4015410, Note_off_c, 0, 65, 100
2, 4015578, Note_on_c, 0, 65, 100
2, 4015686, Note_off_c, 0, 65, 100
2, 4016232, Note_on_c, 0, 64, 100
2, 4016488, Note_off_c, 0, 64, 100
2, 4016902, Note_on_c, 0, 62, 100
2, 4017100, Note_off_c, 0, 62, 100
2, 4017602, Note_on_c, 0, 60, 100
2, 4017795, Note_off_c, 0, 60, 100
2, 4018321, Note_on_c, 0, 58, 100
2, 4018699, Note_off_c, 0, 58, 100
2, 4019071, Note_on_c, 0, 56, 100
2, 4019462, Note_off_c, 0, 56, 100
2, 4019840, Note_on_c, 0, 53, 100
2, 4019994, Note_off_c, 0, 53, 100
2, 4020615, Note_on_c, 0, 51, 100
2, 4021104, Note_off_c, 0, 51, 100
2, 4021382, Note_on_c, 0, 50, 100
2, 4022126, Note_on_c, 0, 49, 100
2, 4022386, Note_off_c, 0, 50, 100
2, 4022837, Note_off_c, 0, 49, 100
2, 4022837, Note_on_c, 0, 49, 100
2, 4023509, Note_on_c, 0, 48, 100
2, 4024143, Note_off_c, 0, 48, 100
2, 4024143, Note_on_c, 0, 48, 100
2, 4024257, Note_off_c, 0, 49, 100
2, 4024559, Note_off_c, 0, 48, 100
2, 4024853, Note_on_c, 0, 48, 100
2, 4025608, Note_off_c, 0, 48, 100
2, 4025706, Note_on_c, 0, 49, 100
2, 4026559, Note_on_c, 0, 50, 100
2, 4027245, Note_off_c, 0, 49, 100
2, 4027393, Note_off_c, 0, 50, 100
2, 4027393, Note_on_c, 0, 50, 100
2, 4028188, Note_on_c, 0, 51, 100
2, 4028931, Note_off_c, 0, 51, 100
2, 4028931, Note_on_c, 0, 51, 100
2, 4029291, Note_off_c, 0, 50, 100
2, 4029526, Note_off_c, 0, 51, 100
2, 4029615, Note_on_c, 0, 52, 100
2, 4030239, Note_off_c, 0, 52, 100
2, 4030239, Note_on_c, 0, 52, 100
2, 4030811, Note_on_c, 0, 53, 100
2, 4031348, Note_off_c, 0, 52, 100
2, 4031348, Note_on_c, 0, 52, 100
2, 4032130, Note_off_c, 0, 52, 100
2, 4032130, Note_on_c, 0, 52, 100
2, 4032518, Note_off_c, 0, 53, 100
2, 4033041, Note_on_c, 0, 51, 100
2, 4033185, Note_off_c, 0, 52, 100
2, 4033439, Note_off_c, 0, 51, 100
2, 4033920, Note_on_c, 0, 50, 100
2, 4034291, Note_off_c, 0, 50, 100
2, 4034750, Note_on_c, 0, 50, 100
2, 4035451, Note_off_c, 0, 50, 100
2, 4035516, Note_on_c, 0, 49, 100
2, 4036214, Note_on_c, 0, 48, 100
2, 4036246, Note_off_c, 0, 49, 100
2, 4036747, Note_off_c, 0, 48, 100
2, 4036846, Note_on_c, 0, 48, 100
2, 4037113, Note_off_c, 0, 48, 100
2, 4037426, Note_on_c, 0, 47, 100
2, 4037526, Note_off_c, 0, 47, 100
2, 4037971, Note_on_c, 0, 47, 100
2, 4038108, Note_off_c, 0, 47, 100
2, 4038502, Note_on_c, 0, 48, 100
2, 4038874, Note_off_c, 0, 48, 100
2, 4039356, Note_on_c, 0, 49, 100
2, 4040046, Note_off_c, 0, 49, 100
2, 4040224, Note_on_c, 0, 50, 100
2, 4041048, Note_on_c, 0, 51, 100
2, 4041138, Note_off_c, 0, 50, 100
2, 4041817, Note_on_c, 0, 53, 100
2, 4041930, Note_off_c, 0, 51, 100
2, 4042339, Note_off_c, 0, 53, 100
2, 4042531, Note_on_c, 0, 55, 100
2, 4042833, Note_off_c, 0, 55, 100
2, 4043196, Note_on_c, 0, 58, 100
2, 4043826, Note_on_c, 0, 60, 100
2, 4044224, Note_off_c, 0, 58, 100
2, 4044437, Note_on_c, 0, 62, 100
2, 4045046, Note_on_c, 0, 64, 100
2, 4045433, Note_off_c, 0, 60, 100
2, 4045688, Note_on_c, 0, 65, 100
2, 4046258, Note_off_c, 0, 62, 100
2, 4046476, Note_on_c, 0, 66, 100
2, 4046547, Note_off_c, 0, 65, 100
2, 4046604, Note_off_c, 0, 64, 100
2, 4046753, Note_off_c, 0, 66, 100
2, 4047231, Note_on_c, 0, 66, 100
2, 4047952, Note_on_c, 0, 65, 100
2, 4048425, Note_off_c, 0, 66, 100
2, 4048646, Note_on_c, 0, 64, 100
2, 4049323, Note_on_c, 0, 62, 100
2, 4049763, Note_off_c, 0, 65, 100
2, 4050001, Note_on_c, 0, 60, 100
2, 4050599, Note_off_c, 0, 64, 100
2, 4050755, Note_on_c, 0, 57, 100
2, 4050878, Note_off_c, 0, 60, 100
2, 4050912, Note_off_c, 0, 57, 100
2, 4050920, Note_off_c, 0, 62, 100
2, 4051487, Note_on_c, 0, 54, 100
2, 4052189, Note_on_c, 0, 51, 100
2, 4052351, Note_off_c, 0, 54, 100
2, 4052898, Note_on_c, 0, 49, 100
2, 4053434, Note_off_c, 0, 51, 100
2, 4053693, Note_on_c, 0, 46, 100
2, 4054138, Note_off_c, 0, 49, 100
2, 4054501, Note_on_c, 0, 43, 100
2, 4054621, Note_off_c, 0, 46, 100
2, 4054985, Note_off_c, 0, 43, 100
2, 4055310, Note_on_c, 0, 41, 100
2, 4055416, Note_off_c, 0, 41, 100
2, 4056101, Note_on_c, 0, 40, 100
2, 4056362, Note_off_c, 0, 40, 100
2, 4056860, Note_on_c, 0, 39, 100
2, 4057066, Note_off_c, 0, 39, 100
2, 4057576, Note_on_c, 0, 39, 100
2, 4057760, Note_off_c, 0, 39, 100
2, 4058241, Note_on_c, 0, 40, 100
2, 4058610, Note_off_c, 0, 40, 100
2, 4058857, Note_on_c, 0, 41, 100
2, 4059242, Note_off_c, 0, 41, 100
2, 4059434, Note_on_c, 0, 43, 100
2, 4059584, Note_off_c, 0, 43, 100
2, 4060174, Note_off_c, 0, 45, 100
2, 4060174, Note_on_c, 0, 45, 100
2, 4061068, Note_on_c, 0, 48, 100
2, 4061945, Note_on_c, 0, 50, 100
2, 4062070, Note_off_c, 0, 48, 100
2, 4062785, Note_on_c, 0, 52, 100
2, 4063316, Note_off_c, 0, 50, 100
2, 4063570, Note_on_c, 0, 55, 100
2, 4064197, Note_off_c, 0, 52, 100
2, 4064291, Note_on_c, 0, 57, 100
2, 4064607, Note_off_c, 0, 57, 100
2, 4064611, Note_off_c, 0, 55, 100
2, 4064945, Note_on_c, 0, 59, 100
2, 4065538, Note_on_c, 0, 61, 100
2, 4065706, Note_off_c, 0, 59, 100
2, 4066085, Note_on_c, 0, 62, 100
2, 4066606, Note_off_c, 0, 62, 100
2, 4066606, Note_on_c, 0, 62, 100
2, 4067080, Note_off_c, 0, 61, 100
2, 4067435, Note_off_c, 0, 62, 100
2, 4067435, Note_on_c, 0, 62, 100
2, 4068337, Note_on_c, 0, 61, 100
2, 4068767, Note_off_c, 0, 62, 100
2, 4068785, Note_off_c, 0, 61, 100
2, 4069197, Note_on_c, 0, 60, 100
2, 4069880, Note_off_c, 0, 60, 100
2, 4070001, Note_on_c, 0, 59, 100
2, 4070741, Note_on_c, 0, 58, 100
2, 4071405, Note_off_c, 0, 59, 100
2, 4071418, Note_on_c, 0, 56, 100
2, 4072042, Note_on_c, 0, 55, 100
2, 4072454, Note_off_c, 0, 58, 100
2, 4072627, Note_on_c, 0, 53, 100
2, 4072981, Note_off_c, 0, 56, 100
2, 4073021, Note_off_c, 0, 53, 100
2, 4073096, Note_off_c, 0, 55, 100
2, 4073193, Note_on_c, 0, 52, 100
2, 4073570, Note_off_c, 0, 52, 100
2, 4073760, Note_on_c, 0, 52, 100
2, 4074469, Note_off_c, 0, 52, 100
2, 4074611, Note_on_c, 0, 51, 100
2, 4075350, Note_off_c, 0, 51, 100
2, 4075429, Note_on_c, 0, 51, 100
2, 4075970, Note_off_c, 0, 51, 100
2, 4076203, Note_on_c, 0, 51, 100
2, 4076476, Note_off_c, 0, 51, 100
2, 4076933, Note_on_c, 0, 52, 100
2, 4077036, Note_off_c, 0, 52, 100
2, 4077625, Note_on_c, 0, 52, 100
2, 4077762, Note_off_c, 0, 52, 100
2, 4078289, Note_on_c, 0, 53, 100
2, 4078657, Note_off_c, 0, 53, 100
2, 4078940, Note_on_c, 0, 54, 100
2, 4079593, Note_off_c, 0, 54, 100
2, 4079593, Note_on_c, 0, 54, 100
2, 4080262, Note_on_c, 0, 55, 100
2, 4080499, Note_off_c, 0, 54, 100
2, 4080963, Note_off_c, 0, 55, 100
2, 4080963, Note_on_c, 0, 55, 100
2, 4081477, Note_off_c, 0, 55, 100
2, 4081680, Note_on_c, 0, 54, 100
2, 4081987, Note_off_c, 0, 54, 100
2, 4082430, Note_on_c, 0, 54, 100
2, 4083198, Note_on_c, 0, 53, 100
2, 4083460, Note_off_c, 0, 54, 100
2, 4083973, Note_on_c, 0, 52, 100
2, 4084739, Note_on_c, 0, 50, 100
2, 4084804, Note_off_c, 0, 53, 100
2, 4085483, Note_off_c, 0, 50, 100
2, 4085483, Note_on_c, 0, 50, 100
2, 4085790, Note_off_c, 0, 52, 100
2, 4086194, Note_on_c, 0, 48, 100
2, 4086334, Note_off_c, 0, 50, 100
2, 4086480, Note_off_c, 0, 48, 100
2, 4086867, Note_on_c, 0, 47, 100
2, 4087501, Note_off_c, 0, 45, 100
2, 4087501, Note_on_c, 0, 45, 100
2, 4088068, Note_off_c, 0, 47, 100
2, 4088214, Note_on_c, 0, 44, 100
2, 4089067, Note_on_c, 0, 43, 100
2, 4089919, Note_off_c, 0, 43, 100
2, 4089919, Note_on_c, 0, 43, 100
2, 4090168, Note_off_c, 0, 44, 100
2, 4090752, Note_on_c, 0, 44, 100
2, 4090791, Note_off_c, 0, 43, 100
2, 4090916, Note_off_c, 0, 44, 100
2, 4091547, Note_off_c, 0, 45, 100
2, 4091547, Note_on_c, 0, 45, 100
2, 4092289, Note_on_c, 0, 46, 100
2, 4092972, Note_on_c, 0, 48, 100
2, 4093542, Note_off_c, 0, 46, 100
2, 4093596, Note_on_c, 0, 50, 100
2, 4094168, Note_on_c, 0, 52, 100
2, 4094219, Note_off_c, 0, 48, 100
2, 4094528, Note_off_c, 0, 50, 100
2, 4094653, Note_off_c, 0, 52, 100
2, 4094705, Note_on_c, 0, 55, 100
2, 4094808, Note_off_c, 0, 55, 100
2, 4095493, Note_on_c, 0, 58, 100
2, 4095759, Note_off_c, 0, 58, 100
2, 4096403, Note_on_c, 0, 61, 100
2, 4096616, Note_off_c, 0, 61, 100
2, 4097282, Note_on_c, 0, 63, 100
2, 4097458, Note_off_c, 0, 63, 100
2, 4098111, Note_on_c, 0, 65, 100
2, 4098472, Note_off_c, 0, 65, 100
2, 4098876, Note_on_c, 0, 66, 100
2, 4099254, Note_off_c, 0, 66, 100
2, 4099573, Note_on_c, 0, 67, 100
2, 4099719, Note_off_c, 0, 67, 100
2, 4100205, Note_on_c, 0, 67, 100
2, 4100695, Note_off_c, 0, 67, 100
2, 4100785, Note_on_c, 0, 67, 100
2, 4101329, Note_on_c, 0, 65, 100
2, 4101784, Note_off_c, 0, 67, 100
2, 4101860, Note_on_c, 0, 63, 100
2, 4102694, Note_off_c, 0, 65, 100
2, 4102718, Note_on_c, 0, 61, 100
2, 4103265, Note_off_c, 0, 63, 100
2, 4103587, Note_on_c, 0, 58, 100
2, 4103751, Note_off_c, 0, 61, 100
2, 4103896, Note_off_c, 0, 58, 100
2, 4104410, Note_on_c, 0, 55, 100
2, 4105177, Note_off_c, 0, 55, 100
2, 4105179, Note_on_c, 0, 52, 100
2, 4105893, Note_on_c, 0, 50, 100
2, 4106558, Note_on_c, 0, 47, 100
2, 4106724, Note_off_c, 0, 52, 100
2, 4107187, Note_off_c, 0, 45, 100
2, 4107187, Note_on_c, 0, 45, 100
2, 4107797, Note_on_c, 0, 43, 100
2, 4107862, Note_off_c, 0, 50, 100
2, 4108237, Note_off_c, 0, 43, 100
2, 4108406, Note_on_c, 0, 41, 100
2, 4108449, Note_off_c, 0, 47, 100
2, 4109049, Note_off_c, 0, 41, 100
2, 4109049, Note_on_c, 0, 41, 100
2, 4109838, Note_off_c, 0, 41, 100
2, 4109838, Note_on_c, 0, 41, 100
2, 4110593, Note_off_c, 0, 41, 100
2, 4110593, Note_on_c, 0, 41, 100
2, 4111315, Note_on_c, 0, 42, 100
2, 4112009, Note_on_c, 0, 44, 100
2, 4112159, Note_off_c, 0, 41, 100
2, 4112369, Note_off_c, 0, 42, 100
2, 4112400, Note_off_c, 0, 44, 100
2, 4112686, Note_on_c, 0, 46, 100
2, 4113070, Note_off_c, 0, 46, 100
2, 4113361, Note_on_c, 0, 48, 100
2, 4114078, Note_off_c, 0, 48, 100
2, 4114113, Note_on_c, 0, 50, 100
2, 4114845, Note_on_c, 0, 52, 100
2, 4114860, Note_off_c, 0, 50, 100
2, 4115393, Note_off_c, 0, 52, 100
2, 4115548, Note_on_c, 0, 54, 100
2, 4115826, Note_off_c, 0, 54, 100
2, 4116259, Note_on_c, 0, 55, 100
2, 4116364, Note_off_c, 0, 55, 100
2, 4117052, Note_on_c, 0, 57, 100
2, 4117188, Note_off_c, 0, 57, 100
2, 4117860, Note_on_c, 0, 57, 100
2, 4118224, Note_off_c, 0, 57, 100
2, 4118668, Note_on_c, 0, 58, 100
2, 4119345, Note_off_c, 0, 58, 100
2, 4119459, Note_on_c, 0, 58, 100
2, 4120218, Note_off_c, 0, 58, 100
2, 4120218, Note_on_c, 0, 58, 100
2, 4120933, Note_on_c, 0, 57, 100
2, 4121083, Note_off_c, 0, 58, 100
2, 4121440, Note_off_c, 0, 57, 100
2, 4121598, Note_on_c, 0, 56, 100
2, 4121910, Note_off_c, 0, 56, 100
2, 4122215, Note_on_c, 0, 55, 100
2, 4122791, Note_on_c, 0, 54, 100
2, 4123247, Note_off_c, 0, 55, 100
2, 4123536, Note_off_c, 0, 54, 100
2, 4123536, Note_on_c, 0, 54, 100
2, 4124430, Note_on_c, 0, 53, 100
2, 4125306, Note_off_c, 0, 53, 100
2, 4125306, Note_on_c, 0, 53, 100
2, 4125348, Note_off_c, 0, 54, 100
2, 4126145, Note_on_c, 0, 52, 100
2, 4126149, Note_off_c, 0, 53, 100
2, 4126439, Note_off_c, 0, 52, 100
2, 4126930, Note_on_c, 0, 53, 100
2, 4127650, Note_off_c, 0, 53, 100
2, 4127650, Note_on_c, 0, 53, 100
2, 4128303, Note_on_c, 0, 54, 100
2, 4128896, Note_on_c, 0, 55, 100
2, 4129443, Note_on_c, 0, 56, 100
2, 4129471, Note_off_c, 0, 53, 100
2, 4129963, Note_on_c, 0, 57, 100
2, 4130135, Note_off_c, 0, 57, 100
2, 4130259, Note_off_c, 0, 54, 100
2, 4130310, Note_off_c, 0, 56, 100
2, 4130489, Note_off_c, 0, 55, 100
2, 4130798, Note_on_c, 0, 58, 100
2, 4131679, Note_off_c, 0, 58, 100
2, 4131699, Note_on_c, 0, 58, 100
2, 4132559, Note_on_c, 0, 59, 100
2, 4132960, Note_off_c, 0, 58, 100
2, 4133363, Note_off_c, 0, 59, 100
2, 4133363, Note_on_c, 0, 59, 100
2, 4134102, Note_on_c, 0, 58, 100
2, 4134299, Note_off_c, 0, 59, 100
2, 4134588, Note_off_c, 0, 58, 100
2, 4134779, Note_on_c, 0, 57, 100
2, 4134880, Note_off_c, 0, 57, 100
2, 4135402, Note_on_c, 0, 56, 100
2, 4135674, Note_off_c, 0, 56, 100
2, 4135986, Note_on_c, 0, 54, 100
2, 4136207, Note_off_c, 0, 54, 100
2, 4136551, Note_on_c, 0, 52, 100
2, 4136718, Note_off_c, 0, 52, 100
2, 4137121, Note_on_c, 0, 50, 100
2, 4137474, Note_off_c, 0, 50, 100
2, 4137974, Note_on_c, 0, 48, 100
2, 4138346, Note_off_c, 0, 48, 100
2, 4138791, Note_on_c, 0, 46, 100
2, 4138933, Note_off_c, 0, 46, 100
2, 4139566, Note_on_c, 0, 44, 100
2, 4140056, Note_off_c, 0, 44, 100
2, 4140296, Note_on_c, 0, 42, 100
2, 4140987, Note_on_c, 0, 41, 100
2, 4141292, Note_off_c, 0, 42, 100
2, 4141651, Note_on_c, 0, 40, 100
2, 4142301, Note_off_c, 0, 40, 100
2, 4142301, Note_on_c, 0, 40, 100
2, 4142346, Note_off_c, 0, 41, 100
2, 4142954, Note_on_c, 0, 41, 100
2, 4143255, Note_off_c, 0, 41, 100
2, 4143325, Note_off_c, 0, 40, 100
2, 4143622, Note_on_c, 0, 42, 100
2, 4144323, Note_on_c, 0, 44, 100
2, 4144395, Note_off_c, 0, 42, 100
2, 4145040, Note_on_c, 0, 46, 100
2, 4145788, Note_on_c, 0, 49, 100
2, 4145872, Note_off_c, 0, 44, 100
2, 4146556, Note_on_c, 0, 51, 100
2, 4147008, Note_off_c, 0, 46, 100
2, 4147330, Note_on_c, 0, 54, 100
2, 4147676, Note_off_c, 0, 49, 100
2, 4147762, Note_off_c, 0, 54, 100
2, 4147876, Note_off_c, 0, 51, 100
2, 4148096, Note_on_c, 0, 57, 100
2, 4148796, Note_off_c, 0, 57, 100
2, 4148840, Note_on_c, 0, 60, 100
2, 4149552, Note_on_c, 0, 63, 100
2, 4150224, Note_on_c, 0, 65, 100
2, 4150259, Note_off_c, 0, 60, 100
2, 4150859, Note_on_c, 0, 66, 100
2, 4151277, Note_off_c, 0, 63, 100
2, 4151575, Note_on_c, 0, 67, 100
2, 4151792, Note_off_c, 0, 65, 100
2, 4151912, Note_off_c, 0, 66, 100
2, 4151962, Note_off_c, 0, 67, 100
2, 4152428, Note_on_c, 0, 67, 100
2, 4152818, Note_off_c, 0, 67, 100
2, 4153279, Note_on_c, 0, 66, 100
2, 4154004, Note_off_c, 0, 66, 100
2, 4154111, Note_on_c, 0, 65, 100
2, 4154867, Note_off_c, 0, 65, 100
2, 4154905, Note_on_c, 0, 63, 100
2, 4155461, Note_off_c, 0, 63, 100
2, 4155647, Note_on_c, 0, 61, 100
2, 4155930, Note_off_c, 0, 61, 100
2, 4156330, Note_on_c, 0, 58, 100
2, 4156438, Note_off_c, 0, 58, 100
2, 4156953, Note_on_c, 0, 56, 100
2, 4157087, Note_off_c, 0, 56, 100
2, 4157526, Note_on_c, 0, 53, 100
2, 4157886, Note_off_c, 0, 53, 100
2, 4158062, Note_on_c, 0, 50, 100
2, 4158732, Note_off_c, 0, 50, 100
2, 4158855, Note_on_c, 0, 49, 100
2, 4159744, Note_off_c, 0, 49, 100
2, 4159765, Note_on_c, 0, 47, 100
2, 4160622, Note_off_c, 0, 47, 100
2, 4160644, Note_off_c, 0, 45, 100
2, 4160644, Note_on_c, 0, 45, 100
2, 4161472, Note_on_c, 0, 44, 100
2, 4161789, Note_off_c, 0, 44, 100
2, 4162237, Note_on_c, 0, 44, 100
2, 4162933, Note_off_c, 0, 44, 100
2, 4162933, Note_on_c, 0, 44, 100
2, 4163564, Note_off_c, 0, 45, 100
2, 4163564, Note_on_c, 0, 45, 100
2, 4164143, Note_on_c, 0, 46, 100
2, 4164536, Note_off_c, 0, 44, 100
2, 4164686, Note_on_c, 0, 47, 100
2, 4165217, Note_on_c, 0, 48, 100
2, 4165519, Note_off_c, 0, 48, 100
2, 4165520, Note_off_c, 0, 47, 100
2, 4165680, Note_off_c, 0, 46, 100
2, 4166081, Note_on_c, 0, 50, 100
2, 4166950, Note_off_c, 0, 50, 100
2, 4166950, Note_on_c, 0, 50, 100
2, 4167773, Note_on_c, 0, 52, 100
2, 4168541, Note_on_c, 0, 53, 100
2, 4168775, Note_off_c, 0, 50, 100
2, 4169255, Note_on_c, 0, 54, 100
2, 4169730, Note_off_c, 0, 52, 100
2, 4169919, Note_off_c, 0, 54, 100
2, 4169919, Note_on_c, 0, 54, 100
2, 4170117, Note_off_c, 0, 54, 100
2, 4170132, Note_off_c, 0, 53, 100
2, 4170548, Note_on_c, 0, 54, 100
2, 4171157, Note_off_c, 0, 54, 100
2, 4171157, Note_on_c, 0, 54, 100
2, 4171765, Note_off_c, 0, 54, 100
2, 4171765, Note_on_c, 0, 54, 100
2, 4172411, Note_on_c, 0, 53, 100
2, 4173025, Note_off_c, 0, 54, 100
2, 4173200, Note_on_c, 0, 52, 100
2, 4173351, Note_off_c, 0, 53, 100
2, 4173687, Note_off_c, 0, 52, 100
2, 4173956, Note_on_c, 0, 52, 100
2, 4174054, Note_off_c, 0, 52, 100
2, 4174678, Note_on_c, 0, 51, 100
2, 4174955, Note_off_c, 0, 51, 100
2, 4175372, Note_on_c, 0, 51, 100
2, 4175600, Note_off_c, 0, 51, 100
2, 4176049, Note_on_c, 0, 50, 100
2, 4176208, Note_off_c, 0, 50, 100
2, 4176723, Note_on_c, 0, 51, 100
2, 4177068, Note_off_c, 0, 51, 100
2, 4177471, Note_on_c, 0, 51, 100
2, 4177837, Note_off_c, 0, 51, 100
2, 4178203, Note_on_c, 0, 52, 100
2, 4178342, Note_off_c, 0, 52, 100
2, 4178907, Note_on_c, 0, 53, 100
2, 4179398, Note_off_c, 0, 53, 100
2, 4179619, Note_on_c, 0, 55, 100
2, 4180412, Note_on_c, 0, 56, 100
2, 4180612, Note_off_c, 0, 55, 100
2, 4181219, Note_on_c, 0, 58, 100
2, 4181766, Note_off_c, 0, 56, 100
2, 4182026, Note_on_c, 0, 59, 100
2, 4182608, Note_off_c, 0, 58, 100
2, 4182817, Note_on_c, 0, 61, 100
2, 4183042, Note_off_c, 0, 59, 100
2, 4183110, Note_off_c, 0, 61, 100
2, 4183575, Note_on_c, 0, 62, 100
2, 4184290, Note_on_c, 0, 63, 100
2, 4184354, Note_off_c, 0, 62, 100
2, 4184955, Note_off_c, 0, 63, 100
2, 4184955, Note_on_c, 0, 63, 100
2, 4185572, Note_on_c, 0, 62, 100
2, 4186149, Note_on_c, 0, 61, 100
2, 4186898, Note_on_c, 0, 60, 100
2, 4186923, Note_off_c, 0, 63, 100
2, 4187322, Note_off_c, 0, 60, 100
2, 4187457, Note_off_c, 0, 62, 100
2, 4187463, Note_off_c, 0, 61, 100
2, 4187791, Note_on_c, 0, 58, 100
2, 4188499, Note_off_c, 0, 58, 100
2, 4188667, Note_on_c, 0, 55, 100
2, 4189505, Note_on_c, 0, 53, 100
2, 4190094, Note_off_c, 0, 55, 100
2, 4190289, Note_on_c, 0, 50, 100
2, 4191009, Note_on_c, 0, 48, 100
2, 4191235, Note_off_c, 0, 53, 100
2, 4191661, Note_off_c, 0, 45, 100
2, 4191661, Note_on_c, 0, 45, 100
2, 4191860, Note_off_c, 0, 50, 100
2, 4192061, Note_off_c, 0, 48, 100
2, 4192254, Note_on_c, 0, 43, 100
2, 4192651, Note_off_c, 0, 43, 100
2, 4192800, Note_on_c, 0, 41, 100
2, 4193320, Note_on_c, 0, 40, 100
2, 4193533, Note_off_c, 0, 41, 100
2, 4194084, Note_off_c, 0, 40, 100
2, 4194161, Note_on_c, 0, 39, 100
2, 4194724, Note_off_c, 0, 39, 100
2, 4195062, Note_on_c, 0, 39, 100
2, 4195351, Note_off_c, 0, 39, 100
2, 4195922, Note_on_c, 0, 39, 100
2, 4196032, Note_off_c, 0, 39, 100
2, 4196724, Note_on_c, 0, 41, 100
2, 4196857, Note_off_c, 0, 41, 100
2, 4197463, Note_on_c, 0, 43, 100
2, 4197818, Note_off_c, 0, 43, 100
2, 4198139, Note_off_c, 0, 45, 100
2, 4198139, Note_on_c, 0, 45, 100
2, 4198762, Note_on_c, 0, 48, 100
2, 4199345, Note_on_c, 0, 50, 100
2, 4199643, Note_off_c, 0, 48, 100
2, 4199910, Note_on_c, 0, 53, 100
2, 4200194, Note_off_c, 0, 50, 100
2, 4200403, Note_off_c, 0, 53, 100
2, 4200483, Note_on_c, 0, 56, 100
2, 4200805, Note_off_c, 0, 56, 100
2, 4201336, Note_on_c, 0, 59, 100
2, 4202154, Note_on_c, 0, 62, 100
2, 4202372, Note_off_c, 0, 59, 100
2, 4202929, Note_on_c, 0, 63, 100
2, 4203659, Note_on_c, 0, 65, 100
2, 4203755, Note_off_c, 0, 62, 100
2, 4204350, Note_off_c, 0, 65, 100
2, 4204350, Note_on_c, 0, 65, 100
2, 4204732, Note_off_c, 0, 63, 100
2, 4205013, Note_off_c, 0, 65, 100
2, 4205013, Note_on_c, 0, 65, 100
2, 4205323, Note_off_c, 0, 65, 100
2, 4205663, Note_on_c, 0, 65, 100
2, 4206315, Note_on_c, 0, 64, 100
2, 4206885, Note_off_c, 0, 65, 100
2, 4206983, Note_on_c, 0, 62, 100
2, 4207684, Note_on_c, 0, 60, 100
2, 4208144, Note_off_c, 0, 64, 100
2, 4208402, Note_on_c, 0, 58, 100
2, 4208941, Note_off_c, 0, 62, 100
2, 4209146, Note_on_c, 0, 56, 100
2, 4209259, Note_off_c, 0, 58, 100
2, 4209273, Note_off_c, 0, 60, 100
2, 4209332, Note_off_c, 0, 56, 100
2, 4209914, Note_on_c, 0, 53, 100
2, 4210687, Note_on_c, 0, 51, 100
2, 4210812, Note_off_c, 0, 53, 100
2, 4211453, Note_on_c, 0, 50, 100
2, 4211965, Note_off_c, 0, 51, 100
2, 4212197, Note_on_c, 0, 49, 100
2, 4212720, Note_off_c, 0, 50, 100
2, 4212909, Note_on_c, 0, 48, 100
2, 4213141, Note_off_c, 0, 49, 100
2, 4213397, Note_off_c, 0, 48, 100
2, 4213582, Note_on_c, 0, 48, 100
2, 4213678, Note_off_c, 0, 48, 100
2, 4214217, Note_on_c, 0, 48, 100
2, 4214500, Note_off_c, 0, 48, 100
2, 4214937, Note_on_c, 0, 48, 100
2, 4215173, Note_off_c, 0, 48, 100
2, 4215788, Note_on_c, 0, 49, 100
2, 4215939, Note_off_c, 0, 49, 100
2, 4216639, Note_on_c, 0, 50, 100
2, 4216976, Note_off_c, 0, 50, 100
2, 4217471, Note_on_c, 0, 50, 100
2, 4217830, Note_off_c, 0, 50, 100
2, 4218264, Note_on_c, 0, 51, 100
2, 4218399, Note_off_c, 0, 51, 100
2, 4219005, Note_on_c, 0, 51, 100
2, 4219496, Note_off_c, 0, 51, 100
2, 4219688, Note_on_c, 0, 52, 100
2, 4220311, Note_off_c, 0, 52, 100
2, 4220311, Note_on_c, 0, 52, 100
2, 4220883, Note_on_c, 0, 53, 100
2, 4221419, Note_off_c, 0, 52, 100
2, 4221419, Note_on_c, 0, 52, 100
2, 4222218, Note_off_c, 0, 52, 100
2, 4222218, Note_on_c, 0, 52, 100
2, 4222264, Note_off_c, 0, 53, 100
2, 4222503, Note_off_c, 0, 52, 100
2, 4223127, Note_on_c, 0, 51, 100
2, 4223912, Note_off_c, 0, 51, 100
2, 4224006, Note_on_c, 0, 50, 100
2, 4224833, Note_off_c, 0, 50, 100
2, 4224833, Note_on_c, 0, 50, 100
2, 4225597, Note_on_c, 0, 49, 100
2, 4226293, Note_on_c, 0, 48, 100
2, 4226801, Note_off_c, 0, 50, 100
2, 4226923, Note_off_c, 0, 48, 100
2, 4226923, Note_on_c, 0, 48, 100
2, 4227478, Note_off_c, 0, 49, 100
2, 4227501, Note_on_c, 0, 47, 100
2, 4227600, Note_off_c, 0, 48, 100
2, 4228044, Note_off_c, 0, 47, 100
2, 4228044, Note_on_c, 0, 47, 100
2, 4228575, Note_on_c, 0, 48, 100
2, 4229444, Note_on_c, 0, 49, 100
2, 4229478, Note_off_c, 0, 47, 100
2, 4230311, Note_off_c, 0, 48, 100
2, 4230313, Note_on_c, 0, 50, 100
2, 4231018, Note_off_c, 0, 49, 100
2, 4231136, Note_on_c, 0, 51, 100
2, 4231365, Note_off_c, 0, 50, 100
2, 4231515, Note_off_c, 0, 51, 100
2, 4231904, Note_on_c, 0, 53, 100
2, 4232307, Note_off_c, 0, 53, 100
2, 4232617, Note_on_c, 0, 55, 100
2, 4233280, Note_on_c, 0, 58, 100
2, 4233358, Note_off_c, 0, 55, 100
2, 4233908, Note_on_c, 0, 60, 100
2, 4234053, Note_off_c, 0, 58, 100
2, 4234479, Note_off_c, 0, 60, 100
2, 4234517, Note_on_c, 0, 62, 100
2, 4234811, Note_off_c, 0, 62, 100
2, 4235124, Note_on_c, 0, 64, 100
2, 4235236, Note_off_c, 0, 64, 100
2, 4235772, Note_on_c, 0, 65, 100
2, 4235904, Note_off_c, 0, 65, 100
2, 4236562, Note_on_c, 0, 66, 100
2, 4236913, Note_off_c, 0, 66, 100
2, 4237318, Note_on_c, 0, 66, 100
2, 4237974, Note_off_c, 0, 66, 100
2, 4238040, Note_on_c, 0, 65, 100
2, 4238734, Note_on_c, 0, 64, 100
2, 4238913, Note_off_c, 0, 65, 100
2, 4239412, Note_on_c, 0, 62, 100
2, 4239574, Note_off_c, 0, 64, 100
2, 4239897, Note_off_c, 0, 62, 100
2, 4240086, Note_on_c, 0, 60, 100
2, 4240413, Note_off_c, 0, 60, 100
2, 4240829, Note_on_c, 0, 57, 100
2, 4241562, Note_on_c, 0, 54, 100
2, 4241866, Note_off_c, 0, 57, 100
2, 4242266, Note_on_c, 0, 51, 100
2, 4242980, Note_on_c, 0, 49, 100
2, 4243162, Note_off_c, 0, 54, 100
2, 4243772, Note_on_c, 0, 46, 100
2, 4244064, Note_off_c, 0, 51, 100
2, 4244503, Note_off_c, 0, 49, 100
2, 4244578, Note_on_c, 0, 43, 100
2, 4244590, Note_off_c, 0, 46, 100
2, 4244897, Note_off_c, 0, 43, 100
2, 4245385, Note_on_c, 0, 41, 100
2, 4246175, Note_on_c, 0, 40, 100
2, 4246614, Note_off_c, 0, 41, 100
2, 4246933, Note_on_c, 0, 39, 100
2, 4247647, Note_off_c, 0, 39, 100
2, 4247647, Note_on_c, 0, 39, 100
2, 4248009, Note_off_c, 0, 40, 100
2, 4248312, Note_on_c, 0, 40, 100
2, 4248929, Note_on_c, 0, 41, 100
2, 4249123, Note_off_c, 0, 41, 100
2, 4249164, Note_off_c, 0, 40, 100
2, 4249234, Note_off_c, 0, 39, 100
2, 4249506, Note_on_c, 0, 43, 100
2, 4250260, Note_off_c, 0, 45, 100
2, 4250260, Note_on_c, 0, 45, 100
2, 4250412, Note_off_c, 0, 43, 100
2, 4251153, Note_on_c, 0, 48, 100
2, 4252028, Note_on_c, 0, 50, 100
2, 4252426, Note_off_c, 0, 48, 100
2, 4252865, Note_on_c, 0, 52, 100
2, 4252976, Note_off_c, 0, 50, 100
2, 4253353, Note_off_c, 0, 52, 100
2, 4253649, Note_on_c, 0, 55, 100
2, 4253747, Note_off_c, 0, 55, 100
2, 4254367, Note_on_c, 0, 57, 100
2, 4254655, Note_off_c, 0, 57, 100
2, 4255020, Note_on_c, 0, 59, 100
2, 4255264, Note_off_c, 0, 59, 100
2, 4255612, Note_on_c, 0, 61, 100
2, 4255754, Note_off_c, 0, 61, 100
2, 4256157, Note_on_c, 0, 62, 100
2, 4256486, Note_off_c, 0, 62, 100
2, 4256678, Note_on_c, 0, 62, 100
2, 4257031, Note_off_c, 0, 62, 100
2, 4257524, Note_on_c, 0, 62, 100
2, 4257656, Note_off_c, 0, 62, 100
2, 4258425, Note_on_c, 0, 62, 100
2, 4258916, Note_off_c, 0, 62, 100
2, 4259284, Note_on_c, 0, 61, 100
2, 4260086, Note_on_c, 0, 59, 100
2, 4260271, Note_off_c, 0, 61, 100
2, 4260825, Note_on_c, 0, 58, 100
2, 4261428, Note_off_c, 0, 59, 100
2, 4261500, Note_on_c, 0, 56, 100
2, 4262121, Note_on_c, 0, 55, 100
2, 4262199, Note_off_c, 0, 58, 100
2, 4262398, Note_off_c, 0, 55, 100
2, 4262499, Note_off_c, 0, 56, 100
2, 4262704, Note_on_c, 0, 53, 100
2, 4263268, Note_on_c, 0, 52, 100
2, 4263495, Note_off_c, 0, 53, 100
2, 4263845, Note_on_c, 0, 51, 100
2, 4264699, Note_off_c, 0, 51, 100
2, 4264699, Note_on_c, 0, 51, 100
2, 4264826, Note_off_c, 0, 52, 100
2, 4265517, Note_off_c, 0, 51, 100
2, 4265517, Note_on_c, 0, 51, 100
2, 4266292, Note_off_c, 0, 51, 100
2, 4266292, Note_on_c, 0, 51, 100
2, 4266818, Note_off_c, 0, 51, 100
2, 4267022, Note_on_c, 0, 51, 100
2, 4267712, Note_on_c, 0, 52, 100
2, 4267747, Note_off_c, 0, 51, 100
2, 4268375, Note_on_c, 0, 53, 100
2, 4269024, Note_off_c, 0, 53, 100
2, 4269024, Note_on_c, 0, 53, 100
2, 4269154, Note_off_c, 0, 52, 100
2, 4269676, Note_on_c, 0, 54, 100
2, 4270343, Note_off_c, 0, 54, 100
2, 4270343, Note_on_c, 0, 54, 100
2, 4270600, Note_off_c, 0, 53, 100
2, 4270727, Note_off_c, 0, 54, 100
2, 4271044, Note_on_c, 0, 55, 100
2, 4271454, Note_off_c, 0, 55, 100
2, 4271763, Note_on_c, 0, 54, 100
2, 4272504, Note_off_c, 0, 54, 100
2, 4272504, Note_on_c, 0, 54, 100
2, 4273271, Note_on_c, 0, 53, 100
2, 4273285, Note_off_c, 0, 54, 100
2, 4273849, Note_off_c, 0, 53, 100
2, 4274045, Note_on_c, 0, 52, 100
2, 4274344, Note_off_c, 0, 52, 100
2, 4274811, Note_on_c, 0, 50, 100
2, 4274925, Note_off_c, 0, 50, 100
2, 4275555, Note_on_c, 0, 50, 100
2, 4275686, Note_off_c, 0, 50, 100
2, 4276266, Note_on_c, 0, 48, 100
2, 4276613, Note_off_c, 0, 48, 100
2, 4276939, Note_on_c, 0, 47, 100
2, 4277575, Note_off_c, 0, 45, 100
2, 4277575, Note_on_c, 0, 45, 100
2, 4277588, Note_off_c, 0, 47, 100
2, 4278298, Note_on_c, 0, 44, 100
2, 4279130, Note_off_c, 0, 44, 100
2, 4279149, Note_on_c, 0, 44, 100
2, 4279627, Note_off_c, 0, 44, 100
2, 4279999, Note_on_c, 0, 43, 100
2, 4280330, Note_off_c, 0, 43, 100
2, 4280830, Note_on_c, 0, 44, 100
2, 4281622, Note_off_c, 0, 45, 100
2, 4281622, Note_on_c, 0, 45, 100
2, 4281869, Note_off_c, 0, 44, 100
2, 4282363, Note_on_c, 0, 46, 100
2, 4283045, Note_on_c, 0, 48, 100
2, 4283668, Note_on_c, 0, 50, 100
2, 4284156, Note_off_c, 0, 46, 100
2, 4284240, Note_on_c, 0, 52, 100
2, 4284477, Note_off_c, 0, 50, 100
2, 4284561, Note_off_c, 0, 48, 100
2, 4284567, Note_off_c, 0, 52, 100
2, 4284777, Note_on_c, 0, 55, 100
2, 4285580, Note_on_c, 0, 58, 100
2, 4286013, Note_off_c, 0, 55, 100
2, 4286490, Note_on_c, 0, 61, 100
2, 4287367, Note_on_c, 0, 63, 100
2, 4287418, Note_off_c, 0, 58, 100
2, 4288194, Note_on_c, 0, 65, 100
2, 4288451, Note_off_c, 0, 61, 100
2, 4288951, Note_off_c, 0, 63, 100
2, 4288957, Note_on_c, 0, 66, 100
2, 4289040, Note_off_c, 0, 65, 100
2, 4289158, Note_off_c, 0, 66, 100
2, 4289652, Note_on_c, 0, 67, 100
2, 4290282, Note_off_c, 0, 67, 100
2, 4290282, Note_on_c, 0, 67, 100
2, 4290860, Note_off_c, 0, 67, 100
2, 4290860, Note_on_c, 0, 67, 100
2, 4291402, Note_on_c, 0, 65, 100
2, 4291932, Note_on_c, 0, 63, 100
2, 4292140, Note_off_c, 0, 67, 100
2, 4292354, Note_off_c, 0, 65, 100
2, 4292421, Note_off_c, 0, 63, 100
2, 4292807, Note_on_c, 0, 61, 100
2, 4292908, Note_off_c, 0, 61, 100
2, 4293676, Note_on_c, 0, 58, 100
2, 4293970, Note_off_c, 0, 58, 100
2, 4294498, Note_on_c, 0, 55, 100
2, 4294749, Note_off_c, 0, 55, 100
2, 4295266, Note_on_c, 0, 52, 100
2, 4295400, Note_off_c, 0, 52, 100
2, 4295978, Note_on_c, 0, 50, 100
2, 4296299, Note_off_c, 0, 50, 100
2, 4296642, Note_on_c, 0, 47, 100
2, 4296989, Note_off_c, 0, 47, 100
2, 4297269, Note_on_c, 0, 44, 100
2, 4297397, Note_off_c, 0, 44, 100
2, 4297877, Note_on_c, 0, 43, 100
2, 4298368, Note_off_c, 0, 43, 100
2, 4298484, Note_on_c, 0, 41, 100
2, 4299133, Note_off_c, 0, 41, 100
2, 4299133, Note_on_c, 0, 41, 100
2, 4299924, Note_off_c, 0, 41, 100
2, 4299924, Note_on_c, 0, 41, 100
2, 4300680, Note_off_c, 0, 41, 100
2, 4300680, Note_on_c, 0, 41, 100
2, 4301403, Note_on_c, 0, 42, 100
2, 4301670, Note_off_c, 0, 41, 100
2, 4301672, Note_off_c, 0, 42, 100
2, 4302097, Note_on_c, 0, 44, 100
2, 4302774, Note_on_c, 0, 46, 100
2, 4302894, Note_off_c, 0, 44, 100
2, 4303448, Note_on_c, 0, 48, 100
2, 4304186, Note_on_c, 0, 50, 100
2, 4304335, Note_off_c, 0, 46, 100
2, 4304920, Note_on_c, 0, 52, 100
2, 4305415, Note_off_c, 0, 48, 100
2, 4305625, Note_on_c, 0, 54, 100
2, 4306025, Note_off_c, 0, 54, 100
2, 4306060, Note_off_c, 0, 50, 100
2, 4306215, Note_off_c, 0, 52, 100
2, 4306340, Note_on_c, 0, 55, 100
2, 4307074, Note_off_c, 0, 55, 100
2, 4307132, Note_on_c, 0, 57, 100
2, 4307937, Note_on_c, 0, 58, 100
2, 4308581, Note_off_c, 0, 57, 100
2, 4308743, Note_off_c, 0, 58, 100
2, 4308743, Note_on_c, 0, 58, 100
2, 4309533, Note_off_c, 0, 58, 100
2, 4309533, Note_on_c, 0, 58, 100
2, 4310290, Note_off_c, 0, 58, 100
2, 4310290, Note_on_c, 0, 58, 100
2, 4310661, Note_off_c, 0, 58, 100
2, 4311005, Note_on_c, 0, 57, 100
2, 4311422, Note_off_c, 0, 57, 100
2, 4311670, Note_on_c, 0, 56, 100
2, 4312286, Note_on_c, 0, 55, 100
2, 4312428, Note_off_c, 0, 56, 100
2, 4312864, Note_off_c, 0, 55, 100
2, 4312864, Note_on_c, 0, 55, 100
2, 4313449, Note_off_c, 0, 55, 100
2, 4313622, Note_on_c, 0, 54, 100
2, 4313926, Note_off_c, 0, 54, 100
2, 4314514, Note_on_c, 0, 53, 100
2, 4314630, Note_off_c, 0, 53, 100
2, 4315389, Note_on_c, 0, 53, 100
2, 4315518, Note_off_c, 0, 53, 100
2, 4316226, Note_on_c, 0, 52, 100
2, 4316568, Note_off_c, 0, 52, 100
2, 4317008, Note_on_c, 0, 53, 100
2, 4317650, Note_off_c, 0, 53, 100
2, 4317726, Note_on_c, 0, 53, 100
2, 4318378, Note_on_c, 0, 54, 100
2, 4318582, Note_off_c, 0, 53, 100
2, 4318969, Note_on_c, 0, 55, 100
2, 4319201, Note_off_c, 0, 54, 100
2, 4319440, Note_off_c, 0, 55, 100
2, 4319515, Note_on_c, 0, 56, 100
2, 4319851, Note_off_c, 0, 56, 100
2, 4320035, Note_on_c, 0, 57, 100
2, 4320886, Note_on_c, 0, 58, 100
2, 4321076, Note_off_c, 0, 57, 100
2, 4321787, Note_off_c, 0, 58, 100
2, 4321787, Note_on_c, 0, 58, 100
2, 4322646, Note_on_c, 0, 59, 100
2, 4323448, Note_off_c, 0, 58, 100
2, 4323448, Note_on_c, 0, 58, 100
2, 4324154, Note_off_c, 0, 59, 100
2, 4324186, Note_off_c, 0, 58, 100
2, 4324186, Note_on_c, 0, 58, 100
2, 4324521, Note_off_c, 0, 58, 100
2, 4324861, Note_on_c, 0, 57, 100
2, 4325481, Note_on_c, 0, 56, 100
2, 4326063, Note_on_c, 0, 54, 100
2, 4326104, Note_off_c, 0, 57, 100
2, 4326627, Note_on_c, 0, 52, 100
2, 4327207, Note_on_c, 0, 50, 100
2, 4327323, Note_off_c, 0, 56, 100
2, 4328025, Note_off_c, 0, 54, 100
2, 4328048, Note_off_c, 0, 50, 100
2, 4328061, Note_on_c, 0, 48, 100
2, 4328209, Note_off_c, 0, 52, 100
2, 4328270, Note_off_c, 0, 48, 100
2, 4328880, Note_on_c, 0, 46, 100
2, 4329654, Note_on_c, 0, 44, 100
2, 4329803, Note_off_c, 0, 46, 100
2, 4330384, Note_on_c, 0, 42, 100
2, 4330956, Note_off_c, 0, 44, 100
2, 4331075, Note_on_c, 0, 41, 100
2, 4331670, Note_off_c, 0, 42, 100
2, 4331737, Note_on_c, 0, 40, 100
2, 4332031, Note_off_c, 0, 41, 100
2, 4332227, Note_off_c, 0, 40, 100
2, 4332386, Note_on_c, 0, 40, 100
2, 4332489, Note_off_c, 0, 40, 100
2, 4333037, Note_on_c, 0, 41, 100
2, 4333337, Note_off_c, 0, 41, 100
2, 4333703, Note_on_c, 0, 42, 100
2, 4333962, Note_off_c, 0, 42, 100
2, 4334405, Note_on_c, 0, 44, 100
2, 4334530, Note_off_c, 0, 44, 100
2, 4335124, Note_on_c, 0, 46, 100
2, 4335437, Note_off_c, 0, 46, 100
2, 4335863, Note_on_c, 0, 49, 100
2, 4336204, Note_off_c, 0, 49, 100
2, 4336629, Note_on_c, 0, 51, 100
2, 4336754, Note_off_c, 0, 51, 100
2, 4337402, Note_on_c, 0, 54, 100
2, 4337893, Note_off_c, 0, 54, 100
2, 4338168, Note_on_c, 0, 58, 100
2, 4338912, Note_on_c, 0, 60, 100
2, 4339148, Note_off_c, 0, 58, 100
2, 4339624, Note_on_c, 0, 63, 100
2, 4340242, Note_off_c, 0, 60, 100
2, 4340297, Note_on_c, 0, 65, 100
2, 4340933, Note_on_c, 0, 66, 100
2, 4340982, Note_off_c, 0, 63, 100
2, 4341195, Note_off_c, 0, 66, 100
2, 4341279, Note_off_c, 0, 65, 100
2, 4341659, Note_on_c, 0, 67, 100
2, 4342461, Note_off_c, 0, 67, 100
2, 4342510, Note_on_c, 0, 67, 100
2, 4343359, Note_on_c, 0, 66, 100
2, 4344074, Note_off_c, 0, 67, 100
2, 4344189, Note_on_c, 0, 65, 100
2, 4344981, Note_on_c, 0, 63, 100
2, 4345326, Note_off_c, 0, 66, 100
2, 4345721, Note_on_c, 0, 61, 100
2, 4346059, Note_off_c, 0, 65, 100
2, 4346113, Note_off_c, 0, 61, 100
2, 4346269, Note_off_c, 0, 63, 100
2, 4346403, Note_on_c, 0, 58, 100
2, 4347025, Note_on_c, 0, 55, 100
2, 4347145, Note_off_c, 0, 58, 100
2, 4347597, Note_on_c, 0, 53, 100
2, 4348134, Note_on_c, 0, 50, 100
2, 4348482, Note_off_c, 0, 55, 100
2, 4348943, Note_on_c, 0, 49, 100
2, 4349349, Note_off_c, 0, 53, 100
2, 4349715, Note_off_c, 0, 50, 100
2, 4349852, Note_on_c, 0, 47, 100
2, 4349992, Note_off_c, 0, 49, 100
2, 4350219, Note_off_c, 0, 47, 100
2, 4350729, Note_off_c, 0, 45, 100
2, 4350729, Note_on_c, 0, 45, 100
2, 4351555, Note_on_c, 0, 44, 100
2, 4352318, Note_off_c, 0, 44, 100
2, 4352318, Note_on_c, 0, 44, 100
2, 4353012, Note_off_c, 0, 44, 100
2, 4353012, Note_on_c, 0, 44, 100
2, 4353605, Note_off_c, 0, 44, 100
2, 4353641, Note_on_c, 0, 44, 100
2, 4353950, Note_off_c, 0, 44, 100
2, 4354218, Note_off_c, 0, 45, 100
2, 4354218, Note_on_c, 0, 45, 100
2, 4354760, Note_on_c, 0, 47, 100
2, 4354888, Note_off_c, 0, 47, 100
2, 4355290, Note_on_c, 0, 48, 100
2, 4355628, Note_off_c, 0, 48, 100
2, 4356169, Note_on_c, 0, 50, 100
2, 4356804, Note_off_c, 0, 50, 100
2, 4357039, Note_on_c, 0, 50, 100
2, 4357861, Note_on_c, 0, 52, 100
2, 4357887, Note_off_c, 0, 50, 100
2, 4358629, Note_on_c, 0, 53, 100
2, 4358676, Note_off_c, 0, 52, 100
2, 4359093, Note_off_c, 0, 53, 100
2, 4359340, Note_on_c, 0, 54, 100
2, 4359681, Note_off_c, 0, 54, 100
2, 4360003, Note_on_c, 0, 54, 100
2, 4360630, Note_off_c, 0, 54, 100
2, 4360630, Note_on_c, 0, 54, 100
2, 4361237, Note_off_c, 0, 54, 100
2, 4361237, Note_on_c, 0, 54, 100
2, 4361843, Note_off_c, 0, 54, 100
2, 4361843, Note_on_c, 0, 54, 100
2, 4362495, Note_on_c, 0, 53, 100
2, 4363286, Note_on_c, 0, 52, 100
2, 4363288, Note_off_c, 0, 53, 100
2, 4363344, Note_off_c, 0, 54, 100
2, 4363629, Note_off_c, 0, 52, 100
2, 4364043, Note_on_c, 0, 52, 100
2, 4364766, Note_on_c, 0, 51, 100
2, 4365292, Note_off_c, 0, 52, 100
2, 4365460, Note_off_c, 0, 51, 100
2, 4365460, Note_on_c, 0, 51, 100
2, 4366137, Note_off_c, 0, 51, 100
2, 4366137, Note_on_c, 0, 51, 100
2, 4366811, Note_off_c, 0, 51, 100
2, 4366811, Note_on_c, 0, 51, 100
2, 4367544, Note_off_c, 0, 51, 100
2, 4367544, Note_on_c, 0, 51, 100
2, 4367760, Note_off_c, 0, 51, 100
2, 4368278, Note_on_c, 0, 52, 100
2, 4368983, Note_on_c, 0, 53, 100
2, 4369209, Note_off_c, 0, 52, 100
2, 4369701, Note_on_c, 0, 55, 100
2, 4370293, Note_off_c, 0, 53, 100
2, 4370491, Note_on_c, 0, 56, 100
2, 4370994, Note_off_c, 0, 55, 100
2, 4371296, Note_on_c, 0, 58, 100
2, 4371450, Note_off_c, 0, 56, 100
2, 4371786, Note_off_c, 0, 58, 100
2, 4372102, Note_on_c, 0, 59, 100
2, 4372208, Note_off_c, 0, 59, 100
2, 4372891, Note_on_c, 0, 61, 100
2, 4373196, Note_off_c, 0, 61, 100
2, 4373648, Note_on_c, 0, 62, 100
2, 4373915, Note_off_c, 0, 62, 100
2, 4374362, Note_on_c, 0, 62, 100
2, 4374479, Note_off_c, 0, 62, 100
2, 4375027, Note_on_c, 0, 63, 100
2, 4375332, Note_off_c, 0, 63, 100
2, 4375644, Note_on_c, 0, 62, 100
2, 4375979, Note_off_c, 0, 62, 100
2, 4376221, Note_on_c, 0, 61, 100
2, 4376343, Note_off_c, 0, 61, 100
2, 4376984, Note_on_c, 0, 60, 100
2, 4377475, Note_off_c, 0, 60, 100
2, 4377875, Note_on_c, 0, 58, 100
2, 4378749, Note_on_c, 0, 55, 100
2, 4378852, Note_off_c, 0, 58, 100
2, 4379586, Note_on_c, 0, 53, 100
2, 4380073, Note_off_c, 0, 55, 100
2, 4380367, Note_on_c, 0, 50, 100
2, 4380936, Note_off_c, 0, 53, 100
2, 4381085, Note_on_c, 0, 48, 100
2, 4381339, Note_off_c, 0, 48, 100
2, 4381340, Note_off_c, 0, 50, 100
2, 4381736, Note_off_c, 0, 45, 100
2, 4381736, Note_on_c, 0, 45, 100
2, 4382327, Note_on_c, 0, 43, 100
2, 4382872, Note_on_c, 0, 41, 100
2, 4383392, Note_on_c, 0, 40, 100
2, 4383894, Note_off_c, 0, 43, 100
2, 4384249, Note_on_c, 0, 39, 100
2, 4384838, Note_off_c, 0, 41, 100
2, 4385150, Note_off_c, 0, 39, 100
2, 4385150, Note_on_c, 0, 39, 100
2, 4385258, Note_off_c, 0, 40, 100
2, 4385534, Note_off_c, 0, 39, 100
2, 4386008, Note_on_c, 0, 39, 100
2, 4386759, Note_off_c, 0, 39, 100
2, 4386810, Note_on_c, 0, 41, 100
2, 4387547, Note_on_c, 0, 43, 100
2, 4388221, Note_off_c, 0, 45, 100
2, 4388221, Note_on_c, 0, 45, 100
2, 4388274, Note_off_c, 0, 41, 100
2, 4388841, Note_on_c, 0, 48, 100
2, 4389304, Note_off_c, 0, 43, 100
2, 4389422, Note_on_c, 0, 50, 100
2, 4389784, Note_off_c, 0, 50, 100
2, 4389889, Note_off_c, 0, 48, 100
2, 4389985, Note_on_c, 0, 53, 100
2, 4390415, Note_off_c, 0, 53, 100
2, 4390569, Note_on_c, 0, 56, 100
2, 4391343, Note_off_c, 0, 56, 100
2, 4391424, Note_on_c, 0, 59, 100
2, 4392230, Note_off_c, 0, 59, 100
2, 4392242, Note_on_c, 0, 62, 100
2, 4392842, Note_off_c, 0, 62, 100
2, 4393017, Note_on_c, 0, 64, 100
2, 4393331, Note_off_c, 0, 64, 100
2, 4393747, Note_on_c, 0, 65, 100
2, 4393867, Note_off_c, 0, 65, 100
2, 4394437, Note_on_c, 0, 65, 100
2, 4394564, Note_off_c, 0, 65, 100
2, 4395099, Note_on_c, 0, 65, 100
2, 4395432, Note_off_c, 0, 65, 100
2, 4395747, Note_on_c, 0, 65, 100
2, 4396375, Note_off_c, 0, 65, 100
2, 4396398, Note_on_c, 0, 64, 100
2, 4397063, Note_on_c, 0, 62, 100
2, 4397237, Note_off_c, 0, 64, 100
2, 4397765, Note_on_c, 0, 60, 100
2, 4397870, Note_off_c, 0, 62, 100
2, 4398222, Note_off_c, 0, 60, 100
2, 4398485, Note_on_c, 0, 58, 100
2, 4398830, Note_off_c, 0, 58, 100
2, 4399221, Note_on_c, 0, 55, 100
2, 4399987, Note_on_c, 0, 53, 100
2, 4400264, Note_off_c, 0, 55, 100
2, 4400760, Note_on_c, 0, 51, 100
2, 4401525, Note_on_c, 0, 50, 100
2, 4401579, Note_off_c, 0, 53, 100
2, 4402269, Note_on_c, 0, 49, 100
2, 4402538, Note_off_c, 0, 51, 100
2, 4402981, Note_on_c, 0, 48, 100
2, 4403019, Note_off_c, 0, 50, 100
2, 4403053, Note_off_c, 0, 49, 100
2, 4403333, Note_off_c, 0, 48, 100
2, 4403655, Note_on_c, 0, 48, 100
2, 4404292, Note_off_c, 0, 48, 100
2, 4404292, Note_on_c, 0, 48, 100
2, 4405021, Note_off_c, 0, 48, 100
2, 4405021, Note_on_c, 0, 48, 100
2, 4405870, Note_on_c, 0, 49, 100
2, 4406719, Note_on_c, 0, 50, 100
2, 4406985, Note_off_c, 0, 48, 100
2, 4407447, Note_off_c, 0, 49, 100
2, 4407548, Note_off_c, 0, 50, 100
2, 4407548, Note_on_c, 0, 50, 100
2, 4407772, Note_off_c, 0, 50, 100
2, 4408340, Note_on_c, 0, 50, 100
2, 4409079, Note_on_c, 0, 51, 100
2, 4409280, Note_off_c, 0, 50, 100
2, 4409760, Note_on_c, 0, 52, 100
2, 4410382, Note_off_c, 0, 52, 100
2, 4410382, Note_on_c, 0, 52, 100
2, 4410397, Note_off_c, 0, 51, 100
2, 4410954, Note_on_c, 0, 53, 100
2, 4411345, Note_off_c, 0, 52, 100
2, 4411444, Note_off_c, 0, 53, 100
2, 4411491, Note_on_c, 0, 52, 100
2, 4411600, Note_off_c, 0, 52, 100
2, 4412305, Note_on_c, 0, 52, 100
2, 4412616, Note_off_c, 0, 52, 100
2, 4413214, Note_on_c, 0, 51, 100
2, 4413488, Note_off_c, 0, 51, 100
2, 4414090, Note_on_c, 0, 50, 100
2, 4414198, Note_off_c, 0, 50, 100
2, 4414916, Note_on_c, 0, 50, 100
2, 4415214, Note_off_c, 0, 50, 100
2, 4415678, Note_on_c, 0, 49, 100
2, 4416007, Note_off_c, 0, 49, 100
2, 4416371, Note_on_c, 0, 48, 100
2, 4416489, Note_off_c, 0, 48, 100
2, 4417000, Note_on_c, 0, 48, 100
2, 4417491, Note_off_c, 0, 48, 100
2, 4417576, Note_on_c, 0, 48, 100
2, 4418118, Note_off_c, 0, 48, 100
2, 4418118, Note_on_c, 0, 48, 100
2, 4418647, Note_off_c, 0, 48, 100
2, 4418647, Note_on_c, 0, 48, 100
2, 4419532, Note_on_c, 0, 49, 100
2, 4419989, Note_off_c, 0, 48, 100
2, 4420401, Note_on_c, 0, 50, 100
2, 4420497, Note_off_c, 0, 49, 100
2, 4420647, Note_off_c, 0, 50, 100
2, 4421224, Note_on_c, 0, 51, 100
2, 4421991, Note_on_c, 0, 53, 100
2, 4422038, Note_off_c, 0, 51, 100
2, 4422702, Note_on_c, 0, 55, 100
2, 4423364, Note_on_c, 0, 58, 100
2, 4423560, Note_off_c, 0, 53, 100
2, 4423990, Note_on_c, 0, 60, 100
2, 4424597, Note_on_c, 0, 62, 100
2, 4424668, Note_off_c, 0, 55, 100
2, 4424973, Note_off_c, 0, 62, 100
2, 4425202, Note_on_c, 0, 64, 100
2, 4425226, Note_off_c, 0, 58, 100
2, 4425265, Note_off_c, 0, 60, 100
2, 4425856, Note_on_c, 0, 65, 100
2, 4425961, Note_off_c, 0, 64, 100
2, 4426648, Note_on_c, 0, 66, 100
2, 4427328, Note_off_c, 0, 65, 100
2, 4427405, Note_off_c, 0, 66, 100
2, 4427405, Note_on_c, 0, 66, 100
2, 4428128, Note_on_c, 0, 65, 100
2, 4428823, Note_on_c, 0, 64, 100
2, 4428991, Note_off_c, 0, 66, 100
2, 4429175, Note_off_c, 0, 65, 100
2, 4429181, Note_off_c, 0, 64, 100
2, 4429500, Note_on_c, 0, 62, 100
2, 4429937, Note_off_c, 0, 62, 100
2, 4430173, Note_on_c, 0, 60, 100
2, 4430902, Note_on_c, 0, 57, 100
2, 4430955, Note_off_c, 0, 60, 100
2, 4431637, Note_on_c, 0, 54, 100
2, 4431717, Note_off_c, 0, 57, 100
2, 4432244, Note_off_c, 0, 54, 100
2, 4432342, Note_on_c, 0, 50, 100
2, 4432661, Note_off_c, 0, 50, 100
2, 4433061, Note_on_c, 0, 48, 100
2, 4433183, Note_off_c, 0, 48, 100
2, 4433851, Note_off_c, 0, 45, 100
2, 4433851, Note_on_c, 0, 45, 100
2, 4434655, Note_on_c, 0, 43, 100
2, 4434983, Note_off_c, 0, 43, 100
2, 4435460, Note_on_c, 0, 41, 100
2, 4436081, Note_off_c, 0, 41, 100
2, 4436248, Note_on_c, 0, 40, 100
2, 4437005, Note_on_c, 0, 39, 100
2, 4437079, Note_off_c, 0, 40, 100
2, 4437719, Note_off_c, 0, 39, 100
2, 4437719, Note_on_c, 0, 39, 100
2, 4438169, Note_off_c, 0, 39, 100
2, 4438384, Note_on_c, 0, 40, 100
2, 4438734, Note_off_c, 0, 40, 100
2, 4439001, Note_on_c, 0, 41, 100
2, 4439579, Note_on_c, 0, 43, 100
2, 4440046, Note_off_c, 0, 41, 100
2, 4440346, Note_off_c, 0, 45, 100
2, 4440346, Note_on_c, 0, 45, 100
2, 4441169, Note_off_c, 0, 43, 100
2, 4441237, Note_on_c, 0, 48, 100
2, 4442110, Note_on_c, 0, 50, 100
2, 4442723, Note_off_c, 0, 48, 100
2, 4442886, Note_off_c, 0, 50, 100
2, 4442946, Note_on_c, 0, 52, 100
2, 4443306, Note_off_c, 0, 52, 100
2, 4443727, Note_on_c, 0, 55, 100
2, 4444444, Note_on_c, 0, 57, 100
2, 4444990, Note_off_c, 0, 55, 100
2, 4445094, Note_on_c, 0, 59, 100
2, 4445685, Note_on_c, 0, 61, 100
2, 4446230, Note_on_c, 0, 62, 100
2, 4446299, Note_off_c, 0, 57, 100
2, 4446749, Note_off_c, 0, 62, 100
2, 4446749, Note_on_c, 0, 62, 100
2, 4447055, Note_off_c, 0, 62, 100
2, 4447058, Note_off_c, 0, 59, 100
2, 4447260, Note_off_c, 0, 61, 100
2, 4447612, Note_on_c, 0, 62, 100
2, 4448513, Note_off_c, 0, 62, 100
2, 4448513, Note_on_c, 0, 62, 100
2, 4449371, Note_on_c, 0, 61, 100
2, 4449839, Note_off_c, 0, 62, 100
2, 4450172, Note_on_c, 0, 59, 100
2, 4450676, Note_off_c, 0, 61, 100
2, 4450908, Note_on_c, 0, 58, 100
2, 4451139, Note_off_c, 0, 59, 100
2, 4451399, Note_off_c, 0, 58, 100
2, 4451582, Note_on_c, 0, 56, 100
2, 4451694, Note_off_c, 0, 56, 100
2, 4452201, Note_on_c, 0, 55, 100
2, 4452518, Note_off_c, 0, 55, 100
2, 4452782, Note_on_c, 0, 53, 100
2, 4453064, Note_off_c, 0, 53, 100
2, 4453344, Note_on_c, 0, 52, 100
2, 4453444, Note_off_c, 0, 52, 100
2, 4453931, Note_on_c, 0, 51, 100
2, 4454221, Note_off_c, 0, 51, 100
2, 4454786, Note_on_c, 0, 51, 100
2, 4455109, Note_off_c, 0, 51, 100
2, 4455605, Note_on_c, 0, 51, 100
2, 4455720, Note_off_c, 0, 51, 100
2, 4456380, Note_on_c, 0, 51, 100
2, 4456871, Note_off_c, 0, 51, 100
2, 4457110, Note_on_c, 0, 51, 100
2, 4457800, Note_on_c, 0, 52, 100
2, 4458080, Note_off_c, 0, 51, 100
2, 4458461, Note_on_c, 0, 53, 100
2, 4459109, Note_off_c, 0, 53, 100
2, 4459109, Note_on_c, 0, 53, 100
2, 4459111, Note_off_c, 0, 52, 100
2, 4459758, Note_on_c, 0, 54, 100
2, 4459997, Note_off_c, 0, 54, 100
2, 4460066, Note_off_c, 0, 53, 100
2, 4460423, Note_on_c, 0, 54, 100
2, 4461126, Note_off_c, 0, 54, 100
2, 4461126, Note_on_c, 0, 54, 100
2, 4461846, Note_off_c, 0, 54, 100
2, 4461846, Note_on_c, 0, 54, 100
2, 4462579, Note_off_c, 0, 54, 100
2, 4462579, Note_on_c, 0, 54, 100
2, 4463345, Note_on_c, 0, 53, 100
2, 4464117, Note_on_c, 0, 52, 100
2, 4464438, Note_off_c, 0, 54, 100
2, 4464485, Note_off_c, 0, 52, 100
2, 4464614, Note_off_c, 0, 53, 100
2, 4464882, Note_on_c, 0, 50, 100
2, 4465626, Note_off_c, 0, 50, 100
2, 4465626, Note_on_c, 0, 50, 100
2, 4466338, Note_on_c, 0, 48, 100
2, 4467013, Note_on_c, 0, 47, 100
2, 4467105, Note_off_c, 0, 50, 100
2, 4467650, Note_off_c, 0, 45, 100
2, 4467650, Note_on_c, 0, 45, 100
2, 4468106, Note_off_c, 0, 48, 100
2, 4468382, Note_on_c, 0, 44, 100
2, 4468601, Note_off_c, 0, 47, 100
2, 4468736, Note_off_c, 0, 44, 100
2, 4469231, Note_on_c, 0, 44, 100
2, 4469675, Note_off_c, 0, 44, 100
2, 4470079, Note_on_c, 0, 43, 100
2, 4470870, Note_off_c, 0, 43, 100
2, 4470907, Note_on_c, 0, 44, 100
2, 4471698, Note_off_c, 0, 45, 100
2, 4471698, Note_on_c, 0, 45, 100
2, 4471730, Note_off_c, 0, 44, 100
2, 4472437, Note_on_c, 0, 46, 100
2, 4472761, Note_off_c, 0, 46, 100
2, 4473118, Note_on_c, 0, 48, 100
2, 4473241, Note_off_c, 0, 48, 100
2, 4473740, Note_on_c, 0, 50, 100
2, 4473863, Note_off_c, 0, 50, 100
2, 4474311, Note_on_c, 0, 52, 100
2, 4474634, Note_off_c, 0, 52, 100
2, 4474848, Note_on_c, 0, 55, 100
2, 4475462, Note_off_c, 0, 55, 100
2, 4475668, Note_on_c, 0, 58, 100
2, 4476491, Note_off_c, 0, 58, 100
2, 4476576, Note_on_c, 0, 61, 100
2, 4477366, Note_off_c, 0, 61, 100
2, 4477452, Note_on_c, 0, 63, 100
2, 4477895, Note_off_c, 0, 63, 100
2, 4478277, Note_on_c, 0, 65, 100
2, 4478631, Note_off_c, 0, 65, 100
2, 4479038, Note_on_c, 0, 66, 100
2, 4479731, Note_on_c, 0, 67, 100
2, 4480084, Note_off_c, 0, 66, 100
2, 4480359, Note_off_c, 0, 67, 100
2, 4480359, Note_on_c, 0, 67, 100
2, 4480934, Note_off_c, 0, 67, 100
2, 4480934, Note_on_c, 0, 67, 100
2, 4481475, Note_on_c, 0, 65, 100
2, 4482004, Note_on_c, 0, 63, 100
2, 4482242, Note_off_c, 0, 65, 100
2, 4482372, Note_off_c, 0, 63, 100
2, 4482413, Note_off_c, 0, 67, 100
2, 4482895, Note_on_c, 0, 61, 100
2, 4483764, Note_on_c, 0, 58, 100
2, 4484164, Note_off_c, 0, 61, 100
2, 4484586, Note_on_c, 0, 55, 100
2, 4485353, Note_on_c, 0, 52, 100
2, 4485623, Note_off_c, 0, 58, 100
2, 4486064, Note_on_c, 0, 49, 100
2, 4486551, Note_off_c, 0, 55, 100
2, 4486726, Note_on_c, 0, 47, 100
2, 4486883, Note_off_c, 0, 49, 100
2, 4486925, Note_off_c, 0, 52, 100
2, 4486965, Note_off_c, 0, 47, 100
2, 4487351, Note_on_c, 0, 44, 100
2, 4487957, Note_on_c, 0, 42, 100
2, 4488308, Note_off_c, 0, 44, 100
2, 4488562, Note_on_c, 0, 41, 100
2, 4489217, Note_off_c, 0, 41, 100
2, 4489217, Note_on_c, 0, 41, 100
2, 4489291, Note_off_c, 0, 42, 100
2, 4490010, Note_off_c, 0, 41, 100
2, 4490010, Note_on_c, 0, 41, 100
2, 4490501, Note_off_c, 0, 41, 100
2, 4490768, Note_on_c, 0, 41, 100
2, 4490883, Note_off_c, 0, 41, 100
2, 4491491, Note_on_c, 0, 42, 100
2, 4491814, Note_off_c, 0, 42, 100
2, 4492186, Note_on_c, 0, 44, 100
2, 4492476, Note_off_c, 0, 44, 100
2, 4492863, Note_on_c, 0, 46, 100
2, 4492963, Note_off_c, 0, 46, 100
2, 4493536, Note_on_c, 0, 48, 100
2, 4493818, Note_off_c, 0, 48, 100
2, 4494260, Note_on_c, 0, 50, 100
2, 4494577, Note_off_c, 0, 50, 100
2, 4494995, Note_on_c, 0, 52, 100
2, 4495107, Note_off_c, 0, 52, 100
2, 4495701, Note_on_c, 0, 54, 100
2, 4496192, Note_off_c, 0, 54, 100
2, 4496421, Note_on_c, 0, 55, 100
2, 4497211, Note_on_c, 0, 57, 100
2, 4497388, Note_off_c, 0, 55, 100
2, 4498014, Note_on_c, 0, 58, 100
2, 4498516, Note_off_c, 0, 57, 100
2, 4498818, Note_off_c, 0, 58, 100
2, 4498818, Note_on_c, 0, 58, 100
2, 4499606, Note_off_c, 0, 58, 100
2, 4499606, Note_on_c, 0, 58, 100
2, 4499837, Note_off_c, 0, 58, 100
2, 4500363, Note_on_c, 0, 58, 100
2, 4501076, Note_on_c, 0, 57, 100
2, 4501188, Note_off_c, 0, 58, 100
2, 4501741, Note_on_c, 0, 56, 100
2, 4502358, Note_off_c, 0, 56, 100
2, 4502358, Note_on_c, 0, 56, 100
2, 4502651, Note_off_c, 0, 57, 100
2, 4502936, Note_on_c, 0, 55, 100
2, 4503708, Note_on_c, 0, 54, 100
2, 4504067, Note_off_c, 0, 54, 100
2, 4504198, Note_off_c, 0, 55, 100
2, 4504213, Note_off_c, 0, 56, 100
2, 4504598, Note_on_c, 0, 53, 100
2, 4505374, Note_off_c, 0, 53, 100
2, 4505471, Note_on_c, 0, 53, 100
2, 4506306, Note_on_c, 0, 52, 100
2, 4506958, Note_off_c, 0, 53, 100
2, 4507086, Note_on_c, 0, 53, 100
2, 4507802, Note_off_c, 0, 53, 100
2, 4507802, Note_on_c, 0, 53, 100
2, 4508079, Note_off_c, 0, 52, 100
2, 4508452, Note_on_c, 0, 54, 100
2, 4508801, Note_off_c, 0, 54, 100
2, 4508847, Note_off_c, 0, 53, 100
2, 4509042, Note_on_c, 0, 55, 100
2, 4509493, Note_off_c, 0, 55, 100
2, 4509587, Note_on_c, 0, 56, 100
2, 4510106, Note_on_c, 0, 57, 100
2, 4510386, Note_off_c, 0, 56, 100
2, 4510938, Note_off_c, 0, 57, 100
2, 4510975, Note_on_c, 0, 57, 100
2, 4511596, Note_off_c, 0, 57, 100
2, 4511875, Note_on_c, 0, 58, 100
2, 4512203, Note_off_c, 0, 58, 100
2, 4512733, Note_on_c, 0, 58, 100
2, 4512858, Note_off_c, 0, 58, 100
2, 4513533, Note_on_c, 0, 58, 100
2, 4513655, Note_off_c, 0, 58, 100
2, 4514269, Note_on_c, 0, 58, 100
2, 4514588, Note_off_c, 0, 58, 100
2, 4514942, Note_on_c, 0, 57, 100
2, 4515549, Note_off_c, 0, 57, 100
2, 4515561, Note_on_c, 0, 56, 100
2, 4516141, Note_on_c, 0, 54, 100
2, 4516375, Note_off_c, 0, 56, 100
2, 4516702, Note_on_c, 0, 52, 100
2, 4516923, Note_off_c, 0, 54, 100
2, 4517139, Note_off_c, 0, 52, 100
2, 4517293, Note_on_c, 0, 50, 100
2, 4517651, Note_off_c, 0, 50, 100
2, 4518149, Note_on_c, 0, 48, 100
2, 4518968, Note_on_c, 0, 46, 100
2, 4519196, Note_off_c, 0, 48, 100
2, 4519743, Note_on_c, 0, 44, 100
2, 4520473, Note_on_c, 0, 42, 100
2, 4520554, Note_off_c, 0, 46, 100
2, 4521162, Note_on_c, 0, 41, 100
2, 4521505, Note_off_c, 0, 44, 100
2, 4521823, Note_on_c, 0, 40, 100
2, 4521921, Note_off_c, 0, 41, 100
2, 4521945, Note_off_c, 0, 42, 100
2, 4522199, Note_off_c, 0, 40, 100
2, 4522470, Note_on_c, 0, 40, 100
2, 4523119, Note_on_c, 0, 41, 100
2, 4523746, Note_off_c, 0, 40, 100
2, 4523784, Note_on_c, 0, 42, 100
2, 4524486, Note_on_c, 0, 44, 100
2, 4524982, Note_off_c, 0, 41, 100
2, 4525208, Note_on_c, 0, 47, 100
2, 4525750, Note_off_c, 0, 42, 100
2, 4525937, Note_on_c, 0, 49, 100
2, 4526022, Note_off_c, 0, 47, 100
2, 4526055, Note_off_c, 0, 44, 100
2, 4526184, Note_off_c, 0, 49, 100
2, 4526702, Note_on_c, 0, 51, 100
2, 4527474, Note_on_c, 0, 55, 100
2, 4527667, Note_off_c, 0, 51, 100
2, 4528239, Note_on_c, 0, 58, 100
2, 4528816, Note_off_c, 0, 55, 100
2, 4528983, Note_on_c, 0, 61, 100
2, 4529557, Note_off_c, 0, 58, 100
2, 4529696, Note_on_c, 0, 63, 100
2, 4529957, Note_off_c, 0, 61, 100
2, 4530187, Note_off_c, 0, 63, 100
2, 4530370, Note_on_c, 0, 65, 100
2, 4530489, Note_off_c, 0, 65, 100
2, 4531008, Note_on_c, 0, 66, 100
2, 4531337, Note_off_c, 0, 66, 100
2, 4531743, Note_on_c, 0, 67, 100
2, 4532041, Note_off_c, 0, 67, 100
2, 4532591, Note_on_c, 0, 67, 100
2, 4532699, Note_off_c, 0, 67, 100
2, 4533439, Note_on_c, 0, 66, 100
2, 4533713, Note_off_c, 0, 66, 100
2, 4534267, Note_on_c, 0, 65, 100
2, 4534578, Note_off_c, 0, 65, 100
2, 4535057, Note_on_c, 0, 63, 100
2, 4535166, Note_off_c, 0, 63, 100
2, 4535795, Note_on_c, 0, 61, 100
2, 4536285, Note_off_c, 0, 61, 100
2, 4536475, Note_on_c, 0, 58, 100
2, 4537097, Note_on_c, 0, 55, 100
2, 4537438, Note_off_c, 0, 58, 100
2, 4537669, Note_on_c, 0, 53, 100
2, 4538205, Note_on_c, 0, 50, 100
2, 4538396, Note_off_c, 0, 55, 100
2, 4538987, Note_off_c, 0, 53, 100
2, 4539030, Note_on_c, 0, 48, 100
2, 4539145, Note_off_c, 0, 50, 100
2, 4539253, Note_off_c, 0, 48, 100
2, 4539938, Note_on_c, 0, 46, 100
2, 4540768, Note_off_c, 0, 46, 100
2, 4540814, Note_off_c, 0, 45, 100
2, 4540814, Note_on_c, 0, 45, 100
2, 4541638, Note_on_c, 0, 44, 100
2, 4542398, Note_off_c, 0, 44, 100
2, 4542398, Note_on_c, 0, 44, 100
2, 4543091, Note_off_c, 0, 44, 100
2, 4543091, Note_on_c, 0, 44, 100
2, 4543718, Note_off_c, 0, 44, 100
2, 4543718, Note_on_c, 0, 44, 100
2, 4544293, Note_off_c, 0, 45, 100
2, 4544293, Note_on_c, 0, 45, 100
2, 4544347, Note_off_c, 0, 44, 100
2, 4544833, Note_on_c, 0, 47, 100
2, 4545362, Note_on_c, 0, 48, 100
2, 4546258, Note_on_c, 0, 50, 100
2, 4546327, Note_off_c, 0, 47, 100
2, 4547127, Note_off_c, 0, 50, 100
2, 4547127, Note_on_c, 0, 50, 100
2, 4547140, Note_off_c, 0, 48, 100
2, 4547949, Note_on_c, 0, 52, 100
2, 4548170, Note_off_c, 0, 50, 100
2, 4548294, Note_off_c, 0, 52, 100
2, 4548716, Note_on_c, 0, 53, 100
2, 4549174, Note_off_c, 0, 53, 100
2, 4549426, Note_on_c, 0, 54, 100
2, 4550087, Note_off_c, 0, 54, 100
2, 4550087, Note_on_c, 0, 54, 100
2, 4550712, Note_off_c, 0, 54, 100
2, 4550712, Note_on_c, 0, 54, 100
2, 4551317, Note_off_c, 0, 54, 100
2, 4551317, Note_on_c, 0, 54, 100
2, 4551650, Note_off_c, 0, 54, 100
2, 4551921, Note_on_c, 0, 54, 100
2, 4552048, Note_off_c, 0, 54, 100
2, 4552579, Note_on_c, 0, 53, 100
2, 4552699, Note_off_c, 0, 53, 100
2, 4553372, Note_on_c, 0, 52, 100
2, 4553686, Note_off_c, 0, 52, 100
2, 4554130, Note_on_c, 0, 52, 100
2, 4554730, Note_off_c, 0, 52, 100
2, 4554854, Note_on_c, 0, 51, 100
2, 4555549, Note_off_c, 0, 51, 100
2, 4555549, Note_on_c, 0, 51, 100
2, 4556226, Note_off_c, 0, 51, 100
2, 4556226, Note_on_c, 0, 51, 100
2, 4556656, Note_off_c, 0, 51, 100
2, 4556899, Note_on_c, 0, 51, 100
2, 4557262, Note_off_c, 0, 51, 100
2, 4557618, Note_on_c, 0, 51, 100
2, 4558353, Note_on_c, 0, 52, 100
2, 4558666, Note_off_c, 0, 51, 100
2, 4559060, Note_on_c, 0, 53, 100
2, 4559782, Note_on_c, 0, 55, 100
2, 4559936, Note_off_c, 0, 52, 100
2, 4560570, Note_on_c, 0, 56, 100
2, 4560817, Note_off_c, 0, 53, 100
2, 4561246, Note_off_c, 0, 55, 100
2, 4561320, Note_off_c, 0, 56, 100
2, 4561373, Note_on_c, 0, 58, 100
2, 4561757, Note_off_c, 0, 58, 100
2, 4562177, Note_on_c, 0, 59, 100
2, 4562964, Note_on_c, 0, 61, 100
2, 4563459, Note_off_c, 0, 59, 100
2, 4563720, Note_on_c, 0, 62, 100
2, 4564434, Note_off_c, 0, 62, 100
2, 4564434, Note_on_c, 0, 62, 100
2, 4564830, Note_off_c, 0, 61, 100
2, 4565098, Note_off_c, 0, 62, 100
2, 4565098, Note_on_c, 0, 62, 100
2, 4565716, Note_off_c, 0, 62, 100
2, 4565716, Note_on_c, 0, 62, 100
2, 4566000, Note_off_c, 0, 62, 100
2, 4566294, Note_on_c, 0, 61, 100
2, 4567070, Note_on_c, 0, 60, 100
2, 4567268, Note_off_c, 0, 61, 100
2, 4567960, Note_on_c, 0, 58, 100
2, 4568420, Note_off_c, 0, 60, 100
2, 4568832, Note_on_c, 0, 55, 100
2, 4569284, Note_off_c, 0, 58, 100
2, 4569666, Note_on_c, 0, 53, 100
2, 4569809, Note_off_c, 0, 55, 100
2, 4570157, Note_off_c, 0, 53, 100
2, 4570446, Note_on_c, 0, 50, 100
2, 4570568, Note_off_c, 0, 50, 100
2, 4571161, Note_on_c, 0, 48, 100
2, 4571496, Note_off_c, 0, 48, 100
2, 4571810, Note_off_c, 0, 45, 100
2, 4571810, Note_on_c, 0, 45, 100
2, 4572400, Note_on_c, 0, 43, 100
2, 4572517, Note_off_c, 0, 43, 100
2, 4572944, Note_on_c, 0, 41, 100
2, 4573210, Note_off_c, 0, 41, 100
2, 4573464, Note_on_c, 0, 40, 100
2, 4573769, Note_off_c, 0, 40, 100
2, 4574338, Note_on_c, 0, 39, 100
2, 4574444, Note_off_c, 0, 39, 100
2, 4575238, Note_on_c, 0, 39, 100
2, 4575728, Note_off_c, 0, 39, 100
2, 4576095, Note_on_c, 0, 40, 100
2, 4576895, Note_on_c, 0, 41, 100
2, 4577054, Note_off_c, 0, 40, 100
2, 4577630, Note_on_c, 0, 43, 100
2, 4578187, Note_off_c, 0, 41, 100
2, 4578302, Note_off_c, 0, 45, 100
2, 4578302, Note_on_c, 0, 45, 100
2, 4578920, Note_on_c, 0, 48, 100
2, 4578940, Note_off_c, 0, 43, 100
2, 4579136, Note_off_c, 0, 48, 100
2, 4579500, Note_on_c, 0, 50, 100
2, 4580060, Note_on_c, 0, 54, 100
2, 4580336, Note_off_c, 0, 50, 100
2, 4580656, Note_on_c, 0, 57, 100
2, 4581511, Note_on_c, 0, 59, 100
2, 4581640, Note_off_c, 0, 54, 100
2, 4582331, Note_on_c, 0, 62, 100
2, 4582619, Note_off_c, 0, 57, 100
2, 4583106, Note_on_c, 0, 64, 100
2, 4583357, Note_off_c, 0, 59, 100
2, 4583449, Note_off_c, 0, 64, 100
2, 4583580, Note_off_c, 0, 62, 100
2, 4583835, Note_on_c, 0, 65, 100
2, 4584525, Note_on_c, 0, 66, 100
2, 4584628, Note_off_c, 0, 65, 100
2, 4585185, Note_on_c, 0, 65, 100
2, 4585832, Note_off_c, 0, 65, 100
2, 4585832, Note_on_c, 0, 65, 100
2, 4586026, Note_off_c, 0, 66, 100
2, 4586480, Note_on_c, 0, 64, 100
2, 4587144, Note_on_c, 0, 62, 100
2, 4587426, Note_off_c, 0, 65, 100
2, 4587484, Note_off_c, 0, 62, 100
2, 4587522, Note_off_c, 0, 64, 100
2, 4587847, Note_on_c, 0, 60, 100
2, 4588312, Note_off_c, 0, 60, 100
2, 4588569, Note_on_c, 0, 58, 100
2, 4589295, Note_on_c, 0, 55, 100
2, 4589384, Note_off_c, 0, 58, 100
2, 4590060, Note_on_c, 0, 53, 100
2, 4590143, Note_off_c, 0, 55, 100
2, 4590696, Note_off_c, 0, 53, 100
2, 4590832, Note_on_c, 0, 51, 100
2, 4591170, Note_off_c, 0, 51, 100
2, 4591597, Note_on_c, 0, 50, 100
2, 4591725, Note_off_c, 0, 50, 100
2, 4592341, Note_on_c, 0, 49, 100
2, 4592459, Note_off_c, 0, 49, 100
2, 4593053, Note_on_c, 0, 48, 100
2, 4593362, Note_off_c, 0, 48, 100
2, 4593728, Note_on_c, 0, 48, 100
2, 4594320, Note_off_c, 0, 48, 100
2, 4594366, Note_on_c, 0, 48, 100
2, 4595104, Note_off_c, 0, 48, 100
2, 4595104, Note_on_c, 0, 48, 100
2, 4595869, Note_off_c, 0, 48, 100
2, 4595952, Note_on_c, 0, 49, 100
2, 4596375, Note_off_c, 0, 49, 100
2, 4596799, Note_on_c, 0, 49, 100
2, 4597166, Note_off_c, 0, 49, 100
2, 4597626, Note_on_c, 0, 50, 100
2, 4598415, Note_off_c, 0, 50, 100
2, 4598415, Note_on_c, 0, 50, 100
2, 4599153, Note_on_c, 0, 51, 100
2, 4599833, Note_on_c, 0, 52, 100
2, 4599996, Note_off_c, 0, 50, 100
2, 4600454, Note_off_c, 0, 52, 100
2, 4600454, Note_on_c, 0, 52, 100
2, 4600905, Note_off_c, 0, 51, 100
2, 4601026, Note_on_c, 0, 53, 100
2, 4601290, Note_off_c, 0, 52, 100
2, 4601418, Note_off_c, 0, 53, 100
2, 4601563, Note_on_c, 0, 52, 100
2, 4602393, Note_off_c, 0, 52, 100
2, 4602393, Note_on_c, 0, 52, 100
2, 4603300, Note_on_c, 0, 51, 100
2, 4604175, Note_on_c, 0, 50, 100
2, 4604263, Note_off_c, 0, 52, 100
2, 4604999, Note_off_c, 0, 50, 100
2, 4604999, Note_on_c, 0, 50, 100
2, 4605267, Note_off_c, 0, 51, 100
2, 4605759, Note_on_c, 0, 49, 100
2, 4605801, Note_off_c, 0, 50, 100
2, 4606021, Note_off_c, 0, 49, 100
2, 4606450, Note_on_c, 0, 49, 100
2, 4607077, Note_on_c, 0, 48, 100
2, 4607432, Note_off_c, 0, 49, 100
2, 4607651, Note_off_c, 0, 48, 100
2, 4607651, Note_on_c, 0, 48, 100
2, 4608191, Note_off_c, 0, 48, 100
2, 4608191, Note_on_c, 0, 48, 100
2, 4608720, Note_off_c, 0, 48, 100
2, 4608720, Note_on_c, 0, 48, 100
2, 4609211, Note_off_c, 0, 48, 100
2, 4609621, Note_on_c, 0, 49, 100
2, 4609746, Note_off_c, 0, 49, 100
2, 4610490, Note_on_c, 0, 50, 100
2, 4610831, Note_off_c, 0, 50, 100
2, 4611312, Note_on_c, 0, 51, 100
2, 4611626, Note_off_c, 0, 51, 100
2, 4612078, Note_on_c, 0, 53, 100
2, 4612203, Note_off_c, 0, 53, 100
2, 4612788, Note_on_c, 0, 55, 100
2, 4613047, Note_off_c, 0, 55, 100
2, 4613448, Note_on_c, 0, 58, 100
2, 4613747, Note_off_c, 0, 58, 100
2, 4614072, Note_on_c, 0, 60, 100
2, 4614175, Note_off_c, 0, 60, 100
2, 4614677, Note_on_c, 0, 62, 100
2, 4615166, Note_off_c, 0, 62, 100
2, 4615280, Note_on_c, 0, 64, 100
2, 4615940, Note_on_c, 0, 65, 100
2, 4616236, Note_off_c, 0, 64, 100
2, 4616734, Note_off_c, 0, 65, 100
2, 4616734, Note_on_c, 0, 65, 100
2, 4617493, Note_on_c, 0, 66, 100
2, 4618036, Note_off_c, 0, 65, 100
2, 4618216, Note_on_c, 0, 65, 100
2, 4618416, Note_off_c, 0, 66, 100
2, 4618424, Note_off_c, 0, 65, 100
2, 4618911, Note_on_c, 0, 64, 100
2, 4619588, Note_on_c, 0, 62, 100
2, 4619752, Note_off_c, 0, 64, 100
2, 4620261, Note_on_c, 0, 59, 100
2, 4620976, Note_on_c, 0, 57, 100
2, 4621170, Note_off_c, 0, 62, 100
2, 4621712, Note_on_c, 0, 54, 100
2, 4622223, Note_off_c, 0, 59, 100
2, 4622419, Note_on_c, 0, 50, 100
2, 4622754, Note_off_c, 0, 50, 100
2, 4622818, Note_off_c, 0, 57, 100
2, 4622954, Note_off_c, 0, 54, 100
2, 4623142, Note_on_c, 0, 48, 100
2, 4623930, Note_off_c, 0, 45, 100
2, 4623930, Note_on_c, 0, 45, 100
2, 4623943, Note_off_c, 0, 48, 100
2, 4624732, Note_on_c, 0, 43, 100
2, 4625535, Note_on_c, 0, 41, 100
2, 4626322, Note_on_c, 0, 40, 100
2, 4626520, Note_off_c, 0, 43, 100
2, 4627078, Note_on_c, 0, 39, 100
2, 4627131, Note_off_c, 0, 41, 100
2, 4627362, Note_off_c, 0, 40, 100
2, 4627414, Note_off_c, 0, 39, 100
2, 4627791, Note_on_c, 0, 39, 100
2, 4628263, Note_off_c, 0, 39, 100
2, 4628455, Note_on_c, 0, 40, 100
2, 4629073, Note_on_c, 0, 41, 100
2, 4629279, Note_off_c, 0, 40, 100
2, 4629652, Note_on_c, 0, 43, 100
2, 4629930, Note_off_c, 0, 41, 100
2, 4630295, Note_off_c, 0, 43, 100
2, 4630432, Note_off_c, 0, 45, 100
2, 4630432, Note_on_c, 0, 45, 100
2, 4631321, Note_on_c, 0, 48, 100
2, 4631451, Note_off_c, 0, 48, 100
2, 4632192, Note_on_c, 0, 50, 100
2, 4632308, Note_off_c, 0, 50, 100
2, 4633026, Note_on_c, 0, 53, 100
2, 4633330, Note_off_c, 0, 53, 100
2, 4633805, Note_on_c, 0, 55, 100
2, 4634390, Note_off_c, 0, 55, 100
2, 4634520, Note_on_c, 0, 58, 100
2, 4635168, Note_on_c, 0, 60, 100
2, 4635309, Note_off_c, 0, 58, 100
2, 4635757, Note_on_c, 0, 61, 100
2, 4635925, Note_off_c, 0, 60, 100
2, 4636173, Note_off_c, 0, 61, 100
2, 4636301, Note_on_c, 0, 62, 100
2, 4636672, Note_off_c, 0, 62, 100
2, 4636821, Note_on_c, 0, 62, 100
2, 4637700, Note_off_c, 0, 62, 100
2, 4637700, Note_on_c, 0, 62, 100
2, 4638600, Note_off_c, 0, 62, 100
2, 4638600, Note_on_c, 0, 62, 100
2, 4639457, Note_on_c, 0, 61, 100
2, 4640257, Note_on_c, 0, 59, 100
2, 4640346, Note_off_c, 0, 62, 100
2, 4640906, Note_off_c, 0, 61, 100
2, 4640990, Note_off_c, 0, 59, 100
2, 4640991, Note_on_c, 0, 58, 100
2, 4641391, Note_off_c, 0, 58, 100
2, 4641663, Note_on_c, 0, 56, 100
2, 4642280, Note_on_c, 0, 55, 100
2, 4642859, Note_on_c, 0, 53, 100
2, 4642958, Note_off_c, 0, 56, 100
2, 4643419, Note_on_c, 0, 52, 100
2, 4644018, Note_on_c, 0, 51, 100
2, 4644154, Note_off_c, 0, 55, 100
2, 4644814, Note_off_c, 0, 51, 100
2, 4644826, Note_off_c, 0, 53, 100
2, 4644874, Note_on_c, 0, 51, 100
2, 4644980, Note_off_c, 0, 52, 100
2, 4645144, Note_off_c, 0, 51, 100
2, 4645693, Note_on_c, 0, 51, 100
2, 4646469, Note_off_c, 0, 51, 100
2, 4646469, Note_on_c, 0, 51, 100
2, 4647198, Note_off_c, 0, 51, 100
2, 4647198, Note_on_c, 0, 51, 100
2, 4647887, Note_on_c, 0, 52, 100
2, 4648534, Note_off_c, 0, 51, 100
2, 4648547, Note_off_c, 0, 52, 100
2, 4648547, Note_on_c, 0, 52, 100
2, 4649038, Note_off_c, 0, 52, 100
2, 4649193, Note_on_c, 0, 53, 100
2, 4649321, Note_off_c, 0, 53, 100
2, 4649841, Note_on_c, 0, 54, 100
2, 4650188, Note_off_c, 0, 54, 100
2, 4650504, Note_on_c, 0, 54, 100
2, 4650826, Note_off_c, 0, 54, 100
2, 4651207, Note_on_c, 0, 54, 100
2, 4651341, Note_off_c, 0, 54, 100
2, 4651930, Note_on_c, 0, 54, 100
2, 4652181, Note_off_c, 0, 54, 100
2, 4652654, Note_on_c, 0, 54, 100
2, 4652948, Note_off_c, 0, 54, 100
2, 4653418, Note_on_c, 0, 53, 100
2, 4653519, Note_off_c, 0, 53, 100
2, 4654189, Note_on_c, 0, 52, 100
2, 4654678, Note_off_c, 0, 52, 100
2, 4654954, Note_on_c, 0, 50, 100
2, 4655698, Note_off_c, 0, 50, 100
2, 4655698, Note_on_c, 0, 50, 100
2, 4656410, Note_on_c, 0, 48, 100
2, 4656977, Note_off_c, 0, 50, 100
2, 4657086, Note_on_c, 0, 47, 100
2, 4657704, Note_off_c, 0, 48, 100
2, 4657724, Note_off_c, 0, 45, 100
2, 4657724, Note_on_c, 0, 45, 100
2, 4658000, Note_off_c, 0, 47, 100
2, 4658465, Note_on_c, 0, 44, 100
2, 4659312, Note_off_c, 0, 44, 100
2, 4659312, Note_on_c, 0, 44, 100
2, 4660158, Note_off_c, 0, 44, 100
2, 4660158, Note_on_c, 0, 44, 100
2, 4660985, Note_off_c, 0, 44, 100
2, 4660985, Note_on_c, 0, 44, 100
2, 4661773, Note_off_c, 0, 45, 100
2, 4661773, Note_on_c, 0, 45, 100
2, 4662511, Note_on_c, 0, 46, 100
2, 4662823, Note_off_c, 0, 44, 100
2, 4662838, Note_off_c, 0, 46, 100
2, 4663190, Note_on_c, 0, 48, 100
2, 4663812, Note_on_c, 0, 50, 100
2, 4664000, Note_off_c, 0, 48, 100
2, 4664383, Note_on_c, 0, 53, 100
2, 4664920, Note_on_c, 0, 55, 100
2, 4665328, Note_off_c, 0, 50, 100
2, 4665755, Note_on_c, 0, 58, 100
2, 4666176, Note_off_c, 0, 53, 100
2, 4666518, Note_off_c, 0, 55, 100
2, 4666662, Note_on_c, 0, 61, 100
2, 4666794, Note_off_c, 0, 58, 100
2, 4666993, Note_off_c, 0, 61, 100
2, 4667537, Note_on_c, 0, 63, 100
2, 4668016, Note_off_c, 0, 63, 100
2, 4668360, Note_on_c, 0, 65, 100
2, 4669119, Note_on_c, 0, 66, 100
2, 4669192, Note_off_c, 0, 65, 100
2, 4669809, Note_on_c, 0, 67, 100
2, 4669984, Note_off_c, 0, 66, 100
2, 4670436, Note_off_c, 0, 67, 100
2, 4670436, Note_on_c, 0, 67, 100
2, 4670783, Note_off_c, 0, 67, 100
2, 4671009, Note_on_c, 0, 66, 100
2, 4671140, Note_off_c, 0, 66, 100
2, 4671549, Note_on_c, 0, 65, 100
2, 4671663, Note_off_c, 0, 65, 100
2, 4672082, Note_on_c, 0, 63, 100
2, 4672381, Note_off_c, 0, 63, 100
2, 4672983, Note_on_c, 0, 61, 100
2, 4673561, Note_off_c, 0, 61, 100
2, 4673853, Note_on_c, 0, 58, 100
2, 4674634, Note_off_c, 0, 58, 100
2, 4674674, Note_on_c, 0, 55, 100
2, 4675423, Note_off_c, 0, 55, 100
2, 4675440, Note_on_c, 0, 51, 100
2, 4675850, Note_off_c, 0, 51, 100
2, 4676150, Note_on_c, 0, 49, 100
2, 4676525, Note_off_c, 0, 49, 100
2, 4676810, Note_on_c, 0, 47, 100
2, 4677433, Note_on_c, 0, 44, 100
2, 4677861, Note_off_c, 0, 47, 100
2, 4678037, Note_on_c, 0, 42, 100
2, 4678639, Note_on_c, 0, 41, 100
2, 4679009, Note_off_c, 0, 44, 100
2, 4679302, Note_on_c, 0, 40, 100
2, 4679778, Note_off_c, 0, 42, 100
2, 4680027, Note_off_c, 0, 40, 100
2, 4680081, Note_off_c, 0, 41, 100
2, 4680096, Note_on_c, 0, 40, 100
2, 4680504, Note_off_c, 0, 40, 100
2, 4680855, Note_on_c, 0, 41, 100
2, 4681579, Note_on_c, 0, 42, 100
2, 4682156, Note_off_c, 0, 41, 100
2, 4682274, Note_on_c, 0, 44, 100
2, 4682951, Note_on_c, 0, 46, 100
2, 4683457, Note_off_c, 0, 42, 100
2, 4683624, Note_on_c, 0, 48, 100
2, 4684242, Note_off_c, 0, 44, 100
2, 4684333, Note_on_c, 0, 50, 100
2, 4684414, Note_off_c, 0, 48, 100
2, 4684509, Note_off_c, 0, 46, 100
2, 4684611, Note_off_c, 0, 50, 100
2, 4685070, Note_on_c, 0, 52, 100
2, 4685778, Note_on_c, 0, 54, 100
2, 4686069, Note_off_c, 0, 52, 100
2, 4686502, Note_on_c, 0, 56, 100
2, 4687152, Note_off_c, 0, 54, 100
2, 4687289, Note_on_c, 0, 57, 100
2, 4687844, Note_off_c, 0, 56, 100
2, 4688091, Note_on_c, 0, 58, 100
2, 4688276, Note_off_c, 0, 57, 100
2, 4688582, Note_off_c, 0, 58, 100
2, 4688893, Note_on_c, 0, 58, 100
2, 4689025, Note_off_c, 0, 58, 100
2, 4689680, Note_on_c, 0, 58, 100
2, 4690033, Note_off_c, 0, 58, 100
2, 4690435, Note_on_c, 0, 58, 100
2, 4690765, Note_off_c, 0, 58, 100
2, 4691148, Note_on_c, 0, 57, 100
2, 4691290, Note_off_c, 0, 57, 100
2, 4691813, Note_on_c, 0, 57, 100
2, 4692056, Note_off_c, 0, 57, 100
2, 4692430, Note_on_c, 0, 56, 100
2, 4692718, Note_off_c, 0, 56, 100
2, 4693009, Note_on_c, 0, 55, 100
2, 4693107, Note_off_c, 0, 55, 100
2, 4693794, Note_on_c, 0, 54, 100
2, 4694282, Note_off_c, 0, 54, 100
2, 4694682, Note_on_c, 0, 53, 100
2, 4695553, Note_off_c, 0, 53, 100
2, 4695553, Note_on_c, 0, 53, 100
2, 4696386, Note_on_c, 0, 52, 100
2, 4696826, Note_off_c, 0, 53, 100
2, 4697164, Note_on_c, 0, 53, 100
2, 4697672, Note_off_c, 0, 52, 100
2, 4697878, Note_off_c, 0, 53, 100
2, 4697878, Note_on_c, 0, 53, 100
2, 4698071, Note_off_c, 0, 53, 100
2, 4698526, Note_on_c, 0, 54, 100
2, 4699115, Note_on_c, 0, 55, 100
2, 4699378, Note_off_c, 0, 54, 100
2, 4699659, Note_on_c, 0, 56, 100
2, 4700178, Note_off_c, 0, 56, 100
2, 4700178, Note_on_c, 0, 56, 100
2, 4700702, Note_off_c, 0, 55, 100
2, 4701063, Note_on_c, 0, 57, 100
2, 4701963, Note_on_c, 0, 58, 100
2, 4702012, Note_off_c, 0, 56, 100
2, 4702281, Note_off_c, 0, 58, 100
2, 4702292, Note_off_c, 0, 57, 100
2, 4702819, Note_on_c, 0, 58, 100
2, 4703618, Note_off_c, 0, 58, 100
2, 4703618, Note_on_c, 0, 58, 100
2, 4704353, Note_off_c, 0, 58, 100
2, 4704353, Note_on_c, 0, 58, 100
2, 4705023, Note_on_c, 0, 57, 100
2, 4705640, Note_on_c, 0, 55, 100
2, 4706151, Note_off_c, 0, 58, 100
2, 4706218, Note_on_c, 0, 54, 100
2, 4706544, Note_off_c, 0, 54, 100
2, 4706623, Note_off_c, 0, 57, 100
2, 4706677, Note_off_c, 0, 55, 100
2, 4706777, Note_on_c, 0, 52, 100
2, 4707263, Note_off_c, 0, 52, 100
2, 4707380, Note_on_c, 0, 50, 100
2, 4708221, Note_off_c, 0, 50, 100
2, 4708236, Note_on_c, 0, 48, 100
2, 4709056, Note_on_c, 0, 46, 100
2, 4709109, Note_off_c, 0, 48, 100
2, 4709713, Note_off_c, 0, 46, 100
2, 4709831, Note_on_c, 0, 44, 100
2, 4710182, Note_off_c, 0, 44, 100
2, 4710561, Note_on_c, 0, 42, 100
2, 4710693, Note_off_c, 0, 42, 100
2, 4711249, Note_on_c, 0, 41, 100
2, 4711361, Note_off_c, 0, 41, 100
2, 4711909, Note_on_c, 0, 41, 100
2, 4712203, Note_off_c, 0, 41, 100
2, 4712555, Note_on_c, 0, 41, 100
2, 4713125, Note_off_c, 0, 41, 100
2, 4713202, Note_on_c, 0, 41, 100
2, 4713864, Note_on_c, 0, 42, 100
2, 4713974, Note_off_c, 0, 41, 100
2, 4714568, Note_on_c, 0, 44, 100
2, 4714605, Note_off_c, 0, 42, 100
2, 4714971, Note_off_c, 0, 44, 100
2, 4715291, Note_on_c, 0, 47, 100
2, 4715670, Note_off_c, 0, 47, 100
2, 4716012, Note_on_c, 0, 49, 100
2, 4716775, Note_on_c, 0, 52, 100
2, 4717064, Note_off_c, 0, 49, 100
2, 4717546, Note_on_c, 0, 55, 100
2, 4718311, Note_on_c, 0, 58, 100
2, 4718349, Note_off_c, 0, 52, 100
2, 4719055, Note_on_c, 0, 61, 100
2, 4719281, Note_off_c, 0, 55, 100
2, 4719745, Note_off_c, 0, 58, 100
2, 4719768, Note_on_c, 0, 63, 100
2, 4719771, Note_off_c, 0, 61, 100
2, 4720184, Note_off_c, 0, 63, 100
2, 4720443, Note_on_c, 0, 65, 100
2, 4721083, Note_on_c, 0, 67, 100
2, 4721751, Note_off_c, 0, 65, 100
2, 4721827, Note_off_c, 0, 67, 100
2, 4721827, Note_on_c, 0, 67, 100
2, 4722673, Note_off_c, 0, 67, 100
2, 4722673, Note_on_c, 0, 67, 100
2, 4723518, Note_on_c, 0, 66, 100
2, 4724228, Note_off_c, 0, 67, 100
2, 4724303, Note_off_c, 0, 66, 100
2, 4724344, Note_on_c, 0, 65, 100
2, 4724629, Note_off_c, 0, 65, 100
2, 4725132, Note_on_c, 0, 63, 100
2, 4725869, Note_on_c, 0, 61, 100
2, 4726140, Note_off_c, 0, 63, 100
2, 4726548, Note_on_c, 0, 58, 100
2, 4727169, Note_on_c, 0, 55, 100
2, 4727251, Note_off_c, 0, 61, 100
2, 4727740, Note_on_c, 0, 52, 100
2, 4727896, Note_off_c, 0, 58, 100
2, 4728159, Note_off_c, 0, 55, 100
2, 4728231, Note_off_c, 0, 52, 100
2, 4728277, Note_on_c, 0, 50, 100
2, 4728412, Note_off_c, 0, 50, 100
2, 4729118, Note_on_c, 0, 48, 100
2, 4729478, Note_off_c, 0, 48, 100
2, 4730024, Note_on_c, 0, 46, 100
2, 4730362, Note_off_c, 0, 46, 100
2, 4730898, Note_off_c, 0, 45, 100
2, 4730898, Note_on_c, 0, 45, 100
2, 4731721, Note_on_c, 0, 44, 100
2, 4731957, Note_off_c, 0, 44, 100
2, 4732479, Note_on_c, 0, 43, 100
2, 4732761, Note_off_c, 0, 43, 100
2, 4733169, Note_on_c, 0, 44, 100
2, 4733265, Note_off_c, 0, 44, 100
2, 4733794, Note_on_c, 0, 44, 100
2, 4734282, Note_off_c, 0, 44, 100
2, 4734367, Note_off_c, 0, 45, 100
2, 4734367, Note_on_c, 0, 45, 100
2, 4734906, Note_on_c, 0, 47, 100
2, 4735445, Note_on_c, 0, 48, 100
2, 4736172, Note_off_c, 0, 47, 100
2, 4736346, Note_on_c, 0, 50, 100
2, 4736722, Note_off_c, 0, 48, 100
2, 4737215, Note_off_c, 0, 50, 100
2, 4737215, Note_on_c, 0, 50, 100
2, 4737401, Note_off_c, 0, 50, 100
2, 4738037, Note_on_c, 0, 52, 100
2, 4738803, Note_on_c, 0, 53, 100
2, 4738894, Note_off_c, 0, 52, 100
2, 4739512, Note_on_c, 0, 54, 100
2, 4740171, Note_off_c, 0, 54, 100
2, 4740171, Note_on_c, 0, 54, 100
2, 4740392, Note_off_c, 0, 53, 100
2, 4740793, Note_off_c, 0, 54, 100
2, 4740793, Note_on_c, 0, 54, 100
2, 4741397, Note_off_c, 0, 54, 100
2, 4741397, Note_on_c, 0, 54, 100
2, 4741998, Note_off_c, 0, 54, 100
2, 4741998, Note_on_c, 0, 54, 100
2, 4742663, Note_on_c, 0, 53, 100
2, 4742825, Note_off_c, 0, 54, 100
2, 4743458, Note_off_c, 0, 53, 100
2, 4743458, Note_on_c, 0, 53, 100
2, 4744217, Note_on_c, 0, 52, 100
2, 4744942, Note_on_c, 0, 51, 100
2, 4745261, Note_off_c, 0, 53, 100
2, 4745637, Note_off_c, 0, 51, 100
2, 4745637, Note_on_c, 0, 51, 100
2, 4745818, Note_off_c, 0, 52, 100
2, 4745978, Note_off_c, 0, 51, 100
2, 4746314, Note_on_c, 0, 51, 100
2, 4746807, Note_off_c, 0, 51, 100
2, 4746986, Note_on_c, 0, 51, 100
2, 4747691, Note_off_c, 0, 51, 100
2, 4747691, Note_on_c, 0, 51, 100
2, 4748429, Note_on_c, 0, 52, 100
2, 4748572, Note_off_c, 0, 51, 100
2, 4749092, Note_off_c, 0, 52, 100
2, 4749137, Note_on_c, 0, 53, 100
2, 4749493, Note_off_c, 0, 53, 100
2, 4749863, Note_on_c, 0, 55, 100
2, 4749996, Note_off_c, 0, 55, 100
2, 4750649, Note_on_c, 0, 56, 100
2, 4750759, Note_off_c, 0, 56, 100
2, 4751450, Note_on_c, 0, 58, 100
2, 4751738, Note_off_c, 0, 58, 100
2, 4752252, Note_on_c, 0, 59, 100
2, 4752815, Note_off_c, 0, 59, 100
2, 4753037, Note_on_c, 0, 61, 100
2, 4753792, Note_on_c, 0, 62, 100
2, 4753801, Note_off_c, 0, 61, 100
2, 4754505, Note_off_c, 0, 62, 100
2, 4754505, Note_on_c, 0, 62, 100
2, 4754901, Note_off_c, 0, 62, 100
2, 4755170, Note_on_c, 0, 62, 100
2, 4755553, Note_off_c, 0, 62, 100
2, 4755788, Note_on_c, 0, 62, 100
2, 4756367, Note_on_c, 0, 61, 100
2, 4756840, Note_off_c, 0, 62, 100
2, 4757156, Note_on_c, 0, 59, 100
2, 4757938, Note_off_c, 0, 61, 100
2, 4758044, Note_on_c, 0, 57, 100
2, 4758886, Note_off_c, 0, 59, 100
2, 4758914, Note_on_c, 0, 55, 100
2, 4759470, Note_off_c, 0, 57, 100
2, 4759622, Note_off_c, 0, 55, 100
2, 4759746, Note_on_c, 0, 52, 100
2, 4760170, Note_off_c, 0, 52, 100
2, 4760523, Note_on_c, 0, 50, 100
2, 4761237, Note_on_c, 0, 48, 100
2, 4761837, Note_off_c, 0, 50, 100
2, 4761884, Note_off_c, 0, 45, 100
2, 4761884, Note_on_c, 0, 45, 100
2, 4762473, Note_on_c, 0, 43, 100
2, 4763016, Note_on_c, 0, 41, 100
2, 4763122, Note_off_c, 0, 48, 100
2, 4763535, Note_on_c, 0, 40, 100
2, 4763795, Note_off_c, 0, 41, 100
2, 4763828, Note_off_c, 0, 40, 100
2, 4764025, Note_off_c, 0, 43, 100
2, 4764426, Note_on_c, 0, 39, 100
2, 4765325, Note_off_c, 0, 39, 100
2, 4765325, Note_on_c, 0, 39, 100
2, 4766182, Note_on_c, 0, 40, 100
2, 4766715, Note_off_c, 0, 39, 100
2, 4766980, Note_on_c, 0, 41, 100
2, 4767536, Note_off_c, 0, 40, 100
2, 4767714, Note_on_c, 0, 43, 100
2, 4767973, Note_off_c, 0, 41, 100
2, 4768205, Note_off_c, 0, 43, 100
2, 4768383, Note_off_c, 0, 45, 100
2, 4768383, Note_on_c, 0, 45, 100
2, 4768999, Note_on_c, 0, 48, 100
2, 4769365, Note_off_c, 0, 48, 100
2, 4769577, Note_on_c, 0, 51, 100
2, 4769923, Note_off_c, 0, 51, 100
2, 4770135, Note_on_c, 0, 54, 100
2, 4770294, Note_off_c, 0, 54, 100
2, 4770742, Note_on_c, 0, 57, 100
2, 4770970, Note_off_c, 0, 57, 100
2, 4771599, Note_on_c, 0, 60, 100
2, 4771876, Note_off_c, 0, 60, 100
2, 4772419, Note_on_c, 0, 62, 100
2, 4772517, Note_off_c, 0, 62, 100
2, 4773194, Note_on_c, 0, 64, 100
2, 4773681, Note_off_c, 0, 64, 100
2, 4773923, Note_on_c, 0, 65, 100
2, 4774612, Note_on_c, 0, 66, 100
2, 4774863, Note_off_c, 0, 65, 100
2, 4775271, Note_off_c, 0, 66, 100
2, 4775271, Note_on_c, 0, 66, 100
2, 4775916, Note_on_c, 0, 65, 100
2, 4776540, Note_off_c, 0, 66, 100
2, 4776562, Note_on_c, 0, 64, 100
2, 4776741, Note_off_c, 0, 64, 100
2, 4776805, Note_off_c, 0, 65, 100
2, 4777224, Note_on_c, 0, 62, 100
2, 4777929, Note_on_c, 0, 60, 100
2, 4778086, Note_off_c, 0, 62, 100
2, 4778653, Note_on_c, 0, 58, 100
2, 4779370, Note_on_c, 0, 55, 100
2, 4779520, Note_off_c, 0, 60, 100
2, 4780133, Note_on_c, 0, 53, 100
2, 4780610, Note_off_c, 0, 58, 100
2, 4780904, Note_on_c, 0, 51, 100
2, 4781195, Note_off_c, 0, 55, 100
2, 4781206, Note_off_c, 0, 51, 100
2, 4781348, Note_off_c, 0, 53, 100
2, 4781668, Note_on_c, 0, 50, 100
2, 4782412, Note_on_c, 0, 49, 100
2, 4782503, Note_off_c, 0, 50, 100
2, 4783125, Note_on_c, 0, 48, 100
2, 4783801, Note_off_c, 0, 48, 100
2, 4783801, Note_on_c, 0, 48, 100
2, 4783949, Note_off_c, 0, 49, 100
2, 4784441, Note_off_c, 0, 48, 100
2, 4784441, Note_on_c, 0, 48, 100
2, 4785188, Note_off_c, 0, 48, 100
2, 4785188, Note_on_c, 0, 48, 100
2, 4785505, Note_off_c, 0, 48, 100
2, 4786033, Note_on_c, 0, 48, 100
2, 4786533, Note_off_c, 0, 48, 100
2, 4786878, Note_on_c, 0, 49, 100
2, 4787703, Note_on_c, 0, 50, 100
2, 4787735, Note_off_c, 0, 49, 100
2, 4788490, Note_off_c, 0, 50, 100
2, 4788490, Note_on_c, 0, 50, 100
2, 4789160, Note_off_c, 0, 50, 100
2, 4789227, Note_on_c, 0, 51, 100
2, 4789587, Note_off_c, 0, 51, 100
2, 4789905, Note_on_c, 0, 52, 100
2, 4790040, Note_off_c, 0, 52, 100
2, 4790526, Note_on_c, 0, 52, 100
2, 4790633, Note_off_c, 0, 52, 100
2, 4791097, Note_on_c, 0, 53, 100
2, 4791380, Note_off_c, 0, 53, 100
2, 4791635, Note_on_c, 0, 52, 100
2, 4792191, Note_off_c, 0, 52, 100
2, 4792480, Note_on_c, 0, 52, 100
2, 4793235, Note_off_c, 0, 52, 100
2, 4793386, Note_on_c, 0, 51, 100
2, 4794111, Note_off_c, 0, 51, 100
2, 4794260, Note_on_c, 0, 50, 100
2, 4794650, Note_off_c, 0, 50, 100
2, 4795081, Note_on_c, 0, 50, 100
2, 4795468, Note_off_c, 0, 50, 100
2, 4795839, Note_on_c, 0, 50, 100
2, 4796528, Note_on_c, 0, 49, 100
2, 4796892, Note_off_c, 0, 50, 100
2, 4797153, Note_on_c, 0, 48, 100
2, 4797725, Note_off_c, 0, 48, 100
2, 4797725, Note_on_c, 0, 48, 100
2, 4798096, Note_off_c, 0, 49, 100
2, 4798264, Note_off_c, 0, 48, 100
2, 4798264, Note_on_c, 0, 48, 100
2, 4798808, Note_off_c, 0, 48, 100
2, 4798808, Note_on_c, 0, 48, 100
2, 4799240, Note_off_c, 0, 48, 100
2, 4799709, Note_on_c, 0, 49, 100
2, 4800578, Note_on_c, 0, 50, 100
2, 4801029, Note_off_c, 0, 49, 100
2, 4801400, Note_on_c, 0, 51, 100
2, 4802165, Note_on_c, 0, 53, 100
2, 4802466, Note_off_c, 0, 50, 100
2, 4802873, Note_on_c, 0, 55, 100
2, 4803368, Note_off_c, 0, 51, 100
2, 4803532, Note_on_c, 0, 58, 100
2, 4803646, Note_off_c, 0, 55, 100
2, 4803713, Note_off_c, 0, 53, 100
2, 4803833, Note_off_c, 0, 58, 100
2, 4804154, Note_on_c, 0, 60, 100
2, 4804756, Note_on_c, 0, 62, 100
2, 4805179, Note_off_c, 0, 60, 100
2, 4805358, Note_on_c, 0, 64, 100
2, 4806025, Note_on_c, 0, 65, 100
2, 4806153, Note_off_c, 0, 62, 100
2, 4806718, Note_off_c, 0, 64, 100
2, 4806820, Note_off_c, 0, 65, 100
2, 4806820, Note_on_c, 0, 65, 100
2, 4807310, Note_off_c, 0, 65, 100
2, 4807580, Note_on_c, 0, 65, 100
2, 4807723, Note_off_c, 0, 65, 100
2, 4808305, Note_on_c, 0, 65, 100
2, 4808677, Note_off_c, 0, 65, 100
2, 4809000, Note_on_c, 0, 64, 100
2, 4809354, Note_off_c, 0, 64, 100
2, 4809677, Note_on_c, 0, 62, 100
2, 4809845, Note_off_c, 0, 62, 100
2, 4810349, Note_on_c, 0, 59, 100
2, 4810569, Note_off_c, 0, 59, 100
2, 4811049, Note_on_c, 0, 56, 100
2, 4811320, Note_off_c, 0, 56, 100
2, 4811787, Note_on_c, 0, 53, 100
2, 4811888, Note_off_c, 0, 53, 100
2, 4812496, Note_on_c, 0, 50, 100
2, 4812982, Note_off_c, 0, 50, 100
2, 4813223, Note_on_c, 0, 48, 100
2, 4814008, Note_off_c, 0, 45, 100
2, 4814008, Note_on_c, 0, 45, 100
2, 4814159, Note_off_c, 0, 48, 100
2, 4814809, Note_on_c, 0, 43, 100
2, 4815610, Note_on_c, 0, 41, 100
2, 4816070, Note_off_c, 0, 43, 100
2, 4816395, Note_on_c, 0, 39, 100
2, 4816490, Note_off_c, 0, 41, 100
2, 4816566, Note_off_c, 0, 39, 100
2, 4817150, Note_on_c, 0, 39, 100
2, 4817862, Note_off_c, 0, 39, 100
2, 4817862, Note_on_c, 0, 39, 100
2, 4818527, Note_on_c, 0, 40, 100
2, 4819145, Note_on_c, 0, 41, 100
2, 4819455, Note_off_c, 0, 39, 100
2, 4819725, Note_on_c, 0, 43, 100
2, 4820483, Note_off_c, 0, 40, 100
2, 4820518, Note_off_c, 0, 45, 100
2, 4820518, Note_on_c, 0, 45, 100
2, 4820933, Note_off_c, 0, 43, 100
2, 4820965, Note_off_c, 0, 41, 100
2, 4821405, Note_on_c, 0, 48, 100
2, 4822248, Note_off_c, 0, 48, 100
2, 4822274, Note_on_c, 0, 50, 100
2, 4823106, Note_on_c, 0, 53, 100
2, 4823818, Note_off_c, 0, 50, 100
2, 4823883, Note_on_c, 0, 55, 100
2, 4824595, Note_on_c, 0, 58, 100
2, 4824918, Note_off_c, 0, 53, 100
2, 4825242, Note_on_c, 0, 60, 100
2, 4825488, Note_off_c, 0, 55, 100
2, 4825554, Note_off_c, 0, 60, 100
2, 4825627, Note_off_c, 0, 58, 100
2, 4825830, Note_on_c, 0, 61, 100
2, 4826337, Note_off_c, 0, 61, 100
2, 4826373, Note_on_c, 0, 62, 100
2, 4826892, Note_on_c, 0, 63, 100
2, 4827239, Note_off_c, 0, 62, 100
2, 4827789, Note_on_c, 0, 62, 100
2, 4827790, Note_off_c, 0, 63, 100
2, 4828466, Note_off_c, 0, 62, 100
2, 4828688, Note_on_c, 0, 62, 100
2, 4829052, Note_off_c, 0, 62, 100
2, 4829544, Note_on_c, 0, 61, 100
2, 4829680, Note_off_c, 0, 61, 100
2, 4830342, Note_on_c, 0, 59, 100
2, 4830447, Note_off_c, 0, 59, 100
2, 4831075, Note_on_c, 0, 58, 100
2, 4831353, Note_off_c, 0, 58, 100
2, 4831744, Note_on_c, 0, 56, 100
2, 4832292, Note_off_c, 0, 56, 100
2, 4832359, Note_on_c, 0, 55, 100
2, 4832936, Note_on_c, 0, 53, 100
2, 4833106, Note_off_c, 0, 55, 100
2, 4833494, Note_on_c, 0, 52, 100
2, 4833653, Note_off_c, 0, 53, 100
2, 4833877, Note_off_c, 0, 52, 100
2, 4834104, Note_on_c, 0, 51, 100
2, 4834495, Note_off_c, 0, 51, 100
2, 4834961, Note_on_c, 0, 51, 100
2, 4835782, Note_off_c, 0, 51, 100
2, 4835782, Note_on_c, 0, 51, 100
2, 4836557, Note_off_c, 0, 51, 100
2, 4836557, Note_on_c, 0, 51, 100
2, 4837286, Note_off_c, 0, 51, 100
2, 4837286, Note_on_c, 0, 51, 100
2, 4837974, Note_on_c, 0, 52, 100
2, 4838633, Note_off_c, 0, 52, 100
2, 4838633, Note_on_c, 0, 52, 100
2, 4838697, Note_off_c, 0, 51, 100
2, 4839073, Note_off_c, 0, 52, 100
2, 4839278, Note_on_c, 0, 53, 100
2, 4839923, Note_on_c, 0, 54, 100
2, 4840584, Note_off_c, 0, 54, 100
2, 4840584, Note_on_c, 0, 54, 100
2, 4840604, Note_off_c, 0, 53, 100
2, 4841289, Note_off_c, 0, 54, 100
2, 4841289, Note_on_c, 0, 54, 100
2, 4842014, Note_off_c, 0, 54, 100
2, 4842014, Note_on_c, 0, 54, 100
2, 4842728, Note_off_c, 0, 54, 100
2, 4842728, Note_on_c, 0, 54, 100
2, 4843037, Note_off_c, 0, 54, 100
2, 4843490, Note_on_c, 0, 53, 100
2, 4844261, Note_on_c, 0, 52, 100
2, 4844523, Note_off_c, 0, 53, 100
2, 4845025, Note_on_c, 0, 50, 100
2, 4845666, Note_off_c, 0, 52, 100
2, 4845769, Note_off_c, 0, 50, 100
2, 4845769, Note_on_c, 0, 50, 100
2, 4846483, Note_on_c, 0, 48, 100
2, 4846768, Note_off_c, 0, 50, 100
2, 4846973, Note_off_c, 0, 48, 100
2, 4847159, Note_on_c, 0, 47, 100
2, 4847305, Note_off_c, 0, 47, 100
2, 4847799, Note_off_c, 0, 45, 100
2, 4847799, Note_on_c, 0, 45, 100
2, 4848549, Note_on_c, 0, 44, 100
2, 4848911, Note_off_c, 0, 44, 100
2, 4849394, Note_on_c, 0, 44, 100
2, 4849570, Note_off_c, 0, 44, 100
2, 4850238, Note_on_c, 0, 44, 100
2, 4850451, Note_off_c, 0, 44, 100
2, 4851062, Note_on_c, 0, 44, 100
2, 4851328, Note_off_c, 0, 44, 100
2, 4851849, Note_off_c, 0, 45, 100
2, 4851849, Note_on_c, 0, 45, 100
2, 4852585, Note_on_c, 0, 47, 100
2, 4853070, Note_off_c, 0, 47, 100
2, 4853263, Note_on_c, 0, 49, 100
2, 4853883, Note_on_c, 0, 50, 100
2, 4854195, Note_off_c, 0, 49, 100
2, 4854454, Note_on_c, 0, 53, 100
2, 4854992, Note_on_c, 0, 55, 100
2, 4855129, Note_off_c, 0, 50, 100
2, 4855707, Note_off_c, 0, 53, 100
2, 4855843, Note_on_c, 0, 58, 100
2, 4855864, Note_off_c, 0, 55, 100
2, 4856007, Note_off_c, 0, 58, 100
2, 4856748, Note_on_c, 0, 61, 100
2, 4857620, Note_off_c, 0, 61, 100
2, 4857621, Note_on_c, 0, 63, 100
2, 4858442, Note_on_c, 0, 65, 100
2, 4859199, Note_on_c, 0, 66, 100
2, 4859216, Note_off_c, 0, 63, 100
2, 4859888, Note_on_c, 0, 67, 100
2, 4860396, Note_off_c, 0, 65, 100
2, 4860512, Note_off_c, 0, 67, 100
2, 4860512, Note_on_c, 0, 67, 100
2, 4861015, Note_off_c, 0, 66, 100
2, 4861084, Note_on_c, 0, 66, 100
2, 4861089, Note_off_c, 0, 67, 100
2, 4861622, Note_on_c, 0, 65, 100
2, 4861936, Note_off_c, 0, 66, 100
2, 4862170, Note_on_c, 0, 63, 100
2, 4863072, Note_on_c, 0, 60, 100
2, 4863173, Note_off_c, 0, 65, 100
2, 4863941, Note_on_c, 0, 58, 100
2, 4863987, Note_off_c, 0, 63, 100
2, 4864678, Note_off_c, 0, 60, 100
2, 4864762, Note_on_c, 0, 54, 100
2, 4864971, Note_off_c, 0, 58, 100
2, 4865069, Note_off_c, 0, 54, 100
2, 4865527, Note_on_c, 0, 51, 100
2, 4866042, Note_off_c, 0, 51, 100
2, 4866235, Note_on_c, 0, 49, 100
2, 4866893, Note_on_c, 0, 46, 100
2, 4867109, Note_off_c, 0, 49, 100
2, 4867515, Note_on_c, 0, 44, 100
2, 4867799, Note_off_c, 0, 46, 100
2, 4868116, Note_on_c, 0, 42, 100
2, 4868199, Note_off_c, 0, 44, 100
2, 4868484, Note_off_c, 0, 42, 100
2, 4868717, Note_on_c, 0, 41, 100
2, 4868854, Note_off_c, 0, 41, 100
2, 4869386, Note_on_c, 0, 40, 100
2, 4869489, Note_off_c, 0, 40, 100
2, 4870182, Note_on_c, 0, 40, 100
2, 4870454, Note_off_c, 0, 40, 100
2, 4870942, Note_on_c, 0, 41, 100
2, 4871483, Note_off_c, 0, 41, 100
2, 4871667, Note_on_c, 0, 42, 100
2, 4872363, Note_on_c, 0, 44, 100
2, 4872405, Note_off_c, 0, 42, 100
2, 4873039, Note_on_c, 0, 46, 100
2, 4873071, Note_off_c, 0, 44, 100
2, 4873416, Note_off_c, 0, 46, 100
2, 4873711, Note_on_c, 0, 48, 100
2, 4874105, Note_off_c, 0, 48, 100
2, 4874407, Note_on_c, 0, 50, 100
2, 4875145, Note_on_c, 0, 52, 100
2, 4875461, Note_off_c, 0, 50, 100
2, 4875856, Note_on_c, 0, 54, 100
2, 4876583, Note_on_c, 0, 56, 100
2, 4876708, Note_off_c, 0, 52, 100
2, 4877368, Note_on_c, 0, 57, 100
2, 4877569, Note_off_c, 0, 54, 100
2, 4877986, Note_off_c, 0, 56, 100
2, 4878050, Note_off_c, 0, 57, 100
2, 4878168, Note_on_c, 0, 58, 100
2, 4878616, Note_off_c, 0, 58, 100
2, 4878968, Note_on_c, 0, 58, 100
2, 4879753, Note_on_c, 0, 59, 100
2, 4880300, Note_off_c, 0, 58, 100
2, 4880507, Note_on_c, 0, 58, 100
2, 4881220, Note_off_c, 0, 58, 100
2, 4881220, Note_on_c, 0, 58, 100
2, 4881648, Note_off_c, 0, 59, 100
2, 4881884, Note_on_c, 0, 57, 100
2, 4882502, Note_on_c, 0, 56, 100
2, 4882645, Note_off_c, 0, 57, 100
2, 4882762, Note_off_c, 0, 58, 100
2, 4882819, Note_off_c, 0, 56, 100
2, 4883082, Note_on_c, 0, 55, 100
2, 4883880, Note_on_c, 0, 54, 100
2, 4884124, Note_off_c, 0, 55, 100
2, 4884766, Note_on_c, 0, 53, 100
2, 4885293, Note_off_c, 0, 54, 100
2, 4885635, Note_off_c, 0, 53, 100
2, 4885635, Note_on_c, 0, 53, 100
2, 4886466, Note_on_c, 0, 52, 100
2, 4886637, Note_off_c, 0, 53, 100
2, 4886955, Note_off_c, 0, 52, 100
2, 4887242, Note_on_c, 0, 53, 100
2, 4887392, Note_off_c, 0, 53, 100
2, 4887954, Note_on_c, 0, 53, 100
2, 4888339, Note_off_c, 0, 53, 100
2, 4888600, Note_on_c, 0, 54, 100
2, 4888970, Note_off_c, 0, 54, 100
2, 4889188, Note_on_c, 0, 55, 100
2, 4889373, Note_off_c, 0, 55, 100
2, 4889731, Note_on_c, 0, 55, 100
2, 4889936, Note_off_c, 0, 55, 100
2, 4890249, Note_on_c, 0, 56, 100
2, 4890510, Note_off_c, 0, 56, 100
2, 4891152, Note_on_c, 0, 57, 100
2, 4891258, Note_off_c, 0, 57, 100
2, 4892050, Note_on_c, 0, 58, 100
2, 4892534, Note_off_c, 0, 58, 100
2, 4892906, Note_on_c, 0, 58, 100
2, 4893703, Note_off_c, 0, 58, 100
2, 4893703, Note_on_c, 0, 58, 100
2, 4894436, Note_off_c, 0, 58, 100
2, 4894436, Note_on_c, 0, 58, 100
2, 4895104, Note_on_c, 0, 57, 100
2, 4895681, Note_off_c, 0, 58, 100
2, 4895718, Note_on_c, 0, 55, 100
2, 4895875, Note_off_c, 0, 55, 100
2, 4895968, Note_off_c, 0, 57, 100
2, 4896294, Note_on_c, 0, 54, 100
2, 4896852, Note_on_c, 0, 52, 100
2, 4897171, Note_off_c, 0, 54, 100
2, 4897466, Note_on_c, 0, 50, 100
2, 4898324, Note_on_c, 0, 48, 100
2, 4898449, Note_off_c, 0, 52, 100
2, 4899145, Note_on_c, 0, 46, 100
2, 4899419, Note_off_c, 0, 50, 100
2, 4899920, Note_on_c, 0, 44, 100
2, 4900135, Note_off_c, 0, 48, 100
2, 4900197, Note_off_c, 0, 44, 100
2, 4900339, Note_off_c, 0, 46, 100
2, 4900649, Note_on_c, 0, 42, 100
2, 4901337, Note_on_c, 0, 41, 100
2, 4901509, Note_off_c, 0, 42, 100
2, 4901995, Note_off_c, 0, 41, 100
2, 4901995, Note_on_c, 0, 41, 100
2, 4902639, Note_off_c, 0, 41, 100
2, 4902639, Note_on_c, 0, 41, 100
2, 4903284, Note_off_c, 0, 41, 100
2, 4903284, Note_on_c, 0, 41, 100
2, 4903944, Note_on_c, 0, 43, 100
2, 4904246, Note_off_c, 0, 43, 100
2, 4904312, Note_off_c, 0, 41, 100
2, 4904650, Note_on_c, 0, 44, 100
2, 4905172, Note_off_c, 0, 44, 100
2, 4905375, Note_on_c, 0, 47, 100
2, 4906086, Note_on_c, 0, 50, 100
2, 4906258, Note_off_c, 0, 47, 100
2, 4906848, Note_on_c, 0, 52, 100
2, 4907000, Note_off_c, 0, 50, 100
2, 4907538, Note_off_c, 0, 52, 100
2, 4907618, Note_on_c, 0, 55, 100
2, 4907991, Note_off_c, 0, 55, 100
2, 4908382, Note_on_c, 0, 58, 100
2, 4908519, Note_off_c, 0, 58, 100
2, 4909127, Note_on_c, 0, 61, 100
2, 4909227, Note_off_c, 0, 61, 100
2, 4909840, Note_on_c, 0, 63, 100
2, 4910107, Note_off_c, 0, 63, 100
2, 4910517, Note_on_c, 0, 65, 100
2, 4911050, Note_off_c, 0, 65, 100
2, 4911157, Note_on_c, 0, 67, 100
2, 4911887, Note_off_c, 0, 67, 100
2, 4911910, Note_on_c, 0, 67, 100
2, 4912610, Note_off_c, 0, 67, 100
2, 4912754, Note_on_c, 0, 67, 100
2, 4913125, Note_off_c, 0, 67, 100
2, 4913597, Note_on_c, 0, 66, 100
2, 4913995, Note_off_c, 0, 66, 100
2, 4914421, Note_on_c, 0, 65, 100
2, 4915207, Note_on_c, 0, 63, 100
2, 4915476, Note_off_c, 0, 65, 100
2, 4915943, Note_on_c, 0, 61, 100
2, 4916620, Note_on_c, 0, 58, 100
2, 4916767, Note_off_c, 0, 63, 100
2, 4917240, Note_on_c, 0, 55, 100
2, 4917650, Note_off_c, 0, 61, 100
2, 4917812, Note_on_c, 0, 52, 100
2, 4917914, Note_off_c, 0, 55, 100
2, 4918015, Note_off_c, 0, 58, 100
2, 4918268, Note_off_c, 0, 52, 100
2, 4918349, Note_on_c, 0, 50, 100
2, 4919205, Note_on_c, 0, 48, 100
2, 4919687, Note_off_c, 0, 50, 100
2, 4920110, Note_on_c, 0, 46, 100
2, 4920982, Note_off_c, 0, 45, 100
2, 4920982, Note_on_c, 0, 45, 100
2, 4921103, Note_off_c, 0, 48, 100
2, 4921803, Note_on_c, 0, 44, 100
2, 4922078, Note_off_c, 0, 46, 100
2, 4922557, Note_off_c, 0, 44, 100
2, 4922559, Note_on_c, 0, 43, 100
2, 4922884, Note_off_c, 0, 43, 100
2, 4923247, Note_on_c, 0, 44, 100
2, 4923871, Note_off_c, 0, 44, 100
2, 4923871, Note_on_c, 0, 44, 100
2, 4924442, Note_off_c, 0, 45, 100
2, 4924442, Note_on_c, 0, 45, 100
2, 4924979, Note_on_c, 0, 47, 100
2, 4925292, Note_off_c, 0, 44, 100
2, 4925533, Note_on_c, 0, 48, 100
2, 4925984, Note_off_c, 0, 47, 100
2, 4926022, Note_off_c, 0, 48, 100
2, 4926435, Note_on_c, 0, 50, 100
2, 4926589, Note_off_c, 0, 50, 100
2, 4927304, Note_on_c, 0, 50, 100
2, 4927696, Note_off_c, 0, 50, 100
2, 4928125, Note_on_c, 0, 52, 100
2, 4928503, Note_off_c, 0, 52, 100
2, 4928890, Note_on_c, 0, 53, 100
2, 4929083, Note_off_c, 0, 53, 100
2, 4929597, Note_on_c, 0, 54, 100
2, 4929795, Note_off_c, 0, 54, 100
2, 4930254, Note_on_c, 0, 54, 100
2, 4930509, Note_off_c, 0, 54, 100
2, 4930875, Note_on_c, 0, 55, 100
2, 4930983, Note_off_c, 0, 55, 100
2, 4931476, Note_on_c, 0, 54, 100
2, 4931959, Note_off_c, 0, 54, 100
2, 4932076, Note_on_c, 0, 54, 100
2, 4932748, Note_on_c, 0, 53, 100
2, 4932999, Note_off_c, 0, 54, 100
2, 4933544, Note_off_c, 0, 53, 100
2, 4933544, Note_on_c, 0, 53, 100
2, 4934305, Note_on_c, 0, 52, 100
2, 4934780, Note_off_c, 0, 53, 100
2, 4935030, Note_on_c, 0, 51, 100
2, 4935160, Note_off_c, 0, 52, 100
2, 4935180, Note_off_c, 0, 51, 100
2, 4935726, Note_on_c, 0, 51, 100
2, 4936402, Note_off_c, 0, 51, 100
2, 4936402, Note_on_c, 0, 51, 100
2, 4937074, Note_off_c, 0, 51, 100
2, 4937074, Note_on_c, 0, 51, 100
2, 4937765, Note_off_c, 0, 51, 100
2, 4937765, Note_on_c, 0, 51, 100
2, 4938504, Note_on_c, 0, 52, 100
2, 4939215, Note_on_c, 0, 53, 100
2, 4939483, Note_off_c, 0, 53, 100
2, 4939571, Note_off_c, 0, 51, 100
2, 4939691, Note_off_c, 0, 52, 100
2, 4939943, Note_on_c, 0, 55, 100
2, 4940727, Note_on_c, 0, 56, 100
2, 4940811, Note_off_c, 0, 55, 100
2, 4941527, Note_on_c, 0, 58, 100
2, 4942292, Note_off_c, 0, 56, 100
2, 4942326, Note_on_c, 0, 59, 100
2, 4943111, Note_on_c, 0, 61, 100
2, 4943353, Note_off_c, 0, 58, 100
2, 4943865, Note_on_c, 0, 62, 100
2, 4943935, Note_off_c, 0, 59, 100
2, 4944137, Note_off_c, 0, 61, 100
2, 4944162, Note_off_c, 0, 62, 100
2, 4944577, Note_on_c, 0, 62, 100
2, 4945106, Note_off_c, 0, 62, 100
2, 4945241, Note_on_c, 0, 62, 100
2, 4945860, Note_off_c, 0, 62, 100
2, 4945860, Note_on_c, 0, 62, 100
2, 4946440, Note_on_c, 0, 61, 100
2, 4946783, Note_off_c, 0, 62, 100
2, 4947137, Note_off_c, 0, 61, 100
2, 4947242, Note_on_c, 0, 59, 100
2, 4947619, Note_off_c, 0, 59, 100
2, 4948127, Note_on_c, 0, 57, 100
2, 4948265, Note_off_c, 0, 57, 100
2, 4948996, Note_on_c, 0, 55, 100
2, 4949094, Note_off_c, 0, 55, 100
2, 4949825, Note_on_c, 0, 52, 100
2, 4950086, Note_off_c, 0, 52, 100
2, 4950601, Note_on_c, 0, 50, 100
2, 4951126, Note_off_c, 0, 50, 100
2, 4951313, Note_on_c, 0, 48, 100
2, 4951958, Note_off_c, 0, 45, 100
2, 4951958, Note_on_c, 0, 45, 100
2, 4952035, Note_off_c, 0, 48, 100
2, 4952545, Note_on_c, 0, 43, 100
2, 4952909, Note_off_c, 0, 43, 100
2, 4953088, Note_on_c, 0, 41, 100
2, 4953490, Note_off_c, 0, 41, 100
2, 4953607, Note_on_c, 0, 40, 100
2, 4954514, Note_on_c, 0, 39, 100
2, 4954662, Note_off_c, 0, 40, 100
2, 4955413, Note_off_c, 0, 39, 100
2, 4955413, Note_on_c, 0, 39, 100
2, 4956268, Note_on_c, 0, 40, 100
2, 4957065, Note_on_c, 0, 41, 100
2, 4957114, Note_off_c, 0, 39, 100
2, 4957656, Note_off_c, 0, 40, 100
2, 4957730, Note_off_c, 0, 41, 100
2, 4957797, Note_on_c, 0, 43, 100
2, 4958261, Note_off_c, 0, 43, 100
2, 4958464, Note_on_c, 0, 46, 100
2, 4959078, Note_on_c, 0, 49, 100
2, 4959653, Note_on_c, 0, 51, 100
2, 4959808, Note_off_c, 0, 46, 100
2, 4960210, Note_on_c, 0, 54, 100
2, 4960829, Note_on_c, 0, 57, 100
2, 4960979, Note_off_c, 0, 49, 100
2, 4961577, Note_off_c, 0, 57, 100
2, 4961621, Note_off_c, 0, 51, 100
2, 4961687, Note_on_c, 0, 60, 100
2, 4961745, Note_off_c, 0, 54, 100
2, 4962020, Note_off_c, 0, 60, 100
2, 4962507, Note_on_c, 0, 62, 100
2, 4963283, Note_on_c, 0, 64, 100
2, 4963566, Note_off_c, 0, 62, 100
2, 4964011, Note_on_c, 0, 65, 100
2, 4964699, Note_on_c, 0, 66, 100
2, 4964711, Note_off_c, 0, 64, 100
2, 4965357, Note_off_c, 0, 66, 100
2, 4965357, Note_on_c, 0, 66, 100
2, 4965394, Note_off_c, 0, 65, 100
2, 4965845, Note_off_c, 0, 66, 100
2, 4966000, Note_on_c, 0, 65, 100
2, 4966158, Note_off_c, 0, 65, 100
2, 4966644, Note_on_c, 0, 64, 100
2, 4967042, Note_off_c, 0, 64, 100
2, 4967304, Note_on_c, 0, 62, 100
2, 4967690, Note_off_c, 0, 62, 100
2, 4968011, Note_on_c, 0, 60, 100
2, 4968213, Note_off_c, 0, 60, 100
2, 4968737, Note_on_c, 0, 58, 100
2, 4968927, Note_off_c, 0, 58, 100
2, 4969444, Note_on_c, 0, 55, 100
2, 4969694, Note_off_c, 0, 55, 100
2, 4970206, Note_on_c, 0, 53, 100
2, 4970316, Note_off_c, 0, 53, 100
2, 4970976, Note_on_c, 0, 51, 100
2, 4971458, Note_off_c, 0, 51, 100
2, 4971740, Note_on_c, 0, 50, 100
2, 4972484, Note_on_c, 0, 49, 100
2, 4972659, Note_off_c, 0, 50, 100
2, 4973197, Note_on_c, 0, 48, 100
2, 4973710, Note_off_c, 0, 49, 100
2, 4973875, Note_on_c, 0, 47, 100
2, 4974425, Note_off_c, 0, 48, 100
2, 4974516, Note_off_c, 0, 47, 100
2, 4974516, Note_on_c, 0, 47, 100
2, 4974722, Note_off_c, 0, 47, 100
2, 4975271, Note_on_c, 0, 48, 100
2, 4976115, Note_off_c, 0, 48, 100
2, 4976115, Note_on_c, 0, 48, 100
2, 4976957, Note_on_c, 0, 49, 100
2, 4977715, Note_off_c, 0, 48, 100
2, 4977780, Note_on_c, 0, 50, 100
2, 4978565, Note_off_c, 0, 50, 100
2, 4978565, Note_on_c, 0, 50, 100
2, 4978907, Note_off_c, 0, 49, 100
2, 4979300, Note_on_c, 0, 51, 100
2, 4979560, Note_off_c, 0, 51, 100
2, 4979745, Note_off_c, 0, 50, 100
2, 4979978, Note_on_c, 0, 52, 100
2, 4980598, Note_off_c, 0, 52, 100
2, 4980598, Note_on_c, 0, 52, 100
2, 4981169, Note_on_c, 0, 53, 100
2, 4981706, Note_off_c, 0, 52, 100
2, 4981706, Note_on_c, 0, 52, 100
2, 4982568, Note_off_c, 0, 52, 100
2, 4982568, Note_on_c, 0, 52, 100
2, 4982999, Note_off_c, 0, 53, 100
2, 4983472, Note_on_c, 0, 51, 100
2, 4983592, Note_off_c, 0, 52, 100
2, 4983763, Note_off_c, 0, 51, 100
2, 4984344, Note_on_c, 0, 51, 100
2, 4984881, Note_off_c, 0, 51, 100
2, 4985164, Note_on_c, 0, 50, 100
2, 4985919, Note_off_c, 0, 50, 100
2, 4985919, Note_on_c, 0, 50, 100
2, 4986607, Note_on_c, 0, 49, 100
2, 4986850, Note_off_c, 0, 50, 100
2, 4987229, Note_on_c, 0, 48, 100
2, 4987311, Note_off_c, 0, 49, 100
2, 4987610, Note_off_c, 0, 48, 100
2, 4987800, Note_on_c, 0, 48, 100
2, 4987939, Note_off_c, 0, 48, 100
2, 4988337, Note_on_c, 0, 48, 100
2, 4988433, Note_off_c, 0, 48, 100
2, 4988896, Note_on_c, 0, 48, 100
2, 4989152, Note_off_c, 0, 48, 100
2, 4989798, Note_on_c, 0, 49, 100
2, 4990316, Note_off_c, 0, 49, 100
2, 4990667, Note_on_c, 0, 50, 100
2, 4991380, Note_off_c, 0, 50, 100
2, 4991488, Note_on_c, 0, 51, 100
2, 4992172, Note_off_c, 0, 51, 100
2, 4992252, Note_on_c, 0, 53, 100
2, 4992610, Note_off_c, 0, 53, 100
2, 4992959, Note_on_c, 0, 56, 100
2, 4993364, Note_off_c, 0, 56, 100
2, 4993616, Note_on_c, 0, 58, 100
2, 4994235, Note_on_c, 0, 60, 100
2, 4994671, Note_off_c, 0, 58, 100
2, 4994836, Note_on_c, 0, 62, 100
2, 4995435, Note_on_c, 0, 64, 100
2, 4995789, Note_off_c, 0, 60, 100
2, 4996109, Note_on_c, 0, 65, 100
2, 4996531, Note_off_c, 0, 62, 100
2, 4996766, Note_off_c, 0, 65, 100
2, 4996815, Note_off_c, 0, 64, 100
2, 4996906, Note_on_c, 0, 65, 100
2, 4997378, Note_off_c, 0, 65, 100
2, 4997667, Note_on_c, 0, 65, 100
2, 4998393, Note_off_c, 0, 65, 100
2, 4998393, Note_on_c, 0, 65, 100
2, 4999088, Note_on_c, 0, 63, 100
2, 4999765, Note_on_c, 0, 62, 100
2, 5000297, Note_off_c, 0, 65, 100
2, 5000436, Note_on_c, 0, 59, 100
2, 5001056, Note_off_c, 0, 63, 100
2, 5001123, Note_on_c, 0, 56, 100
2, 5001178, Note_off_c, 0, 59, 100
2, 5001297, Note_off_c, 0, 62, 100
2, 5001464, Note_off_c, 0, 56, 100
2, 5001862, Note_on_c, 0, 53, 100
2, 5002574, Note_on_c, 0, 50, 100
2, 5002929, Note_off_c, 0, 53, 100
2, 5003303, Note_on_c, 0, 48, 100
2, 5004010, Note_off_c, 0, 50, 100
2, 5004087, Note_off_c, 0, 45, 100
2, 5004087, Note_on_c, 0, 45, 100
2, 5004691, Note_off_c, 0, 48, 100
2, 5004885, Note_on_c, 0, 43, 100
2, 5005372, Note_off_c, 0, 43, 100
2, 5005684, Note_on_c, 0, 41, 100
2, 5005846, Note_off_c, 0, 41, 100
2, 5006468, Note_on_c, 0, 39, 100
2, 5006873, Note_off_c, 0, 39, 100
2, 5007222, Note_on_c, 0, 39, 100
2, 5007616, Note_off_c, 0, 39, 100
2, 5007934, Note_on_c, 0, 39, 100
2, 5008144, Note_off_c, 0, 39, 100
2, 5008599, Note_on_c, 0, 40, 100
2, 5008782, Note_off_c, 0, 40, 100
2, 5009217, Note_on_c, 0, 41, 100
2, 5009462, Note_off_c, 0, 41, 100
2, 5009798, Note_on_c, 0, 43, 100
2, 5009910, Note_off_c, 0, 43, 100
2, 5010603, Note_off_c, 0, 45, 100
2, 5010603, Note_on_c, 0, 45, 100
2, 5011489, Note_on_c, 0, 48, 100
2, 5012356, Note_on_c, 0, 50, 100
2, 5012403, Note_off_c, 0, 48, 100
2, 5013185, Note_on_c, 0, 53, 100
2, 5013575, Note_off_c, 0, 50, 100
2, 5013960, Note_on_c, 0, 55, 100
2, 5014405, Note_off_c, 0, 53, 100
2, 5014671, Note_on_c, 0, 58, 100
2, 5014798, Note_off_c, 0, 55, 100
2, 5014806, Note_off_c, 0, 58, 100
2, 5015316, Note_on_c, 0, 60, 100
2, 5015903, Note_on_c, 0, 61, 100
2, 5016208, Note_off_c, 0, 60, 100
2, 5016445, Note_on_c, 0, 62, 100
2, 5016964, Note_on_c, 0, 63, 100
2, 5017505, Note_off_c, 0, 61, 100
2, 5017877, Note_off_c, 0, 63, 100
2, 5017877, Note_on_c, 0, 63, 100
2, 5018393, Note_off_c, 0, 62, 100
2, 5018775, Note_on_c, 0, 62, 100
2, 5019027, Note_off_c, 0, 62, 100
2, 5019050, Note_off_c, 0, 63, 100
2, 5019630, Note_on_c, 0, 61, 100
2, 5020426, Note_on_c, 0, 59, 100
2, 5020515, Note_off_c, 0, 61, 100
2, 5021157, Note_on_c, 0, 58, 100
2, 5021825, Note_on_c, 0, 56, 100
2, 5022005, Note_off_c, 0, 59, 100
2, 5022438, Note_on_c, 0, 55, 100
2, 5022992, Note_off_c, 0, 58, 100
2, 5023012, Note_on_c, 0, 53, 100
2, 5023298, Note_off_c, 0, 53, 100
2, 5023436, Note_off_c, 0, 56, 100
2, 5023460, Note_off_c, 0, 55, 100
2, 5023569, Note_on_c, 0, 52, 100
2, 5024113, Note_off_c, 0, 52, 100
2, 5024191, Note_on_c, 0, 51, 100
2, 5025049, Note_off_c, 0, 51, 100
2, 5025049, Note_on_c, 0, 51, 100
2, 5025870, Note_on_c, 0, 50, 100
2, 5025988, Note_off_c, 0, 51, 100
2, 5026580, Note_off_c, 0, 50, 100
2, 5026646, Note_on_c, 0, 51, 100
2, 5027031, Note_off_c, 0, 51, 100
2, 5027374, Note_on_c, 0, 51, 100
2, 5027514, Note_off_c, 0, 51, 100
2, 5028061, Note_on_c, 0, 52, 100
2, 5028160, Note_off_c, 0, 52, 100
2, 5028719, Note_on_c, 0, 52, 100
2, 5028969, Note_off_c, 0, 52, 100
2, 5029362, Note_on_c, 0, 53, 100
2, 5029872, Note_off_c, 0, 53, 100
2, 5030005, Note_on_c, 0, 54, 100
2, 5030664, Note_off_c, 0, 54, 100
2, 5030664, Note_on_c, 0, 54, 100
2, 5031340, Note_off_c, 0, 54, 100
2, 5031371, Note_on_c, 0, 54, 100
2, 5031723, Note_off_c, 0, 54, 100
2, 5032098, Note_on_c, 0, 54, 100
2, 5032507, Note_off_c, 0, 54, 100
2, 5032802, Note_on_c, 0, 54, 100
2, 5033563, Note_on_c, 0, 53, 100
2, 5033857, Note_off_c, 0, 54, 100
2, 5034333, Note_on_c, 0, 52, 100
2, 5035097, Note_on_c, 0, 50, 100
2, 5035113, Note_off_c, 0, 53, 100
2, 5035841, Note_off_c, 0, 50, 100
2, 5035841, Note_on_c, 0, 50, 100
2, 5036022, Note_off_c, 0, 52, 100
2, 5036490, Note_off_c, 0, 50, 100
2, 5036555, Note_on_c, 0, 48, 100
2, 5037035, Note_off_c, 0, 48, 100
2, 5037232, Note_on_c, 0, 47, 100
2, 5037874, Note_on_c, 0, 46, 100
2, 5038588, Note_off_c, 0, 47, 100
2, 5038632, Note_off_c, 0, 45, 100
2, 5038632, Note_on_c, 0, 45, 100
2, 5039475, Note_on_c, 0, 44, 100
2, 5039781, Note_off_c, 0, 46, 100
2, 5040317, Note_off_c, 0, 44, 100
2, 5040317, Note_on_c, 0, 44, 100
2, 5041053, Note_off_c, 0, 44, 100
2, 5041139, Note_on_c, 0, 44, 100
2, 5041488, Note_off_c, 0, 44, 100
2, 5041924, Note_off_c, 0, 45, 100
2, 5041924, Note_on_c, 0, 45, 100
2, 5042658, Note_on_c, 0, 47, 100
2, 5043335, Note_on_c, 0, 49, 100
2, 5043955, Note_on_c, 0, 50, 100
2, 5044101, Note_off_c, 0, 47, 100
2, 5044526, Note_on_c, 0, 53, 100
2, 5044729, Note_off_c, 0, 49, 100
2, 5044967, Note_off_c, 0, 50, 100
2, 5045012, Note_off_c, 0, 53, 100
2, 5045064, Note_on_c, 0, 56, 100
2, 5045230, Note_off_c, 0, 56, 100
2, 5045930, Note_on_c, 0, 58, 100
2, 5046341, Note_off_c, 0, 58, 100
2, 5046834, Note_on_c, 0, 61, 100
2, 5047236, Note_off_c, 0, 61, 100
2, 5047705, Note_on_c, 0, 63, 100
2, 5047924, Note_off_c, 0, 63, 100
2, 5048524, Note_on_c, 0, 65, 100
2, 5048700, Note_off_c, 0, 65, 100
2, 5049279, Note_on_c, 0, 66, 100
2, 5049519, Note_off_c, 0, 66, 100
2, 5049966, Note_on_c, 0, 67, 100
2, 5050080, Note_off_c, 0, 67, 100
2, 5050588, Note_on_c, 0, 67, 100
2, 5051067, Note_off_c, 0, 67, 100
2, 5051158, Note_on_c, 0, 66, 100
2, 5051695, Note_on_c, 0, 65, 100
2, 5052068, Note_off_c, 0, 66, 100
2, 5052258, Note_on_c, 0, 63, 100
2, 5052907, Note_off_c, 0, 65, 100
2, 5053160, Note_on_c, 0, 60, 100
2, 5053469, Note_off_c, 0, 63, 100
2, 5053990, Note_off_c, 0, 60, 100
2, 5054029, Note_on_c, 0, 57, 100
2, 5054157, Note_off_c, 0, 57, 100
2, 5054850, Note_on_c, 0, 54, 100
2, 5055614, Note_on_c, 0, 51, 100
2, 5055746, Note_off_c, 0, 54, 100
2, 5056320, Note_on_c, 0, 49, 100
2, 5056977, Note_on_c, 0, 46, 100
2, 5057218, Note_off_c, 0, 51, 100
2, 5057596, Note_on_c, 0, 44, 100
2, 5058195, Note_on_c, 0, 42, 100
2, 5058266, Note_off_c, 0, 49, 100
2, 5058438, Note_off_c, 0, 42, 100
2, 5058761, Note_off_c, 0, 44, 100
2, 5058769, Note_off_c, 0, 46, 100
2, 5058794, Note_on_c, 0, 41, 100
2, 5059471, Note_on_c, 0, 40, 100
2, 5059687, Note_off_c, 0, 41, 100
2, 5060268, Note_off_c, 0, 40, 100
2, 5060268, Note_on_c, 0, 40, 100
2, 5061030, Note_on_c, 0, 41, 100
2, 5061756, Note_on_c, 0, 42, 100
2, 5062107, Note_off_c, 0, 40, 100
2, 5062451, Note_on_c, 0, 44, 100
2, 5062642, Note_off_c, 0, 41, 100
2, 5062732, Note_off_c, 0, 44, 100
2, 5062776, Note_off_c, 0, 42, 100
2, 5063128, Note_on_c, 0, 46, 100
2, 5063679, Note_off_c, 0, 46, 100
2, 5063799, Note_on_c, 0, 48, 100
2, 5064481, Note_on_c, 0, 50, 100
2, 5064715, Note_off_c, 0, 48, 100
2, 5065221, Note_on_c, 0, 52, 100
2, 5065428, Note_off_c, 0, 50, 100
2, 5065933, Note_on_c, 0, 54, 100
2, 5065938, Note_off_c, 0, 52, 100
2, 5066321, Note_off_c, 0, 54, 100
2, 5066664, Note_on_c, 0, 56, 100
2, 5066804, Note_off_c, 0, 56, 100
2, 5067446, Note_on_c, 0, 57, 100
2, 5067547, Note_off_c, 0, 57, 100
2, 5068244, Note_on_c, 0, 58, 100
2, 5068489, Note_off_c, 0, 58, 100
2, 5069043, Note_on_c, 0, 59, 100
2, 5069546, Note_off_c, 0, 59, 100
2, 5069826, Note_on_c, 0, 59, 100
2, 5070522, Note_off_c, 0, 59, 100
2, 5070579, Note_on_c, 0, 58, 100
2, 5071247, Note_off_c, 0, 58, 100
2, 5071291, Note_on_c, 0, 58, 100
2, 5071637, Note_off_c, 0, 58, 100
2, 5071956, Note_on_c, 0, 57, 100
2, 5072368, Note_off_c, 0, 57, 100
2, 5072574, Note_on_c, 0, 56, 100
2, 5073155, Note_on_c, 0, 55, 100
2, 5073629, Note_off_c, 0, 56, 100
2, 5073965, Note_on_c, 0, 54, 100
2, 5074702, Note_off_c, 0, 55, 100
2, 5074850, Note_on_c, 0, 53, 100
2, 5075648, Note_off_c, 0, 54, 100
2, 5075717, Note_off_c, 0, 53, 100
2, 5075717, Note_on_c, 0, 53, 100
2, 5076357, Note_off_c, 0, 53, 100
2, 5076545, Note_on_c, 0, 52, 100
2, 5077032, Note_off_c, 0, 52, 100
2, 5077319, Note_on_c, 0, 53, 100
2, 5078030, Note_off_c, 0, 53, 100
2, 5078030, Note_on_c, 0, 53, 100
2, 5078674, Note_on_c, 0, 54, 100
2, 5079260, Note_off_c, 0, 54, 100
2, 5079260, Note_on_c, 0, 54, 100
2, 5079802, Note_on_c, 0, 55, 100
2, 5079940, Note_off_c, 0, 53, 100
2, 5080321, Note_on_c, 0, 56, 100
2, 5080531, Note_off_c, 0, 55, 100
2, 5080678, Note_off_c, 0, 56, 100
2, 5080784, Note_off_c, 0, 54, 100
2, 5081240, Note_on_c, 0, 57, 100
2, 5082138, Note_on_c, 0, 58, 100
2, 5082324, Note_off_c, 0, 57, 100
2, 5082992, Note_off_c, 0, 58, 100
2, 5082992, Note_on_c, 0, 58, 100
2, 5083788, Note_off_c, 0, 58, 100
2, 5083788, Note_on_c, 0, 58, 100
2, 5084518, Note_on_c, 0, 57, 100
2, 5084803, Note_off_c, 0, 58, 100
2, 5085004, Note_off_c, 0, 57, 100
2, 5085185, Note_on_c, 0, 57, 100
2, 5085355, Note_off_c, 0, 57, 100
2, 5085797, Note_on_c, 0, 55, 100
2, 5086215, Note_off_c, 0, 55, 100
2, 5086371, Note_on_c, 0, 54, 100
2, 5086782, Note_off_c, 0, 54, 100
2, 5086927, Note_on_c, 0, 52, 100
2, 5087154, Note_off_c, 0, 52, 100
2, 5087553, Note_on_c, 0, 50, 100
2, 5087721, Note_off_c, 0, 50, 100
2, 5088412, Note_on_c, 0, 48, 100
2, 5088647, Note_off_c, 0, 48, 100
2, 5089233, Note_on_c, 0, 46, 100
2, 5089349, Note_off_c, 0, 46, 100
2, 5090008, Note_on_c, 0, 44, 100
2, 5090486, Note_off_c, 0, 44, 100
2, 5090737, Note_on_c, 0, 42, 100
2, 5091424, Note_on_c, 0, 41, 100
2, 5091642, Note_off_c, 0, 42, 100
2, 5092081, Note_off_c, 0, 41, 100
2, 5092081, Note_on_c, 0, 41, 100
2, 5092723, Note_off_c, 0, 41, 100
2, 5092723, Note_on_c, 0, 41, 100
2, 5093366, Note_off_c, 0, 41, 100
2, 5093366, Note_on_c, 0, 41, 100
2, 5093545, Note_off_c, 0, 41, 100
2, 5094024, Note_on_c, 0, 43, 100
2, 5094732, Note_off_c, 0, 45, 100
2, 5094732, Note_on_c, 0, 45, 100
2, 5094925, Note_off_c, 0, 43, 100
2, 5095460, Note_on_c, 0, 47, 100
2, 5096160, Note_on_c, 0, 50, 100
2, 5096921, Note_on_c, 0, 52, 100
2, 5097404, Note_off_c, 0, 47, 100
2, 5097690, Note_on_c, 0, 55, 100
2, 5097925, Note_off_c, 0, 55, 100
2, 5097947, Note_off_c, 0, 50, 100
2, 5098079, Note_off_c, 0, 52, 100
2, 5098454, Note_on_c, 0, 58, 100
2, 5099198, Note_on_c, 0, 61, 100
2, 5099355, Note_off_c, 0, 58, 100
2, 5099912, Note_on_c, 0, 63, 100
2, 5100590, Note_on_c, 0, 65, 100
2, 5100791, Note_off_c, 0, 61, 100
2, 5101233, Note_on_c, 0, 67, 100
2, 5101755, Note_off_c, 0, 63, 100
2, 5101993, Note_off_c, 0, 67, 100
2, 5101993, Note_on_c, 0, 67, 100
2, 5102203, Note_off_c, 0, 65, 100
2, 5102269, Note_off_c, 0, 67, 100
2, 5102835, Note_on_c, 0, 67, 100
2, 5103394, Note_off_c, 0, 67, 100
2, 5103676, Note_on_c, 0, 66, 100
2, 5104498, Note_on_c, 0, 65, 100
2, 5104601, Note_off_c, 0, 66, 100
2, 5105282, Note_on_c, 0, 63, 100
2, 5105453, Note_off_c, 0, 65, 100
2, 5106005, Note_off_c, 0, 63, 100
2, 5106016, Note_on_c, 0, 61, 100
2, 5106408, Note_off_c, 0, 61, 100
2, 5106693, Note_on_c, 0, 58, 100
2, 5106834, Note_off_c, 0, 58, 100
2, 5107312, Note_on_c, 0, 55, 100
2, 5107416, Note_off_c, 0, 55, 100
2, 5107883, Note_on_c, 0, 52, 100
2, 5108122, Note_off_c, 0, 52, 100
2, 5108421, Note_on_c, 0, 50, 100
2, 5108916, Note_off_c, 0, 50, 100
2, 5109292, Note_on_c, 0, 48, 100
2, 5109980, Note_off_c, 0, 48, 100
2, 5110196, Note_on_c, 0, 46, 100
2, 5110856, Note_off_c, 0, 46, 100
2, 5111067, Note_off_c, 0, 45, 100
2, 5111067, Note_on_c, 0, 45, 100
2, 5111885, Note_on_c, 0, 44, 100
2, 5112301, Note_off_c, 0, 44, 100
2, 5112639, Note_on_c, 0, 43, 100
2, 5113325, Note_off_c, 0, 43, 100
2, 5113325, Note_on_c, 0, 43, 100
2, 5113947, Note_on_c, 0, 44, 100
2, 5114516, Note_off_c, 0, 45, 100
2, 5114516, Note_on_c, 0, 45, 100
2, 5114869, Note_off_c, 0, 43, 100
2, 5115052, Note_on_c, 0, 47, 100
2, 5115621, Note_on_c, 0, 48, 100
2, 5115624, Note_off_c, 0, 44, 100
2, 5115684, Note_off_c, 0, 47, 100
2, 5116116, Note_off_c, 0, 48, 100
2, 5116523, Note_on_c, 0, 50, 100
2, 5117392, Note_off_c, 0, 50, 100
2, 5117392, Note_on_c, 0, 50, 100
2, 5118213, Note_on_c, 0, 52, 100
2, 5118976, Note_on_c, 0, 53, 100
2, 5119305, Note_off_c, 0, 50, 100
2, 5119682, Note_on_c, 0, 54, 100
2, 5120180, Note_off_c, 0, 52, 100
2, 5120338, Note_off_c, 0, 54, 100
2, 5120338, Note_on_c, 0, 54, 100
2, 5120497, Note_off_c, 0, 53, 100
2, 5120703, Note_off_c, 0, 54, 100
2, 5120956, Note_on_c, 0, 55, 100
2, 5121555, Note_off_c, 0, 55, 100
2, 5121555, Note_on_c, 0, 55, 100
2, 5122153, Note_on_c, 0, 54, 100
2, 5122833, Note_off_c, 0, 54, 100
2, 5122833, Note_on_c, 0, 54, 100
2, 5123013, Note_off_c, 0, 55, 100
2, 5123630, Note_on_c, 0, 53, 100
2, 5123850, Note_off_c, 0, 54, 100
2, 5124115, Note_off_c, 0, 53, 100
2, 5124392, Note_on_c, 0, 52, 100
2, 5124566, Note_off_c, 0, 52, 100
2, 5125118, Note_on_c, 0, 52, 100
2, 5125543, Note_off_c, 0, 52, 100
2, 5125814, Note_on_c, 0, 51, 100
2, 5126233, Note_off_c, 0, 51, 100
2, 5126490, Note_on_c, 0, 51, 100
2, 5126725, Note_off_c, 0, 51, 100
2, 5127161, Note_on_c, 0, 51, 100
2, 5127322, Note_off_c, 0, 51, 100
2, 5127840, Note_on_c, 0, 52, 100
2, 5128070, Note_off_c, 0, 52, 100
2, 5128580, Note_on_c, 0, 52, 100
2, 5128698, Note_off_c, 0, 52, 100
2, 5129292, Note_on_c, 0, 53, 100
2, 5129768, Note_off_c, 0, 53, 100
2, 5130024, Note_on_c, 0, 55, 100
2, 5130806, Note_on_c, 0, 56, 100
2, 5130925, Note_off_c, 0, 55, 100
2, 5131603, Note_on_c, 0, 58, 100
2, 5132004, Note_off_c, 0, 56, 100
2, 5132401, Note_on_c, 0, 59, 100
2, 5132798, Note_off_c, 0, 58, 100
2, 5133184, Note_on_c, 0, 60, 100
2, 5133214, Note_off_c, 0, 59, 100
2, 5133298, Note_off_c, 0, 60, 100
2, 5133937, Note_on_c, 0, 61, 100
2, 5134648, Note_on_c, 0, 62, 100
2, 5134843, Note_off_c, 0, 61, 100
2, 5135313, Note_off_c, 0, 62, 100
2, 5135313, Note_on_c, 0, 62, 100
2, 5135932, Note_off_c, 0, 62, 100
2, 5135932, Note_on_c, 0, 62, 100
2, 5136513, Note_on_c, 0, 61, 100
2, 5137327, Note_on_c, 0, 59, 100
2, 5137554, Note_off_c, 0, 59, 100
2, 5137664, Note_off_c, 0, 61, 100
2, 5137714, Note_off_c, 0, 62, 100
2, 5138211, Note_on_c, 0, 57, 100
2, 5139077, Note_on_c, 0, 55, 100
2, 5139120, Note_off_c, 0, 57, 100
2, 5139905, Note_on_c, 0, 52, 100
2, 5140676, Note_off_c, 0, 55, 100
2, 5140678, Note_on_c, 0, 50, 100
2, 5141388, Note_on_c, 0, 48, 100
2, 5141752, Note_off_c, 0, 52, 100
2, 5142032, Note_off_c, 0, 45, 100
2, 5142032, Note_on_c, 0, 45, 100
2, 5142292, Note_off_c, 0, 50, 100
2, 5142403, Note_off_c, 0, 48, 100
2, 5142618, Note_on_c, 0, 43, 100
2, 5143160, Note_on_c, 0, 41, 100
2, 5143184, Note_off_c, 0, 43, 100
2, 5143681, Note_on_c, 0, 40, 100
2, 5144093, Note_off_c, 0, 41, 100
2, 5144603, Note_on_c, 0, 39, 100
2, 5144644, Note_off_c, 0, 40, 100
2, 5145333, Note_off_c, 0, 39, 100
2, 5145500, Note_on_c, 0, 39, 100
2, 5145896, Note_off_c, 0, 39, 100
2, 5146354, Note_on_c, 0, 40, 100
2, 5146495, Note_off_c, 0, 40, 100
2, 5147150, Note_on_c, 0, 41, 100
2, 5147257, Note_off_c, 0, 41, 100
2, 5147879, Note_on_c, 0, 43, 100
2, 5148112, Note_off_c, 0, 43, 100
2, 5148545, Note_on_c, 0, 46, 100
2, 5149032, Note_off_c, 0, 46, 100
2, 5149157, Note_on_c, 0, 49, 100
2, 5149730, Note_on_c, 0, 51, 100
2, 5149836, Note_off_c, 0, 49, 100
2, 5150285, Note_on_c, 0, 54, 100
2, 5150383, Note_off_c, 0, 51, 100
2, 5150618, Note_off_c, 0, 54, 100
2, 5150915, Note_on_c, 0, 57, 100
2, 5151334, Note_off_c, 0, 57, 100
2, 5151774, Note_on_c, 0, 60, 100
2, 5152596, Note_on_c, 0, 62, 100
2, 5152829, Note_off_c, 0, 60, 100
2, 5153371, Note_on_c, 0, 64, 100
2, 5154099, Note_on_c, 0, 65, 100
2, 5154137, Note_off_c, 0, 62, 100
2, 5154786, Note_on_c, 0, 66, 100
2, 5155042, Note_off_c, 0, 64, 100
2, 5155409, Note_off_c, 0, 66, 100
2, 5155443, Note_on_c, 0, 66, 100
2, 5155447, Note_off_c, 0, 65, 100
2, 5155946, Note_off_c, 0, 66, 100
2, 5156084, Note_on_c, 0, 65, 100
2, 5156726, Note_on_c, 0, 64, 100
2, 5157384, Note_on_c, 0, 62, 100
2, 5157458, Note_off_c, 0, 65, 100
2, 5158093, Note_on_c, 0, 60, 100
2, 5158642, Note_off_c, 0, 64, 100
2, 5158821, Note_on_c, 0, 58, 100
2, 5159350, Note_off_c, 0, 62, 100
2, 5159521, Note_on_c, 0, 55, 100
2, 5159537, Note_off_c, 0, 58, 100
2, 5159610, Note_off_c, 0, 60, 100
2, 5159894, Note_off_c, 0, 55, 100
2, 5160278, Note_on_c, 0, 53, 100
2, 5161048, Note_on_c, 0, 51, 100
2, 5161379, Note_off_c, 0, 53, 100
2, 5161811, Note_on_c, 0, 50, 100
2, 5162514, Note_off_c, 0, 51, 100
2, 5162556, Note_on_c, 0, 49, 100
2, 5163221, Note_off_c, 0, 50, 100
2, 5163270, Note_on_c, 0, 48, 100
2, 5163576, Note_off_c, 0, 49, 100
2, 5163754, Note_off_c, 0, 48, 100
2, 5163948, Note_on_c, 0, 47, 100
2, 5164126, Note_off_c, 0, 47, 100
2, 5164591, Note_on_c, 0, 47, 100
2, 5165022, Note_off_c, 0, 47, 100
2, 5165354, Note_on_c, 0, 48, 100
2, 5165781, Note_off_c, 0, 48, 100
2, 5166195, Note_on_c, 0, 48, 100
2, 5166439, Note_off_c, 0, 48, 100
2, 5167036, Note_on_c, 0, 49, 100
2, 5167190, Note_off_c, 0, 49, 100
2, 5167857, Note_on_c, 0, 50, 100
2, 5168082, Note_off_c, 0, 50, 100
2, 5168640, Note_on_c, 0, 50, 100
2, 5168760, Note_off_c, 0, 50, 100
2, 5169374, Note_on_c, 0, 51, 100
2, 5169849, Note_off_c, 0, 51, 100
2, 5170050, Note_on_c, 0, 52, 100
2, 5170669, Note_off_c, 0, 52, 100
2, 5170669, Note_on_c, 0, 52, 100
2, 5171240, Note_on_c, 0, 53, 100
2, 5171778, Note_off_c, 0, 52, 100
2, 5171778, Note_on_c, 0, 52, 100
2, 5172427, Note_off_c, 0, 53, 100
2, 5172583, Note_off_c, 0, 52, 100
2, 5172655, Note_on_c, 0, 52, 100
2, 5172762, Note_off_c, 0, 52, 100
2, 5173558, Note_on_c, 0, 51, 100
2, 5174428, Note_off_c, 0, 51, 100
2, 5174428, Note_on_c, 0, 51, 100
2, 5175246, Note_on_c, 0, 50, 100
2, 5175999, Note_off_c, 0, 50, 100
2, 5175999, Note_on_c, 0, 50, 100
2, 5176036, Note_off_c, 0, 51, 100
2, 5176684, Note_on_c, 0, 49, 100
2, 5177305, Note_on_c, 0, 48, 100
2, 5177523, Note_off_c, 0, 48, 100
2, 5177776, Note_off_c, 0, 50, 100
2, 5177827, Note_off_c, 0, 49, 100
2, 5177874, Note_on_c, 0, 48, 100
2, 5178410, Note_off_c, 0, 48, 100
2, 5178410, Note_on_c, 0, 48, 100
2, 5178984, Note_on_c, 0, 49, 100
2, 5179886, Note_off_c, 0, 49, 100
2, 5179886, Note_on_c, 0, 49, 100
2, 5180016, Note_off_c, 0, 48, 100
2, 5180755, Note_on_c, 0, 50, 100
2, 5181501, Note_off_c, 0, 49, 100
2, 5181575, Note_on_c, 0, 51, 100
2, 5181767, Note_off_c, 0, 50, 100
2, 5181840, Note_off_c, 0, 51, 100
2, 5182338, Note_on_c, 0, 53, 100
2, 5182912, Note_off_c, 0, 53, 100
2, 5183044, Note_on_c, 0, 56, 100
2, 5183699, Note_on_c, 0, 58, 100
2, 5183986, Note_off_c, 0, 56, 100
2, 5184317, Note_on_c, 0, 60, 100
2, 5184670, Note_off_c, 0, 58, 100
2, 5184915, Note_on_c, 0, 62, 100
2, 5185053, Note_off_c, 0, 60, 100
2, 5185315, Note_off_c, 0, 62, 100
2, 5185512, Note_on_c, 0, 64, 100
2, 5185654, Note_off_c, 0, 64, 100
2, 5186194, Note_on_c, 0, 65, 100
2, 5186304, Note_off_c, 0, 65, 100
2, 5186993, Note_on_c, 0, 65, 100
2, 5187220, Note_off_c, 0, 65, 100
2, 5187755, Note_on_c, 0, 65, 100
2, 5188234, Note_off_c, 0, 65, 100
2, 5188481, Note_on_c, 0, 65, 100
2, 5189152, Note_off_c, 0, 65, 100
2, 5189177, Note_on_c, 0, 63, 100
2, 5189822, Note_off_c, 0, 63, 100
2, 5189853, Note_on_c, 0, 61, 100
2, 5190180, Note_off_c, 0, 61, 100
2, 5190523, Note_on_c, 0, 59, 100
2, 5190945, Note_off_c, 0, 59, 100
2, 5191202, Note_on_c, 0, 56, 100
2, 5191938, Note_on_c, 0, 53, 100
2, 5192257, Note_off_c, 0, 56, 100
2, 5192651, Note_on_c, 0, 50, 100
2, 5193384, Note_on_c, 0, 48, 100
2, 5193475, Note_off_c, 0, 53, 100
2, 5194165, Note_off_c, 0, 45, 100
2, 5194165, Note_on_c, 0, 45, 100
2, 5194316, Note_off_c, 0, 50, 100
2, 5194724, Note_off_c, 0, 48, 100
2, 5194961, Note_on_c, 0, 43, 100
2, 5195472, Note_off_c, 0, 43, 100
2, 5195759, Note_on_c, 0, 41, 100
2, 5196541, Note_on_c, 0, 39, 100
2, 5197138, Note_off_c, 0, 41, 100
2, 5197294, Note_off_c, 0, 39, 100
2, 5197294, Note_on_c, 0, 39, 100
2, 5198005, Note_off_c, 0, 39, 100
2, 5198005, Note_on_c, 0, 39, 100
2, 5198670, Note_on_c, 0, 40, 100
2, 5199289, Note_on_c, 0, 41, 100
2, 5199380, Note_off_c, 0, 40, 100
2, 5199518, Note_off_c, 0, 39, 100
2, 5199670, Note_off_c, 0, 41, 100
2, 5199871, Note_on_c, 0, 43, 100
2, 5200689, Note_off_c, 0, 45, 100
2, 5200689, Note_on_c, 0, 45, 100
2, 5200981, Note_off_c, 0, 43, 100
2, 5201572, Note_on_c, 0, 48, 100
2, 5202438, Note_on_c, 0, 50, 100
2, 5202987, Note_off_c, 0, 48, 100
2, 5203265, Note_on_c, 0, 53, 100
2, 5203460, Note_off_c, 0, 50, 100
2, 5203748, Note_off_c, 0, 53, 100
2, 5204037, Note_on_c, 0, 56, 100
2, 5204220, Note_off_c, 0, 56, 100
2, 5204746, Note_on_c, 0, 58, 100
2, 5205184, Note_off_c, 0, 58, 100
2, 5205390, Note_on_c, 0, 60, 100
2, 5205825, Note_off_c, 0, 60, 100
2, 5205975, Note_on_c, 0, 61, 100
2, 5206227, Note_off_c, 0, 61, 100
2, 5206517, Note_on_c, 0, 62, 100
2, 5206664, Note_off_c, 0, 62, 100
2, 5207044, Note_on_c, 0, 63, 100
2, 5207264, Note_off_c, 0, 63, 100
2, 5207965, Note_on_c, 0, 63, 100
2, 5208087, Note_off_c, 0, 63, 100
2, 5208863, Note_on_c, 0, 62, 100
2, 5209336, Note_off_c, 0, 62, 100
2, 5209716, Note_on_c, 0, 61, 100
2, 5210511, Note_on_c, 0, 59, 100
2, 5210608, Note_off_c, 0, 61, 100
2, 5211240, Note_on_c, 0, 58, 100
2, 5211695, Note_off_c, 0, 59, 100
2, 5211905, Note_on_c, 0, 56, 100
2, 5212418, Note_off_c, 0, 58, 100
2, 5212516, Note_on_c, 0, 55, 100
2, 5212616, Note_off_c, 0, 55, 100
2, 5212702, Note_off_c, 0, 56, 100
2, 5213089, Note_on_c, 0, 53, 100
2, 5213643, Note_on_c, 0, 52, 100
2, 5214004, Note_off_c, 0, 53, 100
2, 5214278, Note_on_c, 0, 51, 100
2, 5215137, Note_off_c, 0, 51, 100
2, 5215137, Note_on_c, 0, 51, 100
2, 5215252, Note_off_c, 0, 52, 100
2, 5215959, Note_on_c, 0, 50, 100
2, 5216734, Note_off_c, 0, 50, 100
2, 5216734, Note_on_c, 0, 50, 100
2, 5216909, Note_off_c, 0, 51, 100
2, 5217095, Note_off_c, 0, 50, 100
2, 5217462, Note_on_c, 0, 51, 100
2, 5218148, Note_off_c, 0, 51, 100
2, 5218148, Note_on_c, 0, 51, 100
2, 5218804, Note_on_c, 0, 52, 100
2, 5219445, Note_on_c, 0, 53, 100
2, 5219761, Note_off_c, 0, 51, 100
2, 5220087, Note_off_c, 0, 53, 100
2, 5220087, Note_on_c, 0, 53, 100
2, 5220660, Note_off_c, 0, 52, 100
2, 5220743, Note_on_c, 0, 54, 100
2, 5221002, Note_off_c, 0, 54, 100
2, 5221097, Note_off_c, 0, 53, 100
2, 5221454, Note_on_c, 0, 54, 100
2, 5222036, Note_off_c, 0, 54, 100
2, 5222183, Note_on_c, 0, 54, 100
2, 5222883, Note_on_c, 0, 53, 100
2, 5223133, Note_off_c, 0, 54, 100
2, 5223636, Note_off_c, 0, 53, 100
2, 5223636, Note_on_c, 0, 53, 100
2, 5224378, Note_off_c, 0, 53, 100
2, 5224405, Note_on_c, 0, 52, 100
2, 5224808, Note_off_c, 0, 52, 100
2, 5225168, Note_on_c, 0, 50, 100
2, 5225310, Note_off_c, 0, 50, 100
2, 5225913, Note_on_c, 0, 50, 100
2, 5226026, Note_off_c, 0, 50, 100
2, 5226627, Note_on_c, 0, 48, 100
2, 5226848, Note_off_c, 0, 48, 100
2, 5227306, Note_on_c, 0, 47, 100
2, 5227777, Note_off_c, 0, 47, 100
2, 5227949, Note_on_c, 0, 46, 100
2, 5228611, Note_off_c, 0, 46, 100
2, 5228715, Note_off_c, 0, 45, 100
2, 5228715, Note_on_c, 0, 45, 100
2, 5229556, Note_on_c, 0, 44, 100
2, 5229877, Note_off_c, 0, 44, 100
2, 5230395, Note_on_c, 0, 44, 100
2, 5230820, Note_off_c, 0, 44, 100
2, 5231216, Note_on_c, 0, 44, 100
2, 5231999, Note_off_c, 0, 45, 100
2, 5231999, Note_on_c, 0, 45, 100
2, 5232271, Note_off_c, 0, 44, 100
2, 5232732, Note_on_c, 0, 47, 100
2, 5233407, Note_on_c, 0, 49, 100
2, 5234027, Note_on_c, 0, 50, 100
2, 5234391, Note_off_c, 0, 47, 100
2, 5234597, Note_on_c, 0, 53, 100
2, 5234633, Note_off_c, 0, 50, 100
2, 5234739, Note_off_c, 0, 49, 100
2, 5235115, Note_off_c, 0, 53, 100
2, 5235136, Note_on_c, 0, 56, 100
2, 5236017, Note_on_c, 0, 58, 100
2, 5236521, Note_off_c, 0, 56, 100
2, 5236920, Note_on_c, 0, 61, 100
2, 5237789, Note_on_c, 0, 63, 100
2, 5237938, Note_off_c, 0, 58, 100
2, 5238607, Note_on_c, 0, 65, 100
2, 5238885, Note_off_c, 0, 61, 100
2, 5239298, Note_off_c, 0, 63, 100
2, 5239310, Note_off_c, 0, 65, 100
2, 5239359, Note_on_c, 0, 66, 100
2, 5239748, Note_off_c, 0, 66, 100
2, 5240044, Note_on_c, 0, 67, 100
2, 5240664, Note_off_c, 0, 67, 100
2, 5240664, Note_on_c, 0, 67, 100
2, 5241232, Note_on_c, 0, 66, 100
2, 5241768, Note_on_c, 0, 65, 100
2, 5242145, Note_off_c, 0, 67, 100
2, 5242346, Note_on_c, 0, 63, 100
2, 5242652, Note_off_c, 0, 66, 100
2, 5242792, Note_off_c, 0, 65, 100
2, 5242827, Note_off_c, 0, 63, 100
2, 5243249, Note_on_c, 0, 60, 100
2, 5243436, Note_off_c, 0, 60, 100
2, 5244118, Note_on_c, 0, 57, 100
2, 5244563, Note_off_c, 0, 57, 100
2, 5244938, Note_on_c, 0, 54, 100
2, 5245382, Note_off_c, 0, 54, 100
2, 5245701, Note_on_c, 0, 51, 100
2, 5245962, Note_off_c, 0, 51, 100
2, 5246406, Note_on_c, 0, 49, 100
2, 5246545, Note_off_c, 0, 49, 100
2, 5247060, Note_on_c, 0, 46, 100
2, 5247275, Note_off_c, 0, 46, 100
2, 5247677, Note_on_c, 0, 44, 100
2, 5247801, Note_off_c, 0, 44, 100
2, 5248274, Note_on_c, 0, 42, 100
2, 5248746, Note_off_c, 0, 42, 100
2, 5248871, Note_on_c, 0, 41, 100
2, 5249556, Note_on_c, 0, 40, 100
2, 5249758, Note_off_c, 0, 41, 100
2, 5250355, Note_off_c, 0, 40, 100
2, 5250355, Note_on_c, 0, 40, 100
2, 5251118, Note_on_c, 0, 41, 100
2, 5251525, Note_off_c, 0, 40, 100
2, 5251844, Note_on_c, 0, 42, 100
2, 5251907, Note_off_c, 0, 41, 100
2, 5251942, Note_off_c, 0, 42, 100
2, 5252540, Note_on_c, 0, 44, 100
2, 5253216, Note_on_c, 0, 46, 100
2, 5253459, Note_off_c, 0, 44, 100
2, 5253886, Note_on_c, 0, 48, 100
2, 5254564, Note_on_c, 0, 50, 100
2, 5254826, Note_off_c, 0, 46, 100
2, 5255297, Note_on_c, 0, 52, 100
2, 5255822, Note_off_c, 0, 48, 100
2, 5256011, Note_on_c, 0, 54, 100
2, 5256212, Note_off_c, 0, 54, 100
2, 5256331, Note_off_c, 0, 50, 100
2, 5256426, Note_off_c, 0, 52, 100
2, 5256744, Note_on_c, 0, 56, 100
2, 5257524, Note_on_c, 0, 57, 100
2, 5257678, Note_off_c, 0, 56, 100
2, 5258320, Note_on_c, 0, 58, 100
2, 5259117, Note_on_c, 0, 59, 100
2, 5259143, Note_off_c, 0, 57, 100
2, 5259899, Note_off_c, 0, 59, 100
2, 5259899, Note_on_c, 0, 59, 100
2, 5260180, Note_off_c, 0, 58, 100
2, 5260651, Note_on_c, 0, 58, 100
2, 5260905, Note_off_c, 0, 58, 100
2, 5260906, Note_off_c, 0, 59, 100
2, 5261363, Note_on_c, 0, 58, 100
2, 5261952, Note_off_c, 0, 58, 100
2, 5262027, Note_on_c, 0, 57, 100
2, 5262646, Note_on_c, 0, 56, 100
2, 5262986, Note_off_c, 0, 57, 100
2, 5263229, Note_on_c, 0, 55, 100
2, 5263633, Note_off_c, 0, 56, 100
2, 5263977, Note_off_c, 0, 55, 100
2, 5264050, Note_on_c, 0, 54, 100
2, 5264457, Note_off_c, 0, 54, 100
2, 5264933, Note_on_c, 0, 53, 100
2, 5265075, Note_off_c, 0, 53, 100
2, 5265798, Note_on_c, 0, 53, 100
2, 5265914, Note_off_c, 0, 53, 100
2, 5266624, Note_on_c, 0, 52, 100
2, 5266840, Note_off_c, 0, 52, 100
2, 5267396, Note_on_c, 0, 53, 100
2, 5267860, Note_off_c, 0, 53, 100
2, 5268105, Note_on_c, 0, 53, 100
2, 5268748, Note_on_c, 0, 54, 100
2, 5268759, Note_off_c, 0, 53, 100
2, 5269333, Note_off_c, 0, 54, 100
2, 5269333, Note_on_c, 0, 54, 100
2, 5269649, Note_off_c, 0, 54, 100
2, 5269874, Note_on_c, 0, 55, 100
2, 5270302, Note_off_c, 0, 55, 100
2, 5270407, Note_on_c, 0, 56, 100
2, 5271328, Note_on_c, 0, 57, 100
2, 5271462, Note_off_c, 0, 56, 100
2, 5272225, Note_on_c, 0, 58, 100
2, 5272858, Note_off_c, 0, 57, 100
2, 5273078, Note_off_c, 0, 58, 100
2, 5273078, Note_on_c, 0, 58, 100
2, 5273873, Note_off_c, 0, 58, 100
2, 5273873, Note_on_c, 0, 58, 100
2, 5274471, Note_off_c, 0, 58, 100
2, 5274601, Note_on_c, 0, 57, 100
2, 5275127, Note_off_c, 0, 57, 100
2, 5275265, Note_on_c, 0, 56, 100
2, 5275875, Note_on_c, 0, 55, 100
2, 5276447, Note_on_c, 0, 53, 100
2, 5276655, Note_off_c, 0, 56, 100
2, 5277001, Note_on_c, 0, 52, 100
2, 5277640, Note_on_c, 0, 50, 100
2, 5277799, Note_off_c, 0, 55, 100
2, 5278337, Note_off_c, 0, 50, 100
2, 5278411, Note_off_c, 0, 53, 100
2, 5278500, Note_on_c, 0, 48, 100
2, 5278506, Note_off_c, 0, 52, 100
2, 5278897, Note_off_c, 0, 48, 100
2, 5279321, Note_on_c, 0, 46, 100
2, 5280097, Note_on_c, 0, 44, 100
2, 5280448, Note_off_c, 0, 46, 100
2, 5280825, Note_on_c, 0, 42, 100
2, 5281511, Note_on_c, 0, 41, 100
2, 5281585, Note_off_c, 0, 44, 100
2, 5282166, Note_off_c, 0, 41, 100
2, 5282166, Note_on_c, 0, 41, 100
2, 5282250, Note_off_c, 0, 42, 100
2, 5282646, Note_off_c, 0, 41, 100
2, 5282807, Note_on_c, 0, 41, 100
2, 5282998, Note_off_c, 0, 41, 100
2, 5283447, Note_on_c, 0, 41, 100
2, 5283899, Note_off_c, 0, 41, 100
2, 5284103, Note_on_c, 0, 43, 100
2, 5284555, Note_off_c, 0, 43, 100
2, 5284815, Note_off_c, 0, 45, 100
2, 5284815, Note_on_c, 0, 45, 100
2, 5285544, Note_on_c, 0, 47, 100
2, 5285676, Note_off_c, 0, 47, 100
2, 5286245, Note_on_c, 0, 50, 100
2, 5286455, Note_off_c, 0, 50, 100
2, 5286994, Note_on_c, 0, 52, 100
2, 5287119, Note_off_c, 0, 52, 100
2, 5287762, Note_on_c, 0, 55, 100
2, 5288232, Note_off_c, 0, 55, 100
2, 5288525, Note_on_c, 0, 58, 100
2, 5289270, Note_on_c, 0, 61, 100
2, 5289407, Note_off_c, 0, 58, 100
2, 5289985, Note_on_c, 0, 63, 100
2, 5290440, Note_off_c, 0, 61, 100
2, 5290664, Note_on_c, 0, 65, 100
2, 5291146, Note_off_c, 0, 63, 100
2, 5291308, Note_on_c, 0, 67, 100
2, 5291413, Note_off_c, 0, 67, 100
2, 5291444, Note_off_c, 0, 65, 100
2, 5292076, Note_on_c, 0, 67, 100
2, 5292916, Note_off_c, 0, 67, 100
2, 5292916, Note_on_c, 0, 67, 100
2, 5293755, Note_on_c, 0, 66, 100
2, 5294528, Note_off_c, 0, 67, 100
2, 5294574, Note_on_c, 0, 65, 100
2, 5295357, Note_on_c, 0, 63, 100
2, 5295689, Note_off_c, 0, 66, 100
2, 5296089, Note_on_c, 0, 61, 100
2, 5296282, Note_off_c, 0, 61, 100
2, 5296335, Note_off_c, 0, 65, 100
2, 5296478, Note_off_c, 0, 63, 100
2, 5296765, Note_on_c, 0, 58, 100
2, 5297384, Note_on_c, 0, 55, 100
2, 5297707, Note_off_c, 0, 58, 100
2, 5297955, Note_on_c, 0, 52, 100
2, 5298493, Note_on_c, 0, 50, 100
2, 5299010, Note_off_c, 0, 55, 100
2, 5299380, Note_on_c, 0, 48, 100
2, 5299818, Note_off_c, 0, 52, 100
2, 5300110, Note_off_c, 0, 50, 100
2, 5300282, Note_on_c, 0, 46, 100
2, 5300384, Note_off_c, 0, 48, 100
2, 5300530, Note_off_c, 0, 46, 100
2, 5301151, Note_on_c, 0, 44, 100
2, 5301748, Note_off_c, 0, 44, 100
2, 5301967, Note_on_c, 0, 44, 100
2, 5302719, Note_on_c, 0, 43, 100
2, 5302934, Note_off_c, 0, 44, 100
2, 5303403, Note_off_c, 0, 43, 100
2, 5303403, Note_on_c, 0, 43, 100
2, 5304022, Note_on_c, 0, 44, 100
2, 5304158, Note_off_c, 0, 43, 100
2, 5304432, Note_off_c, 0, 44, 100
2, 5304590, Note_off_c, 0, 45, 100
2, 5304590, Note_on_c, 0, 45, 100
2, 5305125, Note_on_c, 0, 46, 100
2, 5305244, Note_off_c, 0, 46, 100
2, 5305709, Note_on_c, 0, 48, 100
2, 5305919, Note_off_c, 0, 48, 100
2, 5306612, Note_on_c, 0, 50, 100
2, 5307068, Note_off_c, 0, 50, 100
2, 5307481, Note_on_c, 0, 50, 100
2, 5308126, Note_off_c, 0, 50, 100
2, 5308300, Note_on_c, 0, 52, 100
2, 5308921, Note_off_c, 0, 52, 100
2, 5309063, Note_on_c, 0, 53, 100
2, 5309373, Note_off_c, 0, 53, 100
2, 5309767, Note_on_c, 0, 54, 100
2, 5310198, Note_off_c, 0, 54, 100
2, 5310421, Note_on_c, 0, 55, 100
2, 5311037, Note_off_c, 0, 55, 100
2, 5311037, Note_on_c, 0, 55, 100
2, 5311634, Note_off_c, 0, 55, 100
2, 5311634, Note_on_c, 0, 55, 100
2, 5312230, Note_on_c, 0, 54, 100
2, 5312918, Note_off_c, 0, 54, 100
2, 5312918, Note_on_c, 0, 54, 100
2, 5313280, Note_off_c, 0, 55, 100
2, 5313546, Note_off_c, 0, 54, 100
2, 5313717, Note_on_c, 0, 53, 100
2, 5314250, Note_off_c, 0, 53, 100
2, 5314480, Note_on_c, 0, 52, 100
2, 5315207, Note_off_c, 0, 52, 100
2, 5315207, Note_on_c, 0, 52, 100
2, 5315903, Note_on_c, 0, 51, 100
2, 5316578, Note_off_c, 0, 51, 100
2, 5316578, Note_on_c, 0, 51, 100
2, 5317133, Note_off_c, 0, 52, 100
2, 5317248, Note_off_c, 0, 51, 100
2, 5317248, Note_on_c, 0, 51, 100
2, 5317926, Note_on_c, 0, 52, 100
2, 5318079, Note_off_c, 0, 51, 100
2, 5318332, Note_off_c, 0, 52, 100
2, 5318655, Note_on_c, 0, 52, 100
2, 5319370, Note_on_c, 0, 53, 100
2, 5319790, Note_off_c, 0, 52, 100
2, 5320104, Note_on_c, 0, 55, 100
2, 5320866, Note_off_c, 0, 53, 100
2, 5320884, Note_on_c, 0, 56, 100
2, 5321535, Note_off_c, 0, 55, 100
2, 5321679, Note_on_c, 0, 58, 100
2, 5321912, Note_off_c, 0, 56, 100
2, 5322158, Note_off_c, 0, 58, 100
2, 5322475, Note_on_c, 0, 59, 100
2, 5322671, Note_off_c, 0, 59, 100
2, 5323257, Note_on_c, 0, 60, 100
2, 5323716, Note_off_c, 0, 60, 100
2, 5324009, Note_on_c, 0, 61, 100
2, 5324469, Note_off_c, 0, 61, 100
2, 5324720, Note_on_c, 0, 62, 100
2, 5324997, Note_off_c, 0, 62, 100
2, 5325385, Note_on_c, 0, 62, 100
2, 5325510, Note_off_c, 0, 62, 100
2, 5326004, Note_on_c, 0, 62, 100
2, 5326210, Note_off_c, 0, 62, 100
2, 5326586, Note_on_c, 0, 61, 100
2, 5326713, Note_off_c, 0, 61, 100
2, 5327412, Note_on_c, 0, 59, 100
2, 5327880, Note_off_c, 0, 59, 100
2, 5328294, Note_on_c, 0, 57, 100
2, 5329158, Note_on_c, 0, 55, 100
2, 5329171, Note_off_c, 0, 57, 100
2, 5329984, Note_on_c, 0, 52, 100
2, 5330320, Note_off_c, 0, 55, 100
2, 5330756, Note_on_c, 0, 50, 100
2, 5331137, Note_off_c, 0, 52, 100
2, 5331463, Note_on_c, 0, 48, 100
2, 5331528, Note_off_c, 0, 50, 100
2, 5331574, Note_off_c, 0, 48, 100
2, 5332106, Note_off_c, 0, 45, 100
2, 5332106, Note_on_c, 0, 45, 100
2, 5332690, Note_on_c, 0, 43, 100
2, 5333231, Note_on_c, 0, 41, 100
2, 5333769, Note_on_c, 0, 40, 100
2, 5334303, Note_off_c, 0, 43, 100
2, 5334691, Note_on_c, 0, 39, 100
2, 5335163, Note_off_c, 0, 41, 100
2, 5335525, Note_off_c, 0, 40, 100
2, 5335588, Note_off_c, 0, 39, 100
2, 5335588, Note_on_c, 0, 39, 100
2, 5335805, Note_off_c, 0, 39, 100
2, 5336440, Note_on_c, 0, 40, 100
2, 5337234, Note_on_c, 0, 41, 100
2, 5337390, Note_off_c, 0, 40, 100
2, 5337962, Note_on_c, 0, 43, 100
2, 5338626, Note_on_c, 0, 46, 100
2, 5338866, Note_off_c, 0, 41, 100
2, 5339235, Note_on_c, 0, 49, 100
2, 5339806, Note_on_c, 0, 51, 100
2, 5339829, Note_off_c, 0, 43, 100
2, 5340048, Note_off_c, 0, 51, 100
2, 5340237, Note_off_c, 0, 49, 100
2, 5340244, Note_off_c, 0, 46, 100
2, 5340360, Note_on_c, 0, 54, 100
2, 5340965, Note_off_c, 0, 54, 100
2, 5341002, Note_on_c, 0, 57, 100
2, 5341862, Note_on_c, 0, 60, 100
2, 5341978, Note_off_c, 0, 57, 100
2, 5342684, Note_on_c, 0, 62, 100
2, 5342865, Note_off_c, 0, 60, 100
2, 5343445, Note_off_c, 0, 62, 100
2, 5343460, Note_on_c, 0, 64, 100
2, 5343874, Note_off_c, 0, 64, 100
2, 5344187, Note_on_c, 0, 65, 100
2, 5344329, Note_off_c, 0, 65, 100
2, 5344873, Note_on_c, 0, 66, 100
2, 5344995, Note_off_c, 0, 66, 100
2, 5345528, Note_on_c, 0, 66, 100
2, 5345732, Note_off_c, 0, 66, 100
2, 5346168, Note_on_c, 0, 65, 100
2, 5346616, Note_off_c, 0, 65, 100
2, 5346808, Note_on_c, 0, 64, 100
2, 5347445, Note_off_c, 0, 64, 100
2, 5347463, Note_on_c, 0, 62, 100
2, 5348076, Note_off_c, 0, 62, 100
2, 5348176, Note_on_c, 0, 60, 100
2, 5348480, Note_off_c, 0, 60, 100
2, 5348906, Note_on_c, 0, 58, 100
2, 5349340, Note_off_c, 0, 58, 100
2, 5349607, Note_on_c, 0, 55, 100
2, 5350351, Note_on_c, 0, 53, 100
2, 5350661, Note_off_c, 0, 55, 100
2, 5351119, Note_on_c, 0, 51, 100
2, 5351874, Note_off_c, 0, 53, 100
2, 5351883, Note_on_c, 0, 50, 100
2, 5352627, Note_on_c, 0, 49, 100
2, 5352759, Note_off_c, 0, 51, 100
2, 5353191, Note_off_c, 0, 50, 100
2, 5353208, Note_off_c, 0, 49, 100
2, 5353342, Note_on_c, 0, 48, 100
2, 5353883, Note_off_c, 0, 48, 100
2, 5354022, Note_on_c, 0, 47, 100
2, 5354666, Note_off_c, 0, 47, 100
2, 5354666, Note_on_c, 0, 47, 100
2, 5355437, Note_off_c, 0, 47, 100
2, 5355437, Note_on_c, 0, 47, 100
2, 5356276, Note_on_c, 0, 48, 100
2, 5357114, Note_on_c, 0, 49, 100
2, 5357400, Note_off_c, 0, 47, 100
2, 5357773, Note_off_c, 0, 48, 100
2, 5357797, Note_off_c, 0, 49, 100
2, 5357933, Note_on_c, 0, 50, 100
2, 5358347, Note_off_c, 0, 50, 100
2, 5358715, Note_on_c, 0, 50, 100
2, 5359447, Note_on_c, 0, 51, 100
2, 5359858, Note_off_c, 0, 50, 100
2, 5360122, Note_on_c, 0, 52, 100
2, 5360741, Note_off_c, 0, 52, 100
2, 5360741, Note_on_c, 0, 52, 100
2, 5360950, Note_off_c, 0, 51, 100
2, 5361312, Note_on_c, 0, 53, 100
2, 5361771, Note_off_c, 0, 52, 100
2, 5361789, Note_off_c, 0, 53, 100
2, 5361850, Note_on_c, 0, 52, 100
2, 5362050, Note_off_c, 0, 52, 100
2, 5362742, Note_on_c, 0, 52, 100
2, 5363208, Note_off_c, 0, 52, 100
2, 5363644, Note_on_c, 0, 51, 100
2, 5364112, Note_off_c, 0, 51, 100
2, 5364512, Note_on_c, 0, 51, 100
2, 5364798, Note_off_c, 0, 51, 100
2, 5365328, Note_on_c, 0, 50, 100
2, 5365446, Note_off_c, 0, 50, 100
2, 5366079, Note_on_c, 0, 50, 100
2, 5366280, Note_off_c, 0, 50, 100
2, 5366762, Note_on_c, 0, 49, 100
2, 5366890, Note_off_c, 0, 49, 100
2, 5367381, Note_on_c, 0, 49, 100
2, 5367847, Note_off_c, 0, 49, 100
2, 5367948, Note_on_c, 0, 48, 100
2, 5368483, Note_off_c, 0, 48, 100
2, 5368483, Note_on_c, 0, 48, 100
2, 5369072, Note_on_c, 0, 49, 100
2, 5369638, Note_off_c, 0, 48, 100
2, 5369974, Note_on_c, 0, 50, 100
2, 5370217, Note_off_c, 0, 49, 100
2, 5370738, Note_off_c, 0, 50, 100
2, 5370843, Note_on_c, 0, 50, 100
2, 5370961, Note_off_c, 0, 50, 100
2, 5371663, Note_on_c, 0, 52, 100
2, 5372425, Note_on_c, 0, 54, 100
2, 5372595, Note_off_c, 0, 52, 100
2, 5373129, Note_on_c, 0, 56, 100
2, 5373782, Note_on_c, 0, 58, 100
2, 5374039, Note_off_c, 0, 54, 100
2, 5374398, Note_on_c, 0, 60, 100
2, 5374994, Note_on_c, 0, 62, 100
2, 5375058, Note_off_c, 0, 56, 100
2, 5375170, Note_off_c, 0, 62, 100
2, 5375504, Note_off_c, 0, 60, 100
2, 5375533, Note_off_c, 0, 58, 100
2, 5375589, Note_on_c, 0, 63, 100
2, 5376279, Note_on_c, 0, 65, 100
2, 5376547, Note_off_c, 0, 63, 100
2, 5377079, Note_off_c, 0, 65, 100
2, 5377079, Note_on_c, 0, 65, 100
2, 5377843, Note_off_c, 0, 65, 100
2, 5377843, Note_on_c, 0, 65, 100
2, 5378569, Note_on_c, 0, 64, 100
2, 5379265, Note_on_c, 0, 63, 100
2, 5379461, Note_off_c, 0, 65, 100
2, 5379502, Note_off_c, 0, 63, 100
2, 5379568, Note_off_c, 0, 64, 100
2, 5379941, Note_on_c, 0, 61, 100
2, 5380553, Note_off_c, 0, 61, 100
2, 5380611, Note_on_c, 0, 59, 100
2, 5381288, Note_on_c, 0, 56, 100
2, 5381595, Note_off_c, 0, 59, 100
2, 5382014, Note_on_c, 0, 53, 100
2, 5382299, Note_off_c, 0, 56, 100
2, 5382729, Note_on_c, 0, 50, 100
2, 5382781, Note_off_c, 0, 53, 100
2, 5383146, Note_off_c, 0, 50, 100
2, 5383464, Note_on_c, 0, 48, 100
2, 5383606, Note_off_c, 0, 48, 100
2, 5384243, Note_off_c, 0, 45, 100
2, 5384243, Note_on_c, 0, 45, 100
2, 5385038, Note_on_c, 0, 43, 100
2, 5385235, Note_off_c, 0, 43, 100
2, 5385833, Note_on_c, 0, 41, 100
2, 5386273, Note_off_c, 0, 41, 100
2, 5386614, Note_on_c, 0, 39, 100
2, 5387242, Note_off_c, 0, 39, 100
2, 5387366, Note_on_c, 0, 39, 100
2, 5387972, Note_off_c, 0, 39, 100
2, 5388077, Note_on_c, 0, 39, 100
2, 5388375, Note_off_c, 0, 39, 100
2, 5388742, Note_on_c, 0, 40, 100
2, 5389179, Note_off_c, 0, 40, 100
2, 5389361, Note_on_c, 0, 41, 100
2, 5389944, Note_on_c, 0, 43, 100
2, 5390415, Note_off_c, 0, 41, 100
2, 5390774, Note_off_c, 0, 45, 100
2, 5390774, Note_on_c, 0, 45, 100
2, 5391463, Note_off_c, 0, 43, 100
2, 5391656, Note_on_c, 0, 48, 100
2, 5392519, Note_on_c, 0, 50, 100
2, 5392956, Note_off_c, 0, 48, 100
2, 5393091, Note_off_c, 0, 50, 100
2, 5393344, Note_on_c, 0, 53, 100
2, 5393892, Note_off_c, 0, 53, 100
2, 5394115, Note_on_c, 0, 56, 100
2, 5394822, Note_on_c, 0, 58, 100
2, 5395464, Note_on_c, 0, 60, 100
2, 5395522, Note_off_c, 0, 56, 100
2, 5396048, Note_on_c, 0, 62, 100
2, 5396589, Note_on_c, 0, 63, 100
2, 5396753, Note_off_c, 0, 58, 100
2, 5397132, Note_off_c, 0, 63, 100
2, 5397132, Note_on_c, 0, 63, 100
2, 5397426, Note_off_c, 0, 60, 100
2, 5397541, Note_off_c, 0, 62, 100
2, 5397554, Note_off_c, 0, 63, 100
2, 5398053, Note_on_c, 0, 63, 100
2, 5398950, Note_on_c, 0, 62, 100
2, 5399205, Note_off_c, 0, 63, 100
2, 5399802, Note_on_c, 0, 61, 100
2, 5400460, Note_off_c, 0, 62, 100
2, 5400595, Note_on_c, 0, 60, 100
2, 5401243, Note_off_c, 0, 61, 100
2, 5401323, Note_on_c, 0, 58, 100
2, 5401627, Note_off_c, 0, 60, 100
2, 5401799, Note_off_c, 0, 58, 100
2, 5401986, Note_on_c, 0, 56, 100
2, 5402191, Note_off_c, 0, 56, 100
2, 5402594, Note_on_c, 0, 55, 100
2, 5403067, Note_off_c, 0, 55, 100
2, 5403165, Note_on_c, 0, 53, 100
2, 5403642, Note_off_c, 0, 53, 100
2, 5403718, Note_on_c, 0, 52, 100
2, 5404012, Note_off_c, 0, 52, 100
2, 5404365, Note_on_c, 0, 51, 100
2, 5404476, Note_off_c, 0, 51, 100
2, 5405225, Note_on_c, 0, 50, 100
2, 5405421, Note_off_c, 0, 50, 100
2, 5406047, Note_on_c, 0, 50, 100
2, 5406177, Note_off_c, 0, 50, 100
2, 5406822, Note_on_c, 0, 50, 100
2, 5407286, Note_off_c, 0, 50, 100
2, 5407550, Note_on_c, 0, 51, 100
2, 5408235, Note_off_c, 0, 51, 100
2, 5408235, Note_on_c, 0, 51, 100
2, 5408890, Note_on_c, 0, 52, 100
2, 5409383, Note_off_c, 0, 51, 100
2, 5409529, Note_on_c, 0, 53, 100
2, 5410026, Note_off_c, 0, 52, 100
2, 5410168, Note_off_c, 0, 53, 100
2, 5410168, Note_on_c, 0, 53, 100
2, 5410293, Note_off_c, 0, 53, 100
2, 5410823, Note_on_c, 0, 54, 100
2, 5411537, Note_off_c, 0, 54, 100
2, 5411537, Note_on_c, 0, 54, 100
2, 5412267, Note_off_c, 0, 54, 100
2, 5412267, Note_on_c, 0, 54, 100
2, 5412969, Note_on_c, 0, 53, 100
2, 5413709, Note_off_c, 0, 53, 100
2, 5413709, Note_on_c, 0, 53, 100
2, 5414194, Note_off_c, 0, 54, 100
2, 5414477, Note_on_c, 0, 52, 100
2, 5414644, Note_off_c, 0, 52, 100
2, 5414808, Note_off_c, 0, 53, 100
2, 5415240, Note_on_c, 0, 50, 100
2, 5415984, Note_off_c, 0, 50, 100
2, 5415984, Note_on_c, 0, 50, 100
2, 5416700, Note_on_c, 0, 48, 100
2, 5417380, Note_on_c, 0, 47, 100
2, 5417629, Note_off_c, 0, 50, 100
2, 5418025, Note_on_c, 0, 46, 100
2, 5418575, Note_off_c, 0, 48, 100
2, 5418798, Note_off_c, 0, 45, 100
2, 5418798, Note_on_c, 0, 45, 100
2, 5418999, Note_off_c, 0, 47, 100
2, 5419021, Note_off_c, 0, 46, 100
2, 5419636, Note_on_c, 0, 44, 100
2, 5420256, Note_off_c, 0, 44, 100
2, 5420474, Note_on_c, 0, 44, 100
2, 5421292, Note_off_c, 0, 45, 100
2, 5421292, Note_on_c, 0, 45, 100
2, 5421467, Note_off_c, 0, 44, 100
2, 5422073, Note_on_c, 0, 46, 100
2, 5422805, Note_on_c, 0, 47, 100
2, 5422846, Note_off_c, 0, 46, 100
2, 5423225, Note_off_c, 0, 47, 100
2, 5423480, Note_on_c, 0, 49, 100
2, 5423622, Note_off_c, 0, 49, 100
2, 5424098, Note_on_c, 0, 50, 100
2, 5424227, Note_off_c, 0, 50, 100
2, 5424669, Note_on_c, 0, 53, 100
2, 5424860, Note_off_c, 0, 53, 100
2, 5425208, Note_on_c, 0, 56, 100
2, 5425640, Note_off_c, 0, 56, 100
2, 5426104, Note_on_c, 0, 59, 100
2, 5426724, Note_off_c, 0, 59, 100
2, 5427006, Note_on_c, 0, 61, 100
2, 5427604, Note_off_c, 0, 61, 100
2, 5427873, Note_on_c, 0, 63, 100
2, 5428165, Note_off_c, 0, 63, 100
2, 5428688, Note_on_c, 0, 65, 100
2, 5429128, Note_off_c, 0, 65, 100
2, 5429439, Note_on_c, 0, 66, 100
2, 5430121, Note_on_c, 0, 67, 100
2, 5430492, Note_off_c, 0, 66, 100
2, 5430740, Note_off_c, 0, 67, 100
2, 5430740, Note_on_c, 0, 67, 100
2, 5431306, Note_on_c, 0, 66, 100
2, 5431840, Note_on_c, 0, 65, 100
2, 5432367, Note_off_c, 0, 67, 100
2, 5432404, Note_off_c, 0, 65, 100
2, 5432435, Note_on_c, 0, 63, 100
2, 5432598, Note_off_c, 0, 66, 100
2, 5432991, Note_off_c, 0, 63, 100
2, 5433337, Note_on_c, 0, 60, 100
2, 5434206, Note_on_c, 0, 57, 100
2, 5434749, Note_off_c, 0, 60, 100
2, 5435025, Note_on_c, 0, 54, 100
2, 5435787, Note_on_c, 0, 51, 100
2, 5436140, Note_off_c, 0, 57, 100
2, 5436490, Note_on_c, 0, 49, 100
2, 5436985, Note_off_c, 0, 54, 100
2, 5437143, Note_on_c, 0, 46, 100
2, 5437160, Note_off_c, 0, 49, 100
2, 5437275, Note_off_c, 0, 51, 100
2, 5437573, Note_off_c, 0, 46, 100
2, 5437758, Note_on_c, 0, 44, 100
2, 5438353, Note_on_c, 0, 42, 100
2, 5438918, Note_off_c, 0, 44, 100
2, 5438948, Note_on_c, 0, 41, 100
2, 5439641, Note_on_c, 0, 40, 100
2, 5439870, Note_off_c, 0, 42, 100
2, 5440393, Note_off_c, 0, 41, 100
2, 5440441, Note_off_c, 0, 40, 100
2, 5440441, Note_on_c, 0, 40, 100
2, 5440915, Note_off_c, 0, 40, 100
2, 5441205, Note_on_c, 0, 41, 100
2, 5441415, Note_off_c, 0, 41, 100
2, 5441932, Note_on_c, 0, 42, 100
2, 5442412, Note_off_c, 0, 42, 100
2, 5442628, Note_on_c, 0, 44, 100
2, 5443113, Note_off_c, 0, 44, 100
2, 5443304, Note_on_c, 0, 46, 100
2, 5443606, Note_off_c, 0, 46, 100
2, 5443973, Note_on_c, 0, 48, 100
2, 5444077, Note_off_c, 0, 48, 100
2, 5444650, Note_on_c, 0, 50, 100
2, 5444842, Note_off_c, 0, 50, 100
2, 5445373, Note_on_c, 0, 52, 100
2, 5445504, Note_off_c, 0, 52, 100
2, 5446089, Note_on_c, 0, 54, 100
2, 5446551, Note_off_c, 0, 54, 100
2, 5446824, Note_on_c, 0, 56, 100
2, 5447602, Note_on_c, 0, 57, 100
2, 5447686, Note_off_c, 0, 56, 100
2, 5448396, Note_on_c, 0, 58, 100
2, 5448743, Note_off_c, 0, 57, 100
2, 5449191, Note_on_c, 0, 59, 100
2, 5449524, Note_off_c, 0, 58, 100
2, 5449938, Note_off_c, 0, 59, 100
2, 5449972, Note_on_c, 0, 59, 100
2, 5450103, Note_off_c, 0, 59, 100
2, 5450723, Note_on_c, 0, 59, 100
2, 5451434, Note_on_c, 0, 58, 100
2, 5451663, Note_off_c, 0, 59, 100
2, 5452099, Note_on_c, 0, 57, 100
2, 5452719, Note_on_c, 0, 56, 100
2, 5453049, Note_off_c, 0, 58, 100
2, 5453302, Note_on_c, 0, 55, 100
2, 5454023, Note_off_c, 0, 57, 100
2, 5454136, Note_on_c, 0, 54, 100
2, 5454295, Note_off_c, 0, 54, 100
2, 5454393, Note_off_c, 0, 55, 100
2, 5454459, Note_off_c, 0, 56, 100
2, 5455017, Note_on_c, 0, 53, 100
2, 5455879, Note_off_c, 0, 53, 100
2, 5455879, Note_on_c, 0, 53, 100
2, 5456703, Note_on_c, 0, 52, 100
2, 5457474, Note_off_c, 0, 53, 100
2, 5457474, Note_on_c, 0, 53, 100
2, 5458180, Note_off_c, 0, 53, 100
2, 5458180, Note_on_c, 0, 53, 100
2, 5458581, Note_off_c, 0, 52, 100
2, 5458822, Note_off_c, 0, 53, 100
2, 5458822, Note_on_c, 0, 53, 100
2, 5459173, Note_off_c, 0, 53, 100
2, 5459405, Note_on_c, 0, 54, 100
2, 5459946, Note_on_c, 0, 55, 100
2, 5460033, Note_off_c, 0, 54, 100
2, 5460495, Note_on_c, 0, 56, 100
2, 5460947, Note_off_c, 0, 55, 100
2, 5461416, Note_on_c, 0, 57, 100
2, 5461522, Note_off_c, 0, 56, 100
2, 5462195, Note_off_c, 0, 57, 100
2, 5462313, Note_on_c, 0, 57, 100
2, 5462736, Note_off_c, 0, 57, 100
2, 5463164, Note_on_c, 0, 58, 100
2, 5463306, Note_off_c, 0, 58, 100
2, 5463957, Note_on_c, 0, 58, 100
2, 5464090, Note_off_c, 0, 58, 100
2, 5464683, Note_on_c, 0, 57, 100
2, 5464868, Note_off_c, 0, 57, 100
2, 5465346, Note_on_c, 0, 56, 100
2, 5465770, Note_off_c, 0, 56, 100
2, 5465954, Note_on_c, 0, 55, 100
2, 5466524, Note_on_c, 0, 53, 100
2, 5466565, Note_off_c, 0, 55, 100
2, 5467076, Note_on_c, 0, 51, 100
2, 5467114, Note_off_c, 0, 53, 100
2, 5467363, Note_off_c, 0, 51, 100
2, 5467727, Note_on_c, 0, 50, 100
2, 5468169, Note_off_c, 0, 50, 100
2, 5468588, Note_on_c, 0, 48, 100
2, 5469410, Note_on_c, 0, 46, 100
2, 5469640, Note_off_c, 0, 48, 100
2, 5470185, Note_on_c, 0, 44, 100
2, 5470913, Note_on_c, 0, 43, 100
2, 5470921, Note_off_c, 0, 46, 100
2, 5471597, Note_on_c, 0, 41, 100
2, 5471805, Note_off_c, 0, 44, 100
2, 5472152, Note_off_c, 0, 41, 100
2, 5472197, Note_off_c, 0, 43, 100
2, 5472252, Note_on_c, 0, 41, 100
2, 5472815, Note_off_c, 0, 41, 100
2, 5472890, Note_on_c, 0, 41, 100
2, 5473529, Note_on_c, 0, 42, 100
2, 5474183, Note_on_c, 0, 43, 100
2, 5474307, Note_off_c, 0, 41, 100
2, 5474897, Note_off_c, 0, 45, 100
2, 5474897, Note_on_c, 0, 45, 100
2, 5475465, Note_off_c, 0, 42, 100
2, 5475629, Note_on_c, 0, 47, 100
2, 5476142, Note_off_c, 0, 43, 100
2, 5476292, Note_off_c, 0, 47, 100
2, 5476331, Note_on_c, 0, 50, 100
2, 5476770, Note_off_c, 0, 50, 100
2, 5477066, Note_on_c, 0, 52, 100
2, 5477834, Note_on_c, 0, 55, 100
2, 5478235, Note_off_c, 0, 52, 100
2, 5478597, Note_on_c, 0, 58, 100
2, 5479342, Note_on_c, 0, 61, 100
2, 5479359, Note_off_c, 0, 55, 100
2, 5480047, Note_off_c, 0, 58, 100
2, 5480057, Note_on_c, 0, 64, 100
2, 5480378, Note_off_c, 0, 61, 100
2, 5480530, Note_off_c, 0, 64, 100
2, 5480738, Note_on_c, 0, 65, 100
2, 5480952, Note_off_c, 0, 65, 100
2, 5481383, Note_on_c, 0, 67, 100
2, 5481870, Note_off_c, 0, 67, 100
2, 5482158, Note_on_c, 0, 67, 100
2, 5482652, Note_off_c, 0, 67, 100
2, 5482997, Note_on_c, 0, 67, 100
2, 5483308, Note_off_c, 0, 67, 100
2, 5483833, Note_on_c, 0, 66, 100
2, 5483930, Note_off_c, 0, 66, 100
2, 5484651, Note_on_c, 0, 65, 100
2, 5484839, Note_off_c, 0, 65, 100
2, 5485432, Note_on_c, 0, 63, 100
2, 5485564, Note_off_c, 0, 63, 100
2, 5486163, Note_on_c, 0, 61, 100
2, 5486623, Note_off_c, 0, 61, 100
2, 5486837, Note_on_c, 0, 58, 100
2, 5487455, Note_on_c, 0, 55, 100
2, 5487694, Note_off_c, 0, 58, 100
2, 5488026, Note_on_c, 0, 52, 100
2, 5488565, Note_on_c, 0, 50, 100
2, 5488588, Note_off_c, 0, 55, 100
2, 5489145, Note_off_c, 0, 52, 100
2, 5489304, Note_off_c, 0, 50, 100
2, 5489466, Note_on_c, 0, 48, 100
2, 5489604, Note_off_c, 0, 48, 100
2, 5490367, Note_on_c, 0, 46, 100
2, 5491234, Note_on_c, 0, 44, 100
2, 5491311, Note_off_c, 0, 46, 100
2, 5492049, Note_on_c, 0, 43, 100
2, 5492799, Note_off_c, 0, 43, 100
2, 5492799, Note_on_c, 0, 43, 100
2, 5492850, Note_off_c, 0, 44, 100
2, 5493481, Note_off_c, 0, 43, 100
2, 5493481, Note_on_c, 0, 43, 100
2, 5494098, Note_on_c, 0, 44, 100
2, 5494248, Note_off_c, 0, 44, 100
2, 5494565, Note_off_c, 0, 43, 100
2, 5494664, Note_off_c, 0, 45, 100
2, 5494664, Note_on_c, 0, 45, 100
2, 5495198, Note_on_c, 0, 46, 100
2, 5495797, Note_on_c, 0, 48, 100
2, 5496700, Note_on_c, 0, 50, 100
2, 5496856, Note_off_c, 0, 46, 100
2, 5497569, Note_off_c, 0, 50, 100
2, 5497569, Note_on_c, 0, 50, 100
2, 5497679, Note_off_c, 0, 48, 100
2, 5498388, Note_on_c, 0, 52, 100
2, 5498559, Note_off_c, 0, 50, 100
2, 5498607, Note_off_c, 0, 52, 100
2, 5499149, Note_on_c, 0, 53, 100
2, 5499785, Note_off_c, 0, 53, 100
2, 5499852, Note_on_c, 0, 54, 100
2, 5500504, Note_on_c, 0, 55, 100
2, 5500862, Note_off_c, 0, 54, 100
2, 5501118, Note_off_c, 0, 55, 100
2, 5501118, Note_on_c, 0, 55, 100
2, 5501713, Note_off_c, 0, 55, 100
2, 5501713, Note_on_c, 0, 55, 100
2, 5502139, Note_off_c, 0, 55, 100
2, 5502306, Note_on_c, 0, 54, 100
2, 5502448, Note_off_c, 0, 54, 100
2, 5503003, Note_on_c, 0, 54, 100
2, 5503139, Note_off_c, 0, 54, 100
2, 5503804, Note_on_c, 0, 53, 100
2, 5503983, Note_off_c, 0, 53, 100
2, 5504568, Note_on_c, 0, 52, 100
2, 5504984, Note_off_c, 0, 52, 100
2, 5505295, Note_on_c, 0, 52, 100
2, 5505898, Note_off_c, 0, 52, 100
2, 5505991, Note_on_c, 0, 51, 100
2, 5506574, Note_off_c, 0, 51, 100
2, 5506666, Note_on_c, 0, 51, 100
2, 5506947, Note_off_c, 0, 51, 100
2, 5507335, Note_on_c, 0, 51, 100
2, 5507780, Note_off_c, 0, 51, 100
2, 5508012, Note_on_c, 0, 52, 100
2, 5508731, Note_off_c, 0, 52, 100
2, 5508731, Note_on_c, 0, 52, 100
2, 5509448, Note_on_c, 0, 53, 100
2, 5510184, Note_on_c, 0, 55, 100
2, 5510238, Note_off_c, 0, 52, 100
2, 5510962, Note_on_c, 0, 56, 100
2, 5511062, Note_off_c, 0, 53, 100
2, 5511460, Note_off_c, 0, 55, 100
2, 5511509, Note_off_c, 0, 56, 100
2, 5511755, Note_on_c, 0, 58, 100
2, 5512326, Note_off_c, 0, 58, 100
2, 5512549, Note_on_c, 0, 59, 100
2, 5513329, Note_on_c, 0, 60, 100
2, 5513971, Note_off_c, 0, 59, 100
2, 5514081, Note_on_c, 0, 61, 100
2, 5514791, Note_on_c, 0, 62, 100
2, 5515267, Note_off_c, 0, 60, 100
2, 5515456, Note_off_c, 0, 62, 100
2, 5515456, Note_on_c, 0, 62, 100
2, 5516039, Note_off_c, 0, 61, 100
2, 5516076, Note_on_c, 0, 61, 100
2, 5516271, Note_off_c, 0, 62, 100
2, 5516523, Note_off_c, 0, 61, 100
2, 5516660, Note_on_c, 0, 60, 100
2, 5517497, Note_on_c, 0, 59, 100
2, 5517837, Note_off_c, 0, 60, 100
2, 5518378, Note_on_c, 0, 57, 100
2, 5519029, Note_off_c, 0, 59, 100
2, 5519240, Note_on_c, 0, 55, 100
2, 5519833, Note_off_c, 0, 57, 100
2, 5520063, Note_on_c, 0, 52, 100
2, 5520277, Note_off_c, 0, 55, 100
2, 5520534, Note_off_c, 0, 52, 100
2, 5520832, Note_on_c, 0, 50, 100
2, 5521051, Note_off_c, 0, 50, 100
2, 5521538, Note_on_c, 0, 47, 100
2, 5522032, Note_off_c, 0, 47, 100
2, 5522179, Note_off_c, 0, 45, 100
2, 5522179, Note_on_c, 0, 45, 100
2, 5522763, Note_on_c, 0, 43, 100
2, 5523082, Note_off_c, 0, 43, 100
2, 5523303, Note_on_c, 0, 41, 100
2, 5523404, Note_off_c, 0, 41, 100
2, 5523858, Note_on_c, 0, 40, 100
2, 5524041, Note_off_c, 0, 40, 100
2, 5524779, Note_on_c, 0, 39, 100
2, 5524913, Note_off_c, 0, 39, 100
2, 5525675, Note_on_c, 0, 39, 100
2, 5526133, Note_off_c, 0, 39, 100
2, 5526526, Note_on_c, 0, 40, 100
2, 5527318, Note_on_c, 0, 41, 100
2, 5527378, Note_off_c, 0, 40, 100
2, 5528044, Note_on_c, 0, 43, 100
2, 5528444, Note_off_c, 0, 41, 100
2, 5528706, Note_on_c, 0, 46, 100
2, 5529155, Note_off_c, 0, 43, 100
2, 5529313, Note_on_c, 0, 49, 100
2, 5529437, Note_off_c, 0, 46, 100
2, 5529458, Note_off_c, 0, 49, 100
2, 5529882, Note_on_c, 0, 51, 100
2, 5530434, Note_on_c, 0, 54, 100
2, 5530830, Note_off_c, 0, 51, 100
2, 5531089, Note_on_c, 0, 57, 100
2, 5531950, Note_on_c, 0, 60, 100
2, 5532051, Note_off_c, 0, 54, 100
2, 5532773, Note_on_c, 0, 62, 100
2, 5533008, Note_off_c, 0, 57, 100
2, 5533548, Note_on_c, 0, 64, 100
2, 5533679, Note_off_c, 0, 60, 100
2, 5533690, Note_off_c, 0, 64, 100
2, 5533849, Note_off_c, 0, 62, 100
2, 5534275, Note_on_c, 0, 65, 100
2, 5534960, Note_on_c, 0, 66, 100
2, 5535265, Note_off_c, 0, 65, 100
2, 5535613, Note_off_c, 0, 66, 100
2, 5535613, Note_on_c, 0, 66, 100
2, 5536251, Note_on_c, 0, 65, 100
2, 5536889, Note_on_c, 0, 64, 100
2, 5537498, Note_off_c, 0, 66, 100
2, 5537542, Note_on_c, 0, 62, 100
2, 5537755, Note_off_c, 0, 62, 100
2, 5537871, Note_off_c, 0, 65, 100
2, 5537876, Note_off_c, 0, 64, 100
2, 5538258, Note_on_c, 0, 60, 100
2, 5538902, Note_off_c, 0, 60, 100
2, 5538990, Note_on_c, 0, 57, 100
2, 5539693, Note_on_c, 0, 55, 100
2, 5540008, Note_off_c, 0, 57, 100
2, 5540424, Note_on_c, 0, 53, 100
2, 5540735, Note_off_c, 0, 55, 100
2, 5541191, Note_on_c, 0, 51, 100
2, 5541215, Note_off_c, 0, 53, 100
2, 5541620, Note_off_c, 0, 51, 100
2, 5541954, Note_on_c, 0, 50, 100
2, 5542096, Note_off_c, 0, 50, 100
2, 5542699, Note_on_c, 0, 49, 100
2, 5542839, Note_off_c, 0, 49, 100
2, 5543415, Note_on_c, 0, 48, 100
2, 5543588, Note_off_c, 0, 48, 100
2, 5544096, Note_on_c, 0, 47, 100
2, 5544504, Note_off_c, 0, 47, 100
2, 5544742, Note_on_c, 0, 47, 100
2, 5545336, Note_off_c, 0, 47, 100
2, 5545519, Note_on_c, 0, 47, 100
2, 5546094, Note_off_c, 0, 47, 100
2, 5546357, Note_on_c, 0, 48, 100
2, 5546633, Note_off_c, 0, 48, 100
2, 5547193, Note_on_c, 0, 49, 100
2, 5547641, Note_off_c, 0, 49, 100
2, 5548010, Note_on_c, 0, 50, 100
2, 5548790, Note_off_c, 0, 50, 100
2, 5548790, Note_on_c, 0, 50, 100
2, 5549520, Note_on_c, 0, 51, 100
2, 5550194, Note_on_c, 0, 52, 100
2, 5550293, Note_off_c, 0, 50, 100
2, 5550813, Note_off_c, 0, 52, 100
2, 5550813, Note_on_c, 0, 52, 100
2, 5551127, Note_off_c, 0, 51, 100
2, 5551383, Note_on_c, 0, 53, 100
2, 5551462, Note_off_c, 0, 52, 100
2, 5551922, Note_on_c, 0, 52, 100
2, 5551961, Note_off_c, 0, 53, 100
2, 5552829, Note_off_c, 0, 52, 100
2, 5552829, Note_on_c, 0, 52, 100
2, 5553729, Note_off_c, 0, 52, 100
2, 5553729, Note_on_c, 0, 52, 100
2, 5554596, Note_on_c, 0, 51, 100
2, 5555410, Note_on_c, 0, 50, 100
2, 5555686, Note_off_c, 0, 52, 100
2, 5556059, Note_off_c, 0, 50, 100
2, 5556071, Note_off_c, 0, 51, 100
2, 5556159, Note_on_c, 0, 50, 100
2, 5556614, Note_off_c, 0, 50, 100
2, 5556840, Note_on_c, 0, 49, 100
2, 5557457, Note_off_c, 0, 49, 100
2, 5557457, Note_on_c, 0, 49, 100
2, 5558022, Note_on_c, 0, 48, 100
2, 5558555, Note_off_c, 0, 48, 100
2, 5558555, Note_on_c, 0, 48, 100
2, 5558996, Note_off_c, 0, 49, 100
2, 5559160, Note_on_c, 0, 49, 100
2, 5559594, Note_off_c, 0, 48, 100
2, 5559629, Note_off_c, 0, 49, 100
2, 5560063, Note_on_c, 0, 50, 100
2, 5560287, Note_off_c, 0, 50, 100
2, 5560932, Note_on_c, 0, 50, 100
2, 5561434, Note_off_c, 0, 50, 100
2, 5561750, Note_on_c, 0, 52, 100
2, 5562260, Note_off_c, 0, 52, 100
2, 5562511, Note_on_c, 0, 54, 100
2, 5562838, Note_off_c, 0, 54, 100
2, 5563214, Note_on_c, 0, 56, 100
2, 5563321, Note_off_c, 0, 56, 100
2, 5563865, Note_on_c, 0, 58, 100
2, 5564044, Note_off_c, 0, 58, 100
2, 5564478, Note_on_c, 0, 60, 100
2, 5564613, Note_off_c, 0, 60, 100
2, 5565072, Note_on_c, 0, 62, 100
2, 5565528, Note_off_c, 0, 62, 100
2, 5565665, Note_on_c, 0, 63, 100
2, 5566364, Note_on_c, 0, 65, 100
2, 5566511, Note_off_c, 0, 63, 100
2, 5567166, Note_off_c, 0, 65, 100
2, 5567166, Note_on_c, 0, 65, 100
2, 5567930, Note_off_c, 0, 65, 100
2, 5567930, Note_on_c, 0, 65, 100
2, 5568653, Note_off_c, 0, 65, 100
2, 5568658, Note_on_c, 0, 64, 100
2, 5568809, Note_off_c, 0, 64, 100
2, 5569354, Note_on_c, 0, 63, 100
2, 5570029, Note_on_c, 0, 61, 100
2, 5570306, Note_off_c, 0, 63, 100
2, 5570698, Note_on_c, 0, 59, 100
2, 5571374, Note_on_c, 0, 56, 100
2, 5571647, Note_off_c, 0, 61, 100
2, 5572090, Note_on_c, 0, 53, 100
2, 5572614, Note_off_c, 0, 59, 100
2, 5572807, Note_on_c, 0, 50, 100
2, 5572940, Note_off_c, 0, 50, 100
2, 5573097, Note_off_c, 0, 56, 100
2, 5573158, Note_off_c, 0, 53, 100
2, 5573544, Note_on_c, 0, 48, 100
2, 5574321, Note_off_c, 0, 45, 100
2, 5574321, Note_on_c, 0, 45, 100
2, 5574542, Note_off_c, 0, 48, 100
2, 5575113, Note_on_c, 0, 42, 100
2, 5575907, Note_on_c, 0, 41, 100
2, 5576687, Note_on_c, 0, 39, 100
2, 5577002, Note_off_c, 0, 42, 100
2, 5577438, Note_off_c, 0, 39, 100
2, 5577438, Note_on_c, 0, 39, 100
2, 5577527, Note_off_c, 0, 41, 100
2, 5577671, Note_off_c, 0, 39, 100
2, 5578149, Note_on_c, 0, 39, 100
2, 5578800, Note_off_c, 0, 39, 100
2, 5578813, Note_on_c, 0, 40, 100
2, 5579434, Note_on_c, 0, 41, 100
2, 5579840, Note_off_c, 0, 40, 100
2, 5580018, Note_on_c, 0, 43, 100
2, 5580484, Note_off_c, 0, 41, 100
2, 5580815, Note_off_c, 0, 43, 100
2, 5580859, Note_on_c, 0, 46, 100
2, 5581291, Note_off_c, 0, 46, 100
2, 5581739, Note_on_c, 0, 48, 100
2, 5581880, Note_off_c, 0, 48, 100
2, 5582600, Note_on_c, 0, 50, 100
2, 5582743, Note_off_c, 0, 50, 100
2, 5583423, Note_on_c, 0, 53, 100
2, 5583589, Note_off_c, 0, 53, 100
2, 5584191, Note_on_c, 0, 56, 100
2, 5584591, Note_off_c, 0, 56, 100
2, 5584897, Note_on_c, 0, 58, 100
2, 5585483, Note_off_c, 0, 58, 100
2, 5585537, Note_on_c, 0, 60, 100
2, 5586105, Note_off_c, 0, 60, 100
2, 5586120, Note_on_c, 0, 62, 100
2, 5586390, Note_off_c, 0, 62, 100
2, 5586660, Note_on_c, 0, 63, 100
2, 5587110, Note_off_c, 0, 63, 100
2, 5587221, Note_on_c, 0, 63, 100
2, 5588142, Note_off_c, 0, 63, 100
2, 5588142, Note_on_c, 0, 63, 100
2, 5589038, Note_on_c, 0, 62, 100
2, 5589641, Note_off_c, 0, 63, 100
2, 5589888, Note_on_c, 0, 61, 100
2, 5590638, Note_off_c, 0, 62, 100
2, 5590680, Note_on_c, 0, 60, 100
2, 5591147, Note_off_c, 0, 61, 100
2, 5591210, Note_off_c, 0, 60, 100
2, 5591405, Note_on_c, 0, 58, 100
2, 5591990, Note_off_c, 0, 58, 100
2, 5592066, Note_on_c, 0, 56, 100
2, 5592672, Note_on_c, 0, 55, 100
2, 5593241, Note_on_c, 0, 53, 100
2, 5593499, Note_off_c, 0, 56, 100
2, 5593792, Note_on_c, 0, 52, 100
2, 5594452, Note_on_c, 0, 51, 100
2, 5594614, Note_off_c, 0, 55, 100
2, 5595094, Note_off_c, 0, 51, 100
2, 5595196, Note_off_c, 0, 53, 100
2, 5595263, Note_off_c, 0, 52, 100
2, 5595313, Note_on_c, 0, 50, 100
2, 5595776, Note_off_c, 0, 50, 100
2, 5596136, Note_on_c, 0, 50, 100
2, 5596911, Note_off_c, 0, 50, 100
2, 5596911, Note_on_c, 0, 50, 100
2, 5597638, Note_on_c, 0, 51, 100
2, 5598322, Note_off_c, 0, 51, 100
2, 5598322, Note_on_c, 0, 51, 100
2, 5598457, Note_off_c, 0, 50, 100
2, 5598975, Note_on_c, 0, 52, 100
2, 5599363, Note_off_c, 0, 51, 100
2, 5599442, Note_off_c, 0, 52, 100
2, 5599612, Note_on_c, 0, 53, 100
2, 5599841, Note_off_c, 0, 53, 100
2, 5600250, Note_on_c, 0, 53, 100
2, 5600759, Note_off_c, 0, 53, 100
2, 5600902, Note_on_c, 0, 54, 100
2, 5601421, Note_off_c, 0, 54, 100
2, 5601619, Note_on_c, 0, 54, 100
2, 5601954, Note_off_c, 0, 54, 100
2, 5602352, Note_on_c, 0, 54, 100
2, 5602466, Note_off_c, 0, 54, 100
2, 5603056, Note_on_c, 0, 53, 100
2, 5603231, Note_off_c, 0, 53, 100
2, 5603781, Note_on_c, 0, 53, 100
2, 5603917, Note_off_c, 0, 53, 100
2, 5604548, Note_on_c, 0, 52, 100
2, 5605001, Note_off_c, 0, 52, 100
2, 5605311, Note_on_c, 0, 50, 100
2, 5606056, Note_off_c, 0, 50, 100
2, 5606056, Note_on_c, 0, 50, 100
2, 5606772, Note_on_c, 0, 48, 100
2, 5607167, Note_off_c, 0, 50, 100
2, 5607454, Note_on_c, 0, 47, 100
2, 5607866, Note_off_c, 0, 48, 100
2, 5608100, Note_on_c, 0, 46, 100
2, 5608169, Note_off_c, 0, 47, 100
2, 5608258, Note_off_c, 0, 46, 100
2, 5608880, Note_off_c, 0, 45, 100
2, 5608880, Note_on_c, 0, 45, 100
2, 5609717, Note_on_c, 0, 44, 100
2, 5610552, Note_off_c, 0, 44, 100
2, 5610552, Note_on_c, 0, 44, 100
2, 5611368, Note_off_c, 0, 45, 100
2, 5611368, Note_on_c, 0, 45, 100
2, 5612148, Note_on_c, 0, 46, 100
2, 5612466, Note_off_c, 0, 44, 100
2, 5612878, Note_on_c, 0, 47, 100
2, 5613003, Note_off_c, 0, 47, 100
2, 5613209, Note_off_c, 0, 46, 100
2, 5613552, Note_on_c, 0, 49, 100
2, 5614170, Note_on_c, 0, 50, 100
2, 5614558, Note_off_c, 0, 49, 100
2, 5614741, Note_on_c, 0, 53, 100
2, 5615280, Note_on_c, 0, 56, 100
2, 5615846, Note_off_c, 0, 50, 100
2, 5616191, Note_on_c, 0, 59, 100
2, 5616633, Note_off_c, 0, 53, 100
2, 5616900, Note_off_c, 0, 56, 100
2, 5617091, Note_on_c, 0, 61, 100
2, 5617171, Note_off_c, 0, 59, 100
2, 5617292, Note_off_c, 0, 61, 100
2, 5617957, Note_on_c, 0, 63, 100
2, 5618616, Note_off_c, 0, 63, 100
2, 5618770, Note_on_c, 0, 65, 100
2, 5619519, Note_on_c, 0, 66, 100
2, 5619805, Note_off_c, 0, 65, 100
2, 5620199, Note_on_c, 0, 67, 100
2, 5620577, Note_off_c, 0, 66, 100
2, 5620815, Note_off_c, 0, 67, 100
2, 5620815, Note_on_c, 0, 67, 100
2, 5621250, Note_off_c, 0, 67, 100
2, 5621380, Note_on_c, 0, 66, 100
2, 5621521, Note_off_c, 0, 66, 100
2, 5621913, Note_on_c, 0, 65, 100
2, 5622060, Note_off_c, 0, 65, 100
2, 5622523, Note_on_c, 0, 63, 100
2, 5622683, Note_off_c, 0, 63, 100
2, 5623426, Note_on_c, 0, 60, 100
2, 5623818, Note_off_c, 0, 60, 100
2, 5624294, Note_on_c, 0, 57, 100
2, 5624871, Note_off_c, 0, 57, 100
2, 5625113, Note_on_c, 0, 54, 100
2, 5625673, Note_off_c, 0, 54, 100
2, 5625873, Note_on_c, 0, 51, 100
2, 5626138, Note_off_c, 0, 51, 100
2, 5626575, Note_on_c, 0, 49, 100
2, 5627028, Note_off_c, 0, 49, 100
2, 5627226, Note_on_c, 0, 46, 100
2, 5627839, Note_on_c, 0, 44, 100
2, 5628275, Note_off_c, 0, 46, 100
2, 5628432, Note_on_c, 0, 42, 100
2, 5629024, Note_on_c, 0, 41, 100
2, 5629334, Note_off_c, 0, 44, 100
2, 5629726, Note_on_c, 0, 40, 100
2, 5630026, Note_off_c, 0, 42, 100
2, 5630248, Note_off_c, 0, 40, 100
2, 5630275, Note_off_c, 0, 41, 100
2, 5630528, Note_on_c, 0, 40, 100
2, 5631121, Note_off_c, 0, 40, 100
2, 5631293, Note_on_c, 0, 41, 100
2, 5632021, Note_on_c, 0, 42, 100
2, 5632717, Note_on_c, 0, 44, 100
2, 5632731, Note_off_c, 0, 41, 100
2, 5633392, Note_on_c, 0, 46, 100
2, 5633965, Note_off_c, 0, 42, 100
2, 5634060, Note_on_c, 0, 49, 100
2, 5634671, Note_off_c, 0, 44, 100
2, 5634695, Note_off_c, 0, 49, 100
2, 5634735, Note_on_c, 0, 50, 100
2, 5634858, Note_off_c, 0, 46, 100
2, 5635207, Note_off_c, 0, 50, 100
2, 5635449, Note_on_c, 0, 52, 100
2, 5636167, Note_on_c, 0, 54, 100
2, 5636651, Note_off_c, 0, 52, 100
2, 5636904, Note_on_c, 0, 56, 100
2, 5637680, Note_on_c, 0, 58, 100
2, 5637720, Note_off_c, 0, 54, 100
2, 5638373, Note_off_c, 0, 56, 100
2, 5638472, Note_on_c, 0, 59, 100
2, 5638722, Note_off_c, 0, 58, 100
2, 5638937, Note_off_c, 0, 59, 100
2, 5639265, Note_on_c, 0, 59, 100
2, 5639499, Note_off_c, 0, 59, 100
2, 5640045, Note_on_c, 0, 59, 100
2, 5640561, Note_off_c, 0, 59, 100
2, 5640795, Note_on_c, 0, 59, 100
2, 5641322, Note_off_c, 0, 59, 100
2, 5641506, Note_on_c, 0, 58, 100
2, 5641850, Note_off_c, 0, 58, 100
2, 5642171, Note_on_c, 0, 57, 100
2, 5642292, Note_off_c, 0, 57, 100
2, 5642791, Note_on_c, 0, 56, 100
2, 5642961, Note_off_c, 0, 56, 100
2, 5643375, Note_on_c, 0, 55, 100
2, 5643512, Note_off_c, 0, 55, 100
2, 5644220, Note_on_c, 0, 54, 100
2, 5644671, Note_off_c, 0, 54, 100
2, 5645100, Note_on_c, 0, 53, 100
2, 5645936, Note_off_c, 0, 53, 100
2, 5645960, Note_on_c, 0, 53, 100
2, 5646782, Note_on_c, 0, 52, 100
2, 5647063, Note_off_c, 0, 53, 100
2, 5647550, Note_off_c, 0, 52, 100
2, 5647550, Note_on_c, 0, 52, 100
2, 5648255, Note_on_c, 0, 53, 100
2, 5648257, Note_off_c, 0, 52, 100
2, 5648419, Note_off_c, 0, 53, 100
2, 5648895, Note_on_c, 0, 53, 100
2, 5649478, Note_on_c, 0, 54, 100
2, 5649854, Note_off_c, 0, 53, 100
2, 5650018, Note_on_c, 0, 55, 100
2, 5650584, Note_on_c, 0, 56, 100
2, 5651097, Note_off_c, 0, 54, 100
2, 5651504, Note_on_c, 0, 57, 100
2, 5651929, Note_off_c, 0, 55, 100
2, 5652296, Note_off_c, 0, 56, 100
2, 5652400, Note_off_c, 0, 57, 100
2, 5652400, Note_on_c, 0, 57, 100
2, 5652557, Note_off_c, 0, 57, 100
2, 5653250, Note_on_c, 0, 58, 100
2, 5654041, Note_off_c, 0, 58, 100
2, 5654041, Note_on_c, 0, 58, 100
2, 5654766, Note_on_c, 0, 57, 100
2, 5655426, Note_on_c, 0, 56, 100
2, 5655723, Note_off_c, 0, 58, 100
2, 5656032, Note_on_c, 0, 55, 100
2, 5656600, Note_on_c, 0, 53, 100
2, 5656661, Note_off_c, 0, 57, 100
2, 5656795, Note_off_c, 0, 53, 100
2, 5657009, Note_off_c, 0, 55, 100
2, 5657046, Note_off_c, 0, 56, 100
2, 5657150, Note_on_c, 0, 51, 100
2, 5657814, Note_on_c, 0, 50, 100
2, 5657817, Note_off_c, 0, 51, 100
2, 5658676, Note_on_c, 0, 48, 100
2, 5658858, Note_off_c, 0, 50, 100
2, 5659498, Note_on_c, 0, 46, 100
2, 5659742, Note_off_c, 0, 48, 100
2, 5660274, Note_on_c, 0, 44, 100
2, 5660306, Note_off_c, 0, 46, 100
2, 5660712, Note_off_c, 0, 44, 100
2, 5661000, Note_on_c, 0, 43, 100
2, 5661140, Note_off_c, 0, 43, 100
2, 5661684, Note_on_c, 0, 41, 100
2, 5661835, Note_off_c, 0, 41, 100
2, 5662337, Note_on_c, 0, 41, 100
2, 5662490, Note_off_c, 0, 41, 100
2, 5662973, Note_on_c, 0, 41, 100
2, 5663357, Note_off_c, 0, 41, 100
2, 5663610, Note_on_c, 0, 42, 100
2, 5664179, Note_off_c, 0, 42, 100
2, 5664262, Note_on_c, 0, 43, 100
2, 5664815, Note_off_c, 0, 43, 100
2, 5664980, Note_off_c, 0, 45, 100
2, 5664980, Note_on_c, 0, 45, 100
2, 5665713, Note_on_c, 0, 47, 100
2, 5666168, Note_off_c, 0, 47, 100
2, 5666418, Note_on_c, 0, 50, 100
2, 5667138, Note_on_c, 0, 52, 100
2, 5667466, Note_off_c, 0, 50, 100
2, 5667906, Note_on_c, 0, 55, 100
2, 5668629, Note_off_c, 0, 52, 100
2, 5668668, Note_on_c, 0, 58, 100
2, 5669414, Note_on_c, 0, 61, 100
2, 5669493, Note_off_c, 0, 55, 100
2, 5669911, Note_off_c, 0, 58, 100
2, 5669927, Note_off_c, 0, 61, 100
2, 5670130, Note_on_c, 0, 64, 100
2, 5670730, Note_off_c, 0, 64, 100
2, 5670812, Note_on_c, 0, 66, 100
2, 5671459, Note_on_c, 0, 67, 100
2, 5672241, Note_off_c, 0, 67, 100
2, 5672241, Note_on_c, 0, 67, 100
2, 5672255, Note_off_c, 0, 66, 100
2, 5673077, Note_off_c, 0, 67, 100
2, 5673077, Note_on_c, 0, 67, 100
2, 5673912, Note_on_c, 0, 66, 100
2, 5674538, Note_off_c, 0, 67, 100
2, 5674540, Note_off_c, 0, 66, 100
2, 5674727, Note_on_c, 0, 65, 100
2, 5675207, Note_off_c, 0, 65, 100
2, 5675506, Note_on_c, 0, 63, 100
2, 5676236, Note_on_c, 0, 60, 100
2, 5676716, Note_off_c, 0, 63, 100
2, 5676909, Note_on_c, 0, 58, 100
2, 5677527, Note_on_c, 0, 55, 100
2, 5677796, Note_off_c, 0, 60, 100
2, 5678098, Note_on_c, 0, 52, 100
2, 5678383, Note_off_c, 0, 58, 100
2, 5678561, Note_off_c, 0, 52, 100
2, 5678570, Note_off_c, 0, 55, 100
2, 5678642, Note_on_c, 0, 50, 100
2, 5678881, Note_off_c, 0, 50, 100
2, 5679553, Note_on_c, 0, 48, 100
2, 5680076, Note_off_c, 0, 48, 100
2, 5680453, Note_on_c, 0, 46, 100
2, 5680988, Note_off_c, 0, 46, 100
2, 5681318, Note_on_c, 0, 44, 100
2, 5681670, Note_off_c, 0, 44, 100
2, 5682131, Note_on_c, 0, 43, 100
2, 5682259, Note_off_c, 0, 43, 100
2, 5682878, Note_on_c, 0, 43, 100
2, 5683044, Note_off_c, 0, 43, 100
2, 5683558, Note_on_c, 0, 43, 100
2, 5683696, Note_off_c, 0, 43, 100
2, 5684173, Note_on_c, 0, 44, 100
2, 5684622, Note_off_c, 0, 44, 100
2, 5684738, Note_off_c, 0, 45, 100
2, 5684738, Note_on_c, 0, 45, 100
2, 5685270, Note_on_c, 0, 46, 100
2, 5685886, Note_on_c, 0, 48, 100
2, 5686366, Note_off_c, 0, 46, 100
2, 5686789, Note_on_c, 0, 50, 100
2, 5686963, Note_off_c, 0, 48, 100
2, 5687488, Note_off_c, 0, 50, 100
2, 5687657, Note_on_c, 0, 50, 100
2, 5687827, Note_off_c, 0, 50, 100
2, 5688475, Note_on_c, 0, 52, 100
2, 5689235, Note_on_c, 0, 53, 100
2, 5689438, Note_off_c, 0, 52, 100
2, 5689937, Note_on_c, 0, 54, 100
2, 5690587, Note_on_c, 0, 55, 100
2, 5690854, Note_off_c, 0, 53, 100
2, 5691199, Note_off_c, 0, 55, 100
2, 5691199, Note_on_c, 0, 55, 100
2, 5691791, Note_off_c, 0, 55, 100
2, 5691791, Note_on_c, 0, 55, 100
2, 5691845, Note_off_c, 0, 54, 100
2, 5692293, Note_off_c, 0, 55, 100
2, 5692383, Note_on_c, 0, 55, 100
2, 5693088, Note_on_c, 0, 54, 100
2, 5693405, Note_off_c, 0, 55, 100
2, 5693890, Note_on_c, 0, 53, 100
2, 5694656, Note_off_c, 0, 53, 100
2, 5694656, Note_on_c, 0, 53, 100
2, 5694776, Note_off_c, 0, 54, 100
2, 5695383, Note_on_c, 0, 52, 100
2, 5696079, Note_on_c, 0, 51, 100
2, 5696268, Note_off_c, 0, 51, 100
2, 5696276, Note_off_c, 0, 53, 100
2, 5696357, Note_off_c, 0, 52, 100
2, 5696754, Note_on_c, 0, 51, 100
2, 5697422, Note_off_c, 0, 51, 100
2, 5697422, Note_on_c, 0, 51, 100
2, 5698097, Note_on_c, 0, 52, 100
2, 5698474, Note_off_c, 0, 51, 100
2, 5698807, Note_off_c, 0, 52, 100
2, 5698807, Note_on_c, 0, 52, 100
2, 5699526, Note_on_c, 0, 53, 100
2, 5699621, Note_off_c, 0, 52, 100
2, 5699967, Note_off_c, 0, 53, 100
2, 5700264, Note_on_c, 0, 55, 100
2, 5700404, Note_off_c, 0, 55, 100
2, 5701039, Note_on_c, 0, 56, 100
2, 5701194, Note_off_c, 0, 56, 100
2, 5701830, Note_on_c, 0, 58, 100
2, 5701977, Note_off_c, 0, 58, 100
2, 5702623, Note_on_c, 0, 59, 100
2, 5702999, Note_off_c, 0, 59, 100
2, 5703402, Note_on_c, 0, 60, 100
2, 5703962, Note_off_c, 0, 60, 100
2, 5704152, Note_on_c, 0, 61, 100
2, 5704697, Note_off_c, 0, 61, 100
2, 5704863, Note_on_c, 0, 62, 100
2, 5705117, Note_off_c, 0, 62, 100
2, 5705528, Note_on_c, 0, 62, 100
2, 5705985, Note_off_c, 0, 62, 100
2, 5706149, Note_on_c, 0, 61, 100
2, 5706733, Note_on_c, 0, 60, 100
2, 5707196, Note_off_c, 0, 61, 100
2, 5707582, Note_on_c, 0, 59, 100
2, 5708220, Note_off_c, 0, 60, 100
2, 5708461, Note_on_c, 0, 57, 100
2, 5709162, Note_off_c, 0, 59, 100
2, 5709321, Note_on_c, 0, 54, 100
2, 5709696, Note_off_c, 0, 57, 100
2, 5709826, Note_off_c, 0, 54, 100
2, 5710142, Note_on_c, 0, 52, 100
2, 5710749, Note_off_c, 0, 52, 100
2, 5710909, Note_on_c, 0, 50, 100
2, 5711613, Note_on_c, 0, 47, 100
2, 5712253, Note_off_c, 0, 45, 100
2, 5712253, Note_on_c, 0, 45, 100
2, 5712356, Note_off_c, 0, 50, 100
2, 5712835, Note_on_c, 0, 43, 100
2, 5713375, Note_on_c, 0, 41, 100
2, 5713561, Note_off_c, 0, 47, 100
2, 5713946, Note_on_c, 0, 40, 100
2, 5713996, Note_off_c, 0, 41, 100
2, 5714292, Note_off_c, 0, 43, 100
2, 5714434, Note_off_c, 0, 40, 100
2, 5714867, Note_on_c, 0, 39, 100
2, 5715762, Note_off_c, 0, 39, 100
2, 5715762, Note_on_c, 0, 39, 100
2, 5716612, Note_on_c, 0, 40, 100
2, 5717329, Note_off_c, 0, 39, 100
2, 5717402, Note_on_c, 0, 41, 100
2, 5718090, Note_off_c, 0, 40, 100
2, 5718126, Note_on_c, 0, 43, 100
2, 5718447, Note_off_c, 0, 41, 100
2, 5718587, Note_off_c, 0, 43, 100
2, 5718786, Note_on_c, 0, 46, 100
2, 5719030, Note_off_c, 0, 46, 100
2, 5719391, Note_on_c, 0, 49, 100
2, 5719922, Note_off_c, 0, 49, 100
2, 5719958, Note_on_c, 0, 51, 100
2, 5720502, Note_off_c, 0, 51, 100
2, 5720508, Note_on_c, 0, 54, 100
2, 5720868, Note_off_c, 0, 54, 100
2, 5721177, Note_on_c, 0, 57, 100
2, 5721311, Note_off_c, 0, 57, 100
2, 5722038, Note_on_c, 0, 60, 100
2, 5722200, Note_off_c, 0, 60, 100
2, 5722861, Note_on_c, 0, 62, 100
2, 5722999, Note_off_c, 0, 62, 100
2, 5723636, Note_on_c, 0, 64, 100
2, 5724082, Note_off_c, 0, 64, 100
2, 5724363, Note_on_c, 0, 65, 100
2, 5725046, Note_on_c, 0, 66, 100
2, 5725188, Note_off_c, 0, 65, 100
2, 5725698, Note_off_c, 0, 66, 100
2, 5725698, Note_on_c, 0, 66, 100
2, 5726334, Note_on_c, 0, 65, 100
2, 5726767, Note_off_c, 0, 66, 100
2, 5726971, Note_on_c, 0, 64, 100
2, 5727025, Note_off_c, 0, 65, 100
2, 5727148, Note_off_c, 0, 64, 100
2, 5727621, Note_on_c, 0, 62, 100
2, 5728341, Note_on_c, 0, 60, 100
2, 5728588, Note_off_c, 0, 62, 100
2, 5729075, Note_on_c, 0, 57, 100
2, 5729780, Note_on_c, 0, 55, 100
2, 5729960, Note_off_c, 0, 60, 100
2, 5730496, Note_on_c, 0, 53, 100
2, 5730980, Note_off_c, 0, 57, 100
2, 5731263, Note_on_c, 0, 51, 100
2, 5731362, Note_off_c, 0, 51, 100
2, 5731480, Note_off_c, 0, 55, 100
2, 5731533, Note_off_c, 0, 53, 100
2, 5732026, Note_on_c, 0, 50, 100
2, 5732771, Note_on_c, 0, 48, 100
2, 5733056, Note_off_c, 0, 50, 100
2, 5733488, Note_on_c, 0, 47, 100
2, 5734170, Note_off_c, 0, 47, 100
2, 5734170, Note_on_c, 0, 47, 100
2, 5734465, Note_off_c, 0, 48, 100
2, 5734817, Note_off_c, 0, 47, 100
2, 5734817, Note_on_c, 0, 47, 100
2, 5735602, Note_off_c, 0, 47, 100
2, 5735602, Note_on_c, 0, 47, 100
2, 5735789, Note_off_c, 0, 47, 100
2, 5736437, Note_on_c, 0, 48, 100
2, 5737120, Note_off_c, 0, 48, 100
2, 5737271, Note_on_c, 0, 49, 100
2, 5738086, Note_on_c, 0, 50, 100
2, 5738332, Note_off_c, 0, 49, 100
2, 5738864, Note_off_c, 0, 50, 100
2, 5738864, Note_on_c, 0, 50, 100
2, 5739593, Note_on_c, 0, 51, 100
2, 5739683, Note_off_c, 0, 50, 100
2, 5740037, Note_off_c, 0, 51, 100
2, 5740266, Note_on_c, 0, 52, 100
2, 5740405, Note_off_c, 0, 52, 100
2, 5740884, Note_on_c, 0, 52, 100
2, 5741043, Note_off_c, 0, 52, 100
2, 5741455, Note_on_c, 0, 53, 100
2, 5741595, Note_off_c, 0, 53, 100
2, 5742004, Note_on_c, 0, 53, 100
2, 5742372, Note_off_c, 0, 53, 100
2, 5742916, Note_on_c, 0, 52, 100
2, 5743468, Note_off_c, 0, 52, 100
2, 5743814, Note_on_c, 0, 52, 100
2, 5744352, Note_off_c, 0, 52, 100
2, 5744679, Note_on_c, 0, 51, 100
2, 5744928, Note_off_c, 0, 51, 100
2, 5745491, Note_on_c, 0, 50, 100
2, 5745950, Note_off_c, 0, 50, 100
2, 5746238, Note_on_c, 0, 50, 100
2, 5746917, Note_on_c, 0, 49, 100
2, 5747284, Note_off_c, 0, 50, 100
2, 5747532, Note_off_c, 0, 49, 100
2, 5747532, Note_on_c, 0, 49, 100
2, 5748096, Note_on_c, 0, 48, 100
2, 5748628, Note_off_c, 0, 49, 100
2, 5748628, Note_on_c, 0, 49, 100
2, 5749124, Note_off_c, 0, 49, 100
2, 5749248, Note_on_c, 0, 49, 100
2, 5749322, Note_off_c, 0, 48, 100
2, 5749862, Note_off_c, 0, 49, 100
2, 5750151, Note_on_c, 0, 50, 100
2, 5751020, Note_off_c, 0, 50, 100
2, 5751020, Note_on_c, 0, 50, 100
2, 5751838, Note_on_c, 0, 52, 100
2, 5752597, Note_on_c, 0, 54, 100
2, 5752969, Note_off_c, 0, 50, 100
2, 5753298, Note_on_c, 0, 56, 100
2, 5753787, Note_off_c, 0, 52, 100
2, 5753912, Note_off_c, 0, 56, 100
2, 5753947, Note_on_c, 0, 58, 100
2, 5754049, Note_off_c, 0, 54, 100
2, 5754444, Note_off_c, 0, 58, 100
2, 5754559, Note_on_c, 0, 60, 100
2, 5755151, Note_on_c, 0, 62, 100
2, 5755742, Note_on_c, 0, 63, 100
2, 5755786, Note_off_c, 0, 60, 100
2, 5756450, Note_on_c, 0, 65, 100
2, 5756725, Note_off_c, 0, 62, 100
2, 5757225, Note_off_c, 0, 63, 100
2, 5757253, Note_off_c, 0, 65, 100
2, 5757253, Note_on_c, 0, 65, 100
2, 5757712, Note_off_c, 0, 65, 100
2, 5758018, Note_on_c, 0, 65, 100
2, 5758267, Note_off_c, 0, 65, 100
2, 5758746, Note_on_c, 0, 64, 100
2, 5759284, Note_off_c, 0, 64, 100
2, 5759442, Note_on_c, 0, 63, 100
2, 5759994, Note_off_c, 0, 63, 100
2, 5760117, Note_on_c, 0, 61, 100
2, 5760485, Note_off_c, 0, 61, 100
2, 5760785, Note_on_c, 0, 59, 100
2, 5760926, Note_off_c, 0, 59, 100
2, 5761459, Note_on_c, 0, 56, 100
2, 5761617, Note_off_c, 0, 56, 100
2, 5762166, Note_on_c, 0, 53, 100
2, 5762305, Note_off_c, 0, 53, 100
2, 5762886, Note_on_c, 0, 50, 100
2, 5763329, Note_off_c, 0, 50, 100
2, 5763623, Note_on_c, 0, 48, 100
2, 5764398, Note_off_c, 0, 45, 100
2, 5764398, Note_on_c, 0, 45, 100
2, 5764442, Note_off_c, 0, 48, 100
2, 5765189, Note_on_c, 0, 42, 100
2, 5765981, Note_on_c, 0, 40, 100
2, 5766249, Note_off_c, 0, 42, 100
2, 5766664, Note_off_c, 0, 40, 100
2, 5766760, Note_on_c, 0, 39, 100
2, 5766943, Note_off_c, 0, 39, 100
2, 5767510, Note_on_c, 0, 39, 100
2, 5768220, Note_off_c, 0, 39, 100
2, 5768220, Note_on_c, 0, 39, 100
2, 5768885, Note_on_c, 0, 40, 100
2, 5769506, Note_on_c, 0, 41, 100
2, 5769839, Note_off_c, 0, 39, 100
2, 5770091, Note_on_c, 0, 43, 100
2, 5770787, Note_off_c, 0, 40, 100
2, 5770944, Note_on_c, 0, 46, 100
2, 5771044, Note_off_c, 0, 46, 100
2, 5771120, Note_off_c, 0, 43, 100
2, 5771200, Note_off_c, 0, 41, 100
2, 5771822, Note_on_c, 0, 48, 100
2, 5772681, Note_on_c, 0, 50, 100
2, 5772860, Note_off_c, 0, 48, 100
2, 5773501, Note_on_c, 0, 53, 100
2, 5774268, Note_on_c, 0, 56, 100
2, 5774381, Note_off_c, 0, 50, 100
2, 5774972, Note_on_c, 0, 58, 100
2, 5775406, Note_off_c, 0, 53, 100
2, 5775611, Note_on_c, 0, 60, 100
2, 5775787, Note_off_c, 0, 60, 100
2, 5775887, Note_off_c, 0, 56, 100
2, 5775939, Note_off_c, 0, 58, 100
2, 5776192, Note_on_c, 0, 62, 100
2, 5776732, Note_on_c, 0, 63, 100
2, 5776883, Note_off_c, 0, 62, 100
2, 5777309, Note_off_c, 0, 63, 100
2, 5777309, Note_on_c, 0, 63, 100
2, 5778230, Note_off_c, 0, 63, 100
2, 5778230, Note_on_c, 0, 63, 100
2, 5779055, Note_off_c, 0, 63, 100
2, 5779125, Note_on_c, 0, 62, 100
2, 5779571, Note_off_c, 0, 62, 100
2, 5779974, Note_on_c, 0, 61, 100
2, 5780112, Note_off_c, 0, 61, 100
2, 5780764, Note_on_c, 0, 60, 100
2, 5780927, Note_off_c, 0, 60, 100
2, 5781487, Note_on_c, 0, 58, 100
2, 5781621, Note_off_c, 0, 58, 100
2, 5782146, Note_on_c, 0, 56, 100
2, 5782505, Note_off_c, 0, 56, 100
2, 5782750, Note_on_c, 0, 55, 100
2, 5783293, Note_off_c, 0, 55, 100
2, 5783317, Note_on_c, 0, 53, 100
2, 5783847, Note_off_c, 0, 53, 100
2, 5783866, Note_on_c, 0, 52, 100
2, 5784110, Note_off_c, 0, 52, 100
2, 5784539, Note_on_c, 0, 51, 100
2, 5785001, Note_off_c, 0, 51, 100
2, 5785401, Note_on_c, 0, 50, 100
2, 5786224, Note_off_c, 0, 50, 100
2, 5786224, Note_on_c, 0, 50, 100
2, 5786999, Note_off_c, 0, 50, 100
2, 5786999, Note_on_c, 0, 50, 100
2, 5787725, Note_off_c, 0, 50, 100
2, 5787725, Note_on_c, 0, 50, 100
2, 5788408, Note_on_c, 0, 51, 100
2, 5788896, Note_off_c, 0, 51, 100
2, 5788943, Note_off_c, 0, 50, 100
2, 5789060, Note_on_c, 0, 52, 100
2, 5789682, Note_off_c, 0, 52, 100
2, 5789695, Note_on_c, 0, 52, 100
2, 5790331, Note_on_c, 0, 53, 100
2, 5790981, Note_on_c, 0, 54, 100
2, 5791152, Note_off_c, 0, 52, 100
2, 5791702, Note_off_c, 0, 54, 100
2, 5791702, Note_on_c, 0, 54, 100
2, 5792282, Note_off_c, 0, 53, 100
2, 5792437, Note_off_c, 0, 54, 100
2, 5792437, Note_on_c, 0, 54, 100
2, 5793142, Note_on_c, 0, 53, 100
2, 5793149, Note_off_c, 0, 54, 100
2, 5793647, Note_off_c, 0, 53, 100
2, 5793853, Note_on_c, 0, 53, 100
2, 5794620, Note_on_c, 0, 52, 100
2, 5795088, Note_off_c, 0, 53, 100
2, 5795383, Note_on_c, 0, 50, 100
2, 5796128, Note_off_c, 0, 50, 100
2, 5796128, Note_on_c, 0, 50, 100
2, 5796201, Note_off_c, 0, 52, 100
2, 5796845, Note_on_c, 0, 48, 100
2, 5797175, Note_off_c, 0, 50, 100
2, 5797302, Note_off_c, 0, 48, 100
2, 5797528, Note_on_c, 0, 47, 100
2, 5797783, Note_off_c, 0, 47, 100
2, 5798176, Note_on_c, 0, 46, 100
2, 5798722, Note_off_c, 0, 46, 100
2, 5798962, Note_off_c, 0, 45, 100
2, 5798962, Note_on_c, 0, 45, 100
2, 5799797, Note_on_c, 0, 44, 100
2, 5800173, Note_off_c, 0, 44, 100
2, 5800630, Note_on_c, 0, 44, 100
2, 5800777, Note_off_c, 0, 44, 100
2, 5801444, Note_off_c, 0, 45, 100
2, 5801444, Note_on_c, 0, 45, 100
2, 5802222, Note_on_c, 0, 46, 100
2, 5802362, Note_off_c, 0, 46, 100
2, 5802951, Note_on_c, 0, 47, 100
2, 5803392, Note_off_c, 0, 47, 100
2, 5803624, Note_on_c, 0, 49, 100
2, 5804241, Note_on_c, 0, 51, 100
2, 5804437, Note_off_c, 0, 49, 100
2, 5804812, Note_on_c, 0, 53, 100
2, 5805314, Note_off_c, 0, 51, 100
2, 5805367, Note_on_c, 0, 56, 100
2, 5805864, Note_off_c, 0, 53, 100
2, 5806042, Note_off_c, 0, 56, 100
2, 5806278, Note_on_c, 0, 59, 100
2, 5806467, Note_off_c, 0, 59, 100
2, 5807176, Note_on_c, 0, 61, 100
2, 5808040, Note_on_c, 0, 63, 100
2, 5808150, Note_off_c, 0, 61, 100
2, 5808851, Note_on_c, 0, 65, 100
2, 5809598, Note_on_c, 0, 66, 100
2, 5809660, Note_off_c, 0, 63, 100
2, 5810276, Note_on_c, 0, 67, 100
2, 5810749, Note_off_c, 0, 65, 100
2, 5810890, Note_off_c, 0, 67, 100
2, 5810890, Note_on_c, 0, 67, 100
2, 5811286, Note_off_c, 0, 66, 100
2, 5811298, Note_off_c, 0, 67, 100
2, 5811454, Note_on_c, 0, 66, 100
2, 5811985, Note_on_c, 0, 65, 100
2, 5812500, Note_off_c, 0, 66, 100
2, 5812611, Note_on_c, 0, 62, 100
2, 5813514, Note_on_c, 0, 60, 100
2, 5813691, Note_off_c, 0, 65, 100
2, 5814383, Note_on_c, 0, 57, 100
2, 5814519, Note_off_c, 0, 62, 100
2, 5815133, Note_off_c, 0, 60, 100
2, 5815200, Note_on_c, 0, 54, 100
2, 5815346, Note_off_c, 0, 57, 100
2, 5815370, Note_off_c, 0, 54, 100
2, 5815959, Note_on_c, 0, 51, 100
2, 5816658, Note_off_c, 0, 51, 100
2, 5816660, Note_on_c, 0, 49, 100
2, 5817308, Note_on_c, 0, 46, 100
2, 5817738, Note_off_c, 0, 49, 100
2, 5817919, Note_on_c, 0, 43, 100
2, 5818404, Note_off_c, 0, 46, 100
2, 5818510, Note_on_c, 0, 42, 100
2, 5818749, Note_off_c, 0, 43, 100
2, 5818959, Note_off_c, 0, 42, 100
2, 5819101, Note_on_c, 0, 40, 100
2, 5819239, Note_off_c, 0, 40, 100
2, 5819812, Note_on_c, 0, 40, 100
2, 5819979, Note_off_c, 0, 40, 100
2, 5820615, Note_on_c, 0, 40, 100
2, 5820742, Note_off_c, 0, 40, 100
2, 5821381, Note_on_c, 0, 41, 100
2, 5821732, Note_off_c, 0, 41, 100
2, 5822109, Note_on_c, 0, 42, 100
2, 5822644, Note_off_c, 0, 42, 100
2, 5822805, Note_on_c, 0, 44, 100
2, 5823328, Note_off_c, 0, 44, 100
2, 5823480, Note_on_c, 0, 46, 100
2, 5823719, Note_off_c, 0, 46, 100
2, 5824147, Note_on_c, 0, 49, 100
2, 5824611, Note_off_c, 0, 49, 100
2, 5824821, Note_on_c, 0, 50, 100
2, 5825525, Note_on_c, 0, 52, 100
2, 5825864, Note_off_c, 0, 50, 100
2, 5826245, Note_on_c, 0, 54, 100
2, 5826983, Note_on_c, 0, 56, 100
2, 5826998, Note_off_c, 0, 52, 100
2, 5827758, Note_on_c, 0, 58, 100
2, 5827804, Note_off_c, 0, 54, 100
2, 5828193, Note_off_c, 0, 56, 100
2, 5828238, Note_off_c, 0, 58, 100
2, 5828547, Note_on_c, 0, 59, 100
2, 5829176, Note_off_c, 0, 59, 100
2, 5829339, Note_on_c, 0, 59, 100
2, 5830117, Note_off_c, 0, 59, 100
2, 5830117, Note_on_c, 0, 59, 100
2, 5830867, Note_off_c, 0, 59, 100
2, 5830867, Note_on_c, 0, 59, 100
2, 5831577, Note_on_c, 0, 58, 100
2, 5832242, Note_on_c, 0, 57, 100
2, 5832813, Note_off_c, 0, 59, 100
2, 5832842, Note_off_c, 0, 57, 100
2, 5832864, Note_on_c, 0, 56, 100
2, 5833019, Note_off_c, 0, 58, 100
2, 5833378, Note_off_c, 0, 56, 100
2, 5833449, Note_on_c, 0, 55, 100
2, 5834305, Note_on_c, 0, 54, 100
2, 5834692, Note_off_c, 0, 55, 100
2, 5835183, Note_on_c, 0, 53, 100
2, 5835892, Note_off_c, 0, 54, 100
2, 5836041, Note_off_c, 0, 53, 100
2, 5836041, Note_on_c, 0, 53, 100
2, 5836861, Note_on_c, 0, 52, 100
2, 5837089, Note_off_c, 0, 53, 100
2, 5837316, Note_off_c, 0, 52, 100
2, 5837627, Note_on_c, 0, 52, 100
2, 5837887, Note_off_c, 0, 52, 100
2, 5838330, Note_on_c, 0, 53, 100
2, 5838883, Note_off_c, 0, 53, 100
2, 5838968, Note_on_c, 0, 53, 100
2, 5839537, Note_off_c, 0, 53, 100
2, 5839550, Note_on_c, 0, 54, 100
2, 5839934, Note_off_c, 0, 54, 100
2, 5840089, Note_on_c, 0, 55, 100
2, 5840243, Note_off_c, 0, 55, 100
2, 5840672, Note_on_c, 0, 56, 100
2, 5840823, Note_off_c, 0, 56, 100
2, 5841592, Note_on_c, 0, 57, 100
2, 5841732, Note_off_c, 0, 57, 100
2, 5842487, Note_on_c, 0, 57, 100
2, 5842925, Note_off_c, 0, 57, 100
2, 5843336, Note_on_c, 0, 57, 100
2, 5844125, Note_off_c, 0, 57, 100
2, 5844125, Note_on_c, 0, 57, 100
2, 5844848, Note_off_c, 0, 57, 100
2, 5844848, Note_on_c, 0, 57, 100
2, 5845506, Note_on_c, 0, 56, 100
2, 5845891, Note_off_c, 0, 57, 100
2, 5846109, Note_on_c, 0, 55, 100
2, 5846173, Note_off_c, 0, 56, 100
2, 5846304, Note_off_c, 0, 55, 100
2, 5846675, Note_on_c, 0, 53, 100
2, 5847224, Note_on_c, 0, 51, 100
2, 5847652, Note_off_c, 0, 53, 100
2, 5847901, Note_on_c, 0, 50, 100
2, 5848764, Note_on_c, 0, 48, 100
2, 5848844, Note_off_c, 0, 51, 100
2, 5849587, Note_on_c, 0, 46, 100
2, 5849796, Note_off_c, 0, 50, 100
2, 5850362, Note_on_c, 0, 44, 100
2, 5850446, Note_off_c, 0, 48, 100
2, 5850479, Note_off_c, 0, 44, 100
2, 5850601, Note_off_c, 0, 46, 100
2, 5851088, Note_on_c, 0, 43, 100
2, 5851771, Note_on_c, 0, 42, 100
2, 5852141, Note_off_c, 0, 43, 100
2, 5852422, Note_on_c, 0, 41, 100
2, 5853056, Note_off_c, 0, 41, 100
2, 5853056, Note_on_c, 0, 41, 100
2, 5853483, Note_off_c, 0, 42, 100
2, 5853691, Note_on_c, 0, 42, 100
2, 5854341, Note_on_c, 0, 43, 100
2, 5854505, Note_off_c, 0, 43, 100
2, 5854650, Note_off_c, 0, 42, 100
2, 5854674, Note_off_c, 0, 41, 100
2, 5855063, Note_off_c, 0, 45, 100
2, 5855063, Note_on_c, 0, 45, 100
2, 5855798, Note_on_c, 0, 47, 100
2, 5856504, Note_on_c, 0, 50, 100
2, 5856884, Note_off_c, 0, 47, 100
2, 5857211, Note_on_c, 0, 52, 100
2, 5857608, Note_off_c, 0, 50, 100
2, 5857977, Note_on_c, 0, 55, 100
2, 5858047, Note_off_c, 0, 52, 100
2, 5858428, Note_off_c, 0, 55, 100
2, 5858740, Note_on_c, 0, 58, 100
2, 5858877, Note_off_c, 0, 58, 100
2, 5859485, Note_on_c, 0, 61, 100
2, 5859656, Note_off_c, 0, 61, 100
2, 5860203, Note_on_c, 0, 64, 100
2, 5860323, Note_off_c, 0, 64, 100
2, 5860886, Note_on_c, 0, 66, 100
2, 5861229, Note_off_c, 0, 66, 100
2, 5861535, Note_on_c, 0, 67, 100
2, 5862062, Note_off_c, 0, 67, 100
2, 5862323, Note_on_c, 0, 67, 100
2, 5862839, Note_off_c, 0, 67, 100
2, 5863157, Note_on_c, 0, 67, 100
2, 5863391, Note_off_c, 0, 67, 100
2, 5863990, Note_on_c, 0, 66, 100
2, 5864456, Note_off_c, 0, 66, 100
2, 5864803, Note_on_c, 0, 65, 100
2, 5865580, Note_on_c, 0, 63, 100
2, 5865845, Note_off_c, 0, 65, 100
2, 5866309, Note_on_c, 0, 60, 100
2, 5866981, Note_on_c, 0, 58, 100
2, 5867049, Note_off_c, 0, 63, 100
2, 5867598, Note_on_c, 0, 55, 100
2, 5867861, Note_off_c, 0, 60, 100
2, 5868069, Note_off_c, 0, 55, 100
2, 5868169, Note_on_c, 0, 52, 100
2, 5868182, Note_off_c, 0, 58, 100
2, 5868730, Note_on_c, 0, 50, 100
2, 5868805, Note_off_c, 0, 52, 100
2, 5869640, Note_on_c, 0, 48, 100
2, 5870196, Note_off_c, 0, 50, 100
2, 5870538, Note_on_c, 0, 46, 100
2, 5871401, Note_on_c, 0, 44, 100
2, 5871594, Note_off_c, 0, 48, 100
2, 5872212, Note_on_c, 0, 43, 100
2, 5872482, Note_off_c, 0, 46, 100
2, 5872804, Note_off_c, 0, 43, 100
2, 5872838, Note_off_c, 0, 44, 100
2, 5872958, Note_on_c, 0, 43, 100
2, 5873480, Note_off_c, 0, 43, 100
2, 5873635, Note_on_c, 0, 43, 100
2, 5874249, Note_on_c, 0, 44, 100
2, 5874812, Note_off_c, 0, 45, 100
2, 5874812, Note_on_c, 0, 45, 100
2, 5874887, Note_off_c, 0, 43, 100
2, 5875343, Note_on_c, 0, 46, 100
2, 5875843, Note_off_c, 0, 44, 100
2, 5875974, Note_on_c, 0, 48, 100
2, 5876392, Note_off_c, 0, 46, 100
2, 5876426, Note_off_c, 0, 48, 100
2, 5876877, Note_on_c, 0, 50, 100
2, 5877142, Note_off_c, 0, 50, 100
2, 5877745, Note_on_c, 0, 50, 100
2, 5878305, Note_off_c, 0, 50, 100
2, 5878563, Note_on_c, 0, 52, 100
2, 5879141, Note_off_c, 0, 52, 100
2, 5879321, Note_on_c, 0, 53, 100
2, 5879713, Note_off_c, 0, 53, 100
2, 5880021, Note_on_c, 0, 54, 100
2, 5880181, Note_off_c, 0, 54, 100
2, 5880669, Note_on_c, 0, 55, 100
2, 5880816, Note_off_c, 0, 55, 100
2, 5881279, Note_on_c, 0, 55, 100
2, 5881420, Note_off_c, 0, 55, 100
2, 5881870, Note_on_c, 0, 55, 100
2, 5882305, Note_off_c, 0, 55, 100
2, 5882459, Note_on_c, 0, 55, 100
2, 5883173, Note_on_c, 0, 54, 100
2, 5883261, Note_off_c, 0, 55, 100
2, 5883977, Note_on_c, 0, 53, 100
2, 5884230, Note_off_c, 0, 54, 100
2, 5884744, Note_off_c, 0, 53, 100
2, 5884744, Note_on_c, 0, 53, 100
2, 5885403, Note_off_c, 0, 53, 100
2, 5885472, Note_on_c, 0, 52, 100
2, 5885673, Note_off_c, 0, 52, 100
2, 5886168, Note_on_c, 0, 52, 100
2, 5886842, Note_on_c, 0, 51, 100
2, 5887148, Note_off_c, 0, 52, 100
2, 5887509, Note_off_c, 0, 51, 100
2, 5887509, Note_on_c, 0, 51, 100
2, 5888183, Note_on_c, 0, 52, 100
2, 5888884, Note_off_c, 0, 52, 100
2, 5888884, Note_on_c, 0, 52, 100
2, 5889401, Note_off_c, 0, 51, 100
2, 5889604, Note_on_c, 0, 53, 100
2, 5889729, Note_off_c, 0, 53, 100
2, 5889890, Note_off_c, 0, 52, 100
2, 5890343, Note_on_c, 0, 55, 100
2, 5891117, Note_on_c, 0, 56, 100
2, 5891404, Note_off_c, 0, 55, 100
2, 5891906, Note_on_c, 0, 58, 100
2, 5892697, Note_on_c, 0, 59, 100
2, 5892835, Note_off_c, 0, 56, 100
2, 5893475, Note_on_c, 0, 60, 100
2, 5893820, Note_off_c, 0, 58, 100
2, 5894224, Note_on_c, 0, 61, 100
2, 5894315, Note_off_c, 0, 59, 100
2, 5894381, Note_off_c, 0, 61, 100
2, 5894431, Note_off_c, 0, 60, 100
2, 5894934, Note_on_c, 0, 62, 100
2, 5895600, Note_off_c, 0, 62, 100
2, 5895600, Note_on_c, 0, 62, 100
2, 5896221, Note_on_c, 0, 61, 100
2, 5896694, Note_off_c, 0, 62, 100
2, 5896807, Note_on_c, 0, 60, 100
2, 5897332, Note_off_c, 0, 61, 100
2, 5897648, Note_off_c, 0, 60, 100
2, 5897667, Note_on_c, 0, 59, 100
2, 5898121, Note_off_c, 0, 59, 100
2, 5898543, Note_on_c, 0, 57, 100
2, 5898679, Note_off_c, 0, 57, 100
2, 5899401, Note_on_c, 0, 54, 100
2, 5899576, Note_off_c, 0, 54, 100
2, 5900221, Note_on_c, 0, 52, 100
2, 5900335, Note_off_c, 0, 52, 100
2, 5900986, Note_on_c, 0, 50, 100
2, 5901321, Note_off_c, 0, 50, 100
2, 5901688, Note_on_c, 0, 47, 100
2, 5902206, Note_off_c, 0, 47, 100
2, 5902326, Note_off_c, 0, 45, 100
2, 5902326, Note_on_c, 0, 45, 100
2, 5902907, Note_on_c, 0, 43, 100
2, 5903136, Note_off_c, 0, 43, 100
2, 5903446, Note_on_c, 0, 41, 100
2, 5903914, Note_off_c, 0, 41, 100
2, 5904035, Note_on_c, 0, 40, 100
2, 5904955, Note_on_c, 0, 39, 100
2, 5905075, Note_off_c, 0, 40, 100
2, 5905849, Note_off_c, 0, 39, 100
2, 5905849, Note_on_c, 0, 39, 100
2, 5906698, Note_on_c, 0, 40, 100
2, 5907394, Note_off_c, 0, 39, 100
2, 5907486, Note_on_c, 0, 41, 100
2, 5907891, Note_off_c, 0, 40, 100
2, 5907949, Note_off_c, 0, 41, 100
2, 5908208, Note_on_c, 0, 44, 100
2, 5908851, Note_off_c, 0, 44, 100
2, 5908866, Note_on_c, 0, 46, 100
2, 5909469, Note_on_c, 0, 49, 100
2, 5910034, Note_on_c, 0, 51, 100
2, 5910337, Note_off_c, 0, 46, 100
2, 5910582, Note_on_c, 0, 54, 100
2, 5911264, Note_on_c, 0, 58, 100
2, 5911425, Note_off_c, 0, 49, 100
2, 5911849, Note_off_c, 0, 58, 100
2, 5911976, Note_off_c, 0, 51, 100
2, 5912014, Note_off_c, 0, 54, 100
2, 5912126, Note_on_c, 0, 60, 100
2, 5912656, Note_off_c, 0, 60, 100
2, 5912950, Note_on_c, 0, 63, 100
2, 5913725, Note_on_c, 0, 64, 100
2, 5914210, Note_off_c, 0, 63, 100
2, 5914450, Note_on_c, 0, 66, 100
2, 5915133, Note_off_c, 0, 66, 100
2, 5915133, Note_on_c, 0, 66, 100
2, 5915326, Note_off_c, 0, 64, 100
2, 5915783, Note_off_c, 0, 66, 100
2, 5915783, Note_on_c, 0, 66, 100
2, 5916233, Note_off_c, 0, 66, 100
2, 5916417, Note_on_c, 0, 65, 100
2, 5916688, Note_off_c, 0, 65, 100
2, 5917052, Note_on_c, 0, 64, 100
2, 5917620, Note_off_c, 0, 64, 100
2, 5917700, Note_on_c, 0, 62, 100
2, 5918286, Note_off_c, 0, 62, 100
2, 5918425, Note_on_c, 0, 60, 100
2, 5918825, Note_off_c, 0, 60, 100
2, 5919160, Note_on_c, 0, 57, 100
2, 5919327, Note_off_c, 0, 57, 100
2, 5919866, Note_on_c, 0, 55, 100
2, 5920009, Note_off_c, 0, 55, 100
2, 5920568, Note_on_c, 0, 53, 100
2, 5920709, Note_off_c, 0, 53, 100
2, 5921334, Note_on_c, 0, 50, 100
2, 5921766, Note_off_c, 0, 50, 100
2, 5922097, Note_on_c, 0, 50, 100
2, 5922843, Note_on_c, 0, 48, 100
2, 5922893, Note_off_c, 0, 50, 100
2, 5923560, Note_on_c, 0, 47, 100
2, 5923893, Note_off_c, 0, 48, 100
2, 5924244, Note_off_c, 0, 47, 100
2, 5924244, Note_on_c, 0, 47, 100
2, 5924893, Note_off_c, 0, 47, 100
2, 5924893, Note_on_c, 0, 47, 100
2, 5925101, Note_off_c, 0, 47, 100
2, 5925684, Note_on_c, 0, 47, 100
2, 5926517, Note_on_c, 0, 48, 100
2, 5926668, Note_off_c, 0, 47, 100
2, 5927349, Note_on_c, 0, 49, 100
2, 5928137, Note_off_c, 0, 48, 100
2, 5928162, Note_on_c, 0, 50, 100
2, 5928938, Note_off_c, 0, 50, 100
2, 5928938, Note_on_c, 0, 50, 100
2, 5929238, Note_off_c, 0, 49, 100
2, 5929666, Note_on_c, 0, 51, 100
2, 5929800, Note_off_c, 0, 51, 100
2, 5929936, Note_off_c, 0, 50, 100
2, 5930338, Note_on_c, 0, 52, 100
2, 5930956, Note_off_c, 0, 52, 100
2, 5930956, Note_on_c, 0, 52, 100
2, 5931527, Note_on_c, 0, 53, 100
2, 5932092, Note_off_c, 0, 53, 100
2, 5932092, Note_on_c, 0, 53, 100
2, 5932679, Note_off_c, 0, 52, 100
2, 5933002, Note_on_c, 0, 52, 100
2, 5933709, Note_off_c, 0, 53, 100
2, 5933900, Note_off_c, 0, 52, 100
2, 5933900, Note_on_c, 0, 52, 100
2, 5934051, Note_off_c, 0, 52, 100
2, 5934762, Note_on_c, 0, 51, 100
2, 5935485, Note_off_c, 0, 51, 100
2, 5935572, Note_on_c, 0, 50, 100
2, 5936317, Note_off_c, 0, 50, 100
2, 5936317, Note_on_c, 0, 50, 100
2, 5936994, Note_on_c, 0, 49, 100
2, 5937436, Note_off_c, 0, 50, 100
2, 5937607, Note_off_c, 0, 49, 100
2, 5937607, Note_on_c, 0, 49, 100
2, 5938063, Note_off_c, 0, 49, 100
2, 5938169, Note_on_c, 0, 49, 100
2, 5938304, Note_off_c, 0, 49, 100
2, 5938700, Note_on_c, 0, 49, 100
2, 5938879, Note_off_c, 0, 49, 100
2, 5939337, Note_on_c, 0, 49, 100
2, 5939444, Note_off_c, 0, 49, 100
2, 5940240, Note_on_c, 0, 50, 100
2, 5940567, Note_off_c, 0, 50, 100
2, 5941108, Note_on_c, 0, 50, 100
2, 5941618, Note_off_c, 0, 50, 100
2, 5941925, Note_on_c, 0, 52, 100
2, 5942426, Note_off_c, 0, 52, 100
2, 5942683, Note_on_c, 0, 54, 100
2, 5942907, Note_off_c, 0, 54, 100
2, 5943382, Note_on_c, 0, 56, 100
2, 5943851, Note_off_c, 0, 56, 100
2, 5944030, Note_on_c, 0, 58, 100
2, 5944639, Note_on_c, 0, 60, 100
2, 5945069, Note_off_c, 0, 58, 100
2, 5945229, Note_on_c, 0, 62, 100
2, 5945818, Note_on_c, 0, 63, 100
2, 5946099, Note_off_c, 0, 60, 100
2, 5946535, Note_on_c, 0, 64, 100
2, 5946767, Note_off_c, 0, 62, 100
2, 5946990, Note_off_c, 0, 64, 100
2, 5947003, Note_off_c, 0, 63, 100
2, 5947340, Note_on_c, 0, 65, 100
2, 5947990, Note_off_c, 0, 65, 100
2, 5948106, Note_on_c, 0, 65, 100
2, 5948835, Note_on_c, 0, 64, 100
2, 5949531, Note_on_c, 0, 63, 100
2, 5949581, Note_off_c, 0, 65, 100
2, 5950205, Note_on_c, 0, 61, 100
2, 5950792, Note_off_c, 0, 64, 100
2, 5950871, Note_on_c, 0, 58, 100
2, 5951449, Note_off_c, 0, 58, 100
2, 5951471, Note_off_c, 0, 63, 100
2, 5951544, Note_on_c, 0, 56, 100
2, 5951632, Note_off_c, 0, 61, 100
2, 5952083, Note_off_c, 0, 56, 100
2, 5952243, Note_on_c, 0, 53, 100
2, 5952964, Note_on_c, 0, 50, 100
2, 5953511, Note_off_c, 0, 53, 100
2, 5953703, Note_on_c, 0, 47, 100
2, 5954476, Note_off_c, 0, 45, 100
2, 5954476, Note_on_c, 0, 45, 100
2, 5954571, Note_off_c, 0, 50, 100
2, 5955207, Note_off_c, 0, 47, 100
2, 5955264, Note_on_c, 0, 42, 100
2, 5955712, Note_off_c, 0, 42, 100
2, 5956055, Note_on_c, 0, 40, 100
2, 5956331, Note_off_c, 0, 40, 100
2, 5956832, Note_on_c, 0, 39, 100
2, 5957408, Note_off_c, 0, 39, 100
2, 5957581, Note_on_c, 0, 39, 100
2, 5958176, Note_off_c, 0, 39, 100
2, 5958292, Note_on_c, 0, 39, 100
2, 5958701, Note_off_c, 0, 39, 100
2, 5958957, Note_on_c, 0, 40, 100
2, 5959130, Note_off_c, 0, 40, 100
2, 5959579, Note_on_c, 0, 41, 100
2, 5959718, Note_off_c, 0, 41, 100
2, 5960165, Note_on_c, 0, 43, 100
2, 5960307, Note_off_c, 0, 43, 100
2, 5961028, Note_on_c, 0, 46, 100
2, 5961457, Note_off_c, 0, 46, 100
2, 5961904, Note_on_c, 0, 48, 100
2, 5962694, Note_off_c, 0, 48, 100
2, 5962761, Note_on_c, 0, 50, 100
2, 5963580, Note_on_c, 0, 53, 100
2, 5963803, Note_off_c, 0, 50, 100
2, 5964345, Note_on_c, 0, 56, 100
2, 5964598, Note_off_c, 0, 53, 100
2, 5964988, Note_off_c, 0, 56, 100
2, 5965046, Note_on_c, 0, 59, 100
2, 5965260, Note_off_c, 0, 59, 100
2, 5965684, Note_on_c, 0, 61, 100
2, 5966265, Note_on_c, 0, 62, 100
2, 5966671, Note_off_c, 0, 61, 100
2, 5966804, Note_on_c, 0, 63, 100
2, 5967398, Note_off_c, 0, 63, 100
2, 5967398, Note_on_c, 0, 63, 100
2, 5967885, Note_off_c, 0, 62, 100
2, 5968318, Note_off_c, 0, 63, 100
2, 5968318, Note_on_c, 0, 63, 100
2, 5969212, Note_on_c, 0, 62, 100
2, 5969308, Note_off_c, 0, 63, 100
2, 5969354, Note_off_c, 0, 62, 100
2, 5970060, Note_on_c, 0, 61, 100
2, 5970847, Note_on_c, 0, 60, 100
2, 5971136, Note_off_c, 0, 61, 100
2, 5971569, Note_on_c, 0, 58, 100
2, 5972225, Note_on_c, 0, 56, 100
2, 5972576, Note_off_c, 0, 60, 100
2, 5972828, Note_on_c, 0, 55, 100
2, 5973393, Note_on_c, 0, 53, 100
2, 5973488, Note_off_c, 0, 58, 100
2, 5973537, Note_off_c, 0, 53, 100
2, 5973776, Note_off_c, 0, 55, 100
2, 5973842, Note_off_c, 0, 56, 100
2, 5973940, Note_on_c, 0, 52, 100
2, 5974626, Note_on_c, 0, 51, 100
2, 5974672, Note_off_c, 0, 52, 100
2, 5975489, Note_on_c, 0, 50, 100
2, 5975737, Note_off_c, 0, 51, 100
2, 5976312, Note_off_c, 0, 50, 100
2, 5976312, Note_on_c, 0, 50, 100
2, 5977087, Note_off_c, 0, 50, 100
2, 5977087, Note_on_c, 0, 50, 100
2, 5977545, Note_off_c, 0, 50, 100
2, 5977813, Note_on_c, 0, 50, 100
2, 5977947, Note_off_c, 0, 50, 100
2, 5978495, Note_on_c, 0, 51, 100
2, 5978678, Note_off_c, 0, 51, 100
2, 5979145, Note_on_c, 0, 52, 100
2, 5979245, Note_off_c, 0, 52, 100
2, 5979778, Note_on_c, 0, 52, 100
2, 5980096, Note_off_c, 0, 52, 100
2, 5980412, Note_on_c, 0, 53, 100
2, 5980913, Note_off_c, 0, 53, 100
2, 5981060, Note_on_c, 0, 53, 100
2, 5981554, Note_off_c, 0, 53, 100
2, 5981786, Note_on_c, 0, 54, 100
2, 5982005, Note_off_c, 0, 54, 100
2, 5982522, Note_on_c, 0, 54, 100
2, 5982993, Note_off_c, 0, 54, 100
2, 5983229, Note_on_c, 0, 53, 100
2, 5983926, Note_off_c, 0, 53, 100
2, 5983926, Note_on_c, 0, 53, 100
2, 5984692, Note_on_c, 0, 52, 100
2, 5985381, Note_off_c, 0, 53, 100
2, 5985454, Note_on_c, 0, 50, 100
2, 5986200, Note_off_c, 0, 50, 100
2, 5986200, Note_on_c, 0, 50, 100
2, 5986223, Note_off_c, 0, 52, 100
2, 5986646, Note_off_c, 0, 50, 100
2, 5986918, Note_on_c, 0, 49, 100
2, 5987575, Note_off_c, 0, 49, 100
2, 5987602, Note_on_c, 0, 47, 100
2, 5988252, Note_on_c, 0, 46, 100
2, 5989044, Note_off_c, 0, 45, 100
2, 5989044, Note_on_c, 0, 45, 100
2, 5989082, Note_off_c, 0, 47, 100
2, 5989877, Note_off_c, 0, 45, 100
2, 5989877, Note_on_c, 0, 45, 100
2, 5990210, Note_off_c, 0, 46, 100
2, 5990708, Note_on_c, 0, 44, 100
2, 5991278, Note_off_c, 0, 44, 100
2, 5991520, Note_off_c, 0, 45, 100
2, 5991520, Note_on_c, 0, 45, 100
2, 5992296, Note_on_c, 0, 46, 100
2, 5993024, Note_on_c, 0, 47, 100
2, 5993572, Note_off_c, 0, 46, 100
2, 5993696, Note_on_c, 0, 49, 100
2, 5994313, Note_on_c, 0, 51, 100
2, 5994638, Note_off_c, 0, 47, 100
2, 5994884, Note_on_c, 0, 53, 100
2, 5995204, Note_off_c, 0, 49, 100
2, 5995329, Note_off_c, 0, 53, 100
2, 5995365, Note_off_c, 0, 51, 100
2, 5995455, Note_on_c, 0, 56, 100
2, 5995737, Note_off_c, 0, 56, 100
2, 5996364, Note_on_c, 0, 59, 100
2, 5996947, Note_off_c, 0, 59, 100
2, 5997261, Note_on_c, 0, 61, 100
2, 5997864, Note_off_c, 0, 61, 100
2, 5998123, Note_on_c, 0, 64, 100
2, 5998540, Note_off_c, 0, 64, 100
2, 5998933, Note_on_c, 0, 65, 100
2, 5999112, Note_off_c, 0, 65, 100
2, 5999677, Note_on_c, 0, 66, 100
2, 5999813, Note_off_c, 0, 66, 100
2, 6000353, Note_on_c, 0, 67, 100
2, 6000495, Note_off_c, 0, 67, 100
2, 6000965, Note_on_c, 0, 67, 100
2, 6001391, Note_off_c, 0, 67, 100
2, 6001527, Note_on_c, 0, 66, 100
2, 6002058, Note_on_c, 0, 64, 100
2, 6002312, Note_off_c, 0, 66, 100
2, 6002699, Note_on_c, 0, 62, 100
2, 6003092, Note_off_c, 0, 64, 100
2, 6003603, Note_on_c, 0, 60, 100
2, 6003708, Note_off_c, 0, 62, 100
2, 6004238, Note_off_c, 0, 60, 100
2, 6004471, Note_on_c, 0, 57, 100
2, 6004690, Note_off_c, 0, 57, 100
2, 6005288, Note_on_c, 0, 54, 100
2, 6006045, Note_on_c, 0, 50, 100
2, 6006278, Note_off_c, 0, 54, 100
2, 6006744, Note_on_c, 0, 48, 100
2, 6007391, Note_on_c, 0, 46, 100
2, 6007664, Note_off_c, 0, 50, 100
2, 6007999, Note_on_c, 0, 43, 100
2, 6008588, Note_on_c, 0, 42, 100
2, 6008626, Note_off_c, 0, 48, 100
2, 6008739, Note_off_c, 0, 42, 100
2, 6008981, Note_off_c, 0, 43, 100
2, 6009048, Note_off_c, 0, 46, 100
2, 6009177, Note_on_c, 0, 40, 100
2, 6009897, Note_off_c, 0, 40, 100
2, 6009897, Note_on_c, 0, 40, 100
2, 6010702, Note_off_c, 0, 40, 100
2, 6010702, Note_on_c, 0, 40, 100
2, 6011469, Note_on_c, 0, 41, 100
2, 6012198, Note_on_c, 0, 42, 100
2, 6012624, Note_off_c, 0, 40, 100
2, 6012893, Note_on_c, 0, 44, 100
2, 6013031, Note_off_c, 0, 44, 100
2, 6013085, Note_off_c, 0, 41, 100
2, 6013142, Note_off_c, 0, 42, 100
2, 6013568, Note_on_c, 0, 46, 100
2, 6014234, Note_on_c, 0, 49, 100
2, 6014308, Note_off_c, 0, 46, 100
2, 6014906, Note_on_c, 0, 50, 100
2, 6015354, Note_off_c, 0, 49, 100
2, 6015602, Note_on_c, 0, 52, 100
2, 6016040, Note_off_c, 0, 50, 100
2, 6016324, Note_on_c, 0, 55, 100
2, 6016459, Note_off_c, 0, 52, 100
2, 6016784, Note_off_c, 0, 55, 100
2, 6017063, Note_on_c, 0, 56, 100
2, 6017195, Note_off_c, 0, 56, 100
2, 6017835, Note_on_c, 0, 58, 100
2, 6018023, Note_off_c, 0, 58, 100
2, 6018623, Note_on_c, 0, 59, 100
2, 6018721, Note_off_c, 0, 59, 100
2, 6019413, Note_on_c, 0, 59, 100
2, 6019723, Note_off_c, 0, 59, 100
2, 6020190, Note_on_c, 0, 59, 100
2, 6020683, Note_off_c, 0, 59, 100
2, 6020939, Note_on_c, 0, 59, 100
2, 6021426, Note_off_c, 0, 59, 100
2, 6021649, Note_on_c, 0, 58, 100
2, 6021863, Note_off_c, 0, 58, 100
2, 6022314, Note_on_c, 0, 57, 100
2, 6022787, Note_off_c, 0, 57, 100
2, 6022936, Note_on_c, 0, 56, 100
2, 6023523, Note_on_c, 0, 55, 100
2, 6023972, Note_off_c, 0, 56, 100
2, 6024390, Note_on_c, 0, 54, 100
2, 6024973, Note_off_c, 0, 55, 100
2, 6025265, Note_on_c, 0, 53, 100
2, 6025914, Note_off_c, 0, 54, 100
2, 6026122, Note_off_c, 0, 53, 100
2, 6026122, Note_on_c, 0, 53, 100
2, 6026560, Note_off_c, 0, 53, 100
2, 6026939, Note_on_c, 0, 52, 100
2, 6027602, Note_off_c, 0, 52, 100
2, 6027703, Note_on_c, 0, 52, 100
2, 6028404, Note_on_c, 0, 53, 100
2, 6029041, Note_off_c, 0, 53, 100
2, 6029041, Note_on_c, 0, 53, 100
2, 6029187, Note_off_c, 0, 52, 100
2, 6029622, Note_on_c, 0, 54, 100
2, 6030161, Note_on_c, 0, 55, 100
2, 6030724, Note_off_c, 0, 55, 100
2, 6030761, Note_on_c, 0, 56, 100
2, 6030977, Note_off_c, 0, 53, 100
2, 6031039, Note_off_c, 0, 54, 100
2, 6031317, Note_off_c, 0, 56, 100
2, 6031680, Note_on_c, 0, 56, 100
2, 6032574, Note_on_c, 0, 57, 100
2, 6032964, Note_off_c, 0, 56, 100
2, 6033421, Note_off_c, 0, 57, 100
2, 6033421, Note_on_c, 0, 57, 100
2, 6034209, Note_off_c, 0, 57, 100
2, 6034209, Note_on_c, 0, 57, 100
2, 6034929, Note_off_c, 0, 57, 100
2, 6034929, Note_on_c, 0, 57, 100
2, 6035371, Note_off_c, 0, 57, 100
2, 6035585, Note_on_c, 0, 56, 100
2, 6035872, Note_off_c, 0, 56, 100
2, 6036187, Note_on_c, 0, 55, 100
2, 6036751, Note_on_c, 0, 53, 100
2, 6036778, Note_off_c, 0, 55, 100
2, 6037298, Note_on_c, 0, 51, 100
2, 6037363, Note_off_c, 0, 53, 100
2, 6037723, Note_off_c, 0, 51, 100
2, 6037989, Note_on_c, 0, 50, 100
2, 6038174, Note_off_c, 0, 50, 100
2, 6038852, Note_on_c, 0, 48, 100
2, 6038984, Note_off_c, 0, 48, 100
2, 6039675, Note_on_c, 0, 46, 100
2, 6039817, Note_off_c, 0, 46, 100
2, 6040450, Note_on_c, 0, 44, 100
2, 6040873, Note_off_c, 0, 44, 100
2, 6041175, Note_on_c, 0, 43, 100
2, 6041857, Note_on_c, 0, 42, 100
2, 6041954, Note_off_c, 0, 43, 100
2, 6042506, Note_on_c, 0, 41, 100
2, 6042883, Note_off_c, 0, 42, 100
2, 6043139, Note_off_c, 0, 41, 100
2, 6043139, Note_on_c, 0, 41, 100
2, 6043766, Note_off_c, 0, 41, 100
2, 6043772, Note_on_c, 0, 42, 100
2, 6043997, Note_off_c, 0, 42, 100
2, 6044419, Note_on_c, 0, 43, 100
2, 6045147, Note_off_c, 0, 45, 100
2, 6045147, Note_on_c, 0, 45, 100
2, 6045412, Note_off_c, 0, 43, 100
2, 6045884, Note_on_c, 0, 48, 100
2, 6046591, Note_on_c, 0, 50, 100
2, 6047283, Note_on_c, 0, 52, 100
2, 6047762, Note_off_c, 0, 48, 100
2, 6048049, Note_on_c, 0, 56, 100
2, 6048208, Note_off_c, 0, 56, 100
2, 6048242, Note_off_c, 0, 50, 100
2, 6048257, Note_off_c, 0, 52, 100
2, 6048812, Note_on_c, 0, 59, 100
2, 6049557, Note_on_c, 0, 61, 100
2, 6049904, Note_off_c, 0, 59, 100
2, 6050276, Note_on_c, 0, 64, 100
2, 6050960, Note_on_c, 0, 66, 100
2, 6051297, Note_off_c, 0, 61, 100
2, 6051611, Note_on_c, 0, 67, 100
2, 6052200, Note_off_c, 0, 64, 100
2, 6052405, Note_off_c, 0, 67, 100
2, 6052405, Note_on_c, 0, 67, 100
2, 6052551, Note_off_c, 0, 67, 100
2, 6052575, Note_off_c, 0, 66, 100
2, 6053237, Note_on_c, 0, 67, 100
2, 6053985, Note_off_c, 0, 67, 100
2, 6054068, Note_on_c, 0, 66, 100
2, 6054879, Note_on_c, 0, 65, 100
2, 6055196, Note_off_c, 0, 66, 100
2, 6055654, Note_on_c, 0, 63, 100
2, 6056020, Note_off_c, 0, 65, 100
2, 6056381, Note_on_c, 0, 60, 100
2, 6056516, Note_off_c, 0, 63, 100
2, 6056843, Note_off_c, 0, 60, 100
2, 6057053, Note_on_c, 0, 57, 100
2, 6057184, Note_off_c, 0, 57, 100
2, 6057670, Note_on_c, 0, 55, 100
2, 6057862, Note_off_c, 0, 55, 100
2, 6058241, Note_on_c, 0, 52, 100
2, 6058346, Note_off_c, 0, 52, 100
2, 6058817, Note_on_c, 0, 50, 100
2, 6059119, Note_off_c, 0, 50, 100
2, 6059727, Note_on_c, 0, 47, 100
2, 6060212, Note_off_c, 0, 47, 100
2, 6060623, Note_off_c, 0, 45, 100
2, 6060623, Note_on_c, 0, 45, 100
2, 6061484, Note_on_c, 0, 44, 100
2, 6061693, Note_off_c, 0, 44, 100
2, 6062293, Note_on_c, 0, 43, 100
2, 6062767, Note_off_c, 0, 43, 100
2, 6063037, Note_on_c, 0, 43, 100
2, 6063712, Note_off_c, 0, 43, 100
2, 6063712, Note_on_c, 0, 43, 100
2, 6064324, Note_on_c, 0, 44, 100
2, 6064885, Note_off_c, 0, 45, 100
2, 6064885, Note_on_c, 0, 45, 100
2, 6065157, Note_off_c, 0, 43, 100
2, 6065415, Note_on_c, 0, 46, 100
2, 6065841, Note_off_c, 0, 44, 100
2, 6065845, Note_off_c, 0, 46, 100
2, 6066062, Note_on_c, 0, 48, 100
2, 6066732, Note_off_c, 0, 48, 100
2, 6066966, Note_on_c, 0, 50, 100
2, 6067833, Note_off_c, 0, 50, 100
2, 6067833, Note_on_c, 0, 50, 100
2, 6068650, Note_on_c, 0, 52, 100
2, 6069407, Note_on_c, 0, 53, 100
2, 6069794, Note_off_c, 0, 50, 100
2, 6070105, Note_on_c, 0, 54, 100
2, 6070583, Note_off_c, 0, 52, 100
2, 6070661, Note_off_c, 0, 54, 100
2, 6070751, Note_on_c, 0, 55, 100
2, 6070819, Note_off_c, 0, 53, 100
2, 6071315, Note_off_c, 0, 55, 100
2, 6071359, Note_on_c, 0, 55, 100
2, 6071948, Note_off_c, 0, 55, 100
2, 6071948, Note_on_c, 0, 55, 100
2, 6072535, Note_off_c, 0, 55, 100
2, 6072535, Note_on_c, 0, 55, 100
2, 6073259, Note_on_c, 0, 54, 100
2, 6074050, Note_off_c, 0, 55, 100
2, 6074064, Note_off_c, 0, 54, 100
2, 6074064, Note_on_c, 0, 54, 100
2, 6074504, Note_off_c, 0, 54, 100
2, 6074832, Note_on_c, 0, 53, 100
2, 6075125, Note_off_c, 0, 53, 100
2, 6075560, Note_on_c, 0, 52, 100
2, 6076158, Note_off_c, 0, 52, 100
2, 6076256, Note_on_c, 0, 52, 100
2, 6076876, Note_off_c, 0, 52, 100
2, 6076930, Note_on_c, 0, 51, 100
2, 6077363, Note_off_c, 0, 51, 100
2, 6077596, Note_on_c, 0, 51, 100
2, 6077788, Note_off_c, 0, 51, 100
2, 6078268, Note_on_c, 0, 52, 100
2, 6078397, Note_off_c, 0, 52, 100
2, 6078960, Note_on_c, 0, 52, 100
2, 6079102, Note_off_c, 0, 52, 100
2, 6079683, Note_on_c, 0, 53, 100
2, 6080103, Note_off_c, 0, 53, 100
2, 6080422, Note_on_c, 0, 55, 100
2, 6081194, Note_on_c, 0, 56, 100
2, 6081195, Note_off_c, 0, 55, 100
2, 6081981, Note_on_c, 0, 57, 100
2, 6082212, Note_off_c, 0, 56, 100
2, 6082771, Note_on_c, 0, 59, 100
2, 6082973, Note_off_c, 0, 57, 100
2, 6083391, Note_off_c, 0, 59, 100
2, 6083547, Note_on_c, 0, 60, 100
2, 6083778, Note_off_c, 0, 60, 100
2, 6084296, Note_on_c, 0, 61, 100
2, 6085006, Note_off_c, 0, 61, 100
2, 6085006, Note_on_c, 0, 61, 100
2, 6085671, Note_off_c, 0, 61, 100
2, 6085671, Note_on_c, 0, 61, 100
2, 6086294, Note_off_c, 0, 61, 100
2, 6086294, Note_on_c, 0, 61, 100
2, 6086881, Note_on_c, 0, 60, 100
2, 6087751, Note_on_c, 0, 59, 100
2, 6087847, Note_off_c, 0, 60, 100
2, 6087919, Note_off_c, 0, 59, 100
2, 6087939, Note_off_c, 0, 61, 100
2, 6088626, Note_on_c, 0, 57, 100
2, 6089482, Note_on_c, 0, 54, 100
2, 6089725, Note_off_c, 0, 57, 100
2, 6090299, Note_on_c, 0, 52, 100
2, 6091062, Note_on_c, 0, 50, 100
2, 6091228, Note_off_c, 0, 54, 100
2, 6091763, Note_on_c, 0, 47, 100
2, 6092226, Note_off_c, 0, 52, 100
2, 6092399, Note_off_c, 0, 45, 100
2, 6092399, Note_on_c, 0, 45, 100
2, 6092677, Note_off_c, 0, 50, 100
2, 6092699, Note_off_c, 0, 47, 100
2, 6092979, Note_on_c, 0, 42, 100
2, 6093518, Note_on_c, 0, 41, 100
2, 6093735, Note_off_c, 0, 42, 100
2, 6094123, Note_on_c, 0, 40, 100
2, 6094655, Note_off_c, 0, 41, 100
2, 6095043, Note_on_c, 0, 39, 100
2, 6095271, Note_off_c, 0, 40, 100
2, 6095910, Note_off_c, 0, 39, 100
2, 6095936, Note_on_c, 0, 39, 100
2, 6096400, Note_off_c, 0, 39, 100
2, 6096783, Note_on_c, 0, 40, 100
2, 6096913, Note_off_c, 0, 40, 100
2, 6097570, Note_on_c, 0, 42, 100
2, 6097767, Note_off_c, 0, 42, 100
2, 6098290, Note_on_c, 0, 44, 100
2, 6098402, Note_off_c, 0, 44, 100
2, 6098945, Note_on_c, 0, 46, 100
2, 6099238, Note_off_c, 0, 46, 100
2, 6099546, Note_on_c, 0, 49, 100
2, 6100022, Note_off_c, 0, 49, 100
2, 6100110, Note_on_c, 0, 51, 100
2, 6100583, Note_off_c, 0, 51, 100
2, 6100656, Note_on_c, 0, 55, 100
2, 6100861, Note_off_c, 0, 55, 100
2, 6101351, Note_on_c, 0, 58, 100
2, 6101827, Note_off_c, 0, 58, 100
2, 6102215, Note_on_c, 0, 60, 100
2, 6103038, Note_on_c, 0, 63, 100
2, 6103247, Note_off_c, 0, 60, 100
2, 6103813, Note_on_c, 0, 65, 100
2, 6104478, Note_off_c, 0, 63, 100
2, 6104538, Note_on_c, 0, 66, 100
2, 6105219, Note_off_c, 0, 66, 100
2, 6105219, Note_on_c, 0, 66, 100
2, 6105323, Note_off_c, 0, 65, 100
2, 6105689, Note_off_c, 0, 66, 100
2, 6105868, Note_on_c, 0, 66, 100
2, 6106500, Note_on_c, 0, 65, 100
2, 6106545, Note_off_c, 0, 66, 100
2, 6107132, Note_on_c, 0, 64, 100
2, 6107779, Note_on_c, 0, 62, 100
2, 6107993, Note_off_c, 0, 65, 100
2, 6108508, Note_on_c, 0, 60, 100
2, 6109094, Note_off_c, 0, 64, 100
2, 6109245, Note_on_c, 0, 57, 100
2, 6109710, Note_off_c, 0, 62, 100
2, 6109793, Note_off_c, 0, 57, 100
2, 6109914, Note_off_c, 0, 60, 100
2, 6109953, Note_on_c, 0, 55, 100
2, 6110526, Note_off_c, 0, 55, 100
2, 6110640, Note_on_c, 0, 53, 100
2, 6111406, Note_on_c, 0, 50, 100
2, 6111941, Note_off_c, 0, 53, 100
2, 6112169, Note_off_c, 0, 50, 100
2, 6112169, Note_on_c, 0, 50, 100
2, 6112915, Note_on_c, 0, 48, 100
2, 6113633, Note_on_c, 0, 47, 100
2, 6113688, Note_off_c, 0, 50, 100
2, 6113969, Note_off_c, 0, 48, 100
2, 6114070, Note_off_c, 0, 47, 100
2, 6114318, Note_on_c, 0, 47, 100
2, 6114617, Note_off_c, 0, 47, 100
2, 6114969, Note_on_c, 0, 47, 100
2, 6115575, Note_off_c, 0, 47, 100
2, 6115766, Note_on_c, 0, 47, 100
2, 6116395, Note_off_c, 0, 47, 100
2, 6116597, Note_on_c, 0, 48, 100
2, 6117037, Note_off_c, 0, 48, 100
2, 6117427, Note_on_c, 0, 49, 100
2, 6117625, Note_off_c, 0, 49, 100
2, 6118238, Note_on_c, 0, 50, 100
2, 6118364, Note_off_c, 0, 50, 100
2, 6119013, Note_on_c, 0, 50, 100
2, 6119155, Note_off_c, 0, 50, 100
2, 6119739, Note_on_c, 0, 51, 100
2, 6120156, Note_off_c, 0, 51, 100
2, 6120410, Note_on_c, 0, 52, 100
2, 6121027, Note_off_c, 0, 52, 100
2, 6121027, Note_on_c, 0, 52, 100
2, 6121598, Note_on_c, 0, 53, 100
2, 6122038, Note_off_c, 0, 52, 100
2, 6122180, Note_off_c, 0, 53, 100
2, 6122180, Note_on_c, 0, 53, 100
2, 6122792, Note_off_c, 0, 53, 100
2, 6123089, Note_on_c, 0, 52, 100
2, 6123326, Note_off_c, 0, 52, 100
2, 6123985, Note_on_c, 0, 52, 100
2, 6124845, Note_on_c, 0, 51, 100
2, 6124984, Note_off_c, 0, 52, 100
2, 6125653, Note_on_c, 0, 50, 100
2, 6126396, Note_off_c, 0, 50, 100
2, 6126396, Note_on_c, 0, 50, 100
2, 6126463, Note_off_c, 0, 51, 100
2, 6127071, Note_off_c, 0, 50, 100
2, 6127071, Note_on_c, 0, 50, 100
2, 6127682, Note_on_c, 0, 49, 100
2, 6127858, Note_off_c, 0, 49, 100
2, 6128034, Note_off_c, 0, 50, 100
2, 6128243, Note_on_c, 0, 49, 100
2, 6128773, Note_off_c, 0, 49, 100
2, 6128773, Note_on_c, 0, 49, 100
2, 6129425, Note_off_c, 0, 49, 100
2, 6129425, Note_on_c, 0, 49, 100
2, 6130328, Note_on_c, 0, 50, 100
2, 6131196, Note_off_c, 0, 50, 100
2, 6131196, Note_on_c, 0, 50, 100
2, 6131354, Note_off_c, 0, 49, 100
2, 6132012, Note_on_c, 0, 52, 100
2, 6132128, Note_off_c, 0, 50, 100
2, 6132130, Note_off_c, 0, 52, 100
2, 6132769, Note_on_c, 0, 54, 100
2, 6133467, Note_on_c, 0, 56, 100
2, 6133533, Note_off_c, 0, 54, 100
2, 6134112, Note_on_c, 0, 58, 100
2, 6134612, Note_off_c, 0, 56, 100
2, 6134719, Note_on_c, 0, 60, 100
2, 6135268, Note_off_c, 0, 58, 100
2, 6135307, Note_on_c, 0, 62, 100
2, 6135591, Note_off_c, 0, 60, 100
2, 6135773, Note_off_c, 0, 62, 100
2, 6135894, Note_on_c, 0, 63, 100
2, 6136022, Note_off_c, 0, 63, 100
2, 6136621, Note_on_c, 0, 64, 100
2, 6136822, Note_off_c, 0, 64, 100
2, 6137427, Note_on_c, 0, 65, 100
2, 6137546, Note_off_c, 0, 65, 100
2, 6138194, Note_on_c, 0, 65, 100
2, 6138479, Note_off_c, 0, 65, 100
2, 6138923, Note_on_c, 0, 64, 100
2, 6139391, Note_off_c, 0, 64, 100
2, 6139619, Note_on_c, 0, 63, 100
2, 6140085, Note_off_c, 0, 63, 100
2, 6140293, Note_on_c, 0, 61, 100
2, 6140493, Note_off_c, 0, 61, 100
2, 6140958, Note_on_c, 0, 58, 100
2, 6141435, Note_off_c, 0, 58, 100
2, 6141630, Note_on_c, 0, 56, 100
2, 6142320, Note_on_c, 0, 52, 100
2, 6142660, Note_off_c, 0, 56, 100
2, 6143043, Note_on_c, 0, 50, 100
2, 6143755, Note_off_c, 0, 52, 100
2, 6143782, Note_on_c, 0, 47, 100
2, 6144545, Note_off_c, 0, 50, 100
2, 6144553, Note_off_c, 0, 45, 100
2, 6144553, Note_on_c, 0, 45, 100
2, 6144925, Note_off_c, 0, 47, 100
2, 6145340, Note_on_c, 0, 42, 100
2, 6146024, Note_off_c, 0, 42, 100
2, 6146129, Note_on_c, 0, 40, 100
2, 6146905, Note_on_c, 0, 39, 100
2, 6147626, Note_off_c, 0, 40, 100
2, 6147653, Note_off_c, 0, 39, 100
2, 6147653, Note_on_c, 0, 39, 100
2, 6148363, Note_off_c, 0, 39, 100
2, 6148363, Note_on_c, 0, 39, 100
2, 6149029, Note_on_c, 0, 40, 100
2, 6149570, Note_off_c, 0, 40, 100
2, 6149651, Note_on_c, 0, 41, 100
2, 6149764, Note_off_c, 0, 39, 100
2, 6150232, Note_off_c, 0, 41, 100
2, 6150240, Note_on_c, 0, 43, 100
2, 6151113, Note_on_c, 0, 46, 100
2, 6151549, Note_off_c, 0, 43, 100
2, 6151987, Note_on_c, 0, 49, 100
2, 6152753, Note_off_c, 0, 46, 100
2, 6152842, Note_on_c, 0, 51, 100
2, 6153510, Note_off_c, 0, 49, 100
2, 6153658, Note_on_c, 0, 53, 100
2, 6153896, Note_off_c, 0, 51, 100
2, 6154092, Note_off_c, 0, 53, 100
2, 6154421, Note_on_c, 0, 56, 100
2, 6154725, Note_off_c, 0, 56, 100
2, 6155121, Note_on_c, 0, 59, 100
2, 6155735, Note_off_c, 0, 59, 100
2, 6155757, Note_on_c, 0, 61, 100
2, 6156337, Note_on_c, 0, 62, 100
2, 6156394, Note_off_c, 0, 61, 100
2, 6156785, Note_off_c, 0, 62, 100
2, 6156875, Note_on_c, 0, 63, 100
2, 6157079, Note_off_c, 0, 63, 100
2, 6157486, Note_on_c, 0, 63, 100
2, 6157608, Note_off_c, 0, 63, 100
2, 6158405, Note_on_c, 0, 63, 100
2, 6158547, Note_off_c, 0, 63, 100
2, 6159298, Note_on_c, 0, 62, 100
2, 6159711, Note_off_c, 0, 62, 100
2, 6160145, Note_on_c, 0, 61, 100
2, 6160905, Note_off_c, 0, 61, 100
2, 6160931, Note_on_c, 0, 60, 100
2, 6161650, Note_on_c, 0, 58, 100
2, 6161934, Note_off_c, 0, 60, 100
2, 6162305, Note_on_c, 0, 56, 100
2, 6162625, Note_off_c, 0, 58, 100
2, 6162905, Note_on_c, 0, 55, 100
2, 6162909, Note_off_c, 0, 56, 100
2, 6163148, Note_off_c, 0, 55, 100
2, 6163468, Note_on_c, 0, 53, 100
2, 6164014, Note_on_c, 0, 52, 100
2, 6164470, Note_off_c, 0, 53, 100
2, 6164714, Note_on_c, 0, 51, 100
2, 6165577, Note_on_c, 0, 50, 100
2, 6165632, Note_off_c, 0, 52, 100
2, 6166401, Note_off_c, 0, 50, 100
2, 6166401, Note_on_c, 0, 50, 100
2, 6166581, Note_off_c, 0, 51, 100
2, 6167176, Note_off_c, 0, 50, 100
2, 6167176, Note_on_c, 0, 50, 100
2, 6167361, Note_off_c, 0, 50, 100
2, 6167900, Note_on_c, 0, 50, 100
2, 6168581, Note_on_c, 0, 51, 100
2, 6169014, Note_off_c, 0, 50, 100
2, 6169230, Note_off_c, 0, 51, 100
2, 6169230, Note_on_c, 0, 51, 100
2, 6169861, Note_on_c, 0, 52, 100
2, 6170493, Note_on_c, 0, 53, 100
2, 6171138, Note_off_c, 0, 53, 100
2, 6171138, Note_on_c, 0, 53, 100
2, 6171162, Note_off_c, 0, 51, 100
2, 6171420, Note_off_c, 0, 53, 100
2, 6171474, Note_off_c, 0, 52, 100
2, 6171869, Note_on_c, 0, 54, 100
2, 6172607, Note_off_c, 0, 54, 100
2, 6172607, Note_on_c, 0, 54, 100
2, 6173315, Note_on_c, 0, 53, 100
2, 6173761, Note_off_c, 0, 54, 100
2, 6174001, Note_on_c, 0, 52, 100
2, 6174478, Note_off_c, 0, 53, 100
2, 6174763, Note_off_c, 0, 52, 100
2, 6174763, Note_on_c, 0, 52, 100
2, 6175231, Note_off_c, 0, 52, 100
2, 6175526, Note_on_c, 0, 50, 100
2, 6175653, Note_off_c, 0, 50, 100
2, 6176272, Note_on_c, 0, 50, 100
2, 6176478, Note_off_c, 0, 50, 100
2, 6176991, Note_on_c, 0, 49, 100
2, 6177117, Note_off_c, 0, 49, 100
2, 6177676, Note_on_c, 0, 47, 100
2, 6177953, Note_off_c, 0, 47, 100
2, 6178328, Note_on_c, 0, 46, 100
2, 6178788, Note_off_c, 0, 46, 100
2, 6179126, Note_off_c, 0, 45, 100
2, 6179126, Note_on_c, 0, 45, 100
2, 6179957, Note_off_c, 0, 45, 100
2, 6179957, Note_on_c, 0, 45, 100
2, 6180786, Note_off_c, 0, 45, 100
2, 6180786, Note_on_c, 0, 45, 100
2, 6181596, Note_off_c, 0, 45, 100
2, 6181596, Note_on_c, 0, 45, 100
2, 6182371, Note_on_c, 0, 46, 100
2, 6183097, Note_on_c, 0, 48, 100
2, 6183767, Note_on_c, 0, 49, 100
2, 6183801, Note_off_c, 0, 46, 100
2, 6184384, Note_on_c, 0, 51, 100
2, 6184592, Note_off_c, 0, 48, 100
2, 6184789, Note_off_c, 0, 51, 100
2, 6184901, Note_off_c, 0, 49, 100
2, 6184955, Note_on_c, 0, 53, 100
2, 6185542, Note_on_c, 0, 56, 100
2, 6185645, Note_off_c, 0, 53, 100
2, 6186451, Note_on_c, 0, 59, 100
2, 6187043, Note_off_c, 0, 56, 100
2, 6187346, Note_on_c, 0, 61, 100
2, 6188206, Note_on_c, 0, 64, 100
2, 6188414, Note_off_c, 0, 59, 100
2, 6189014, Note_on_c, 0, 65, 100
2, 6189272, Note_off_c, 0, 61, 100
2, 6189547, Note_off_c, 0, 65, 100
2, 6189601, Note_off_c, 0, 64, 100
2, 6189756, Note_on_c, 0, 66, 100
2, 6190346, Note_off_c, 0, 66, 100
2, 6190430, Note_on_c, 0, 67, 100
2, 6191040, Note_off_c, 0, 67, 100
2, 6191040, Note_on_c, 0, 67, 100
2, 6191601, Note_on_c, 0, 66, 100
2, 6192130, Note_on_c, 0, 64, 100
2, 6192686, Note_off_c, 0, 67, 100
2, 6192788, Note_on_c, 0, 62, 100
2, 6193128, Note_off_c, 0, 66, 100
2, 6193185, Note_off_c, 0, 64, 100
2, 6193219, Note_off_c, 0, 62, 100
2, 6193691, Note_on_c, 0, 60, 100
2, 6194001, Note_off_c, 0, 60, 100
2, 6194559, Note_on_c, 0, 57, 100
2, 6195181, Note_off_c, 0, 57, 100
2, 6195375, Note_on_c, 0, 54, 100
2, 6196021, Note_off_c, 0, 54, 100
2, 6196131, Note_on_c, 0, 50, 100
2, 6196587, Note_off_c, 0, 50, 100
2, 6196828, Note_on_c, 0, 48, 100
2, 6197038, Note_off_c, 0, 48, 100
2, 6197473, Note_on_c, 0, 46, 100
2, 6197592, Note_off_c, 0, 46, 100
2, 6198079, Note_on_c, 0, 43, 100
2, 6198221, Note_off_c, 0, 43, 100
2, 6198666, Note_on_c, 0, 41, 100
2, 6199076, Note_off_c, 0, 41, 100
2, 6199253, Note_on_c, 0, 40, 100
2, 6199983, Note_off_c, 0, 40, 100
2, 6199983, Note_on_c, 0, 40, 100
2, 6200789, Note_off_c, 0, 40, 100
2, 6200789, Note_on_c, 0, 40, 100
2, 6201557, Note_on_c, 0, 41, 100
2, 6201756, Note_off_c, 0, 40, 100
2, 6202153, Note_off_c, 0, 41, 100
2, 6202286, Note_on_c, 0, 42, 100
2, 6202534, Note_off_c, 0, 42, 100
2, 6202982, Note_on_c, 0, 44, 100
2, 6203655, Note_on_c, 0, 46, 100
2, 6203987, Note_off_c, 0, 44, 100
2, 6204320, Note_on_c, 0, 49, 100
2, 6204991, Note_on_c, 0, 50, 100
2, 6205272, Note_off_c, 0, 46, 100
2, 6205681, Note_on_c, 0, 53, 100
2, 6206183, Note_off_c, 0, 49, 100
2, 6206402, Note_on_c, 0, 55, 100
2, 6206595, Note_off_c, 0, 55, 100
2, 6206616, Note_off_c, 0, 50, 100
2, 6206623, Note_off_c, 0, 53, 100
2, 6207142, Note_on_c, 0, 57, 100
2, 6207912, Note_on_c, 0, 58, 100
2, 6208264, Note_off_c, 0, 57, 100
2, 6208698, Note_on_c, 0, 59, 100
2, 6209486, Note_off_c, 0, 59, 100
2, 6209486, Note_on_c, 0, 59, 100
2, 6209674, Note_off_c, 0, 58, 100
2, 6210262, Note_off_c, 0, 59, 100
2, 6210262, Note_on_c, 0, 59, 100
2, 6211010, Note_off_c, 0, 59, 100
2, 6211010, Note_on_c, 0, 59, 100
2, 6211185, Note_off_c, 0, 59, 100
2, 6211720, Note_on_c, 0, 58, 100
2, 6212386, Note_on_c, 0, 57, 100
2, 6212501, Note_off_c, 0, 58, 100
2, 6213009, Note_on_c, 0, 56, 100
2, 6213548, Note_off_c, 0, 57, 100
2, 6213602, Note_on_c, 0, 55, 100
2, 6214179, Note_off_c, 0, 56, 100
2, 6214474, Note_on_c, 0, 54, 100
2, 6214484, Note_off_c, 0, 55, 100
2, 6214944, Note_off_c, 0, 54, 100
2, 6215348, Note_on_c, 0, 53, 100
2, 6215473, Note_off_c, 0, 53, 100
2, 6216202, Note_on_c, 0, 53, 100
2, 6216413, Note_off_c, 0, 53, 100
2, 6217018, Note_on_c, 0, 52, 100
2, 6217151, Note_off_c, 0, 52, 100
2, 6217780, Note_on_c, 0, 52, 100
2, 6218048, Note_off_c, 0, 52, 100
2, 6218479, Note_on_c, 0, 53, 100
2, 6218930, Note_off_c, 0, 53, 100
2, 6219114, Note_on_c, 0, 53, 100
2, 6219566, Note_off_c, 0, 53, 100
2, 6219694, Note_on_c, 0, 54, 100
2, 6219885, Note_off_c, 0, 54, 100
2, 6220232, Note_on_c, 0, 55, 100
2, 6220712, Note_off_c, 0, 55, 100
2, 6220849, Note_on_c, 0, 56, 100
2, 6221768, Note_off_c, 0, 56, 100
2, 6221768, Note_on_c, 0, 56, 100
2, 6222661, Note_on_c, 0, 57, 100
2, 6223193, Note_off_c, 0, 56, 100
2, 6223507, Note_off_c, 0, 57, 100
2, 6223507, Note_on_c, 0, 57, 100
2, 6224292, Note_off_c, 0, 57, 100
2, 6224292, Note_on_c, 0, 57, 100
2, 6224689, Note_off_c, 0, 57, 100
2, 6225011, Note_on_c, 0, 57, 100
2, 6225665, Note_on_c, 0, 56, 100
2, 6225708, Note_off_c, 0, 57, 100
2, 6226264, Note_on_c, 0, 55, 100
2, 6226826, Note_on_c, 0, 53, 100
2, 6227170, Note_off_c, 0, 56, 100
2, 6227372, Note_on_c, 0, 51, 100
2, 6228076, Note_on_c, 0, 50, 100
2, 6228228, Note_off_c, 0, 55, 100
2, 6228601, Note_off_c, 0, 50, 100
2, 6228750, Note_off_c, 0, 53, 100
2, 6228762, Note_off_c, 0, 51, 100
2, 6228940, Note_on_c, 0, 48, 100
2, 6229538, Note_off_c, 0, 48, 100
2, 6229764, Note_on_c, 0, 46, 100
2, 6230538, Note_on_c, 0, 44, 100
2, 6231089, Note_off_c, 0, 46, 100
2, 6231263, Note_on_c, 0, 43, 100
2, 6231943, Note_on_c, 0, 42, 100
2, 6232191, Note_off_c, 0, 44, 100
2, 6232591, Note_on_c, 0, 41, 100
2, 6232793, Note_off_c, 0, 43, 100
2, 6232998, Note_off_c, 0, 42, 100
2, 6233019, Note_off_c, 0, 41, 100
2, 6233222, Note_on_c, 0, 41, 100
2, 6233538, Note_off_c, 0, 41, 100
2, 6233853, Note_on_c, 0, 42, 100
2, 6234482, Note_off_c, 0, 42, 100
2, 6234498, Note_on_c, 0, 43, 100
2, 6235152, Note_off_c, 0, 43, 100
2, 6235230, Note_off_c, 0, 45, 100
2, 6235230, Note_on_c, 0, 45, 100
2, 6235969, Note_on_c, 0, 48, 100
2, 6236185, Note_off_c, 0, 48, 100
2, 6236678, Note_on_c, 0, 50, 100
2, 6236794, Note_off_c, 0, 50, 100
2, 6237364, Note_on_c, 0, 53, 100
2, 6237506, Note_off_c, 0, 53, 100
2, 6238120, Note_on_c, 0, 56, 100
2, 6238526, Note_off_c, 0, 56, 100
2, 6238883, Note_on_c, 0, 59, 100
2, 6239630, Note_on_c, 0, 61, 100
2, 6239631, Note_off_c, 0, 59, 100
2, 6240349, Note_on_c, 0, 64, 100
2, 6240617, Note_off_c, 0, 61, 100
2, 6241035, Note_on_c, 0, 66, 100
2, 6241307, Note_off_c, 0, 64, 100
2, 6241624, Note_off_c, 0, 66, 100
2, 6241687, Note_on_c, 0, 67, 100
2, 6241941, Note_off_c, 0, 67, 100
2, 6242487, Note_on_c, 0, 67, 100
2, 6243317, Note_off_c, 0, 67, 100
2, 6243317, Note_on_c, 0, 67, 100
2, 6244145, Note_on_c, 0, 66, 100
2, 6244934, Note_off_c, 0, 67, 100
2, 6244955, Note_on_c, 0, 65, 100
2, 6245728, Note_on_c, 0, 63, 100
2, 6246004, Note_off_c, 0, 66, 100
2, 6246454, Note_on_c, 0, 60, 100
2, 6246574, Note_off_c, 0, 65, 100
2, 6246656, Note_off_c, 0, 60, 100
2, 6246661, Note_off_c, 0, 63, 100
2, 6247125, Note_on_c, 0, 57, 100
2, 6247741, Note_on_c, 0, 54, 100
2, 6248254, Note_off_c, 0, 57, 100
2, 6248313, Note_on_c, 0, 51, 100
2, 6248905, Note_on_c, 0, 50, 100
2, 6249508, Note_off_c, 0, 54, 100
2, 6249813, Note_on_c, 0, 47, 100
2, 6250249, Note_off_c, 0, 51, 100
2, 6250515, Note_off_c, 0, 50, 100
2, 6250708, Note_off_c, 0, 45, 100
2, 6250708, Note_on_c, 0, 45, 100
2, 6250732, Note_off_c, 0, 47, 100
2, 6251567, Note_on_c, 0, 44, 100
2, 6252356, Note_off_c, 0, 44, 100
2, 6252374, Note_on_c, 0, 43, 100
2, 6253115, Note_off_c, 0, 43, 100
2, 6253115, Note_on_c, 0, 43, 100
2, 6253789, Note_off_c, 0, 43, 100
2, 6253789, Note_on_c, 0, 43, 100
2, 6254399, Note_on_c, 0, 44, 100
2, 6254676, Note_off_c, 0, 43, 100
2, 6254871, Note_off_c, 0, 44, 100
2, 6254958, Note_off_c, 0, 45, 100
2, 6254958, Note_on_c, 0, 45, 100
2, 6255487, Note_on_c, 0, 46, 100
2, 6255702, Note_off_c, 0, 46, 100
2, 6256151, Note_on_c, 0, 48, 100
2, 6256291, Note_off_c, 0, 48, 100
2, 6257054, Note_on_c, 0, 50, 100
2, 6257314, Note_off_c, 0, 50, 100
2, 6257921, Note_on_c, 0, 50, 100
2, 6258364, Note_off_c, 0, 50, 100
2, 6258737, Note_on_c, 0, 52, 100
2, 6259182, Note_off_c, 0, 52, 100
2, 6259493, Note_on_c, 0, 53, 100
2, 6259680, Note_off_c, 0, 53, 100
2, 6260189, Note_on_c, 0, 54, 100
2, 6260670, Note_off_c, 0, 54, 100
2, 6260833, Note_on_c, 0, 55, 100
2, 6261439, Note_off_c, 0, 55, 100
2, 6261439, Note_on_c, 0, 55, 100
2, 6262026, Note_off_c, 0, 55, 100
2, 6262026, Note_on_c, 0, 55, 100
2, 6262611, Note_off_c, 0, 55, 100
2, 6262611, Note_on_c, 0, 55, 100
2, 6263345, Note_on_c, 0, 54, 100
2, 6263729, Note_off_c, 0, 55, 100
2, 6263734, Note_off_c, 0, 54, 100
2, 6264151, Note_on_c, 0, 54, 100
2, 6264855, Note_off_c, 0, 54, 100
2, 6264920, Note_on_c, 0, 53, 100
2, 6265649, Note_on_c, 0, 52, 100
2, 6266345, Note_off_c, 0, 52, 100
2, 6266345, Note_on_c, 0, 52, 100
2, 6266429, Note_off_c, 0, 53, 100
2, 6267018, Note_on_c, 0, 51, 100
2, 6267682, Note_off_c, 0, 52, 100
2, 6267682, Note_on_c, 0, 52, 100
2, 6268266, Note_off_c, 0, 52, 100
2, 6268353, Note_on_c, 0, 52, 100
2, 6268402, Note_off_c, 0, 51, 100
2, 6268960, Note_off_c, 0, 52, 100
2, 6269042, Note_on_c, 0, 53, 100
2, 6269762, Note_off_c, 0, 53, 100
2, 6269762, Note_on_c, 0, 53, 100
2, 6270501, Note_on_c, 0, 55, 100
2, 6271271, Note_on_c, 0, 56, 100
2, 6271421, Note_off_c, 0, 53, 100
2, 6272035, Note_off_c, 0, 55, 100
2, 6272056, Note_on_c, 0, 57, 100
2, 6272326, Note_off_c, 0, 56, 100
2, 6272481, Note_off_c, 0, 57, 100
2, 6272844, Note_on_c, 0, 59, 100
2, 6273166, Note_off_c, 0, 59, 100
2, 6273620, Note_on_c, 0, 60, 100
2, 6274257, Note_off_c, 0, 60, 100
2, 6274368, Note_on_c, 0, 61, 100
2, 6275031, Note_off_c, 0, 61, 100
2, 6275077, Note_on_c, 0, 61, 100
2, 6275549, Note_off_c, 0, 61, 100
2, 6275743, Note_on_c, 0, 61, 100
2, 6275965, Note_off_c, 0, 61, 100
2, 6276366, Note_on_c, 0, 61, 100
2, 6276479, Note_off_c, 0, 61, 100
2, 6276964, Note_on_c, 0, 60, 100
2, 6277106, Note_off_c, 0, 60, 100
2, 6277835, Note_on_c, 0, 58, 100
2, 6278238, Note_off_c, 0, 58, 100
2, 6278708, Note_on_c, 0, 56, 100
2, 6279450, Note_off_c, 0, 56, 100
2, 6279562, Note_on_c, 0, 54, 100
2, 6280377, Note_on_c, 0, 52, 100
2, 6280541, Note_off_c, 0, 54, 100
2, 6281138, Note_on_c, 0, 50, 100
2, 6281327, Note_off_c, 0, 52, 100
2, 6281719, Note_off_c, 0, 50, 100
2, 6281837, Note_on_c, 0, 47, 100
2, 6282097, Note_off_c, 0, 47, 100
2, 6282472, Note_off_c, 0, 45, 100
2, 6282472, Note_on_c, 0, 45, 100
2, 6283051, Note_on_c, 0, 42, 100
2, 6283589, Note_on_c, 0, 41, 100
2, 6284212, Note_on_c, 0, 40, 100
2, 6284667, Note_off_c, 0, 42, 100
2, 6285131, Note_on_c, 0, 39, 100
2, 6285444, Note_off_c, 0, 41, 100
2, 6285824, Note_off_c, 0, 40, 100
2, 6286023, Note_off_c, 0, 39, 100
2, 6286023, Note_on_c, 0, 39, 100
2, 6286233, Note_off_c, 0, 39, 100
2, 6286869, Note_on_c, 0, 40, 100
2, 6287653, Note_on_c, 0, 42, 100
2, 6288006, Note_off_c, 0, 40, 100
2, 6288371, Note_on_c, 0, 44, 100
2, 6289024, Note_on_c, 0, 46, 100
2, 6289425, Note_off_c, 0, 42, 100
2, 6289623, Note_on_c, 0, 49, 100
2, 6290185, Note_on_c, 0, 52, 100
2, 6290286, Note_off_c, 0, 52, 100
2, 6290309, Note_off_c, 0, 44, 100
2, 6290537, Note_off_c, 0, 49, 100
2, 6290633, Note_off_c, 0, 46, 100
2, 6290730, Note_on_c, 0, 55, 100
2, 6291439, Note_on_c, 0, 58, 100
2, 6291527, Note_off_c, 0, 55, 100
2, 6292303, Note_on_c, 0, 61, 100
2, 6292618, Note_off_c, 0, 58, 100
2, 6293127, Note_on_c, 0, 63, 100
2, 6293487, Note_off_c, 0, 61, 100
2, 6293901, Note_on_c, 0, 65, 100
2, 6294019, Note_off_c, 0, 63, 100
2, 6294374, Note_off_c, 0, 65, 100
2, 6294625, Note_on_c, 0, 66, 100
2, 6294747, Note_off_c, 0, 66, 100
2, 6295305, Note_on_c, 0, 66, 100
2, 6295525, Note_off_c, 0, 66, 100
2, 6295953, Note_on_c, 0, 66, 100
2, 6296100, Note_off_c, 0, 66, 100
2, 6296583, Note_on_c, 0, 65, 100
2, 6296835, Note_off_c, 0, 65, 100
2, 6297213, Note_on_c, 0, 64, 100
2, 6297648, Note_off_c, 0, 64, 100
2, 6297857, Note_on_c, 0, 62, 100
2, 6298295, Note_off_c, 0, 62, 100
2, 6298592, Note_on_c, 0, 60, 100
2, 6298774, Note_off_c, 0, 60, 100
2, 6299331, Note_on_c, 0, 57, 100
2, 6299814, Note_off_c, 0, 57, 100
2, 6300040, Note_on_c, 0, 55, 100
2, 6300726, Note_on_c, 0, 52, 100
2, 6301062, Note_off_c, 0, 55, 100
2, 6301478, Note_on_c, 0, 50, 100
2, 6302141, Note_off_c, 0, 52, 100
2, 6302240, Note_on_c, 0, 49, 100
2, 6302951, Note_off_c, 0, 50, 100
2, 6302987, Note_on_c, 0, 48, 100
2, 6303349, Note_off_c, 0, 49, 100
2, 6303368, Note_off_c, 0, 48, 100
2, 6303706, Note_on_c, 0, 47, 100
2, 6304393, Note_off_c, 0, 47, 100
2, 6304393, Note_on_c, 0, 47, 100
2, 6305046, Note_on_c, 0, 46, 100
2, 6305847, Note_off_c, 0, 47, 100
2, 6305847, Note_on_c, 0, 47, 100
2, 6306676, Note_on_c, 0, 48, 100
2, 6307012, Note_off_c, 0, 46, 100
2, 6307504, Note_off_c, 0, 48, 100
2, 6307504, Note_on_c, 0, 48, 100
2, 6307766, Note_off_c, 0, 47, 100
2, 6308055, Note_off_c, 0, 48, 100
2, 6308313, Note_on_c, 0, 50, 100
2, 6308928, Note_off_c, 0, 50, 100
2, 6309086, Note_on_c, 0, 50, 100
2, 6309812, Note_on_c, 0, 51, 100
2, 6310427, Note_off_c, 0, 50, 100
2, 6310482, Note_on_c, 0, 52, 100
2, 6311099, Note_off_c, 0, 52, 100
2, 6311099, Note_on_c, 0, 52, 100
2, 6311477, Note_off_c, 0, 51, 100
2, 6311670, Note_on_c, 0, 53, 100
2, 6312092, Note_off_c, 0, 53, 100
2, 6312154, Note_off_c, 0, 52, 100
2, 6312267, Note_on_c, 0, 53, 100
2, 6312595, Note_off_c, 0, 53, 100
2, 6313175, Note_on_c, 0, 52, 100
2, 6313820, Note_off_c, 0, 52, 100
2, 6314069, Note_on_c, 0, 52, 100
2, 6314740, Note_off_c, 0, 52, 100
2, 6314928, Note_on_c, 0, 51, 100
2, 6315408, Note_off_c, 0, 51, 100
2, 6315734, Note_on_c, 0, 50, 100
2, 6315962, Note_off_c, 0, 50, 100
2, 6316475, Note_on_c, 0, 50, 100
2, 6316585, Note_off_c, 0, 50, 100
2, 6317148, Note_on_c, 0, 50, 100
2, 6317290, Note_off_c, 0, 50, 100
2, 6317757, Note_on_c, 0, 49, 100
2, 6318156, Note_off_c, 0, 49, 100
2, 6318316, Note_on_c, 0, 49, 100
2, 6318845, Note_off_c, 0, 49, 100
2, 6318845, Note_on_c, 0, 49, 100
2, 6319513, Note_off_c, 0, 49, 100
2, 6319513, Note_on_c, 0, 49, 100
2, 6320417, Note_on_c, 0, 50, 100
2, 6320454, Note_off_c, 0, 49, 100
2, 6320991, Note_off_c, 0, 50, 100
2, 6321284, Note_on_c, 0, 50, 100
2, 6321549, Note_off_c, 0, 50, 100
2, 6322100, Note_on_c, 0, 52, 100
2, 6322855, Note_on_c, 0, 54, 100
2, 6323112, Note_off_c, 0, 52, 100
2, 6323551, Note_on_c, 0, 56, 100
2, 6324194, Note_on_c, 0, 58, 100
2, 6324470, Note_off_c, 0, 54, 100
2, 6324799, Note_on_c, 0, 60, 100
2, 6325385, Note_on_c, 0, 62, 100
2, 6325402, Note_off_c, 0, 56, 100
2, 6325604, Note_off_c, 0, 62, 100
2, 6325716, Note_off_c, 0, 60, 100
2, 6325800, Note_off_c, 0, 58, 100
2, 6325970, Note_on_c, 0, 63, 100
2, 6326707, Note_on_c, 0, 64, 100
2, 6327114, Note_off_c, 0, 63, 100
2, 6327514, Note_on_c, 0, 65, 100
2, 6328282, Note_off_c, 0, 65, 100
2, 6328282, Note_on_c, 0, 65, 100
2, 6328484, Note_off_c, 0, 64, 100
2, 6329012, Note_on_c, 0, 64, 100
2, 6329707, Note_on_c, 0, 63, 100
2, 6329814, Note_off_c, 0, 63, 100
2, 6329890, Note_off_c, 0, 65, 100
2, 6329922, Note_off_c, 0, 64, 100
2, 6330380, Note_on_c, 0, 61, 100
2, 6331045, Note_on_c, 0, 58, 100
2, 6331186, Note_off_c, 0, 61, 100
2, 6331715, Note_on_c, 0, 55, 100
2, 6332232, Note_off_c, 0, 58, 100
2, 6332403, Note_on_c, 0, 52, 100
2, 6332907, Note_off_c, 0, 55, 100
2, 6333122, Note_on_c, 0, 50, 100
2, 6333300, Note_off_c, 0, 52, 100
2, 6333597, Note_off_c, 0, 50, 100
2, 6333861, Note_on_c, 0, 47, 100
2, 6333981, Note_off_c, 0, 47, 100
2, 6334630, Note_on_c, 0, 44, 100
2, 6334855, Note_off_c, 0, 44, 100
2, 6335415, Note_on_c, 0, 42, 100
2, 6335569, Note_off_c, 0, 42, 100
2, 6336202, Note_on_c, 0, 40, 100
2, 6336445, Note_off_c, 0, 40, 100
2, 6336977, Note_on_c, 0, 39, 100
2, 6337404, Note_off_c, 0, 39, 100
2, 6337725, Note_on_c, 0, 39, 100
2, 6338156, Note_off_c, 0, 39, 100
2, 6338435, Note_on_c, 0, 39, 100
2, 6338613, Note_off_c, 0, 39, 100
2, 6339101, Note_on_c, 0, 40, 100
2, 6339585, Note_off_c, 0, 40, 100
2, 6339724, Note_on_c, 0, 41, 100
2, 6340326, Note_on_c, 0, 43, 100
2, 6340744, Note_off_c, 0, 41, 100
2, 6341197, Note_on_c, 0, 46, 100
2, 6341735, Note_off_c, 0, 43, 100
2, 6342069, Note_on_c, 0, 49, 100
2, 6342663, Note_off_c, 0, 46, 100
2, 6342922, Note_on_c, 0, 51, 100
2, 6343170, Note_off_c, 0, 49, 100
2, 6343295, Note_off_c, 0, 51, 100
2, 6343736, Note_on_c, 0, 54, 100
2, 6344453, Note_off_c, 0, 54, 100
2, 6344497, Note_on_c, 0, 56, 100
2, 6345195, Note_on_c, 0, 59, 100
2, 6345830, Note_on_c, 0, 61, 100
2, 6346014, Note_off_c, 0, 56, 100
2, 6346409, Note_on_c, 0, 62, 100
2, 6346947, Note_on_c, 0, 63, 100
2, 6347161, Note_off_c, 0, 59, 100
2, 6347449, Note_off_c, 0, 63, 100
2, 6347575, Note_on_c, 0, 63, 100
2, 6347746, Note_off_c, 0, 61, 100
2, 6347782, Note_off_c, 0, 62, 100
2, 6348199, Note_off_c, 0, 63, 100
2, 6348493, Note_on_c, 0, 63, 100
2, 6349385, Note_on_c, 0, 62, 100
2, 6349842, Note_off_c, 0, 63, 100
2, 6350230, Note_on_c, 0, 61, 100
2, 6351014, Note_on_c, 0, 60, 100
2, 6351056, Note_off_c, 0, 62, 100
2, 6351732, Note_on_c, 0, 58, 100
2, 6351771, Note_off_c, 0, 61, 100
2, 6352069, Note_off_c, 0, 60, 100
2, 6352151, Note_off_c, 0, 58, 100
2, 6352384, Note_on_c, 0, 56, 100
2, 6352718, Note_off_c, 0, 56, 100
2, 6352982, Note_on_c, 0, 54, 100
2, 6353543, Note_on_c, 0, 53, 100
2, 6353635, Note_off_c, 0, 54, 100
2, 6354088, Note_on_c, 0, 52, 100
2, 6354223, Note_off_c, 0, 53, 100
2, 6354576, Note_off_c, 0, 52, 100
2, 6354801, Note_on_c, 0, 51, 100
2, 6355035, Note_off_c, 0, 51, 100
2, 6355666, Note_on_c, 0, 50, 100
2, 6355773, Note_off_c, 0, 50, 100
2, 6356489, Note_on_c, 0, 50, 100
2, 6356630, Note_off_c, 0, 50, 100
2, 6357264, Note_on_c, 0, 50, 100
2, 6357660, Note_off_c, 0, 50, 100
2, 6357988, Note_on_c, 0, 50, 100
2, 6358667, Note_on_c, 0, 51, 100
2, 6358717, Note_off_c, 0, 50, 100
2, 6359314, Note_off_c, 0, 51, 100
2, 6359314, Note_on_c, 0, 51, 100
2, 6359944, Note_on_c, 0, 52, 100
2, 6360247, Note_off_c, 0, 51, 100
2, 6360510, Note_off_c, 0, 52, 100
2, 6360573, Note_on_c, 0, 53, 100
2, 6360844, Note_off_c, 0, 53, 100
2, 6361217, Note_on_c, 0, 53, 100
2, 6361953, Note_off_c, 0, 53, 100
2, 6361953, Note_on_c, 0, 53, 100
2, 6362693, Note_off_c, 0, 53, 100
2, 6362693, Note_on_c, 0, 53, 100
2, 6363402, Note_off_c, 0, 53, 100
2, 6363402, Note_on_c, 0, 53, 100
2, 6364089, Note_on_c, 0, 52, 100
2, 6364835, Note_off_c, 0, 52, 100
2, 6364835, Note_on_c, 0, 52, 100
2, 6365001, Note_off_c, 0, 53, 100
2, 6365062, Note_off_c, 0, 52, 100
2, 6365597, Note_on_c, 0, 50, 100
2, 6366344, Note_off_c, 0, 50, 100
2, 6366344, Note_on_c, 0, 50, 100
2, 6367064, Note_on_c, 0, 49, 100
2, 6367751, Note_on_c, 0, 47, 100
2, 6368126, Note_off_c, 0, 50, 100
2, 6368404, Note_on_c, 0, 46, 100
2, 6369007, Note_off_c, 0, 49, 100
2, 6369208, Note_off_c, 0, 45, 100
2, 6369208, Note_on_c, 0, 45, 100
2, 6369309, Note_off_c, 0, 46, 100
2, 6369357, Note_off_c, 0, 47, 100
2, 6370036, Note_off_c, 0, 45, 100
2, 6370036, Note_on_c, 0, 45, 100
2, 6370863, Note_off_c, 0, 45, 100
2, 6370863, Note_on_c, 0, 45, 100
2, 6371672, Note_off_c, 0, 45, 100
2, 6371672, Note_on_c, 0, 45, 100
2, 6372444, Note_on_c, 0, 46, 100
2, 6373169, Note_on_c, 0, 48, 100
2, 6373345, Note_off_c, 0, 46, 100
2, 6373646, Note_off_c, 0, 48, 100
2, 6373839, Note_on_c, 0, 50, 100
2, 6373957, Note_off_c, 0, 50, 100
2, 6374456, Note_on_c, 0, 51, 100
2, 6374686, Note_off_c, 0, 51, 100
2, 6375027, Note_on_c, 0, 54, 100
2, 6375189, Note_off_c, 0, 54, 100
2, 6375630, Note_on_c, 0, 56, 100
2, 6375865, Note_off_c, 0, 56, 100
2, 6376537, Note_on_c, 0, 59, 100
2, 6376955, Note_off_c, 0, 59, 100
2, 6377431, Note_on_c, 0, 61, 100
2, 6377855, Note_off_c, 0, 61, 100
2, 6378289, Note_on_c, 0, 64, 100
2, 6378463, Note_off_c, 0, 64, 100
2, 6379094, Note_on_c, 0, 65, 100
2, 6379579, Note_off_c, 0, 65, 100
2, 6379834, Note_on_c, 0, 66, 100
2, 6380506, Note_on_c, 0, 67, 100
2, 6380851, Note_off_c, 0, 66, 100
2, 6381115, Note_off_c, 0, 67, 100
2, 6381115, Note_on_c, 0, 67, 100
2, 6381674, Note_on_c, 0, 66, 100
2, 6382202, Note_on_c, 0, 64, 100
2, 6382566, Note_off_c, 0, 64, 100
2, 6382573, Note_off_c, 0, 67, 100
2, 6382766, Note_off_c, 0, 66, 100
2, 6382876, Note_on_c, 0, 62, 100
2, 6383599, Note_off_c, 0, 62, 100
2, 6383780, Note_on_c, 0, 60, 100
2, 6384647, Note_on_c, 0, 57, 100
2, 6385301, Note_off_c, 0, 60, 100
2, 6385462, Note_on_c, 0, 53, 100
2, 6386217, Note_on_c, 0, 50, 100
2, 6386614, Note_off_c, 0, 57, 100
2, 6386912, Note_on_c, 0, 48, 100
2, 6387375, Note_off_c, 0, 53, 100
2, 6387407, Note_off_c, 0, 48, 100
2, 6387555, Note_off_c, 0, 45, 100
2, 6387555, Note_on_c, 0, 45, 100
2, 6387584, Note_off_c, 0, 50, 100
2, 6388159, Note_on_c, 0, 43, 100
2, 6388744, Note_on_c, 0, 41, 100
2, 6389328, Note_on_c, 0, 40, 100
2, 6389516, Note_off_c, 0, 43, 100
2, 6390069, Note_off_c, 0, 40, 100
2, 6390069, Note_on_c, 0, 40, 100
2, 6390422, Note_off_c, 0, 41, 100
2, 6390876, Note_off_c, 0, 40, 100
2, 6390876, Note_on_c, 0, 40, 100
2, 6391291, Note_off_c, 0, 40, 100
2, 6391645, Note_on_c, 0, 41, 100
2, 6391985, Note_off_c, 0, 41, 100
2, 6392375, Note_on_c, 0, 42, 100
2, 6393036, Note_off_c, 0, 42, 100
2, 6393070, Note_on_c, 0, 44, 100
2, 6393743, Note_on_c, 0, 46, 100
2, 6393758, Note_off_c, 0, 44, 100
2, 6394238, Note_off_c, 0, 46, 100
2, 6394407, Note_on_c, 0, 49, 100
2, 6394646, Note_off_c, 0, 49, 100
2, 6395076, Note_on_c, 0, 50, 100
2, 6395180, Note_off_c, 0, 50, 100
2, 6395764, Note_on_c, 0, 53, 100
2, 6395905, Note_off_c, 0, 53, 100
2, 6396481, Note_on_c, 0, 55, 100
2, 6396873, Note_off_c, 0, 55, 100
2, 6397221, Note_on_c, 0, 57, 100
2, 6397944, Note_off_c, 0, 57, 100
2, 6397989, Note_on_c, 0, 58, 100
2, 6398773, Note_on_c, 0, 59, 100
2, 6398944, Note_off_c, 0, 58, 100
2, 6399560, Note_on_c, 0, 60, 100
2, 6399697, Note_off_c, 0, 59, 100
2, 6400118, Note_off_c, 0, 60, 100
2, 6400334, Note_on_c, 0, 60, 100
2, 6400610, Note_off_c, 0, 60, 100
2, 6401082, Note_on_c, 0, 59, 100
2, 6401792, Note_off_c, 0, 59, 100
2, 6401792, Note_on_c, 0, 59, 100
2, 6402458, Note_on_c, 0, 58, 100
2, 6403082, Note_on_c, 0, 56, 100
2, 6403405, Note_off_c, 0, 59, 100
2, 6403688, Note_on_c, 0, 55, 100
2, 6404301, Note_off_c, 0, 58, 100
2, 6404558, Note_on_c, 0, 54, 100
2, 6404589, Note_off_c, 0, 55, 100
2, 6404674, Note_off_c, 0, 56, 100
2, 6404793, Note_off_c, 0, 54, 100
2, 6405430, Note_on_c, 0, 53, 100
2, 6406282, Note_off_c, 0, 53, 100
2, 6406282, Note_on_c, 0, 53, 100
2, 6407096, Note_on_c, 0, 52, 100
2, 6407856, Note_off_c, 0, 52, 100
2, 6407856, Note_on_c, 0, 52, 100
2, 6408069, Note_off_c, 0, 53, 100
2, 6408553, Note_on_c, 0, 53, 100
2, 6409187, Note_off_c, 0, 53, 100
2, 6409187, Note_on_c, 0, 53, 100
2, 6409454, Note_off_c, 0, 53, 100
2, 6409461, Note_off_c, 0, 52, 100
2, 6409766, Note_on_c, 0, 54, 100
2, 6410304, Note_on_c, 0, 55, 100
2, 6410588, Note_off_c, 0, 54, 100
2, 6410937, Note_off_c, 0, 55, 100
2, 6410937, Note_on_c, 0, 55, 100
2, 6411856, Note_on_c, 0, 56, 100
2, 6412143, Note_off_c, 0, 55, 100
2, 6412747, Note_on_c, 0, 57, 100
2, 6412762, Note_off_c, 0, 56, 100
2, 6413225, Note_off_c, 0, 57, 100
2, 6413592, Note_on_c, 0, 57, 100
2, 6413708, Note_off_c, 0, 57, 100
2, 6414376, Note_on_c, 0, 57, 100
2, 6414611, Note_off_c, 0, 57, 100
2, 6415092, Note_on_c, 0, 57, 100
2, 6415261, Note_off_c, 0, 57, 100
2, 6415744, Note_on_c, 0, 56, 100
2, 6415970, Note_off_c, 0, 56, 100
2, 6416341, Note_on_c, 0, 55, 100
2, 6416751, Note_off_c, 0, 55, 100
2, 6416902, Note_on_c, 0, 53, 100
2, 6417320, Note_off_c, 0, 53, 100
2, 6417446, Note_on_c, 0, 51, 100
2, 6417616, Note_off_c, 0, 51, 100
2, 6418164, Note_on_c, 0, 50, 100
2, 6418650, Note_off_c, 0, 50, 100
2, 6419028, Note_on_c, 0, 48, 100
2, 6419852, Note_on_c, 0, 46, 100
2, 6420043, Note_off_c, 0, 48, 100
2, 6420627, Note_on_c, 0, 44, 100
2, 6421251, Note_off_c, 0, 46, 100
2, 6421350, Note_on_c, 0, 43, 100
2, 6422029, Note_on_c, 0, 42, 100
2, 6422078, Note_off_c, 0, 44, 100
2, 6422385, Note_off_c, 0, 42, 100
2, 6422434, Note_off_c, 0, 43, 100
2, 6422675, Note_on_c, 0, 41, 100
2, 6423305, Note_off_c, 0, 41, 100
2, 6423305, Note_on_c, 0, 41, 100
2, 6423933, Note_on_c, 0, 42, 100
2, 6424576, Note_on_c, 0, 43, 100
2, 6424830, Note_off_c, 0, 41, 100
2, 6425314, Note_off_c, 0, 45, 100
2, 6425314, Note_on_c, 0, 45, 100
2, 6425900, Note_off_c, 0, 42, 100
2, 6426054, Note_on_c, 0, 48, 100
2, 6426486, Note_off_c, 0, 43, 100
2, 6426541, Note_off_c, 0, 48, 100
2, 6426765, Note_on_c, 0, 50, 100
2, 6427406, Note_off_c, 0, 50, 100
2, 6427452, Note_on_c, 0, 53, 100
2, 6428192, Note_on_c, 0, 56, 100
2, 6428817, Note_off_c, 0, 53, 100
2, 6428955, Note_on_c, 0, 59, 100
2, 6429702, Note_on_c, 0, 62, 100
2, 6429876, Note_off_c, 0, 56, 100
2, 6430422, Note_on_c, 0, 64, 100
2, 6430502, Note_off_c, 0, 59, 100
2, 6430757, Note_off_c, 0, 62, 100
2, 6430834, Note_off_c, 0, 64, 100
2, 6431109, Note_on_c, 0, 66, 100
2, 6431455, Note_off_c, 0, 66, 100
2, 6431763, Note_on_c, 0, 67, 100
2, 6432432, Note_off_c, 0, 67, 100
2, 6432568, Note_on_c, 0, 67, 100
2, 6433265, Note_off_c, 0, 67, 100
2, 6433396, Note_on_c, 0, 67, 100
2, 6433899, Note_off_c, 0, 67, 100
2, 6434222, Note_on_c, 0, 66, 100
2, 6434467, Note_off_c, 0, 66, 100
2, 6435030, Note_on_c, 0, 65, 100
2, 6435131, Note_off_c, 0, 65, 100
2, 6435802, Note_on_c, 0, 63, 100
2, 6435942, Note_off_c, 0, 63, 100
2, 6436527, Note_on_c, 0, 60, 100
2, 6436915, Note_off_c, 0, 60, 100
2, 6437197, Note_on_c, 0, 57, 100
2, 6437813, Note_on_c, 0, 54, 100
2, 6437913, Note_off_c, 0, 57, 100
2, 6438384, Note_on_c, 0, 51, 100
2, 6438759, Note_off_c, 0, 54, 100
2, 6438992, Note_on_c, 0, 50, 100
2, 6439300, Note_off_c, 0, 51, 100
2, 6439543, Note_off_c, 0, 50, 100
2, 6439899, Note_on_c, 0, 47, 100
2, 6440180, Note_off_c, 0, 47, 100
2, 6440792, Note_off_c, 0, 45, 100
2, 6440792, Note_on_c, 0, 45, 100
2, 6441650, Note_on_c, 0, 44, 100
2, 6442454, Note_on_c, 0, 43, 100
2, 6443194, Note_on_c, 0, 42, 100
2, 6443262, Note_off_c, 0, 44, 100
2, 6443865, Note_off_c, 0, 43, 100
2, 6443865, Note_on_c, 0, 43, 100
2, 6444473, Note_on_c, 0, 44, 100
2, 6444717, Note_off_c, 0, 44, 100
2, 6444757, Note_off_c, 0, 43, 100
2, 6444780, Note_off_c, 0, 42, 100
2, 6445032, Note_off_c, 0, 45, 100
2, 6445032, Note_on_c, 0, 45, 100
2, 6445560, Note_on_c, 0, 46, 100
2, 6446239, Note_on_c, 0, 48, 100
2, 6447143, Note_on_c, 0, 50, 100
2, 6447352, Note_off_c, 0, 46, 100
2, 6448009, Note_on_c, 0, 51, 100
2, 6448185, Note_off_c, 0, 48, 100
2, 6448747, Note_off_c, 0, 50, 100
2, 6448824, Note_on_c, 0, 52, 100
2, 6448905, Note_off_c, 0, 51, 100
2, 6448953, Note_off_c, 0, 52, 100
2, 6449579, Note_on_c, 0, 53, 100
2, 6450273, Note_on_c, 0, 54, 100
2, 6450410, Note_off_c, 0, 53, 100
2, 6450915, Note_on_c, 0, 55, 100
2, 6451485, Note_off_c, 0, 54, 100
2, 6451519, Note_off_c, 0, 55, 100
2, 6451519, Note_on_c, 0, 55, 100
2, 6452103, Note_off_c, 0, 55, 100
2, 6452103, Note_on_c, 0, 55, 100
2, 6452582, Note_off_c, 0, 55, 100
2, 6452687, Note_on_c, 0, 55, 100
2, 6452801, Note_off_c, 0, 55, 100
2, 6453431, Note_on_c, 0, 54, 100
2, 6453671, Note_off_c, 0, 54, 100
2, 6454239, Note_on_c, 0, 54, 100
2, 6454415, Note_off_c, 0, 54, 100
2, 6455008, Note_on_c, 0, 53, 100
2, 6455226, Note_off_c, 0, 53, 100
2, 6455737, Note_on_c, 0, 52, 100
2, 6456139, Note_off_c, 0, 52, 100
2, 6456433, Note_on_c, 0, 52, 100
2, 6456844, Note_off_c, 0, 52, 100
2, 6457105, Note_on_c, 0, 52, 100
2, 6457270, Note_off_c, 0, 52, 100
2, 6457769, Note_on_c, 0, 52, 100
2, 6458256, Note_off_c, 0, 52, 100
2, 6458438, Note_on_c, 0, 52, 100
2, 6459125, Note_on_c, 0, 53, 100
2, 6459450, Note_off_c, 0, 52, 100
2, 6459841, Note_off_c, 0, 53, 100
2, 6459841, Note_on_c, 0, 53, 100
2, 6460580, Note_on_c, 0, 55, 100
2, 6461284, Note_off_c, 0, 53, 100
2, 6461348, Note_on_c, 0, 56, 100
2, 6461655, Note_off_c, 0, 55, 100
2, 6461696, Note_off_c, 0, 56, 100
2, 6462131, Note_on_c, 0, 57, 100
2, 6462867, Note_off_c, 0, 57, 100
2, 6462918, Note_on_c, 0, 59, 100
2, 6463692, Note_on_c, 0, 60, 100
2, 6464439, Note_on_c, 0, 61, 100
2, 6464446, Note_off_c, 0, 59, 100
2, 6465149, Note_off_c, 0, 61, 100
2, 6465149, Note_on_c, 0, 61, 100
2, 6465660, Note_off_c, 0, 60, 100
2, 6465815, Note_off_c, 0, 61, 100
2, 6465815, Note_on_c, 0, 61, 100
2, 6466439, Note_off_c, 0, 61, 100
2, 6466439, Note_on_c, 0, 61, 100
2, 6467050, Note_on_c, 0, 60, 100
2, 6467088, Note_off_c, 0, 61, 100
2, 6467920, Note_on_c, 0, 58, 100
2, 6468422, Note_off_c, 0, 60, 100
2, 6468790, Note_on_c, 0, 56, 100
2, 6469610, Note_off_c, 0, 58, 100
2, 6469642, Note_on_c, 0, 54, 100
2, 6470341, Note_off_c, 0, 56, 100
2, 6470455, Note_on_c, 0, 51, 100
2, 6470697, Note_off_c, 0, 54, 100
2, 6470864, Note_off_c, 0, 51, 100
2, 6471214, Note_on_c, 0, 50, 100
2, 6471566, Note_off_c, 0, 50, 100
2, 6471911, Note_on_c, 0, 47, 100
2, 6472545, Note_off_c, 0, 45, 100
2, 6472545, Note_on_c, 0, 45, 100
2, 6472588, Note_off_c, 0, 47, 100
2, 6473123, Note_on_c, 0, 42, 100
2, 6473634, Note_off_c, 0, 42, 100
2, 6473661, Note_on_c, 0, 41, 100
2, 6473912, Note_off_c, 0, 41, 100
2, 6474300, Note_on_c, 0, 40, 100
2, 6474398, Note_off_c, 0, 40, 100
2, 6475218, Note_on_c, 0, 39, 100
2, 6475358, Note_off_c, 0, 39, 100
2, 6476110, Note_on_c, 0, 39, 100
2, 6476494, Note_off_c, 0, 39, 100
2, 6476954, Note_on_c, 0, 40, 100
2, 6477664, Note_off_c, 0, 40, 100
2, 6477737, Note_on_c, 0, 42, 100
2, 6478452, Note_on_c, 0, 44, 100
2, 6478675, Note_off_c, 0, 42, 100
2, 6479103, Note_on_c, 0, 47, 100
2, 6479359, Note_off_c, 0, 44, 100
2, 6479647, Note_off_c, 0, 47, 100
2, 6479700, Note_on_c, 0, 50, 100
2, 6479987, Note_off_c, 0, 50, 100
2, 6480260, Note_on_c, 0, 52, 100
2, 6480803, Note_on_c, 0, 55, 100
2, 6481282, Note_off_c, 0, 52, 100
2, 6481526, Note_on_c, 0, 58, 100
2, 6482391, Note_on_c, 0, 61, 100
2, 6482414, Note_off_c, 0, 55, 100
2, 6483215, Note_on_c, 0, 63, 100
2, 6483360, Note_off_c, 0, 58, 100
2, 6483970, Note_off_c, 0, 61, 100
2, 6483989, Note_on_c, 0, 65, 100
2, 6484099, Note_off_c, 0, 63, 100
2, 6484241, Note_off_c, 0, 65, 100
2, 6484713, Note_on_c, 0, 66, 100
2, 6485391, Note_off_c, 0, 66, 100
2, 6485391, Note_on_c, 0, 66, 100
2, 6486037, Note_off_c, 0, 66, 100
2, 6486037, Note_on_c, 0, 66, 100
2, 6486665, Note_on_c, 0, 65, 100
2, 6487293, Note_on_c, 0, 64, 100
2, 6487936, Note_on_c, 0, 62, 100
2, 6487985, Note_off_c, 0, 66, 100
2, 6488072, Note_off_c, 0, 62, 100
2, 6488184, Note_off_c, 0, 64, 100
2, 6488267, Note_off_c, 0, 65, 100
2, 6488675, Note_on_c, 0, 60, 100
2, 6489416, Note_on_c, 0, 57, 100
2, 6489514, Note_off_c, 0, 60, 100
2, 6490127, Note_on_c, 0, 55, 100
2, 6490636, Note_off_c, 0, 57, 100
2, 6490814, Note_on_c, 0, 52, 100
2, 6491346, Note_off_c, 0, 55, 100
2, 6491549, Note_on_c, 0, 50, 100
2, 6491729, Note_off_c, 0, 52, 100
2, 6492030, Note_off_c, 0, 50, 100
2, 6492312, Note_on_c, 0, 49, 100
2, 6492424, Note_off_c, 0, 49, 100
2, 6493059, Note_on_c, 0, 48, 100
2, 6493304, Note_off_c, 0, 48, 100
2, 6493780, Note_on_c, 0, 47, 100
2, 6493963, Note_off_c, 0, 47, 100
2, 6494467, Note_on_c, 0, 46, 100
2, 6494677, Note_off_c, 0, 46, 100
2, 6495122, Note_on_c, 0, 46, 100
2, 6495516, Note_off_c, 0, 46, 100
2, 6495929, Note_on_c, 0, 47, 100
2, 6496333, Note_off_c, 0, 47, 100
2, 6496756, Note_on_c, 0, 47, 100
2, 6496917, Note_off_c, 0, 47, 100
2, 6497582, Note_on_c, 0, 48, 100
2, 6498069, Note_off_c, 0, 48, 100
2, 6498388, Note_on_c, 0, 49, 100
2, 6499160, Note_on_c, 0, 50, 100
2, 6499398, Note_off_c, 0, 49, 100
2, 6499884, Note_on_c, 0, 51, 100
2, 6500548, Note_off_c, 0, 50, 100
2, 6500554, Note_on_c, 0, 52, 100
2, 6501170, Note_off_c, 0, 52, 100
2, 6501170, Note_on_c, 0, 52, 100
2, 6501319, Note_off_c, 0, 51, 100
2, 6501621, Note_off_c, 0, 52, 100
2, 6501742, Note_on_c, 0, 53, 100
2, 6502355, Note_off_c, 0, 53, 100
2, 6502355, Note_on_c, 0, 53, 100
2, 6503261, Note_on_c, 0, 52, 100
2, 6503887, Note_off_c, 0, 53, 100
2, 6504154, Note_off_c, 0, 52, 100
2, 6504154, Note_on_c, 0, 52, 100
2, 6505011, Note_on_c, 0, 51, 100
2, 6505815, Note_on_c, 0, 50, 100
2, 6506058, Note_off_c, 0, 52, 100
2, 6506286, Note_off_c, 0, 50, 100
2, 6506361, Note_off_c, 0, 51, 100
2, 6506553, Note_on_c, 0, 50, 100
2, 6507211, Note_off_c, 0, 50, 100
2, 6507224, Note_on_c, 0, 50, 100
2, 6507832, Note_on_c, 0, 49, 100
2, 6508389, Note_off_c, 0, 49, 100
2, 6508389, Note_on_c, 0, 49, 100
2, 6508604, Note_off_c, 0, 50, 100
2, 6508917, Note_off_c, 0, 49, 100
2, 6508917, Note_on_c, 0, 49, 100
2, 6509602, Note_off_c, 0, 49, 100
2, 6509602, Note_on_c, 0, 49, 100
2, 6510007, Note_off_c, 0, 49, 100
2, 6510505, Note_on_c, 0, 50, 100
2, 6510863, Note_off_c, 0, 50, 100
2, 6511372, Note_on_c, 0, 50, 100
2, 6512057, Note_off_c, 0, 50, 100
2, 6512186, Note_on_c, 0, 52, 100
2, 6512900, Note_off_c, 0, 52, 100
2, 6512941, Note_on_c, 0, 54, 100
2, 6513459, Note_off_c, 0, 54, 100
2, 6513634, Note_on_c, 0, 56, 100
2, 6513890, Note_off_c, 0, 56, 100
2, 6514276, Note_on_c, 0, 58, 100
2, 6514372, Note_off_c, 0, 58, 100
2, 6514879, Note_on_c, 0, 60, 100
2, 6515018, Note_off_c, 0, 60, 100
2, 6515462, Note_on_c, 0, 62, 100
2, 6515842, Note_off_c, 0, 62, 100
2, 6516045, Note_on_c, 0, 63, 100
2, 6516748, Note_off_c, 0, 63, 100
2, 6516793, Note_on_c, 0, 64, 100
2, 6517601, Note_on_c, 0, 65, 100
2, 6517723, Note_off_c, 0, 64, 100
2, 6518371, Note_off_c, 0, 65, 100
2, 6518371, Note_on_c, 0, 65, 100
2, 6518907, Note_off_c, 0, 65, 100
2, 6519100, Note_on_c, 0, 64, 100
2, 6519392, Note_off_c, 0, 64, 100
2, 6519796, Note_on_c, 0, 62, 100
2, 6520468, Note_on_c, 0, 60, 100
2, 6520820, Note_off_c, 0, 62, 100
2, 6521131, Note_on_c, 0, 58, 100
2, 6521799, Note_on_c, 0, 55, 100
2, 6522078, Note_off_c, 0, 60, 100
2, 6522486, Note_on_c, 0, 52, 100
2, 6522961, Note_off_c, 0, 58, 100
2, 6523201, Note_on_c, 0, 50, 100
2, 6523362, Note_off_c, 0, 52, 100
2, 6523371, Note_off_c, 0, 55, 100
2, 6523462, Note_off_c, 0, 50, 100
2, 6523940, Note_on_c, 0, 47, 100
2, 6524706, Note_on_c, 0, 44, 100
2, 6525120, Note_off_c, 0, 47, 100
2, 6525490, Note_on_c, 0, 42, 100
2, 6526275, Note_on_c, 0, 40, 100
2, 6526508, Note_off_c, 0, 44, 100
2, 6527049, Note_on_c, 0, 39, 100
2, 6527440, Note_off_c, 0, 42, 100
2, 6527796, Note_off_c, 0, 39, 100
2, 6527796, Note_on_c, 0, 39, 100
2, 6527875, Note_off_c, 0, 40, 100
2, 6527939, Note_off_c, 0, 39, 100
2, 6528506, Note_on_c, 0, 39, 100
2, 6529173, Note_on_c, 0, 40, 100
2, 6529353, Note_off_c, 0, 39, 100
2, 6529797, Note_on_c, 0, 41, 100
2, 6530402, Note_off_c, 0, 40, 100
2, 6530412, Note_on_c, 0, 43, 100
2, 6531023, Note_off_c, 0, 41, 100
2, 6531281, Note_on_c, 0, 46, 100
2, 6531331, Note_off_c, 0, 43, 100
2, 6531763, Note_off_c, 0, 46, 100
2, 6532151, Note_on_c, 0, 49, 100
2, 6532261, Note_off_c, 0, 49, 100
2, 6533002, Note_on_c, 0, 51, 100
2, 6533252, Note_off_c, 0, 51, 100
2, 6533814, Note_on_c, 0, 54, 100
2, 6534005, Note_off_c, 0, 54, 100
2, 6534573, Note_on_c, 0, 56, 100
2, 6534774, Note_off_c, 0, 56, 100
2, 6535269, Note_on_c, 0, 59, 100
2, 6535655, Note_off_c, 0, 59, 100
2, 6535903, Note_on_c, 0, 61, 100
2, 6536301, Note_off_c, 0, 61, 100
2, 6536481, Note_on_c, 0, 62, 100
2, 6536638, Note_off_c, 0, 62, 100
2, 6537018, Note_on_c, 0, 63, 100
2, 6537506, Note_off_c, 0, 63, 100
2, 6537663, Note_on_c, 0, 64, 100
2, 6538581, Note_on_c, 0, 63, 100
2, 6538670, Note_off_c, 0, 64, 100
2, 6539472, Note_off_c, 0, 63, 100
2, 6539472, Note_on_c, 0, 63, 100
2, 6540315, Note_on_c, 0, 61, 100
2, 6540900, Note_off_c, 0, 63, 100
2, 6541098, Note_on_c, 0, 60, 100
2, 6541373, Note_off_c, 0, 61, 100
2, 6541430, Note_off_c, 0, 60, 100
2, 6541813, Note_on_c, 0, 58, 100
2, 6542463, Note_on_c, 0, 56, 100
2, 6542562, Note_off_c, 0, 58, 100
2, 6543059, Note_on_c, 0, 54, 100
2, 6543618, Note_on_c, 0, 53, 100
2, 6543998, Note_off_c, 0, 56, 100
2, 6544161, Note_on_c, 0, 52, 100
2, 6544889, Note_on_c, 0, 50, 100
2, 6545027, Note_off_c, 0, 54, 100
2, 6545353, Note_off_c, 0, 50, 100
2, 6545505, Note_off_c, 0, 52, 100
2, 6545519, Note_off_c, 0, 53, 100
2, 6545754, Note_on_c, 0, 50, 100
2, 6546420, Note_off_c, 0, 50, 100
2, 6546578, Note_on_c, 0, 50, 100
2, 6547352, Note_off_c, 0, 50, 100
2, 6547352, Note_on_c, 0, 50, 100
2, 6548075, Note_off_c, 0, 50, 100
2, 6548075, Note_on_c, 0, 50, 100
2, 6548753, Note_off_c, 0, 50, 100
2, 6548753, Note_on_c, 0, 50, 100
2, 6549398, Note_on_c, 0, 51, 100
2, 6549800, Note_off_c, 0, 51, 100
2, 6549808, Note_off_c, 0, 50, 100
2, 6550026, Note_on_c, 0, 52, 100
2, 6550391, Note_off_c, 0, 52, 100
2, 6550653, Note_on_c, 0, 53, 100
2, 6551295, Note_off_c, 0, 53, 100
2, 6551295, Note_on_c, 0, 53, 100
2, 6552017, Note_off_c, 0, 53, 100
2, 6552037, Note_on_c, 0, 53, 100
2, 6552563, Note_off_c, 0, 53, 100
2, 6552778, Note_on_c, 0, 53, 100
2, 6553040, Note_off_c, 0, 53, 100
2, 6553489, Note_on_c, 0, 53, 100
2, 6553587, Note_off_c, 0, 53, 100
2, 6554177, Note_on_c, 0, 52, 100
2, 6554315, Note_off_c, 0, 52, 100
2, 6554906, Note_on_c, 0, 52, 100
2, 6555282, Note_off_c, 0, 52, 100
2, 6555669, Note_on_c, 0, 50, 100
2, 6556366, Note_off_c, 0, 50, 100
2, 6556416, Note_on_c, 0, 50, 100
2, 6557137, Note_on_c, 0, 49, 100
2, 6557338, Note_off_c, 0, 50, 100
2, 6557826, Note_on_c, 0, 47, 100
2, 6558027, Note_off_c, 0, 49, 100
2, 6558355, Note_off_c, 0, 47, 100
2, 6558481, Note_on_c, 0, 46, 100
2, 6558778, Note_off_c, 0, 46, 100
2, 6559289, Note_off_c, 0, 45, 100
2, 6559289, Note_on_c, 0, 45, 100
2, 6560116, Note_off_c, 0, 45, 100
2, 6560116, Note_on_c, 0, 45, 100
2, 6560941, Note_off_c, 0, 45, 100
2, 6560941, Note_on_c, 0, 45, 100
2, 6561747, Note_off_c, 0, 45, 100
2, 6561747, Note_on_c, 0, 45, 100
2, 6562518, Note_on_c, 0, 46, 100
2, 6563242, Note_on_c, 0, 48, 100
2, 6563386, Note_off_c, 0, 46, 100
2, 6563511, Note_off_c, 0, 48, 100
2, 6563911, Note_on_c, 0, 50, 100
2, 6564527, Note_on_c, 0, 51, 100
2, 6565098, Note_off_c, 0, 50, 100
2, 6565099, Note_on_c, 0, 54, 100
2, 6565717, Note_on_c, 0, 56, 100
2, 6566334, Note_off_c, 0, 51, 100
2, 6566623, Note_on_c, 0, 59, 100
2, 6567050, Note_off_c, 0, 54, 100
2, 6567315, Note_off_c, 0, 56, 100
2, 6567505, Note_off_c, 0, 59, 100
2, 6567515, Note_on_c, 0, 61, 100
2, 6567665, Note_off_c, 0, 61, 100
2, 6568372, Note_on_c, 0, 64, 100
2, 6569175, Note_on_c, 0, 65, 100
2, 6569228, Note_off_c, 0, 64, 100
2, 6569913, Note_on_c, 0, 66, 100
2, 6570412, Note_off_c, 0, 65, 100
2, 6570583, Note_on_c, 0, 67, 100
2, 6571146, Note_off_c, 0, 66, 100
2, 6571190, Note_off_c, 0, 67, 100
2, 6571190, Note_on_c, 0, 67, 100
2, 6571673, Note_off_c, 0, 67, 100
2, 6571747, Note_on_c, 0, 66, 100
2, 6571855, Note_off_c, 0, 66, 100
2, 6572274, Note_on_c, 0, 64, 100
2, 6572530, Note_off_c, 0, 64, 100
2, 6572965, Note_on_c, 0, 62, 100
2, 6573163, Note_off_c, 0, 62, 100
2, 6573868, Note_on_c, 0, 59, 100
2, 6574061, Note_off_c, 0, 59, 100
2, 6574735, Note_on_c, 0, 56, 100
2, 6575112, Note_off_c, 0, 56, 100
2, 6575549, Note_on_c, 0, 53, 100
2, 6575940, Note_off_c, 0, 53, 100
2, 6576302, Note_on_c, 0, 50, 100
2, 6576456, Note_off_c, 0, 50, 100
2, 6576996, Note_on_c, 0, 48, 100
2, 6577485, Note_off_c, 0, 48, 100
2, 6577636, Note_off_c, 0, 45, 100
2, 6577636, Note_on_c, 0, 45, 100
2, 6578239, Note_on_c, 0, 43, 100
2, 6578822, Note_on_c, 0, 41, 100
2, 6579404, Note_on_c, 0, 40, 100
2, 6579616, Note_off_c, 0, 43, 100
2, 6580155, Note_off_c, 0, 40, 100
2, 6580155, Note_on_c, 0, 40, 100
2, 6580242, Note_off_c, 0, 41, 100
2, 6580479, Note_off_c, 0, 40, 100
2, 6580964, Note_on_c, 0, 40, 100
2, 6581719, Note_off_c, 0, 40, 100
2, 6581733, Note_on_c, 0, 41, 100
2, 6582463, Note_on_c, 0, 42, 100
2, 6583158, Note_on_c, 0, 44, 100
2, 6583272, Note_off_c, 0, 41, 100
2, 6583830, Note_on_c, 0, 46, 100
2, 6584431, Note_off_c, 0, 42, 100
2, 6584493, Note_on_c, 0, 49, 100
2, 6584949, Note_off_c, 0, 49, 100
2, 6585056, Note_off_c, 0, 44, 100
2, 6585161, Note_on_c, 0, 50, 100
2, 6585168, Note_off_c, 0, 46, 100
2, 6585836, Note_off_c, 0, 50, 100
2, 6585847, Note_on_c, 0, 53, 100
2, 6586561, Note_on_c, 0, 55, 100
2, 6587243, Note_off_c, 0, 53, 100
2, 6587299, Note_on_c, 0, 57, 100
2, 6588065, Note_on_c, 0, 58, 100
2, 6588268, Note_off_c, 0, 55, 100
2, 6588848, Note_on_c, 0, 59, 100
2, 6588859, Note_off_c, 0, 57, 100
2, 6589120, Note_off_c, 0, 58, 100
2, 6589246, Note_off_c, 0, 59, 100
2, 6589633, Note_on_c, 0, 60, 100
2, 6590004, Note_off_c, 0, 60, 100
2, 6590407, Note_on_c, 0, 60, 100
2, 6591108, Note_off_c, 0, 60, 100
2, 6591154, Note_on_c, 0, 59, 100
2, 6591863, Note_off_c, 0, 59, 100
2, 6591863, Note_on_c, 0, 59, 100
2, 6592396, Note_off_c, 0, 59, 100
2, 6592530, Note_on_c, 0, 58, 100
2, 6592797, Note_off_c, 0, 58, 100
2, 6593155, Note_on_c, 0, 57, 100
2, 6593255, Note_off_c, 0, 57, 100
2, 6593774, Note_on_c, 0, 55, 100
2, 6593911, Note_off_c, 0, 55, 100
2, 6594642, Note_on_c, 0, 54, 100
2, 6595014, Note_off_c, 0, 54, 100
2, 6595512, Note_on_c, 0, 53, 100
2, 6596202, Note_off_c, 0, 53, 100
2, 6596362, Note_on_c, 0, 53, 100
2, 6597173, Note_on_c, 0, 52, 100
2, 6597276, Note_off_c, 0, 53, 100
2, 6597931, Note_off_c, 0, 52, 100
2, 6597931, Note_on_c, 0, 52, 100
2, 6598452, Note_off_c, 0, 52, 100
2, 6598627, Note_on_c, 0, 53, 100
2, 6598929, Note_off_c, 0, 53, 100
2, 6599260, Note_on_c, 0, 53, 100
2, 6599838, Note_on_c, 0, 54, 100
2, 6600288, Note_off_c, 0, 53, 100
2, 6600375, Note_off_c, 0, 54, 100
2, 6600375, Note_on_c, 0, 54, 100
2, 6601026, Note_on_c, 0, 55, 100
2, 6601943, Note_on_c, 0, 56, 100
2, 6602196, Note_off_c, 0, 54, 100
2, 6602584, Note_off_c, 0, 55, 100
2, 6602802, Note_off_c, 0, 56, 100
2, 6602834, Note_on_c, 0, 57, 100
2, 6603111, Note_off_c, 0, 57, 100
2, 6603677, Note_on_c, 0, 57, 100
2, 6604459, Note_off_c, 0, 57, 100
2, 6604459, Note_on_c, 0, 57, 100
2, 6605173, Note_on_c, 0, 56, 100
2, 6605823, Note_off_c, 0, 56, 100
2, 6605823, Note_on_c, 0, 56, 100
2, 6606270, Note_off_c, 0, 57, 100
2, 6606418, Note_on_c, 0, 54, 100
2, 6606977, Note_on_c, 0, 53, 100
2, 6607134, Note_off_c, 0, 53, 100
2, 6607295, Note_off_c, 0, 54, 100
2, 6607420, Note_off_c, 0, 56, 100
2, 6607519, Note_on_c, 0, 51, 100
2, 6608251, Note_on_c, 0, 50, 100
2, 6608383, Note_off_c, 0, 51, 100
2, 6609117, Note_on_c, 0, 48, 100
2, 6609496, Note_off_c, 0, 50, 100
2, 6609941, Note_on_c, 0, 46, 100
2, 6610357, Note_off_c, 0, 48, 100
2, 6610715, Note_on_c, 0, 44, 100
2, 6610869, Note_off_c, 0, 46, 100
2, 6611199, Note_off_c, 0, 44, 100
2, 6611438, Note_on_c, 0, 43, 100
2, 6611544, Note_off_c, 0, 43, 100
2, 6612115, Note_on_c, 0, 42, 100
2, 6612376, Note_off_c, 0, 42, 100
2, 6612760, Note_on_c, 0, 41, 100
2, 6612966, Note_off_c, 0, 41, 100
2, 6613387, Note_on_c, 0, 41, 100
2, 6613571, Note_off_c, 0, 41, 100
2, 6614013, Note_on_c, 0, 42, 100
2, 6614382, Note_off_c, 0, 42, 100
2, 6614654, Note_on_c, 0, 44, 100
2, 6615039, Note_off_c, 0, 44, 100
2, 6615398, Note_on_c, 0, 46, 100
2, 6615548, Note_off_c, 0, 46, 100
2, 6616140, Note_on_c, 0, 48, 100
2, 6616629, Note_off_c, 0, 48, 100
2, 6616852, Note_on_c, 0, 50, 100
2, 6617540, Note_on_c, 0, 53, 100
2, 6617854, Note_off_c, 0, 50, 100
2, 6618263, Note_on_c, 0, 56, 100
2, 6618911, Note_off_c, 0, 53, 100
2, 6619026, Note_on_c, 0, 59, 100
2, 6619675, Note_off_c, 0, 56, 100
2, 6619774, Note_on_c, 0, 62, 100
2, 6620067, Note_off_c, 0, 59, 100
2, 6620090, Note_off_c, 0, 62, 100
2, 6620495, Note_on_c, 0, 64, 100
2, 6621184, Note_on_c, 0, 66, 100
2, 6621256, Note_off_c, 0, 64, 100
2, 6621840, Note_on_c, 0, 67, 100
2, 6622650, Note_off_c, 0, 67, 100
2, 6622650, Note_on_c, 0, 67, 100
2, 6622726, Note_off_c, 0, 66, 100
2, 6623475, Note_off_c, 0, 67, 100
2, 6623475, Note_on_c, 0, 67, 100
2, 6624300, Note_on_c, 0, 66, 100
2, 6624748, Note_off_c, 0, 66, 100
2, 6624807, Note_off_c, 0, 67, 100
2, 6625105, Note_on_c, 0, 65, 100
2, 6625788, Note_off_c, 0, 65, 100
2, 6625876, Note_on_c, 0, 63, 100
2, 6626599, Note_on_c, 0, 60, 100
2, 6627268, Note_on_c, 0, 57, 100
2, 6627280, Note_off_c, 0, 63, 100
2, 6627884, Note_on_c, 0, 54, 100
2, 6628312, Note_off_c, 0, 60, 100
2, 6628456, Note_on_c, 0, 51, 100
2, 6628831, Note_off_c, 0, 57, 100
2, 6628850, Note_off_c, 0, 51, 100
2, 6628938, Note_off_c, 0, 54, 100
2, 6629080, Note_on_c, 0, 49, 100
2, 6629457, Note_off_c, 0, 49, 100
2, 6629985, Note_on_c, 0, 47, 100
2, 6630694, Note_off_c, 0, 47, 100
2, 6630877, Note_off_c, 0, 45, 100
2, 6630877, Note_on_c, 0, 45, 100
2, 6631733, Note_on_c, 0, 44, 100
2, 6632274, Note_off_c, 0, 44, 100
2, 6632535, Note_on_c, 0, 43, 100
2, 6632808, Note_off_c, 0, 43, 100
2, 6633272, Note_on_c, 0, 42, 100
2, 6633375, Note_off_c, 0, 42, 100
2, 6633942, Note_on_c, 0, 43, 100
2, 6634078, Note_off_c, 0, 43, 100
2, 6634548, Note_on_c, 0, 43, 100
2, 6634916, Note_off_c, 0, 43, 100
2, 6635105, Note_off_c, 0, 45, 100
2, 6635105, Note_on_c, 0, 45, 100
2, 6635632, Note_on_c, 0, 46, 100
2, 6636327, Note_on_c, 0, 48, 100
2, 6636538, Note_off_c, 0, 46, 100
2, 6637201, Note_off_c, 0, 48, 100
2, 6637231, Note_on_c, 0, 50, 100
2, 6637745, Note_off_c, 0, 50, 100
2, 6638097, Note_on_c, 0, 51, 100
2, 6638404, Note_off_c, 0, 51, 100
2, 6638911, Note_on_c, 0, 52, 100
2, 6639664, Note_on_c, 0, 54, 100
2, 6639941, Note_off_c, 0, 52, 100
2, 6640357, Note_on_c, 0, 55, 100
2, 6640997, Note_off_c, 0, 55, 100
2, 6640997, Note_on_c, 0, 55, 100
2, 6641270, Note_off_c, 0, 54, 100
2, 6641599, Note_on_c, 0, 56, 100
2, 6642181, Note_off_c, 0, 56, 100
2, 6642181, Note_on_c, 0, 56, 100
2, 6642467, Note_off_c, 0, 56, 100
2, 6642548, Note_off_c, 0, 55, 100
2, 6642762, Note_on_c, 0, 55, 100
2, 6643517, Note_off_c, 0, 55, 100
2, 6643517, Note_on_c, 0, 55, 100
2, 6644326, Note_on_c, 0, 54, 100
2, 6645096, Note_on_c, 0, 53, 100
2, 6645333, Note_off_c, 0, 55, 100
2, 6645826, Note_off_c, 0, 53, 100
2, 6645826, Note_on_c, 0, 53, 100
2, 6646280, Note_off_c, 0, 54, 100
2, 6646521, Note_on_c, 0, 52, 100
2, 6646685, Note_off_c, 0, 52, 100
2, 6646698, Note_off_c, 0, 53, 100
2, 6647193, Note_on_c, 0, 52, 100
2, 6647855, Note_off_c, 0, 52, 100
2, 6647855, Note_on_c, 0, 52, 100
2, 6648523, Note_off_c, 0, 52, 100
2, 6648523, Note_on_c, 0, 52, 100
2, 6649208, Note_on_c, 0, 53, 100
2, 6649770, Note_off_c, 0, 52, 100
2, 6649920, Note_off_c, 0, 53, 100
2, 6649920, Note_on_c, 0, 53, 100
2, 6650405, Note_off_c, 0, 53, 100
2, 6650659, Note_on_c, 0, 55, 100
2, 6650762, Note_off_c, 0, 55, 100
2, 6651424, Note_on_c, 0, 56, 100
2, 6651690, Note_off_c, 0, 56, 100
2, 6652206, Note_on_c, 0, 57, 100
2, 6652419, Note_off_c, 0, 57, 100
2, 6652991, Note_on_c, 0, 59, 100
2, 6653167, Note_off_c, 0, 59, 100
2, 6653764, Note_on_c, 0, 60, 100
2, 6654125, Note_off_c, 0, 60, 100
2, 6654511, Note_on_c, 0, 61, 100
2, 6654889, Note_off_c, 0, 61, 100
2, 6655220, Note_on_c, 0, 61, 100
2, 6655366, Note_off_c, 0, 61, 100
2, 6655887, Note_on_c, 0, 61, 100
2, 6656377, Note_off_c, 0, 61, 100
2, 6656512, Note_on_c, 0, 61, 100
2, 6657135, Note_on_c, 0, 60, 100
2, 6657511, Note_off_c, 0, 61, 100
2, 6658003, Note_on_c, 0, 58, 100
2, 6658500, Note_off_c, 0, 60, 100
2, 6658872, Note_on_c, 0, 56, 100
2, 6659408, Note_off_c, 0, 58, 100
2, 6659722, Note_on_c, 0, 54, 100
2, 6659905, Note_off_c, 0, 56, 100
2, 6660030, Note_off_c, 0, 54, 100
2, 6660533, Note_on_c, 0, 51, 100
2, 6661290, Note_on_c, 0, 50, 100
2, 6661300, Note_off_c, 0, 51, 100
2, 6661985, Note_on_c, 0, 47, 100
2, 6662618, Note_off_c, 0, 45, 100
2, 6662618, Note_on_c, 0, 45, 100
2, 6662835, Note_off_c, 0, 50, 100
2, 6663195, Note_on_c, 0, 42, 100
2, 6663733, Note_on_c, 0, 41, 100
2, 6663954, Note_off_c, 0, 47, 100
2, 6664173, Note_off_c, 0, 41, 100
2, 6664388, Note_on_c, 0, 40, 100
2, 6664521, Note_off_c, 0, 42, 100
2, 6665080, Note_off_c, 0, 40, 100
2, 6665306, Note_on_c, 0, 39, 100
2, 6666196, Note_off_c, 0, 39, 100
2, 6666196, Note_on_c, 0, 39, 100
2, 6667039, Note_on_c, 0, 40, 100
2, 6667820, Note_on_c, 0, 42, 100
2, 6667915, Note_off_c, 0, 39, 100
2, 6668533, Note_on_c, 0, 44, 100
2, 6668605, Note_off_c, 0, 40, 100
2, 6668874, Note_off_c, 0, 42, 100
2, 6668923, Note_off_c, 0, 44, 100
2, 6669182, Note_on_c, 0, 47, 100
2, 6669566, Note_off_c, 0, 47, 100
2, 6669777, Note_on_c, 0, 50, 100
2, 6670335, Note_on_c, 0, 52, 100
2, 6670494, Note_off_c, 0, 50, 100
2, 6670877, Note_on_c, 0, 55, 100
2, 6671082, Note_off_c, 0, 52, 100
2, 6671426, Note_off_c, 0, 55, 100
2, 6671614, Note_on_c, 0, 58, 100
2, 6671892, Note_off_c, 0, 58, 100
2, 6672480, Note_on_c, 0, 61, 100
2, 6672585, Note_off_c, 0, 61, 100
2, 6673304, Note_on_c, 0, 63, 100
2, 6673440, Note_off_c, 0, 63, 100
2, 6674077, Note_on_c, 0, 65, 100
2, 6674441, Note_off_c, 0, 65, 100
2, 6674800, Note_on_c, 0, 66, 100
2, 6675477, Note_off_c, 0, 66, 100
2, 6675477, Note_on_c, 0, 66, 100
2, 6676121, Note_off_c, 0, 66, 100
2, 6676121, Note_on_c, 0, 66, 100
2, 6676747, Note_on_c, 0, 65, 100
2, 6676986, Note_off_c, 0, 66, 100
2, 6677254, Note_off_c, 0, 65, 100
2, 6677373, Note_on_c, 0, 64, 100
2, 6677685, Note_off_c, 0, 64, 100
2, 6678014, Note_on_c, 0, 62, 100
2, 6678759, Note_on_c, 0, 60, 100
2, 6679046, Note_off_c, 0, 62, 100
2, 6679502, Note_on_c, 0, 57, 100
2, 6680214, Note_on_c, 0, 55, 100
2, 6680363, Note_off_c, 0, 60, 100
2, 6680902, Note_on_c, 0, 52, 100
2, 6681314, Note_off_c, 0, 57, 100
2, 6681621, Note_on_c, 0, 50, 100
2, 6681745, Note_off_c, 0, 52, 100
2, 6681758, Note_off_c, 0, 55, 100
2, 6681915, Note_off_c, 0, 50, 100
2, 6682383, Note_on_c, 0, 49, 100
2, 6683131, Note_on_c, 0, 48, 100
2, 6683591, Note_off_c, 0, 49, 100
2, 6683853, Note_on_c, 0, 47, 100
2, 6684542, Note_on_c, 0, 46, 100
2, 6684952, Note_off_c, 0, 48, 100
2, 6685200, Note_off_c, 0, 46, 100
2, 6685200, Note_on_c, 0, 46, 100
2, 6685809, Note_off_c, 0, 47, 100
2, 6686010, Note_on_c, 0, 47, 100
2, 6686135, Note_off_c, 0, 46, 100
2, 6686182, Note_off_c, 0, 47, 100
2, 6686835, Note_on_c, 0, 47, 100
2, 6687659, Note_on_c, 0, 48, 100
2, 6687716, Note_off_c, 0, 47, 100
2, 6688464, Note_on_c, 0, 49, 100
2, 6688921, Note_off_c, 0, 48, 100
2, 6689234, Note_on_c, 0, 50, 100
2, 6689717, Note_off_c, 0, 49, 100
2, 6689957, Note_on_c, 0, 51, 100
2, 6690170, Note_off_c, 0, 50, 100
2, 6690443, Note_off_c, 0, 51, 100
2, 6690626, Note_on_c, 0, 52, 100
2, 6690727, Note_off_c, 0, 52, 100
2, 6691242, Note_on_c, 0, 52, 100
2, 6691514, Note_off_c, 0, 52, 100
2, 6691814, Note_on_c, 0, 53, 100
2, 6692035, Note_off_c, 0, 53, 100
2, 6692442, Note_on_c, 0, 53, 100
2, 6692609, Note_off_c, 0, 53, 100
2, 6693347, Note_on_c, 0, 53, 100
2, 6693700, Note_off_c, 0, 53, 100
2, 6694238, Note_on_c, 0, 52, 100
2, 6694610, Note_off_c, 0, 52, 100
2, 6695093, Note_on_c, 0, 51, 100
2, 6695235, Note_off_c, 0, 51, 100
2, 6695895, Note_on_c, 0, 51, 100
2, 6696385, Note_off_c, 0, 51, 100
2, 6696632, Note_on_c, 0, 50, 100
2, 6697300, Note_off_c, 0, 50, 100
2, 6697300, Note_on_c, 0, 50, 100
2, 6697906, Note_on_c, 0, 49, 100
2, 6698462, Note_off_c, 0, 49, 100
2, 6698462, Note_on_c, 0, 49, 100
2, 6698659, Note_off_c, 0, 50, 100
2, 6698989, Note_off_c, 0, 49, 100
2, 6698989, Note_on_c, 0, 49, 100
2, 6699486, Note_off_c, 0, 49, 100
2, 6699690, Note_on_c, 0, 50, 100
2, 6700463, Note_off_c, 0, 50, 100
2, 6700594, Note_on_c, 0, 50, 100
2, 6701460, Note_on_c, 0, 51, 100
2, 6702143, Note_off_c, 0, 50, 100
2, 6702273, Note_on_c, 0, 52, 100
2, 6703026, Note_on_c, 0, 54, 100
2, 6703428, Note_off_c, 0, 51, 100
2, 6703718, Note_on_c, 0, 56, 100
2, 6704150, Note_off_c, 0, 56, 100
2, 6704161, Note_off_c, 0, 52, 100
2, 6704346, Note_off_c, 0, 54, 100
2, 6704357, Note_on_c, 0, 58, 100
2, 6704958, Note_on_c, 0, 60, 100
2, 6705057, Note_off_c, 0, 58, 100
2, 6705540, Note_on_c, 0, 62, 100
2, 6706121, Note_on_c, 0, 63, 100
2, 6706377, Note_off_c, 0, 60, 100
2, 6706879, Note_on_c, 0, 64, 100
2, 6707265, Note_off_c, 0, 62, 100
2, 6707689, Note_off_c, 0, 63, 100
2, 6707689, Note_on_c, 0, 65, 100
2, 6707932, Note_off_c, 0, 64, 100
2, 6708076, Note_off_c, 0, 65, 100
2, 6708459, Note_on_c, 0, 64, 100
2, 6708849, Note_off_c, 0, 64, 100
2, 6709189, Note_on_c, 0, 64, 100
2, 6709884, Note_on_c, 0, 62, 100
2, 6709914, Note_off_c, 0, 64, 100
2, 6710555, Note_on_c, 0, 60, 100
2, 6710640, Note_off_c, 0, 62, 100
2, 6711111, Note_off_c, 0, 60, 100
2, 6711217, Note_on_c, 0, 58, 100
2, 6711500, Note_off_c, 0, 58, 100
2, 6711884, Note_on_c, 0, 55, 100
2, 6711992, Note_off_c, 0, 55, 100
2, 6712568, Note_on_c, 0, 52, 100
2, 6712702, Note_off_c, 0, 52, 100
2, 6713280, Note_on_c, 0, 50, 100
2, 6713640, Note_off_c, 0, 50, 100
2, 6714018, Note_on_c, 0, 47, 100
2, 6714688, Note_off_c, 0, 47, 100
2, 6714783, Note_on_c, 0, 44, 100
2, 6715564, Note_on_c, 0, 42, 100
2, 6715672, Note_off_c, 0, 44, 100
2, 6716349, Note_on_c, 0, 40, 100
2, 6716421, Note_off_c, 0, 42, 100
2, 6716849, Note_off_c, 0, 40, 100
2, 6717121, Note_on_c, 0, 39, 100
2, 6717438, Note_off_c, 0, 39, 100
2, 6717868, Note_on_c, 0, 39, 100
2, 6718578, Note_off_c, 0, 39, 100
2, 6718578, Note_on_c, 0, 39, 100
2, 6719245, Note_on_c, 0, 40, 100
2, 6719870, Note_on_c, 0, 41, 100
2, 6720181, Note_off_c, 0, 39, 100
2, 6720497, Note_on_c, 0, 43, 100
2, 6721052, Note_off_c, 0, 40, 100
2, 6721331, Note_off_c, 0, 43, 100
2, 6721365, Note_on_c, 0, 46, 100
2, 6721407, Note_off_c, 0, 41, 100
2, 6721667, Note_off_c, 0, 46, 100
2, 6722233, Note_on_c, 0, 49, 100
2, 6723082, Note_on_c, 0, 51, 100
2, 6723448, Note_off_c, 0, 49, 100
2, 6723892, Note_on_c, 0, 54, 100
2, 6724649, Note_on_c, 0, 57, 100
2, 6724907, Note_off_c, 0, 51, 100
2, 6725343, Note_on_c, 0, 59, 100
2, 6725849, Note_off_c, 0, 54, 100
2, 6725975, Note_on_c, 0, 61, 100
2, 6726154, Note_off_c, 0, 61, 100
2, 6726205, Note_off_c, 0, 59, 100
2, 6726240, Note_off_c, 0, 57, 100
2, 6726552, Note_on_c, 0, 63, 100
2, 6727090, Note_off_c, 0, 63, 100
2, 6727090, Note_on_c, 0, 63, 100
2, 6727751, Note_on_c, 0, 64, 100
2, 6728360, Note_off_c, 0, 63, 100
2, 6728669, Note_on_c, 0, 63, 100
2, 6729011, Note_off_c, 0, 64, 100
2, 6729558, Note_off_c, 0, 63, 100
2, 6729558, Note_on_c, 0, 63, 100
2, 6730045, Note_off_c, 0, 63, 100
2, 6730400, Note_on_c, 0, 61, 100
2, 6730498, Note_off_c, 0, 61, 100
2, 6731181, Note_on_c, 0, 60, 100
2, 6731458, Note_off_c, 0, 60, 100
2, 6731894, Note_on_c, 0, 58, 100
2, 6732122, Note_off_c, 0, 58, 100
2, 6732542, Note_on_c, 0, 56, 100
2, 6732701, Note_off_c, 0, 56, 100
2, 6733136, Note_on_c, 0, 54, 100
2, 6733481, Note_off_c, 0, 54, 100
2, 6733693, Note_on_c, 0, 53, 100
2, 6734059, Note_off_c, 0, 53, 100
2, 6734235, Note_on_c, 0, 51, 100
2, 6734374, Note_off_c, 0, 51, 100
2, 6734977, Note_on_c, 0, 50, 100
2, 6735468, Note_off_c, 0, 50, 100
2, 6735842, Note_on_c, 0, 50, 100
2, 6736666, Note_off_c, 0, 50, 100
2, 6736666, Note_on_c, 0, 50, 100
2, 6737440, Note_off_c, 0, 50, 100
2, 6737440, Note_on_c, 0, 50, 100
2, 6738162, Note_off_c, 0, 50, 100
2, 6738162, Note_on_c, 0, 50, 100
2, 6738839, Note_off_c, 0, 50, 100
2, 6738839, Note_on_c, 0, 50, 100
2, 6739178, Note_off_c, 0, 50, 100
2, 6739482, Note_on_c, 0, 51, 100
2, 6740108, Note_on_c, 0, 52, 100
2, 6740261, Note_off_c, 0, 51, 100
2, 6740733, Note_off_c, 0, 52, 100
2, 6740733, Note_on_c, 0, 52, 100
2, 6741373, Note_on_c, 0, 53, 100
2, 6742121, Note_off_c, 0, 53, 100
2, 6742121, Note_on_c, 0, 53, 100
2, 6742701, Note_off_c, 0, 52, 100
2, 6742864, Note_off_c, 0, 53, 100
2, 6742864, Note_on_c, 0, 53, 100
2, 6743435, Note_off_c, 0, 53, 100
2, 6743577, Note_on_c, 0, 53, 100
2, 6744265, Note_on_c, 0, 52, 100
2, 6744285, Note_off_c, 0, 53, 100
2, 6744978, Note_off_c, 0, 52, 100
2, 6744978, Note_on_c, 0, 52, 100
2, 6745741, Note_on_c, 0, 50, 100
2, 6746489, Note_off_c, 0, 50, 100
2, 6746489, Note_on_c, 0, 50, 100
2, 6746708, Note_off_c, 0, 52, 100
2, 6747211, Note_on_c, 0, 49, 100
2, 6747541, Note_off_c, 0, 50, 100
2, 6747594, Note_off_c, 0, 49, 100
2, 6747901, Note_on_c, 0, 47, 100
2, 6748298, Note_off_c, 0, 47, 100
2, 6748561, Note_on_c, 0, 46, 100
2, 6749294, Note_off_c, 0, 46, 100
2, 6749371, Note_off_c, 0, 45, 100
2, 6749371, Note_on_c, 0, 45, 100
2, 6750195, Note_off_c, 0, 45, 100
2, 6750195, Note_on_c, 0, 45, 100
2, 6751018, Note_off_c, 0, 45, 100
2, 6751018, Note_on_c, 0, 45, 100
2, 6751822, Note_off_c, 0, 45, 100
2, 6751822, Note_on_c, 0, 45, 100
2, 6752592, Note_on_c, 0, 46, 100
2, 6752725, Note_off_c, 0, 46, 100
2, 6753314, Note_on_c, 0, 48, 100
2, 6753669, Note_off_c, 0, 48, 100
2, 6753983, Note_on_c, 0, 50, 100
2, 6754599, Note_on_c, 0, 51, 100
2, 6754646, Note_off_c, 0, 50, 100
2, 6755171, Note_on_c, 0, 54, 100
2, 6755480, Note_off_c, 0, 51, 100
2, 6755805, Note_on_c, 0, 56, 100
2, 6756019, Note_off_c, 0, 54, 100
2, 6756297, Note_off_c, 0, 56, 100
2, 6756709, Note_on_c, 0, 59, 100
2, 6757031, Note_off_c, 0, 59, 100
2, 6757600, Note_on_c, 0, 61, 100
2, 6758454, Note_on_c, 0, 64, 100
2, 6758636, Note_off_c, 0, 61, 100
2, 6759255, Note_on_c, 0, 65, 100
2, 6759991, Note_on_c, 0, 66, 100
2, 6760055, Note_off_c, 0, 64, 100
2, 6760659, Note_on_c, 0, 67, 100
2, 6761058, Note_off_c, 0, 65, 100
2, 6761264, Note_off_c, 0, 67, 100
2, 6761264, Note_on_c, 0, 67, 100
2, 6761521, Note_off_c, 0, 66, 100
2, 6761575, Note_off_c, 0, 67, 100
2, 6761820, Note_on_c, 0, 66, 100
2, 6762346, Note_on_c, 0, 64, 100
2, 6763042, Note_off_c, 0, 66, 100
2, 6763053, Note_on_c, 0, 62, 100
2, 6763957, Note_on_c, 0, 59, 100
2, 6764176, Note_off_c, 0, 64, 100
2, 6764823, Note_on_c, 0, 56, 100
2, 6765011, Note_off_c, 0, 62, 100
2, 6765546, Note_off_c, 0, 59, 100
2, 6765636, Note_on_c, 0, 53, 100
2, 6765680, Note_off_c, 0, 56, 100
2, 6765822, Note_off_c, 0, 53, 100
2, 6766388, Note_on_c, 0, 50, 100
2, 6767079, Note_on_c, 0, 48, 100
2, 6767286, Note_off_c, 0, 50, 100
2, 6767718, Note_off_c, 0, 45, 100
2, 6767718, Note_on_c, 0, 45, 100
2, 6768318, Note_on_c, 0, 43, 100
2, 6768357, Note_off_c, 0, 48, 100
2, 6768899, Note_on_c, 0, 41, 100
2, 6769262, Note_off_c, 0, 43, 100
2, 6769387, Note_off_c, 0, 41, 100
2, 6769479, Note_on_c, 0, 40, 100
2, 6769575, Note_off_c, 0, 40, 100
2, 6770241, Note_on_c, 0, 40, 100
2, 6770524, Note_off_c, 0, 40, 100
2, 6771051, Note_on_c, 0, 40, 100
2, 6771287, Note_off_c, 0, 40, 100
2, 6771822, Note_on_c, 0, 41, 100
2, 6771972, Note_off_c, 0, 41, 100
2, 6772552, Note_on_c, 0, 42, 100
2, 6772889, Note_off_c, 0, 42, 100
2, 6773247, Note_on_c, 0, 44, 100
2, 6773606, Note_off_c, 0, 44, 100
2, 6773918, Note_on_c, 0, 46, 100
2, 6774053, Note_off_c, 0, 46, 100
2, 6774579, Note_on_c, 0, 49, 100
2, 6775070, Note_off_c, 0, 49, 100
2, 6775246, Note_on_c, 0, 50, 100
2, 6775929, Note_on_c, 0, 53, 100
2, 6776236, Note_off_c, 0, 50, 100
2, 6776640, Note_on_c, 0, 55, 100
2, 6777277, Note_off_c, 0, 53, 100
2, 6777378, Note_on_c, 0, 57, 100
2, 6778021, Note_off_c, 0, 55, 100
2, 6778142, Note_on_c, 0, 58, 100
2, 6778385, Note_off_c, 0, 57, 100
2, 6778427, Note_off_c, 0, 58, 100
2, 6778922, Note_on_c, 0, 59, 100
2, 6779706, Note_on_c, 0, 60, 100
2, 6779707, Note_off_c, 0, 59, 100
2, 6780479, Note_off_c, 0, 60, 100
2, 6780479, Note_on_c, 0, 60, 100
2, 6781225, Note_on_c, 0, 59, 100
2, 6781935, Note_off_c, 0, 59, 100
2, 6781935, Note_on_c, 0, 59, 100
2, 6782447, Note_off_c, 0, 60, 100
2, 6782602, Note_on_c, 0, 58, 100
2, 6783018, Note_off_c, 0, 58, 100
2, 6783228, Note_on_c, 0, 57, 100
2, 6783242, Note_off_c, 0, 59, 100
2, 6783859, Note_on_c, 0, 55, 100
2, 6783945, Note_off_c, 0, 57, 100
2, 6784726, Note_on_c, 0, 54, 100
2, 6785293, Note_off_c, 0, 55, 100
2, 6785593, Note_on_c, 0, 53, 100
2, 6786441, Note_off_c, 0, 53, 100
2, 6786441, Note_on_c, 0, 53, 100
2, 6786462, Note_off_c, 0, 54, 100
2, 6787251, Note_on_c, 0, 52, 100
2, 6787493, Note_off_c, 0, 53, 100
2, 6787630, Note_off_c, 0, 52, 100
2, 6788007, Note_on_c, 0, 52, 100
2, 6788410, Note_off_c, 0, 52, 100
2, 6788701, Note_on_c, 0, 52, 100
2, 6789333, Note_on_c, 0, 53, 100
2, 6789442, Note_off_c, 0, 52, 100
2, 6789910, Note_on_c, 0, 54, 100
2, 6790106, Note_off_c, 0, 53, 100
2, 6790447, Note_off_c, 0, 54, 100
2, 6790447, Note_on_c, 0, 54, 100
2, 6790741, Note_off_c, 0, 54, 100
2, 6791114, Note_on_c, 0, 55, 100
2, 6791226, Note_off_c, 0, 55, 100
2, 6792031, Note_on_c, 0, 56, 100
2, 6792163, Note_off_c, 0, 56, 100
2, 6792920, Note_on_c, 0, 57, 100
2, 6793271, Note_off_c, 0, 57, 100
2, 6793762, Note_on_c, 0, 57, 100
2, 6794418, Note_off_c, 0, 57, 100
2, 6794542, Note_on_c, 0, 57, 100
2, 6795254, Note_on_c, 0, 56, 100
2, 6795415, Note_off_c, 0, 57, 100
2, 6795901, Note_off_c, 0, 56, 100
2, 6795901, Note_on_c, 0, 56, 100
2, 6796386, Note_off_c, 0, 56, 100
2, 6796495, Note_on_c, 0, 54, 100
2, 6796822, Note_off_c, 0, 54, 100
2, 6797052, Note_on_c, 0, 53, 100
2, 6797592, Note_on_c, 0, 51, 100
2, 6798089, Note_off_c, 0, 53, 100
2, 6798339, Note_on_c, 0, 50, 100
2, 6799192, Note_off_c, 0, 51, 100
2, 6799205, Note_on_c, 0, 48, 100
2, 6800029, Note_on_c, 0, 46, 100
2, 6800137, Note_off_c, 0, 50, 100
2, 6800728, Note_off_c, 0, 48, 100
2, 6800803, Note_on_c, 0, 44, 100
2, 6800847, Note_off_c, 0, 46, 100
2, 6801122, Note_off_c, 0, 44, 100
2, 6801525, Note_on_c, 0, 43, 100
2, 6802201, Note_on_c, 0, 42, 100
2, 6802754, Note_off_c, 0, 43, 100
2, 6802844, Note_on_c, 0, 41, 100
2, 6803469, Note_off_c, 0, 42, 100
2, 6803469, Note_on_c, 0, 42, 100
2, 6804093, Note_off_c, 0, 42, 100
2, 6804093, Note_on_c, 0, 42, 100
2, 6804732, Note_on_c, 0, 44, 100
2, 6804804, Note_off_c, 0, 41, 100
2, 6804926, Note_off_c, 0, 44, 100
2, 6805056, Note_off_c, 0, 42, 100
2, 6805482, Note_on_c, 0, 46, 100
2, 6806226, Note_on_c, 0, 48, 100
2, 6806388, Note_off_c, 0, 46, 100
2, 6806939, Note_on_c, 0, 50, 100
2, 6807512, Note_off_c, 0, 48, 100
2, 6807628, Note_on_c, 0, 53, 100
2, 6808212, Note_off_c, 0, 50, 100
2, 6808335, Note_on_c, 0, 56, 100
2, 6808576, Note_off_c, 0, 53, 100
2, 6808823, Note_off_c, 0, 56, 100
2, 6809098, Note_on_c, 0, 59, 100
2, 6809196, Note_off_c, 0, 59, 100
2, 6809846, Note_on_c, 0, 62, 100
2, 6810134, Note_off_c, 0, 62, 100
2, 6810569, Note_on_c, 0, 64, 100
2, 6810813, Note_off_c, 0, 64, 100
2, 6811259, Note_on_c, 0, 66, 100
2, 6811401, Note_off_c, 0, 66, 100
2, 6811922, Note_on_c, 0, 67, 100
2, 6812251, Note_off_c, 0, 67, 100
2, 6812731, Note_on_c, 0, 67, 100
2, 6813084, Note_off_c, 0, 67, 100
2, 6813554, Note_on_c, 0, 67, 100
2, 6813686, Note_off_c, 0, 67, 100
2, 6814377, Note_on_c, 0, 66, 100
2, 6814868, Note_off_c, 0, 66, 100
2, 6815180, Note_on_c, 0, 65, 100
2, 6815949, Note_on_c, 0, 62, 100
2, 6816167, Note_off_c, 0, 65, 100
2, 6816671, Note_on_c, 0, 60, 100
2, 6817291, Note_off_c, 0, 62, 100
2, 6817340, Note_on_c, 0, 57, 100
2, 6817956, Note_on_c, 0, 54, 100
2, 6818044, Note_off_c, 0, 60, 100
2, 6818233, Note_off_c, 0, 54, 100
2, 6818339, Note_off_c, 0, 57, 100
2, 6818528, Note_on_c, 0, 51, 100
2, 6819167, Note_on_c, 0, 49, 100
2, 6819319, Note_off_c, 0, 51, 100
2, 6820071, Note_on_c, 0, 47, 100
2, 6820725, Note_off_c, 0, 49, 100
2, 6820961, Note_off_c, 0, 45, 100
2, 6820961, Note_on_c, 0, 45, 100
2, 6821815, Note_on_c, 0, 43, 100
2, 6822039, Note_off_c, 0, 47, 100
2, 6822615, Note_off_c, 0, 43, 100
2, 6822615, Note_on_c, 0, 43, 100
2, 6823116, Note_off_c, 0, 43, 100
2, 6823350, Note_on_c, 0, 42, 100
2, 6824018, Note_on_c, 0, 43, 100
2, 6824075, Note_off_c, 0, 42, 100
2, 6824622, Note_off_c, 0, 43, 100
2, 6824622, Note_on_c, 0, 43, 100
2, 6825178, Note_off_c, 0, 45, 100
2, 6825178, Note_on_c, 0, 45, 100
2, 6825704, Note_on_c, 0, 46, 100
2, 6826363, Note_off_c, 0, 43, 100
2, 6826416, Note_on_c, 0, 48, 100
2, 6826755, Note_off_c, 0, 46, 100
2, 6826791, Note_off_c, 0, 48, 100
2, 6827319, Note_on_c, 0, 50, 100
2, 6827729, Note_off_c, 0, 50, 100
2, 6828185, Note_on_c, 0, 51, 100
2, 6828935, Note_off_c, 0, 51, 100
2, 6828998, Note_on_c, 0, 52, 100
2, 6829749, Note_on_c, 0, 54, 100
2, 6829779, Note_off_c, 0, 52, 100
2, 6830327, Note_off_c, 0, 54, 100
2, 6830440, Note_on_c, 0, 55, 100
2, 6830739, Note_off_c, 0, 55, 100
2, 6831078, Note_on_c, 0, 55, 100
2, 6831192, Note_off_c, 0, 55, 100
2, 6831678, Note_on_c, 0, 56, 100
2, 6831809, Note_off_c, 0, 56, 100
2, 6832258, Note_on_c, 0, 56, 100
2, 6832605, Note_off_c, 0, 56, 100
2, 6832838, Note_on_c, 0, 55, 100
2, 6833487, Note_off_c, 0, 55, 100
2, 6833603, Note_on_c, 0, 55, 100
2, 6834414, Note_on_c, 0, 54, 100
2, 6834467, Note_off_c, 0, 55, 100
2, 6835184, Note_on_c, 0, 53, 100
2, 6835246, Note_off_c, 0, 54, 100
2, 6835662, Note_off_c, 0, 53, 100
2, 6835914, Note_on_c, 0, 53, 100
2, 6836245, Note_off_c, 0, 53, 100
2, 6836609, Note_on_c, 0, 52, 100
2, 6837280, Note_off_c, 0, 52, 100
2, 6837280, Note_on_c, 0, 52, 100
2, 6837941, Note_off_c, 0, 52, 100
2, 6837941, Note_on_c, 0, 52, 100
2, 6838607, Note_off_c, 0, 52, 100
2, 6838607, Note_on_c, 0, 52, 100
2, 6839290, Note_on_c, 0, 53, 100
2, 6840000, Note_on_c, 0, 54, 100
2, 6840099, Note_off_c, 0, 53, 100
2, 6840122, Note_off_c, 0, 52, 100
2, 6840327, Note_off_c, 0, 54, 100
2, 6840737, Note_on_c, 0, 55, 100
2, 6841501, Note_on_c, 0, 56, 100
2, 6841973, Note_off_c, 0, 55, 100
2, 6842281, Note_on_c, 0, 57, 100
2, 6843064, Note_on_c, 0, 59, 100
2, 6843339, Note_off_c, 0, 56, 100
2, 6843836, Note_on_c, 0, 60, 100
2, 6844242, Note_off_c, 0, 57, 100
2, 6844582, Note_off_c, 0, 60, 100
2, 6844582, Note_on_c, 0, 60, 100
2, 6844648, Note_off_c, 0, 59, 100
2, 6844783, Note_off_c, 0, 60, 100
2, 6845292, Note_on_c, 0, 61, 100
2, 6845959, Note_off_c, 0, 61, 100
2, 6845959, Note_on_c, 0, 61, 100
2, 6846585, Note_on_c, 0, 60, 100
2, 6847221, Note_off_c, 0, 60, 100
2, 6847221, Note_on_c, 0, 60, 100
2, 6847253, Note_off_c, 0, 61, 100
2, 6848087, Note_on_c, 0, 58, 100
2, 6848173, Note_off_c, 0, 60, 100
2, 6848576, Note_off_c, 0, 58, 100
2, 6848954, Note_on_c, 0, 56, 100
2, 6849055, Note_off_c, 0, 56, 100
2, 6849801, Note_on_c, 0, 54, 100
2, 6850095, Note_off_c, 0, 54, 100
2, 6850610, Note_on_c, 0, 51, 100
2, 6850861, Note_off_c, 0, 51, 100
2, 6851366, Note_on_c, 0, 50, 100
2, 6851499, Note_off_c, 0, 50, 100
2, 6852059, Note_on_c, 0, 47, 100
2, 6852380, Note_off_c, 0, 47, 100
2, 6852690, Note_on_c, 0, 44, 100
2, 6853037, Note_off_c, 0, 44, 100
2, 6853267, Note_on_c, 0, 42, 100
2, 6853395, Note_off_c, 0, 42, 100
2, 6853804, Note_on_c, 0, 41, 100
2, 6854295, Note_off_c, 0, 41, 100
2, 6854477, Note_on_c, 0, 40, 100
2, 6855394, Note_on_c, 0, 39, 100
2, 6855461, Note_off_c, 0, 40, 100
2, 6856282, Note_off_c, 0, 39, 100
2, 6856282, Note_on_c, 0, 39, 100
2, 6857123, Note_on_c, 0, 40, 100
2, 6857648, Note_off_c, 0, 39, 100
2, 6857903, Note_on_c, 0, 42, 100
2, 6858113, Note_off_c, 0, 40, 100
2, 6858172, Note_off_c, 0, 42, 100
2, 6858614, Note_on_c, 0, 44, 100
2, 6859261, Note_on_c, 0, 47, 100
2, 6859411, Note_off_c, 0, 44, 100
2, 6859854, Note_on_c, 0, 50, 100
2, 6860410, Note_on_c, 0, 52, 100
2, 6860822, Note_off_c, 0, 47, 100
2, 6860950, Note_on_c, 0, 55, 100
2, 6861702, Note_on_c, 0, 58, 100
2, 6861821, Note_off_c, 0, 50, 100
2, 6862102, Note_off_c, 0, 58, 100
2, 6862245, Note_off_c, 0, 55, 100
2, 6862284, Note_off_c, 0, 52, 100
2, 6862568, Note_on_c, 0, 61, 100
2, 6863302, Note_off_c, 0, 61, 100
2, 6863392, Note_on_c, 0, 63, 100
2, 6864165, Note_on_c, 0, 65, 100
2, 6864842, Note_off_c, 0, 63, 100
2, 6864887, Note_on_c, 0, 66, 100
2, 6865563, Note_off_c, 0, 66, 100
2, 6865563, Note_on_c, 0, 66, 100
2, 6865912, Note_off_c, 0, 65, 100
2, 6866205, Note_off_c, 0, 66, 100
2, 6866205, Note_on_c, 0, 66, 100
2, 6866613, Note_off_c, 0, 66, 100
2, 6866829, Note_on_c, 0, 65, 100
2, 6867246, Note_off_c, 0, 65, 100
2, 6867453, Note_on_c, 0, 64, 100
2, 6868091, Note_on_c, 0, 62, 100
2, 6868211, Note_off_c, 0, 64, 100
2, 6868844, Note_on_c, 0, 60, 100
2, 6868881, Note_off_c, 0, 62, 100
2, 6869430, Note_off_c, 0, 60, 100
2, 6869588, Note_on_c, 0, 57, 100
2, 6869892, Note_off_c, 0, 57, 100
2, 6870301, Note_on_c, 0, 55, 100
2, 6870417, Note_off_c, 0, 55, 100
2, 6870991, Note_on_c, 0, 52, 100
2, 6871120, Note_off_c, 0, 52, 100
2, 6871692, Note_on_c, 0, 50, 100
2, 6872034, Note_off_c, 0, 50, 100
2, 6872455, Note_on_c, 0, 49, 100
2, 6873097, Note_off_c, 0, 49, 100
2, 6873204, Note_on_c, 0, 48, 100
2, 6873926, Note_on_c, 0, 47, 100
2, 6874060, Note_off_c, 0, 48, 100
2, 6874617, Note_on_c, 0, 46, 100
2, 6874749, Note_off_c, 0, 47, 100
2, 6875088, Note_off_c, 0, 46, 100
2, 6875283, Note_on_c, 0, 46, 100
2, 6875619, Note_off_c, 0, 46, 100
2, 6876091, Note_on_c, 0, 46, 100
2, 6876914, Note_on_c, 0, 47, 100
2, 6877132, Note_off_c, 0, 46, 100
2, 6877736, Note_on_c, 0, 48, 100
2, 6878510, Note_off_c, 0, 47, 100
2, 6878539, Note_on_c, 0, 49, 100
2, 6879307, Note_on_c, 0, 50, 100
2, 6879524, Note_off_c, 0, 48, 100
2, 6880029, Note_on_c, 0, 51, 100
2, 6880047, Note_off_c, 0, 49, 100
2, 6880108, Note_off_c, 0, 50, 100
2, 6880364, Note_off_c, 0, 51, 100
2, 6880697, Note_on_c, 0, 52, 100
2, 6881313, Note_off_c, 0, 52, 100
2, 6881313, Note_on_c, 0, 52, 100
2, 6881885, Note_on_c, 0, 53, 100
2, 6882529, Note_off_c, 0, 53, 100
2, 6882529, Note_on_c, 0, 53, 100
2, 6883155, Note_off_c, 0, 52, 100
2, 6883433, Note_off_c, 0, 53, 100
2, 6883433, Note_on_c, 0, 53, 100
2, 6884274, Note_off_c, 0, 53, 100
2, 6884322, Note_on_c, 0, 52, 100
2, 6884531, Note_off_c, 0, 52, 100
2, 6885176, Note_on_c, 0, 51, 100
2, 6885975, Note_off_c, 0, 51, 100
2, 6885975, Note_on_c, 0, 51, 100
2, 6886710, Note_on_c, 0, 50, 100
2, 6887277, Note_off_c, 0, 51, 100
2, 6887376, Note_off_c, 0, 50, 100
2, 6887376, Note_on_c, 0, 50, 100
2, 6887980, Note_off_c, 0, 50, 100
2, 6887980, Note_on_c, 0, 50, 100
2, 6888470, Note_off_c, 0, 50, 100
2, 6888535, Note_on_c, 0, 49, 100
2, 6888639, Note_off_c, 0, 49, 100
2, 6889061, Note_on_c, 0, 49, 100
2, 6889361, Note_off_c, 0, 49, 100
2, 6889779, Note_on_c, 0, 50, 100
2, 6890038, Note_off_c, 0, 50, 100
2, 6890682, Note_on_c, 0, 50, 100
2, 6890807, Note_off_c, 0, 50, 100
2, 6891548, Note_on_c, 0, 51, 100
2, 6891861, Note_off_c, 0, 51, 100
2, 6892360, Note_on_c, 0, 52, 100
2, 6892701, Note_off_c, 0, 52, 100
2, 6893111, Note_on_c, 0, 54, 100
2, 6893236, Note_off_c, 0, 54, 100
2, 6893801, Note_on_c, 0, 56, 100
2, 6894292, Note_off_c, 0, 56, 100
2, 6894439, Note_on_c, 0, 58, 100
2, 6895038, Note_on_c, 0, 60, 100
2, 6895419, Note_off_c, 0, 58, 100
2, 6895617, Note_on_c, 0, 62, 100
2, 6896196, Note_on_c, 0, 63, 100
2, 6896368, Note_off_c, 0, 60, 100
2, 6896965, Note_on_c, 0, 64, 100
2, 6896975, Note_off_c, 0, 62, 100
2, 6897178, Note_off_c, 0, 63, 100
2, 6897227, Note_off_c, 0, 64, 100
2, 6897776, Note_on_c, 0, 65, 100
2, 6898547, Note_on_c, 0, 64, 100
2, 6898578, Note_off_c, 0, 65, 100
2, 6899277, Note_off_c, 0, 64, 100
2, 6899277, Note_on_c, 0, 64, 100
2, 6899972, Note_on_c, 0, 62, 100
2, 6900643, Note_on_c, 0, 60, 100
2, 6901244, Note_off_c, 0, 64, 100
2, 6901303, Note_on_c, 0, 58, 100
2, 6901695, Note_off_c, 0, 58, 100
2, 6901842, Note_off_c, 0, 62, 100
2, 6901931, Note_off_c, 0, 60, 100
2, 6901968, Note_on_c, 0, 55, 100
2, 6902651, Note_on_c, 0, 52, 100
2, 6902710, Note_off_c, 0, 55, 100
2, 6903360, Note_on_c, 0, 50, 100
2, 6904097, Note_on_c, 0, 47, 100
2, 6904108, Note_off_c, 0, 52, 100
2, 6904859, Note_on_c, 0, 44, 100
2, 6905112, Note_off_c, 0, 50, 100
2, 6905639, Note_on_c, 0, 42, 100
2, 6905678, Note_off_c, 0, 47, 100
2, 6905908, Note_off_c, 0, 44, 100
2, 6906006, Note_off_c, 0, 42, 100
2, 6906422, Note_on_c, 0, 40, 100
2, 6906845, Note_off_c, 0, 40, 100
2, 6907193, Note_on_c, 0, 39, 100
2, 6907940, Note_off_c, 0, 39, 100
2, 6907940, Note_on_c, 0, 39, 100
2, 6908649, Note_off_c, 0, 39, 100
2, 6908649, Note_on_c, 0, 39, 100
2, 6909242, Note_off_c, 0, 39, 100
2, 6909317, Note_on_c, 0, 40, 100
2, 6909626, Note_off_c, 0, 40, 100
2, 6909943, Note_on_c, 0, 41, 100
2, 6910061, Note_off_c, 0, 41, 100
2, 6910583, Note_on_c, 0, 44, 100
2, 6910711, Note_off_c, 0, 44, 100
2, 6911448, Note_on_c, 0, 46, 100
2, 6911785, Note_off_c, 0, 46, 100
2, 6912315, Note_on_c, 0, 49, 100
2, 6912950, Note_off_c, 0, 49, 100
2, 6913161, Note_on_c, 0, 51, 100
2, 6913969, Note_on_c, 0, 54, 100
2, 6914009, Note_off_c, 0, 51, 100
2, 6914724, Note_on_c, 0, 57, 100
2, 6914784, Note_off_c, 0, 54, 100
2, 6915188, Note_off_c, 0, 57, 100
2, 6915417, Note_on_c, 0, 59, 100
2, 6915758, Note_off_c, 0, 59, 100
2, 6916048, Note_on_c, 0, 61, 100
2, 6916624, Note_on_c, 0, 63, 100
2, 6917090, Note_off_c, 0, 61, 100
2, 6917161, Note_on_c, 0, 64, 100
2, 6917839, Note_off_c, 0, 64, 100
2, 6917839, Note_on_c, 0, 64, 100
2, 6918218, Note_off_c, 0, 63, 100
2, 6918756, Note_on_c, 0, 63, 100
2, 6919340, Note_off_c, 0, 64, 100
2, 6919548, Note_off_c, 0, 63, 100
2, 6919644, Note_on_c, 0, 63, 100
2, 6919988, Note_off_c, 0, 63, 100
2, 6920485, Note_on_c, 0, 61, 100
2, 6921263, Note_on_c, 0, 60, 100
2, 6921734, Note_off_c, 0, 61, 100
2, 6921974, Note_on_c, 0, 58, 100
2, 6922621, Note_on_c, 0, 56, 100
2, 6923110, Note_off_c, 0, 60, 100
2, 6923213, Note_on_c, 0, 54, 100
2, 6923768, Note_on_c, 0, 53, 100
2, 6923937, Note_off_c, 0, 58, 100
2, 6923984, Note_off_c, 0, 53, 100
2, 6924049, Note_off_c, 0, 54, 100
2, 6924201, Note_off_c, 0, 56, 100
2, 6924308, Note_on_c, 0, 51, 100
2, 6925064, Note_on_c, 0, 50, 100
2, 6925240, Note_off_c, 0, 51, 100
2, 6925931, Note_off_c, 0, 50, 100
2, 6925931, Note_on_c, 0, 50, 100
2, 6926755, Note_off_c, 0, 50, 100
2, 6926755, Note_on_c, 0, 50, 100
2, 6927528, Note_off_c, 0, 50, 100
2, 6927528, Note_on_c, 0, 50, 100
2, 6928018, Note_off_c, 0, 50, 100
2, 6928249, Note_on_c, 0, 50, 100
2, 6928355, Note_off_c, 0, 50, 100
2, 6928925, Note_on_c, 0, 50, 100
2, 6929230, Note_off_c, 0, 50, 100
2, 6929566, Note_on_c, 0, 51, 100
2, 6929833, Note_off_c, 0, 51, 100
2, 6930190, Note_on_c, 0, 52, 100
2, 6930306, Note_off_c, 0, 52, 100
2, 6930813, Note_on_c, 0, 52, 100
2, 6931118, Note_off_c, 0, 52, 100
2, 6931450, Note_on_c, 0, 53, 100
2, 6931785, Note_off_c, 0, 53, 100
2, 6932205, Note_on_c, 0, 53, 100
2, 6932327, Note_off_c, 0, 53, 100
2, 6932950, Note_on_c, 0, 53, 100
2, 6933441, Note_off_c, 0, 53, 100
2, 6933664, Note_on_c, 0, 53, 100
2, 6934353, Note_on_c, 0, 52, 100
2, 6934641, Note_off_c, 0, 53, 100
2, 6935049, Note_on_c, 0, 51, 100
2, 6935676, Note_off_c, 0, 52, 100
2, 6935812, Note_on_c, 0, 50, 100
2, 6936399, Note_off_c, 0, 51, 100
2, 6936561, Note_off_c, 0, 50, 100
2, 6936561, Note_on_c, 0, 50, 100
2, 6936815, Note_off_c, 0, 50, 100
2, 6937284, Note_on_c, 0, 49, 100
2, 6937976, Note_on_c, 0, 48, 100
2, 6938092, Note_off_c, 0, 49, 100
2, 6938644, Note_on_c, 0, 46, 100
2, 6939452, Note_off_c, 0, 46, 100
2, 6939452, Note_on_c, 0, 46, 100
2, 6939543, Note_off_c, 0, 48, 100
2, 6940274, Note_off_c, 0, 45, 100
2, 6940274, Note_on_c, 0, 45, 100
2, 6941094, Note_off_c, 0, 45, 100
2, 6941094, Note_on_c, 0, 45, 100
2, 6941318, Note_off_c, 0, 46, 100
2, 6941897, Note_on_c, 0, 46, 100
2, 6942648, Note_off_c, 0, 46, 100
2, 6942665, Note_on_c, 0, 47, 100
2, 6943386, Note_on_c, 0, 48, 100
2, 6944054, Note_on_c, 0, 50, 100
2, 6944130, Note_off_c, 0, 47, 100
2, 6944670, Note_on_c, 0, 51, 100
2, 6945144, Note_off_c, 0, 48, 100
2, 6945243, Note_on_c, 0, 54, 100
2, 6945605, Note_off_c, 0, 54, 100
2, 6945637, Note_off_c, 0, 50, 100
2, 6945718, Note_off_c, 0, 51, 100
2, 6945892, Note_on_c, 0, 56, 100
2, 6946322, Note_off_c, 0, 56, 100
2, 6946795, Note_on_c, 0, 59, 100
2, 6947569, Note_off_c, 0, 59, 100
2, 6947684, Note_on_c, 0, 62, 100
2, 6948490, Note_off_c, 0, 62, 100
2, 6948536, Note_on_c, 0, 64, 100
2, 6949136, Note_off_c, 0, 64, 100
2, 6949335, Note_on_c, 0, 65, 100
2, 6949649, Note_off_c, 0, 65, 100
2, 6950069, Note_on_c, 0, 66, 100
2, 6950189, Note_off_c, 0, 66, 100
2, 6950735, Note_on_c, 0, 67, 100
2, 6950862, Note_off_c, 0, 67, 100
2, 6951338, Note_on_c, 0, 67, 100
2, 6951671, Note_off_c, 0, 67, 100
2, 6951893, Note_on_c, 0, 66, 100
2, 6952418, Note_on_c, 0, 64, 100
2, 6952521, Note_off_c, 0, 66, 100
2, 6953142, Note_on_c, 0, 62, 100
2, 6953257, Note_off_c, 0, 64, 100
2, 6953949, Note_off_c, 0, 62, 100
2, 6954045, Note_on_c, 0, 59, 100
2, 6954502, Note_off_c, 0, 59, 100
2, 6954910, Note_on_c, 0, 56, 100
2, 6955255, Note_off_c, 0, 56, 100
2, 6955722, Note_on_c, 0, 53, 100
2, 6956473, Note_on_c, 0, 50, 100
2, 6956765, Note_off_c, 0, 53, 100
2, 6957162, Note_on_c, 0, 48, 100
2, 6957799, Note_off_c, 0, 45, 100
2, 6957799, Note_on_c, 0, 45, 100
2, 6958065, Note_off_c, 0, 50, 100
2, 6958397, Note_on_c, 0, 43, 100
2, 6958940, Note_off_c, 0, 48, 100
2, 6958976, Note_on_c, 0, 41, 100
2, 6959181, Note_off_c, 0, 43, 100
2, 6959328, Note_off_c, 0, 41, 100
2, 6959555, Note_on_c, 0, 40, 100
2, 6960328, Note_off_c, 0, 40, 100
2, 6960328, Note_on_c, 0, 40, 100
2, 6961139, Note_off_c, 0, 40, 100
2, 6961139, Note_on_c, 0, 40, 100
2, 6961910, Note_on_c, 0, 41, 100
2, 6962640, Note_on_c, 0, 42, 100
2, 6963103, Note_off_c, 0, 40, 100
2, 6963335, Note_on_c, 0, 44, 100
2, 6963470, Note_off_c, 0, 42, 100
2, 6963487, Note_off_c, 0, 41, 100
2, 6963559, Note_off_c, 0, 44, 100
2, 6964005, Note_on_c, 0, 46, 100
2, 6964665, Note_on_c, 0, 49, 100
2, 6964945, Note_off_c, 0, 46, 100
2, 6965330, Note_on_c, 0, 50, 100
2, 6965983, Note_off_c, 0, 49, 100
2, 6966012, Note_on_c, 0, 53, 100
2, 6966629, Note_off_c, 0, 50, 100
2, 6966720, Note_on_c, 0, 55, 100
2, 6966975, Note_off_c, 0, 53, 100
2, 6967210, Note_off_c, 0, 55, 100
2, 6967456, Note_on_c, 0, 57, 100
2, 6967565, Note_off_c, 0, 57, 100
2, 6968218, Note_on_c, 0, 58, 100
2, 6968529, Note_off_c, 0, 58, 100
2, 6968997, Note_on_c, 0, 59, 100
2, 6969272, Note_off_c, 0, 59, 100
2, 6969779, Note_on_c, 0, 60, 100
2, 6969887, Note_off_c, 0, 60, 100
2, 6970551, Note_on_c, 0, 60, 100
2, 6970848, Note_off_c, 0, 60, 100
2, 6971297, Note_on_c, 0, 60, 100
2, 6971626, Note_off_c, 0, 60, 100
2, 6972006, Note_on_c, 0, 59, 100
2, 6972124, Note_off_c, 0, 59, 100
2, 6972674, Note_on_c, 0, 58, 100
2, 6973165, Note_off_c, 0, 58, 100
2, 6973301, Note_on_c, 0, 57, 100
2, 6973944, Note_on_c, 0, 56, 100
2, 6974275, Note_off_c, 0, 57, 100
2, 6974809, Note_on_c, 0, 54, 100
2, 6975261, Note_off_c, 0, 56, 100
2, 6975675, Note_on_c, 0, 53, 100
2, 6976151, Note_off_c, 0, 54, 100
2, 6976521, Note_off_c, 0, 53, 100
2, 6976521, Note_on_c, 0, 53, 100
2, 6976767, Note_off_c, 0, 53, 100
2, 6977328, Note_on_c, 0, 52, 100
2, 6978082, Note_off_c, 0, 52, 100
2, 6978082, Note_on_c, 0, 52, 100
2, 6978775, Note_off_c, 0, 52, 100
2, 6978775, Note_on_c, 0, 52, 100
2, 6979405, Note_on_c, 0, 53, 100
2, 6979981, Note_off_c, 0, 53, 100
2, 6979981, Note_on_c, 0, 53, 100
2, 6980518, Note_on_c, 0, 54, 100
2, 6980741, Note_off_c, 0, 52, 100
2, 6980894, Note_off_c, 0, 54, 100
2, 6981202, Note_on_c, 0, 55, 100
2, 6981267, Note_off_c, 0, 53, 100
2, 6981961, Note_off_c, 0, 55, 100
2, 6982119, Note_on_c, 0, 56, 100
2, 6983007, Note_off_c, 0, 56, 100
2, 6983007, Note_on_c, 0, 56, 100
2, 6983846, Note_on_c, 0, 57, 100
2, 6984624, Note_off_c, 0, 57, 100
2, 6984624, Note_on_c, 0, 57, 100
2, 6984770, Note_off_c, 0, 56, 100
2, 6985335, Note_on_c, 0, 56, 100
2, 6985671, Note_off_c, 0, 57, 100
2, 6985693, Note_off_c, 0, 56, 100
2, 6985980, Note_on_c, 0, 55, 100
2, 6986417, Note_off_c, 0, 55, 100
2, 6986571, Note_on_c, 0, 54, 100
2, 6987126, Note_on_c, 0, 53, 100
2, 6987353, Note_off_c, 0, 54, 100
2, 6987666, Note_on_c, 0, 51, 100
2, 6987941, Note_off_c, 0, 53, 100
2, 6988273, Note_off_c, 0, 51, 100
2, 6988427, Note_on_c, 0, 50, 100
2, 6988746, Note_off_c, 0, 50, 100
2, 6989294, Note_on_c, 0, 48, 100
2, 6989416, Note_off_c, 0, 48, 100
2, 6990118, Note_on_c, 0, 46, 100
2, 6990243, Note_off_c, 0, 46, 100
2, 6990891, Note_on_c, 0, 44, 100
2, 6991219, Note_off_c, 0, 44, 100
2, 6991612, Note_on_c, 0, 43, 100
2, 6992233, Note_off_c, 0, 43, 100
2, 6992286, Note_on_c, 0, 42, 100
2, 6992927, Note_on_c, 0, 41, 100
2, 6993117, Note_off_c, 0, 42, 100
2, 6993551, Note_on_c, 0, 42, 100
2, 6993725, Note_off_c, 0, 41, 100
2, 6994001, Note_off_c, 0, 42, 100
2, 6994173, Note_on_c, 0, 42, 100
2, 6994523, Note_off_c, 0, 42, 100
2, 6994810, Note_on_c, 0, 44, 100
2, 6995567, Note_on_c, 0, 46, 100
2, 6995855, Note_off_c, 0, 44, 100
2, 6996312, Note_on_c, 0, 48, 100
2, 6997026, Note_on_c, 0, 50, 100
2, 6997157, Note_off_c, 0, 46, 100
2, 6997716, Note_on_c, 0, 53, 100
2, 6998085, Note_off_c, 0, 48, 100
2, 6998407, Note_on_c, 0, 56, 100
2, 6998492, Note_off_c, 0, 53, 100
2, 6998512, Note_off_c, 0, 50, 100
2, 6998767, Note_off_c, 0, 56, 100
2, 6999170, Note_on_c, 0, 59, 100
2, 6999919, Note_on_c, 0, 62, 100
2, 7000433, Note_off_c, 0, 59, 100
2, 7000642, Note_on_c, 0, 64, 100
2, 7001334, Note_on_c, 0, 66, 100
2, 7001774, Note_off_c, 0, 62, 100
2, 7002005, Note_on_c, 0, 67, 100
2, 7002606, Note_off_c, 0, 64, 100
2, 7002812, Note_off_c, 0, 67, 100
2, 7002812, Note_on_c, 0, 67, 100
2, 7002909, Note_off_c, 0, 66, 100
2, 7003043, Note_off_c, 0, 67, 100
2, 7003633, Note_on_c, 0, 67, 100
2, 7004453, Note_on_c, 0, 66, 100
2, 7004582, Note_off_c, 0, 67, 100
2, 7005255, Note_on_c, 0, 65, 100
2, 7005779, Note_off_c, 0, 66, 100
2, 7006023, Note_on_c, 0, 62, 100
2, 7006560, Note_off_c, 0, 65, 100
2, 7006744, Note_on_c, 0, 60, 100
2, 7006990, Note_off_c, 0, 62, 100
2, 7007235, Note_off_c, 0, 60, 100
2, 7007412, Note_on_c, 0, 57, 100
2, 7007524, Note_off_c, 0, 57, 100
2, 7008027, Note_on_c, 0, 54, 100
2, 7008344, Note_off_c, 0, 54, 100
2, 7008600, Note_on_c, 0, 51, 100
2, 7008882, Note_off_c, 0, 51, 100
2, 7009254, Note_on_c, 0, 49, 100
2, 7009353, Note_off_c, 0, 49, 100
2, 7010157, Note_on_c, 0, 47, 100
2, 7010447, Note_off_c, 0, 47, 100
2, 7011045, Note_off_c, 0, 45, 100
2, 7011045, Note_on_c, 0, 45, 100
2, 7011897, Note_on_c, 0, 43, 100
2, 7012012, Note_off_c, 0, 43, 100
2, 7012695, Note_on_c, 0, 42, 100
2, 7013186, Note_off_c, 0, 42, 100
2, 7013428, Note_on_c, 0, 42, 100
2, 7014094, Note_off_c, 0, 42, 100
2, 7014094, Note_on_c, 0, 42, 100
2, 7014696, Note_on_c, 0, 43, 100
2, 7015251, Note_off_c, 0, 45, 100
2, 7015251, Note_on_c, 0, 45, 100
2, 7015405, Note_off_c, 0, 42, 100
2, 7015776, Note_on_c, 0, 46, 100
2, 7016014, Note_off_c, 0, 46, 100
2, 7016030, Note_off_c, 0, 43, 100
2, 7016504, Note_on_c, 0, 48, 100
2, 7017323, Note_off_c, 0, 48, 100
2, 7017408, Note_on_c, 0, 50, 100
2, 7018273, Note_on_c, 0, 51, 100
2, 7018980, Note_off_c, 0, 50, 100
2, 7019084, Note_on_c, 0, 52, 100
2, 7019834, Note_on_c, 0, 54, 100
2, 7020238, Note_off_c, 0, 51, 100
2, 7020523, Note_on_c, 0, 55, 100
2, 7020891, Note_off_c, 0, 55, 100
2, 7020942, Note_off_c, 0, 52, 100
2, 7021103, Note_off_c, 0, 54, 100
2, 7021159, Note_on_c, 0, 55, 100
2, 7021757, Note_on_c, 0, 56, 100
2, 7021927, Note_off_c, 0, 55, 100
2, 7022335, Note_off_c, 0, 56, 100
2, 7022335, Note_on_c, 0, 56, 100
2, 7022913, Note_on_c, 0, 55, 100
2, 7023690, Note_off_c, 0, 55, 100
2, 7023690, Note_on_c, 0, 55, 100
2, 7024103, Note_off_c, 0, 56, 100
2, 7024501, Note_on_c, 0, 54, 100
2, 7024736, Note_off_c, 0, 55, 100
2, 7024855, Note_off_c, 0, 54, 100
2, 7025273, Note_on_c, 0, 53, 100
2, 7025717, Note_off_c, 0, 53, 100
2, 7026003, Note_on_c, 0, 53, 100
2, 7026698, Note_on_c, 0, 52, 100
2, 7026794, Note_off_c, 0, 53, 100
2, 7027368, Note_off_c, 0, 52, 100
2, 7027368, Note_on_c, 0, 52, 100
2, 7027982, Note_off_c, 0, 52, 100
2, 7028027, Note_on_c, 0, 52, 100
2, 7028351, Note_off_c, 0, 52, 100
2, 7028691, Note_on_c, 0, 52, 100
2, 7028814, Note_off_c, 0, 52, 100
2, 7029372, Note_on_c, 0, 53, 100
2, 7029495, Note_off_c, 0, 53, 100
2, 7030080, Note_on_c, 0, 54, 100
2, 7030403, Note_off_c, 0, 54, 100
2, 7030815, Note_on_c, 0, 55, 100
2, 7031429, Note_off_c, 0, 55, 100
2, 7031577, Note_on_c, 0, 56, 100
2, 7032355, Note_on_c, 0, 57, 100
2, 7032400, Note_off_c, 0, 56, 100
2, 7033137, Note_on_c, 0, 58, 100
2, 7033145, Note_off_c, 0, 57, 100
2, 7033580, Note_off_c, 0, 58, 100
2, 7033908, Note_on_c, 0, 60, 100
2, 7034262, Note_off_c, 0, 60, 100
2, 7034654, Note_on_c, 0, 60, 100
2, 7035364, Note_on_c, 0, 61, 100
2, 7035700, Note_off_c, 0, 60, 100
2, 7036031, Note_off_c, 0, 61, 100
2, 7036031, Note_on_c, 0, 61, 100
2, 7036659, Note_on_c, 0, 60, 100
2, 7037306, Note_on_c, 0, 59, 100
2, 7037799, Note_off_c, 0, 61, 100
2, 7038073, Note_off_c, 0, 59, 100
2, 7038138, Note_off_c, 0, 60, 100
2, 7038171, Note_on_c, 0, 58, 100
2, 7038539, Note_off_c, 0, 58, 100
2, 7039035, Note_on_c, 0, 56, 100
2, 7039881, Note_on_c, 0, 54, 100
2, 7040304, Note_off_c, 0, 56, 100
2, 7040687, Note_on_c, 0, 51, 100
2, 7041441, Note_on_c, 0, 49, 100
2, 7041740, Note_off_c, 0, 54, 100
2, 7042133, Note_on_c, 0, 47, 100
2, 7042652, Note_off_c, 0, 51, 100
2, 7042763, Note_on_c, 0, 44, 100
2, 7042952, Note_off_c, 0, 47, 100
2, 7043002, Note_off_c, 0, 44, 100
2, 7043013, Note_off_c, 0, 49, 100
2, 7043339, Note_on_c, 0, 42, 100
2, 7043876, Note_on_c, 0, 41, 100
2, 7044296, Note_off_c, 0, 42, 100
2, 7044565, Note_on_c, 0, 40, 100
2, 7045210, Note_off_c, 0, 41, 100
2, 7045481, Note_on_c, 0, 39, 100
2, 7045877, Note_off_c, 0, 40, 100
2, 7046369, Note_off_c, 0, 39, 100
2, 7046369, Note_on_c, 0, 39, 100
2, 7046860, Note_off_c, 0, 39, 100
2, 7047208, Note_on_c, 0, 40, 100
2, 7047323, Note_off_c, 0, 40, 100
2, 7047985, Note_on_c, 0, 42, 100
2, 7048308, Note_off_c, 0, 42, 100
2, 7048695, Note_on_c, 0, 44, 100
2, 7048985, Note_off_c, 0, 44, 100
2, 7049339, Note_on_c, 0, 47, 100
2, 7049439, Note_off_c, 0, 47, 100
2, 7049930, Note_on_c, 0, 50, 100
2, 7050212, Note_off_c, 0, 50, 100
2, 7050484, Note_on_c, 0, 52, 100
2, 7050801, Note_off_c, 0, 52, 100
2, 7051023, Note_on_c, 0, 55, 100
2, 7051135, Note_off_c, 0, 55, 100
2, 7051790, Note_on_c, 0, 58, 100
2, 7052281, Note_off_c, 0, 58, 100
2, 7052656, Note_on_c, 0, 61, 100
2, 7053481, Note_on_c, 0, 63, 100
2, 7053623, Note_off_c, 0, 61, 100
2, 7054253, Note_on_c, 0, 65, 100
2, 7054786, Note_off_c, 0, 63, 100
2, 7054974, Note_on_c, 0, 66, 100
2, 7055579, Note_off_c, 0, 65, 100
2, 7055648, Note_off_c, 0, 66, 100
2, 7055648, Note_on_c, 0, 66, 100
2, 7055922, Note_off_c, 0, 66, 100
2, 7056289, Note_on_c, 0, 66, 100
2, 7056911, Note_on_c, 0, 65, 100
2, 7057114, Note_off_c, 0, 66, 100
2, 7057533, Note_on_c, 0, 64, 100
2, 7058169, Note_on_c, 0, 62, 100
2, 7058486, Note_off_c, 0, 65, 100
2, 7058928, Note_on_c, 0, 59, 100
2, 7059497, Note_off_c, 0, 64, 100
2, 7059674, Note_on_c, 0, 57, 100
2, 7060023, Note_off_c, 0, 62, 100
2, 7060033, Note_off_c, 0, 57, 100
2, 7060190, Note_off_c, 0, 59, 100
2, 7060389, Note_on_c, 0, 54, 100
2, 7061079, Note_on_c, 0, 52, 100
2, 7061165, Note_off_c, 0, 54, 100
2, 7061764, Note_on_c, 0, 50, 100
2, 7062527, Note_on_c, 0, 49, 100
2, 7062566, Note_off_c, 0, 52, 100
2, 7063276, Note_on_c, 0, 47, 100
2, 7063537, Note_off_c, 0, 50, 100
2, 7064000, Note_on_c, 0, 46, 100
2, 7064117, Note_off_c, 0, 49, 100
2, 7064321, Note_off_c, 0, 47, 100
2, 7064349, Note_off_c, 0, 46, 100
2, 7064693, Note_on_c, 0, 46, 100
2, 7065144, Note_off_c, 0, 46, 100
2, 7065366, Note_on_c, 0, 46, 100
2, 7066165, Note_off_c, 0, 46, 100
2, 7066172, Note_on_c, 0, 46, 100
2, 7066993, Note_on_c, 0, 47, 100
2, 7067004, Note_off_c, 0, 46, 100
2, 7067615, Note_off_c, 0, 47, 100
2, 7067812, Note_on_c, 0, 48, 100
2, 7068140, Note_off_c, 0, 48, 100
2, 7068614, Note_on_c, 0, 49, 100
2, 7068739, Note_off_c, 0, 49, 100
2, 7069381, Note_on_c, 0, 50, 100
2, 7069503, Note_off_c, 0, 50, 100
2, 7070101, Note_on_c, 0, 51, 100
2, 7070420, Note_off_c, 0, 51, 100
2, 7070769, Note_on_c, 0, 52, 100
2, 7071376, Note_off_c, 0, 52, 100
2, 7071385, Note_on_c, 0, 52, 100
2, 7071957, Note_on_c, 0, 53, 100
2, 7072199, Note_off_c, 0, 52, 100
2, 7072616, Note_off_c, 0, 53, 100
2, 7072616, Note_on_c, 0, 53, 100
2, 7073052, Note_off_c, 0, 53, 100
2, 7073519, Note_on_c, 0, 53, 100
2, 7073877, Note_off_c, 0, 53, 100
2, 7074406, Note_on_c, 0, 52, 100
2, 7075258, Note_off_c, 0, 52, 100
2, 7075258, Note_on_c, 0, 52, 100
2, 7076055, Note_on_c, 0, 51, 100
2, 7076788, Note_on_c, 0, 50, 100
2, 7076844, Note_off_c, 0, 52, 100
2, 7077452, Note_off_c, 0, 50, 100
2, 7077452, Note_on_c, 0, 50, 100
2, 7077817, Note_off_c, 0, 51, 100
2, 7078054, Note_off_c, 0, 50, 100
2, 7078054, Note_on_c, 0, 50, 100
2, 7078430, Note_off_c, 0, 50, 100
2, 7078608, Note_on_c, 0, 49, 100
2, 7079133, Note_off_c, 0, 49, 100
2, 7079133, Note_on_c, 0, 49, 100
2, 7079867, Note_on_c, 0, 50, 100
2, 7080771, Note_off_c, 0, 50, 100
2, 7080771, Note_on_c, 0, 50, 100
2, 7080996, Note_off_c, 0, 49, 100
2, 7081635, Note_on_c, 0, 51, 100
2, 7082340, Note_off_c, 0, 50, 100
2, 7082447, Note_on_c, 0, 52, 100
2, 7082448, Note_off_c, 0, 51, 100
2, 7082694, Note_off_c, 0, 52, 100
2, 7083196, Note_on_c, 0, 54, 100
2, 7083884, Note_on_c, 0, 56, 100
2, 7084162, Note_off_c, 0, 54, 100
2, 7084520, Note_on_c, 0, 58, 100
2, 7085117, Note_on_c, 0, 60, 100
2, 7085226, Note_off_c, 0, 56, 100
2, 7085694, Note_on_c, 0, 62, 100
2, 7085838, Note_off_c, 0, 58, 100
2, 7086091, Note_off_c, 0, 60, 100
2, 7086185, Note_off_c, 0, 62, 100
2, 7086271, Note_on_c, 0, 63, 100
2, 7086390, Note_off_c, 0, 63, 100
2, 7087052, Note_on_c, 0, 64, 100
2, 7087381, Note_off_c, 0, 64, 100
2, 7087864, Note_on_c, 0, 64, 100
2, 7088162, Note_off_c, 0, 64, 100
2, 7088635, Note_on_c, 0, 64, 100
2, 7088744, Note_off_c, 0, 64, 100
2, 7089366, Note_on_c, 0, 63, 100
2, 7089640, Note_off_c, 0, 63, 100
2, 7090060, Note_on_c, 0, 62, 100
2, 7090371, Note_off_c, 0, 62, 100
2, 7090730, Note_on_c, 0, 60, 100
2, 7090839, Note_off_c, 0, 60, 100
2, 7091389, Note_on_c, 0, 58, 100
2, 7091879, Note_off_c, 0, 58, 100
2, 7092053, Note_on_c, 0, 55, 100
2, 7092733, Note_on_c, 0, 52, 100
2, 7093016, Note_off_c, 0, 55, 100
2, 7093440, Note_on_c, 0, 50, 100
2, 7094032, Note_off_c, 0, 52, 100
2, 7094175, Note_on_c, 0, 47, 100
2, 7094758, Note_off_c, 0, 50, 100
2, 7094935, Note_on_c, 0, 44, 100
2, 7095114, Note_off_c, 0, 47, 100
2, 7095158, Note_off_c, 0, 44, 100
2, 7095713, Note_on_c, 0, 42, 100
2, 7096495, Note_on_c, 0, 40, 100
2, 7096544, Note_off_c, 0, 42, 100
2, 7097265, Note_on_c, 0, 39, 100
2, 7098011, Note_off_c, 0, 39, 100
2, 7098011, Note_on_c, 0, 39, 100
2, 7098072, Note_off_c, 0, 40, 100
2, 7098721, Note_off_c, 0, 39, 100
2, 7098721, Note_on_c, 0, 39, 100
2, 7099389, Note_on_c, 0, 40, 100
2, 7099740, Note_off_c, 0, 40, 100
2, 7099977, Note_off_c, 0, 39, 100
2, 7100016, Note_on_c, 0, 41, 100
2, 7100668, Note_on_c, 0, 44, 100
2, 7100801, Note_off_c, 0, 41, 100
2, 7101532, Note_on_c, 0, 46, 100
2, 7102162, Note_off_c, 0, 44, 100
2, 7102396, Note_on_c, 0, 49, 100
2, 7103240, Note_on_c, 0, 51, 100
2, 7103310, Note_off_c, 0, 46, 100
2, 7103988, Note_off_c, 0, 49, 100
2, 7104046, Note_on_c, 0, 54, 100
2, 7104283, Note_off_c, 0, 51, 100
2, 7104391, Note_off_c, 0, 54, 100
2, 7104799, Note_on_c, 0, 57, 100
2, 7105257, Note_off_c, 0, 57, 100
2, 7105491, Note_on_c, 0, 59, 100
2, 7106120, Note_on_c, 0, 61, 100
2, 7106298, Note_off_c, 0, 59, 100
2, 7106696, Note_on_c, 0, 63, 100
2, 7106960, Note_off_c, 0, 61, 100
2, 7107233, Note_on_c, 0, 64, 100
2, 7107325, Note_off_c, 0, 63, 100
2, 7107566, Note_off_c, 0, 64, 100
2, 7107928, Note_on_c, 0, 64, 100
2, 7108055, Note_off_c, 0, 64, 100
2, 7108843, Note_on_c, 0, 64, 100
2, 7108963, Note_off_c, 0, 64, 100
2, 7109731, Note_on_c, 0, 63, 100
2, 7110045, Note_off_c, 0, 63, 100
2, 7110569, Note_on_c, 0, 61, 100
2, 7111169, Note_off_c, 0, 61, 100
2, 7111346, Note_on_c, 0, 60, 100
2, 7112055, Note_on_c, 0, 58, 100
2, 7112152, Note_off_c, 0, 60, 100
2, 7112699, Note_on_c, 0, 56, 100
2, 7112829, Note_off_c, 0, 58, 100
2, 7113129, Note_off_c, 0, 56, 100
2, 7113289, Note_on_c, 0, 54, 100
2, 7113652, Note_off_c, 0, 54, 100
2, 7113843, Note_on_c, 0, 53, 100
2, 7114381, Note_on_c, 0, 51, 100
2, 7114891, Note_off_c, 0, 53, 100
2, 7115152, Note_on_c, 0, 50, 100
2, 7115964, Note_off_c, 0, 51, 100
2, 7116019, Note_off_c, 0, 50, 100
2, 7116019, Note_on_c, 0, 50, 100
2, 7116843, Note_off_c, 0, 50, 100
2, 7116843, Note_on_c, 0, 50, 100
2, 7117593, Note_off_c, 0, 50, 100
2, 7117616, Note_on_c, 0, 50, 100
2, 7118000, Note_off_c, 0, 50, 100
2, 7118336, Note_on_c, 0, 50, 100
2, 7119010, Note_off_c, 0, 50, 100
2, 7119010, Note_on_c, 0, 50, 100
2, 7119650, Note_on_c, 0, 51, 100
2, 7120272, Note_on_c, 0, 52, 100
2, 7120877, Note_off_c, 0, 50, 100
2, 7120893, Note_off_c, 0, 52, 100
2, 7120893, Note_on_c, 0, 52, 100
2, 7121528, Note_on_c, 0, 53, 100
2, 7121616, Note_off_c, 0, 51, 100
2, 7121782, Note_off_c, 0, 53, 100
2, 7121838, Note_off_c, 0, 52, 100
2, 7122290, Note_on_c, 0, 53, 100
2, 7123036, Note_off_c, 0, 53, 100
2, 7123036, Note_on_c, 0, 53, 100
2, 7123751, Note_off_c, 0, 53, 100
2, 7123751, Note_on_c, 0, 53, 100
2, 7124441, Note_on_c, 0, 52, 100
2, 7125075, Note_off_c, 0, 53, 100
2, 7125121, Note_on_c, 0, 51, 100
2, 7125418, Note_off_c, 0, 52, 100
2, 7125612, Note_off_c, 0, 51, 100
2, 7125884, Note_on_c, 0, 50, 100
2, 7126006, Note_off_c, 0, 50, 100
2, 7126634, Note_on_c, 0, 50, 100
2, 7126969, Note_off_c, 0, 50, 100
2, 7127358, Note_on_c, 0, 49, 100
2, 7127664, Note_off_c, 0, 49, 100
2, 7128051, Note_on_c, 0, 48, 100
2, 7128168, Note_off_c, 0, 48, 100
2, 7128727, Note_on_c, 0, 47, 100
2, 7128993, Note_off_c, 0, 47, 100
2, 7129532, Note_on_c, 0, 46, 100
2, 7129837, Note_off_c, 0, 46, 100
2, 7130352, Note_off_c, 0, 45, 100
2, 7130352, Note_on_c, 0, 45, 100
2, 7131171, Note_off_c, 0, 45, 100
2, 7131171, Note_on_c, 0, 45, 100
2, 7131972, Note_on_c, 0, 46, 100
2, 7132738, Note_on_c, 0, 47, 100
2, 7132931, Note_off_c, 0, 46, 100
2, 7133459, Note_on_c, 0, 48, 100
2, 7134030, Note_off_c, 0, 47, 100
2, 7134126, Note_on_c, 0, 50, 100
2, 7134742, Note_on_c, 0, 51, 100
2, 7134769, Note_off_c, 0, 48, 100
2, 7134958, Note_off_c, 0, 51, 100
2, 7135057, Note_off_c, 0, 50, 100
2, 7135315, Note_on_c, 0, 54, 100
2, 7135979, Note_on_c, 0, 57, 100
2, 7136151, Note_off_c, 0, 54, 100
2, 7136881, Note_on_c, 0, 59, 100
2, 7137559, Note_off_c, 0, 57, 100
2, 7137768, Note_on_c, 0, 62, 100
2, 7138618, Note_on_c, 0, 64, 100
2, 7138844, Note_off_c, 0, 59, 100
2, 7139415, Note_on_c, 0, 65, 100
2, 7139614, Note_off_c, 0, 62, 100
2, 7139758, Note_off_c, 0, 65, 100
2, 7139867, Note_off_c, 0, 64, 100
2, 7140147, Note_on_c, 0, 66, 100
2, 7140811, Note_on_c, 0, 67, 100
2, 7140940, Note_off_c, 0, 66, 100
2, 7141413, Note_off_c, 0, 67, 100
2, 7141413, Note_on_c, 0, 67, 100
2, 7141966, Note_on_c, 0, 66, 100
2, 7142490, Note_on_c, 0, 64, 100
2, 7143196, Note_off_c, 0, 67, 100
2, 7143230, Note_on_c, 0, 62, 100
2, 7143532, Note_off_c, 0, 64, 100
2, 7143560, Note_off_c, 0, 66, 100
2, 7143570, Note_off_c, 0, 62, 100
2, 7144133, Note_on_c, 0, 59, 100
2, 7144598, Note_off_c, 0, 59, 100
2, 7144998, Note_on_c, 0, 56, 100
2, 7145809, Note_on_c, 0, 53, 100
2, 7145814, Note_off_c, 0, 56, 100
2, 7146558, Note_on_c, 0, 50, 100
2, 7146657, Note_off_c, 0, 53, 100
2, 7147194, Note_off_c, 0, 50, 100
2, 7147245, Note_on_c, 0, 48, 100
2, 7147583, Note_off_c, 0, 48, 100
2, 7147880, Note_off_c, 0, 45, 100
2, 7147880, Note_on_c, 0, 45, 100
2, 7148476, Note_on_c, 0, 43, 100
2, 7148594, Note_off_c, 0, 43, 100
2, 7149053, Note_on_c, 0, 41, 100
2, 7149362, Note_off_c, 0, 41, 100
2, 7149630, Note_on_c, 0, 40, 100
2, 7150222, Note_off_c, 0, 40, 100
2, 7150414, Note_on_c, 0, 40, 100
2, 7151211, Note_off_c, 0, 40, 100
2, 7151226, Note_on_c, 0, 40, 100
2, 7151991, Note_off_c, 0, 40, 100
2, 7151998, Note_on_c, 0, 41, 100
2, 7152421, Note_off_c, 0, 41, 100
2, 7152728, Note_on_c, 0, 42, 100
2, 7153095, Note_off_c, 0, 42, 100
2, 7153423, Note_on_c, 0, 44, 100
2, 7154092, Note_on_c, 0, 47, 100
2, 7154472, Note_off_c, 0, 44, 100
2, 7154751, Note_on_c, 0, 49, 100
2, 7155414, Note_on_c, 0, 51, 100
2, 7155673, Note_off_c, 0, 47, 100
2, 7156094, Note_on_c, 0, 53, 100
2, 7156503, Note_off_c, 0, 49, 100
2, 7156800, Note_on_c, 0, 55, 100
2, 7156836, Note_off_c, 0, 53, 100
2, 7156871, Note_off_c, 0, 51, 100
2, 7157192, Note_off_c, 0, 55, 100
2, 7157534, Note_on_c, 0, 57, 100
2, 7158294, Note_on_c, 0, 59, 100
2, 7158823, Note_off_c, 0, 57, 100
2, 7159071, Note_on_c, 0, 60, 100
2, 7159852, Note_off_c, 0, 60, 100
2, 7159852, Note_on_c, 0, 60, 100
2, 7160164, Note_off_c, 0, 59, 100
2, 7160623, Note_off_c, 0, 60, 100
2, 7160623, Note_on_c, 0, 60, 100
2, 7161368, Note_off_c, 0, 60, 100
2, 7161368, Note_on_c, 0, 60, 100
2, 7161630, Note_off_c, 0, 60, 100
2, 7162078, Note_on_c, 0, 59, 100
2, 7162746, Note_on_c, 0, 58, 100
2, 7163061, Note_off_c, 0, 59, 100
2, 7163374, Note_on_c, 0, 57, 100
2, 7164030, Note_on_c, 0, 56, 100
2, 7164104, Note_off_c, 0, 58, 100
2, 7164704, Note_off_c, 0, 57, 100
2, 7164893, Note_on_c, 0, 54, 100
2, 7165011, Note_off_c, 0, 56, 100
2, 7165384, Note_off_c, 0, 54, 100
2, 7165756, Note_on_c, 0, 53, 100
2, 7165881, Note_off_c, 0, 53, 100
2, 7166600, Note_on_c, 0, 53, 100
2, 7166941, Note_off_c, 0, 53, 100
2, 7167405, Note_on_c, 0, 52, 100
2, 7167719, Note_off_c, 0, 52, 100
2, 7168158, Note_on_c, 0, 52, 100
2, 7168284, Note_off_c, 0, 52, 100
2, 7168849, Note_on_c, 0, 52, 100
2, 7169107, Note_off_c, 0, 52, 100
2, 7169478, Note_on_c, 0, 53, 100
2, 7169777, Note_off_c, 0, 53, 100
2, 7170053, Note_on_c, 0, 53, 100
2, 7170156, Note_off_c, 0, 53, 100
2, 7170590, Note_on_c, 0, 54, 100
2, 7171079, Note_off_c, 0, 54, 100
2, 7171290, Note_on_c, 0, 55, 100
2, 7172206, Note_on_c, 0, 56, 100
2, 7172245, Note_off_c, 0, 55, 100
2, 7173093, Note_off_c, 0, 56, 100
2, 7173093, Note_on_c, 0, 56, 100
2, 7173931, Note_on_c, 0, 57, 100
2, 7174395, Note_off_c, 0, 56, 100
2, 7174707, Note_off_c, 0, 57, 100
2, 7174707, Note_on_c, 0, 57, 100
2, 7174915, Note_off_c, 0, 57, 100
2, 7175415, Note_on_c, 0, 56, 100
2, 7176058, Note_on_c, 0, 55, 100
2, 7176256, Note_off_c, 0, 56, 100
2, 7176648, Note_on_c, 0, 54, 100
2, 7177201, Note_on_c, 0, 53, 100
2, 7177640, Note_off_c, 0, 55, 100
2, 7177739, Note_on_c, 0, 51, 100
2, 7178515, Note_on_c, 0, 50, 100
2, 7178610, Note_off_c, 0, 54, 100
2, 7178850, Note_off_c, 0, 50, 100
2, 7178981, Note_off_c, 0, 51, 100
2, 7179043, Note_off_c, 0, 53, 100
2, 7179382, Note_on_c, 0, 48, 100
2, 7180183, Note_off_c, 0, 48, 100
2, 7180206, Note_on_c, 0, 46, 100
2, 7180979, Note_on_c, 0, 44, 100
2, 7181698, Note_on_c, 0, 43, 100
2, 7181715, Note_off_c, 0, 46, 100
2, 7182372, Note_on_c, 0, 42, 100
2, 7182767, Note_off_c, 0, 44, 100
2, 7183011, Note_off_c, 0, 42, 100
2, 7183011, Note_on_c, 0, 42, 100
2, 7183294, Note_off_c, 0, 43, 100
2, 7183412, Note_off_c, 0, 42, 100
2, 7183632, Note_on_c, 0, 42, 100
2, 7184104, Note_off_c, 0, 42, 100
2, 7184252, Note_on_c, 0, 43, 100
2, 7184887, Note_on_c, 0, 44, 100
2, 7185076, Note_off_c, 0, 43, 100
2, 7185651, Note_on_c, 0, 46, 100
2, 7185744, Note_off_c, 0, 44, 100
2, 7186294, Note_off_c, 0, 46, 100
2, 7186398, Note_on_c, 0, 48, 100
2, 7186740, Note_off_c, 0, 48, 100
2, 7187114, Note_on_c, 0, 50, 100
2, 7187244, Note_off_c, 0, 50, 100
2, 7187804, Note_on_c, 0, 53, 100
2, 7187920, Note_off_c, 0, 53, 100
2, 7188481, Note_on_c, 0, 56, 100
2, 7188785, Note_off_c, 0, 56, 100
2, 7189241, Note_on_c, 0, 59, 100
2, 7189826, Note_off_c, 0, 59, 100
2, 7189991, Note_on_c, 0, 62, 100
2, 7190716, Note_on_c, 0, 64, 100
2, 7190780, Note_off_c, 0, 62, 100
2, 7191409, Note_on_c, 0, 66, 100
2, 7191473, Note_off_c, 0, 64, 100
2, 7191825, Note_off_c, 0, 66, 100
2, 7192088, Note_on_c, 0, 67, 100
2, 7192459, Note_off_c, 0, 67, 100
2, 7192893, Note_on_c, 0, 67, 100
2, 7193712, Note_off_c, 0, 67, 100
2, 7193712, Note_on_c, 0, 67, 100
2, 7194530, Note_on_c, 0, 66, 100
2, 7195291, Note_off_c, 0, 67, 100
2, 7195330, Note_on_c, 0, 65, 100
2, 7196096, Note_on_c, 0, 62, 100
2, 7196276, Note_off_c, 0, 66, 100
2, 7196779, Note_off_c, 0, 65, 100
2, 7196816, Note_on_c, 0, 60, 100
2, 7196829, Note_off_c, 0, 62, 100
2, 7197217, Note_off_c, 0, 60, 100
2, 7197483, Note_on_c, 0, 57, 100
2, 7198099, Note_on_c, 0, 54, 100
2, 7198672, Note_on_c, 0, 51, 100
2, 7198778, Note_off_c, 0, 57, 100
2, 7199341, Note_on_c, 0, 49, 100
2, 7199973, Note_off_c, 0, 54, 100
2, 7200639, Note_off_c, 0, 51, 100
2, 7200902, Note_off_c, 0, 49, 100
2, 7200902, End_track
0, 0, End_of_file