Track,Time,Name,Channel,Note,Velocity
0,0,0,Header,1,1.0,384.0
1,1,0,Start_track,,,
2,1,0,Title_t,"""6/29 1 ~ 3  e-Comp""",,
3,1,0,Program_c,0,0.0,
4,1,786,Note_on_c,0,74.0,92.0
6,1,1187,Note_on_c,0,81.0,93.0
7,1,1560,Note_on_c,0,57.0,79.0
9,1,1946,Note_on_c,0,62.0,86.0
10,1,1967,Control_c,0,64.0,56.0
12,1,1981,Control_c,0,64.0,67.0
13,1,1996,Control_c,0,64.0,78.0
15,1,2012,Control_c,0,64.0,127.0
16,1,2316,Note_on_c,0,78.0,97.0
17,1,2323,Note_on_c,0,74.0,82.0
18,1,2332,Control_c,0,64.0,69.0
21,1,2702,Note_on_c,0,73.0,73.0
22,1,2709,Note_on_c,0,76.0,79.0
26,1,2812,Note_on_c,0,71.0,78.0
27,1,2816,Note_on_c,0,74.0,72.0
30,1,2907,Note_on_c,0,73.0,79.0
31,1,2916,Note_on_c,0,69.0,76.0
34,1,3016,Note_on_c,0,71.0,83.0
35,1,3017,Note_on_c,0,67.0,78.0
38,1,3120,Note_on_c,0,69.0,77.0
39,1,3121,Note_on_c,0,66.0,76.0
42,1,3222,Note_on_c,0,64.0,73.0
43,1,3222,Note_on_c,0,67.0,72.0
46,1,3347,Note_on_c,0,62.0,80.0
47,1,3347,Note_on_c,0,66.0,85.0
50,1,3379,Control_c,0,64.0,62.0
51,1,3394,Control_c,0,64.0,67.0
52,1,3409,Control_c,0,64.0,76.0
53,1,3425,Control_c,0,64.0,113.0
54,1,3440,Control_c,0,64.0,127.0
55,1,3607,Control_c,0,64.0,105.0
56,1,3623,Control_c,0,64.0,87.0
57,1,3638,Control_c,0,64.0,80.0
58,1,3653,Control_c,0,64.0,79.0
59,1,3683,Control_c,0,64.0,79.0
60,1,3699,Control_c,0,64.0,69.0
62,1,3715,Note_on_c,0,81.0,96.0
63,1,3722,Note_on_c,0,78.0,81.0
66,1,4085,Note_on_c,0,79.0,84.0
67,1,4100,Note_on_c,0,76.0,70.0
70,1,4194,Note_on_c,0,78.0,89.0
71,1,4201,Note_on_c,0,74.0,81.0
74,1,4301,Note_on_c,0,76.0,92.0
75,1,4302,Note_on_c,0,73.0,83.0
78,1,4400,Note_on_c,0,74.0,89.0
79,1,4408,Note_on_c,0,71.0,79.0
82,1,4504,Note_on_c,0,73.0,90.0
83,1,4510,Note_on_c,0,69.0,81.0
86,1,4605,Note_on_c,0,67.0,79.0
87,1,4610,Note_on_c,0,71.0,88.0
90,1,4724,Note_on_c,0,66.0,80.0
91,1,4730,Note_on_c,0,69.0,82.0
93,1,4768,Control_c,0,64.0,61.0
95,1,4793,Control_c,0,64.0,65.0
96,1,4808,Control_c,0,64.0,73.0
97,1,4823,Control_c,0,64.0,99.0
98,1,4838,Control_c,0,64.0,127.0
99,1,5021,Control_c,0,64.0,111.0
100,1,5036,Control_c,0,64.0,85.0
101,1,5050,Control_c,0,64.0,73.0
102,1,5066,Control_c,0,64.0,66.0
103,1,5068,Note_on_c,0,86.0,87.0
104,1,5081,Control_c,0,64.0,61.0
105,1,5090,Note_on_c,0,66.0,61.0
106,1,5097,Control_c,0,64.0,35.0
109,1,5183,Note_on_c,0,81.0,90.0
112,1,5276,Note_on_c,0,74.0,92.0
113,1,5417,Note_on_c,0,67.0,60.0
115,1,5419,Note_on_c,0,78.0,75.0
117,1,5495,Note_on_c,0,76.0,74.0
120,1,5559,Control_c,0,67.0,8.0
121,1,5561,Note_on_c,0,78.0,74.0
122,1,5575,Control_c,0,67.0,17.0
123,1,5590,Control_c,0,67.0,25.0
124,1,5606,Control_c,0,67.0,36.0
125,1,5617,Note_on_c,0,76.0,71.0
127,1,5622,Control_c,0,67.0,45.0
128,1,5636,Control_c,0,67.0,51.0
129,1,5651,Control_c,0,67.0,57.0
131,1,5667,Control_c,0,67.0,62.0
132,1,5669,Note_on_c,0,78.0,72.0
133,1,5682,Control_c,0,67.0,69.0
134,1,5698,Control_c,0,67.0,78.0
135,1,5712,Control_c,0,67.0,86.0
136,1,5723,Note_on_c,0,76.0,71.0
137,1,5727,Control_c,0,67.0,93.0
139,1,5743,Control_c,0,67.0,98.0
140,1,5758,Control_c,0,67.0,103.0
142,1,5774,Control_c,0,67.0,107.0
143,1,5776,Note_on_c,0,78.0,70.0
144,1,5788,Control_c,0,67.0,110.0
145,1,5796,Note_on_c,0,69.0,62.0
146,1,5803,Control_c,0,67.0,112.0
147,1,5819,Control_c,0,67.0,113.0
149,1,5832,Note_on_c,0,76.0,67.0
152,1,5893,Note_on_c,0,78.0,72.0
153,1,5910,Control_c,0,67.0,112.0
154,1,5925,Control_c,0,67.0,111.0
155,1,5941,Control_c,0,67.0,110.0
156,1,5951,Note_on_c,0,76.0,68.0
158,1,5971,Control_c,0,67.0,110.0
159,1,5986,Control_c,0,67.0,109.0
160,1,6001,Control_c,0,67.0,108.0
162,1,6008,Note_on_c,0,74.0,71.0
163,1,6017,Control_c,0,67.0,106.0
164,1,6032,Control_c,0,67.0,105.0
165,1,6062,Control_c,0,67.0,104.0
167,1,6076,Note_on_c,0,76.0,70.0
168,1,6093,Control_c,0,67.0,104.0
169,1,6109,Control_c,0,67.0,102.0
170,1,6123,Control_c,0,67.0,100.0
171,1,6139,Control_c,0,67.0,99.0
172,1,6154,Control_c,0,67.0,97.0
173,1,6169,Control_c,0,67.0,96.0
175,1,6174,Note_on_c,0,62.0,46.0
176,1,6174,Note_on_c,0,78.0,70.0
177,1,6185,Control_c,0,67.0,95.0
178,1,6199,Control_c,0,67.0,95.0
179,1,6215,Control_c,0,67.0,93.0
180,1,6230,Control_c,0,64.0,34.0
181,1,6230,Control_c,0,67.0,90.0
182,1,6244,Control_c,0,64.0,59.0
183,1,6244,Control_c,0,67.0,87.0
184,1,6260,Control_c,0,64.0,64.0
185,1,6260,Control_c,0,67.0,84.0
186,1,6275,Control_c,0,64.0,70.0
187,1,6275,Control_c,0,67.0,81.0
189,1,6290,Control_c,0,64.0,86.0
190,1,6290,Control_c,0,67.0,77.0
192,1,6306,Control_c,0,64.0,127.0
193,1,6306,Control_c,0,67.0,73.0
194,1,6328,Control_c,0,67.0,70.0
195,1,6344,Control_c,0,67.0,68.0
196,1,6359,Control_c,0,67.0,67.0
197,1,6374,Control_c,0,67.0,66.0
198,1,6389,Control_c,0,67.0,65.0
199,1,6404,Control_c,0,67.0,64.0
200,1,6421,Control_c,0,67.0,63.0
201,1,6436,Control_c,0,67.0,62.0
202,1,6451,Control_c,0,67.0,61.0
203,1,6467,Control_c,0,67.0,60.0
204,1,6481,Control_c,0,67.0,60.0
205,1,6497,Control_c,0,67.0,59.0
206,1,6512,Control_c,0,67.0,58.0
207,1,6527,Control_c,0,67.0,58.0
208,1,6543,Control_c,0,67.0,57.0
209,1,6557,Control_c,0,64.0,99.0
210,1,6557,Note_on_c,0,62.0,67.0
211,1,6558,Note_on_c,0,81.0,73.0
212,1,6573,Control_c,0,64.0,64.0
215,1,6588,Control_c,0,67.0,57.0
216,1,6619,Control_c,0,67.0,56.0
217,1,6633,Control_c,0,67.0,55.0
218,1,6648,Control_c,0,67.0,54.0
220,1,6664,Control_c,0,67.0,54.0
221,1,6667,Note_on_c,0,74.0,68.0
222,1,6694,Control_c,0,67.0,53.0
224,1,6763,Note_on_c,0,69.0,59.0
225,1,6769,Control_c,0,67.0,53.0
226,1,6785,Control_c,0,67.0,52.0
227,1,6815,Control_c,0,67.0,52.0
228,1,6875,Note_on_c,0,55.0,61.0
229,1,6879,Note_on_c,0,71.0,66.0
231,1,6891,Control_c,0,67.0,51.0
233,1,6907,Control_c,0,67.0,51.0
234,1,6922,Control_c,0,67.0,50.0
236,1,6938,Control_c,0,67.0,49.0
237,1,6948,Note_on_c,0,73.0,68.0
238,1,6953,Control_c,0,67.0,48.0
239,1,6967,Control_c,0,67.0,48.0
240,1,6983,Control_c,0,67.0,47.0
241,1,7013,Control_c,0,67.0,47.0
243,1,7022,Note_on_c,0,71.0,65.0
244,1,7038,Note_on_c,0,64.0,59.0
246,1,7059,Control_c,0,67.0,46.0
248,1,7091,Note_on_c,0,69.0,68.0
249,1,7097,Control_c,0,67.0,46.0
250,1,7112,Control_c,0,67.0,45.0
251,1,7126,Control_c,0,67.0,44.0
253,1,7142,Control_c,0,67.0,43.0
254,1,7143,Note_on_c,0,71.0,62.0
255,1,7157,Control_c,0,67.0,42.0
256,1,7173,Control_c,0,67.0,41.0
257,1,7188,Control_c,0,67.0,39.0
258,1,7197,Note_on_c,0,57.0,61.0
259,1,7200,Note_on_c,0,73.0,73.0
260,1,7203,Control_c,0,67.0,37.0
261,1,7218,Control_c,0,67.0,34.0
264,1,7233,Control_c,0,67.0,32.0
265,1,7249,Control_c,0,67.0,30.0
267,1,7264,Note_on_c,0,74.0,68.0
268,1,7265,Control_c,0,67.0,28.0
269,1,7280,Control_c,0,67.0,26.0
270,1,7295,Control_c,0,67.0,25.0
271,1,7310,Control_c,0,67.0,24.0
272,1,7322,Note_on_c,0,73.0,67.0
273,1,7325,Control_c,0,67.0,23.0
275,1,7359,Note_on_c,0,66.0,59.0
276,1,7371,Control_c,0,67.0,23.0
278,1,7387,Control_c,0,67.0,22.0
280,1,7400,Note_on_c,0,71.0,68.0
281,1,7401,Control_c,0,67.0,21.0
282,1,7417,Control_c,0,67.0,20.0
283,1,7432,Control_c,0,67.0,20.0
284,1,7446,Control_c,0,67.0,19.0
285,1,7449,Note_on_c,0,73.0,59.0
287,1,7462,Control_c,0,67.0,19.0
288,1,7477,Control_c,0,67.0,18.0
289,1,7493,Control_c,0,67.0,17.0
290,1,7506,Note_on_c,0,59.0,65.0
291,1,7508,Control_c,0,67.0,17.0
292,1,7509,Note_on_c,0,74.0,80.0
293,1,7522,Control_c,0,67.0,13.0
296,1,7538,Control_c,0,67.0,9.0
299,1,7574,Note_on_c,0,76.0,67.0
300,1,7634,Note_on_c,0,74.0,71.0
302,1,7662,Note_on_c,0,67.0,61.0
305,1,7693,Note_on_c,0,73.0,75.0
307,1,7760,Note_on_c,0,74.0,69.0
308,1,7809,Note_on_c,0,76.0,80.0
309,1,7815,Note_on_c,0,61.0,61.0
313,1,7881,Note_on_c,0,78.0,77.0
314,1,7948,Note_on_c,0,76.0,74.0
316,1,7976,Note_on_c,0,69.0,66.0
319,1,8017,Note_on_c,0,74.0,79.0
320,1,8071,Note_on_c,0,76.0,73.0
322,1,8133,Note_on_c,0,62.0,66.0
323,1,8138,Note_on_c,0,78.0,86.0
326,1,8189,Note_on_c,0,79.0,73.0
328,1,8251,Note_on_c,0,78.0,72.0
330,1,8295,Note_on_c,0,71.0,61.0
332,1,8320,Note_on_c,0,76.0,75.0
334,1,8375,Note_on_c,0,78.0,79.0
336,1,8441,Note_on_c,0,79.0,86.0
337,1,8446,Note_on_c,0,64.0,67.0
340,1,8488,Note_on_c,0,81.0,77.0
342,1,8555,Note_on_c,0,79.0,78.0
344,1,8591,Note_on_c,0,73.0,71.0
346,1,8616,Note_on_c,0,78.0,80.0
349,1,8685,Note_on_c,0,79.0,78.0
350,1,8746,Note_on_c,0,81.0,89.0
351,1,8747,Note_on_c,0,66.0,77.0
355,1,8811,Note_on_c,0,83.0,79.0
356,1,8881,Note_on_c,0,81.0,85.0
358,1,8899,Note_on_c,0,74.0,82.0
361,1,8942,Note_on_c,0,79.0,81.0
362,1,8995,Note_on_c,0,81.0,85.0
364,1,9039,Note_on_c,0,67.0,83.0
365,1,9053,Note_on_c,0,83.0,87.0
369,1,9231,Note_on_c,0,69.0,79.0
370,1,9233,Note_on_c,0,85.0,87.0
373,1,9400,Note_on_c,0,86.0,87.0
374,1,9402,Note_on_c,0,71.0,89.0
376,1,9481,Note_on_c,0,85.0,82.0
378,1,9559,Note_on_c,0,83.0,79.0
380,1,9638,Note_on_c,0,81.0,89.0
383,1,9716,Note_on_c,0,67.0,81.0
384,1,9721,Note_on_c,0,79.0,87.0
386,1,9767,Note_on_c,0,69.0,16.0
387,1,9798,Note_on_c,0,78.0,87.0
390,1,9872,Note_on_c,0,76.0,84.0
393,1,9953,Note_on_c,0,74.0,88.0
394,1,10021,Note_on_c,0,69.0,71.0
395,1,10038,Note_on_c,0,76.0,85.0
398,1,10125,Note_on_c,0,81.0,86.0
400,1,10209,Note_on_c,0,79.0,81.0
402,1,10285,Note_on_c,0,78.0,79.0
404,1,10374,Note_on_c,0,57.0,59.0
405,1,10374,Note_on_c,0,76.0,74.0
408,1,10448,Note_on_c,0,74.0,74.0
409,1,10487,Control_c,0,64.0,34.0
411,1,10503,Control_c,0,64.0,58.0
412,1,10519,Control_c,0,64.0,64.0
413,1,10524,Note_on_c,0,73.0,78.0
414,1,10535,Control_c,0,64.0,67.0
416,1,10549,Control_c,0,64.0,71.0
417,1,10564,Control_c,0,64.0,79.0
418,1,10580,Control_c,0,64.0,94.0
419,1,10595,Control_c,0,64.0,127.0
420,1,10613,Note_on_c,0,71.0,79.0
422,1,10701,Control_c,0,64.0,111.0
423,1,10716,Control_c,0,64.0,103.0
424,1,10731,Control_c,0,64.0,97.0
425,1,10747,Control_c,0,64.0,94.0
426,1,10753,Note_on_c,0,69.0,79.0
428,1,10778,Control_c,0,64.0,95.0
429,1,10793,Control_c,0,64.0,96.0
430,1,10807,Control_c,0,64.0,94.0
431,1,10823,Control_c,0,64.0,76.0
432,1,10838,Control_c,0,64.0,58.0
435,1,10890,Note_on_c,0,71.0,65.0
436,1,10937,Control_c,0,64.0,60.0
437,1,10952,Control_c,0,64.0,64.0
439,1,10963,Note_on_c,0,69.0,68.0
440,1,10967,Control_c,0,64.0,68.0
441,1,10982,Control_c,0,64.0,76.0
442,1,10997,Control_c,0,64.0,97.0
444,1,11013,Control_c,0,64.0,127.0
445,1,11019,Note_on_c,0,71.0,61.0
446,1,11074,Note_on_c,0,69.0,60.0
448,1,11125,Note_on_c,0,71.0,64.0
449,1,11128,Note_on_c,0,54.0,57.0
451,1,11183,Note_on_c,0,69.0,61.0
454,1,11236,Note_on_c,0,71.0,65.0
455,1,11269,Note_on_c,0,62.0,70.0
456,1,11294,Note_on_c,0,69.0,69.0
461,1,11349,Note_on_c,0,67.0,79.0
462,1,11403,Note_on_c,0,69.0,73.0
464,1,11489,Note_on_c,0,55.0,75.0
465,1,11585,Note_on_c,0,71.0,71.0
466,1,11591,Control_c,0,64.0,115.0
467,1,11606,Control_c,0,64.0,75.0
469,1,11621,Control_c,0,64.0,44.0
472,1,11658,Note_on_c,0,73.0,69.0
473,1,11705,Control_c,0,67.0,8.0
474,1,11720,Control_c,0,64.0,41.0
475,1,11720,Control_c,0,67.0,9.0
476,1,11735,Control_c,0,64.0,59.0
477,1,11735,Control_c,0,67.0,12.0
478,1,11738,Note_on_c,0,71.0,67.0
479,1,11739,Note_on_c,0,64.0,64.0
480,1,11750,Control_c,0,64.0,64.0
481,1,11750,Control_c,0,67.0,17.0
483,1,11765,Control_c,0,64.0,67.0
484,1,11765,Control_c,0,67.0,21.0
486,1,11781,Control_c,0,64.0,71.0
487,1,11781,Control_c,0,67.0,25.0
490,1,11796,Control_c,0,64.0,79.0
491,1,11796,Control_c,0,67.0,27.0
492,1,11800,Note_on_c,0,69.0,71.0
493,1,11810,Control_c,0,64.0,89.0
494,1,11810,Control_c,0,67.0,29.0
495,1,11826,Control_c,0,64.0,112.0
496,1,11826,Control_c,0,67.0,30.0
497,1,11841,Control_c,0,64.0,127.0
498,1,11841,Control_c,0,67.0,30.0
499,1,11841,Note_on_c,0,71.0,70.0
500,1,11857,Control_c,0,67.0,31.0
502,1,11887,Control_c,0,67.0,32.0
503,1,11903,Control_c,0,67.0,33.0
504,1,11909,Note_on_c,0,57.0,82.0
505,1,11918,Control_c,0,67.0,34.0
506,1,11920,Note_on_c,0,73.0,79.0
507,1,11933,Control_c,0,67.0,37.0
508,1,11948,Control_c,0,67.0,38.0
510,1,11963,Control_c,0,67.0,39.0
511,1,11979,Control_c,0,64.0,74.0
513,1,11994,Control_c,0,67.0,40.0
515,1,12000,Note_on_c,0,74.0,70.0
516,1,12024,Control_c,0,67.0,41.0
517,1,12039,Control_c,0,67.0,41.0
518,1,12055,Control_c,0,67.0,43.0
519,1,12063,Note_on_c,0,73.0,73.0
520,1,12070,Control_c,0,64.0,61.0
521,1,12070,Control_c,0,67.0,45.0
523,1,12082,Note_on_c,0,66.0,69.0
524,1,12084,Control_c,0,64.0,65.0
525,1,12084,Control_c,0,67.0,49.0
526,1,12100,Control_c,0,64.0,73.0
527,1,12100,Control_c,0,67.0,54.0
528,1,12115,Control_c,0,64.0,96.0
529,1,12115,Control_c,0,67.0,60.0
532,1,12129,Control_c,0,64.0,127.0
533,1,12129,Control_c,0,67.0,64.0
534,1,12134,Note_on_c,0,71.0,74.0
536,1,12145,Control_c,0,67.0,68.0
537,1,12161,Control_c,0,67.0,70.0
538,1,12177,Control_c,0,67.0,72.0
539,1,12181,Note_on_c,0,73.0,68.0
540,1,12192,Control_c,0,67.0,73.0
542,1,12207,Control_c,0,67.0,74.0
543,1,12223,Control_c,0,67.0,75.0
544,1,12237,Control_c,0,67.0,76.0
545,1,12250,Note_on_c,0,74.0,79.0
546,1,12251,Control_c,0,67.0,78.0
547,1,12254,Note_on_c,0,59.0,82.0
548,1,12267,Control_c,0,67.0,79.0
550,1,12282,Control_c,0,64.0,119.0
551,1,12282,Control_c,0,67.0,81.0
552,1,12298,Control_c,0,64.0,67.0
553,1,12298,Control_c,0,67.0,82.0
555,1,12312,Control_c,0,67.0,83.0
557,1,12318,Note_on_c,0,76.0,74.0
558,1,12327,Control_c,0,67.0,85.0
559,1,12343,Control_c,0,67.0,86.0
560,1,12358,Control_c,0,67.0,87.0
561,1,12374,Control_c,0,67.0,87.0
562,1,12389,Control_c,0,67.0,88.0
563,1,12391,Note_on_c,0,74.0,73.0
565,1,12404,Control_c,0,64.0,58.0
566,1,12404,Control_c,0,67.0,90.0
568,1,12418,Note_on_c,0,67.0,67.0
569,1,12419,Control_c,0,64.0,65.0
570,1,12419,Control_c,0,67.0,93.0
571,1,12434,Control_c,0,64.0,71.0
572,1,12434,Control_c,0,67.0,97.0
573,1,12446,Note_on_c,0,73.0,74.0
575,1,12449,Control_c,0,64.0,85.0
576,1,12449,Control_c,0,67.0,101.0
578,1,12472,Control_c,0,64.0,116.0
579,1,12472,Control_c,0,67.0,103.0
580,1,12487,Control_c,0,64.0,127.0
581,1,12487,Control_c,0,67.0,104.0
582,1,12503,Control_c,0,67.0,105.0
584,1,12517,Control_c,0,67.0,106.0
585,1,12523,Note_on_c,0,74.0,70.0
586,1,12533,Control_c,0,67.0,107.0
587,1,12548,Control_c,0,67.0,109.0
588,1,12563,Control_c,0,67.0,111.0
589,1,12578,Control_c,0,67.0,113.0
590,1,12593,Control_c,0,67.0,114.0
591,1,12596,Note_on_c,0,76.0,76.0
592,1,12599,Note_on_c,0,61.0,66.0
594,1,12608,Control_c,0,67.0,116.0
595,1,12624,Control_c,0,64.0,93.0
596,1,12624,Control_c,0,67.0,117.0
597,1,12639,Control_c,0,64.0,63.0
598,1,12639,Control_c,0,67.0,119.0
601,1,12655,Control_c,0,67.0,121.0
602,1,12661,Note_on_c,0,78.0,75.0
603,1,12670,Control_c,0,67.0,122.0
604,1,12685,Control_c,0,67.0,123.0
605,1,12701,Control_c,0,67.0,124.0
606,1,12716,Control_c,0,67.0,125.0
607,1,12730,Control_c,0,64.0,13.0
608,1,12730,Control_c,0,67.0,126.0
609,1,12746,Control_c,0,64.0,54.0
610,1,12746,Control_c,0,67.0,127.0
612,1,12747,Note_on_c,0,76.0,70.0
613,1,12755,Note_on_c,0,69.0,60.0
614,1,12761,Control_c,0,64.0,63.0
615,1,12761,Control_c,0,67.0,127.0
616,1,12776,Control_c,0,64.0,65.0
619,1,12791,Control_c,0,64.0,68.0
621,1,12806,Control_c,0,64.0,72.0
622,1,12813,Note_on_c,0,74.0,72.0
623,1,12822,Control_c,0,64.0,75.0
624,1,12837,Control_c,0,64.0,80.0
625,1,12851,Control_c,0,64.0,82.0
627,1,12867,Control_c,0,64.0,83.0
628,1,12872,Note_on_c,0,76.0,62.0
629,1,12927,Control_c,0,64.0,82.0
630,1,12939,Note_on_c,0,78.0,73.0
631,1,12943,Control_c,0,64.0,74.0
632,1,12951,Note_on_c,0,62.0,57.0
633,1,12958,Control_c,0,64.0,61.0
637,1,13015,Note_on_c,0,79.0,63.0
638,1,13051,Control_c,0,64.0,41.0
639,1,13067,Control_c,0,64.0,60.0
640,1,13077,Note_on_c,0,78.0,67.0
641,1,13081,Control_c,0,64.0,64.0
644,1,13097,Control_c,0,64.0,67.0
645,1,13097,Note_on_c,0,71.0,61.0
646,1,13112,Control_c,0,64.0,72.0
647,1,13112,Control_c,0,67.0,127.0
648,1,13127,Control_c,0,64.0,78.0
649,1,13127,Control_c,0,67.0,126.0
652,1,13143,Control_c,0,64.0,85.0
653,1,13150,Note_on_c,0,76.0,64.0
654,1,13157,Control_c,0,64.0,99.0
655,1,13173,Control_c,0,64.0,127.0
656,1,13173,Control_c,0,67.0,125.0
657,1,13188,Control_c,0,67.0,125.0
658,1,13201,Note_on_c,0,78.0,61.0
659,1,13202,Control_c,0,67.0,124.0
661,1,13272,Control_c,0,64.0,75.0
662,1,13275,Note_on_c,0,79.0,72.0
665,1,13286,Control_c,0,67.0,123.0
666,1,13287,Note_on_c,0,64.0,51.0
667,1,13302,Control_c,0,67.0,122.0
668,1,13317,Control_c,0,67.0,122.0
670,1,13338,Note_on_c,0,81.0,64.0
671,1,13362,Control_c,0,64.0,34.0
672,1,13378,Control_c,0,64.0,56.0
673,1,13393,Control_c,0,64.0,63.0
675,1,13406,Note_on_c,0,79.0,65.0
676,1,13408,Control_c,0,64.0,66.0
678,1,13423,Control_c,0,64.0,69.0
679,1,13428,Note_on_c,0,73.0,55.0
680,1,13438,Control_c,0,64.0,75.0
682,1,13454,Control_c,0,64.0,80.0
684,1,13462,Note_on_c,0,78.0,64.0
685,1,13469,Control_c,0,64.0,90.0
686,1,13484,Control_c,0,64.0,127.0
687,1,13484,Control_c,0,67.0,121.0
689,1,13499,Control_c,0,67.0,121.0
690,1,13531,Note_on_c,0,79.0,75.0
691,1,13575,Control_c,0,64.0,84.0
692,1,13575,Control_c,0,67.0,121.0
693,1,13590,Control_c,0,64.0,50.0
695,1,13593,Note_on_c,0,81.0,75.0
696,1,13598,Note_on_c,0,66.0,56.0
698,1,13621,Control_c,0,67.0,121.0
699,1,13636,Control_c,0,67.0,120.0
701,1,13661,Note_on_c,0,83.0,68.0
702,1,13667,Control_c,0,64.0,49.0
703,1,13682,Control_c,0,64.0,61.0
704,1,13697,Control_c,0,64.0,65.0
705,1,13712,Control_c,0,64.0,68.0
706,1,13712,Control_c,0,67.0,121.0
708,1,13726,Note_on_c,0,81.0,71.0
710,1,13727,Control_c,0,64.0,72.0
711,1,13742,Control_c,0,64.0,78.0
712,1,13752,Note_on_c,0,74.0,63.0
713,1,13757,Control_c,0,64.0,80.0
715,1,13773,Control_c,0,64.0,80.0
717,1,13784,Note_on_c,0,79.0,71.0
718,1,13820,Control_c,0,67.0,120.0
720,1,13841,Note_on_c,0,81.0,67.0
721,1,13849,Control_c,0,64.0,76.0
722,1,13865,Control_c,0,64.0,67.0
723,1,13865,Control_c,0,67.0,121.0
725,1,13880,Control_c,0,67.0,121.0
726,1,13893,Note_on_c,0,83.0,81.0
728,1,13911,Note_on_c,0,67.0,56.0
731,1,14009,Control_c,0,67.0,122.0
732,1,14102,Note_on_c,0,85.0,76.0
733,1,14109,Note_on_c,0,69.0,60.0
736,1,14161,Control_c,0,67.0,122.0
737,1,14177,Control_c,0,67.0,123.0
738,1,14285,Note_on_c,0,86.0,74.0
739,1,14287,Note_on_c,0,71.0,66.0
741,1,14328,Control_c,0,67.0,123.0
742,1,14362,Note_on_c,0,85.0,74.0
744,1,14388,Control_c,0,67.0,123.0
745,1,14419,Control_c,0,67.0,122.0
746,1,14434,Control_c,0,67.0,122.0
747,1,14446,Note_on_c,0,83.0,72.0
748,1,14449,Control_c,0,67.0,121.0
750,1,14465,Control_c,0,67.0,121.0
751,1,14510,Control_c,0,67.0,120.0
752,1,14523,Note_on_c,0,81.0,77.0
754,1,14541,Control_c,0,67.0,119.0
755,1,14556,Control_c,0,67.0,118.0
756,1,14571,Control_c,0,67.0,116.0
758,1,14586,Control_c,0,67.0,115.0
759,1,14598,Note_on_c,0,67.0,60.0
760,1,14601,Control_c,0,67.0,112.0
761,1,14607,Note_on_c,0,79.0,73.0
762,1,14618,Control_c,0,67.0,111.0
764,1,14633,Control_c,0,67.0,109.0
765,1,14648,Control_c,0,67.0,108.0
766,1,14663,Control_c,0,67.0,108.0
768,1,14678,Control_c,0,67.0,107.0
769,1,14682,Note_on_c,0,78.0,73.0
770,1,14694,Control_c,0,67.0,106.0
771,1,14709,Control_c,0,67.0,105.0
772,1,14724,Control_c,0,67.0,103.0
773,1,14740,Control_c,0,67.0,100.0
774,1,14752,Note_on_c,0,76.0,64.0
775,1,14755,Control_c,0,67.0,96.0
777,1,14777,Control_c,0,67.0,93.0
778,1,14792,Control_c,0,67.0,91.0
780,1,14807,Control_c,0,67.0,90.0
781,1,14815,Note_on_c,0,74.0,72.0
782,1,14822,Control_c,0,67.0,90.0
783,1,14837,Control_c,0,67.0,89.0
785,1,14868,Control_c,0,67.0,89.0
786,1,14883,Control_c,0,67.0,88.0
787,1,14899,Control_c,0,67.0,87.0
788,1,14914,Control_c,0,67.0,86.0
789,1,14925,Note_on_c,0,69.0,58.0
790,1,14929,Control_c,0,67.0,85.0
791,1,14936,Note_on_c,0,78.0,74.0
794,1,14987,Note_on_c,0,76.0,68.0
795,1,15005,Control_c,0,67.0,84.0
797,1,15035,Control_c,0,67.0,84.0
798,1,15039,Note_on_c,0,78.0,71.0
799,1,15066,Control_c,0,67.0,83.0
800,1,15081,Control_c,0,67.0,83.0
802,1,15097,Control_c,0,67.0,82.0
803,1,15101,Note_on_c,0,76.0,62.0
805,1,15144,Note_on_c,0,78.0,65.0
807,1,15199,Note_on_c,0,76.0,68.0
808,1,15202,Control_c,0,67.0,82.0
809,1,15218,Control_c,0,67.0,81.0
811,1,15241,Note_on_c,0,57.0,53.0
812,1,15254,Note_on_c,0,78.0,69.0
815,1,15317,Note_on_c,0,76.0,61.0
817,1,15363,Note_on_c,0,78.0,70.0
819,1,15426,Note_on_c,0,76.0,67.0
820,1,15431,Control_c,0,67.0,81.0
822,1,15482,Note_on_c,0,74.0,56.0
824,1,15522,Control_c,0,67.0,80.0
825,1,15552,Note_on_c,0,76.0,56.0
826,1,15616,Note_on_c,0,74.0,61.0
828,1,15626,Note_on_c,0,50.0,37.0
829,1,15651,Control_c,0,67.0,80.0
830,1,15666,Control_c,0,64.0,49.0
831,1,15666,Control_c,0,67.0,79.0
832,1,15681,Control_c,0,64.0,63.0
833,1,15681,Control_c,0,67.0,79.0
836,1,15697,Control_c,0,64.0,68.0
837,1,15697,Control_c,0,67.0,78.0
838,1,15712,Control_c,0,64.0,83.0
839,1,15712,Control_c,0,67.0,77.0
840,1,15727,Control_c,0,64.0,127.0
841,1,15727,Control_c,0,67.0,75.0
842,1,15743,Control_c,0,67.0,73.0
843,1,15758,Control_c,0,67.0,72.0
844,1,15773,Control_c,0,67.0,71.0
845,1,15788,Control_c,0,67.0,71.0
846,1,15925,Control_c,0,67.0,71.0
847,1,15955,Control_c,0,67.0,71.0
848,1,15986,Control_c,0,67.0,70.0
849,1,16069,Note_on_c,0,82.0,72.0
850,1,16073,Note_on_c,0,79.0,62.0
851,1,16090,Control_c,0,67.0,70.0
852,1,16121,Control_c,0,64.0,74.0
854,1,16137,Control_c,0,67.0,69.0
855,1,16196,Control_c,0,67.0,69.0
856,1,16211,Control_c,0,64.0,57.0
857,1,16211,Control_c,0,67.0,68.0
858,1,16227,Control_c,0,64.0,64.0
859,1,16227,Control_c,0,67.0,67.0
860,1,16242,Control_c,0,64.0,68.0
861,1,16242,Control_c,0,67.0,66.0
863,1,16259,Control_c,0,64.0,74.0
864,1,16259,Control_c,0,67.0,65.0
865,1,16274,Control_c,0,64.0,86.0
866,1,16274,Control_c,0,67.0,64.0
867,1,16289,Control_c,0,64.0,103.0
868,1,16289,Control_c,0,67.0,63.0
869,1,16311,Control_c,0,64.0,127.0
870,1,16311,Control_c,0,67.0,61.0
871,1,16326,Control_c,0,67.0,58.0
872,1,16342,Control_c,0,67.0,54.0
873,1,16357,Control_c,0,67.0,51.0
874,1,16373,Control_c,0,67.0,49.0
875,1,16388,Control_c,0,67.0,47.0
876,1,16403,Control_c,0,67.0,46.0
877,1,16418,Control_c,0,67.0,46.0
878,1,16433,Control_c,0,67.0,45.0
879,1,16448,Control_c,0,67.0,44.0
880,1,16464,Control_c,0,67.0,44.0
881,1,16479,Control_c,0,67.0,43.0
882,1,16495,Control_c,0,64.0,76.0
883,1,16495,Control_c,0,67.0,41.0
884,1,16495,Note_on_c,0,81.0,68.0
885,1,16509,Control_c,0,64.0,17.0
886,1,16509,Control_c,0,67.0,39.0
887,1,16509,Note_on_c,0,77.0,57.0
889,1,16524,Control_c,0,67.0,37.0
890,1,16540,Control_c,0,67.0,37.0
892,1,16555,Control_c,0,67.0,36.0
893,1,16570,Control_c,0,64.0,61.0
894,1,16570,Control_c,0,67.0,35.0
895,1,16585,Control_c,0,64.0,68.0
896,1,16600,Control_c,0,64.0,78.0
897,1,16600,Control_c,0,67.0,34.0
899,1,16616,Control_c,0,64.0,127.0
900,1,16631,Control_c,0,67.0,34.0
901,1,16645,Control_c,0,67.0,33.0
902,1,16676,Control_c,0,67.0,33.0
903,1,16691,Control_c,0,67.0,32.0
904,1,16707,Control_c,0,67.0,29.0
905,1,16723,Control_c,0,67.0,28.0
906,1,16739,Control_c,0,67.0,28.0
907,1,16830,Control_c,0,64.0,73.0
908,1,16844,Note_on_c,0,79.0,76.0
910,1,16849,Note_on_c,0,70.0,76.0
912,1,16852,Note_on_c,0,73.0,70.0
913,1,16852,Note_on_c,0,76.0,69.0
916,1,16963,Note_on_c,0,69.0,71.0
918,1,17077,Note_on_c,0,67.0,74.0
920,1,17192,Note_on_c,0,65.0,80.0
922,1,17207,Note_on_c,0,81.0,73.0
923,1,17210,Note_on_c,0,77.0,64.0
924,1,17220,Control_c,0,67.0,27.0
925,1,17220,Note_on_c,0,74.0,63.0
931,1,17309,Note_on_c,0,64.0,73.0
933,1,17425,Note_on_c,0,62.0,66.0
934,1,17432,Control_c,0,67.0,28.0
936,1,17543,Note_on_c,0,64.0,75.0
937,1,17553,Note_on_c,0,82.0,82.0
938,1,17554,Note_on_c,0,79.0,81.0
939,1,17593,Note_on_c,0,62.0,68.0
942,1,17644,Note_on_c,0,64.0,62.0
944,1,17693,Note_on_c,0,62.0,56.0
947,1,17747,Note_on_c,0,64.0,58.0
948,1,17800,Note_on_c,0,62.0,59.0
950,1,17936,Note_on_c,0,81.0,74.0
951,1,17943,Note_on_c,0,77.0,66.0
952,1,17957,Control_c,0,64.0,43.0
953,1,17957,Control_c,0,67.0,27.0
955,1,17973,Control_c,0,64.0,63.0
957,1,17988,Control_c,0,64.0,67.0
958,1,17988,Control_c,0,67.0,27.0
959,1,18002,Control_c,0,64.0,75.0
960,1,18018,Control_c,0,64.0,127.0
962,1,18109,Control_c,0,67.0,26.0
963,1,18154,Control_c,0,67.0,25.0
964,1,18276,Control_c,0,67.0,24.0
965,1,18289,Note_on_c,0,79.0,78.0
966,1,18291,Note_on_c,0,70.0,82.0
967,1,18292,Control_c,0,64.0,67.0
968,1,18292,Control_c,0,67.0,23.0
969,1,18292,Note_on_c,0,76.0,73.0
970,1,18295,Note_on_c,0,73.0,76.0
973,1,18307,Control_c,0,67.0,20.0
974,1,18322,Control_c,0,67.0,18.0
975,1,18337,Control_c,0,67.0,17.0
978,1,18352,Control_c,0,67.0,17.0
979,1,18404,Note_on_c,0,69.0,77.0
980,1,18412,Control_c,0,67.0,16.0
982,1,18508,Note_on_c,0,67.0,78.0
986,1,18628,Note_on_c,0,65.0,85.0
987,1,18632,Note_on_c,0,81.0,73.0
988,1,18637,Note_on_c,0,77.0,70.0
989,1,18639,Note_on_c,0,74.0,66.0
990,1,18677,Control_c,0,67.0,16.0
995,1,18738,Note_on_c,0,64.0,79.0
997,1,18835,Note_on_c,0,62.0,79.0
999,1,18967,Note_on_c,0,64.0,79.0
1000,1,18979,Note_on_c,0,84.0,83.0
1001,1,18980,Note_on_c,0,81.0,84.0
1003,1,19021,Note_on_c,0,62.0,67.0
1005,1,19072,Note_on_c,0,64.0,68.0
1006,1,19126,Note_on_c,0,62.0,69.0
1009,1,19178,Note_on_c,0,64.0,62.0
1011,1,19236,Note_on_c,0,62.0,62.0
1013,1,19347,Control_c,0,67.0,15.0
1014,1,19361,Note_on_c,0,82.0,74.0
1015,1,19362,Control_c,0,64.0,37.0
1016,1,19364,Note_on_c,0,79.0,68.0
1018,1,19385,Control_c,0,64.0,62.0
1019,1,19385,Control_c,0,67.0,15.0
1021,1,19400,Control_c,0,64.0,65.0
1022,1,19400,Control_c,0,67.0,14.0
1023,1,19416,Control_c,0,64.0,73.0
1024,1,19431,Control_c,0,64.0,127.0
1025,1,19447,Control_c,0,67.0,14.0
1026,1,19476,Control_c,0,67.0,13.0
1029,1,19521,Control_c,0,67.0,13.0
1030,1,19554,Control_c,0,67.0,12.0
1031,1,19599,Control_c,0,67.0,12.0
1032,1,19660,Control_c,0,67.0,11.0
1033,1,19675,Control_c,0,67.0,11.0
1034,1,19690,Control_c,0,67.0,10.0
1035,1,19704,Note_on_c,0,72.0,86.0
1036,1,19705,Control_c,0,67.0,10.0
1037,1,19714,Note_on_c,0,81.0,81.0
1038,1,19716,Note_on_c,0,75.0,80.0
1039,1,19719,Note_on_c,0,78.0,69.0
1040,1,19720,Control_c,0,64.0,63.0
1041,1,19720,Control_c,0,67.0,9.0
1043,1,19735,Control_c,0,67.0,9.0
1045,1,19766,Control_c,0,67.0,8.0
1046,1,19781,Control_c,0,67.0,8.0
1047,1,19821,Note_on_c,0,70.0,86.0
1052,1,19932,Note_on_c,0,69.0,86.0
1054,1,20048,Note_on_c,0,70.0,87.0
1055,1,20060,Note_on_c,0,74.0,75.0
1056,1,20060,Note_on_c,0,82.0,82.0
1057,1,20062,Note_on_c,0,79.0,73.0
1062,1,20164,Note_on_c,0,69.0,85.0
1064,1,20264,Note_on_c,0,67.0,81.0
1066,1,20405,Note_on_c,0,69.0,77.0
1067,1,20413,Note_on_c,0,81.0,83.0
1068,1,20414,Note_on_c,0,84.0,83.0
1070,1,20453,Note_on_c,0,67.0,75.0
1072,1,20512,Note_on_c,0,69.0,69.0
1074,1,20564,Note_on_c,0,67.0,64.0
1076,1,20614,Note_on_c,0,69.0,63.0
1078,1,20670,Note_on_c,0,67.0,63.0
1080,1,20793,Note_on_c,0,79.0,63.0
1081,1,20795,Note_on_c,0,82.0,73.0
1083,1,20821,Control_c,0,64.0,43.0
1084,1,20836,Control_c,0,64.0,62.0
1086,1,20851,Control_c,0,64.0,65.0
1087,1,20867,Control_c,0,64.0,70.0
1088,1,20882,Control_c,0,64.0,87.0
1089,1,20897,Control_c,0,64.0,127.0
1092,1,21151,Note_on_c,0,72.0,91.0
1093,1,21155,Note_on_c,0,75.0,76.0
1094,1,21158,Note_on_c,0,81.0,74.0
1095,1,21159,Note_on_c,0,78.0,70.0
1096,1,21179,Control_c,0,64.0,66.0
1099,1,21266,Note_on_c,0,70.0,88.0
1102,1,21285,Control_c,0,67.0,8.0
1105,1,21376,Note_on_c,0,69.0,87.0
1107,1,21487,Note_on_c,0,70.0,93.0
1108,1,21488,Note_on_c,0,74.0,73.0
1109,1,21493,Note_on_c,0,79.0,69.0
1110,1,21494,Note_on_c,0,82.0,82.0
1111,1,21498,Control_c,0,67.0,9.0
1116,1,21604,Note_on_c,0,69.0,87.0
1117,1,21634,Control_c,0,67.0,9.0
1119,1,21700,Note_on_c,0,67.0,89.0
1121,1,21833,Note_on_c,0,69.0,78.0
1122,1,21837,Note_on_c,0,86.0,86.0
1123,1,21838,Note_on_c,0,83.0,81.0
1124,1,21855,Control_c,0,67.0,9.0
1125,1,21885,Note_on_c,0,67.0,76.0
1128,1,21940,Note_on_c,0,69.0,63.0
1130,1,21995,Note_on_c,0,67.0,71.0
1132,1,22023,Control_c,0,67.0,8.0
1133,1,22046,Note_on_c,0,69.0,64.0
1135,1,22108,Note_on_c,0,67.0,66.0
1137,1,22160,Control_c,0,67.0,8.0
1139,1,22214,Note_on_c,0,84.0,74.0
1140,1,22224,Note_on_c,0,81.0,70.0
1142,1,22236,Control_c,0,64.0,39.0
1144,1,22251,Control_c,0,64.0,63.0
1145,1,22266,Control_c,0,64.0,68.0
1146,1,22281,Control_c,0,64.0,81.0
1147,1,22297,Control_c,0,64.0,127.0
1149,1,22563,Note_on_c,0,74.0,87.0
1150,1,22578,Control_c,0,64.0,98.0
1151,1,22579,Note_on_c,0,80.0,70.0
1152,1,22581,Note_on_c,0,77.0,75.0
1153,1,22583,Note_on_c,0,83.0,75.0
1154,1,22593,Control_c,0,64.0,51.0
1160,1,22684,Note_on_c,0,72.0,91.0
1163,1,22790,Note_on_c,0,71.0,87.0
1165,1,22905,Note_on_c,0,84.0,83.0
1166,1,22906,Note_on_c,0,76.0,73.0
1167,1,22907,Note_on_c,0,81.0,73.0
1168,1,22910,Note_on_c,0,72.0,95.0
1173,1,23021,Note_on_c,0,71.0,85.0
1175,1,23100,Note_on_c,0,69.0,82.0
1177,1,23244,Note_on_c,0,71.0,76.0
1178,1,23244,Note_on_c,0,86.0,84.0
1179,1,23248,Note_on_c,0,83.0,80.0
1180,1,23290,Note_on_c,0,69.0,76.0
1183,1,23346,Note_on_c,0,71.0,66.0
1184,1,23396,Note_on_c,0,69.0,70.0
1188,1,23454,Note_on_c,0,71.0,62.0
1189,1,23502,Note_on_c,0,69.0,63.0
1192,1,23619,Note_on_c,0,84.0,72.0
1193,1,23621,Note_on_c,0,81.0,71.0
1195,1,23636,Control_c,0,64.0,22.0
1196,1,23652,Control_c,0,64.0,62.0
1197,1,23667,Control_c,0,64.0,66.0
1198,1,23681,Control_c,0,64.0,72.0
1199,1,23697,Control_c,0,64.0,82.0
1201,1,23712,Control_c,0,64.0,92.0
1202,1,23728,Control_c,0,64.0,99.0
1203,1,23743,Control_c,0,64.0,106.0
1204,1,23758,Control_c,0,64.0,113.0
1205,1,23774,Control_c,0,64.0,119.0
1206,1,23789,Control_c,0,64.0,127.0
1207,1,23956,Control_c,0,64.0,74.0
1208,1,23958,Note_on_c,0,74.0,78.0
1210,1,23972,Note_on_c,0,80.0,62.0
1211,1,23974,Note_on_c,0,83.0,65.0
1212,1,23975,Note_on_c,0,77.0,63.0
1213,1,23994,Control_c,0,67.0,8.0
1214,1,24010,Control_c,0,67.0,11.0
1215,1,24024,Control_c,0,67.0,16.0
1218,1,24039,Control_c,0,67.0,22.0
1219,1,24055,Control_c,0,67.0,30.0
1222,1,24070,Control_c,0,67.0,38.0
1224,1,24083,Note_on_c,0,72.0,73.0
1225,1,24086,Control_c,0,67.0,47.0
1226,1,24100,Control_c,0,67.0,53.0
1227,1,24115,Control_c,0,67.0,59.0
1228,1,24131,Control_c,0,67.0,65.0
1229,1,24146,Control_c,0,67.0,70.0
1231,1,24161,Control_c,0,67.0,77.0
1232,1,24176,Note_on_c,0,71.0,78.0
1233,1,24177,Control_c,0,67.0,83.0
1234,1,24192,Control_c,0,67.0,89.0
1235,1,24208,Control_c,0,67.0,94.0
1237,1,24222,Control_c,0,67.0,97.0
1238,1,24237,Control_c,0,67.0,101.0
1239,1,24253,Control_c,0,67.0,105.0
1240,1,24268,Control_c,0,67.0,109.0
1241,1,24283,Control_c,0,67.0,113.0
1242,1,24298,Control_c,0,67.0,117.0
1243,1,24303,Note_on_c,0,84.0,76.0
1244,1,24305,Note_on_c,0,72.0,81.0
1245,1,24306,Note_on_c,0,76.0,72.0
1246,1,24306,Note_on_c,0,81.0,69.0
1247,1,24313,Control_c,0,67.0,120.0
1248,1,24329,Control_c,0,67.0,122.0
1249,1,24344,Control_c,0,67.0,123.0
1254,1,24419,Control_c,0,67.0,124.0
1255,1,24424,Note_on_c,0,71.0,76.0
1256,1,24510,Note_on_c,0,69.0,68.0
1259,1,24542,Control_c,0,67.0,123.0
1260,1,24573,Control_c,0,67.0,123.0
1261,1,24588,Control_c,0,67.0,122.0
1262,1,24630,Note_on_c,0,71.0,72.0
1263,1,24644,Note_on_c,0,85.0,77.0
1265,1,24663,Control_c,0,64.0,59.0
1266,1,24663,Control_c,0,67.0,122.0
1267,1,24673,Note_on_c,0,69.0,59.0
1268,1,24678,Control_c,0,64.0,67.0
1269,1,24678,Control_c,0,67.0,121.0
1271,1,24694,Control_c,0,64.0,83.0
1273,1,24709,Control_c,0,64.0,127.0
1274,1,24735,Note_on_c,0,71.0,66.0
1275,1,24762,Control_c,0,67.0,119.0
1276,1,24778,Control_c,0,67.0,118.0
1278,1,24789,Note_on_c,0,69.0,65.0
1279,1,24793,Control_c,0,67.0,116.0
1280,1,24808,Control_c,0,67.0,116.0
1282,1,24868,Control_c,0,67.0,115.0
1283,1,24883,Control_c,0,67.0,115.0
1284,1,24914,Control_c,0,67.0,114.0
1285,1,24975,Control_c,0,67.0,113.0
1286,1,24990,Control_c,0,67.0,113.0
1287,1,25006,Control_c,0,67.0,112.0
1288,1,25019,Control_c,0,64.0,107.0
1289,1,25019,Control_c,0,67.0,111.0
1290,1,25022,Note_on_c,0,38.0,83.0
1291,1,25025,Note_on_c,0,78.0,77.0
1292,1,25034,Control_c,0,64.0,63.0
1293,1,25034,Control_c,0,67.0,110.0
1295,1,25049,Control_c,0,67.0,107.0
1297,1,25064,Control_c,0,67.0,106.0
1298,1,25079,Control_c,0,67.0,104.0
1300,1,25095,Control_c,0,67.0,103.0
1301,1,25125,Control_c,0,67.0,104.0
1302,1,25140,Control_c,0,67.0,104.0
1303,1,25149,Note_on_c,0,74.0,71.0
1304,1,25170,Control_c,0,67.0,105.0
1306,1,25200,Control_c,0,67.0,104.0
1307,1,25268,Note_on_c,0,73.0,75.0
1308,1,25293,Control_c,0,67.0,103.0
1309,1,25308,Control_c,0,67.0,103.0
1311,1,25339,Control_c,0,67.0,102.0
1312,1,25395,Note_on_c,0,71.0,78.0
1313,1,25397,Note_on_c,0,83.0,100.0
1314,1,25415,Control_c,0,67.0,101.0
1316,1,25430,Control_c,0,67.0,100.0
1318,1,25520,Note_on_c,0,73.0,72.0
1319,1,25559,Control_c,0,67.0,100.0
1321,1,25634,Note_on_c,0,74.0,74.0
1323,1,25759,Note_on_c,0,37.0,84.0
1324,1,25759,Note_on_c,0,76.0,81.0
1327,1,25845,Control_c,0,67.0,99.0
1328,1,25877,Note_on_c,0,73.0,74.0
1329,1,25890,Control_c,0,67.0,99.0
1331,1,25936,Control_c,0,67.0,98.0
1332,1,25989,Note_on_c,0,71.0,70.0
1333,1,25997,Control_c,0,67.0,98.0
1334,1,26012,Control_c,0,67.0,97.0
1335,1,26027,Control_c,0,67.0,97.0
1337,1,26042,Control_c,0,67.0,96.0
1338,1,26057,Control_c,0,67.0,95.0
1339,1,26073,Control_c,0,67.0,95.0
1340,1,26089,Control_c,0,67.0,94.0
1341,1,26125,Note_on_c,0,81.0,101.0
1342,1,26129,Note_on_c,0,69.0,74.0
1343,1,26150,Control_c,0,67.0,94.0
1345,1,26165,Control_c,0,67.0,93.0
1347,1,26240,Note_on_c,0,71.0,73.0
1348,1,26255,Control_c,0,67.0,94.0
1349,1,26271,Control_c,0,67.0,94.0
1351,1,26310,Control_c,0,67.0,94.0
1352,1,26340,Control_c,0,67.0,93.0
1353,1,26355,Note_on_c,0,73.0,72.0
1354,1,26386,Control_c,0,67.0,93.0
1356,1,26446,Control_c,0,67.0,92.0
1357,1,26486,Note_on_c,0,71.0,76.0
1358,1,26490,Note_on_c,0,38.0,85.0
1359,1,26491,Control_c,0,67.0,93.0
1361,1,26522,Control_c,0,67.0,93.0
1363,1,26552,Control_c,0,67.0,94.0
1364,1,26598,Control_c,0,67.0,94.0
1365,1,26603,Note_on_c,0,74.0,76.0
1367,1,26717,Note_on_c,0,73.0,66.0
1369,1,26781,Control_c,0,67.0,94.0
1370,1,26842,Note_on_c,0,71.0,69.0
1371,1,26847,Note_on_c,0,40.0,65.0
1374,1,26886,Control_c,0,67.0,94.0
1375,1,26949,Control_c,0,67.0,95.0
1376,1,26955,Note_on_c,0,69.0,58.0
1378,1,27071,Note_on_c,0,68.0,61.0
1380,1,27153,Control_c,0,67.0,94.0
1381,1,27218,Note_on_c,0,69.0,69.0
1382,1,27226,Note_on_c,0,33.0,60.0
1383,1,27232,Control_c,0,64.0,38.0
1385,1,27247,Control_c,0,64.0,67.0
1387,1,27262,Control_c,0,64.0,86.0
1388,1,27262,Control_c,0,67.0,94.0
1389,1,27277,Control_c,0,64.0,127.0
1390,1,27277,Control_c,0,67.0,92.0
1391,1,27292,Control_c,0,67.0,92.0
1392,1,27308,Control_c,0,67.0,91.0
1393,1,27322,Control_c,0,67.0,91.0
1394,1,27353,Control_c,0,67.0,91.0
1395,1,27414,Control_c,0,67.0,91.0
1396,1,27444,Control_c,0,67.0,91.0
1397,1,27519,Control_c,0,67.0,91.0
1398,1,27581,Control_c,0,67.0,90.0
1399,1,27596,Control_c,0,67.0,90.0
1400,1,27596,Note_on_c,0,81.0,92.0
1401,1,27615,Note_on_c,0,61.0,61.0
1402,1,27626,Control_c,0,64.0,88.0
1405,1,27641,Control_c,0,67.0,90.0
1406,1,27657,Control_c,0,67.0,91.0
1407,1,27672,Control_c,0,67.0,93.0
1408,1,27687,Control_c,0,67.0,94.0
1409,1,27703,Control_c,0,67.0,95.0
1410,1,27718,Control_c,0,67.0,98.0
1411,1,27722,Note_on_c,0,64.0,57.0
1412,1,27734,Control_c,0,67.0,101.0
1414,1,27749,Control_c,0,67.0,103.0
1415,1,27764,Control_c,0,67.0,105.0
1416,1,27779,Control_c,0,67.0,107.0
1417,1,27794,Control_c,0,67.0,107.0
1418,1,27809,Control_c,0,67.0,108.0
1420,1,27832,Control_c,0,67.0,109.0
1421,1,27838,Note_on_c,0,69.0,50.0
1422,1,27847,Control_c,0,67.0,110.0
1423,1,27863,Control_c,0,67.0,112.0
1424,1,27878,Control_c,0,67.0,114.0
1425,1,27894,Control_c,0,67.0,117.0
1426,1,27908,Control_c,0,67.0,122.0
1427,1,27923,Control_c,0,67.0,127.0
1429,1,27975,Note_on_c,0,62.0,64.0
1430,1,27977,Note_on_c,0,38.0,84.0
1433,1,28103,Note_on_c,0,66.0,59.0
1435,1,28231,Note_on_c,0,71.0,54.0
1436,1,28273,Control_c,0,67.0,126.0
1437,1,28287,Control_c,0,67.0,124.0
1438,1,28303,Control_c,0,67.0,122.0
1439,1,28318,Control_c,0,67.0,120.0
1440,1,28334,Control_c,0,67.0,118.0
1441,1,28349,Control_c,0,67.0,117.0
1443,1,28360,Note_on_c,0,83.0,95.0
1444,1,28363,Control_c,0,67.0,116.0
1445,1,28376,Note_on_c,0,62.0,63.0
1446,1,28379,Control_c,0,67.0,114.0
1447,1,28394,Control_c,0,67.0,112.0
1449,1,28409,Control_c,0,67.0,111.0
1450,1,28439,Control_c,0,67.0,111.0
1451,1,28455,Control_c,0,67.0,113.0
1452,1,28470,Control_c,0,67.0,115.0
1454,1,28485,Control_c,0,67.0,117.0
1455,1,28488,Note_on_c,0,66.0,61.0
1456,1,28501,Control_c,0,67.0,118.0
1457,1,28516,Control_c,0,67.0,119.0
1458,1,28531,Control_c,0,67.0,120.0
1459,1,28547,Control_c,0,67.0,121.0
1460,1,28562,Control_c,0,67.0,122.0
1461,1,28578,Control_c,0,67.0,123.0
1463,1,28600,Control_c,0,67.0,124.0
1464,1,28611,Note_on_c,0,71.0,51.0
1465,1,28616,Control_c,0,67.0,125.0
1466,1,28631,Control_c,0,67.0,126.0
1467,1,28646,Control_c,0,67.0,127.0
1469,1,28746,Note_on_c,0,37.0,83.0
1470,1,28751,Note_on_c,0,61.0,61.0
1472,1,28872,Note_on_c,0,64.0,56.0
1474,1,28950,Control_c,0,67.0,125.0
1476,1,28965,Control_c,0,67.0,124.0
1477,1,28981,Control_c,0,67.0,123.0
1478,1,28984,Note_on_c,0,69.0,50.0
1479,1,29010,Control_c,0,67.0,122.0
1480,1,29026,Control_c,0,67.0,122.0
1481,1,29057,Control_c,0,67.0,121.0
1482,1,29072,Control_c,0,67.0,120.0
1483,1,29086,Control_c,0,67.0,119.0
1484,1,29102,Control_c,0,67.0,118.0
1486,1,29117,Control_c,0,67.0,117.0
1487,1,29129,Note_on_c,0,81.0,95.0
1488,1,29138,Note_on_c,0,61.0,61.0
1489,1,29146,Control_c,0,67.0,116.0
1490,1,29161,Control_c,0,67.0,115.0
1492,1,29206,Control_c,0,67.0,116.0
1493,1,29222,Control_c,0,67.0,117.0
1494,1,29237,Control_c,0,67.0,119.0
1495,1,29252,Control_c,0,67.0,120.0
1496,1,29258,Note_on_c,0,64.0,60.0
1497,1,29268,Control_c,0,67.0,121.0
1498,1,29282,Control_c,0,67.0,122.0
1500,1,29298,Control_c,0,67.0,122.0
1501,1,29313,Control_c,0,67.0,123.0
1502,1,29327,Control_c,0,67.0,124.0
1503,1,29343,Control_c,0,67.0,125.0
1505,1,29366,Control_c,0,67.0,126.0
1506,1,29378,Note_on_c,0,69.0,53.0
1507,1,29442,Control_c,0,67.0,125.0
1508,1,29473,Control_c,0,67.0,125.0
1509,1,29506,Note_on_c,0,38.0,78.0
1510,1,29507,Note_on_c,0,62.0,64.0
1513,1,29629,Note_on_c,0,66.0,68.0
1516,1,29731,Note_on_c,0,69.0,58.0
1517,1,29777,Control_c,0,67.0,124.0
1518,1,29807,Control_c,0,67.0,124.0
1519,1,29840,Control_c,0,67.0,123.0
1520,1,29865,Note_on_c,0,40.0,69.0
1522,1,29876,Note_on_c,0,64.0,61.0
1524,1,29931,Control_c,0,67.0,124.0
1526,1,29988,Note_on_c,0,68.0,61.0
1527,1,30022,Control_c,0,67.0,123.0
1528,1,30068,Control_c,0,67.0,123.0
1530,1,30090,Note_on_c,0,71.0,54.0
1532,1,30151,Control_c,0,67.0,122.0
1533,1,30167,Control_c,0,67.0,122.0
1534,1,30268,Note_on_c,0,33.0,72.0
1535,1,30270,Note_on_c,0,57.0,59.0
1536,1,30289,Control_c,0,64.0,61.0
1537,1,30289,Control_c,0,67.0,119.0
1539,1,30304,Control_c,0,64.0,69.0
1540,1,30304,Control_c,0,67.0,116.0
1542,1,30319,Control_c,0,64.0,92.0
1543,1,30319,Control_c,0,67.0,113.0
1544,1,30335,Control_c,0,64.0,127.0
1545,1,30335,Control_c,0,67.0,109.0
1546,1,30350,Control_c,0,67.0,102.0
1547,1,30364,Control_c,0,67.0,93.0
1548,1,30380,Control_c,0,67.0,83.0
1549,1,30395,Control_c,0,67.0,69.0
1550,1,30411,Control_c,0,67.0,56.0
1551,1,30426,Control_c,0,67.0,45.0
1552,1,30441,Control_c,0,67.0,36.0
1553,1,30457,Control_c,0,67.0,29.0
1554,1,30472,Control_c,0,67.0,23.0
1555,1,30487,Control_c,0,67.0,17.0
1556,1,30502,Control_c,0,67.0,11.0
1558,1,30672,Note_on_c,0,72.0,66.0
1559,1,30714,Note_on_c,0,74.0,77.0
1560,1,30715,Control_c,0,64.0,86.0
1561,1,30731,Control_c,0,64.0,60.0
1564,1,30772,Note_on_c,0,76.0,76.0
1566,1,30821,Control_c,0,64.0,64.0
1567,1,30836,Control_c,0,64.0,72.0
1568,1,30852,Control_c,0,64.0,91.0
1569,1,30867,Control_c,0,64.0,127.0
1571,1,31074,Note_on_c,0,76.0,72.0
1572,1,31089,Control_c,0,64.0,91.0
1573,1,31104,Control_c,0,64.0,71.0
1574,1,31119,Control_c,0,64.0,54.0
1575,1,31124,Note_on_c,0,74.0,84.0
1578,1,31401,Note_on_c,0,65.0,45.0
1579,1,31465,Note_on_c,0,69.0,56.0
1580,1,31510,Note_on_c,0,72.0,85.0
1585,1,31627,Note_on_c,0,71.0,88.0
1587,1,31747,Note_on_c,0,69.0,87.0
1589,1,31892,Note_on_c,0,71.0,78.0
1590,1,31912,Note_on_c,0,64.0,48.0
1591,1,31912,Note_on_c,0,68.0,53.0
1592,1,32009,Control_c,0,64.0,34.0
1593,1,32023,Control_c,0,64.0,59.0
1595,1,32038,Control_c,0,64.0,64.0
1596,1,32054,Control_c,0,64.0,68.0
1597,1,32069,Control_c,0,64.0,77.0
1598,1,32084,Control_c,0,64.0,92.0
1599,1,32099,Control_c,0,64.0,127.0
1600,1,32227,Note_on_c,0,65.0,55.0
1601,1,32274,Note_on_c,0,69.0,62.0
1602,1,32297,Control_c,0,64.0,108.0
1604,1,32305,Note_on_c,0,72.0,85.0
1605,1,32312,Control_c,0,64.0,83.0
1606,1,32328,Control_c,0,64.0,70.0
1608,1,32343,Control_c,0,64.0,62.0
1613,1,32414,Note_on_c,0,74.0,96.0
1615,1,32533,Note_on_c,0,76.0,89.0
1617,1,32677,Note_on_c,0,71.0,80.0
1618,1,32696,Note_on_c,0,68.0,57.0
1619,1,32698,Note_on_c,0,64.0,47.0
1620,1,32746,Control_c,0,64.0,51.0
1621,1,32761,Control_c,0,64.0,64.0
1622,1,32777,Control_c,0,64.0,70.0
1623,1,32792,Control_c,0,64.0,82.0
1624,1,32808,Control_c,0,64.0,127.0
1627,1,32898,Control_c,0,67.0,10.0
1628,1,32913,Control_c,0,67.0,14.0
1629,1,32921,Note_on_c,0,74.0,73.0
1630,1,32929,Control_c,0,67.0,18.0
1631,1,32943,Control_c,0,67.0,25.0
1632,1,32958,Control_c,0,67.0,33.0
1634,1,32974,Control_c,0,67.0,39.0
1635,1,32976,Note_on_c,0,72.0,72.0
1636,1,32989,Control_c,0,67.0,44.0
1637,1,33003,Control_c,0,67.0,48.0
1639,1,33019,Control_c,0,67.0,53.0
1640,1,33026,Note_on_c,0,74.0,61.0
1641,1,33034,Control_c,0,64.0,78.0
1642,1,33034,Control_c,0,67.0,60.0
1643,1,33050,Control_c,0,64.0,58.0
1644,1,33050,Control_c,0,67.0,69.0
1646,1,33065,Control_c,0,67.0,79.0
1647,1,33068,Note_on_c,0,72.0,78.0
1648,1,33077,Note_on_c,0,69.0,62.0
1649,1,33079,Control_c,0,67.0,87.0
1651,1,33079,Note_on_c,0,65.0,59.0
1653,1,33095,Control_c,0,67.0,92.0
1654,1,33110,Control_c,0,67.0,98.0
1658,1,33125,Control_c,0,67.0,106.0
1659,1,33141,Control_c,0,67.0,117.0
1660,1,33156,Control_c,0,67.0,127.0
1661,1,33228,Note_on_c,0,71.0,70.0
1663,1,33332,Note_on_c,0,69.0,63.0
1665,1,33483,Control_c,0,64.0,57.0
1666,1,33487,Note_on_c,0,71.0,70.0
1667,1,33495,Note_on_c,0,64.0,41.0
1668,1,33499,Control_c,0,64.0,64.0
1669,1,33499,Note_on_c,0,68.0,51.0
1671,1,33514,Control_c,0,64.0,71.0
1672,1,33530,Control_c,0,64.0,100.0
1675,1,33544,Control_c,0,64.0,127.0
1676,1,33818,Control_c,0,64.0,86.0
1677,1,33818,Note_on_c,0,64.0,67.0
1678,1,33829,Note_on_c,0,49.0,51.0
1679,1,33833,Control_c,0,64.0,57.0
1683,1,33892,Note_on_c,0,66.0,63.0
1684,1,33954,Note_on_c,0,64.0,64.0
1686,1,33981,Note_on_c,0,57.0,58.0
1689,1,34028,Note_on_c,0,62.0,70.0
1690,1,34076,Note_on_c,0,64.0,58.0
1692,1,34140,Note_on_c,0,66.0,72.0
1693,1,34142,Note_on_c,0,50.0,51.0
1697,1,34199,Note_on_c,0,68.0,69.0
1698,1,34266,Note_on_c,0,66.0,66.0
1700,1,34292,Note_on_c,0,59.0,56.0
1703,1,34338,Note_on_c,0,64.0,65.0
1704,1,34386,Note_on_c,0,66.0,60.0
1706,1,34440,Note_on_c,0,52.0,55.0
1707,1,34450,Note_on_c,0,68.0,76.0
1711,1,34519,Note_on_c,0,69.0,67.0
1712,1,34578,Note_on_c,0,68.0,70.0
1714,1,34599,Note_on_c,0,61.0,59.0
1717,1,34641,Note_on_c,0,66.0,72.0
1719,1,34711,Note_on_c,0,68.0,70.0
1721,1,34778,Note_on_c,0,54.0,58.0
1722,1,34786,Note_on_c,0,69.0,74.0
1725,1,34862,Note_on_c,0,71.0,63.0
1727,1,34927,Note_on_c,0,69.0,66.0
1728,1,34937,Note_on_c,0,62.0,65.0
1729,1,34958,Control_c,0,67.0,127.0
1731,1,34973,Control_c,0,67.0,126.0
1733,1,34978,Note_on_c,0,68.0,69.0
1734,1,35003,Control_c,0,67.0,126.0
1735,1,35018,Control_c,0,67.0,125.0
1737,1,35049,Control_c,0,67.0,125.0
1738,1,35053,Note_on_c,0,69.0,70.0
1739,1,35079,Control_c,0,67.0,124.0
1740,1,35092,Note_on_c,0,56.0,60.0
1741,1,35096,Control_c,0,67.0,124.0
1742,1,35111,Control_c,0,67.0,123.0
1744,1,35115,Note_on_c,0,71.0,74.0
1746,1,35141,Control_c,0,67.0,123.0
1747,1,35156,Control_c,0,67.0,122.0
1748,1,35172,Control_c,0,67.0,122.0
1750,1,35177,Note_on_c,0,73.0,75.0
1751,1,35232,Control_c,0,67.0,121.0
1752,1,35251,Note_on_c,0,71.0,76.0
1753,1,35258,Note_on_c,0,64.0,69.0
1754,1,35263,Control_c,0,67.0,121.0
1757,1,35294,Control_c,0,67.0,120.0
1759,1,35308,Control_c,0,67.0,120.0
1760,1,35318,Note_on_c,0,69.0,70.0
1761,1,35323,Control_c,0,67.0,119.0
1762,1,35339,Control_c,0,67.0,119.0
1763,1,35361,Note_on_c,0,71.0,69.0
1764,1,35370,Control_c,0,67.0,118.0
1766,1,35385,Control_c,0,67.0,118.0
1767,1,35399,Control_c,0,67.0,117.0
1768,1,35414,Note_on_c,0,57.0,67.0
1769,1,35415,Control_c,0,67.0,116.0
1770,1,35424,Note_on_c,0,73.0,83.0
1771,1,35430,Control_c,0,67.0,115.0
1772,1,35445,Control_c,0,67.0,114.0
1775,1,35460,Control_c,0,67.0,114.0
1776,1,35475,Control_c,0,67.0,113.0
1777,1,35485,Note_on_c,0,74.0,72.0
1779,1,35491,Control_c,0,67.0,113.0
1780,1,35550,Note_on_c,0,73.0,72.0
1781,1,35559,Control_c,0,67.0,112.0
1783,1,35579,Note_on_c,0,66.0,70.0
1784,1,35605,Control_c,0,67.0,112.0
1787,1,35634,Note_on_c,0,71.0,71.0
1788,1,35635,Control_c,0,67.0,111.0
1789,1,35665,Control_c,0,67.0,111.0
1790,1,35680,Control_c,0,67.0,110.0
1791,1,35697,Note_on_c,0,73.0,73.0
1792,1,35711,Control_c,0,67.0,110.0
1794,1,35727,Control_c,0,67.0,109.0
1795,1,35734,Note_on_c,0,59.0,63.0
1796,1,35741,Control_c,0,67.0,108.0
1797,1,35756,Control_c,0,67.0,108.0
1798,1,35759,Note_on_c,0,74.0,88.0
1801,1,35787,Control_c,0,67.0,107.0
1802,1,35802,Control_c,0,67.0,107.0
1804,1,35819,Note_on_c,0,76.0,76.0
1805,1,35832,Control_c,0,67.0,106.0
1806,1,35879,Note_on_c,0,74.0,78.0
1807,1,35884,Note_on_c,0,68.0,71.0
1809,1,35908,Control_c,0,67.0,106.0
1812,1,35933,Note_on_c,0,73.0,77.0
1813,1,35955,Control_c,0,67.0,105.0
1815,1,35990,Note_on_c,0,74.0,72.0
1816,1,36000,Control_c,0,67.0,105.0
1817,1,36031,Control_c,0,67.0,104.0
1818,1,36039,Note_on_c,0,76.0,86.0
1820,1,36055,Note_on_c,0,61.0,73.0
1821,1,36076,Control_c,0,67.0,103.0
1822,1,36092,Control_c,0,67.0,103.0
1824,1,36106,Control_c,0,67.0,102.0
1825,1,36109,Note_on_c,0,78.0,87.0
1827,1,36121,Control_c,0,67.0,102.0
1828,1,36137,Control_c,0,67.0,101.0
1829,1,36152,Control_c,0,67.0,101.0
1830,1,36168,Control_c,0,67.0,100.0
1831,1,36171,Note_on_c,0,76.0,79.0
1832,1,36183,Control_c,0,67.0,99.0
1833,1,36198,Control_c,0,67.0,97.0
1835,1,36201,Note_on_c,0,69.0,72.0
1836,1,36214,Control_c,0,67.0,96.0
1838,1,36229,Control_c,0,67.0,95.0
1840,1,36239,Note_on_c,0,74.0,87.0
1841,1,36243,Control_c,0,67.0,95.0
1842,1,36259,Control_c,0,67.0,93.0
1843,1,36281,Control_c,0,67.0,91.0
1844,1,36297,Control_c,0,67.0,88.0
1845,1,36302,Note_on_c,0,76.0,76.0
1846,1,36311,Control_c,0,67.0,86.0
1848,1,36327,Control_c,0,67.0,85.0
1849,1,36342,Control_c,0,67.0,83.0
1850,1,36350,Note_on_c,0,62.0,81.0
1851,1,36356,Note_on_c,0,78.0,99.0
1852,1,36357,Control_c,0,67.0,80.0
1853,1,36373,Control_c,0,67.0,75.0
1855,1,36388,Control_c,0,67.0,69.0
1857,1,36403,Control_c,0,67.0,64.0
1859,1,36419,Control_c,0,67.0,61.0
1860,1,36433,Control_c,0,67.0,60.0
1861,1,36464,Control_c,0,67.0,60.0
1862,1,36479,Control_c,0,67.0,59.0
1863,1,36541,Note_on_c,0,64.0,80.0
1864,1,36541,Note_on_c,0,80.0,87.0
1865,1,36571,Control_c,0,67.0,58.0
1866,1,36585,Control_c,0,67.0,58.0
1869,1,36647,Control_c,0,67.0,58.0
1870,1,36706,Control_c,0,67.0,59.0
1871,1,36717,Note_on_c,0,81.0,83.0
1872,1,36718,Note_on_c,0,66.0,89.0
1874,1,36794,Note_on_c,0,80.0,78.0
1876,1,36814,Control_c,0,67.0,58.0
1877,1,36864,Note_on_c,0,78.0,82.0
1879,1,36920,Control_c,0,67.0,58.0
1880,1,36944,Note_on_c,0,76.0,79.0
1881,1,36965,Control_c,0,67.0,57.0
1882,1,36981,Control_c,0,67.0,57.0
1885,1,37024,Note_on_c,0,62.0,80.0
1886,1,37024,Note_on_c,0,74.0,83.0
1887,1,37027,Control_c,0,67.0,56.0
1888,1,37050,Control_c,0,67.0,55.0
1889,1,37065,Control_c,0,67.0,54.0
1890,1,37080,Control_c,0,67.0,53.0
1892,1,37095,Control_c,0,67.0,52.0
1893,1,37110,Control_c,0,67.0,51.0
1894,1,37113,Note_on_c,0,73.0,83.0
1896,1,37125,Control_c,0,67.0,50.0
1897,1,37141,Control_c,0,67.0,49.0
1898,1,37155,Control_c,0,67.0,47.0
1899,1,37171,Control_c,0,67.0,46.0
1900,1,37186,Control_c,0,67.0,46.0
1901,1,37195,Note_on_c,0,71.0,79.0
1902,1,37201,Control_c,0,67.0,45.0
1904,1,37217,Control_c,0,67.0,44.0
1905,1,37231,Control_c,0,67.0,43.0
1906,1,37247,Control_c,0,67.0,43.0
1908,1,37275,Note_on_c,0,69.0,76.0
1909,1,37277,Control_c,0,67.0,42.0
1910,1,37293,Control_c,0,67.0,42.0
1911,1,37308,Control_c,0,67.0,41.0
1912,1,37339,Control_c,0,67.0,41.0
1913,1,37360,Note_on_c,0,71.0,79.0
1914,1,37368,Note_on_c,0,64.0,63.0
1917,1,37429,Control_c,0,67.0,40.0
1919,1,37453,Note_on_c,0,76.0,78.0
1920,1,37475,Control_c,0,67.0,40.0
1921,1,37529,Note_on_c,0,74.0,81.0
1923,1,37568,Control_c,0,67.0,39.0
1924,1,37615,Note_on_c,0,73.0,78.0
1926,1,37700,Note_on_c,0,52.0,59.0
1927,1,37705,Note_on_c,0,71.0,76.0
1930,1,37785,Note_on_c,0,69.0,73.0
1931,1,37818,Control_c,0,67.0,40.0
1933,1,37849,Control_c,0,64.0,29.0
1934,1,37863,Control_c,0,64.0,58.0
1935,1,37870,Note_on_c,0,68.0,78.0
1937,1,37878,Control_c,0,64.0,64.0
1938,1,37878,Control_c,0,67.0,40.0
1939,1,37894,Control_c,0,64.0,68.0
1940,1,37894,Control_c,0,67.0,41.0
1941,1,37909,Control_c,0,64.0,75.0
1942,1,37909,Control_c,0,67.0,42.0
1943,1,37923,Control_c,0,64.0,91.0
1944,1,37923,Control_c,0,67.0,43.0
1945,1,37939,Control_c,0,64.0,127.0
1946,1,37954,Control_c,0,67.0,43.0
1947,1,37959,Note_on_c,0,66.0,83.0
1948,1,37985,Control_c,0,67.0,44.0
1950,1,38015,Control_c,0,67.0,44.0
1951,1,38030,Control_c,0,67.0,45.0
1952,1,38045,Control_c,0,67.0,45.0
1953,1,38061,Control_c,0,67.0,46.0
1954,1,38075,Control_c,0,67.0,46.0
1955,1,38091,Control_c,0,67.0,47.0
1956,1,38094,Note_on_c,0,64.0,76.0
1958,1,38121,Control_c,0,67.0,47.0
1959,1,38137,Control_c,0,67.0,48.0
1960,1,38152,Control_c,0,64.0,103.0
1961,1,38152,Control_c,0,67.0,49.0
1962,1,38168,Control_c,0,64.0,65.0
1963,1,38168,Control_c,0,67.0,50.0
1965,1,38183,Control_c,0,67.0,51.0
1966,1,38197,Control_c,0,67.0,52.0
1967,1,38213,Control_c,0,67.0,53.0
1969,1,38224,Note_on_c,0,66.0,70.0
1970,1,38228,Control_c,0,67.0,55.0
1971,1,38243,Control_c,0,67.0,58.0
1972,1,38259,Control_c,0,67.0,63.0
1973,1,38273,Control_c,0,64.0,61.0
1974,1,38273,Control_c,0,67.0,73.0
1975,1,38285,Note_on_c,0,64.0,67.0
1977,1,38289,Control_c,0,64.0,65.0
1978,1,38289,Control_c,0,67.0,84.0
1979,1,38304,Control_c,0,64.0,68.0
1980,1,38304,Control_c,0,67.0,97.0
1981,1,38319,Control_c,0,64.0,73.0
1982,1,38319,Control_c,0,67.0,108.0
1983,1,38334,Control_c,0,64.0,79.0
1984,1,38334,Control_c,0,67.0,117.0
1985,1,38345,Note_on_c,0,66.0,68.0
1987,1,38349,Control_c,0,64.0,84.0
1988,1,38349,Control_c,0,67.0,124.0
1989,1,38364,Control_c,0,64.0,90.0
1990,1,38364,Control_c,0,67.0,127.0
1991,1,38381,Control_c,0,64.0,101.0
1992,1,38396,Control_c,0,64.0,122.0
1993,1,38396,Note_on_c,0,64.0,63.0
1995,1,38412,Control_c,0,64.0,127.0
1996,1,38454,Note_on_c,0,66.0,68.0
1998,1,38487,Note_on_c,0,49.0,63.0
1999,1,38512,Note_on_c,0,64.0,65.0
2002,1,38577,Note_on_c,0,66.0,66.0
2003,1,38626,Note_on_c,0,57.0,69.0
2004,1,38633,Note_on_c,0,64.0,71.0
2008,1,38694,Note_on_c,0,62.0,76.0
2010,1,38745,Note_on_c,0,64.0,74.0
2012,1,38842,Note_on_c,0,50.0,73.0
2013,1,38919,Note_on_c,0,66.0,73.0
2014,1,38950,Control_c,0,64.0,97.0
2015,1,38965,Control_c,0,64.0,65.0
2018,1,39008,Note_on_c,0,68.0,65.0
2020,1,39072,Control_c,0,64.0,43.0
2021,1,39081,Note_on_c,0,66.0,69.0
2022,1,39088,Control_c,0,64.0,59.0
2023,1,39094,Note_on_c,0,59.0,64.0
2024,1,39102,Control_c,0,64.0,64.0
2026,1,39117,Control_c,0,64.0,66.0
2027,1,39133,Control_c,0,64.0,69.0
2031,1,39148,Control_c,0,64.0,74.0
2032,1,39148,Note_on_c,0,64.0,72.0
2033,1,39163,Control_c,0,64.0,82.0
2034,1,39178,Control_c,0,64.0,97.0
2035,1,39193,Note_on_c,0,66.0,70.0
2036,1,39194,Control_c,0,64.0,127.0
2038,1,39256,Note_on_c,0,52.0,81.0
2039,1,39265,Note_on_c,0,68.0,79.0
2041,1,39316,Control_c,0,64.0,71.0
2044,1,39339,Note_on_c,0,69.0,69.0
2045,1,39408,Note_on_c,0,68.0,75.0
2046,1,39415,Control_c,0,64.0,55.0
2048,1,39430,Control_c,0,64.0,65.0
2049,1,39436,Note_on_c,0,61.0,68.0
2050,1,39445,Control_c,0,64.0,70.0
2052,1,39461,Control_c,0,64.0,82.0
2054,1,39467,Note_on_c,0,66.0,78.0
2055,1,39475,Control_c,0,64.0,127.0
2057,1,39537,Note_on_c,0,68.0,79.0
2060,1,39608,Note_on_c,0,54.0,78.0
2061,1,39610,Note_on_c,0,69.0,76.0
2062,1,39658,Control_c,0,64.0,74.0
2065,1,39683,Note_on_c,0,71.0,69.0
2067,1,39761,Note_on_c,0,69.0,71.0
2068,1,39763,Control_c,0,64.0,61.0
2069,1,39779,Control_c,0,64.0,65.0
2070,1,39783,Note_on_c,0,62.0,72.0
2071,1,39794,Control_c,0,64.0,69.0
2072,1,39809,Control_c,0,64.0,79.0
2076,1,39824,Control_c,0,64.0,96.0
2077,1,39829,Note_on_c,0,68.0,73.0
2078,1,39839,Control_c,0,64.0,127.0
2080,1,39901,Note_on_c,0,69.0,71.0
2081,1,39968,Note_on_c,0,56.0,72.0
2082,1,39968,Note_on_c,0,71.0,75.0
2084,1,39992,Control_c,0,64.0,69.0
2087,1,40044,Note_on_c,0,73.0,72.0
2088,1,40100,Control_c,0,64.0,54.0
2089,1,40121,Control_c,0,64.0,63.0
2090,1,40136,Note_on_c,0,71.0,68.0
2091,1,40137,Control_c,0,64.0,66.0
2092,1,40139,Note_on_c,0,64.0,65.0
2094,1,40152,Control_c,0,64.0,69.0
2095,1,40167,Control_c,0,64.0,75.0
2098,1,40182,Control_c,0,64.0,79.0
2100,1,40197,Control_c,0,64.0,84.0
2101,1,40201,Note_on_c,0,69.0,66.0
2102,1,40213,Control_c,0,64.0,90.0
2103,1,40228,Control_c,0,64.0,102.0
2104,1,40243,Control_c,0,64.0,127.0
2105,1,40255,Note_on_c,0,71.0,57.0
2107,1,40319,Control_c,0,64.0,81.0
2108,1,40319,Note_on_c,0,73.0,73.0
2109,1,40324,Note_on_c,0,57.0,59.0
2110,1,40335,Control_c,0,64.0,63.0
2114,1,40395,Note_on_c,0,74.0,67.0
2115,1,40426,Control_c,0,64.0,46.0
2116,1,40441,Control_c,0,64.0,62.0
2117,1,40456,Control_c,0,64.0,64.0
2118,1,40460,Note_on_c,0,73.0,62.0
2119,1,40471,Control_c,0,64.0,67.0
2121,1,40480,Note_on_c,0,66.0,58.0
2123,1,40487,Control_c,0,64.0,71.0
2124,1,40502,Control_c,0,64.0,74.0
2125,1,40517,Control_c,0,64.0,76.0
2128,1,40532,Control_c,0,64.0,78.0
2129,1,40534,Note_on_c,0,71.0,68.0
2130,1,40547,Control_c,0,64.0,81.0
2131,1,40562,Control_c,0,64.0,85.0
2132,1,40577,Control_c,0,64.0,91.0
2133,1,40591,Note_on_c,0,73.0,59.0
2134,1,40592,Control_c,0,64.0,94.0
2136,1,40623,Control_c,0,64.0,91.0
2137,1,40638,Control_c,0,64.0,74.0
2138,1,40653,Control_c,0,64.0,47.0
2139,1,40653,Note_on_c,0,59.0,55.0
2140,1,40664,Note_on_c,0,74.0,70.0
2144,1,40733,Note_on_c,0,76.0,58.0
2145,1,40745,Control_c,0,64.0,39.0
2146,1,40760,Control_c,0,64.0,57.0
2148,1,40775,Control_c,0,64.0,62.0
2149,1,40790,Control_c,0,64.0,64.0
2150,1,40790,Note_on_c,0,74.0,59.0
2152,1,40805,Control_c,0,64.0,65.0
2153,1,40807,Note_on_c,0,68.0,54.0
2154,1,40821,Control_c,0,64.0,65.0
2155,1,40837,Control_c,0,64.0,66.0
2158,1,40851,Note_on_c,0,73.0,60.0
2159,1,40853,Control_c,0,64.0,67.0
2160,1,40868,Control_c,0,64.0,69.0
2161,1,40891,Control_c,0,64.0,72.0
2163,1,40906,Control_c,0,64.0,77.0
2164,1,40921,Control_c,0,64.0,84.0
2165,1,40921,Note_on_c,0,74.0,65.0
2166,1,40937,Control_c,0,64.0,90.0
2167,1,40952,Control_c,0,64.0,93.0
2168,1,40967,Control_c,0,64.0,89.0
2169,1,40982,Control_c,0,64.0,70.0
2170,1,40983,Note_on_c,0,61.0,56.0
2171,1,40985,Note_on_c,0,76.0,67.0
2175,1,41042,Note_on_c,0,78.0,64.0
2176,1,41089,Control_c,0,64.0,59.0
2177,1,41103,Control_c,0,64.0,64.0
2178,1,41112,Note_on_c,0,76.0,61.0
2180,1,41118,Control_c,0,64.0,66.0
2182,1,41134,Control_c,0,64.0,69.0
2183,1,41143,Note_on_c,0,69.0,52.0
2184,1,41149,Control_c,0,64.0,71.0
2186,1,41163,Control_c,0,64.0,72.0
2188,1,41182,Note_on_c,0,74.0,64.0
2189,1,41194,Control_c,0,64.0,73.0
2191,1,41239,Control_c,0,64.0,73.0
2192,1,41241,Note_on_c,0,76.0,59.0
2193,1,41270,Control_c,0,64.0,73.0
2194,1,41285,Control_c,0,64.0,70.0
2195,1,41301,Control_c,0,64.0,63.0
2196,1,41305,Note_on_c,0,78.0,78.0
2198,1,41321,Note_on_c,0,62.0,58.0
2202,1,41520,Note_on_c,0,80.0,68.0
2203,1,41533,Note_on_c,0,64.0,53.0
2206,1,41732,Note_on_c,0,66.0,57.0
2207,1,41735,Note_on_c,0,81.0,67.0
2210,1,41812,Note_on_c,0,80.0,66.0
2211,1,41900,Note_on_c,0,78.0,69.0
2213,1,41979,Note_on_c,0,76.0,65.0
2216,1,42053,Note_on_c,0,62.0,62.0
2217,1,42060,Note_on_c,0,74.0,72.0
2220,1,42139,Note_on_c,0,73.0,74.0
2221,1,42214,Note_on_c,0,71.0,63.0
2223,1,42263,Note_on_c,0,69.0,66.0
2226,1,42385,Note_on_c,0,64.0,58.0
2227,1,42394,Note_on_c,0,69.0,66.0
2230,1,42452,Note_on_c,0,71.0,61.0
2232,1,42496,Note_on_c,0,73.0,69.0
2234,1,42555,Note_on_c,0,71.0,69.0
2236,1,42612,Note_on_c,0,73.0,58.0
2238,1,42665,Note_on_c,0,71.0,66.0
2240,1,42713,Note_on_c,0,73.0,66.0
2241,1,42718,Note_on_c,0,52.0,49.0
2244,1,42771,Note_on_c,0,71.0,66.0
2246,1,42827,Note_on_c,0,73.0,58.0
2247,1,42884,Note_on_c,0,71.0,58.0
2250,1,42928,Note_on_c,0,69.0,59.0
2252,1,43004,Note_on_c,0,71.0,59.0
2253,1,43050,Control_c,0,67.0,127.0
2255,1,43065,Control_c,0,67.0,126.0
2256,1,43073,Note_on_c,0,69.0,59.0
2257,1,43081,Control_c,0,67.0,125.0
2258,1,43083,Note_on_c,0,45.0,46.0
2259,1,43096,Control_c,0,67.0,125.0
2260,1,43110,Control_c,0,64.0,38.0
2261,1,43110,Control_c,0,67.0,124.0
2262,1,43126,Control_c,0,64.0,64.0
2263,1,43126,Control_c,0,67.0,123.0
2265,1,43141,Control_c,0,64.0,68.0
2266,1,43141,Control_c,0,67.0,122.0
2268,1,43156,Control_c,0,64.0,78.0
2269,1,43156,Control_c,0,67.0,120.0
2270,1,43172,Control_c,0,64.0,127.0
2271,1,43172,Control_c,0,67.0,118.0
2272,1,43194,Control_c,0,67.0,115.0
2273,1,43210,Control_c,0,67.0,113.0
2274,1,43225,Control_c,0,67.0,112.0
2275,1,43240,Control_c,0,67.0,110.0
2276,1,43255,Control_c,0,67.0,109.0
2277,1,43270,Control_c,0,67.0,109.0
2278,1,43286,Control_c,0,67.0,109.0
2279,1,43499,Control_c,0,67.0,110.0
2280,1,43503,Note_on_c,0,73.0,64.0
2281,1,43503,Note_on_c,0,81.0,86.0
2283,1,43530,Control_c,0,67.0,109.0
2284,1,43560,Control_c,0,67.0,109.0
2286,1,43621,Control_c,0,67.0,109.0
2287,1,43630,Note_on_c,0,69.0,58.0
2288,1,43743,Control_c,0,67.0,110.0
2289,1,43758,Note_on_c,0,64.0,55.0
2291,1,43864,Control_c,0,64.0,75.0
2292,1,43874,Note_on_c,0,38.0,76.0
2293,1,43878,Control_c,0,64.0,36.0
2294,1,43880,Note_on_c,0,74.0,68.0
2297,1,43894,Control_c,0,67.0,110.0
2299,1,43963,Control_c,0,67.0,111.0
2300,1,43978,Control_c,0,67.0,111.0
2302,1,44000,Note_on_c,0,69.0,59.0
2303,1,44009,Control_c,0,67.0,112.0
2304,1,44023,Control_c,0,67.0,112.0
2305,1,44069,Control_c,0,67.0,113.0
2307,1,44135,Note_on_c,0,64.0,55.0
2308,1,44177,Control_c,0,67.0,112.0
2309,1,44222,Control_c,0,67.0,112.0
2310,1,44237,Control_c,0,67.0,111.0
2311,1,44267,Control_c,0,67.0,111.0
2312,1,44270,Note_on_c,0,40.0,71.0
2313,1,44275,Note_on_c,0,71.0,61.0
2316,1,44312,Control_c,0,67.0,110.0
2318,1,44401,Note_on_c,0,68.0,60.0
2319,1,44480,Control_c,0,67.0,110.0
2321,1,44520,Note_on_c,0,64.0,52.0
2322,1,44587,Control_c,0,67.0,109.0
2323,1,44617,Control_c,0,67.0,109.0
2325,1,44632,Control_c,0,67.0,108.0
2326,1,44644,Note_on_c,0,33.0,63.0
2327,1,44647,Control_c,0,67.0,108.0
2328,1,44648,Note_on_c,0,73.0,67.0
2329,1,44662,Control_c,0,64.0,64.0
2330,1,44662,Control_c,0,67.0,107.0
2331,1,44677,Control_c,0,64.0,72.0
2332,1,44677,Control_c,0,67.0,105.0
2334,1,44693,Control_c,0,64.0,127.0
2335,1,44693,Control_c,0,67.0,102.0
2336,1,44708,Control_c,0,67.0,97.0
2337,1,44731,Control_c,0,67.0,94.0
2338,1,44746,Control_c,0,67.0,93.0
2339,1,44761,Control_c,0,67.0,92.0
2341,1,44776,Control_c,0,67.0,92.0
2342,1,44779,Note_on_c,0,69.0,60.0
2343,1,44791,Control_c,0,67.0,91.0
2344,1,44807,Control_c,0,67.0,91.0
2345,1,44822,Control_c,0,67.0,90.0
2346,1,44837,Control_c,0,67.0,90.0
2348,1,44888,Note_on_c,0,64.0,48.0
2349,1,44913,Control_c,0,67.0,89.0
2351,1,44929,Control_c,0,67.0,89.0
2352,1,44960,Control_c,0,67.0,88.0
2353,1,45036,Note_on_c,0,81.0,96.0
2354,1,45051,Control_c,0,67.0,88.0
2355,1,45051,Note_on_c,0,61.0,59.0
2357,1,45066,Control_c,0,67.0,87.0
2358,1,45081,Control_c,0,67.0,87.0
2359,1,45142,Control_c,0,67.0,87.0
2360,1,45156,Control_c,0,67.0,88.0
2361,1,45172,Control_c,0,67.0,89.0
2362,1,45175,Note_on_c,0,64.0,60.0
2363,1,45187,Control_c,0,67.0,90.0
2364,1,45203,Control_c,0,67.0,92.0
2366,1,45218,Control_c,0,67.0,93.0
2367,1,45232,Control_c,0,67.0,94.0
2368,1,45248,Control_c,0,67.0,95.0
2369,1,45263,Control_c,0,67.0,96.0
2371,1,45277,Note_on_c,0,69.0,60.0
2372,1,45278,Control_c,0,67.0,96.0
2373,1,45293,Control_c,0,67.0,97.0
2374,1,45400,Control_c,0,67.0,97.0
2376,1,45413,Note_on_c,0,62.0,67.0
2377,1,45415,Control_c,0,64.0,115.0
2378,1,45415,Control_c,0,67.0,98.0
2379,1,45421,Note_on_c,0,38.0,86.0
2380,1,45430,Control_c,0,64.0,56.0
2381,1,45430,Control_c,0,67.0,98.0
2383,1,45446,Control_c,0,67.0,99.0
2385,1,45461,Control_c,0,67.0,100.0
2386,1,45476,Control_c,0,67.0,101.0
2387,1,45498,Control_c,0,67.0,102.0
2388,1,45513,Control_c,0,67.0,103.0
2389,1,45529,Control_c,0,67.0,103.0
2390,1,45544,Note_on_c,0,66.0,70.0
2392,1,45560,Control_c,0,67.0,104.0
2393,1,45620,Control_c,0,67.0,103.0
2394,1,45635,Control_c,0,67.0,103.0
2395,1,45651,Control_c,0,67.0,102.0
2397,1,45666,Note_on_c,0,69.0,57.0
2398,1,45696,Control_c,0,67.0,102.0
2399,1,45742,Control_c,0,67.0,101.0
2401,1,45796,Note_on_c,0,40.0,74.0
2402,1,45806,Note_on_c,0,64.0,64.0
2403,1,45819,Control_c,0,67.0,102.0
2405,1,45895,Control_c,0,67.0,102.0
2407,1,45920,Note_on_c,0,68.0,66.0
2409,1,46031,Note_on_c,0,71.0,54.0
2411,1,46168,Control_c,0,67.0,103.0
2412,1,46183,Control_c,0,67.0,104.0
2413,1,46195,Note_on_c,0,57.0,62.0
2414,1,46198,Control_c,0,67.0,104.0
2415,1,46201,Note_on_c,0,33.0,66.0
2416,1,46213,Control_c,0,67.0,105.0
2417,1,46228,Control_c,0,64.0,59.0
2418,1,46228,Control_c,0,67.0,105.0
2420,1,46244,Control_c,0,64.0,66.0
2421,1,46267,Control_c,0,64.0,71.0
2423,1,46283,Control_c,0,64.0,87.0
2424,1,46283,Control_c,0,67.0,105.0
2425,1,46297,Control_c,0,64.0,127.0
2426,1,46297,Control_c,0,67.0,104.0
2427,1,46312,Control_c,0,67.0,102.0
2428,1,46328,Control_c,0,67.0,101.0
2429,1,46342,Control_c,0,67.0,99.0
2430,1,46357,Control_c,0,67.0,97.0
2431,1,46373,Control_c,0,67.0,95.0
2432,1,46388,Control_c,0,67.0,95.0
2433,1,46404,Control_c,0,67.0,94.0
2434,1,46602,Control_c,0,67.0,94.0
2435,1,46609,Note_on_c,0,73.0,71.0
2436,1,46613,Note_on_c,0,81.0,98.0
2437,1,46617,Control_c,0,67.0,93.0
2438,1,46632,Control_c,0,67.0,91.0
2440,1,46648,Control_c,0,67.0,90.0
2441,1,46663,Control_c,0,67.0,88.0
2442,1,46677,Control_c,0,67.0,87.0
2443,1,46693,Control_c,0,67.0,87.0
2445,1,46732,Note_on_c,0,69.0,66.0
2446,1,46846,Note_on_c,0,64.0,64.0
2448,1,46981,Control_c,0,64.0,81.0
2449,1,46983,Note_on_c,0,38.0,80.0
2450,1,46983,Note_on_c,0,74.0,77.0
2451,1,46996,Control_c,0,64.0,64.0
2455,1,47051,Control_c,0,67.0,87.0
2456,1,47065,Control_c,0,67.0,88.0
2457,1,47081,Control_c,0,67.0,88.0
2458,1,47096,Control_c,0,67.0,89.0
2459,1,47109,Note_on_c,0,69.0,61.0
2461,1,47126,Control_c,0,67.0,89.0
2462,1,47186,Control_c,0,67.0,90.0
2464,1,47228,Note_on_c,0,64.0,59.0
2465,1,47248,Control_c,0,67.0,89.0
2466,1,47338,Control_c,0,67.0,89.0
2467,1,47354,Note_on_c,0,40.0,68.0
2468,1,47360,Note_on_c,0,71.0,65.0
2472,1,47474,Control_c,0,67.0,88.0
2473,1,47477,Note_on_c,0,68.0,65.0
2475,1,47597,Note_on_c,0,64.0,63.0
2476,1,47657,Control_c,0,67.0,88.0
2478,1,47703,Control_c,0,67.0,87.0
2479,1,47719,Note_on_c,0,73.0,68.0
2480,1,47731,Note_on_c,0,33.0,58.0
2481,1,47748,Control_c,0,67.0,87.0
2483,1,47831,Control_c,0,67.0,86.0
2485,1,47856,Note_on_c,0,74.0,72.0
2486,1,47975,Note_on_c,0,76.0,70.0
2488,1,48060,Control_c,0,67.0,86.0
2489,1,48108,Note_on_c,0,62.0,72.0
2490,1,48108,Note_on_c,0,78.0,77.0
2493,1,48231,Note_on_c,0,76.0,76.0
2496,1,48342,Note_on_c,0,74.0,77.0
2497,1,48363,Control_c,0,67.0,85.0
2498,1,48455,Control_c,0,67.0,85.0
2499,1,48469,Note_on_c,0,64.0,74.0
2500,1,48473,Note_on_c,0,73.0,77.0
2503,1,48601,Note_on_c,0,74.0,85.0
2505,1,48713,Note_on_c,0,71.0,77.0
2506,1,48721,Control_c,0,67.0,84.0
2508,1,48767,Control_c,0,67.0,84.0
2510,1,48843,Note_on_c,0,69.0,76.0
2511,1,48844,Note_on_c,0,52.0,77.0
2513,1,48933,Control_c,0,67.0,83.0
2514,1,48956,Note_on_c,0,71.0,73.0
2516,1,49077,Note_on_c,0,68.0,75.0
2518,1,49087,Control_c,0,67.0,84.0
2519,1,49201,Note_on_c,0,69.0,70.0
2520,1,49205,Note_on_c,0,57.0,68.0
2523,1,49314,Control_c,0,67.0,84.0
2524,1,49339,Note_on_c,0,68.0,70.0
2526,1,49367,Control_c,0,67.0,85.0
2527,1,49452,Note_on_c,0,66.0,75.0
2530,1,49574,Note_on_c,0,64.0,69.0
2531,1,49581,Note_on_c,0,50.0,61.0
2533,1,49694,Note_on_c,0,66.0,68.0
2535,1,49732,Control_c,0,67.0,85.0
2537,1,49809,Note_on_c,0,62.0,67.0
2538,1,49942,Note_on_c,0,61.0,64.0
2539,1,49946,Note_on_c,0,52.0,62.0
2541,1,49990,Control_c,0,67.0,85.0
2544,1,50059,Note_on_c,0,62.0,68.0
2545,1,50136,Control_c,0,67.0,84.0
2547,1,50188,Note_on_c,0,59.0,63.0
2548,1,50196,Control_c,0,67.0,84.0
2550,1,50317,Note_on_c,0,57.0,62.0
2551,1,50320,Note_on_c,0,40.0,51.0
2552,1,50348,Control_c,0,67.0,83.0
2554,1,50409,Control_c,0,67.0,83.0
2556,1,50438,Note_on_c,0,59.0,63.0
2557,1,50455,Control_c,0,67.0,82.0
2558,1,50515,Control_c,0,67.0,82.0
2559,1,50546,Control_c,0,67.0,81.0
2560,1,50552,Note_on_c,0,56.0,63.0
2561,1,50560,Control_c,0,67.0,81.0
2563,1,50591,Control_c,0,67.0,80.0
2565,1,50636,Control_c,0,67.0,79.0
2566,1,50652,Control_c,0,67.0,78.0
2567,1,50668,Control_c,0,67.0,76.0
2568,1,50683,Control_c,0,67.0,74.0
2569,1,50699,Control_c,0,67.0,72.0
2570,1,50713,Control_c,0,67.0,71.0
2571,1,50729,Control_c,0,67.0,69.0
2572,1,50744,Control_c,0,67.0,67.0
2573,1,50755,Note_on_c,0,57.0,60.0
2574,1,50759,Control_c,0,67.0,65.0
2575,1,50770,Note_on_c,0,33.0,41.0
2576,1,50775,Control_c,0,67.0,64.0
2577,1,50789,Control_c,0,64.0,51.0
2578,1,50789,Control_c,0,67.0,62.0
2579,1,50804,Control_c,0,64.0,63.0
2580,1,50804,Control_c,0,67.0,59.0
2581,1,50820,Control_c,0,64.0,68.0
2582,1,50820,Control_c,0,67.0,53.0
2583,1,50834,Control_c,0,64.0,85.0
2584,1,50834,Control_c,0,67.0,46.0
2585,1,50850,Control_c,0,64.0,127.0
2586,1,50850,Control_c,0,67.0,39.0
2589,1,50865,Control_c,0,67.0,32.0
2590,1,50889,Control_c,0,67.0,24.0
2591,1,50904,Control_c,0,67.0,14.0
2593,1,51257,Note_on_c,0,77.0,70.0
2594,1,51304,Note_on_c,0,79.0,81.0
2596,1,51350,Note_on_c,0,81.0,91.0
2597,1,51359,Control_c,0,64.0,74.0
2600,1,51829,Note_on_c,0,79.0,78.0
2602,1,51977,Note_on_c,0,77.0,81.0
2604,1,52099,Note_on_c,0,76.0,83.0
2606,1,52211,Note_on_c,0,74.0,86.0
2608,1,52320,Note_on_c,0,73.0,83.0
2610,1,52341,Control_c,0,64.0,47.0
2611,1,52356,Control_c,0,64.0,63.0
2612,1,52372,Control_c,0,64.0,70.0
2613,1,52387,Control_c,0,64.0,89.0
2614,1,52410,Control_c,0,64.0,127.0
2615,1,52421,Note_on_c,0,74.0,81.0
2618,1,52561,Note_on_c,0,74.0,83.0
2620,1,52610,Note_on_c,0,73.0,70.0
2621,1,52622,Control_c,0,64.0,109.0
2622,1,52637,Control_c,0,64.0,78.0
2623,1,52648,Note_on_c,0,74.0,67.0
2624,1,52653,Control_c,0,64.0,66.0
2626,1,52668,Control_c,0,64.0,51.0
2628,1,52697,Note_on_c,0,73.0,80.0
2630,1,52972,Note_on_c,0,70.0,65.0
2631,1,53139,Control_c,0,64.0,52.0
2632,1,53154,Control_c,0,64.0,62.0
2633,1,53177,Control_c,0,64.0,65.0
2634,1,53192,Control_c,0,64.0,69.0
2635,1,53208,Control_c,0,64.0,78.0
2636,1,53223,Control_c,0,64.0,101.0
2637,1,53238,Control_c,0,64.0,127.0
2639,1,53310,Note_on_c,0,69.0,61.0
2641,1,53454,Note_on_c,0,67.0,68.0
2643,1,53555,Note_on_c,0,65.0,68.0
2646,1,53669,Note_on_c,0,73.0,85.0
2647,1,53696,Note_on_c,0,67.0,70.0
2648,1,53708,Control_c,0,64.0,106.0
2649,1,53722,Control_c,0,64.0,66.0
2651,1,53784,Control_c,0,64.0,39.0
2652,1,53799,Control_c,0,64.0,63.0
2653,1,53815,Control_c,0,64.0,67.0
2654,1,53815,Note_on_c,0,65.0,65.0
2657,1,53829,Control_c,0,64.0,76.0
2658,1,53844,Control_c,0,64.0,112.0
2659,1,53860,Control_c,0,64.0,127.0
2660,1,53909,Note_on_c,0,64.0,69.0
2663,1,54045,Note_on_c,0,74.0,90.0
2664,1,54062,Note_on_c,0,65.0,59.0
2665,1,54111,Control_c,0,64.0,87.0
2666,1,54126,Control_c,0,64.0,56.0
2669,1,54173,Note_on_c,0,64.0,60.0
2670,1,54202,Control_c,0,64.0,59.0
2671,1,54218,Control_c,0,64.0,65.0
2673,1,54233,Control_c,0,64.0,71.0
2674,1,54238,Note_on_c,0,62.0,57.0
2675,1,54249,Control_c,0,64.0,86.0
2677,1,54264,Control_c,0,64.0,127.0
2679,1,54347,Note_on_c,0,74.0,69.0
2680,1,54397,Note_on_c,0,76.0,74.0
2681,1,54448,Note_on_c,0,77.0,84.0
2682,1,54454,Note_on_c,0,69.0,50.0
2683,1,54457,Note_on_c,0,65.0,48.0
2685,1,54460,Note_on_c,0,62.0,53.0
2687,1,54522,Control_c,0,64.0,74.0
2689,1,54598,Control_c,0,64.0,37.0
2691,1,54614,Control_c,0,64.0,63.0
2692,1,54628,Control_c,0,64.0,66.0
2695,1,54643,Control_c,0,64.0,73.0
2696,1,54659,Control_c,0,64.0,88.0
2697,1,54674,Control_c,0,64.0,127.0
2698,1,54827,Note_on_c,0,76.0,73.0
2699,1,54856,Note_on_c,0,64.0,50.0
2700,1,54859,Note_on_c,0,69.0,53.0
2701,1,54870,Note_on_c,0,60.0,44.0
2703,1,54896,Control_c,0,64.0,90.0
2704,1,54910,Control_c,0,64.0,57.0
2707,1,54972,Control_c,0,64.0,63.0
2709,1,54986,Control_c,0,64.0,68.0
2711,1,55001,Control_c,0,64.0,76.0
2713,1,55017,Control_c,0,64.0,101.0
2714,1,55032,Control_c,0,64.0,127.0
2715,1,55149,Note_on_c,0,58.0,55.0
2716,1,55187,Note_on_c,0,62.0,46.0
2717,1,55212,Note_on_c,0,76.0,67.0
2718,1,55213,Note_on_c,0,64.0,42.0
2719,1,55248,Note_on_c,0,67.0,58.0
2720,1,55272,Note_on_c,0,74.0,79.0
2721,1,55290,Control_c,0,64.0,71.0
2724,1,55350,Control_c,0,64.0,51.0
2726,1,55365,Control_c,0,64.0,65.0
2728,1,55381,Control_c,0,64.0,70.0
2730,1,55391,Note_on_c,0,73.0,73.0
2731,1,55395,Control_c,0,64.0,81.0
2733,1,55411,Control_c,0,64.0,108.0
2735,1,55426,Control_c,0,64.0,127.0
2736,1,55523,Note_on_c,0,74.0,77.0
2738,1,55576,Note_on_c,0,57.0,49.0
2739,1,55625,Note_on_c,0,61.0,45.0
2740,1,55644,Note_on_c,0,64.0,45.0
2741,1,55669,Note_on_c,0,76.0,71.0
2743,1,55678,Control_c,0,64.0,90.0
2744,1,55685,Note_on_c,0,67.0,46.0
2745,1,55694,Control_c,0,64.0,64.0
2747,1,55753,Control_c,0,64.0,22.0
2748,1,55769,Control_c,0,64.0,60.0
2749,1,55784,Control_c,0,64.0,65.0
2750,1,55799,Control_c,0,64.0,70.0
2754,1,55815,Control_c,0,64.0,82.0
2757,1,55829,Control_c,0,64.0,103.0
2758,1,55844,Control_c,0,64.0,127.0
2759,1,55971,Note_on_c,0,62.0,59.0
2760,1,56003,Note_on_c,0,65.0,66.0
2761,1,56028,Note_on_c,0,69.0,68.0
2762,1,56046,Note_on_c,0,77.0,82.0
2763,1,56056,Control_c,0,64.0,66.0
2766,1,56131,Control_c,0,64.0,62.0
2769,1,56147,Control_c,0,64.0,67.0
2770,1,56156,Note_on_c,0,76.0,86.0
2771,1,56161,Control_c,0,64.0,82.0
2772,1,56177,Control_c,0,64.0,127.0
2774,1,56273,Note_on_c,0,77.0,88.0
2776,1,56315,Note_on_c,0,58.0,61.0
2777,1,56338,Note_on_c,0,62.0,62.0
2778,1,56356,Note_on_c,0,64.0,61.0
2779,1,56382,Control_c,0,64.0,70.0
2780,1,56391,Note_on_c,0,79.0,86.0
2781,1,56392,Note_on_c,0,67.0,63.0
2784,1,56474,Control_c,0,64.0,62.0
2787,1,56489,Control_c,0,64.0,66.0
2789,1,56505,Control_c,0,64.0,71.0
2791,1,56507,Note_on_c,0,77.0,82.0
2792,1,56520,Control_c,0,64.0,82.0
2794,1,56536,Control_c,0,64.0,99.0
2795,1,56550,Control_c,0,64.0,127.0
2796,1,56631,Note_on_c,0,76.0,78.0
2798,1,56692,Note_on_c,0,57.0,53.0
2799,1,56715,Note_on_c,0,64.0,49.0
2800,1,56718,Note_on_c,0,61.0,53.0
2802,1,56748,Control_c,0,64.0,69.0
2803,1,56748,Note_on_c,0,67.0,67.0
2804,1,56751,Note_on_c,0,74.0,85.0
2808,1,56808,Control_c,0,64.0,37.0
2809,1,56824,Control_c,0,64.0,65.0
2811,1,56839,Control_c,0,64.0,71.0
2813,1,56855,Control_c,0,64.0,87.0
2814,1,56863,Note_on_c,0,73.0,81.0
2816,1,56870,Control_c,0,64.0,127.0
2817,1,56983,Note_on_c,0,74.0,83.0
2819,1,57071,Note_on_c,0,57.0,60.0
2820,1,57096,Note_on_c,0,61.0,62.0
2821,1,57105,Control_c,0,64.0,86.0
2822,1,57108,Note_on_c,0,64.0,62.0
2823,1,57120,Control_c,0,64.0,35.0
2824,1,57123,Note_on_c,0,67.0,72.0
2825,1,57133,Note_on_c,0,76.0,88.0
2828,1,57196,Control_c,0,64.0,59.0
2830,1,57212,Control_c,0,64.0,67.0
2834,1,57228,Control_c,0,64.0,76.0
2835,1,57242,Control_c,0,64.0,103.0
2836,1,57255,Note_on_c,0,77.0,82.0
2837,1,57258,Control_c,0,64.0,127.0
2839,1,57355,Note_on_c,0,79.0,88.0
2841,1,57447,Note_on_c,0,62.0,64.0
2842,1,57469,Note_on_c,0,65.0,67.0
2843,1,57484,Note_on_c,0,77.0,89.0
2844,1,57485,Control_c,0,64.0,65.0
2845,1,57485,Note_on_c,0,69.0,80.0
2848,1,57561,Control_c,0,64.0,62.0
2850,1,57576,Control_c,0,64.0,67.0
2854,1,57591,Control_c,0,64.0,75.0
2855,1,57594,Note_on_c,0,79.0,89.0
2856,1,57606,Control_c,0,64.0,93.0
2857,1,57622,Control_c,0,64.0,127.0
2858,1,57702,Note_on_c,0,81.0,92.0
2860,1,57785,Note_on_c,0,58.0,65.0
2861,1,57805,Note_on_c,0,62.0,67.0
2862,1,57825,Note_on_c,0,64.0,73.0
2863,1,57825,Note_on_c,0,79.0,93.0
2864,1,57827,Control_c,0,64.0,68.0
2865,1,57836,Note_on_c,0,67.0,81.0
2868,1,57903,Control_c,0,64.0,51.0
2869,1,57918,Control_c,0,64.0,65.0
2873,1,57933,Control_c,0,64.0,73.0
2875,1,57949,Control_c,0,64.0,97.0
2876,1,57949,Note_on_c,0,77.0,80.0
2877,1,57964,Control_c,0,64.0,127.0
2879,1,58059,Note_on_c,0,76.0,79.0
2882,1,58117,Note_on_c,0,58.0,56.0
2883,1,58154,Note_on_c,0,61.0,59.0
2884,1,58162,Control_c,0,64.0,76.0
2886,1,58183,Note_on_c,0,64.0,64.0
2887,1,58195,Note_on_c,0,74.0,84.0
2888,1,58196,Note_on_c,0,67.0,80.0
2889,1,58238,Control_c,0,64.0,61.0
2891,1,58253,Control_c,0,64.0,69.0
2892,1,58269,Control_c,0,64.0,91.0
2896,1,58284,Control_c,0,64.0,127.0
2897,1,58310,Note_on_c,0,73.0,76.0
2900,1,58426,Note_on_c,0,74.0,77.0
2901,1,58512,Control_c,0,64.0,91.0
2902,1,58527,Control_c,0,64.0,62.0
2903,1,58529,Note_on_c,0,57.0,80.0
2904,1,58538,Note_on_c,0,73.0,67.0
2909,1,58662,Note_on_c,0,69.0,58.0
2910,1,58793,Note_on_c,0,76.0,62.0
2912,1,58919,Note_on_c,0,81.0,95.0
2913,1,58933,Note_on_c,0,73.0,76.0
2917,1,59047,Note_on_c,0,69.0,66.0
2919,1,59162,Note_on_c,0,76.0,59.0
2920,1,59279,Note_on_c,0,70.0,63.0
2921,1,59281,Note_on_c,0,55.0,85.0
2925,1,59410,Note_on_c,0,67.0,69.0
2926,1,59528,Note_on_c,0,76.0,60.0
2928,1,59663,Note_on_c,0,82.0,99.0
2929,1,59669,Note_on_c,0,73.0,79.0
2932,1,59790,Note_on_c,0,67.0,65.0
2934,1,59901,Note_on_c,0,76.0,68.0
2937,1,60024,Note_on_c,0,53.0,84.0
2938,1,60031,Note_on_c,0,74.0,74.0
2940,1,60165,Note_on_c,0,69.0,66.0
2942,1,60273,Note_on_c,0,77.0,67.0
2944,1,60410,Note_on_c,0,81.0,103.0
2945,1,60415,Note_on_c,0,74.0,79.0
2948,1,60532,Note_on_c,0,69.0,68.0
2950,1,60645,Note_on_c,0,77.0,70.0
2953,1,60764,Note_on_c,0,76.0,72.0
2954,1,60771,Note_on_c,0,52.0,86.0
2956,1,60899,Note_on_c,0,69.0,70.0
2958,1,60998,Note_on_c,0,79.0,78.0
2960,1,61141,Note_on_c,0,76.0,78.0
2961,1,61142,Note_on_c,0,85.0,104.0
2964,1,61261,Note_on_c,0,69.0,71.0
2966,1,61361,Note_on_c,0,79.0,88.0
2968,1,61499,Note_on_c,0,50.0,77.0
2969,1,61500,Note_on_c,0,77.0,87.0
2972,1,61621,Note_on_c,0,76.0,86.0
2974,1,61730,Note_on_c,0,74.0,86.0
2976,1,61860,Note_on_c,0,81.0,100.0
2977,1,61875,Note_on_c,0,62.0,66.0
2980,1,61978,Note_on_c,0,65.0,72.0
2983,1,62098,Note_on_c,0,69.0,68.0
2984,1,62243,Note_on_c,0,46.0,92.0
2985,1,62250,Note_on_c,0,58.0,64.0
2988,1,62388,Note_on_c,0,62.0,63.0
2990,1,62504,Note_on_c,0,69.0,64.0
2993,1,62628,Note_on_c,0,79.0,95.0
2994,1,62634,Note_on_c,0,58.0,61.0
2997,1,62748,Note_on_c,0,62.0,65.0
2999,1,62868,Note_on_c,0,67.0,61.0
3000,1,63011,Note_on_c,0,45.0,88.0
3001,1,63012,Note_on_c,0,57.0,53.0
3005,1,63145,Note_on_c,0,62.0,57.0
3007,1,63263,Note_on_c,0,65.0,59.0
3008,1,63394,Note_on_c,0,57.0,53.0
3009,1,63397,Note_on_c,0,77.0,88.0
3012,1,63464,Control_c,0,67.0,12.0
3013,1,63479,Control_c,0,67.0,20.0
3015,1,63495,Control_c,0,67.0,29.0
3016,1,63501,Note_on_c,0,62.0,61.0
3017,1,63510,Control_c,0,67.0,36.0
3018,1,63525,Control_c,0,67.0,44.0
3019,1,63540,Control_c,0,67.0,52.0
3020,1,63555,Control_c,0,67.0,59.0
3021,1,63571,Control_c,0,67.0,67.0
3023,1,63586,Control_c,0,67.0,74.0
3024,1,63601,Control_c,0,67.0,80.0
3025,1,63617,Control_c,0,67.0,86.0
3026,1,63621,Note_on_c,0,65.0,60.0
3027,1,63632,Control_c,0,67.0,93.0
3028,1,63646,Control_c,0,67.0,97.0
3029,1,63662,Control_c,0,67.0,102.0
3030,1,63677,Control_c,0,67.0,104.0
3031,1,63693,Control_c,0,67.0,106.0
3032,1,63707,Control_c,0,67.0,107.0
3033,1,63722,Control_c,0,67.0,108.0
3034,1,63737,Control_c,0,67.0,108.0
3035,1,63752,Control_c,0,67.0,109.0
3037,1,63765,Note_on_c,0,55.0,52.0
3038,1,63766,Note_on_c,0,43.0,81.0
3039,1,63769,Control_c,0,67.0,110.0
3040,1,63784,Control_c,0,67.0,112.0
3041,1,63799,Control_c,0,67.0,114.0
3043,1,63815,Control_c,0,67.0,118.0
3044,1,63830,Control_c,0,67.0,120.0
3045,1,63844,Control_c,0,67.0,121.0
3046,1,63891,Control_c,0,67.0,120.0
3048,1,63906,Control_c,0,67.0,120.0
3049,1,63908,Note_on_c,0,61.0,54.0
3050,1,63929,Control_c,0,67.0,119.0
3051,1,63944,Control_c,0,67.0,119.0
3052,1,63974,Control_c,0,67.0,118.0
3054,1,64004,Control_c,0,67.0,118.0
3055,1,64029,Note_on_c,0,64.0,59.0
3056,1,64035,Control_c,0,67.0,117.0
3057,1,64096,Control_c,0,67.0,117.0
3058,1,64141,Control_c,0,67.0,116.0
3059,1,64155,Note_on_c,0,76.0,77.0
3060,1,64166,Note_on_c,0,55.0,53.0
3062,1,64186,Control_c,0,67.0,117.0
3065,1,64277,Control_c,0,67.0,117.0
3066,1,64289,Note_on_c,0,61.0,55.0
3067,1,64293,Control_c,0,67.0,118.0
3068,1,64307,Control_c,0,67.0,119.0
3069,1,64338,Control_c,0,67.0,119.0
3071,1,64369,Control_c,0,67.0,120.0
3072,1,64384,Control_c,0,67.0,120.0
3073,1,64390,Note_on_c,0,64.0,58.0
3074,1,64399,Control_c,0,67.0,121.0
3075,1,64520,Control_c,0,67.0,120.0
3076,1,64528,Note_on_c,0,41.0,69.0
3077,1,64539,Note_on_c,0,53.0,56.0
3080,1,64613,Control_c,0,67.0,119.0
3081,1,64628,Control_c,0,67.0,118.0
3082,1,64643,Control_c,0,67.0,117.0
3083,1,64659,Control_c,0,67.0,116.0
3085,1,64660,Note_on_c,0,57.0,52.0
3086,1,64696,Control_c,0,67.0,116.0
3087,1,64726,Control_c,0,67.0,115.0
3088,1,64742,Control_c,0,67.0,115.0
3090,1,64772,Control_c,0,67.0,114.0
3091,1,64792,Note_on_c,0,64.0,49.0
3092,1,64833,Control_c,0,67.0,114.0
3093,1,64864,Control_c,0,67.0,113.0
3094,1,64930,Note_on_c,0,74.0,75.0
3096,1,64936,Note_on_c,0,53.0,49.0
3098,1,65016,Control_c,0,67.0,114.0
3100,1,65030,Control_c,0,67.0,114.0
3101,1,65045,Control_c,0,67.0,115.0
3102,1,65048,Note_on_c,0,57.0,53.0
3103,1,65061,Control_c,0,67.0,115.0
3104,1,65076,Control_c,0,67.0,116.0
3105,1,65092,Control_c,0,67.0,117.0
3106,1,65106,Control_c,0,67.0,117.0
3107,1,65121,Control_c,0,67.0,118.0
3109,1,65137,Control_c,0,67.0,118.0
3110,1,65151,Control_c,0,67.0,119.0
3111,1,65166,Control_c,0,67.0,119.0
3112,1,65168,Note_on_c,0,62.0,55.0
3113,1,65313,Note_on_c,0,40.0,63.0
3114,1,65314,Note_on_c,0,52.0,48.0
3116,1,65335,Control_c,0,67.0,119.0
3118,1,65381,Control_c,0,67.0,118.0
3119,1,65396,Control_c,0,67.0,118.0
3120,1,65412,Control_c,0,67.0,117.0
3121,1,65427,Control_c,0,67.0,116.0
3123,1,65442,Control_c,0,67.0,115.0
3124,1,65442,Note_on_c,0,55.0,52.0
3125,1,65465,Control_c,0,67.0,115.0
3126,1,65480,Control_c,0,67.0,114.0
3127,1,65541,Control_c,0,67.0,114.0
3129,1,65556,Control_c,0,67.0,113.0
3130,1,65572,Control_c,0,67.0,113.0
3131,1,65573,Note_on_c,0,62.0,54.0
3133,1,65729,Note_on_c,0,52.0,48.0
3134,1,65730,Note_on_c,0,73.0,72.0
3137,1,65830,Control_c,0,67.0,113.0
3138,1,65842,Note_on_c,0,55.0,48.0
3139,1,65861,Control_c,0,67.0,114.0
3140,1,65875,Control_c,0,67.0,114.0
3141,1,65891,Control_c,0,67.0,115.0
3142,1,65921,Control_c,0,67.0,115.0
3143,1,65937,Control_c,0,67.0,116.0
3145,1,65966,Control_c,0,67.0,116.0
3146,1,65968,Note_on_c,0,61.0,58.0
3148,1,66102,Control_c,0,67.0,116.0
3149,1,66132,Control_c,0,67.0,115.0
3150,1,66229,Note_on_c,0,50.0,45.0
3151,1,66231,Control_c,0,67.0,115.0
3152,1,66246,Note_on_c,0,38.0,56.0
3153,1,66262,Control_c,0,64.0,40.0
3154,1,66262,Control_c,0,67.0,114.0
3155,1,66277,Control_c,0,64.0,63.0
3156,1,66277,Control_c,0,67.0,114.0
3158,1,66293,Control_c,0,64.0,67.0
3159,1,66293,Control_c,0,67.0,113.0
3161,1,66307,Control_c,0,64.0,78.0
3162,1,66307,Control_c,0,67.0,112.0
3163,1,66322,Control_c,0,64.0,127.0
3164,1,66322,Control_c,0,67.0,110.0
3165,1,66338,Control_c,0,67.0,107.0
3166,1,66353,Control_c,0,67.0,104.0
3167,1,66368,Control_c,0,67.0,98.0
3168,1,66383,Control_c,0,67.0,91.0
3169,1,66398,Control_c,0,67.0,82.0
3170,1,66414,Control_c,0,67.0,69.0
3171,1,66429,Control_c,0,67.0,56.0
3172,1,66444,Control_c,0,67.0,43.0
3173,1,66460,Control_c,0,67.0,33.0
3174,1,66475,Control_c,0,67.0,27.0
3175,1,66491,Control_c,0,67.0,24.0
3176,1,66505,Control_c,0,67.0,20.0
3177,1,66520,Control_c,0,67.0,11.0
3179,1,66799,Note_on_c,0,77.0,75.0
3180,1,66857,Note_on_c,0,79.0,82.0
3182,1,66884,Control_c,0,64.0,74.0
3183,1,66884,Note_on_c,0,81.0,86.0
3186,1,67328,Note_on_c,0,79.0,81.0
3188,1,67474,Note_on_c,0,77.0,88.0
3190,1,67592,Note_on_c,0,76.0,89.0
3191,1,67625,Note_on_c,0,58.0,52.0
3193,1,67670,Note_on_c,0,62.0,55.0
3194,1,67696,Note_on_c,0,64.0,58.0
3195,1,67730,Note_on_c,0,74.0,88.0
3196,1,67738,Note_on_c,0,67.0,75.0
3198,1,67858,Control_c,0,64.0,31.0
3199,1,67867,Note_on_c,0,73.0,87.0
3200,1,67874,Control_c,0,64.0,60.0
3201,1,67890,Control_c,0,64.0,66.0
3203,1,67905,Control_c,0,64.0,76.0
3204,1,67919,Control_c,0,64.0,127.0
3209,1,67985,Note_on_c,0,74.0,92.0
3212,1,68175,Note_on_c,0,57.0,50.0
3213,1,68209,Note_on_c,0,61.0,50.0
3214,1,68223,Note_on_c,0,64.0,50.0
3215,1,68229,Note_on_c,0,74.0,76.0
3216,1,68241,Note_on_c,0,67.0,57.0
3217,1,68269,Control_c,0,64.0,90.0
3218,1,68281,Note_on_c,0,73.0,75.0
3220,1,68284,Control_c,0,64.0,81.0
3221,1,68300,Control_c,0,64.0,78.0
3222,1,68315,Control_c,0,64.0,75.0
3223,1,68331,Control_c,0,64.0,68.0
3224,1,68333,Note_on_c,0,74.0,71.0
3226,1,68346,Control_c,0,64.0,58.0
3228,1,68389,Note_on_c,0,73.0,73.0
3230,1,68498,Control_c,0,67.0,14.0
3231,1,68513,Control_c,0,67.0,24.0
3232,1,68533,Control_c,0,67.0,32.0
3233,1,68549,Control_c,0,64.0,62.0
3234,1,68549,Control_c,0,67.0,41.0
3235,1,68564,Control_c,0,64.0,66.0
3236,1,68564,Control_c,0,67.0,48.0
3237,1,68579,Control_c,0,64.0,76.0
3238,1,68579,Control_c,0,67.0,58.0
3240,1,68594,Control_c,0,64.0,102.0
3241,1,68594,Control_c,0,67.0,68.0
3242,1,68609,Control_c,0,64.0,127.0
3243,1,68609,Control_c,0,67.0,78.0
3244,1,68625,Control_c,0,67.0,88.0
3245,1,68640,Control_c,0,67.0,98.0
3246,1,68656,Control_c,0,67.0,111.0
3247,1,68670,Control_c,0,67.0,123.0
3248,1,68686,Control_c,0,67.0,127.0
3249,1,68915,Note_on_c,0,78.0,58.0
3250,1,68952,Note_on_c,0,79.0,73.0
3252,1,68975,Control_c,0,64.0,102.0
3255,1,68990,Control_c,0,64.0,71.0
3257,1,69005,Control_c,0,64.0,35.0
3258,1,69009,Note_on_c,0,81.0,69.0
3262,1,69450,Note_on_c,0,78.0,56.0
3264,1,69595,Note_on_c,0,76.0,60.0
3267,1,69726,Note_on_c,0,74.0,61.0
3268,1,69757,Note_on_c,0,50.0,28.0
3269,1,69769,Note_on_c,0,54.0,36.0
3270,1,69795,Note_on_c,0,57.0,35.0
3271,1,69840,Note_on_c,0,62.0,50.0
3272,1,69843,Note_on_c,0,60.0,42.0
3273,1,69868,Note_on_c,0,72.0,59.0
3275,1,69955,Control_c,0,64.0,35.0
3277,1,69970,Control_c,0,64.0,60.0
3279,1,69986,Control_c,0,64.0,65.0
3281,1,70001,Control_c,0,64.0,70.0
3282,1,70006,Note_on_c,0,70.0,61.0
3283,1,70016,Control_c,0,64.0,81.0
3285,1,70031,Control_c,0,64.0,119.0
3286,1,70046,Control_c,0,64.0,127.0
3289,1,70122,Note_on_c,0,69.0,59.0
3292,1,70272,Note_on_c,0,55.0,44.0
3293,1,70307,Note_on_c,0,72.0,66.0
3294,1,70313,Note_on_c,0,58.0,46.0
3295,1,70328,Control_c,0,64.0,122.0
3296,1,70344,Control_c,0,64.0,92.0
3298,1,70359,Control_c,0,64.0,81.0
3299,1,70359,Note_on_c,0,62.0,48.0
3300,1,70367,Note_on_c,0,70.0,65.0
3301,1,70373,Control_c,0,64.0,73.0
3302,1,70389,Control_c,0,64.0,70.0
3303,1,70404,Control_c,0,64.0,67.0
3305,1,70420,Control_c,0,64.0,63.0
3306,1,70424,Note_on_c,0,72.0,59.0
3308,1,70472,Note_on_c,0,70.0,66.0
3310,1,70556,Control_c,0,64.0,46.0
3311,1,70571,Control_c,0,64.0,64.0
3312,1,70586,Control_c,0,64.0,68.0
3314,1,70601,Control_c,0,64.0,76.0
3315,1,70617,Control_c,0,64.0,87.0
3316,1,70631,Control_c,0,64.0,107.0
3317,1,70646,Control_c,0,64.0,127.0
3321,1,70882,Note_on_c,0,76.0,72.0
3322,1,70910,Note_on_c,0,77.0,83.0
3323,1,70927,Control_c,0,64.0,73.0
3326,1,70952,Note_on_c,0,79.0,89.0
3328,1,71049,Control_c,0,67.0,126.0
3329,1,71065,Control_c,0,67.0,126.0
3330,1,71080,Control_c,0,67.0,125.0
3331,1,71142,Control_c,0,67.0,123.0
3332,1,71157,Control_c,0,67.0,120.0
3333,1,71171,Control_c,0,67.0,116.0
3334,1,71187,Control_c,0,67.0,113.0
3335,1,71202,Control_c,0,67.0,112.0
3336,1,71218,Control_c,0,67.0,110.0
3337,1,71233,Control_c,0,67.0,106.0
3338,1,71248,Control_c,0,67.0,100.0
3339,1,71264,Control_c,0,67.0,92.0
3340,1,71279,Control_c,0,67.0,85.0
3341,1,71293,Control_c,0,67.0,78.0
3342,1,71309,Control_c,0,67.0,75.0
3343,1,71324,Control_c,0,67.0,74.0
3344,1,71346,Note_on_c,0,76.0,67.0
3345,1,71369,Control_c,0,64.0,42.0
3346,1,71385,Control_c,0,64.0,65.0
3347,1,71385,Control_c,0,67.0,74.0
3349,1,71400,Control_c,0,64.0,75.0
3350,1,71415,Control_c,0,64.0,127.0
3351,1,71445,Control_c,0,67.0,75.0
3353,1,71483,Note_on_c,0,74.0,77.0
3354,1,71490,Control_c,0,67.0,74.0
3356,1,71566,Control_c,0,67.0,75.0
3357,1,71600,Note_on_c,0,72.0,69.0
3359,1,71650,Control_c,0,67.0,74.0
3360,1,71718,Note_on_c,0,72.0,69.0
3361,1,71726,Control_c,0,64.0,74.0
3362,1,71737,Note_on_c,0,62.0,64.0
3363,1,71741,Note_on_c,0,67.0,55.0
3364,1,71741,Note_on_c,0,70.0,78.0
3367,1,71771,Control_c,0,67.0,75.0
3368,1,71787,Control_c,0,67.0,74.0
3371,1,71832,Control_c,0,67.0,75.0
3372,1,71878,Control_c,0,67.0,75.0
3373,1,71884,Note_on_c,0,69.0,64.0
3375,1,71955,Control_c,0,67.0,75.0
3376,1,71995,Note_on_c,0,70.0,65.0
3379,1,72120,Note_on_c,0,61.0,60.0
3380,1,72122,Control_c,0,67.0,74.0
3381,1,72123,Note_on_c,0,67.0,56.0
3382,1,72126,Note_on_c,0,69.0,64.0
3385,1,72253,Note_on_c,0,70.0,68.0
3387,1,72306,Control_c,0,67.0,75.0
3388,1,72356,Note_on_c,0,69.0,69.0
3390,1,72449,Control_c,0,67.0,74.0
3391,1,72472,Note_on_c,0,72.0,84.0
3393,1,72490,Note_on_c,0,62.0,76.0
3394,1,72495,Note_on_c,0,67.0,71.0
3395,1,72502,Note_on_c,0,70.0,82.0
3399,1,72642,Note_on_c,0,69.0,69.0
3400,1,72647,Control_c,0,67.0,75.0
3402,1,72750,Note_on_c,0,70.0,75.0
3404,1,72883,Note_on_c,0,69.0,72.0
3405,1,72887,Note_on_c,0,67.0,59.0
3406,1,72890,Note_on_c,0,61.0,56.0
3410,1,72994,Note_on_c,0,70.0,72.0
3412,1,73096,Note_on_c,0,69.0,62.0
3414,1,73198,Note_on_c,0,72.0,75.0
3416,1,73224,Note_on_c,0,62.0,62.0
3417,1,73231,Note_on_c,0,67.0,56.0
3419,1,73241,Note_on_c,0,70.0,73.0
3420,1,73278,Control_c,0,67.0,75.0
3422,1,73305,Note_on_c,0,72.0,57.0
3424,1,73353,Note_on_c,0,70.0,73.0
3427,1,73426,Note_on_c,0,69.0,65.0
3428,1,73486,Note_on_c,0,70.0,65.0
3430,1,73506,Control_c,0,67.0,75.0
3432,1,73594,Note_on_c,0,69.0,74.0
3433,1,73599,Note_on_c,0,67.0,60.0
3434,1,73601,Note_on_c,0,61.0,58.0
3439,1,73716,Note_on_c,0,71.0,79.0
3441,1,73820,Note_on_c,0,73.0,84.0
3442,1,73826,Control_c,0,67.0,75.0
3444,1,73891,Note_on_c,0,58.0,50.0
3445,1,73921,Note_on_c,0,62.0,54.0
3446,1,73946,Note_on_c,0,76.0,84.0
3447,1,73947,Note_on_c,0,64.0,66.0
3448,1,73953,Note_on_c,0,67.0,75.0
3449,1,73955,Control_c,0,67.0,75.0
3450,1,73962,Note_on_c,0,74.0,90.0
3452,1,74016,Control_c,0,67.0,75.0
3454,1,74046,Control_c,0,67.0,76.0
3455,1,74062,Control_c,0,67.0,76.0
3456,1,74077,Control_c,0,67.0,77.0
3457,1,74085,Note_on_c,0,73.0,87.0
3458,1,74091,Control_c,0,67.0,77.0
3459,1,74122,Control_c,0,67.0,78.0
3465,1,74197,Note_on_c,0,74.0,85.0
3466,1,74213,Control_c,0,67.0,78.0
3467,1,74244,Control_c,0,67.0,79.0
3469,1,74289,Control_c,0,67.0,79.0
3470,1,74305,Control_c,0,67.0,80.0
3471,1,74319,Note_on_c,0,73.0,79.0
3472,1,74320,Control_c,0,67.0,81.0
3473,1,74328,Note_on_c,0,57.0,52.0
3474,1,74328,Note_on_c,0,67.0,56.0
3475,1,74330,Note_on_c,0,61.0,51.0
3476,1,74336,Control_c,0,67.0,82.0
3477,1,74337,Note_on_c,0,64.0,45.0
3478,1,74350,Control_c,0,67.0,82.0
3479,1,74365,Control_c,0,67.0,83.0
3481,1,74381,Control_c,0,67.0,84.0
3482,1,74396,Control_c,0,67.0,85.0
3483,1,74411,Control_c,0,67.0,86.0
3484,1,74428,Control_c,0,67.0,87.0
3485,1,74442,Control_c,0,67.0,91.0
3486,1,74443,Note_on_c,0,74.0,78.0
3488,1,74457,Control_c,0,67.0,94.0
3489,1,74472,Control_c,0,67.0,98.0
3494,1,74487,Control_c,0,67.0,104.0
3495,1,74503,Control_c,0,67.0,109.0
3496,1,74517,Control_c,0,67.0,116.0
3497,1,74532,Control_c,0,67.0,124.0
3498,1,74548,Control_c,0,67.0,127.0
3499,1,74550,Note_on_c,0,73.0,74.0
3501,1,74641,Note_on_c,0,76.0,73.0
3502,1,74646,Note_on_c,0,58.0,47.0
3503,1,74656,Note_on_c,0,62.0,47.0
3504,1,74675,Note_on_c,0,67.0,54.0
3505,1,74679,Note_on_c,0,64.0,42.0
3507,1,74689,Note_on_c,0,74.0,71.0
3509,1,74752,Note_on_c,0,76.0,68.0
3512,1,74806,Note_on_c,0,74.0,66.0
3517,1,74861,Note_on_c,0,73.0,70.0
3519,1,74917,Note_on_c,0,74.0,69.0
3520,1,75002,Note_on_c,0,73.0,66.0
3522,1,75031,Note_on_c,0,61.0,50.0
3523,1,75036,Note_on_c,0,67.0,54.0
3524,1,75039,Note_on_c,0,57.0,41.0
3525,1,75039,Note_on_c,0,64.0,46.0
3527,1,75139,Note_on_c,0,74.0,72.0
3533,1,75243,Note_on_c,0,76.0,78.0
3535,1,75351,Note_on_c,0,79.0,78.0
3536,1,75372,Note_on_c,0,62.0,53.0
3537,1,75376,Note_on_c,0,65.0,50.0
3538,1,75378,Note_on_c,0,77.0,72.0
3539,1,75380,Note_on_c,0,69.0,44.0
3544,1,75495,Note_on_c,0,76.0,87.0
3547,1,75608,Note_on_c,0,77.0,90.0
3549,1,75725,Note_on_c,0,76.0,87.0
3550,1,75727,Note_on_c,0,67.0,53.0
3551,1,75729,Note_on_c,0,69.0,55.0
3552,1,75739,Note_on_c,0,64.0,55.0
3553,1,75749,Note_on_c,0,61.0,51.0
3557,1,75843,Note_on_c,0,77.0,84.0
3559,1,75942,Note_on_c,0,76.0,83.0
3562,1,76042,Note_on_c,0,79.0,83.0
3564,1,76057,Note_on_c,0,65.0,53.0
3565,1,76065,Note_on_c,0,69.0,53.0
3566,1,76073,Note_on_c,0,62.0,57.0
3569,1,76099,Note_on_c,0,77.0,75.0
3571,1,76154,Note_on_c,0,79.0,71.0
3573,1,76212,Note_on_c,0,77.0,73.0
3576,1,76281,Note_on_c,0,76.0,74.0
3578,1,76349,Note_on_c,0,77.0,74.0
3581,1,76409,Note_on_c,0,64.0,54.0
3582,1,76409,Note_on_c,0,69.0,53.0
3583,1,76409,Note_on_c,0,76.0,80.0
3584,1,76416,Note_on_c,0,67.0,42.0
3585,1,76419,Note_on_c,0,61.0,49.0
3589,1,76549,Note_on_c,0,74.0,76.0
3592,1,76651,Note_on_c,0,76.0,75.0
3594,1,76776,Note_on_c,0,69.0,55.0
3595,1,76776,Note_on_c,0,77.0,76.0
3596,1,76780,Note_on_c,0,62.0,52.0
3597,1,76790,Note_on_c,0,65.0,49.0
3603,1,76896,Note_on_c,0,76.0,73.0
3605,1,77011,Note_on_c,0,77.0,74.0
3607,1,77130,Note_on_c,0,79.0,76.0
3608,1,77148,Note_on_c,0,58.0,53.0
3609,1,77149,Note_on_c,0,62.0,49.0
3610,1,77152,Note_on_c,0,67.0,50.0
3615,1,77262,Note_on_c,0,77.0,72.0
3617,1,77376,Note_on_c,0,76.0,69.0
3619,1,77510,Note_on_c,0,67.0,53.0
3620,1,77510,Note_on_c,0,74.0,71.0
3621,1,77515,Note_on_c,0,62.0,50.0
3622,1,77524,Note_on_c,0,58.0,45.0
3623,1,77525,Note_on_c,0,55.0,38.0
3629,1,77617,Note_on_c,0,73.0,62.0
3631,1,77732,Note_on_c,0,74.0,67.0
3633,1,77871,Note_on_c,0,57.0,61.0
3634,1,77871,Note_on_c,0,73.0,65.0
3635,1,77902,Control_c,0,64.0,60.0
3637,1,77917,Control_c,0,64.0,65.0
3638,1,77932,Control_c,0,64.0,70.0
3639,1,77947,Control_c,0,64.0,96.0
3641,1,77962,Control_c,0,64.0,127.0
3642,1,77992,Note_on_c,0,69.0,59.0
3643,1,78105,Note_on_c,0,76.0,65.0
3645,1,78236,Control_c,0,64.0,113.0
3646,1,78250,Note_on_c,0,73.0,70.0
3647,1,78250,Note_on_c,0,81.0,91.0
3648,1,78251,Control_c,0,64.0,80.0
3649,1,78267,Control_c,0,64.0,59.0
3654,1,78378,Note_on_c,0,69.0,55.0
3655,1,78480,Note_on_c,0,76.0,61.0
3658,1,78638,Control_c,0,64.0,42.0
3659,1,78641,Note_on_c,0,78.0,76.0
3660,1,78641,Note_on_c,0,86.0,91.0
3661,1,78653,Control_c,0,64.0,64.0
3662,1,78669,Control_c,0,64.0,69.0
3664,1,78684,Control_c,0,64.0,87.0
3665,1,78700,Control_c,0,64.0,127.0
3666,1,78763,Note_on_c,0,74.0,68.0
3668,1,78872,Note_on_c,0,69.0,62.0
3670,1,79010,Note_on_c,0,79.0,81.0
3671,1,79019,Control_c,0,64.0,87.0
3672,1,79023,Note_on_c,0,45.0,83.0
3674,1,79034,Control_c,0,64.0,63.0
3677,1,79141,Note_on_c,0,76.0,63.0
3679,1,79252,Note_on_c,0,69.0,59.0
3681,1,79403,Note_on_c,0,78.0,61.0
3683,1,79428,Note_on_c,0,38.0,75.0
3684,1,79452,Control_c,0,64.0,56.0
3686,1,79468,Control_c,0,64.0,65.0
3687,1,79482,Control_c,0,64.0,74.0
3688,1,79498,Control_c,0,64.0,111.0
3689,1,79513,Control_c,0,64.0,127.0
3690,1,79516,Note_on_c,0,74.0,68.0
3693,1,79634,Note_on_c,0,69.0,62.0
3694,1,79787,Control_c,0,64.0,69.0
3695,1,79788,Note_on_c,0,81.0,104.0
3696,1,79792,Note_on_c,0,76.0,70.0
3700,1,79832,Control_c,0,67.0,125.0
3701,1,79847,Control_c,0,67.0,122.0
3702,1,79863,Control_c,0,67.0,122.0
3703,1,79900,Note_on_c,0,73.0,73.0
3705,1,79954,Control_c,0,67.0,122.0
3707,1,80012,Note_on_c,0,69.0,64.0
3708,1,80052,Control_c,0,67.0,122.0
3709,1,80128,Control_c,0,67.0,122.0
3710,1,80160,Control_c,0,67.0,122.0
3711,1,80163,Note_on_c,0,78.0,79.0
3712,1,80171,Note_on_c,0,86.0,96.0
3713,1,80176,Control_c,0,64.0,58.0
3714,1,80191,Control_c,0,64.0,68.0
3715,1,80191,Control_c,0,67.0,121.0
3718,1,80205,Control_c,0,64.0,84.0
3719,1,80205,Control_c,0,67.0,121.0
3720,1,80221,Control_c,0,64.0,127.0
3721,1,80221,Control_c,0,67.0,120.0
3722,1,80251,Control_c,0,67.0,119.0
3723,1,80281,Control_c,0,67.0,119.0
3724,1,80289,Note_on_c,0,74.0,74.0
3725,1,80297,Control_c,0,67.0,118.0
3726,1,80312,Control_c,0,67.0,118.0
3728,1,80327,Control_c,0,67.0,117.0
3729,1,80342,Control_c,0,67.0,116.0
3730,1,80357,Control_c,0,67.0,116.0
3731,1,80421,Note_on_c,0,69.0,62.0
3733,1,80448,Control_c,0,67.0,115.0
3734,1,80478,Control_c,0,67.0,115.0
3735,1,80493,Control_c,0,67.0,114.0
3736,1,80524,Control_c,0,64.0,98.0
3737,1,80540,Control_c,0,64.0,65.0
3738,1,80545,Note_on_c,0,79.0,82.0
3739,1,80548,Note_on_c,0,45.0,81.0
3743,1,80659,Note_on_c,0,76.0,65.0
3744,1,80690,Control_c,0,67.0,115.0
3746,1,80706,Control_c,0,67.0,115.0
3748,1,80780,Note_on_c,0,69.0,56.0
3749,1,80880,Control_c,0,67.0,115.0
3750,1,80911,Control_c,0,67.0,114.0
3752,1,80926,Control_c,0,67.0,114.0
3753,1,80928,Note_on_c,0,78.0,78.0
3754,1,80930,Note_on_c,0,38.0,67.0
3755,1,80942,Control_c,0,67.0,113.0
3756,1,80956,Control_c,0,64.0,65.0
3757,1,80956,Control_c,0,67.0,112.0
3759,1,80972,Control_c,0,64.0,78.0
3760,1,80972,Control_c,0,67.0,111.0
3761,1,80988,Control_c,0,64.0,127.0
3762,1,80988,Control_c,0,67.0,110.0
3763,1,81003,Control_c,0,67.0,110.0
3764,1,81034,Control_c,0,67.0,109.0
3766,1,81044,Note_on_c,0,74.0,69.0
3768,1,81159,Note_on_c,0,69.0,54.0
3770,1,81231,Control_c,0,67.0,109.0
3771,1,81261,Control_c,0,67.0,108.0
3772,1,81291,Control_c,0,67.0,109.0
3773,1,81304,Note_on_c,0,81.0,94.0
3774,1,81307,Control_c,0,64.0,72.0
3775,1,81307,Control_c,0,67.0,109.0
3776,1,81311,Note_on_c,0,61.0,55.0
3778,1,81322,Control_c,0,67.0,110.0
3780,1,81398,Control_c,0,67.0,110.0
3781,1,81413,Control_c,0,67.0,111.0
3782,1,81429,Control_c,0,67.0,111.0
3783,1,81429,Note_on_c,0,64.0,61.0
3784,1,81444,Control_c,0,67.0,112.0
3786,1,81459,Control_c,0,67.0,112.0
3787,1,81474,Control_c,0,67.0,113.0
3789,1,81526,Note_on_c,0,69.0,57.0
3791,1,81685,Note_on_c,0,86.0,92.0
3792,1,81696,Note_on_c,0,62.0,57.0
3794,1,81770,Control_c,0,67.0,114.0
3795,1,81787,Control_c,0,67.0,115.0
3796,1,81802,Control_c,0,67.0,116.0
3797,1,81817,Control_c,0,67.0,117.0
3798,1,81824,Note_on_c,0,66.0,60.0
3799,1,81832,Control_c,0,67.0,118.0
3801,1,81847,Control_c,0,67.0,118.0
3802,1,81863,Control_c,0,67.0,119.0
3803,1,81878,Control_c,0,67.0,119.0
3804,1,81892,Control_c,0,67.0,120.0
3805,1,81908,Control_c,0,67.0,121.0
3806,1,81923,Control_c,0,67.0,121.0
3808,1,81941,Note_on_c,0,69.0,44.0
3809,1,81953,Control_c,0,67.0,122.0
3810,1,82056,Note_on_c,0,57.0,49.0
3811,1,82059,Note_on_c,0,45.0,82.0
3812,1,82060,Control_c,0,67.0,122.0
3814,1,82075,Control_c,0,67.0,123.0
3815,1,82090,Control_c,0,67.0,124.0
3816,1,82105,Control_c,0,67.0,126.0
3818,1,82120,Control_c,0,67.0,127.0
3820,1,82193,Note_on_c,0,64.0,54.0
3822,1,82307,Note_on_c,0,69.0,45.0
3823,1,82438,Note_on_c,0,38.0,81.0
3825,1,82462,Note_on_c,0,62.0,58.0
3828,1,82591,Note_on_c,0,66.0,53.0
3830,1,82710,Note_on_c,0,69.0,48.0
3831,1,82722,Control_c,0,67.0,127.0
3832,1,82753,Control_c,0,67.0,126.0
3833,1,82820,Note_on_c,0,81.0,84.0
3835,1,82843,Note_on_c,0,61.0,54.0
3836,1,82844,Control_c,0,67.0,127.0
3838,1,82966,Note_on_c,0,64.0,55.0
3841,1,83066,Note_on_c,0,69.0,51.0
3842,1,83213,Note_on_c,0,86.0,84.0
3844,1,83236,Note_on_c,0,62.0,53.0
3846,1,83264,Control_c,0,67.0,127.0
3848,1,83351,Note_on_c,0,66.0,52.0
3849,1,83459,Note_on_c,0,69.0,48.0
3851,1,83585,Note_on_c,0,45.0,71.0
3852,1,83587,Note_on_c,0,57.0,52.0
3856,1,83720,Note_on_c,0,64.0,54.0
3858,1,83829,Note_on_c,0,69.0,49.0
3860,1,84043,Note_on_c,0,38.0,56.0
3861,1,84054,Note_on_c,0,62.0,53.0
3862,1,84062,Control_c,0,64.0,56.0
3864,1,84077,Control_c,0,64.0,64.0
3866,1,84093,Control_c,0,64.0,69.0
3867,1,84108,Control_c,0,64.0,82.0
3868,1,84122,Control_c,0,64.0,127.0
3869,1,84419,Note_on_c,0,50.0,49.0
3870,1,84420,Note_on_c,0,66.0,71.0
3871,1,84428,Control_c,0,64.0,83.0
3872,1,84443,Control_c,0,64.0,56.0
3876,1,84495,Note_on_c,0,67.0,60.0
3877,1,84542,Note_on_c,0,66.0,64.0
3878,1,84562,Note_on_c,0,59.0,54.0
3882,1,84605,Note_on_c,0,64.0,65.0
3883,1,84673,Note_on_c,0,66.0,55.0
3885,1,84721,Note_on_c,0,52.0,52.0
3886,1,84735,Note_on_c,0,67.0,73.0
3890,1,84810,Note_on_c,0,69.0,61.0
3891,1,84864,Note_on_c,0,67.0,63.0
3893,1,84896,Note_on_c,0,61.0,53.0
3896,1,84933,Note_on_c,0,66.0,73.0
3898,1,84999,Note_on_c,0,67.0,59.0
3899,1,85046,Note_on_c,0,54.0,53.0
3900,1,85052,Note_on_c,0,69.0,72.0
3904,1,85115,Note_on_c,0,71.0,65.0
3905,1,85180,Note_on_c,0,69.0,67.0
3907,1,85214,Note_on_c,0,62.0,63.0
3909,1,85241,Control_c,0,67.0,127.0
3911,1,85247,Note_on_c,0,67.0,71.0
3912,1,85256,Control_c,0,67.0,126.0
3913,1,85271,Control_c,0,67.0,126.0
3914,1,85286,Control_c,0,67.0,125.0
3915,1,85302,Control_c,0,67.0,125.0
3916,1,85311,Note_on_c,0,69.0,62.0
3918,1,85317,Control_c,0,67.0,124.0
3919,1,85332,Control_c,0,67.0,123.0
3920,1,85347,Control_c,0,67.0,122.0
3921,1,85362,Control_c,0,67.0,122.0
3922,1,85364,Note_on_c,0,55.0,54.0
3923,1,85367,Note_on_c,0,71.0,71.0
3924,1,85377,Control_c,0,67.0,121.0
3925,1,85392,Control_c,0,67.0,120.0
3928,1,85407,Control_c,0,67.0,119.0
3929,1,85430,Control_c,0,67.0,117.0
3931,1,85434,Note_on_c,0,73.0,69.0
3932,1,85445,Control_c,0,67.0,116.0
3933,1,85461,Control_c,0,67.0,115.0
3934,1,85476,Control_c,0,67.0,114.0
3935,1,85507,Control_c,0,67.0,113.0
3936,1,85508,Note_on_c,0,71.0,70.0
3937,1,85522,Control_c,0,67.0,113.0
3939,1,85539,Note_on_c,0,64.0,58.0
3942,1,85580,Note_on_c,0,69.0,68.0
3943,1,85582,Control_c,0,67.0,112.0
3944,1,85597,Control_c,0,67.0,112.0
3945,1,85613,Control_c,0,67.0,111.0
3946,1,85628,Control_c,0,67.0,111.0
3947,1,85629,Note_on_c,0,71.0,56.0
3949,1,85690,Note_on_c,0,73.0,75.0
3950,1,85699,Note_on_c,0,57.0,58.0
3951,1,85704,Control_c,0,67.0,110.0
3954,1,85735,Control_c,0,67.0,110.0
3955,1,85757,Note_on_c,0,74.0,70.0
3957,1,85780,Control_c,0,67.0,109.0
3958,1,85814,Note_on_c,0,73.0,65.0
3960,1,85849,Note_on_c,0,66.0,68.0
3963,1,85890,Note_on_c,0,71.0,66.0
3964,1,85917,Control_c,0,67.0,109.0
3965,1,85938,Note_on_c,0,73.0,65.0
3967,1,85994,Control_c,0,67.0,108.0
3968,1,86004,Note_on_c,0,74.0,80.0
3969,1,86009,Note_on_c,0,59.0,57.0
3971,1,86024,Control_c,0,67.0,108.0
3973,1,86055,Control_c,0,67.0,107.0
3975,1,86063,Note_on_c,0,76.0,66.0
3976,1,86070,Control_c,0,67.0,107.0
3977,1,86085,Control_c,0,67.0,106.0
3978,1,86115,Control_c,0,67.0,106.0
3979,1,86117,Note_on_c,0,74.0,74.0
3981,1,86146,Control_c,0,67.0,105.0
3982,1,86161,Control_c,0,67.0,104.0
3983,1,86171,Note_on_c,0,67.0,58.0
3985,1,86183,Note_on_c,0,73.0,74.0
3986,1,86199,Control_c,0,67.0,103.0
3988,1,86215,Control_c,0,67.0,102.0
3989,1,86229,Control_c,0,67.0,101.0
3990,1,86244,Control_c,0,67.0,99.0
3992,1,86259,Note_on_c,0,74.0,76.0
3993,1,86260,Control_c,0,67.0,98.0
3994,1,86275,Control_c,0,67.0,96.0
3995,1,86291,Control_c,0,67.0,95.0
3996,1,86305,Control_c,0,67.0,94.0
3997,1,86320,Control_c,0,67.0,92.0
3998,1,86325,Note_on_c,0,76.0,80.0
3999,1,86327,Note_on_c,0,61.0,67.0
4001,1,86336,Control_c,0,67.0,90.0
4002,1,86351,Control_c,0,67.0,86.0
4003,1,86366,Control_c,0,67.0,82.0
4005,1,86381,Control_c,0,67.0,78.0
4007,1,86387,Note_on_c,0,78.0,80.0
4008,1,86396,Control_c,0,67.0,75.0
4009,1,86412,Control_c,0,67.0,74.0
4010,1,86427,Control_c,0,67.0,73.0
4011,1,86442,Control_c,0,67.0,71.0
4012,1,86451,Note_on_c,0,76.0,80.0
4013,1,86458,Control_c,0,67.0,69.0
4014,1,86473,Control_c,0,67.0,67.0
4016,1,86485,Note_on_c,0,69.0,68.0
4017,1,86489,Control_c,0,67.0,66.0
4018,1,86503,Control_c,0,67.0,64.0
4021,1,86518,Control_c,0,67.0,61.0
4022,1,86522,Note_on_c,0,74.0,81.0
4023,1,86534,Control_c,0,67.0,58.0
4024,1,86548,Control_c,0,67.0,56.0
4025,1,86563,Control_c,0,67.0,53.0
4026,1,86573,Note_on_c,0,76.0,74.0
4027,1,86579,Control_c,0,67.0,52.0
4029,1,86594,Control_c,0,67.0,51.0
4030,1,86610,Control_c,0,67.0,47.0
4031,1,86624,Control_c,0,67.0,44.0
4032,1,86632,Note_on_c,0,62.0,66.0
4033,1,86638,Note_on_c,0,78.0,85.0
4034,1,86639,Control_c,0,67.0,41.0
4035,1,86655,Control_c,0,67.0,39.0
4036,1,86670,Control_c,0,67.0,38.0
4039,1,86685,Control_c,0,67.0,36.0
4040,1,86697,Note_on_c,0,79.0,77.0
4041,1,86701,Control_c,0,67.0,34.0
4043,1,86717,Control_c,0,67.0,31.0
4044,1,86732,Control_c,0,67.0,29.0
4045,1,86747,Control_c,0,67.0,28.0
4046,1,86759,Note_on_c,0,78.0,78.0
4047,1,86762,Control_c,0,67.0,26.0
4048,1,86778,Control_c,0,67.0,23.0
4050,1,86789,Note_on_c,0,71.0,76.0
4051,1,86793,Control_c,0,67.0,19.0
4052,1,86807,Control_c,0,67.0,15.0
4053,1,86822,Note_on_c,0,76.0,82.0
4055,1,86823,Control_c,0,67.0,10.0
4058,1,86883,Note_on_c,0,78.0,80.0
4060,1,86941,Note_on_c,0,64.0,73.0
4061,1,86942,Note_on_c,0,79.0,88.0
4065,1,87005,Note_on_c,0,81.0,77.0
4066,1,87062,Note_on_c,0,79.0,82.0
4068,1,87093,Note_on_c,0,73.0,80.0
4069,1,87121,Note_on_c,0,78.0,83.0
4073,1,87179,Note_on_c,0,79.0,83.0
4074,1,87239,Note_on_c,0,81.0,91.0
4075,1,87243,Note_on_c,0,66.0,82.0
4079,1,87303,Note_on_c,0,83.0,84.0
4080,1,87360,Note_on_c,0,81.0,86.0
4082,1,87391,Note_on_c,0,74.0,90.0
4084,1,87420,Note_on_c,0,79.0,86.0
4086,1,87476,Note_on_c,0,81.0,77.0
4088,1,87534,Note_on_c,0,67.0,91.0
4089,1,87534,Note_on_c,0,83.0,96.0
4093,1,87736,Note_on_c,0,69.0,83.0
4094,1,87736,Note_on_c,0,85.0,91.0
4097,1,87915,Note_on_c,0,86.0,85.0
4098,1,87919,Note_on_c,0,71.0,80.0
4100,1,87992,Note_on_c,0,85.0,84.0
4102,1,88071,Note_on_c,0,83.0,86.0
4104,1,88151,Note_on_c,0,81.0,86.0
4106,1,88210,Note_on_c,0,67.0,82.0
4107,1,88223,Note_on_c,0,79.0,86.0
4110,1,88301,Note_on_c,0,78.0,90.0
4112,1,88375,Note_on_c,0,76.0,86.0
4115,1,88454,Note_on_c,0,74.0,86.0
4116,1,88541,Note_on_c,0,76.0,87.0
4117,1,88557,Note_on_c,0,69.0,73.0
4120,1,88633,Note_on_c,0,81.0,81.0
4122,1,88671,Note_on_c,0,79.0,26.0
4124,1,88702,Note_on_c,0,79.0,45.0
4126,1,88790,Note_on_c,0,78.0,83.0
4128,1,88873,Note_on_c,0,76.0,84.0
4129,1,88879,Note_on_c,0,57.0,63.0
4132,1,88954,Note_on_c,0,74.0,82.0
4133,1,88958,Control_c,0,64.0,29.0
4134,1,88974,Control_c,0,64.0,54.0
4135,1,88989,Control_c,0,64.0,62.0
4137,1,89004,Control_c,0,64.0,65.0
4138,1,89020,Control_c,0,64.0,67.0
4139,1,89030,Note_on_c,0,73.0,80.0
4140,1,89035,Control_c,0,64.0,71.0
4142,1,89051,Control_c,0,64.0,82.0
4143,1,89066,Control_c,0,64.0,127.0
4144,1,89124,Note_on_c,0,71.0,82.0
4146,1,89292,Note_on_c,0,69.0,75.0
4148,1,89393,Control_c,0,64.0,88.0
4149,1,89409,Control_c,0,64.0,61.0
4151,1,89426,Note_on_c,0,71.0,70.0
4153,1,89484,Control_c,0,64.0,53.0
4155,1,89496,Note_on_c,0,69.0,69.0
4156,1,89500,Control_c,0,64.0,63.0
4157,1,89515,Control_c,0,64.0,65.0
4158,1,89530,Control_c,0,64.0,70.0
4159,1,89540,Note_on_c,0,71.0,63.0
4160,1,89545,Control_c,0,64.0,76.0
4162,1,89560,Control_c,0,64.0,83.0
4163,1,89576,Control_c,0,64.0,86.0
4164,1,89591,Control_c,0,64.0,88.0
4165,1,89598,Note_on_c,0,69.0,64.0
4167,1,89605,Control_c,0,64.0,90.0
4168,1,89621,Control_c,0,64.0,91.0
4169,1,89621,Control_c,0,67.0,13.0
4170,1,89636,Control_c,0,64.0,93.0
4171,1,89636,Control_c,0,67.0,20.0
4172,1,89651,Control_c,0,64.0,97.0
4173,1,89651,Control_c,0,67.0,26.0
4174,1,89651,Note_on_c,0,71.0,67.0
4176,1,89665,Note_on_c,0,54.0,65.0
4177,1,89666,Control_c,0,64.0,101.0
4178,1,89666,Control_c,0,67.0,34.0
4179,1,89681,Control_c,0,64.0,108.0
4180,1,89681,Control_c,0,67.0,42.0
4181,1,89697,Control_c,0,64.0,127.0
4182,1,89697,Control_c,0,67.0,53.0
4183,1,89709,Note_on_c,0,69.0,63.0
4184,1,89712,Control_c,0,67.0,65.0
4186,1,89726,Control_c,0,67.0,75.0
4187,1,89742,Control_c,0,67.0,84.0
4188,1,89757,Control_c,0,67.0,92.0
4189,1,89759,Note_on_c,0,71.0,65.0
4191,1,89773,Control_c,0,67.0,101.0
4192,1,89788,Control_c,0,67.0,111.0
4193,1,89802,Control_c,0,67.0,120.0
4194,1,89812,Note_on_c,0,62.0,71.0
4195,1,89816,Note_on_c,0,69.0,70.0
4196,1,89818,Control_c,0,67.0,127.0
4201,1,89879,Note_on_c,0,67.0,76.0
4202,1,89934,Note_on_c,0,69.0,79.0
4204,1,90037,Note_on_c,0,55.0,80.0
4205,1,90153,Note_on_c,0,71.0,68.0
4206,1,90161,Control_c,0,64.0,85.0
4207,1,90176,Control_c,0,64.0,61.0
4211,1,90220,Note_on_c,0,73.0,71.0
4212,1,90267,Control_c,0,64.0,53.0
4213,1,90280,Note_on_c,0,64.0,61.0
4214,1,90282,Control_c,0,64.0,63.0
4215,1,90293,Note_on_c,0,71.0,70.0
4216,1,90298,Control_c,0,64.0,66.0
4218,1,90313,Control_c,0,64.0,70.0
4219,1,90329,Control_c,0,64.0,77.0
4223,1,90344,Control_c,0,64.0,85.0
4224,1,90358,Note_on_c,0,69.0,75.0
4225,1,90359,Control_c,0,64.0,91.0
4226,1,90374,Control_c,0,64.0,99.0
4227,1,90389,Control_c,0,64.0,111.0
4228,1,90393,Note_on_c,0,71.0,67.0
4229,1,90404,Control_c,0,64.0,127.0
4231,1,90455,Note_on_c,0,57.0,89.0
4232,1,90472,Note_on_c,0,73.0,80.0
4234,1,90540,Note_on_c,0,74.0,75.0
4235,1,90541,Control_c,0,64.0,67.0
4238,1,90603,Note_on_c,0,73.0,71.0
4239,1,90632,Control_c,0,64.0,60.0
4241,1,90635,Note_on_c,0,66.0,71.0
4242,1,90646,Control_c,0,64.0,65.0
4243,1,90662,Control_c,0,64.0,72.0
4245,1,90677,Control_c,0,64.0,90.0
4246,1,90677,Note_on_c,0,71.0,76.0
4248,1,90693,Control_c,0,64.0,127.0
4250,1,90723,Note_on_c,0,73.0,73.0
4252,1,90804,Note_on_c,0,74.0,81.0
4253,1,90809,Note_on_c,0,59.0,87.0
4255,1,90869,Control_c,0,64.0,80.0
4257,1,90872,Note_on_c,0,76.0,77.0
4258,1,90883,Control_c,0,64.0,31.0
4260,1,90941,Note_on_c,0,74.0,72.0
4262,1,90971,Note_on_c,0,67.0,72.0
4263,1,90975,Control_c,0,64.0,54.0
4264,1,90990,Control_c,0,64.0,63.0
4266,1,91003,Note_on_c,0,73.0,75.0
4267,1,91004,Control_c,0,64.0,67.0
4269,1,91020,Control_c,0,64.0,71.0
4271,1,91035,Control_c,0,64.0,79.0
4272,1,91051,Control_c,0,64.0,86.0
4273,1,91066,Control_c,0,64.0,90.0
4275,1,91074,Note_on_c,0,74.0,73.0
4276,1,91081,Control_c,0,64.0,93.0
4277,1,91096,Control_c,0,64.0,94.0
4278,1,91111,Control_c,0,64.0,94.0
4279,1,91151,Note_on_c,0,61.0,73.0
4280,1,91154,Note_on_c,0,76.0,76.0
4282,1,91187,Control_c,0,64.0,92.0
4283,1,91202,Control_c,0,64.0,82.0
4285,1,91218,Control_c,0,64.0,64.0
4286,1,91227,Note_on_c,0,78.0,75.0
4288,1,91309,Control_c,0,64.0,26.0
4289,1,91309,Note_on_c,0,76.0,71.0
4291,1,91319,Note_on_c,0,69.0,60.0
4292,1,91324,Control_c,0,64.0,56.0
4293,1,91339,Control_c,0,64.0,63.0
4296,1,91352,Control_c,0,64.0,65.0
4298,1,91367,Control_c,0,64.0,67.0
4299,1,91367,Note_on_c,0,74.0,70.0
4300,1,91383,Control_c,0,64.0,70.0
4301,1,91398,Control_c,0,64.0,74.0
4302,1,91414,Control_c,0,64.0,80.0
4304,1,91418,Note_on_c,0,76.0,63.0
4305,1,91429,Control_c,0,64.0,87.0
4306,1,91444,Control_c,0,64.0,95.0
4307,1,91460,Control_c,0,64.0,103.0
4308,1,91475,Control_c,0,64.0,105.0
4309,1,91491,Note_on_c,0,78.0,74.0
4310,1,91509,Note_on_c,0,62.0,62.0
4311,1,91520,Control_c,0,64.0,97.0
4313,1,91536,Control_c,0,64.0,79.0
4314,1,91550,Control_c,0,64.0,63.0
4316,1,91570,Note_on_c,0,79.0,66.0
4318,1,91637,Note_on_c,0,78.0,64.0
4320,1,91650,Control_c,0,64.0,22.0
4321,1,91665,Control_c,0,64.0,56.0
4322,1,91680,Control_c,0,64.0,63.0
4323,1,91687,Note_on_c,0,71.0,58.0
4324,1,91696,Control_c,0,64.0,65.0
4327,1,91711,Control_c,0,64.0,67.0
4329,1,91721,Note_on_c,0,76.0,64.0
4330,1,91725,Control_c,0,64.0,70.0
4331,1,91741,Control_c,0,64.0,74.0
4332,1,91756,Control_c,0,64.0,78.0
4333,1,91766,Note_on_c,0,78.0,61.0
4335,1,91772,Control_c,0,64.0,81.0
4336,1,91787,Control_c,0,64.0,86.0
4337,1,91802,Control_c,0,64.0,91.0
4338,1,91818,Control_c,0,64.0,93.0
4339,1,91832,Control_c,0,64.0,93.0
4340,1,91837,Note_on_c,0,79.0,73.0
4341,1,91847,Control_c,0,64.0,81.0
4343,1,91863,Control_c,0,64.0,65.0
4344,1,91869,Note_on_c,0,64.0,54.0
4347,1,91903,Note_on_c,0,81.0,63.0
4348,1,91954,Control_c,0,64.0,44.0
4349,1,91970,Control_c,0,64.0,59.0
4351,1,91974,Note_on_c,0,79.0,63.0
4352,1,91984,Control_c,0,64.0,63.0
4354,1,91999,Control_c,0,64.0,65.0
4355,1,92011,Note_on_c,0,73.0,62.0
4356,1,92015,Control_c,0,64.0,67.0
4358,1,92028,Note_on_c,0,78.0,64.0
4359,1,92030,Control_c,0,64.0,70.0
4361,1,92045,Control_c,0,64.0,73.0
4362,1,92060,Control_c,0,64.0,76.0
4364,1,92075,Control_c,0,64.0,78.0
4365,1,92091,Control_c,0,64.0,81.0
4366,1,92092,Note_on_c,0,79.0,62.0
4367,1,92105,Control_c,0,64.0,87.0
4368,1,92121,Control_c,0,64.0,97.0
4369,1,92137,Control_c,0,64.0,107.0
4370,1,92152,Control_c,0,64.0,101.0
4372,1,92166,Note_on_c,0,81.0,74.0
4373,1,92167,Control_c,0,64.0,74.0
4374,1,92180,Note_on_c,0,66.0,62.0
4375,1,92182,Control_c,0,64.0,20.0
4378,1,92233,Note_on_c,0,83.0,61.0
4379,1,92258,Control_c,0,64.0,40.0
4380,1,92273,Control_c,0,64.0,57.0
4381,1,92289,Control_c,0,64.0,62.0
4382,1,92298,Note_on_c,0,81.0,68.0
4384,1,92303,Control_c,0,64.0,64.0
4385,1,92318,Control_c,0,64.0,65.0
4388,1,92342,Control_c,0,64.0,66.0
4389,1,92348,Note_on_c,0,74.0,61.0
4390,1,92372,Note_on_c,0,79.0,65.0
4393,1,92418,Control_c,0,64.0,66.0
4394,1,92432,Note_on_c,0,81.0,61.0
4395,1,92450,Control_c,0,64.0,65.0
4396,1,92465,Control_c,0,64.0,65.0
4397,1,92480,Control_c,0,64.0,57.0
4399,1,92498,Note_on_c,0,83.0,71.0
4401,1,92518,Note_on_c,0,67.0,51.0
4404,1,92698,Note_on_c,0,85.0,74.0
4405,1,92711,Note_on_c,0,69.0,52.0
4408,1,92898,Note_on_c,0,71.0,58.0
4409,1,92903,Note_on_c,0,86.0,69.0
4411,1,92980,Note_on_c,0,85.0,69.0
4413,1,93062,Note_on_c,0,83.0,68.0
4415,1,93151,Note_on_c,0,81.0,69.0
4418,1,93232,Note_on_c,0,79.0,75.0
4419,1,93235,Note_on_c,0,67.0,61.0
4422,1,93310,Note_on_c,0,78.0,74.0
4423,1,93378,Note_on_c,0,76.0,64.0
4426,1,93439,Note_on_c,0,74.0,69.0
4428,1,93554,Note_on_c,0,69.0,53.0
4429,1,93571,Note_on_c,0,74.0,65.0
4432,1,93614,Note_on_c,0,76.0,64.0
4434,1,93662,Note_on_c,0,78.0,70.0
4436,1,93722,Note_on_c,0,76.0,65.0
4438,1,93773,Note_on_c,0,78.0,56.0
4440,1,93830,Note_on_c,0,76.0,61.0
4442,1,93884,Note_on_c,0,78.0,62.0
4443,1,93901,Note_on_c,0,57.0,49.0
4446,1,93949,Note_on_c,0,76.0,60.0
4448,1,93995,Note_on_c,0,78.0,62.0
4450,1,94055,Note_on_c,0,76.0,62.0
4452,1,94110,Note_on_c,0,74.0,64.0
4454,1,94190,Note_on_c,0,76.0,57.0
4455,1,94266,Note_on_c,0,50.0,44.0
4457,1,94269,Note_on_c,0,74.0,66.0
4458,1,94304,Control_c,0,64.0,57.0
4459,1,94319,Control_c,0,64.0,64.0
4461,1,94335,Control_c,0,64.0,67.0
4463,1,94350,Control_c,0,64.0,74.0
4464,1,94365,Control_c,0,64.0,99.0
4465,1,94381,Control_c,0,64.0,127.0
4466,1,94683,Note_on_c,0,86.0,84.0
4467,1,94690,Note_on_c,0,78.0,65.0
4470,1,94820,Note_on_c,0,74.0,66.0
4471,1,94938,Note_on_c,0,69.0,52.0
4473,1,95058,Control_c,0,64.0,97.0
4474,1,95070,Note_on_c,0,43.0,77.0
4475,1,95070,Note_on_c,0,79.0,69.0
4476,1,95073,Control_c,0,64.0,70.0
4481,1,95194,Note_on_c,0,76.0,61.0
4483,1,95327,Note_on_c,0,69.0,53.0
4484,1,95454,Note_on_c,0,45.0,71.0
4486,1,95462,Note_on_c,0,76.0,63.0
4489,1,95585,Note_on_c,0,73.0,57.0
4491,1,95697,Note_on_c,0,69.0,50.0
4493,1,95823,Note_on_c,0,38.0,58.0
4494,1,95824,Note_on_c,0,78.0,66.0
4495,1,95840,Control_c,0,64.0,64.0
4497,1,95856,Control_c,0,64.0,71.0
4498,1,95871,Control_c,0,64.0,91.0
4499,1,95886,Control_c,0,64.0,127.0
4501,1,95947,Note_on_c,0,74.0,65.0
4503,1,96060,Note_on_c,0,69.0,55.0
4505,1,96209,Note_on_c,0,86.0,90.0
4506,1,96219,Note_on_c,0,54.0,54.0
4508,1,96338,Note_on_c,0,57.0,57.0
4511,1,96445,Note_on_c,0,62.0,62.0
4512,1,96584,Note_on_c,0,43.0,82.0
4514,1,96587,Note_on_c,0,55.0,65.0
4515,1,96593,Control_c,0,64.0,75.0
4518,1,96706,Note_on_c,0,59.0,67.0
4521,1,96839,Note_on_c,0,62.0,54.0
4523,1,96975,Note_on_c,0,45.0,73.0
4524,1,96982,Note_on_c,0,57.0,65.0
4527,1,97101,Note_on_c,0,61.0,58.0
4529,1,97217,Note_on_c,0,64.0,55.0
4531,1,97383,Note_on_c,0,38.0,64.0
4532,1,97392,Control_c,0,64.0,26.0
4533,1,97392,Note_on_c,0,50.0,61.0
4534,1,97406,Control_c,0,64.0,63.0
4536,1,97422,Control_c,0,64.0,70.0
4537,1,97437,Control_c,0,64.0,90.0
4538,1,97453,Control_c,0,64.0,127.0
4540,1,97805,Note_on_c,0,86.0,87.0
4541,1,97816,Note_on_c,0,78.0,73.0
4544,1,97927,Note_on_c,0,74.0,66.0
4545,1,98044,Note_on_c,0,69.0,63.0
4546,1,98067,Control_c,0,67.0,127.0
4547,1,98082,Control_c,0,67.0,126.0
4549,1,98098,Control_c,0,67.0,125.0
4550,1,98113,Control_c,0,67.0,124.0
4551,1,98129,Control_c,0,67.0,122.0
4552,1,98144,Control_c,0,67.0,118.0
4553,1,98158,Control_c,0,67.0,114.0
4554,1,98164,Note_on_c,0,43.0,83.0
4555,1,98167,Note_on_c,0,79.0,82.0
4556,1,98175,Control_c,0,64.0,104.0
4557,1,98175,Control_c,0,67.0,111.0
4559,1,98190,Control_c,0,64.0,71.0
4560,1,98190,Control_c,0,67.0,108.0
4561,1,98205,Control_c,0,64.0,45.0
4562,1,98205,Control_c,0,67.0,105.0
4565,1,98221,Control_c,0,67.0,103.0
4566,1,98236,Control_c,0,67.0,99.0
4567,1,98251,Control_c,0,67.0,95.0
4568,1,98266,Control_c,0,67.0,92.0
4569,1,98281,Control_c,0,67.0,90.0
4570,1,98287,Note_on_c,0,76.0,71.0
4571,1,98297,Control_c,0,67.0,89.0
4572,1,98311,Control_c,0,67.0,88.0
4573,1,98326,Control_c,0,67.0,87.0
4574,1,98342,Control_c,0,67.0,87.0
4575,1,98357,Control_c,0,67.0,86.0
4577,1,98373,Control_c,0,67.0,85.0
4578,1,98387,Control_c,0,67.0,84.0
4579,1,98394,Note_on_c,0,69.0,72.0
4581,1,98402,Control_c,0,67.0,83.0
4582,1,98418,Control_c,0,67.0,82.0
4583,1,98433,Control_c,0,67.0,81.0
4584,1,98449,Control_c,0,67.0,79.0
4585,1,98464,Control_c,0,67.0,77.0
4586,1,98486,Control_c,0,67.0,76.0
4587,1,98502,Control_c,0,67.0,75.0
4588,1,98516,Control_c,0,67.0,74.0
4589,1,98531,Note_on_c,0,45.0,70.0
4590,1,98532,Control_c,0,67.0,74.0
4591,1,98538,Note_on_c,0,76.0,73.0
4592,1,98547,Control_c,0,67.0,73.0
4593,1,98562,Control_c,0,67.0,71.0
4595,1,98578,Control_c,0,67.0,70.0
4597,1,98592,Control_c,0,67.0,69.0
4598,1,98607,Control_c,0,67.0,68.0
4599,1,98638,Control_c,0,67.0,68.0
4601,1,98652,Note_on_c,0,73.0,76.0
4602,1,98654,Control_c,0,67.0,67.0
4603,1,98669,Control_c,0,67.0,67.0
4604,1,98684,Control_c,0,67.0,66.0
4605,1,98714,Control_c,0,67.0,66.0
4606,1,98730,Control_c,0,67.0,65.0
4607,1,98745,Control_c,0,67.0,64.0
4609,1,98760,Control_c,0,67.0,62.0
4610,1,98767,Note_on_c,0,69.0,77.0
4611,1,98776,Control_c,0,67.0,60.0
4612,1,98790,Control_c,0,67.0,59.0
4613,1,98805,Control_c,0,67.0,58.0
4614,1,98821,Control_c,0,67.0,57.0
4615,1,98836,Control_c,0,67.0,56.0
4616,1,98851,Control_c,0,67.0,55.0
4618,1,98866,Control_c,0,67.0,54.0
4619,1,98881,Control_c,0,67.0,52.0
4620,1,98897,Control_c,0,67.0,49.0
4621,1,98899,Note_on_c,0,78.0,73.0
4622,1,98909,Note_on_c,0,38.0,63.0
4623,1,98912,Control_c,0,67.0,46.0
4624,1,98926,Control_c,0,67.0,42.0
4625,1,98942,Control_c,0,67.0,39.0
4627,1,98957,Control_c,0,67.0,36.0
4628,1,98973,Control_c,0,67.0,33.0
4629,1,98989,Control_c,0,67.0,28.0
4630,1,99004,Control_c,0,67.0,22.0
4632,1,99019,Control_c,0,67.0,17.0
4633,1,99022,Note_on_c,0,79.0,78.0
4634,1,99034,Control_c,0,67.0,13.0
4635,1,99050,Control_c,0,67.0,11.0
4636,1,99065,Control_c,0,67.0,10.0
4638,1,99135,Note_on_c,0,81.0,88.0
4640,1,99270,Note_on_c,0,67.0,80.0
4641,1,99277,Note_on_c,0,83.0,82.0
4644,1,99393,Note_on_c,0,81.0,89.0
4647,1,99504,Note_on_c,0,79.0,86.0
4648,1,99621,Note_on_c,0,69.0,70.0
4649,1,99625,Note_on_c,0,78.0,84.0
4652,1,99738,Note_on_c,0,79.0,89.0
4654,1,99845,Note_on_c,0,76.0,81.0
4657,1,99977,Note_on_c,0,74.0,80.0
4658,1,99989,Note_on_c,0,57.0,78.0
4660,1,100103,Note_on_c,0,76.0,76.0
4662,1,100211,Note_on_c,0,73.0,77.0
4664,1,100341,Note_on_c,0,74.0,81.0
4665,1,100348,Note_on_c,0,62.0,68.0
4668,1,100469,Note_on_c,0,73.0,78.0
4670,1,100579,Note_on_c,0,71.0,76.0
4672,1,100710,Note_on_c,0,69.0,73.0
4674,1,100717,Note_on_c,0,55.0,65.0
4677,1,100835,Note_on_c,0,71.0,74.0
4678,1,100955,Note_on_c,0,67.0,76.0
4680,1,101085,Note_on_c,0,66.0,73.0
4681,1,101087,Note_on_c,0,57.0,57.0
4684,1,101209,Note_on_c,0,67.0,76.0
4686,1,101323,Note_on_c,0,64.0,74.0
4688,1,101496,Note_on_c,0,62.0,70.0
4689,1,101503,Note_on_c,0,45.0,50.0
4691,1,101537,Control_c,0,67.0,14.0
4692,1,101558,Control_c,0,67.0,21.0
4693,1,101574,Control_c,0,67.0,28.0
4694,1,101589,Control_c,0,67.0,33.0
4695,1,101604,Control_c,0,67.0,39.0
4696,1,101619,Control_c,0,67.0,45.0
4698,1,101634,Control_c,0,67.0,52.0
4699,1,101650,Control_c,0,67.0,60.0
4700,1,101659,Note_on_c,0,64.0,65.0
4701,1,101665,Control_c,0,67.0,68.0
4703,1,101680,Control_c,0,67.0,76.0
4704,1,101696,Control_c,0,67.0,80.0
4705,1,101711,Control_c,0,67.0,85.0
4706,1,101726,Control_c,0,67.0,89.0
4707,1,101741,Control_c,0,67.0,93.0
4708,1,101756,Control_c,0,67.0,96.0
4709,1,101772,Control_c,0,67.0,99.0
4710,1,101787,Control_c,0,67.0,101.0
4711,1,101802,Control_c,0,67.0,101.0
4712,1,101832,Control_c,0,67.0,102.0
4713,1,101844,Note_on_c,0,61.0,72.0
4714,1,101847,Control_c,0,67.0,102.0
4716,1,101878,Control_c,0,67.0,103.0
4717,1,101923,Control_c,0,64.0,56.0
4718,1,101938,Control_c,0,64.0,64.0
4719,1,101953,Control_c,0,64.0,69.0
4720,1,101969,Control_c,0,64.0,85.0
4721,1,101984,Control_c,0,64.0,127.0
4722,1,101984,Control_c,0,67.0,103.0
4723,1,101999,Control_c,0,67.0,104.0
4725,1,102029,Control_c,0,67.0,106.0
4726,1,102044,Control_c,0,67.0,107.0
4727,1,102060,Control_c,0,67.0,109.0
4728,1,102075,Control_c,0,67.0,111.0
4729,1,102090,Control_c,0,67.0,116.0
4730,1,102105,Control_c,0,67.0,122.0
4731,1,102120,Control_c,0,67.0,126.0
4732,1,102136,Control_c,0,67.0,127.0
4733,1,102160,Note_on_c,0,38.0,48.0
4734,1,102231,Note_on_c,0,61.0,54.0
4735,1,102326,Control_c,0,64.0,93.0
4736,1,102342,Control_c,0,64.0,80.0
4737,1,102357,Control_c,0,64.0,74.0
4739,1,102373,Control_c,0,64.0,71.0
4740,1,102389,Note_on_c,0,62.0,64.0
4741,1,102402,Control_c,0,64.0,71.0
4742,1,102418,Control_c,0,64.0,70.0
4744,1,102433,Control_c,0,64.0,70.0
4745,1,102448,Control_c,0,64.0,68.0
4746,1,102454,Note_on_c,0,64.0,61.0
4747,1,102463,Control_c,0,64.0,66.0
4748,1,102478,Control_c,0,64.0,65.0
4749,1,102494,Control_c,0,64.0,64.0
4751,1,102509,Control_c,0,64.0,64.0
4752,1,102517,Note_on_c,0,62.0,63.0
4753,1,102524,Control_c,0,64.0,63.0
4754,1,102540,Control_c,0,64.0,62.0
4756,1,102554,Control_c,0,64.0,60.0
4757,1,102560,Note_on_c,0,64.0,53.0
4758,1,102570,Control_c,0,64.0,56.0
4759,1,102585,Control_c,0,64.0,46.0
4762,1,102613,Note_on_c,0,62.0,62.0
4764,1,102666,Note_on_c,0,64.0,61.0
4766,1,102713,Note_on_c,0,62.0,57.0
4768,1,102770,Note_on_c,0,64.0,61.0
4770,1,102825,Note_on_c,0,62.0,54.0
4772,1,102875,Note_on_c,0,64.0,59.0
4774,1,102934,Note_on_c,0,62.0,59.0
4776,1,102992,Note_on_c,0,64.0,49.0
4777,1,103039,Note_on_c,0,62.0,51.0
4779,1,103350,Control_c,0,67.0,126.0
4780,1,103365,Control_c,0,67.0,123.0
4781,1,103379,Control_c,0,67.0,118.0
4782,1,103395,Control_c,0,67.0,113.0
4783,1,103410,Control_c,0,67.0,108.0
4784,1,103425,Control_c,0,67.0,101.0
4785,1,103440,Control_c,0,67.0,92.0
4786,1,103455,Control_c,0,67.0,85.0
4787,1,103471,Control_c,0,67.0,78.0
4788,1,103486,Control_c,0,67.0,72.0
4789,1,103501,Control_c,0,67.0,67.0
4790,1,103516,Control_c,0,67.0,60.0
4791,1,103531,Control_c,0,67.0,54.0
4792,1,103547,Control_c,0,67.0,50.0
4793,1,103562,Control_c,0,67.0,46.0
4794,1,103577,Control_c,0,67.0,44.0
4795,1,103593,Control_c,0,67.0,40.0
4796,1,103608,Control_c,0,67.0,35.0
4797,1,103623,Control_c,0,67.0,30.0
4798,1,103636,Control_c,0,67.0,25.0
4799,1,103651,Control_c,0,67.0,22.0
4800,1,103667,Control_c,0,67.0,19.0
4801,1,103682,Control_c,0,67.0,18.0
4802,1,103692,Control_c,0,67.0,16.0
4803,1,103705,Control_c,0,67.0,13.0
4804,1,103720,Control_c,0,67.0,10.0
4805,1,103736,Control_c,0,67.0,8.0
4809,1,104975,End_track,,,
4810,0,0,End_of_file,,,
